<?xml version="1.0" encoding="utf-8"?>
<!-- Generator: Adobe Illustrator 23.0.1, SVG Export Plug-In . SVG Version: 6.00 Build 0)  -->
<svg version="1.1" id="Layer_1" xmlns="http://www.w3.org/2000/svg" xmlns:xlink="http://www.w3.org/1999/xlink" x="0px" y="0px"
	 viewBox="0 0 595.28 841.89" style="enable-background:new 0 0 595.28 841.89;" xml:space="preserve">
<style type="text/css">
	.st0{fill:none;stroke:#231F20;stroke-width:7;stroke-miterlimit:10;}
	.st1{fill:#231F20;}
	.st2{fill:#7A7A7A;}
</style>
<g>
	<g>
		<circle class="st0" cx="304.97" cy="404.31" r="134.5"/>
		<path class="st1" d="M396.48,376.93c-0.96,0.59-1.09,2.99-1.09,4.56c-0.02,15.82,0,31.64,0.2,47.45c0.04,2.88-0.84,4.56-3.34,5.95
			c-6.05,3.36-11.96,6.96-18.74,10.95V312.71h-2c-4.84,3.09-9.56,6.4-14.56,9.2c-2.87,1.61-3.88,3.47-3.84,6.72
			c0.16,14.98,0.07,29.96,0.07,44.94v5.79c-3.98-2.2-7.26-3.98-10.51-5.82c-11.29-6.39-22.63-12.7-33.8-19.28
			c-2.96-1.74-5.12-1.8-8.15-0.02c-14.16,8.36-28.5,16.41-43.63,25.06c-0.11-2.34-0.25-4.04-0.25-5.73
			c-0.02-14.98-0.1-29.96,0.06-44.94c0.04-3.25-0.97-5.12-3.84-6.72c-5-2.8-9.72-6.1-14.56-9.2h-2v133.22
			c-7.57-4.74-14.44-8.87-21.06-13.36c-0.93-0.63-0.91-3.02-0.92-4.6c-0.06-15.15-0.16-30.31,0.05-45.46
			c0.05-3.63-1.07-5.91-4.17-7.64c-4.73-2.65-9.33-5.54-14.62-8.71c-0.12,2.43-0.25,4.02-0.25,5.6c-0.01,22.65,0.07,45.3-0.09,67.95
			c-0.02,3.6,1.11,5.58,4.24,7.46c18.99,11.38,37.85,22.96,56.65,34.66c2.82,1.76,4.79,1.73,7.6-0.03
			c12.42-7.76,25.06-15.17,37.49-22.91c2.77-1.72,4.74-1.8,7.58-0.01c12.12,7.61,24.5,14.8,36.64,22.39
			c3.35,2.09,5.78,2.32,9.33,0.09c19.73-12.39,39.66-24.46,59.52-36.63v-78C408.46,370.07,402.34,373.29,396.48,376.93z
			 M353.26,430.71h-0.09c0,7.67,0.1,15.33-0.07,22.99c-0.04,1.8-0.49,4.35-1.69,5.14c-1.05,0.7-3.66-0.18-5.15-1.07
			c-12.15-7.26-24.29-14.54-36.21-22.17c-3.62-2.31-6.25-2.18-9.8,0.05c-12.12,7.62-24.45,14.92-36.71,22.31
			c-4.83,2.91-6.68,1.96-6.69-3.56c-0.04-15.83-0.11-31.66,0.12-47.49c0.03-1.88,1.37-4.54,2.92-5.46
			c14.17-8.41,28.49-16.58,42.89-24.6c1.34-0.75,3.9-0.57,5.3,0.22c14.21,8.01,28.35,16.15,42.36,24.52
			c1.45,0.87,2.65,3.34,2.71,5.12C353.42,414.71,353.26,422.71,353.26,430.71z"/>
	</g>
	<g>
		<path class="st2" d="M277.13,505.39h-1.58v-6.38h-7.14v6.38h-1.58v-13.56h1.58v5.77h7.14v-5.77h1.58V505.39z"/>
		<path class="st2" d="M282.6,492.47c0-0.35,0.09-0.61,0.26-0.77c0.17-0.16,0.39-0.25,0.65-0.25c0.25,0,0.46,0.08,0.64,0.25
			c0.18,0.17,0.27,0.42,0.27,0.77c0,0.35-0.09,0.61-0.27,0.78c-0.18,0.17-0.39,0.25-0.64,0.25c-0.26,0-0.48-0.08-0.65-0.25
			C282.68,493.07,282.6,492.81,282.6,492.47z M284.27,505.39h-1.54v-10.17h1.54V505.39z"/>
		<path class="st2" d="M296.2,502.62c0,0.95-0.35,1.68-1.06,2.19c-0.71,0.51-1.7,0.77-2.97,0.77c-1.35,0-2.4-0.21-3.15-0.64v-1.43
			c0.49,0.25,1.01,0.44,1.57,0.58c0.56,0.14,1.1,0.21,1.62,0.21c0.8,0,1.42-0.13,1.86-0.38c0.43-0.26,0.65-0.65,0.65-1.17
			c0-0.4-0.17-0.73-0.51-1.02c-0.34-0.28-1.01-0.61-2.01-1c-0.95-0.35-1.62-0.66-2.02-0.92c-0.4-0.26-0.7-0.56-0.89-0.9
			c-0.19-0.33-0.29-0.73-0.29-1.2c0-0.83,0.34-1.48,1.01-1.96c0.67-0.48,1.6-0.72,2.77-0.72c1.09,0,2.17,0.22,3.21,0.67l-0.55,1.25
			c-1.02-0.42-1.95-0.63-2.77-0.63c-0.73,0-1.28,0.12-1.65,0.34c-0.37,0.23-0.56,0.54-0.56,0.95c0,0.27,0.07,0.5,0.21,0.7
			c0.14,0.19,0.36,0.37,0.67,0.55c0.31,0.17,0.9,0.42,1.78,0.75c1.21,0.44,2.02,0.88,2.45,1.33
			C295.99,501.38,296.2,501.94,296.2,502.62z"/>
		<path class="st2" d="M304.1,504.3c0.27,0,0.54-0.02,0.79-0.06c0.25-0.04,0.46-0.08,0.6-0.13v1.18c-0.17,0.08-0.41,0.15-0.74,0.2
			c-0.33,0.05-0.62,0.08-0.88,0.08c-1.97,0-2.95-1.04-2.95-3.11v-6.05h-1.46v-0.74l1.46-0.64l0.65-2.17h0.89v2.36h2.95v1.2h-2.95
			v5.98c0,0.61,0.15,1.08,0.44,1.41C303.19,504.14,303.59,504.3,304.1,504.3z"/>
		<path class="st2" d="M318.41,500.3c0,1.66-0.42,2.95-1.25,3.88c-0.83,0.93-1.99,1.4-3.46,1.4c-0.91,0-1.72-0.21-2.42-0.64
			c-0.71-0.43-1.25-1.04-1.63-1.84c-0.38-0.8-0.58-1.73-0.58-2.8c0-1.66,0.41-2.95,1.24-3.87c0.83-0.92,1.98-1.39,3.45-1.39
			c1.42,0,2.55,0.47,3.39,1.42C317.99,497.4,318.41,498.68,318.41,500.3z M310.66,500.3c0,1.3,0.26,2.29,0.78,2.97
			c0.52,0.68,1.28,1.02,2.29,1.02c1.01,0,1.77-0.34,2.3-1.02c0.52-0.68,0.78-1.67,0.78-2.97c0-1.29-0.26-2.27-0.78-2.95
			c-0.52-0.67-1.29-1.01-2.31-1.01c-1.01,0-1.77,0.33-2.28,0.99C310.92,498,310.66,498.98,310.66,500.3z"/>
		<path class="st2" d="M327.85,495.04c0.45,0,0.86,0.04,1.21,0.11l-0.21,1.43c-0.42-0.09-0.79-0.14-1.11-0.14
			c-0.82,0-1.53,0.33-2.11,1c-0.58,0.67-0.88,1.5-0.88,2.5v5.46h-1.54v-10.17h1.27l0.18,1.88h0.07c0.38-0.66,0.83-1.17,1.36-1.53
			C326.63,495.22,327.22,495.04,327.85,495.04z"/>
		<path class="st2" d="M332.95,492.47c0-0.35,0.09-0.61,0.26-0.77c0.17-0.16,0.39-0.25,0.65-0.25c0.25,0,0.46,0.08,0.64,0.25
			c0.18,0.17,0.27,0.42,0.27,0.77c0,0.35-0.09,0.61-0.27,0.78c-0.18,0.17-0.39,0.25-0.64,0.25c-0.26,0-0.48-0.08-0.65-0.25
			C333.04,493.07,332.95,492.81,332.95,492.47z M334.62,505.39h-1.54v-10.17h1.54V505.39z"/>
		<path class="st2" d="M348.77,500.3c0,1.66-0.42,2.95-1.25,3.88c-0.83,0.93-1.99,1.4-3.46,1.4c-0.91,0-1.72-0.21-2.42-0.64
			c-0.71-0.43-1.25-1.04-1.63-1.84c-0.38-0.8-0.58-1.73-0.58-2.8c0-1.66,0.42-2.95,1.24-3.87c0.83-0.92,1.98-1.39,3.45-1.39
			c1.42,0,2.55,0.47,3.39,1.42C348.35,497.4,348.77,498.68,348.77,500.3z M341.02,500.3c0,1.3,0.26,2.29,0.78,2.97
			c0.52,0.68,1.28,1.02,2.29,1.02c1.01,0,1.77-0.34,2.3-1.02c0.52-0.68,0.78-1.67,0.78-2.97c0-1.29-0.26-2.27-0.78-2.95
			c-0.52-0.67-1.29-1.01-2.31-1.01c-1.01,0-1.77,0.33-2.28,0.99C341.28,498,341.02,498.98,341.02,500.3z"/>
	</g>
</g>
</svg>
