<svg xmlns="http://www.w3.org/2000/svg" viewBox="0 0 393.87 549.6">
    <g id="main-group-svg">
        <polygon class="top" points="200.4 36.26 200.4 37.08 229.08 8.39 237.47 0 164.13 0 170.17 6.04 200.4 36.26"/>
        <polygon class="mid" points="309.89 0 300.58 9.3 300.43 9.16 200.37 109.22 198.86 107.71 198.86 106.89 198.71 107.05 181.24 89.58 181.45 89.58 91.87 0 0 0 0 214.82 97.73 312.55 97.73 338.97 97.73 458 97.73 500.74 146.59 549.6 148.72 549.6 148.72 408.09 148.93 408.09 148.93 271.05 51.84 173.95 51.84 36.46 175.29 159.92 175.29 212.78 200.25 237.74 225.06 212.89 225.06 154.26 342.49 36.82 342.49 174.31 245.76 271.05 245.76 525.04 245.61 524.89 245.61 549.6 248.08 549.6 296.85 500.74 296.85 458 296.85 338.97 296.85 312.55 393.87 215.34 393.87 186.43 393.87 0 309.89 0"/>
        <polygon class="right" points="342.64 341.91 342.64 435.5 342.49 435.35 342.49 460.06 344.97 460.06 393.74 411.19 393.74 368.46 393.74 290.72 342.64 341.91"/>
        <polygon class="left" points="51.55 341.24 0.46 290.14 0.46 368.46 0.46 411.19 49.23 460.06 51.7 460.06 51.7 435.35 51.55 435.5 51.55 341.24"/>
    </g>
</svg>