<svg xmlns="http://www.w3.org/2000/svg" viewBox="0 0 921.06 1018.29"><defs><style>.cls-1{fill:#7ea836;}.cls-2{fill:#6f892f;}.cls-3,.cls-8{fill:none;stroke-miterlimit:10;}.cls-3{stroke:#506eff;}.cls-4{fill:#eaeae5;}.cls-5{fill:#aaaaa9;}.cls-6{fill:#c4c4c0;}.cls-7{fill:#e1e1d9;}.cls-8{stroke:#e1e1d9;}</style></defs><title>columnFichier 1</title><g id="Calque_2" data-name="Calque 2"><g id="Calque_2-2" data-name="Calque 2"><path class="cls-1" d="M908.06,649.27l-218.69-127a26.1,26.1,0,0,0-26.26,0l-81.74,47.63a26.11,26.11,0,0,1-26.27,0L500.28,538.1a26.12,26.12,0,0,0-26.26,0h0a26.11,26.11,0,0,1-26.27,0l-83.47-48.47a26.12,26.12,0,0,0-26.26,0l-217.94,127a26.11,26.11,0,0,0,.18,45.22l3.76,2.16a26.11,26.11,0,0,1,.17,45.22L13,774.11a26.11,26.11,0,0,0,.17,45.22L231.08,944.08a26.1,26.1,0,0,0,25.91,0l54.44-31.05a26.1,26.1,0,0,1,25.91,0l166.41,95.25a75.48,75.48,0,0,0,74.87.06L772.82,897.6a26.12,26.12,0,0,0,.17-45.27l-31-18a26.11,26.11,0,0,1,.18-45.26l165.71-94.53A26.12,26.12,0,0,0,908.06,649.27Z"/><path class="cls-2" d="M596.12,780.11l52.17-29.81V687.89H324.14l.93,61.48,53.09,30.74v31.67l27.94,46.57v94.08l97.65,55.89a75.42,75.42,0,0,0,65.36,4.62V858.35l27-46.57Z"/><path class="cls-3" d="M409.85,138.51c-42.25-24.41-42.25-64.34,0-88.75s111.4-24.7,153.65-.66,42.26,64,0,88.75S452.11,162.92,409.85,138.51Z"/><polygon class="cls-4" points="486.68 562.61 324.6 656.69 486.68 749.83 648.75 656.69 486.68 562.61"/><polygon class="cls-5" points="378.32 659.15 378.16 687.56 486.21 750.3 595.19 687.47 595.19 659.15 378.32 659.15"/><polygon class="cls-6" points="486.68 749.83 324.6 656.69 324.6 687.42 486.68 780.57 648.75 687.42 648.75 656.69 486.68 749.83"/><path class="cls-4" d="M387,119.08,382.1,111A48.18,48.18,0,0,0,387,119.08Z"/><path class="cls-4" d="M563.5,137.85c-42.25,24.77-111.39,25.07-153.65.66-10-5.75-17.56-12.36-22.82-19.43l23.27,38.34V562.61h.07c0,11.31,7.42,22.62,22.28,31.2,29.72,17.16,78.34,17,108.05-.46,14.57-8.54,22-19.65,22.26-30.74h.1V157.42L587.22,117C581.94,124.56,574,131.67,563.5,137.85Z"/><polygon class="cls-4" points="382.09 110.96 382.1 110.97 382.1 110.96 382.09 110.96"/><path class="cls-7" d="M559.38,575.4c-.07.13-.14.26-.22.38C559.24,575.66,559.31,575.53,559.38,575.4Z"/><polygon class="cls-7" points="558.28 577.28 558.28 577.28 558.28 577.28 558.28 577.28"/><path class="cls-7" d="M414,576.12a.54.54,0,0,0-.07-.13A.54.54,0,0,1,414,576.12Z"/><path class="cls-7" d="M560.35,573.48l-.28.56Z"/><polygon class="cls-7" points="415.07 577.9 415.07 577.9 415.07 577.9 415.07 577.9"/><path class="cls-7" d="M412.28,572.42c-.06-.14-.11-.27-.16-.41C412.17,572.15,412.22,572.28,412.28,572.42Z"/><path class="cls-7" d="M563,562.61c0,.65-.06,1.31-.13,2C562.9,563.92,562.94,563.26,563,562.61Z"/><path class="cls-7" d="M561.16,571.52c-.08.23-.18.47-.27.7C561,572,561.08,571.75,561.16,571.52Z"/><path class="cls-7" d="M562.73,565.32c-.05.4-.1.81-.18,1.21C562.63,566.13,562.68,565.72,562.73,565.32Z"/><path class="cls-7" d="M561.84,569.52c-.09.28-.17.56-.26.84C561.67,570.08,561.75,569.8,561.84,569.52Z"/><path class="cls-7" d="M562.36,567.47c-.07.33-.14.66-.22,1C562.22,568.13,562.29,567.8,562.36,567.47Z"/><path class="cls-7" d="M413.08,574.29,413,574Z"/><path class="cls-7" d="M410.45,564.63c-.05-.67-.08-1.35-.08-2C410.37,563.28,410.4,564,410.45,564.63Z"/><path class="cls-7" d="M410.69,566.63c-.06-.38-.1-.75-.14-1.12C410.59,565.88,410.63,566.25,410.69,566.63Z"/><path class="cls-7" d="M411.07,568.59c-.06-.27-.11-.54-.16-.81C411,568.05,411,568.32,411.07,568.59Z"/><path class="cls-7" d="M411.61,570.52c-.07-.19-.12-.39-.18-.59C411.49,570.13,411.54,570.33,411.61,570.52Z"/><path class="cls-7" d="M592.2,609.46h0a48.54,48.54,0,0,0-8-12.81l-21.17-34H563c0,.65-.06,1.31-.13,2,0,.24-.07.49-.1.74s-.1.81-.18,1.21-.12.63-.19.94-.14.66-.22,1-.2.71-.3,1.06-.17.56-.26.84-.27.77-.42,1.16c-.08.23-.18.47-.27.7q-.25.63-.54,1.26l-.28.56c-.22.46-.44.91-.69,1.36-.07.13-.14.26-.22.38-.28.51-.56,1-.88,1.5h0c-3.68,5.85-9.53,11.35-17.58,16.07-29.71,17.41-78.33,17.62-108.05.46-8-4.65-13.89-10.1-17.58-15.91h0c-.38-.59-.73-1.19-1.06-1.78a.54.54,0,0,0-.07-.13c-.3-.57-.59-1.13-.86-1.7L413,574c-.25-.53-.47-1.06-.68-1.6-.06-.14-.11-.27-.16-.41-.18-.5-.36-1-.51-1.49-.07-.19-.12-.39-.18-.59-.12-.45-.25-.89-.36-1.34-.06-.27-.11-.54-.16-.81s-.16-.77-.22-1.15-.1-.75-.14-1.12-.08-.59-.1-.88c-.05-.67-.08-1.35-.08-2h-.07l-23.85,38.32a49.4,49.4,0,0,0-3.46,5.56l0,.06h0c-11.4,21.52-2.44,46,26.9,62.9,42.26,24.4,111.4,24.1,153.65-.66C591.12,652.6,600.68,629.93,592.2,609.46Z"/><path class="cls-7" d="M561.58,570.36c-.13.38-.27.77-.42,1.16C561.31,571.13,561.45,570.74,561.58,570.36Z"/><path class="cls-7" d="M562.14,568.46c-.09.35-.2.71-.3,1.06C561.94,569.17,562.05,568.81,562.14,568.46Z"/><path class="cls-7" d="M562.83,564.58c0,.24-.07.49-.1.74C562.76,565.07,562.81,564.82,562.83,564.58Z"/><path class="cls-7" d="M562.55,566.53c0,.31-.12.63-.19.94C562.43,567.16,562.5,566.84,562.55,566.53Z"/><path class="cls-7" d="M413.94,576c-.31-.57-.59-1.13-.86-1.7C413.35,574.86,413.64,575.42,413.94,576Z"/><path class="cls-7" d="M560.89,572.22q-.25.63-.54,1.26Q560.64,572.85,560.89,572.22Z"/><path class="cls-7" d="M411.43,569.93c-.13-.45-.25-.89-.36-1.34C411.18,569,411.31,569.48,411.43,569.93Z"/><path class="cls-7" d="M413,574c-.25-.53-.47-1.06-.68-1.6C412.49,573,412.71,573.49,413,574Z"/><path class="cls-7" d="M415.07,577.9c-.38-.59-.73-1.19-1.06-1.78C414.34,576.71,414.69,577.31,415.07,577.9Z"/><path class="cls-7" d="M412.12,572c-.19-.5-.36-1-.51-1.49C411.76,571,411.94,571.51,412.12,572Z"/><path class="cls-7" d="M410.91,567.78c-.08-.38-.16-.77-.22-1.15C410.75,567,410.83,567.4,410.91,567.78Z"/><path class="cls-7" d="M410.55,565.51c0-.3-.08-.59-.1-.88C410.47,564.92,410.52,565.21,410.55,565.51Z"/><path class="cls-7" d="M560.07,574c-.22.46-.44.91-.69,1.36C559.63,575,559.85,574.5,560.07,574Z"/><path class="cls-7" d="M559.16,575.78c-.28.5-.56,1-.88,1.5C558.6,576.78,558.88,576.29,559.16,575.78Z"/><path class="cls-6" d="M595.19,654.85V625.08h0c-.4,15.77-10.95,31.56-31.67,43.71-42.25,24.76-111.39,25.06-153.65.66-21.1-12.19-31.66-28.25-31.69-44.31v30.67h0v.39h0c.16,15.95,10.72,31.88,31.68,44,42.26,24.4,111.4,24.1,153.65-.67,20.5-12,31-27.6,31.66-43.2h0v-1.47Z"/><path class="cls-8" d="M439.4,494.84v50a87.35,87.35,0,0,0,8.62,3.42v-50C445.05,497.22,442.17,496.09,439.4,494.84Z"/><path class="cls-8" d="M496.69,503.68v50.08q4.35-.36,8.62-1V502.7Q501,503.33,496.69,503.68Z"/><path class="cls-8" d="M487.14,504.1v50.08c2.88,0,5.76-.14,8.62-.35V503.75C492.9,504,490,504.08,487.14,504.1Z"/><path class="cls-8" d="M449,498.52v50c2.8.92,5.68,1.73,8.62,2.42v-50C454.63,500.23,451.75,499.42,449,498.52Z"/><path class="cls-8" d="M468.05,502.87v50.06c2.84.4,5.72.7,8.61.91V503.76C473.77,503.56,470.89,503.26,468.05,502.87Z"/><path class="cls-8" d="M458.5,501.12v50.06c2.82.64,5.7,1.17,8.62,1.61V502.72C464.2,502.29,461.32,501.76,458.5,501.12Z"/><path class="cls-8" d="M486.11,504.11c-2.85,0-5.69-.1-8.52-.28V553.9q4.31.29,8.62.29V504.11Z"/><path class="cls-8" d="M515.79,500.66v50.05q4.41-1.08,8.61-2.49v-50C521.6,499.12,518.72,500,515.79,500.66Z"/><path class="cls-8" d="M544.43,488.62v49.87a53.89,53.89,0,0,0,8.61-7.2V481.63A57,57,0,0,1,544.43,488.62Z"/><path class="cls-8" d="M544.43,437.62v49.87a53.89,53.89,0,0,0,8.61-7.2V430.63A57,57,0,0,1,544.43,437.62Z"/><path class="cls-8" d="M544.43,386.62V436.5a54.46,54.46,0,0,0,8.61-7.21V379.63A55.81,55.81,0,0,1,544.43,386.62Z"/><path class="cls-8" d="M525.33,497.89v50a90.24,90.24,0,0,0,8.62-3.5v-50A92.71,92.71,0,0,1,525.33,497.89Z"/><path class="cls-8" d="M540.94,490.82C539,492,537,493,534.88,494v50c1.92-.93,3.79-1.91,5.59-3,1-.62,2-1.25,3-1.9V489.25C542.67,489.78,541.82,490.31,540.94,490.82Z"/><path class="cls-8" d="M467.12,297.8V247.73c-2.92-.43-5.8-1-8.62-1.6v50.06C461.32,296.83,464.2,297.36,467.12,297.8Z"/><path class="cls-8" d="M457.57,296v-50c-2.94-.69-5.82-1.5-8.62-2.4v50C451.75,294.47,454.63,295.28,457.57,296Z"/><path class="cls-8" d="M432.88,286.49c1.8,1,3.67,2,5.59,2.92v-50c-2.09-1-4.11-2-6.05-3.14-.88-.51-1.73-1-2.56-1.56v49.89C430.83,285.26,431.84,285.88,432.88,286.49Z"/><path class="cls-8" d="M448,293.25v-50c-3-1-5.85-2.13-8.62-3.38v50A87.35,87.35,0,0,0,448,293.25Z"/><path class="cls-8" d="M476.66,298.85V248.77c-2.89-.2-5.77-.5-8.61-.89v50.06C470.89,298.34,473.77,298.64,476.66,298.85Z"/><path class="cls-8" d="M486.21,299.2V249.12h-.1c-2.85,0-5.69-.1-8.52-.28v50.07Q481.9,299.2,486.21,299.2Z"/><path class="cls-8" d="M428.93,386V336.12a55.17,55.17,0,0,1-8.62-6.92v49.67A53.27,53.27,0,0,0,428.93,386Z"/><path class="cls-8" d="M428.93,488V438.12a55.75,55.75,0,0,1-8.62-6.92v49.66A52.76,52.76,0,0,0,428.93,488Z"/><path class="cls-8" d="M428.93,284V234.13a55.2,55.2,0,0,1-8.62-6.93v49.67A52.76,52.76,0,0,0,428.93,284Z"/><path class="cls-8" d="M420.31,482.19v49.67a52.76,52.76,0,0,0,8.62,7.13V489.12A55.2,55.2,0,0,1,420.31,482.19Z"/><path class="cls-8" d="M428.93,437V387.12a55.17,55.17,0,0,1-8.62-6.92v49.66A53.31,53.31,0,0,0,428.93,437Z"/><path class="cls-8" d="M432.42,491.29c-.88-.51-1.73-1-2.56-1.56v49.89c1,.63,2,1.25,3,1.86,1.8,1,3.67,2,5.59,2.92v-50C436.38,493.45,434.36,492.41,432.42,491.29Z"/><path class="cls-8" d="M428.93,335V285.12a55.17,55.17,0,0,1-8.62-6.92v49.67A52.76,52.76,0,0,0,428.93,335Z"/><path class="cls-8" d="M428.93,233V183.13a55.75,55.75,0,0,1-8.62-6.92v49.66A52.76,52.76,0,0,0,428.93,233Z"/><path class="cls-8" d="M432.88,235.49c1.8,1,3.67,2,5.59,2.92v-50c-2.09-1-4.11-2-6.05-3.14-.88-.51-1.73-1-2.56-1.55v49.88C430.83,234.26,431.84,234.89,432.88,235.49Z"/><path class="cls-8" d="M448,242.26v-50c-3-1-5.85-2.13-8.62-3.37v50A89.93,89.93,0,0,0,448,242.26Z"/><path class="cls-8" d="M544.43,335.63V385.5a53.93,53.93,0,0,0,8.61-7.21V328.63A56.45,56.45,0,0,1,544.43,335.63Z"/><path class="cls-8" d="M457.57,245v-50c-2.94-.68-5.82-1.49-8.62-2.4v50C451.75,243.47,454.63,244.28,457.57,245Z"/><path class="cls-8" d="M495.76,298.84V248.76c-2.86.21-5.74.33-8.62.35v50.08C490,299.17,492.9,299.05,495.76,298.84Z"/><path class="cls-8" d="M420.31,533.19v49.67a52.76,52.76,0,0,0,8.62,7.13V540.11A55.17,55.17,0,0,1,420.31,533.19Z"/><path class="cls-8" d="M553,225.3V175.64a57,57,0,0,1-8.61,7V232.5A53.89,53.89,0,0,0,553,225.3Z"/><path class="cls-8" d="M524.4,242.23v-50c-2.8.93-5.68,1.75-8.61,2.46v50.05Q520.2,243.64,524.4,242.23Z"/><path class="cls-8" d="M534,238.43v-50a92.71,92.71,0,0,1-8.62,3.45v50A90.2,90.2,0,0,0,534,238.43Z"/><path class="cls-8" d="M540.47,235c1-.62,2-1.25,3-1.89V183.26c-.83.53-1.68,1.06-2.56,1.57-1.94,1.14-4,2.2-6.06,3.2v50C536.8,237.07,538.67,236.08,540.47,235Z"/><path class="cls-8" d="M544.43,233.63V283.5a53.89,53.89,0,0,0,8.61-7.2V226.64A57,57,0,0,1,544.43,233.63Z"/><path class="cls-8" d="M467.12,246.8V196.73c-2.92-.43-5.8-1-8.62-1.6v50.06C461.32,245.83,464.2,246.36,467.12,246.8Z"/><path class="cls-8" d="M544.43,284.63V334.5a53.93,53.93,0,0,0,8.61-7.21V277.63A56.45,56.45,0,0,1,544.43,284.63Z"/><path class="cls-8" d="M476.66,247.86V197.78c-2.89-.21-5.77-.5-8.61-.9v50.06C470.89,247.34,473.77,247.65,476.66,247.86Z"/><path class="cls-8" d="M486.21,248.2V198.12h-.1c-2.85,0-5.69-.1-8.52-.28v50.08C480.46,248.1,483.33,248.2,486.21,248.2Z"/><path class="cls-8" d="M514.85,245v-50c-2.82.66-5.7,1.21-8.61,1.66v50.07C509.15,246.17,512,245.61,514.85,245Z"/><path class="cls-8" d="M505.31,246.78V196.71q-4.28.63-8.62,1v50.07C499.59,247.53,502.46,247.21,505.31,246.78Z"/><path class="cls-8" d="M495.76,247.84V197.76c-2.86.21-5.74.33-8.62.35V248.2C490,248.17,492.9,248.05,495.76,247.84Z"/><path class="cls-8" d="M534.88,290v50c1.92-.93,3.79-1.91,5.59-3,1-.61,2-1.24,3-1.89V285.25c-.83.54-1.68,1.06-2.56,1.58C539,288,537,289,534.88,290Z"/><path class="cls-8" d="M496.69,401.69v50.07q4.35-.35,8.62-1V400.7Q501,401.33,496.69,401.69Z"/><path class="cls-8" d="M506.24,400.55v50.07c2.91-.46,5.79-1,8.61-1.68V398.89C512,399.55,509.15,400.1,506.24,400.55Z"/><path class="cls-8" d="M525.33,445.91a90.2,90.2,0,0,0,8.62-3.49v-50a92.71,92.71,0,0,1-8.62,3.45Z"/><path class="cls-8" d="M515.79,398.67v50.05c2.94-.72,5.81-1.56,8.61-2.5v-50C521.6,397.13,518.72,398,515.79,398.67Z"/><path class="cls-8" d="M487.14,402.1v50.09c2.88,0,5.76-.15,8.62-.36V401.75C492.9,402,490,402.08,487.14,402.1Z"/><path class="cls-8" d="M486.11,402.12c-2.85,0-5.69-.11-8.52-.29v50.08c2.87.18,5.74.28,8.62.28V402.12Z"/><path class="cls-8" d="M505.31,297.78V247.71q-4.28.63-8.62,1v50.08Q501,298.41,505.31,297.78Z"/><path class="cls-8" d="M514.85,346.94V296.89c-2.82.66-5.7,1.21-8.61,1.67v50.07C509.15,348.16,512,347.61,514.85,346.94Z"/><path class="cls-8" d="M505.31,348.78V298.71q-4.28.63-8.62,1v50.08Q501,349.41,505.31,348.78Z"/><path class="cls-8" d="M525.33,394.92a92.93,92.93,0,0,0,8.62-3.5v-50a92.75,92.75,0,0,1-8.62,3.46Z"/><path class="cls-8" d="M495.76,349.83V299.76c-2.86.21-5.74.32-8.62.35v50.08C490,350.17,492.9,350,495.76,349.83Z"/><path class="cls-8" d="M486.21,350.2V300.12h-.1c-2.85,0-5.69-.1-8.52-.28v50.07Q481.9,350.2,486.21,350.2Z"/><path class="cls-8" d="M534,340.42v-50a92.71,92.71,0,0,1-8.62,3.45v50A92.93,92.93,0,0,0,534,340.42Z"/><path class="cls-8" d="M524.4,344.22v-50c-2.8.93-5.68,1.76-8.61,2.47v50.05Q520.2,345.64,524.4,344.22Z"/><path class="cls-8" d="M476.66,400.85V350.77c-2.89-.21-5.77-.5-8.61-.9v50.06C470.89,400.34,473.77,400.64,476.66,400.85Z"/><path class="cls-8" d="M505.31,399.77V349.7q-4.28.65-8.62,1v50.07Q501,400.42,505.31,399.77Z"/><path class="cls-8" d="M486.21,401.19V351.12h-.1q-4.28,0-8.52-.29v50.08C480.46,401.1,483.33,401.2,486.21,401.19Z"/><path class="cls-8" d="M495.76,400.83V350.75c-2.86.21-5.74.33-8.62.35v50.09C490,401.17,492.9,401,495.76,400.83Z"/><path class="cls-8" d="M524.4,395.22v-50c-2.8.93-5.68,1.76-8.61,2.47v50.05C518.73,397,521.6,396.16,524.4,395.22Z"/><path class="cls-8" d="M514.85,397.94V347.89c-2.82.66-5.7,1.21-8.61,1.67v50.06C509.15,399.16,512,398.61,514.85,397.94Z"/><path class="cls-8" d="M458.5,399.13v50.05c2.82.64,5.7,1.17,8.62,1.61V400.73C464.2,400.29,461.32,399.76,458.5,399.13Z"/><path class="cls-8" d="M467.12,399.79V349.73c-2.92-.43-5.8-1-8.62-1.6v50.05C461.32,398.82,464.2,399.36,467.12,399.79Z"/><path class="cls-8" d="M449,396.52v50c2.8.91,5.68,1.72,8.62,2.42V398.92C454.63,398.24,451.75,397.43,449,396.52Z"/><path class="cls-8" d="M439.4,392.85v50a92.58,92.58,0,0,0,8.62,3.42v-50C445.05,395.22,442.17,394.1,439.4,392.85Z"/><path class="cls-8" d="M448,345.22a90.71,90.71,0,0,1-8.62-3.37v50a92.58,92.58,0,0,0,8.62,3.42Z"/><path class="cls-8" d="M457.57,398v-50c-2.94-.69-5.82-1.5-8.62-2.41v50C451.75,396.47,454.63,397.28,457.57,398Z"/><path class="cls-8" d="M468.05,400.87v50.06c2.84.41,5.72.71,8.61.92V401.77C473.77,401.56,470.89,401.27,468.05,400.87Z"/><path class="cls-8" d="M515.79,449.66v50q4.41-1.08,8.61-2.49v-50C521.6,448.13,518.72,449,515.79,449.66Z"/><path class="cls-8" d="M525.33,446.89v50a90.2,90.2,0,0,0,8.62-3.49v-50A92.71,92.71,0,0,1,525.33,446.89Z"/><path class="cls-8" d="M534.88,443v50c1.92-.92,3.79-1.91,5.59-3,1-.62,2-1.25,3-1.89V438.25c-.83.53-1.68,1.06-2.56,1.57C539,441,537,442,534.88,443Z"/><path class="cls-8" d="M534.88,392v50c1.92-.93,3.79-1.92,5.59-3,1-.62,2-1.25,3-1.89V387.25c-.83.53-1.68,1.06-2.56,1.57C539,390,537,391,534.88,392Z"/><path class="cls-8" d="M496.69,452.69v50.07c2.9-.24,5.77-.56,8.62-1V451.7Q501,452.33,496.69,452.69Z"/><path class="cls-8" d="M487.14,453.1v50.08c2.88,0,5.76-.14,8.62-.35V452.75C492.9,453,490,453.08,487.14,453.1Z"/><path class="cls-8" d="M506.24,451.55v50.07c2.91-.46,5.79-1,8.61-1.68V449.89C512,450.55,509.15,451.1,506.24,451.55Z"/><path class="cls-8" d="M524.4,293.23v-50c-2.8.93-5.68,1.76-8.61,2.47v50.05Q520.2,294.64,524.4,293.23Z"/><path class="cls-8" d="M476.66,349.85V299.77c-2.89-.21-5.77-.5-8.61-.9v50.07C470.89,349.34,473.77,349.64,476.66,349.85Z"/><path class="cls-8" d="M534.88,341v50c1.92-.93,3.79-1.92,5.59-3,1-.61,2-1.25,3-1.89V336.25c-.83.54-1.68,1.06-2.56,1.58C539,339,537,340,534.88,341Z"/><path class="cls-8" d="M534,289.42v-50a92.71,92.71,0,0,1-8.62,3.45v50A90.24,90.24,0,0,0,534,289.42Z"/><path class="cls-8" d="M432.42,542.29c-.88-.51-1.73-1-2.56-1.56v49.88c1,.64,2,1.26,3,1.87,1.8,1,3.67,2,5.59,2.92v-50Q435.34,544,432.42,542.29Z"/><path class="cls-8" d="M540.47,286c1-.62,2-1.25,3-1.9V234.26c-.83.53-1.68,1.06-2.56,1.57C539,237,537,238,534.88,239v50C536.8,288.06,538.67,287.08,540.47,286Z"/><path class="cls-8" d="M514.85,296V245.89c-2.82.66-5.7,1.21-8.61,1.67v50.07C509.15,297.17,512,296.61,514.85,296Z"/><path class="cls-8" d="M486.11,453.11c-2.85,0-5.69-.1-8.52-.28v50.08c2.87.18,5.74.28,8.62.28V453.11Z"/><path class="cls-8" d="M448,344.25v-50a90.71,90.71,0,0,1-8.62-3.37v50A89.89,89.89,0,0,0,448,344.25Z"/><path class="cls-8" d="M438.47,391.4v-50c-2.09-1-4.11-2-6.05-3.14-.88-.5-1.73-1-2.56-1.55v49.88c1,.64,2,1.26,3,1.87C434.68,389.52,436.55,390.49,438.47,391.4Z"/><path class="cls-8" d="M467.12,348.79V298.73c-2.92-.43-5.8-1-8.62-1.6v50.06C461.32,347.83,464.2,348.36,467.12,348.79Z"/><path class="cls-8" d="M457.57,347v-50c-2.94-.69-5.82-1.5-8.62-2.41v50C451.75,345.47,454.63,346.28,457.57,347Z"/><path class="cls-8" d="M438.47,442.4v-50q-3.14-1.46-6.05-3.14c-.88-.51-1.73-1-2.56-1.55v49.88c1,.63,2,1.26,3,1.86C434.68,440.52,436.55,441.49,438.47,442.4Z"/><path class="cls-8" d="M438.47,340.41v-50q-3.14-1.46-6.05-3.13c-.88-.51-1.73-1-2.56-1.56v49.88c1,.64,2,1.26,3,1.87C434.68,338.53,436.55,339.5,438.47,340.41Z"/><path class="cls-8" d="M458.5,450.12v50.06c2.82.64,5.7,1.17,8.62,1.61V451.72C464.2,451.29,461.32,450.76,458.5,450.12Z"/><path class="cls-8" d="M432.42,440.29c-.88-.51-1.73-1-2.56-1.55v49.88c1,.63,2,1.26,3,1.86,1.8,1,3.67,2,5.59,2.92v-50C436.38,442.45,434.36,441.41,432.42,440.29Z"/><path class="cls-8" d="M468.05,451.87v50.06c2.84.4,5.72.71,8.61.92V452.77C473.77,452.56,470.89,452.27,468.05,451.87Z"/><path class="cls-8" d="M439.4,443.85v50a89.93,89.93,0,0,0,8.62,3.43v-50C445.05,446.22,442.17,445.09,439.4,443.85Z"/><path class="cls-8" d="M449,447.52v50c2.8.92,5.68,1.73,8.62,2.42v-50C454.63,449.24,451.75,448.43,449,447.52Z"/><path class="cls-8" d="M506.24,502.55v50.07c2.91-.46,5.79-1,8.61-1.68V500.88C512,501.54,509.15,502.09,506.24,502.55Z"/><path class="cls-8" d="M525.33,548.89v50a92.93,92.93,0,0,0,8.62-3.5v-50A92.71,92.71,0,0,1,525.33,548.89Z"/><path class="cls-8" d="M486.11,555.11c-2.85,0-5.69-.1-8.52-.28V604.9q4.31.29,8.62.29V555.11Z"/><path class="cls-8" d="M515.79,551.66v50.05q4.41-1.08,8.61-2.5v-50C521.6,550.12,518.72,551,515.79,551.66Z"/><path class="cls-8" d="M468.05,553.86v50.07c2.84.4,5.72.7,8.61.91V554.76C473.77,554.55,470.89,554.26,468.05,553.86Z"/><path class="cls-8" d="M544.43,539.62v49.87a53.93,53.93,0,0,0,8.61-7.21V532.62A56.45,56.45,0,0,1,544.43,539.62Z"/><path class="cls-8" d="M487.14,555.1v50.08c2.88,0,5.76-.15,8.62-.36V554.75C492.9,555,490,555.07,487.14,555.1Z"/><path class="cls-8" d="M506.24,553.55v50.07c2.91-.47,5.79-1,8.61-1.69v-50C512,552.54,509.15,553.09,506.24,553.55Z"/><path class="cls-8" d="M540.94,541.82C539,543,537,544,534.88,545v50c1.92-.93,3.79-1.91,5.59-3,1-.61,2-1.25,3-1.89V540.24C542.67,540.78,541.82,541.3,540.94,541.82Z"/><path class="cls-8" d="M439.4,545.84v50a89.89,89.89,0,0,0,8.62,3.42v-50A90.71,90.71,0,0,1,439.4,545.84Z"/><path class="cls-8" d="M449,549.51v50c2.8.92,5.68,1.73,8.62,2.42v-50C454.63,551.23,451.75,550.42,449,549.51Z"/><path class="cls-8" d="M496.69,554.68v50.08q4.35-.36,8.62-1V553.7Q501,554.33,496.69,554.68Z"/><path class="cls-8" d="M458.5,552.12v50.06c2.82.64,5.7,1.17,8.62,1.6V553.72C464.2,553.29,461.32,552.75,458.5,552.12Z"/><path class="cls-8" d="M506.24,603.62v.93c2.91-.46,5.79-1,8.61-1.67v-1C512,602.6,509.15,603.15,506.24,603.62Z"/><path class="cls-8" d="M525.33,598.91v1a92.75,92.75,0,0,0,8.62-3.46v-1A92.93,92.93,0,0,1,525.33,598.91Z"/><path class="cls-8" d="M515.79,601.71v.95c2.93-.71,5.81-1.54,8.61-2.47v-1Q520.2,600.64,515.79,601.71Z"/><path class="cls-8" d="M540.47,592c-1.8,1.06-3.67,2-5.59,3v1c2.09-1,4.12-2,6.06-3.19.88-.52,1.73-1,2.56-1.58v-1.12C542.52,590.76,541.52,591.4,540.47,592Z"/><path class="cls-8" d="M432.88,592.48c-1-.61-2.05-1.23-3-1.87v1.12c.83.53,1.68,1,2.56,1.55q2.91,1.68,6.05,3.14v-1C436.55,594.49,434.68,593.52,432.88,592.48Z"/><path class="cls-8" d="M439.4,595.82v1a90.71,90.71,0,0,0,8.62,3.37v-1A89.89,89.89,0,0,1,439.4,595.82Z"/><path class="cls-8" d="M449,599.54v1c2.8.91,5.68,1.72,8.62,2.41v-1C454.63,601.27,451.75,600.46,449,599.54Z"/><path class="cls-8" d="M496.69,604.76v.92q4.35-.34,8.62-1v-.92Q501,604.4,496.69,604.76Z"/><path class="cls-8" d="M410.83,561.68h-.07v6.74a34,34,0,0,0,8.62,14.82v-1.37C413.8,575.72,410.83,568.83,410.83,561.68Z"/><path class="cls-8" d="M544.43,589.49v1.13a56.45,56.45,0,0,0,8.61-7v-1.34A53.93,53.93,0,0,1,544.43,589.49Z"/><path class="cls-8" d="M477.59,604.9v.92q4.25.28,8.52.29h.1v-.92Q481.89,605.19,477.59,604.9Z"/><path class="cls-8" d="M487.14,605.18v.91c2.88,0,5.76-.14,8.62-.35v-.92C492.9,605,490,605.16,487.14,605.18Z"/><path class="cls-8" d="M458.5,602.18v.94c2.82.63,5.7,1.17,8.62,1.6v-.94C464.2,603.35,461.32,602.82,458.5,602.18Z"/><path class="cls-8" d="M468.05,603.93v.93c2.84.4,5.72.69,8.61.9v-.92C473.77,604.63,470.89,604.33,468.05,603.93Z"/><path class="cls-8" d="M420.31,582.86v1.33a55.17,55.17,0,0,0,8.62,6.92V590A52.76,52.76,0,0,1,420.31,582.86Z"/><path class="cls-8" d="M562.52,561c0,7.16-3,14.07-8.54,20.27v1.37a34.39,34.39,0,0,0,8.61-14.89V561Z"/><path class="cls-8" d="M432.88,541.48c-1-.61-2.05-1.23-3-1.86v1.11c.83.53,1.68,1,2.56,1.56q2.91,1.68,6.05,3.13v-1C436.55,543.49,434.68,542.52,432.88,541.48Z"/><path class="cls-8" d="M420.31,531.86v1.33a55.17,55.17,0,0,0,8.62,6.92V539A52.76,52.76,0,0,1,420.31,531.86Z"/><path class="cls-8" d="M439.4,544.82v1a90.71,90.71,0,0,0,8.62,3.37v-1A87.35,87.35,0,0,1,439.4,544.82Z"/><path class="cls-8" d="M468.05,552.93v.93c2.84.4,5.72.69,8.61.9v-.92C473.77,553.63,470.89,553.33,468.05,552.93Z"/><path class="cls-8" d="M477.59,553.9v.93c2.83.18,5.67.28,8.52.28h.1v-.92Q481.89,554.19,477.59,553.9Z"/><path class="cls-8" d="M554,530.29v1.37a34.39,34.39,0,0,0,8.61-14.89V510h-.07C562.52,517.18,559.55,524.09,554,530.29Z"/><path class="cls-8" d="M449,548.54v1c2.8.91,5.68,1.72,8.62,2.41v-1C454.63,550.27,451.75,549.46,449,548.54Z"/><path class="cls-8" d="M487.14,554.18v.92c2.88,0,5.76-.14,8.62-.35v-.92C492.9,554,490,554.16,487.14,554.18Z"/><path class="cls-8" d="M515.79,550.71v.95c2.93-.71,5.81-1.54,8.61-2.47v-1Q520.2,549.63,515.79,550.71Z"/><path class="cls-8" d="M458.5,551.18v.94c2.82.63,5.7,1.17,8.62,1.6v-.93C464.2,552.35,461.32,551.82,458.5,551.18Z"/><path class="cls-8" d="M540.47,541c-1.8,1.05-3.67,2-5.59,3v1c2.09-1,4.12-2,6.06-3.19.88-.52,1.73-1,2.56-1.58v-1.12C542.52,539.77,541.52,540.4,540.47,541Z"/><path class="cls-8" d="M525.33,547.91v1a92.71,92.71,0,0,0,8.62-3.45v-1A90.24,90.24,0,0,1,525.33,547.91Z"/><path class="cls-8" d="M544.43,538.49v1.13a56.45,56.45,0,0,0,8.61-7v-1.33A53.89,53.89,0,0,1,544.43,538.49Z"/><path class="cls-8" d="M419.38,530.87c-5.58-6.15-8.55-13-8.55-20.19h-.07v6.74a34,34,0,0,0,8.62,14.82Z"/><path class="cls-8" d="M506.24,552.62v.93c2.91-.46,5.79-1,8.61-1.67v-.94C512,551.6,509.15,552.16,506.24,552.62Z"/><path class="cls-8" d="M496.69,553.76v.92q4.35-.34,8.62-1v-.93Q501,553.4,496.69,553.76Z"/><path class="cls-8" d="M468.05,501.93v.94c2.84.39,5.72.69,8.61.89v-.91C473.77,502.64,470.89,502.33,468.05,501.93Z"/><path class="cls-8" d="M487.14,503.18v.92c2.88,0,5.76-.14,8.62-.35v-.92C492.9,503,490,503.16,487.14,503.18Z"/><path class="cls-8" d="M496.69,502.76v.92q4.35-.35,8.62-1v-.93C502.46,502.2,499.59,502.52,496.69,502.76Z"/><path class="cls-8" d="M477.59,502.91v.92c2.83.18,5.67.28,8.52.28h.1v-.92C483.33,503.19,480.46,503.09,477.59,502.91Z"/><path class="cls-8" d="M458.5,500.18v.94c2.82.64,5.7,1.17,8.62,1.6v-.93C464.2,501.35,461.32,500.82,458.5,500.18Z"/><path class="cls-8" d="M439.4,493.82v1c2.77,1.25,5.65,2.38,8.62,3.38v-1A89.93,89.93,0,0,1,439.4,493.82Z"/><path class="cls-8" d="M506.24,501.62v.93c2.91-.46,5.79-1,8.61-1.67v-.94C512,500.6,509.15,501.16,506.24,501.62Z"/><path class="cls-8" d="M540.47,490c-1.8,1.05-3.67,2-5.59,3v1c2.09-1,4.12-2.05,6.06-3.19.88-.51,1.73-1,2.56-1.57v-1.12C542.52,488.77,541.52,489.4,540.47,490Z"/><path class="cls-8" d="M428.93,489.12V488a52.76,52.76,0,0,1-8.62-7.13v1.33A55.2,55.2,0,0,0,428.93,489.12Z"/><path class="cls-8" d="M515.79,499.71v1c2.93-.71,5.81-1.54,8.61-2.47v-1Q520.2,498.63,515.79,499.71Z"/><path class="cls-8" d="M525.33,496.91v1a92.71,92.71,0,0,0,8.62-3.45v-1A90.2,90.2,0,0,1,525.33,496.91Z"/><path class="cls-8" d="M449,497.54v1c2.8.9,5.68,1.71,8.62,2.4v-1C454.63,499.27,451.75,498.46,449,497.54Z"/><path class="cls-8" d="M554,479.29v1.37a34.36,34.36,0,0,0,8.61-14.88V459h-.07C562.52,466.18,559.55,473.09,554,479.29Z"/><path class="cls-8" d="M419.38,479.88c-5.58-6.16-8.55-13-8.55-20.2h-.07v6.75a34,34,0,0,0,8.62,14.81Z"/><path class="cls-8" d="M544.43,487.49v1.13a57,57,0,0,0,8.61-7v-1.34A53.89,53.89,0,0,1,544.43,487.49Z"/><path class="cls-8" d="M432.88,490.48c-1-.6-2.05-1.23-3-1.86v1.11c.83.53,1.68,1,2.56,1.56,1.94,1.12,4,2.16,6.05,3.14v-1C436.55,492.49,434.68,491.52,432.88,490.48Z"/><path class="cls-8" d="M428.93,438.12V437a53.31,53.31,0,0,1-8.62-7.14v1.34A55.75,55.75,0,0,0,428.93,438.12Z"/><path class="cls-8" d="M477.59,451.91v.92c2.83.18,5.67.28,8.52.28h.1v-.92C483.33,452.19,480.46,452.09,477.59,451.91Z"/><path class="cls-8" d="M554,428.3v1.37a34.45,34.45,0,0,0,8.61-14.89V408h-.07C562.52,415.18,559.55,422.09,554,428.3Z"/><path class="cls-8" d="M544.43,436.5v1.12a57,57,0,0,0,8.61-7v-1.34A54.46,54.46,0,0,1,544.43,436.5Z"/><path class="cls-8" d="M419.38,428.88c-5.58-6.15-8.55-13-8.55-20.2h-.07v6.75a33.9,33.9,0,0,0,8.62,14.81Z"/><path class="cls-8" d="M438.47,443.43v-1c-1.92-.91-3.79-1.88-5.59-2.92-1-.6-2.05-1.23-3-1.86v1.12c.83.52,1.68,1,2.56,1.55C434.36,441.41,436.38,442.45,438.47,443.43Z"/><path class="cls-8" d="M534.88,442v1c2.09-1,4.12-2.06,6.06-3.2.88-.51,1.73-1,2.56-1.57v-1.12c-1,.64-2,1.27-3,1.89C538.67,440.07,536.8,441.06,534.88,442Z"/><path class="cls-8" d="M496.69,451.76v.93q4.35-.36,8.62-1v-.93Q501,451.42,496.69,451.76Z"/><path class="cls-8" d="M458.5,449.18v.94c2.82.64,5.7,1.17,8.62,1.6v-.93C464.2,450.35,461.32,449.82,458.5,449.18Z"/><path class="cls-8" d="M468.05,450.93v.94c2.84.4,5.72.69,8.61.9v-.92C473.77,451.64,470.89,451.34,468.05,450.93Z"/><path class="cls-8" d="M487.14,452.19v.91c2.88,0,5.76-.14,8.62-.35v-.92C492.9,452,490,452.16,487.14,452.19Z"/><path class="cls-8" d="M506.24,450.62v.93c2.91-.45,5.79-1,8.61-1.66v-.95C512,449.6,509.15,450.16,506.24,450.62Z"/><path class="cls-8" d="M449,446.55v1c2.8.91,5.68,1.72,8.62,2.4V449C454.63,448.27,451.75,447.46,449,446.55Z"/><path class="cls-8" d="M525.33,445.91v1a92.71,92.71,0,0,0,8.62-3.45v-1A90.2,90.2,0,0,1,525.33,445.91Z"/><path class="cls-8" d="M515.79,448.72v.94c2.93-.71,5.81-1.53,8.61-2.47v-1C521.6,447.16,518.73,448,515.79,448.72Z"/><path class="cls-8" d="M439.4,442.83v1c2.77,1.24,5.65,2.37,8.62,3.37v-1A92.58,92.58,0,0,1,439.4,442.83Z"/><path class="cls-8" d="M496.69,400.76v.93q4.35-.36,8.62-1v-.93Q501,400.42,496.69,400.76Z"/><path class="cls-8" d="M487.14,401.19v.91c2.88,0,5.76-.14,8.62-.35v-.92C492.9,401,490,401.17,487.14,401.19Z"/><path class="cls-8" d="M448,395.25a92.58,92.58,0,0,1-8.62-3.42v1c2.77,1.25,5.65,2.37,8.62,3.37Z"/><path class="cls-8" d="M477.59,400.91v.92c2.83.18,5.67.29,8.52.29h.1v-.93C483.33,401.2,480.46,401.1,477.59,400.91Z"/><path class="cls-8" d="M468.05,399.93v.94c2.84.4,5.72.69,8.61.9v-.92C473.77,400.64,470.89,400.34,468.05,399.93Z"/><path class="cls-8" d="M515.79,397.72v.95c2.93-.71,5.81-1.54,8.61-2.47v-1C521.6,396.16,518.73,397,515.79,397.72Z"/><path class="cls-8" d="M506.24,399.62v.93c2.91-.45,5.79-1,8.61-1.66v-.95C512,398.61,509.15,399.16,506.24,399.62Z"/><path class="cls-8" d="M428.93,387.12V386a53.27,53.27,0,0,1-8.62-7.13v1.33A55.17,55.17,0,0,0,428.93,387.12Z"/><path class="cls-8" d="M525.33,395.89a92.71,92.71,0,0,0,8.62-3.45v-1a92.93,92.93,0,0,1-8.62,3.5Z"/><path class="cls-8" d="M534.88,391v1c2.09-1,4.12-2.06,6.06-3.2.88-.51,1.73-1,2.56-1.57v-1.12c-1,.64-2,1.28-3,1.89C538.67,389.07,536.8,390.06,534.88,391Z"/><path class="cls-8" d="M544.43,385.5v1.12a55.81,55.81,0,0,0,8.61-7v-1.34A53.93,53.93,0,0,1,544.43,385.5Z"/><path class="cls-8" d="M449,395.55v1c2.8.91,5.68,1.72,8.62,2.4V398C454.63,397.28,451.75,396.47,449,395.55Z"/><path class="cls-8" d="M419.38,377.88c-5.58-6.15-8.55-13-8.55-20.2h-.07v6.75a34,34,0,0,0,8.62,14.82Z"/><path class="cls-8" d="M458.5,398.18v.95c2.82.63,5.7,1.16,8.62,1.6v-.94C464.2,399.36,461.32,398.82,458.5,398.18Z"/><path class="cls-8" d="M438.47,392.43v-1c-1.92-.91-3.79-1.88-5.59-2.91-1-.61-2.05-1.23-3-1.87v1.12c.83.53,1.68,1,2.56,1.55Q435.33,391,438.47,392.43Z"/><path class="cls-8" d="M554,377.3v1.37a34.45,34.45,0,0,0,8.61-14.89V357h-.07C562.52,364.18,559.55,371.1,554,377.3Z"/><path class="cls-8" d="M544.43,334.5v1.13a56.45,56.45,0,0,0,8.61-7v-1.34A53.93,53.93,0,0,1,544.43,334.5Z"/><path class="cls-8" d="M534.88,340v1c2.09-1,4.12-2,6.06-3.19.88-.52,1.73-1,2.56-1.58v-1.12c-1,.65-2,1.28-3,1.89C538.67,338.08,536.8,339.06,534.88,340Z"/><path class="cls-8" d="M554,326.3v1.37a34.39,34.39,0,0,0,8.61-14.89V306h-.07C562.52,313.19,559.55,320.1,554,326.3Z"/><path class="cls-8" d="M524.4,345.2v-1q-4.2,1.42-8.61,2.5v.95C518.72,347,521.6,346.13,524.4,345.2Z"/><path class="cls-8" d="M457.57,347.93v-1c-2.94-.69-5.82-1.5-8.62-2.42v1C451.75,346.43,454.63,347.24,457.57,347.93Z"/><path class="cls-8" d="M505.31,349.7v-.92q-4.28.63-8.62,1v.92Q501,350.35,505.31,349.7Z"/><path class="cls-8" d="M495.76,350.75v-.92c-2.86.21-5.74.34-8.62.36v.91C490,351.08,492.9,351,495.76,350.75Z"/><path class="cls-8" d="M486.11,351.12h.1v-.92q-4.32,0-8.62-.29v.92Q481.84,351.12,486.11,351.12Z"/><path class="cls-8" d="M514.85,347.89v-.95c-2.82.67-5.7,1.22-8.61,1.69v.93C509.15,349.1,512,348.55,514.85,347.89Z"/><path class="cls-8" d="M476.66,350.77v-.92c-2.89-.21-5.77-.51-8.61-.91v.93C470.89,350.27,473.77,350.56,476.66,350.77Z"/><path class="cls-8" d="M467.12,349.73v-.94c-2.92-.43-5.8-1-8.62-1.6v.94C461.32,348.76,464.2,349.3,467.12,349.73Z"/><path class="cls-8" d="M448,345.22v-1a89.89,89.89,0,0,1-8.62-3.42v1A90.71,90.71,0,0,0,448,345.22Z"/><path class="cls-8" d="M438.47,341.43v-1c-1.92-.91-3.79-1.88-5.59-2.92-1-.61-2.05-1.23-3-1.87v1.12c.83.53,1.68,1.05,2.56,1.55C434.36,339.42,436.38,340.46,438.47,341.43Z"/><path class="cls-8" d="M419.38,326.88c-5.58-6.15-8.55-13-8.55-20.19h-.07v6.74a34,34,0,0,0,8.62,14.82Z"/><path class="cls-8" d="M428.93,336.12V335a52.76,52.76,0,0,1-8.62-7.13v1.33A55.17,55.17,0,0,0,428.93,336.12Z"/><path class="cls-8" d="M534,341.44v-1a92.93,92.93,0,0,1-8.62,3.5v1A92.75,92.75,0,0,0,534,341.44Z"/><path class="cls-8" d="M476.66,299.77v-.92c-2.89-.21-5.77-.51-8.61-.91v.93C470.89,299.27,473.77,299.56,476.66,299.77Z"/><path class="cls-8" d="M467.12,298.73v-.93c-2.92-.44-5.8-1-8.62-1.61v.94C461.32,297.76,464.2,298.3,467.12,298.73Z"/><path class="cls-8" d="M428.93,285.12V284a52.76,52.76,0,0,1-8.62-7.13v1.33A55.17,55.17,0,0,0,428.93,285.12Z"/><path class="cls-8" d="M544.43,283.5v1.13a56.45,56.45,0,0,0,8.61-7V276.3A53.89,53.89,0,0,1,544.43,283.5Z"/><path class="cls-8" d="M554,275.3v1.37a34.39,34.39,0,0,0,8.61-14.89V255h-.07C562.52,262.19,559.55,269.1,554,275.3Z"/><path class="cls-8" d="M457.57,296.93v-1c-2.94-.69-5.82-1.5-8.62-2.42v1C451.75,295.43,454.63,296.24,457.57,296.93Z"/><path class="cls-8" d="M486.11,300.12h.1v-.92q-4.32,0-8.62-.29v.93C480.42,300,483.26,300.12,486.11,300.12Z"/><path class="cls-8" d="M514.85,296.89V296c-2.82.66-5.7,1.22-8.61,1.68v.93C509.15,298.1,512,297.55,514.85,296.89Z"/><path class="cls-8" d="M524.4,294.2v-1q-4.2,1.41-8.61,2.49v.95C518.72,296,521.6,295.13,524.4,294.2Z"/><path class="cls-8" d="M540.94,286.83c.88-.52,1.73-1,2.56-1.58v-1.12c-1,.65-2,1.28-3,1.9-1.8,1.05-3.67,2-5.59,3v1C537,289,539,288,540.94,286.83Z"/><path class="cls-8" d="M419.38,275.88c-5.58-6.15-8.55-13-8.55-20.19h-.07v6.74a34,34,0,0,0,8.62,14.82Z"/><path class="cls-8" d="M534,290.45v-1a90.24,90.24,0,0,1-8.62,3.5v1A92.71,92.71,0,0,0,534,290.45Z"/><path class="cls-8" d="M495.76,299.76v-.92c-2.86.21-5.74.33-8.62.35v.92C490,300.08,492.9,300,495.76,299.76Z"/><path class="cls-8" d="M448,294.22v-1a87.35,87.35,0,0,1-8.62-3.42v1A90.71,90.71,0,0,0,448,294.22Z"/><path class="cls-8" d="M505.31,298.71v-.93q-4.28.63-8.62,1v.92Q501,299.34,505.31,298.71Z"/><path class="cls-8" d="M432.42,287.3q2.91,1.68,6.05,3.13v-1c-1.92-.91-3.79-1.88-5.59-2.92-1-.61-2.05-1.23-3-1.86v1.11C430.69,286.27,431.54,286.79,432.42,287.3Z"/><path class="cls-8" d="M554,224.3v1.37a34.36,34.36,0,0,0,8.61-14.88V204h-.07C562.52,211.19,559.55,218.1,554,224.3Z"/><path class="cls-8" d="M495.76,248.76v-.92c-2.86.21-5.74.33-8.62.36v.91C490,249.09,492.9,249,495.76,248.76Z"/><path class="cls-8" d="M448,243.23v-1a89.93,89.93,0,0,1-8.62-3.43v1C442.17,241.1,445.05,242.23,448,243.23Z"/><path class="cls-8" d="M467.12,247.73v-.93c-2.92-.44-5.8-1-8.62-1.61v.94C461.32,246.77,464.2,247.3,467.12,247.73Z"/><path class="cls-8" d="M457.57,245.93v-1c-2.94-.7-5.82-1.51-8.62-2.43v1C451.75,244.43,454.63,245.24,457.57,245.93Z"/><path class="cls-8" d="M476.66,248.77v-.91c-2.89-.21-5.77-.52-8.61-.92v.94C470.89,248.27,473.77,248.57,476.66,248.77Z"/><path class="cls-8" d="M486.11,249.12h.1v-.92c-2.88,0-5.75-.1-8.62-.28v.92C480.42,249,483.26,249.12,486.11,249.12Z"/><path class="cls-8" d="M419.38,224.89c-5.58-6.16-8.55-13-8.55-20.2h-.07v6.75a34,34,0,0,0,8.62,14.81Z"/><path class="cls-8" d="M428.93,234.13V233a52.76,52.76,0,0,1-8.62-7.13v1.33A55.2,55.2,0,0,0,428.93,234.13Z"/><path class="cls-8" d="M432.42,236.3c1.94,1.12,4,2.16,6.05,3.14v-1c-1.92-.91-3.79-1.88-5.59-2.92-1-.6-2.05-1.23-3-1.86v1.11C430.69,235.27,431.54,235.79,432.42,236.3Z"/><path class="cls-8" d="M524.4,243.2v-1q-4.2,1.41-8.61,2.49v.95C518.72,245,521.6,244.13,524.4,243.2Z"/><path class="cls-8" d="M534,239.45v-1a90.2,90.2,0,0,1-8.62,3.49v1A92.71,92.71,0,0,0,534,239.45Z"/><path class="cls-8" d="M505.31,247.71v-.93c-2.85.43-5.72.75-8.62,1v.92Q501,248.35,505.31,247.71Z"/><path class="cls-8" d="M553,226.64V225.3a53.89,53.89,0,0,1-8.61,7.2v1.13A57,57,0,0,0,553,226.64Z"/><path class="cls-8" d="M514.85,245.89V245c-2.82.66-5.7,1.22-8.61,1.68v.93C509.15,247.1,512,246.55,514.85,245.89Z"/><path class="cls-8" d="M540.94,235.83c.88-.51,1.73-1,2.56-1.57v-1.12c-1,.64-2,1.27-3,1.89-1.8,1.05-3.67,2-5.59,3v1C537,238,539,237,540.94,235.83Z"/><path class="cls-8" d="M514.85,194.9v-1c-2.82.66-5.7,1.22-8.61,1.68v.93C509.15,196.11,512,195.56,514.85,194.9Z"/><path class="cls-8" d="M495.76,197.76v-.92c-2.86.21-5.74.33-8.62.36v.91C490,198.09,492.9,198,495.76,197.76Z"/><path class="cls-8" d="M562.59,159.79V153h-.07c0,7.16-3,14.07-8.54,20.28v1.37A34.45,34.45,0,0,0,562.59,159.79Z"/><path class="cls-8" d="M419.38,175.25v-1.36c-5.58-6.15-8.55-13-8.55-20.2h-.07v6.75A33.9,33.9,0,0,0,419.38,175.25Z"/><path class="cls-8" d="M476.66,197.78v-.92c-2.89-.21-5.77-.51-8.61-.92v.94C470.89,197.28,473.77,197.57,476.66,197.78Z"/><path class="cls-8" d="M486.11,198.12h.1v-.92c-2.88,0-5.75-.1-8.62-.28v.92C480.42,198,483.26,198.12,486.11,198.12Z"/><path class="cls-8" d="M534,188.45v-1a90.2,90.2,0,0,1-8.62,3.49v1A92.71,92.71,0,0,0,534,188.45Z"/><path class="cls-8" d="M540.94,184.83c.88-.51,1.73-1,2.56-1.57v-1.12c-1,.64-2,1.27-3,1.89-1.8,1.05-3.67,2-5.59,3v1C537,187,539,186,540.94,184.83Z"/><path class="cls-8" d="M553,175.64V174.3a54.46,54.46,0,0,1-8.61,7.21v1.12A57,57,0,0,0,553,175.64Z"/><path class="cls-8" d="M457.57,194.93v-1c-2.94-.7-5.82-1.51-8.62-2.42v1C451.75,193.44,454.63,194.25,457.57,194.93Z"/><path class="cls-8" d="M505.31,196.71v-.93q-4.28.65-8.62,1v.93Q501,197.34,505.31,196.71Z"/><path class="cls-8" d="M448,192.23v-1a92.58,92.58,0,0,1-8.62-3.42v1C442.17,190.1,445.05,191.23,448,192.23Z"/><path class="cls-8" d="M467.12,196.73v-.93c-2.92-.44-5.8-1-8.62-1.61v.94C461.32,195.77,464.2,196.3,467.12,196.73Z"/><path class="cls-8" d="M432.42,185.3c1.94,1.12,4,2.16,6.05,3.14v-1c-1.92-.91-3.79-1.88-5.59-2.92-1-.6-2.05-1.23-3-1.86v1.12C430.69,184.27,431.54,184.79,432.42,185.3Z"/><path class="cls-8" d="M524.4,192.21v-1c-2.8.94-5.67,1.78-8.61,2.5v.94C518.72,194,521.6,193.14,524.4,192.21Z"/><path class="cls-8" d="M428.93,183.13V182a53.31,53.31,0,0,1-8.62-7.14v1.34A55.75,55.75,0,0,0,428.93,183.13Z"/><path class="cls-8" d="M410.76,160.44v-6.75h-.86A27,27,0,0,0,410.76,160.44Z"/><path class="cls-8" d="M420.31,225.87V176.21q-.48-.48-.93-1v49.64C419.68,225.22,420,225.55,420.31,225.87Z"/><path class="cls-8" d="M420.31,329.2c-.32-.32-.63-.63-.93-.95v49.63q.45.5.93,1Z"/><path class="cls-8" d="M420.31,431.2q-.48-.48-.93-1v49.64c.3.33.61.66.93,1Z"/><path class="cls-8" d="M420.31,227.2c-.32-.31-.63-.63-.93-.95v49.63c.3.34.61.66.93,1Z"/><path class="cls-8" d="M420.31,380.2c-.32-.32-.63-.63-.93-.95v49.63c.3.33.61.66.93,1Z"/><path class="cls-8" d="M419.38,532.24v49.63q.45.5.93,1V533.19C420,532.88,419.68,532.56,419.38,532.24Z"/><path class="cls-8" d="M420.31,482.19c-.32-.31-.63-.63-.93-.95v49.63c.3.34.61.66.93,1Z"/><path class="cls-8" d="M420.31,278.2c-.32-.31-.63-.63-.93-.95v49.63q.45.5.93,1Z"/><path class="cls-8" d="M419.38,581.87v1.37c.3.32.61.63.93,1v-1.33Q419.83,582.37,419.38,581.87Z"/><path class="cls-8" d="M419.38,530.87v1.37c.3.32.61.64.93,1v-1.33C420,531.53,419.68,531.21,419.38,530.87Z"/><path class="cls-8" d="M420.31,480.86c-.32-.32-.63-.65-.93-1v1.36c.3.32.61.64.93.95Z"/><path class="cls-8" d="M420.31,429.86c-.32-.32-.63-.65-.93-1v1.36q.45.48.93,1Z"/><path class="cls-8" d="M420.31,378.87q-.48-.5-.93-1v1.37c.3.32.61.63.93.95Z"/><path class="cls-8" d="M420.31,327.87q-.48-.5-.93-1v1.37c.3.32.61.63.93.95Z"/><path class="cls-8" d="M420.31,276.87c-.32-.33-.63-.65-.93-1v1.37c.3.32.61.64.93.95Z"/><path class="cls-8" d="M420.31,225.87c-.32-.32-.63-.65-.93-1v1.36c.3.32.61.64.93.95Z"/><path class="cls-8" d="M420.31,176.21v-1.34c-.32-.32-.63-.65-.93-1v1.36Q419.83,175.73,420.31,176.21Z"/><path class="cls-8" d="M428.93,489.12V539l.93.63V489.73Z"/><path class="cls-8" d="M429.86,438.74l-.93-.62V488l.93.63Z"/><path class="cls-8" d="M429.86,387.74c-.32-.2-.62-.41-.93-.62V437l.93.62Z"/><path class="cls-8" d="M429.86,233.63V183.75l-.93-.62V233Z"/><path class="cls-8" d="M429.86,285.74c-.32-.2-.62-.41-.93-.62V335c.3.21.61.42.93.62Z"/><path class="cls-8" d="M429.86,336.74c-.32-.2-.62-.41-.93-.62V386c.3.21.61.42.93.62Z"/><path class="cls-8" d="M428.93,540.11V590c.3.21.61.42.93.62V540.73C429.54,540.53,429.24,540.32,428.93,540.11Z"/><path class="cls-8" d="M429.86,284.63V234.74l-.93-.61V284Z"/><path class="cls-8" d="M428.93,590v1.12c.31.21.61.42.93.62v-1.12C429.54,590.41,429.23,590.2,428.93,590Z"/><path class="cls-8" d="M428.93,539v1.12c.31.21.61.42.93.62v-1.11Z"/><path class="cls-8" d="M428.93,488v1.13l.93.61v-1.11Z"/><path class="cls-8" d="M429.86,437.62l-.93-.62v1.12l.93.62Z"/><path class="cls-8" d="M429.86,386.62c-.32-.2-.63-.41-.93-.62v1.12c.31.21.61.42.93.62Z"/><path class="cls-8" d="M429.86,335.62c-.32-.2-.63-.41-.93-.62v1.12c.31.21.61.42.93.62Z"/><path class="cls-8" d="M429.86,284.63l-.93-.63v1.12c.31.21.61.42.93.62Z"/><path class="cls-8" d="M429.86,234.74v-1.11l-.93-.63v1.13Z"/><path class="cls-8" d="M429.86,183.75v-1.12l-.93-.62v1.12Z"/><path class="cls-8" d="M439.4,341.85l-.93-.42v50l.93.43Z"/><path class="cls-8" d="M439.4,340.83v-50l-.93-.42v50Z"/><path class="cls-8" d="M439.4,289.83v-50l-.93-.41v50Z"/><path class="cls-8" d="M438.47,494.43v50l.93.42v-50Z"/><path class="cls-8" d="M439.4,238.83v-50l-.93-.42v50C438.78,238.56,439.09,238.69,439.4,238.83Z"/><path class="cls-8" d="M438.47,443.43v50c.31.15.62.28.93.42v-50Z"/><path class="cls-8" d="M439.4,392.85l-.93-.42v50l.93.43Z"/><path class="cls-8" d="M438.47,545.42v50l.93.42v-50C439.09,545.7,438.78,545.57,438.47,545.42Z"/><path class="cls-8" d="M438.47,595.4v1c.31.15.62.28.93.42v-1Z"/><path class="cls-8" d="M438.47,544.4v1c.31.15.62.28.93.42v-1Z"/><path class="cls-8" d="M438.47,493.4v1l.93.41v-1C439.09,493.68,438.78,493.55,438.47,493.4Z"/><path class="cls-8" d="M438.47,442.4v1l.93.42v-1Z"/><path class="cls-8" d="M439.4,391.83l-.93-.43v1l.93.42Z"/><path class="cls-8" d="M439.4,340.83l-.93-.42v1l.93.42Z"/><path class="cls-8" d="M439.4,290.85v-1l-.93-.42v1Z"/><path class="cls-8" d="M439.4,239.85v-1c-.31-.14-.62-.27-.93-.42v1Z"/><path class="cls-8" d="M439.4,188.86v-1l-.93-.43v1Z"/><path class="cls-8" d="M448,447.22v50l.93.29v-50Z"/><path class="cls-8" d="M448,549.21v50l.93.3v-50Z"/><path class="cls-8" d="M449,344.55v-50l-.93-.3v50Z"/><path class="cls-8" d="M449,242.55v-50l-.93-.3v50Z"/><path class="cls-8" d="M448,396.22v50l.93.3v-50Z"/><path class="cls-8" d="M449,395.55v-50l-.93-.3v50Z"/><path class="cls-8" d="M448,498.22v50l.93.3v-50Z"/><path class="cls-8" d="M449,293.55v-50l-.93-.3v50Z"/><path class="cls-8" d="M448,599.24v1l.93.3v-1Z"/><path class="cls-8" d="M448,548.24v1l.93.3v-1Z"/><path class="cls-8" d="M448,497.25v1l.93.3v-1Z"/><path class="cls-8" d="M448,446.25v1l.93.3v-1Z"/><path class="cls-8" d="M448,395.25v1l.93.3v-1Z"/><path class="cls-8" d="M449,345.52v-1l-.93-.3v1Z"/><path class="cls-8" d="M449,294.52v-1l-.93-.3v1Z"/><path class="cls-8" d="M449,243.53v-1l-.93-.29v1Z"/><path class="cls-8" d="M449,192.53v-1c-.31-.11-.62-.2-.93-.3v1Z"/><path class="cls-8" d="M457.57,398.92V449l.93.21V399.13Z"/><path class="cls-8" d="M458.5,398.18V348.13l-.93-.2v50Z"/><path class="cls-8" d="M458.5,296.19V246.13l-.93-.2v50Z"/><path class="cls-8" d="M457.57,500.92v50l.93.22V501.12Z"/><path class="cls-8" d="M457.57,551.92v50l.93.22V552.12Z"/><path class="cls-8" d="M458.5,245.19V195.13l-.93-.2v50Z"/><path class="cls-8" d="M458.5,347.19V297.13l-.93-.2v50Z"/><path class="cls-8" d="M457.57,449.92v50l.93.22V450.12Z"/><path class="cls-8" d="M457.57,602v1l.93.2v-.94Z"/><path class="cls-8" d="M457.57,551v1l.93.2v-.94Z"/><path class="cls-8" d="M457.57,500v1l.93.2v-.94Z"/><path class="cls-8" d="M457.57,449v.95l.93.2v-.94Z"/><path class="cls-8" d="M457.57,398v.95l.93.21v-.95Z"/><path class="cls-8" d="M458.5,348.13v-.94l-.93-.22v1Z"/><path class="cls-8" d="M458.5,297.13v-.94l-.93-.22v1Z"/><path class="cls-8" d="M458.5,246.13v-.94l-.93-.21v1Z"/><path class="cls-8" d="M458.5,195.13v-.94l-.93-.21v1Z"/><path class="cls-8" d="M468.05,297.94V247.88l-.93-.15V297.8Z"/><path class="cls-8" d="M467.12,400.73v50.06l.93.14V400.87Z"/><path class="cls-8" d="M468.05,399.93V349.87l-.93-.14v50.06Z"/><path class="cls-8" d="M468.05,348.94V298.87l-.93-.14v50.06Z"/><path class="cls-8" d="M467.12,451.72v50.07l.93.14V451.87Z"/><path class="cls-8" d="M467.12,502.72v50.07l.93.14V502.87Z"/><path class="cls-8" d="M467.12,553.72v50.06l.93.15V553.86Z"/><path class="cls-8" d="M468.05,246.94V196.88l-.93-.15V246.8Z"/><path class="cls-8" d="M467.12,603.78v.94l.93.14v-.93Z"/><path class="cls-8" d="M467.12,552.79v.93l.93.14v-.93Z"/><path class="cls-8" d="M467.12,501.79v.93l.93.15v-.94Z"/><path class="cls-8" d="M467.12,450.79v.93l.93.15v-.94Z"/><path class="cls-8" d="M467.12,399.79v.94l.93.14v-.94Z"/><path class="cls-8" d="M468.05,349.87v-.93l-.93-.15v.94Z"/><path class="cls-8" d="M468.05,298.87v-.93l-.93-.14v.93Z"/><path class="cls-8" d="M468.05,247.88v-.94l-.93-.14v.93Z"/><path class="cls-8" d="M468.05,196.88v-.94l-.93-.14v.93Z"/><path class="cls-8" d="M477.59,349.91V299.84l-.93-.07v50.08Z"/><path class="cls-8" d="M476.66,554.76v50.08l.93.06V554.83Z"/><path class="cls-8" d="M476.66,452.77v50.08l.93.06V452.83Z"/><path class="cls-8" d="M476.66,503.76v50.08l.93.06V503.83Z"/><path class="cls-8" d="M477.59,247.92V197.84l-.93-.06v50.08Z"/><path class="cls-8" d="M477.59,400.91V350.83l-.93-.06v50.08Z"/><path class="cls-8" d="M476.66,401.77v50.08l.93.06V401.83Z"/><path class="cls-8" d="M477.59,298.91V248.84l-.93-.07v50.08Z"/><path class="cls-8" d="M476.66,604.84v.92l.93.06v-.92Z"/><path class="cls-8" d="M476.66,553.84v.92l.93.07v-.93Z"/><path class="cls-8" d="M476.66,502.85v.91l.93.07v-.92Z"/><path class="cls-8" d="M476.66,451.85v.92l.93.06v-.92Z"/><path class="cls-8" d="M476.66,400.85v.92l.93.06v-.92Z"/><path class="cls-8" d="M477.59,350.83v-.92l-.93-.06v.92Z"/><path class="cls-8" d="M477.59,299.84v-.93l-.93-.06v.92Z"/><path class="cls-8" d="M477.59,248.84v-.92l-.93-.06v.91Z"/><path class="cls-8" d="M477.59,197.84v-.92l-.93-.06v.92Z"/><path class="cls-8" d="M487.14,401.19V351.1l-.93,0v50.07Z"/><path class="cls-8" d="M487.14,248.2V198.11h-.93V248.2Z"/><path class="cls-8" d="M486.21,504.11v50.08h.93V504.1Z"/><path class="cls-8" d="M486.21,555.11v50.08h.93V555.1Z"/><path class="cls-8" d="M486.21,453.11v50.08h.93V453.1Z"/><path class="cls-8" d="M486.21,402.12v50.07h.93V402.1Z"/><path class="cls-8" d="M487.14,350.19V300.11h-.93V350.2Z"/><path class="cls-8" d="M487.14,299.19V249.11h-.93V299.2Z"/><path class="cls-8" d="M486.21,605.19v.92l.93,0v-.91Z"/><path class="cls-8" d="M486.21,554.19v.92h.93v-.92Z"/><path class="cls-8" d="M486.21,503.19v.92h.93v-.92Z"/><path class="cls-8" d="M486.21,452.19v.92h.93v-.91Z"/><path class="cls-8" d="M486.21,401.19v.93l.93,0v-.91Z"/><path class="cls-8" d="M487.14,351.1v-.91h-.93v.92Z"/><path class="cls-8" d="M487.14,300.11v-.92h-.93v.92Z"/><path class="cls-8" d="M487.14,249.11v-.91h-.93v.92Z"/><path class="cls-8" d="M487.14,198.11v-.91h-.93v.92Z"/><path class="cls-8" d="M496.69,247.77V197.7l-.93.06v50.08Z"/><path class="cls-8" d="M496.69,400.76V350.69l-.93.06v50.08Z"/><path class="cls-8" d="M495.76,401.75v50.08l.93-.07V401.69Z"/><path class="cls-8" d="M496.69,298.77V248.69l-.93.07v50.08Z"/><path class="cls-8" d="M496.69,349.77V299.69l-.93.07v50.07Z"/><path class="cls-8" d="M495.76,452.75v50.08l.93-.07V452.69Z"/><path class="cls-8" d="M495.76,503.75v50.08l.93-.07V503.68Z"/><path class="cls-8" d="M495.76,554.75v50.07l.93-.06V554.68Z"/><path class="cls-8" d="M495.76,604.82v.92l.93-.06v-.92Z"/><path class="cls-8" d="M495.76,553.83v.92l.93-.07v-.92Z"/><path class="cls-8" d="M495.76,502.83v.92l.93-.07v-.92Z"/><path class="cls-8" d="M495.76,451.83v.92l.93-.06v-.93Z"/><path class="cls-8" d="M495.76,400.83v.92l.93-.06v-.93Z"/><path class="cls-8" d="M496.69,350.69v-.92l-.93.06v.92Z"/><path class="cls-8" d="M496.69,299.69v-.92l-.93.07v.92Z"/><path class="cls-8" d="M496.69,248.69v-.92l-.93.07v.92Z"/><path class="cls-8" d="M496.69,197.7v-.93l-.93.07v.92Z"/><path class="cls-8" d="M505.31,400.7v50.07l.93-.15V400.55Z"/><path class="cls-8" d="M506.24,297.63V247.56l-.93.15v50.07Z"/><path class="cls-8" d="M506.24,246.63V196.56l-.93.15v50.07Z"/><path class="cls-8" d="M506.24,399.62V349.56l-.93.14v50.07C505.62,399.73,505.93,399.67,506.24,399.62Z"/><path class="cls-8" d="M506.24,348.63V298.56l-.93.15v50.07Z"/><path class="cls-8" d="M505.31,502.7v50.07l.93-.15V502.55Z"/><path class="cls-8" d="M505.31,451.7v50.07l.93-.15V451.55Z"/><path class="cls-8" d="M505.31,553.7v50.07l.93-.15V553.55Z"/><path class="cls-8" d="M505.31,603.77v.92l.93-.14v-.93Z"/><path class="cls-8" d="M505.31,552.77v.93l.93-.15v-.93Z"/><path class="cls-8" d="M505.31,501.77v.93l.93-.15v-.93Z"/><path class="cls-8" d="M505.31,450.77v.93l.93-.15v-.93Z"/><path class="cls-8" d="M505.31,399.77v.93l.93-.15v-.93C505.93,399.67,505.62,399.73,505.31,399.77Z"/><path class="cls-8" d="M506.24,349.56v-.93l-.93.15v.92Z"/><path class="cls-8" d="M506.24,298.56v-.93l-.93.15v.93Z"/><path class="cls-8" d="M506.24,247.56v-.93l-.93.15v.93Z"/><path class="cls-8" d="M506.24,196.56v-.93l-.93.15v.93Z"/><path class="cls-8" d="M514.85,398.89v50.05l.94-.22V398.67Z"/><path class="cls-8" d="M514.85,551.88v50l.94-.22V551.66Z"/><path class="cls-8" d="M515.79,244.72V194.67l-.94.23v50Z"/><path class="cls-8" d="M515.79,397.72V347.67l-.94.22v50.05Z"/><path class="cls-8" d="M515.79,346.72V296.67l-.94.22v50.05Z"/><path class="cls-8" d="M515.79,295.72V245.67l-.94.22V296Z"/><path class="cls-8" d="M514.85,500.88v50.06l.94-.23V500.66Z"/><path class="cls-8" d="M514.85,449.89v50.05l.94-.23v-50Z"/><path class="cls-8" d="M514.85,601.93v1l.94-.22v-.95Z"/><path class="cls-8" d="M514.85,550.94v.94l.94-.22v-.95Z"/><path class="cls-8" d="M514.85,499.94v.94l.94-.22v-1Z"/><path class="cls-8" d="M514.85,448.94v.95l.94-.23v-.94Z"/><path class="cls-8" d="M514.85,397.94v.95l.94-.22v-.95Z"/><path class="cls-8" d="M515.79,347.67v-.95l-.94.22v.95Z"/><path class="cls-8" d="M515.79,296.67v-.95l-.94.23v.94Z"/><path class="cls-8" d="M515.79,245.67v-.95l-.94.23v.94Z"/><path class="cls-8" d="M515.79,194.67v-.94l-.94.22v1Z"/><path class="cls-8" d="M524.4,498.19v50l.93-.31v-50Z"/><path class="cls-8" d="M525.33,394.92v-50l-.93.3v50Z"/><path class="cls-8" d="M524.4,549.19v50l.93-.3v-50Z"/><path class="cls-8" d="M525.33,292.92v-50l-.93.3v50Z"/><path class="cls-8" d="M524.4,447.19v50l.93-.31v-50C525,447,524.71,447.09,524.4,447.19Z"/><path class="cls-8" d="M524.4,396.2v50l.93-.31v-50Z"/><path class="cls-8" d="M525.33,343.92v-50l-.93.3v50Z"/><path class="cls-8" d="M525.33,241.92v-50l-.93.31v50Z"/><path class="cls-8" d="M524.4,599.21v1l.93-.3v-1Z"/><path class="cls-8" d="M524.4,548.22v1l.93-.3v-1Z"/><path class="cls-8" d="M524.4,497.22v1l.93-.3v-1Z"/><path class="cls-8" d="M524.4,446.22v1c.31-.1.63-.19.93-.3v-1Z"/><path class="cls-8" d="M524.4,396.2l.93-.31v-1l-.93.3Z"/><path class="cls-8" d="M525.33,344.9v-1l-.93.3v1Z"/><path class="cls-8" d="M525.33,293.9v-1l-.93.31v1Z"/><path class="cls-8" d="M525.33,242.9v-1l-.93.31v1Z"/><path class="cls-8" d="M525.33,191.9v-1l-.93.31v1Z"/><path class="cls-8" d="M534,391.42l.93-.43V341c-.31.15-.62.28-.93.42Z"/><path class="cls-8" d="M534,545.44v50l.93-.43V545Z"/><path class="cls-8" d="M534.88,340V290l-.93.43v50Z"/><path class="cls-8" d="M534,442.42l.93-.43V392l-.93.42Z"/><path class="cls-8" d="M534.88,289V239l-.93.43v50Z"/><path class="cls-8" d="M534,494.44v50l.93-.43V494Z"/><path class="cls-8" d="M534.88,238V188l-.93.42v50Z"/><path class="cls-8" d="M534,443.44v50l.93-.44V443Z"/><path class="cls-8" d="M534,595.41v1l.93-.42v-1Z"/><path class="cls-8" d="M534,544.41v1l.93-.43v-1Z"/><path class="cls-8" d="M534,493.42v1l.93-.43v-1Z"/><path class="cls-8" d="M534,443.44l.93-.42v-1l-.93.43Z"/><path class="cls-8" d="M534,392.44l.93-.42v-1l-.93.43Z"/><path class="cls-8" d="M534,341.44c.31-.14.62-.27.93-.42v-1l-.93.43Z"/><path class="cls-8" d="M534.88,290v-1l-.93.43v1Z"/><path class="cls-8" d="M534.88,239v-1l-.93.44v1Z"/><path class="cls-8" d="M534.88,188v-1l-.93.43v1Z"/><path class="cls-8" d="M544.43,283.5V233.63l-.93.63v49.87Z"/><path class="cls-8" d="M543.5,335.13l.93-.63V284.63c-.31.21-.61.42-.93.62Z"/><path class="cls-8" d="M543.5,488.13l.93-.64V437.62l-.93.63Z"/><path class="cls-8" d="M543.5,489.25v49.87l.93-.63V488.62Z"/><path class="cls-8" d="M543.5,386.13l.93-.63V335.63c-.31.2-.61.42-.93.62Z"/><path class="cls-8" d="M543.5,437.13l.93-.63V386.62l-.93.63Z"/><path class="cls-8" d="M544.43,232.5V182.63l-.93.63v49.88Z"/><path class="cls-8" d="M543.5,540.24v49.88l.93-.63V539.62C544.12,539.83,543.82,540,543.5,540.24Z"/><path class="cls-8" d="M543.5,590.12v1.12c.32-.2.62-.42.93-.62v-1.13Z"/><path class="cls-8" d="M543.5,539.12v1.12c.32-.2.62-.41.93-.62v-1.13Z"/><path class="cls-8" d="M543.5,489.25l.93-.63v-1.13l-.93.64Z"/><path class="cls-8" d="M543.5,438.25l.93-.63V436.5l-.93.63Z"/><path class="cls-8" d="M543.5,387.25l.93-.63V385.5l-.93.63Z"/><path class="cls-8" d="M543.5,336.25c.32-.2.62-.42.93-.62V334.5l-.93.63Z"/><path class="cls-8" d="M543.5,285.25c.32-.2.62-.41.93-.62V283.5l-.93.63Z"/><path class="cls-8" d="M544.43,233.63V232.5l-.93.64v1.12Z"/><path class="cls-8" d="M544.43,182.63v-1.12l-.93.63v1.12Z"/><path class="cls-8" d="M553,532.62v49.66l.94-1V531.66Z"/><path class="cls-8" d="M553,429.29l.94-1V378.67l-.94,1Z"/><path class="cls-8" d="M554,224.3V174.68l-.94,1V225.3C553.36,225,553.67,224.64,554,224.3Z"/><path class="cls-8" d="M553,276.3c.32-.33.63-.66.94-1V225.67c-.31.33-.62.65-.94,1Z"/><path class="cls-8" d="M553,327.29l.94-1V276.67l-.94,1Z"/><path class="cls-8" d="M553,378.29l.94-1V327.67l-.94,1Z"/><path class="cls-8" d="M553,480.29c.32-.33.63-.66.94-1V429.67l-.94,1Z"/><path class="cls-8" d="M553,531.29c.32-.33.63-.66.94-1V480.66c-.31.33-.62.65-.94,1Z"/><path class="cls-8" d="M553,582.28v1.34l.94-1v-1.37Z"/><path class="cls-8" d="M553,532.62l.94-1v-1.37c-.31.34-.62.67-.94,1Z"/><path class="cls-8" d="M553,481.63c.32-.32.63-.64.94-1v-1.37c-.31.34-.62.67-.94,1Z"/><path class="cls-8" d="M553,430.63l.94-1V428.3l-.94,1Z"/><path class="cls-8" d="M553,379.63l.94-1V377.3l-.94,1Z"/><path class="cls-8" d="M553,328.63l.94-1V326.3l-.94,1Z"/><path class="cls-8" d="M553,277.63l.94-1V275.3c-.31.34-.62.67-.94,1Z"/><path class="cls-8" d="M553,226.64c.32-.32.63-.64.94-1V224.3c-.31.34-.62.67-.94,1Z"/><path class="cls-8" d="M554,174.68v-1.37l-.94,1v1.34Z"/><path class="cls-8" d="M563.45,153h-.86v6.76A27.06,27.06,0,0,0,563.45,153Z"/><polygon class="cls-4" points="486.68 0 324.6 94.08 486.68 187.22 648.75 94.08 486.68 0"/><polygon class="cls-6" points="486.68 187.22 324.6 94.08 324.6 124.82 486.68 217.96 648.75 124.82 648.75 94.08 486.68 187.22"/></g></g></svg>