<svg xmlns="http://www.w3.org/2000/svg" viewBox="0 0 1000 1000"  fill="white">
  <path d="M597.41 285.76L547.07 333h-92.29l-47.54-47.23L502.32 53zm202.76 14L733.05 439l-.2 1.16-230.29 479.32-222.33-462.77-.23-1.91-49.48-101.56-25.7-53.49-.22.28-.12-.26 261.25-287.6v20.37L344.61 297.31l103.18 91.05h109.07l100.64-91.05L536.38 32.54V12.17zm-97.85 87.3H587.09l-27.44 26.6 103.23.55-160.32 350.65-160.33-350.64 102.77-.55-29.11-26.6h-113.1L502.56 824zM514.47 984L789 392.43l76.57 32.34 4.59 98.76-67-14.06L597.29 892.4zm67.33-1.57l99.46-95L862.1 545.3l-41.32-5.89zm-96 1.57L214.55 392.43l-75.64 32.34-4.54 98.76 66.2-14.06L404 892.4zM183.17 539.41l-40.82 5.89L321 887.47l98.25 95Q301.23 760.91 183.17 539.41z"/>
</svg>