<svg viewBox="0 0 115 114">
<path d="M45.0423 77.9H34.909V44.973H45.0423V77.9ZM39.9757 40.7487C36.3213 40.7487 34.491 39.0577 34.491 35.682C34.4797 35.0046 34.6153 34.3327 34.8887 33.7128C35.162 33.0928 35.5665 32.5395 36.0743 32.091C37.1304 31.1057 38.5319 30.5756 39.9757 30.6153C43.63 30.6153 45.4603 32.3127 45.4603 35.6883C45.4603 39.064 43.6363 40.7487 39.9757 40.7487ZM82.6243 77.9H72.282V59.5333C72.282 54.7517 70.5847 52.3577 67.209 52.3577C64.5363 52.3577 62.782 53.694 61.927 56.3667C61.6547 56.791 61.509 57.6397 61.509 58.9V77.9H51.1667V55.5243C51.1667 50.4577 51.0907 46.9427 50.9577 44.973H59.8243L60.4577 49.4C62.782 45.8787 66.1577 44.1243 70.8 44.1243C74.3277 44.1243 77.1713 45.353 79.35 47.8167C81.5413 50.2803 82.6307 53.8333 82.6307 58.482V77.9H82.6243ZM57.5 114C26.0677 114 0.5 88.4323 0.5 57C0.5 25.5677 26.0677 0 57.5 0C88.9323 0 114.5 25.5677 114.5 57C114.5 88.4323 88.9323 114 57.5 114ZM57.5 12.6667C33.0597 12.6667 13.1667 32.5597 13.1667 57C13.1667 81.4403 33.0597 101.333 57.5 101.333C81.9403 101.333 101.833 81.4403 101.833 57C101.833 32.5597 81.9403 12.6667 57.5 12.6667Z"/>
</svg>
