<svg id="logo-full-svg" xmlns="http://www.w3.org/2000/svg" viewBox="0 0 1778.14 374.4" fill="white">
    <polygon class="cls-1" points="427.34 24.7 427.34 25.26 446.88 5.71 452.6 0 402.63 0 406.75 4.12 427.34 24.7"/>
    <polygon class="cls-1" points="501.93 0 495.59 6.34 495.49 6.24 427.32 74.4 426.29 73.37 426.29 72.82 426.19 72.92 414.29 61.02 414.43 61.02 353.41 0 290.82 0 290.82 146.34 357.4 212.91 357.4 230.91 357.4 312 357.4 341.11 390.68 374.4 392.14 374.4 392.14 278 392.28 278 392.28 184.64 326.14 118.5 326.14 24.84 410.24 108.94 410.24 144.95 427.24 161.95 444.14 145.02 444.14 105.08 524.14 25.08 524.14 118.74 458.24 184.64 458.24 357.67 458.14 357.57 458.14 374.4 459.82 374.4 493.04 341.11 493.04 312 493.04 230.91 493.04 212.91 559.14 146.7 559.14 127 559.14 0 501.93 0"/>
    <polygon class="cls-1" points="524.24 232.92 524.24 296.67 524.14 296.57 524.14 313.4 525.82 313.4 559.04 280.11 559.04 251 559.04 198.05 524.24 232.92"/>
    <polygon class="cls-1" points="325.94 232.46 291.14 197.65 291.14 251 291.14 280.11 324.36 313.4 326.04 313.4 326.04 296.57 325.94 296.67 325.94 232.46"/>
    <path class="cls-1" d="M228.05,683.05c23.52,0,43-8.06,59.59-24.63s24.63-36.06,24.63-59.59c0-20.28-6-37.47-18.23-52.56l-6.67-8.2,6.67-8.2c12.27-15.09,18.23-32.28,18.23-52.56,0-23.52-8.06-43-24.63-59.59s-36.06-24.63-59.59-24.63H70.93V440h24.3v243h46.91V561.54h85.91a37.23,37.23,0,0,1,26.33,63.63h0a36.54,36.54,0,0,1-26.33,11H162.23l46.91,46.91Zm26.33-179.4h0a36.54,36.54,0,0,1-26.33,11H142.14V440h85.91a37.23,37.23,0,0,1,26.33,63.63Z" transform="translate(-70.93 -353)"/>
    <path class="cls-1" d="M733.81,561.54a102.8,102.8,0,0,1-2.69-23.45,100.45,100.45,0,0,1,7.23-37.67,97.46,97.46,0,0,1,21.49-31.67C778.89,449.68,802.23,440,829.18,440h49.45v24.3h46.91V393.11H829.18c-40.37,0-73.89,13.9-102.48,42.49s-42.49,62.11-42.49,102.48S698.11,612,726.7,640.57s62.11,42.49,102.48,42.49h96.36V514.63H822.41L775.5,561.54H878.64v74.61H829.18A94.27,94.27,0,0,1,760,607.33a106.38,106.38,0,0,1-13.67-16.61C742.15,581,737.07,572,733.81,561.54Z" transform="translate(-70.93 -353)"/>
    <path class="cls-1" d="M1120.82,393.11c-40.37,0-73.89,13.9-102.48,42.49s-42.49,62.11-42.49,102.48,13.9,73.89,42.49,102.48,62.11,42.49,102.48,42.49,73.89-13.9,102.48-42.49,42.49-62.12,42.49-102.48-13.9-73.89-42.49-102.48S1161.19,393.11,1120.82,393.11Zm69.34,214.31h0c-19.06,19.06-42.39,28.72-69.34,28.72s-50.29-9.66-69.34-28.72-28.72-42.39-28.72-69.34,9.66-50.29,28.72-69.34S1093.87,440,1120.82,440s50.28,9.66,69.34,28.72,28.72,42.39,28.72,69.35S1209.22,588.37,1190.16,607.43Z" transform="translate(-70.93 -353)"/>
    <polygon class="cls-1" points="1486.5 40.11 1439.59 40.11 1439.59 225.46 1245.16 31.04 1245.16 330.06 1292.07 330.06 1292.07 144.71 1486.5 339.13 1486.5 40.11"/>
    <polygon class="cls-1" points="1778.14 87.02 1778.14 40.11 1536.8 40.11 1536.8 87.02 1561.1 87.02 1561.1 330.06 1778.14 330.06 1778.14 258.84 1731.23 258.84 1731.23 283.14 1608.01 283.14 1608.01 87.02 1778.14 87.02"/>
    <polygon class="cls-1" points="1706.46 209 1753.46 162 1645.32 162 1645.32 209 1706.46 209"/>
</svg>


