<svg viewBox="0 0 111.82 111.82">
  <path d="M85.1 38.54a24.16 24.16 0 01-6.74 1.82A11.67 11.67 0 0083.52 34a23.81 23.81 0 01-7.46 2.8 11.62 11.62 0 00-3.91-2.7 11.79 11.79 0 00-4.65-1 11.65 11.65 0 00-11.73 11.57 11.49 11.49 0 00.3 2.64 33.52 33.52 0 01-24.18-12.07A11.37 11.37 0 0030.3 41a11.52 11.52 0 005.22 9.62 12 12 0 01-5.32-1.45v.14a11.63 11.63 0 009.42 11.33 12.16 12.16 0 01-5.3.19 11.69 11.69 0 0011 8 23.77 23.77 0 01-14.57 5 26.13 26.13 0 01-2.8-.16 33.58 33.58 0 0018 5.19c21.58 0 33.38-17.6 33.38-32.87v-1.5a23.26 23.26 0 005.77-5.95z" transform="translate(-.18 -.49)"/>
</svg>