<svg xmlns="http://www.w3.org/2000/svg" viewBox="0 0 1920 1080" fill="white">
  <path d="M974.48 479.33l25.23.13-39.18 85.69-39.17-85.69 25.11-.13-7.12-6.5h-27.63l48.81 106.76 48.82-106.76h-28.16z"/>
  <path d="M960.46 361.77a136.12 136.12 0 10136.11 136.12 136.11 136.11 0 00-136.11-136.12zm0 29.43l23.23 56.87-12.3 11.55h-22.53l-11.62-11.55zm-44.29 203.91l-43.66-83.61 10-1.45 57.69 108.26zm20.27 1.2l-49.7-93.57-16.18 3.44 1.11-24.18 18.49-7.9 66.28 144.6zM906.2 489.85l-.06-.47q-6-12.4-12.08-24.82l-6.28-13.07-.06.07v-.06l63.84-70.28v5l-29.59 64.7 25.21 22.24h26.62l24.59-22.24-29.59-64.72v-5q32.22 35.14 64.46 70.28-8.21 17-16.4 34l-.05.29-56.28 117.16zm98 105.26l-24.3 23.2 58.39-108.26 10.1 1.45zm29.8-92.37l-50.31 93.57-20.25 22.39 67.09-144.56 18.71 7.9 1.12 24.14zM254.58 476.74h-58.01v-23.56H182.4v23.56h-58.31v-89.48l-13.87-7.07v110.55h72.18v14.7h-72.18v110.14l13.87-6.63v-89.82h58.31V543h14.17v-23.87h58.01v89.84l14.17 6.56V505.44h-72.18v-14.7h72.18V380.25l-14.17 6.99v89.5zM730.86 516.29a64 64 0 0017.65-15.22 68.62 68.62 0 0011.37-20.86 75.79 75.79 0 004-24.58 68.44 68.44 0 00-4.8-25 71.78 71.78 0 00-13.42-22A69.05 69.05 0 00725 393.06a58.11 58.11 0 00-26.26-6.06H606v221.77h15.24v-83.91h73.5l54.57 83.91h17.6l-55.49-85.6a55.45 55.45 0 0019.44-6.88zm4.93-22.52a48.07 48.07 0 01-15.28 12.31 42.92 42.92 0 01-19.91 4.65h-79.35v-109.6h77.18a43.6 43.6 0 0119.48 4.52A54.63 54.63 0 01734 417.72a58.53 58.53 0 0110.91 17.43 54 54 0 014 20.48 63.28 63.28 0 01-3.45 20.43 57.2 57.2 0 01-9.67 17.71zM1306.57 419.44a89.86 89.86 0 00-31.81-23.89c-12.71-5.82-27.7-8.78-44.56-8.78h-71.09V609h71.09c15.46 0 29.64-2.69 42.13-8a90.88 90.88 0 0032.11-22.62 101.52 101.52 0 0020.36-35.12c4.72-13.58 7.11-28.95 7.11-45.69a142.12 142.12 0 00-6.35-42.87 102.52 102.52 0 00-18.99-35.26zm10.73 78.14a131.41 131.41 0 01-5.55 38.78 87.15 87.15 0 01-16.53 30.84 76.55 76.55 0 01-27.22 20.31c-10.78 4.87-23.5 7.33-37.81 7.33h-56.48V400.93h56.48c13.91 0 26.44 2.42 37.23 7.19a77.18 77.18 0 0127.36 20 86.44 86.44 0 0116.82 30.53 127.55 127.55 0 015.7 38.93zM1746.46 491.23V380.09l-13.58 6.58v104.56h-14.28V386.69l-13.3-6.64v111.18h-64.82v13.72h64.82v110.78l13.3-6.2V504.95h14.28v104.6l13.58 6.13V504.95h64.53v-13.72h-64.53zM375.91 594.7v-92.14h115.34v-14.12H375.91v-76.1l-15.23-15.24v211.73l164.14-.26-13-13.85zM524.82 386.94l-153 .12L386 401.17l125.88-.37zM1566.44 453.28a105.43 105.43 0 00-19.83-36.41c-5.2-6.13-15.49-17.65-33.22-24.65a86 86 0 00-61 0c-17.62 7-27.85 18.46-33.06 24.65a105.6 105.6 0 00-19.75 36.41 145.87 145.87 0 00-6.6 44.24c0 17.28 2.49 33.15 7.39 47.16a104.54 104.54 0 0021.18 36.25c5.4 5.92 15.79 16.89 33.37 23.35a82.9 82.9 0 0055.88 0 77.66 77.66 0 0014.2-6.88l-8.89-11.82a66.14 66.14 0 01-9.76 4.76 63.32 63.32 0 01-46.89 0c-15-5.84-23.71-15.6-28.29-21a90 90 0 01-17.17-31.8 134.51 134.51 0 01-5.77-40 130.77 130.77 0 015.92-40.16 89 89 0 0117.48-31.51c4.67-5.35 13.43-15 28.45-20.66a63.46 63.46 0 0145.67 0c15.11 5.69 23.93 15.37 28.57 20.66a89 89 0 0117.56 31.51 130.46 130.46 0 015.94 40.16 134.18 134.18 0 01-5.79 40 89.86 89.86 0 01-17.26 31.84 91.2 91.2 0 01-6.71 7.13l8.92 11.86c3.12-2.82 5.57-5.43 7.41-7.44a104.39 104.39 0 0021.26-36.25c4.93-14 7.43-29.88 7.43-47.16a145.25 145.25 0 00-6.64-44.24zM655.75 702.12a13 13 0 00-4.8-3.3 17.53 17.53 0 00-6.84-1.26q-5.64 0-8.22 2.13a7.11 7.11 0 00-2.58 5.79 6.39 6.39 0 00.69 3.15 6 6 0 002.13 2.13 14.93 14.93 0 003.69 1.56q2.25.66 5.31 1.32a57.72 57.72 0 016.15 1.62 17.65 17.65 0 014.65 2.25 9.33 9.33 0 012.94 3.27 10.15 10.15 0 011 4.8 10.78 10.78 0 01-1.14 5.1 10.16 10.16 0 01-3.18 3.6 14.18 14.18 0 01-4.86 2.13 26 26 0 01-6.18.69 25.4 25.4 0 01-17.1-6.18l2.1-3.42a16.65 16.65 0 002.73 2.28 19.79 19.79 0 003.54 1.89 22.49 22.49 0 004.17 1.26 23.52 23.52 0 004.68.45q5.1 0 8-1.83a6.15 6.15 0 002.85-5.55 6.37 6.37 0 00-.81-3.33 7 7 0 00-2.43-2.34 17.22 17.22 0 00-4-1.71q-2.4-.72-5.58-1.44-3.36-.78-5.88-1.62a15.68 15.68 0 01-4.26-2.1 8.18 8.18 0 01-2.61-3 9.8 9.8 0 01-.87-4.35 12 12 0 011.11-5.25 10.31 10.31 0 013.15-3.84 14.92 14.92 0 014.8-2.34 21.69 21.69 0 016.12-.81 20.9 20.9 0 017.59 1.29 20.38 20.38 0 016 3.63zM787.21 697.86H772v38.88h-4.2v-38.88h-15.15v-3.72h34.56zM900.85 733.26a13.3 13.3 0 006.69-1.53 12.1 12.1 0 004.26-4A16.32 16.32 0 00914 722a33 33 0 00.63-6.42v-21.44h4.2v21.48a33.91 33.91 0 01-1 8.19 19.46 19.46 0 01-3.09 6.81 15.28 15.28 0 01-5.55 4.68 18.23 18.23 0 01-8.34 1.74 17.94 17.94 0 01-8.49-1.83 15.52 15.52 0 01-5.55-4.83 19.59 19.59 0 01-3-6.84 34.59 34.59 0 01-.9-7.92v-21.48h4.14v21.48a32.1 32.1 0 00.66 6.54 16.44 16.44 0 002.29 5.64 12 12 0 004.23 4 13.21 13.21 0 006.62 1.46zM1018.87 736.74v-42.6h14.46a21.93 21.93 0 018.91 1.68 18.12 18.12 0 016.36 4.56 19.22 19.22 0 013.84 6.75 25.92 25.92 0 011.29 8.25 25.4 25.4 0 01-1.44 8.79 19.07 19.07 0 01-4.11 6.72 18.37 18.37 0 01-6.42 4.32 22.14 22.14 0 01-8.43 1.53zm30.66-21.36a22 22 0 00-1.08-7 15.93 15.93 0 00-3.15-5.55 14.11 14.11 0 00-5.07-3.63 17.33 17.33 0 00-6.9-1.29h-10.26V733h10.26a17 17 0 007-1.35 14.21 14.21 0 005.07-3.72 16.13 16.13 0 003.09-5.58 22.37 22.37 0 001.04-6.97zM1151.77 736.74v-42.6h4.2v42.6zM1273.81 737a18 18 0 01-8.13-1.83 20.21 20.21 0 01-6.33-4.86 22.1 22.1 0 01-4.08-6.93 22.87 22.87 0 01-1.44-8 22.15 22.15 0 011.53-8.16 22.49 22.49 0 014.23-6.9 20.45 20.45 0 016.36-4.77 18 18 0 017.92-1.77 17.57 17.57 0 018.13 1.89 20.42 20.42 0 016.3 4.95 22.88 22.88 0 014 6.93 22.46 22.46 0 011.44 7.89 22.15 22.15 0 01-1.53 8.16 22.42 22.42 0 01-4.2 6.87 20.32 20.32 0 01-6.33 4.74 18 18 0 01-7.87 1.79zM1258 715.44a19.84 19.84 0 001.14 6.69 18.2 18.2 0 003.24 5.7 15.93 15.93 0 005 4 13.91 13.91 0 006.42 1.47 13.73 13.73 0 006.54-1.56 16 16 0 005-4.08 18.85 18.85 0 003.15-5.7 19.59 19.59 0 00-.06-13.17 18.29 18.29 0 00-3.27-5.67 16.12 16.12 0 00-5-3.93 13.78 13.78 0 00-6.36-1.47 14 14 0 00-6.54 1.53 15.59 15.59 0 00-5 4 18.85 18.85 0 00-3.15 5.7 19.53 19.53 0 00-1.11 6.49z"/>
</svg>
