<svg xmlns="http://www.w3.org/2000/svg" viewBox="0 0 1700.77 375.32">
      <path fill="white" d="M864.26 117.55l25.22.14-39.17 85.68-39.18-85.68 25.11-.14-7.11-6.5h-27.64l48.82 106.77 48.81-106.77H871z"/>
      <path fill="white" d="M850.24 0a136.12 136.12 0 10136.11 136.11A136.11 136.11 0 00850.24 0zm0 29.42l23.25 56.88-12.31 11.54h-22.55L827 86.3zm-44.3 203.91l-43.65-83.61 10-1.44L830 256.54zm20.27 1.21L776.51 141l-16.17 3.43 1.11-24.13 18.48-7.9 66.28 144.55zM796 128.07l-.06-.47-12.09-24.81-6.28-13.07v.07-.07l63.84-70.28v5l-29.6 64.7 25.21 22.25h26.66l24.59-22.25-29.6-64.7v-5L923 89.72q-8.19 17-16.4 34v.28l-56.29 117.15zm98 105.26l-24.3 23.21 58.4-108.26 10.09 1.44zM923.76 141l-50.3 93.57-20.24 22.38 67.08-144.58 18.71 7.9 1.13 24.13zM144.36 114.97H86.35V91.4H72.18v23.57H13.86V25.49L0 18.42v110.54h72.18v14.7H0v110.15l13.86-6.63v-89.82h58.32v23.86h14.17v-23.86h58.01v89.84l14.17 6.56v-110.1H86.35v-14.7h72.18V18.47l-14.17 7v89.5zM620.64 154.51a64.29 64.29 0 0017.65-15.22 68.6 68.6 0 0011.36-20.86 75.7 75.7 0 004-24.58 68.72 68.72 0 00-4.79-25 71.88 71.88 0 00-13.43-21.94 69.12 69.12 0 00-20.65-15.66 58.21 58.21 0 00-26.26-6.05h-92.73V247H511v-83.92h73.51L639.09 247h17.61l-55.49-85.6a55.46 55.46 0 0019.43-6.89zm4.92-22.51a48.18 48.18 0 01-15.28 12.3 42.74 42.74 0 01-19.91 4.7H511V39.36h77.2a43.64 43.64 0 0119.49 4.52A54.11 54.11 0 01623.78 56a58.4 58.4 0 0110.91 17.43 53.81 53.81 0 014 20.47 63 63 0 01-3.45 20.44 57 57 0 01-9.68 17.66zM1196.35 57.66a90 90 0 00-31.81-23.88C1151.83 28 1136.83 25 1120 25h-71.08v222.23H1120c15.47 0 29.64-2.69 42.13-8a90.7 90.7 0 0032.11-22.62 101.47 101.47 0 0020.37-35.12c4.71-13.58 7.11-28.95 7.11-45.69a142.39 142.39 0 00-6.35-42.87 102.65 102.65 0 00-19.02-35.27zm10.73 78.15a131.34 131.34 0 01-5.55 38.77 87.46 87.46 0 01-16.53 30.84 76.64 76.64 0 01-27.21 20.31c-10.78 4.87-23.5 7.34-37.82 7.34h-56.47V39.16h56.5c13.92 0 26.45 2.42 37.24 7.19a77.25 77.25 0 0127.36 20 86.47 86.47 0 0116.81 30.54 127.55 127.55 0 015.67 38.92zM1636.24 129.45V18.32l-13.59 6.57v104.56h-14.27V24.91l-13.3-6.64v111.18h-64.82v13.72h64.82v110.78l13.3-6.19V143.17h14.27v104.6l13.59 6.14V143.17h64.53v-13.72h-64.53zM265.69 232.93v-92.14H381v-14.13H265.69v-76.1l-15.24-15.23v211.73l164.14-.26-13-13.85zM414.59 25.17l-153 .11 14.11 14.11L401.61 39zM1456.22 91.5a105.5 105.5 0 00-19.84-36.4c-5.19-6.14-15.49-17.65-33.21-24.66a86.15 86.15 0 00-61 0c-17.62 7-27.85 18.47-33.07 24.66a105.46 105.46 0 00-19.74 36.4 145.93 145.93 0 00-6.6 44.25c0 17.27 2.48 33.14 7.39 47.16a104.62 104.62 0 0021.17 36.25c5.41 5.92 15.8 16.88 33.38 23.34a82.74 82.74 0 0055.88 0 77.22 77.22 0 0014.14-6.87l-8.89-11.83a64.22 64.22 0 01-9.76 4.76 63.29 63.29 0 01-46.88 0c-15-5.84-23.71-15.59-28.29-21a89.67 89.67 0 01-17.18-31.83 134.55 134.55 0 01-5.78-40 131.07 131.07 0 015.92-40.16 89.18 89.18 0 0117.49-31.52c4.66-5.35 13.42-15 28.44-20.66a63.46 63.46 0 0145.67 0c15.11 5.69 23.93 15.37 28.57 20.66a88.85 88.85 0 0117.56 31.52 130.16 130.16 0 015.95 40.16 133.91 133.91 0 01-5.8 40 89.82 89.82 0 01-24 39l8.92 11.87c3.11-2.82 5.56-5.44 7.4-7.44a104.5 104.5 0 0021.27-36.25c4.93-14 7.42-29.89 7.42-47.16a145.62 145.62 0 00-6.53-44.25zM545.52 340.34a13 13 0 00-4.8-3.3 17.53 17.53 0 00-6.84-1.26q-5.64 0-8.22 2.13a7.11 7.11 0 00-2.58 5.79 6.39 6.39 0 00.69 3.15 6 6 0 002.13 2.15 14.93 14.93 0 003.69 1.56q2.25.66 5.31 1.32a57.72 57.72 0 016.15 1.62 17.65 17.65 0 014.65 2.25 9.33 9.33 0 012.94 3.27 10.15 10.15 0 011 4.8 10.78 10.78 0 01-1.14 5.1 10.16 10.16 0 01-3.18 3.6 14.18 14.18 0 01-4.86 2.13 26 26 0 01-6.18.69 25.4 25.4 0 01-17.1-6.18l2.1-3.42A16.65 16.65 0 00522 368a19.79 19.79 0 003.54 1.89 22.49 22.49 0 004.17 1.26 23.52 23.52 0 004.68.45q5.1 0 8-1.83a6.15 6.15 0 002.85-5.55 6.37 6.37 0 00-.81-3.33 7 7 0 00-2.43-2.34 17.22 17.22 0 00-4-1.71q-2.4-.72-5.58-1.44-3.36-.78-5.88-1.62a15.68 15.68 0 01-4.26-2.1 8.18 8.18 0 01-2.61-3 9.8 9.8 0 01-.87-4.35 12 12 0 011.11-5.25 10.31 10.31 0 013.15-3.84 14.92 14.92 0 014.8-2.34 21.69 21.69 0 016.12-.81 20.9 20.9 0 017.59 1.29 20.38 20.38 0 016 3.63zM677 336.08h-15.2V375h-4.2v-38.92h-15.18v-3.72H677zM790.62 371.48a13.3 13.3 0 006.69-1.53 12.1 12.1 0 004.26-4 16.32 16.32 0 002.22-5.67 33 33 0 00.63-6.42v-21.5h4.2v21.48a33.91 33.91 0 01-1 8.19 19.46 19.46 0 01-3.09 6.81 15.28 15.28 0 01-5.55 4.68 18.23 18.23 0 01-8.34 1.74 17.94 17.94 0 01-8.49-1.83 15.52 15.52 0 01-5.55-4.83 19.59 19.59 0 01-3-6.84 34.59 34.59 0 01-.9-7.92v-21.48h4.14v21.48a32.1 32.1 0 00.66 6.54 16.44 16.44 0 002.25 5.64 12 12 0 004.23 4 13.21 13.21 0 006.64 1.46zM908.64 375v-42.6h14.46a21.93 21.93 0 018.9 1.6 18.12 18.12 0 016.36 4.56 19.22 19.22 0 013.84 6.75 25.92 25.92 0 011.29 8.25 25.4 25.4 0 01-1.44 8.79 19.07 19.07 0 01-4.11 6.72 18.37 18.37 0 01-6.42 4.32 22.14 22.14 0 01-8.42 1.61zm30.66-21.4a22 22 0 00-1.08-7.05 15.93 15.93 0 00-3.15-5.55 14.11 14.11 0 00-5.07-3.63 17.33 17.33 0 00-6.9-1.29h-10.26v35.16h10.26a17 17 0 007-1.35 14.21 14.21 0 005.07-3.72 16.13 16.13 0 003.09-5.58 22.37 22.37 0 001.04-6.99zM1041.54 375v-42.6h4.2V375zM1163.58 375.26a18 18 0 01-8.13-1.83 20.21 20.21 0 01-6.33-4.86 22.1 22.1 0 01-4.08-6.93 22.87 22.87 0 01-1.44-8 22.15 22.15 0 011.53-8.16 22.49 22.49 0 014.23-6.9 20.45 20.45 0 016.36-4.77 18 18 0 017.92-1.77 17.57 17.57 0 018.13 1.89 20.42 20.42 0 016.3 4.95 22.88 22.88 0 014 6.93 22.46 22.46 0 011.44 7.89 22.15 22.15 0 01-1.53 8.16 22.42 22.42 0 01-4.2 6.87 20.32 20.32 0 01-6.33 4.74 18 18 0 01-7.87 1.79zm-15.78-21.6a19.84 19.84 0 001.14 6.69 18.2 18.2 0 003.24 5.7 15.93 15.93 0 005 4 13.91 13.91 0 006.42 1.47 13.73 13.73 0 006.54-1.56 16 16 0 005-4.08 18.85 18.85 0 003.15-5.7 19.59 19.59 0 00-.06-13.17 18.29 18.29 0 00-3.27-5.67 16.12 16.12 0 00-5-3.93 13.78 13.78 0 00-6.36-1.47 14 14 0 00-6.54 1.53 15.59 15.59 0 00-5 4.05 18.85 18.85 0 00-3.15 5.7 19.53 19.53 0 00-1.11 6.44z"/>
</svg>
