<svg xmlns="http://www.w3.org/2000/svg" viewBox="0 0 113 124">
  <path d="M.2 67.5C.2 98.7 25.5 124 56.7 124s56.5-25.3 56.5-56.5c0-28.5-21.2-52.1-48.7-55.9L58.5 1C57.7-.3 55.8-.3 55 1l-6.1 10.6C21.4 15.4.2 39 .2 67.5z" fill="#e1e1d9"/>
  <path d="M57.2 25.2v.1l4.7-4.7h-9.3l4.6 4.6zm13.9-4.5L57.2 34.4 43.4 20.7H31.7v27L44.1 60v23.6l6.2 6.1h.3v-35L38.3 42.5V26.6l14.2 14v6.8l4.7 4.6 4.7-4.6v-6.8l13.6-14c-.1 5.3-.1 10.7-.2 16L62.9 54.7v35h.3l6.2-6.2V59.9l12.3-12.2v-27H71.1zm4.1 42.9v14.8l6.5-6.1V57.2l-6.5 6.4zm-36.9-.1l-6.5-6.4v15.2l6.5 6.1V63.5zm28.1 32.8c-.2 2.1-.5 8.9-.5 14.2 0 2.3.6 3.3 2 3.4l-.3 2.6c-.4.1-.8.2-1.2.2-1.8 0-3.2-1.1-3.4-4.2h-.1c-.6 1.2-1.6 2.3-2.8 3-1.2.7-2.6 1.1-4 1.1-4.8 0-8.2-3.9-8.2-10 0-6.5 4.3-10.8 9-10.8 1.3 0 2.6.3 3.7 1s2 1.7 2.5 3H63c0-1.2.2-2.4.4-3.5h3zm-9.5 17.5c2.5 0 4.7-2.4 5.4-5 .2-.9.3-1.9.2-2.8 0-.7 0-1.4-.2-2.1-.5-2.7-2.5-5.1-5.1-5.1-3.4 0-5.7 3.3-5.7 7.8-.1 3.7 1.9 7.2 5.4 7.2z" fill="#213152"/>
</svg>