<svg xmlns="http://www.w3.org/2000/svg" viewBox="0 0 113 124">
  <path d="M0 67.5C0 98.7 25.3 124 56.5 124S113 98.7 113 67.5c0-28.5-21.2-52.1-48.7-55.9L58.2 1c-.8-1.3-2.7-1.3-3.5 0l-6.1 10.6C21.2 15.4 0 39 0 67.5z" fill="#e1e1d9"/>
  <path d="M72.9 102.4c-.5 0-1.1 0-1.6-.1-3.1-.4-5.8-2-7.7-4.5L51.8 81.9v8.8c0 6.4-5.2 11.7-11.7 11.7-6.4 0-11.7-5.2-11.7-11.7v-46c0-6.4 5.2-11.7 11.7-11.7 6.4 0 11.7 5.2 11.7 11.7v8.9l11.7-15.8c1.9-2.5 4.6-4.1 7.7-4.5s6.2.4 8.6 2.3c2.5 1.9 4.1 4.6 4.5 7.7.4 3.1-.4 6.2-2.3 8.6L70.4 67.7l11.7 15.9c1.9 2.5 2.7 5.5 2.3 8.6-.4 3.1-2 5.8-4.5 7.7-2 1.7-4.5 2.5-7 2.5z" fill="#213152"/>
</svg>

