<svg xmlns="http://www.w3.org/2000/svg" viewBox="0 0 5000 663.83"><defs><style>.cls-1{fill:#1b9e7c;}.cls-2{fill:#0d4b63;}.cls-3{fill:#637714;}.cls-4{fill:#3fd3d1;}.cls-5{fill:#196f84;}.cls-6{fill:#1c466b;}</style></defs><title>about_jumbotron_linkerFichier 3</title><g id="Calque_2" data-name="Calque 2"><g id="Calque_2-2" data-name="Calque 2"><path class="cls-1" d="M0,3C733,362.84,1384.24,512,1830,580c423.94,64.64,953.21,140.77,1630,20C4160.59,475,4685.55,198.52,5000,0H0Z"/><path class="cls-2" d="M3376.05,313.35a5,5,0,0,1,.95.71l-49.83,88.21a16,16,0,0,1-1.43,2.52,14.51,14.51,0,0,1-1,1.27c-.24.27-.49.54-.76.81-.67.65-1,.9-1.25,1.14a20.07,20.07,0,0,1-1.91,1.41c-.34.22-.69.44-1,.65a29.63,29.63,0,0,1-4.84,2.22c-.89.31-1.81.61-2.78.87s-2,.51-3,.72c-1.56.32-3.2.57-4.92.76l-8.83,15c-.31.63-.49,1-.68,1.34-2,3.7-5.58,6.73-10.44,9-.46.21-.93.42-1.42.61s-1,.39-1.49.57-1,.36-1.56.53-1.07.33-1.63.48c-1.4.37-2,.5-2.56.63a67.27,67.27,0,0,1-11.67,1.45c-.72,0-1.44.05-2.18.06l-1.93,3.28-9.64,16.34a22.23,22.23,0,0,1-9.46,10c-.48.27-1,.54-1.48.8s-.91.46-1.38.68-1.18.52-1.79.77c-9.75,3.92-23.64,5.21-40.41,3.11-1.4-.18-2.82-.38-4.27-.6l-2-.33-2-.36-2-.38-2-.41-2-.44-2-.46-2-.49-2-.51-2-.54-2-.56-2-.59-2-.61-2-.63-2-.66-2-.67-2-.7-2-.72-2-.74-1.94-.76q-6.87-2.73-13.35-5.91l-33.65,19.56c-1.43,1-4,1.34-7.22.83a25.82,25.82,0,0,1-8.74-3.1c-2.56-1.48-4.56-3.28-5.39-5.05a2.88,2.88,0,0,1,1.42-4.19L3120,450.63c-13.51-9.16-23.86-19.54-28.66-29.75-7.64-16.29.6-28.32,19.21-32.91,1.79-.43,3.32-.74,4.91-1l29.29-5.86,5.66-1.13c.42-8.93,7.63-15.45,19.75-18.43,1.6-.39,3-.66,4.4-.89l21.64-4.33,5.19-1c1.91-5.89,7.75-10.21,16.56-12.38,1.4-.33,2.6-.57,3.85-.78l148-29.62A9.33,9.33,0,0,1,3376.05,313.35Z"/><path class="cls-3" d="M3112.66,474.84V421.93h-28.09v52.91c-.18,2.2,1.19,4.45,4.09,6.13,5.48,3.16,14.44,3.16,19.91,0C3111.48,479.29,3112.84,477,3112.66,474.84Z"/><path class="cls-4" d="M3192.77,351.23l-87.18-179.06a7.75,7.75,0,0,0-13.94,0l-87.73,180.19a42,42,0,0,0-2.13,4.38l-.16.32h0c-7.58,18.77,1.23,39.34,26.45,53.88,38.78,22.35,102.24,22.31,141-.1,27.57-15.94,35.54-39.06,23.9-59.13C3192.93,351.55,3192.85,351.39,3192.77,351.23Z"/><path class="cls-4" d="M3192.77,351.23l-87.18-179.06a7.75,7.75,0,0,0-13.94,0l-87.73,180.19a42,42,0,0,0-2.13,4.38l-.16.32h0c-7.58,18.77,1.23,39.34,26.45,53.88,38.78,22.35,102.24,22.31,141-.1,27.57-15.94,35.54-39.06,23.9-59.13C3192.93,351.55,3192.85,351.39,3192.77,351.23Z"/><path class="cls-5" d="M3192.77,351.23l-87.18-179.06a7.67,7.67,0,0,0-7.07-4.36V427.67c25.59,0,51.19-5.61,70.61-16.83,27.57-15.94,35.54-39.06,23.9-59.13C3192.93,351.55,3192.85,351.39,3192.77,351.23Z"/><path class="cls-6" d="M3179.71,324.4l-74.12-152.23a7.75,7.75,0,0,0-13.94,0l-74.16,152.31a62.63,62.63,0,0,0,17.89,14.8c34.78,20.05,91.69,20,126.47-.09A62.45,62.45,0,0,0,3179.71,324.4Z"/><path class="cls-4" d="M3183.06,277.32l-78.19-160.59a7,7,0,0,0-12.5,0l-78.68,161.61a36.35,36.35,0,0,0-1.92,3.92l-.13.29h0c-6.8,16.83,1.11,35.28,23.72,48.32,34.78,20.05,91.69,20,126.47-.09,24.74-14.29,31.88-35,21.44-53A4.5,4.5,0,0,1,3183.06,277.32Z"/><path class="cls-5" d="M3183.06,277.32l-78.19-160.59a6.88,6.88,0,0,0-6.35-3.91V345.88c22.95,0,45.92-5,63.33-15.1,24.74-14.29,31.88-35,21.44-53A4.5,4.5,0,0,1,3183.06,277.32Z"/><path class="cls-6" d="M3173.49,257.68l-68.62-140.95a7,7,0,0,0-12.5,0l-68.66,141c3.73,6.54,10.09,12.68,19.06,17.86,30.72,17.7,81,17.67,111.69-.08C3163.42,270.34,3169.76,264.21,3173.49,257.68Z"/><path class="cls-4" d="M3172.26,221.36l-68.19-140a6.06,6.06,0,0,0-10.9,0l-68.63,140.94a31.72,31.72,0,0,0-1.66,3.43l-.12.24h0c-5.93,14.69,1,30.78,20.69,42.15,30.33,17.48,80,17.45,110.3-.08,21.57-12.46,27.8-30.55,18.69-46.25C3172.39,221.62,3172.32,221.49,3172.26,221.36Z"/><path class="cls-5" d="M3172.26,221.36l-68.19-140a6,6,0,0,0-5.55-3.41V281.16c20,0,40.06-4.39,55.25-13.17,21.57-12.46,27.8-30.55,18.69-46.25C3172.39,221.62,3172.32,221.49,3172.26,221.36Z"/><path class="cls-2" d="M2396.29,330.18a5.17,5.17,0,0,1,1,.7l-49.83,88.22a16,16,0,0,1-1.43,2.52c-.3.43-.64.86-1,1.27s-.49.54-.76.81c-.67.64-1,.9-1.25,1.14a22,22,0,0,1-1.91,1.41l-1,.65a29.61,29.61,0,0,1-4.84,2.21c-.89.32-1.81.62-2.78.88s-2,.51-3,.72c-1.56.31-3.2.57-4.92.76l-8.83,15c-.31.63-.49,1-.68,1.34-2,3.7-5.58,6.73-10.44,9-.46.21-.93.41-1.42.61s-1,.39-1.49.57-1,.36-1.56.53-1.07.32-1.63.48c-1.4.36-2,.5-2.56.63A68.29,68.29,0,0,1,2284.2,461c-.72,0-1.44.06-2.18.07l-1.94,3.28-9.64,16.34a22.09,22.09,0,0,1-9.45,10c-.48.28-1,.55-1.48.81s-.91.46-1.38.68-1.18.52-1.79.77c-9.75,3.92-23.64,5.21-40.41,3.11-1.4-.18-2.82-.38-4.27-.6l-2-.33-2-.36-2-.38-2-.41-2-.44-2-.46-2-.49-2-.51-2-.54-2-.57-2-.58-2-.61-2-.63-2-.66-2-.67-2-.7-2-.72-2-.74-1.94-.76q-6.87-2.73-13.35-5.91l-33.65,19.56c-1.43,1-4,1.33-7.22.83a25.82,25.82,0,0,1-8.74-3.1c-2.56-1.48-4.56-3.28-5.39-5.05a2.88,2.88,0,0,1,1.42-4.19l33.64-19.54c-13.51-9.16-23.86-19.54-28.66-29.76-7.64-16.28.6-28.32,19.21-32.9,1.79-.43,3.32-.74,4.91-1l29.29-5.86,5.66-1.13c.41-8.94,7.63-15.45,19.75-18.43,1.6-.39,3-.66,4.4-.9l21.64-4.32,5.19-1c1.91-5.9,7.75-10.21,16.56-12.38,1.4-.34,2.6-.58,3.85-.78l148-29.62A9.29,9.29,0,0,1,2396.29,330.18Z"/><path class="cls-3" d="M2132.91,491.67V438.76h-28.09v52.91c-.18,2.2,1.19,4.45,4.09,6.13,5.48,3.16,14.44,3.16,19.91,0C2131.73,496.12,2133.09,493.87,2132.91,491.67Z"/><path class="cls-4" d="M2213,368.05l-87.18-179a7.75,7.75,0,0,0-13.94,0l-87.73,180.19a42,42,0,0,0-2.13,4.38l-.16.31h0c-7.59,18.78,1.23,39.35,26.45,53.89,38.78,22.35,102.24,22.3,141-.11,27.57-15.93,35.54-39.05,23.89-59.12C2213.18,368.38,2213.1,368.22,2213,368.05Z"/><path class="cls-4" d="M2213,368.05l-87.18-179a7.75,7.75,0,0,0-13.94,0l-87.73,180.19a42,42,0,0,0-2.13,4.38l-.16.31h0c-7.59,18.78,1.23,39.35,26.45,53.89,38.78,22.35,102.24,22.3,141-.11,27.57-15.93,35.54-39.05,23.89-59.12C2213.18,368.38,2213.1,368.22,2213,368.05Z"/><path class="cls-5" d="M2213,368.05l-87.18-179a7.67,7.67,0,0,0-7.07-4.36V444.5c25.59,0,51.19-5.62,70.61-16.84,27.57-15.93,35.54-39.05,23.89-59.12C2213.18,368.38,2213.1,368.22,2213,368.05Z"/><path class="cls-6" d="M2200,341.23,2125.84,189a7.75,7.75,0,0,0-13.94,0l-74.16,152.31a62.79,62.79,0,0,0,17.89,14.8c34.78,20.05,91.69,20,126.47-.09A62.78,62.78,0,0,0,2200,341.23Z"/><path class="cls-4" d="M2203.31,294.15l-78.19-160.59a7,7,0,0,0-12.5,0l-78.68,161.61a36.35,36.35,0,0,0-1.92,3.92l-.13.28h0c-6.8,16.84,1.11,35.29,23.72,48.33,34.78,20.05,91.69,20,126.47-.09,24.73-14.3,31.88-35,21.44-53A4.5,4.5,0,0,1,2203.31,294.15Z"/><path class="cls-5" d="M2203.31,294.15l-78.19-160.59a6.88,6.88,0,0,0-6.35-3.91V362.71c22.95,0,45.92-5,63.33-15.1,24.73-14.3,31.88-35,21.44-53A4.5,4.5,0,0,1,2203.31,294.15Z"/><path class="cls-6" d="M2193.74,274.51l-68.62-140.95a7,7,0,0,0-12.5,0l-68.66,141c3.73,6.54,10.09,12.68,19.06,17.86,30.72,17.7,81,17.66,111.69-.08C2183.67,287.17,2190,281,2193.74,274.51Z"/><path class="cls-4" d="M2192.51,238.19l-68.19-140a6.07,6.07,0,0,0-10.91,0l-68.62,140.94a31.72,31.72,0,0,0-1.66,3.43l-.12.24h0c-5.93,14.69,1,30.78,20.69,42.15,30.33,17.48,80,17.45,110.3-.08,21.57-12.47,27.8-30.55,18.69-46.25C2192.64,238.45,2192.57,238.32,2192.51,238.19Z"/><path class="cls-5" d="M2192.51,238.19l-68.19-140a6,6,0,0,0-5.55-3.41V298c20,0,40.06-4.39,55.25-13.17,21.57-12.47,27.8-30.55,18.69-46.25C2192.64,238.45,2192.57,238.32,2192.51,238.19Z"/></g></g></svg>