<?xml version="1.0" encoding="utf-8"?>
<!-- Generator: Adobe Illustrator 23.0.6, SVG Export Plug-In . SVG Version: 6.00 Build 0)  -->
<svg version="1.1" id="Calque_1" xmlns="http://www.w3.org/2000/svg" xmlns:xlink="http://www.w3.org/1999/xlink" x="0px" y="0px"
	 viewBox="0 0 4583 4587.6" style="enable-background:new 0 0 4583 4587.6;" xml:space="preserve">
<style type="text/css">
	.st0{clip-path:url(#SVGID_2_);}
	.st1{fill:none;}
	.st2{fill:#FFFFFF;}
	.st3{fill:url(#SVGID_3_);}
	.st4{fill:url(#SVGID_4_);}
	.st5{opacity:0.6;fill:url(#SVGID_5_);enable-background:new    ;}
	.st6{opacity:0.6;fill:url(#SVGID_6_);enable-background:new    ;}
	.st7{opacity:0.6;fill:url(#SVGID_7_);enable-background:new    ;}
	.st8{opacity:0.3;fill:#FFFFFF;enable-background:new    ;}
	.st9{fill:url(#SVGID_8_);}
</style>
<title>about_jumbotron_backgroundFichier 1</title>
<g>
	<g>
		<g>
			<g id="Calque_2-2">
				<g>
					<g>
						<g>
							<defs>
								<rect id="SVGID_1_" width="4583" height="4587.6"/>
							</defs>
							<clipPath id="SVGID_2_">
								<use xlink:href="#SVGID_1_"  style="overflow:visible;"/>
							</clipPath>
							<g class="st0">
								<rect x="131.7" y="2194" class="st1" width="18.9" height="18.9"/>
								<circle class="st2" cx="141.2" cy="2203.5" r="9.5"/>
								
									<linearGradient id="SVGID_3_" gradientUnits="userSpaceOnUse" x1="2118.7261" y1="2534.8018" x2="2118.7261" y2="7520.3916" gradientTransform="matrix(0.9175 0 0 -0.9175 345.2688 6913.2808)">
									<stop  offset="0" style="stop-color:#6FA1E3"/>
									<stop  offset="1" style="stop-color:#7991E1"/>
								</linearGradient>
								<rect x="-4.6" class="st3" width="4587.6" height="4587.6"/>
								
									<linearGradient id="SVGID_4_" gradientUnits="userSpaceOnUse" x1="2118.7261" y1="2534.8018" x2="2118.7261" y2="7520.3916" gradientTransform="matrix(0.9175 0 0 -0.9175 345.2688 6913.2808)">
									<stop  offset="0" style="stop-color:#5AA9E3"/>
									<stop  offset="0.53" style="stop-color:#5E95E2"/>
									<stop  offset="1" style="stop-color:#627FE1"/>
								</linearGradient>
								<rect x="-4.6" class="st4" width="4587.6" height="4587.6"/>
								
									<linearGradient id="SVGID_5_" gradientUnits="userSpaceOnUse" x1="9113.8984" y1="5549.9756" x2="11201.8682" y2="6391.9155" gradientTransform="matrix(-0.8533 0.3395 -0.3395 -0.8533 13476.876 3764.8367)">
									<stop  offset="0" style="stop-color:#6FA1E3"/>
									<stop  offset="0.18" style="stop-color:#83AEE7"/>
									<stop  offset="0.55" style="stop-color:#B7D0F1"/>
									<stop  offset="1" style="stop-color:#FFFFFF"/>
								</linearGradient>
								<path class="st5" d="M3711.7,811.2c-32.2,14.5-64.2,29.5-95.9,45c-15.9,7.7-31.7,15.6-47.5,23.5c-7.9,4-15.8,7.9-23.7,11.9
									l-23.6,12.1c-62.7,32.4-124.8,66.4-186.1,101.7c-61.3,35.4-121.8,72.3-181.5,110.7c-14.9,9.7-29.8,19.3-44.6,29.1
									l-22.2,14.8c-7.4,4.9-14.7,10-22,15l-22,15l-21.9,15.3c-14.6,10.2-29,20.6-43.5,31c-7.3,5.2-14.4,10.5-21.6,15.8l-21.5,15.9
									l-21.4,16.1c-7.1,5.4-14.3,10.7-21.3,16.3c-14.1,11-28.3,22-42.2,33.2c-7,5.6-14,11.1-21,16.8l-20.7,17.1
									c-6.9,5.7-13.8,11.5-20.6,17.3c-6.9,5.8-13.8,11.6-20.6,17.4c-13.6,11.8-27.2,23.6-40.5,35.7l-10.1,9l-5,4.5l-5,4.6
									l-19.9,18.4c-3.3,3-6.6,6.2-9.9,9.3l-9.8,9.4l-9.8,9.4l-9.6,9.5l-9.7,9.5l-4.9,4.8l-4.8,4.8l-19.2,19.4
									c-12.6,13.1-25.2,26.2-37.6,39.7l-9.3,10.1l-9.2,10.2l-9.2,10.2l-4.6,5.1l-4.5,5.2c-6,6.9-12,13.9-18,20.9L2498,1673
									l-17.4,21.5c-2.9,3.6-5.7,7.2-8.6,10.9l-8.5,10.9l-4.3,5.5l-4.2,5.6l-8.3,11.1c-5.6,7.4-10.9,15-16.4,22.6
									c-5.5,7.5-10.7,15.2-16,22.9s-10.5,15.5-15.7,23.3s-10.2,15.8-15.2,23.7l-3.8,6c-1.2,2-2.4,4-3.7,6l-7.3,12.1
									c-19.3,32.4-37.6,65.8-53.8,100.6l-6.1,13.1c-1,2.2-2,4.4-3,6.6l-2.9,6.6c-1.9,4.4-3.9,8.8-5.7,13.3l-5.5,13.4
									c-0.9,2.2-1.8,4.5-2.8,6.7l-2.6,6.8l-5.2,13.6l-4.9,13.8l-2.4,6.9l-2.3,7l-4.6,13.9l-4.2,14.1l-2.1,7.1l-2,7.1
									c-1.3,4.8-2.6,9.5-3.9,14.3c-4.9,19.1-9.3,38.5-12.9,58c-3.7,19.6-6.4,39.4-8.5,59.3c-2.1,19.9-3.3,40-3.8,60.2l-0.2,15.1
									l0.1,15.1c0,2.6,0.1,4.9,0.2,7.4l0.2,7.3l0.6,14l0.7,13.5l0.7,13.2l1.4,25.9l0.7,12.8l0.6,12.7l1.2,25.2l0.5,12.5l0.2,6.3
									l0.2,6.2l0.4,12.5l0.2,12.4c1.4,66.2-0.6,131.6-7.2,196.3c-3.3,32.4-7.8,64.6-13.4,96.6l-2.1,12c-0.8,4-1.6,8-2.4,11.9
									c-1.7,7.9-3,16-4.9,23.9l-2.7,11.9l-1.3,6l-0.7,3l-0.8,3c-2,7.9-4,15.8-5.9,23.7c-8.4,31.5-18,62.7-28.9,93.6
									c-10.8,31-23.6,61.3-37.2,91.6l-5.2,11.3l-2.6,5.7l-1.3,2.8l-1.4,2.8l-11.1,22.4c-0.9,1.9-1.9,3.7-2.9,5.6l-2.9,5.5
									l-5.8,11.1l-2.9,5.6c-0.9,1.8-2,3.7-3.1,5.5l-6.2,11c-16.5,29.4-34.3,58.3-53.4,86.7s-39.4,56.4-60.9,84
									c-21.4,27.6-44,54.7-67.2,82.1l0.6,0.7c17.6-5.9,35-12.5,51.9-20c17.1-7.3,33.7-15.6,50.2-24.3c33.1-17.6,65-37.5,95.4-59.5
									c30.8-22.4,60.1-46.7,87.8-72.9c14-13.1,27.4-26.9,40.6-41c6.5-7.1,12.9-14.4,19.4-21.6l2.4-2.8l2.3-2.8l4.6-5.6l9.3-11.2
									l4.6-5.7l2.3-2.8l2.2-2.9c2.9-3.9,5.9-7.7,8.9-11.6l8.8-11.7c1.4-2,3-3.9,4.4-5.9l4.2-6c5.6-8,11.2-16,16.7-24.2
									c5.3-8.3,10.6-16.5,15.8-24.8c20.6-33.5,39.3-68.2,55.9-103.9c32.9-71.7,57.5-147.3,73.8-224.1
									c8.2-38.4,14.4-77.1,18.8-115.7c4.4-38.6,6.9-77.2,8.1-115.5c0.1-4.8,0.3-9.6,0.3-14.3l0.2-14.2l0.1-7.1v-7.1v-14.1l-0.2-14
									l-0.1-7l-0.2-6.9l-0.3-13.9l-0.4-13.7c-0.1-4.6-0.3-9-0.5-13.5l-0.5-13.3l-1.1-25.4l-0.4-11.7l-0.1-5.3l-0.1-2.7v-1.3v-1.2
									l-0.1-9.9l0.1-9.9c0.3-13.2,1.1-26.4,2.3-39.7s3.2-26.6,5.4-40s5.1-26.9,8.3-40.4l2.6-10.1l1.3-5.1l1.4-5.1l2.8-10.2
									l3.1-10.2l1.5-5.1l1.7-5.1l3.3-10.2l3.6-10.2l1.8-5.1c0.6-1.7,1.3-3.4,1.9-5.1l3.8-10.2c1.3-3.4,2.8-6.8,4.1-10.2l2-5.1
									c0.7-1.7,1.3-3.4,2.1-5.1l4.3-10.2l2.2-5.1l2.3-5.1l4.6-10.2c1.5-3.4,3.2-6.8,4.8-10.2s3.2-6.8,4.8-10.2l5.1-10.2
									c1.7-3.4,3.3-6.8,5.1-10.1l5.3-10.1l2.6-5.1l2.8-5.1c29.1-54,63.3-107.2,100.8-159.5l14.2-19.6c4.8-6.5,9.7-12.9,14.6-19.4
									l3.7-4.9l3.7-4.8l7.5-9.7l7.5-9.7l7.7-9.6c20.3-25.7,41.3-51.1,62.9-76.3c21.6-25.2,43.7-50.2,66.4-74.9
									c5.7-6.2,11.2-12.4,17-18.5l17.2-18.5c5.7-6.2,11.6-12.2,17.4-18.4c5.8-6.1,11.6-12.3,17.5-18.4
									c47-48.7,95.3-96.7,144.9-144.2c99.1-94.9,202.1-188,307-280.5c52.4-46.4,105.3-92.6,158.3-139.2l79.6-70.2l19.9-17.7
									c6.6-5.9,13.2-11.9,19.9-17.8s13.3-11.9,19.8-17.9c6.6-6,13.2-12,19.7-18.2H3711.7z"/>
								
									<linearGradient id="SVGID_6_" gradientUnits="userSpaceOnUse" x1="9134.5605" y1="6305.605" x2="13108.6016" y2="6305.605" gradientTransform="matrix(-0.9175 0 0 -0.9175 14538.7285 6913.2808)">
									<stop  offset="0" style="stop-color:#6FA1E3"/>
									<stop  offset="0.18" style="stop-color:#83AEE7"/>
									<stop  offset="0.55" style="stop-color:#B7D0F1"/>
									<stop  offset="1" style="stop-color:#FFFFFF"/>
								</linearGradient>
								<path class="st6" d="M6155.6-506.3c-55.8-1.2-110.8,1.9-165.5,6.9c-54.8,5-109.1,12.5-163.2,21.7l-20.2,3.6l-10.1,1.8
									l-10.1,1.9c-13.5,2.5-26.9,5.3-40.3,8c-6.7,1.3-13.4,2.8-20.1,4.3c-6.7,1.4-13.4,3-20.1,4.5c-13.3,3.1-26.8,6.1-40.1,9.3
									c-13.3,3.2-26.6,6.7-39.9,10.1c-6.6,1.7-13.3,3.4-19.9,5.2l-19.8,5.5l-39.6,11.3c-13.1,4-26.2,8-39.3,12.1l-19.7,6.2
									c-6.5,2.1-13,4.3-19.5,6.4c-13,4.3-26.1,8.7-39,13.1c-13,4.5-25.9,9.2-38.8,13.9l-19.4,7c-6.5,2.3-12.8,4.9-19.3,7.3
									l-19.3,7.4l-19.2,7.5c-12.8,5-25.5,10.3-38.2,15.6s-25.4,10.6-38,16c-12.6,5.5-25.2,11.1-37.7,16.8
									c-25.2,11.1-50,23.1-74.9,34.9c-24.9,11.8-49.3,24.6-73.9,37.1c-6.2,3.1-12.2,6.4-18.3,9.7l-18.2,9.8
									c-12.1,6.6-24.3,13.1-36.4,19.8l-36,20.5l-18,10.3l-9,5.2l-8.9,5.3c-190,112.9-368.2,247.1-530.5,398.4
									c-10.1,9.5-20.2,19-30.3,28.6l-15.1,14.3c-5,4.8-9.9,9.7-14.8,14.6l-29.5,29.4l-14.7,14.7l-3.7,3.7
									c-0.6,0.6-1.2,1.2-1.8,1.9l-1.9,2l-7.8,8.2c-10.3,10.9-20.7,21.8-30.9,32.7l-30.1,33.6l-7.5,8.4l-7.3,8.6l-14.5,17.2
									l-14.5,17.3l-14,17.7l-14,17.7c-2.3,3-4.7,5.9-7,8.9l-6.8,9l-13.5,18l-6.7,9c-2.2,3-4.5,6-6.7,9
									c-8.7,12.1-17.3,24.3-25.9,36.5c-1.1,1.5-2.2,3-3.2,4.6l-3.1,4.6l-6.2,9.2l-12.4,18.5c-32.6,49.3-62.8,99.1-90.7,148.6
									s-53.7,98.6-78,146.5c-24.2,47.9-47.3,94.9-69.7,140.7l-33.4,68l-16.6,33.4l-16.6,33l-4.1,8.3l-2.1,4.1l-2.1,4.1l-8.4,16.2
									l-8.3,16.3c-1.4,2.8-2.8,5.4-4.2,8.1l-4.2,8l-8.4,16.1l-4.2,8l-2.1,4l-2.2,4l-17.1,31.8c-2.8,5.3-5.8,10.5-8.7,15.8
									l-8.7,15.7l-8.7,15.8l-8.9,15.6l-8.9,15.6l-4.5,7.8l-2.2,3.9l-2.3,3.9l-18.4,30.9l-4.6,7.7c-1.5,2.6-3.1,5.1-4.7,7.6
									l-9.3,15.2l-9.4,15.3c-1.6,2.6-3.1,5.1-4.7,7.7l-4.8,7.6l-19.3,30.4c-1.6,2.5-3.2,5.1-4.8,7.6l-5,7.5l-9.9,15.1l-9.9,15.1
									l-5,7.6l-5.1,7.5c-6.8,10-13.7,19.9-20.4,30c-6.8,10-13.8,19.9-20.8,29.8s-14,19.9-21,29.9c-29.1,40-58.5,80.1-88.7,119.7
									c-3.7,5-7.6,9.9-11.3,14.8l-11.4,14.8l-11.4,14.8l-11.5,14.7l-11.6,14.8c-3.9,4.9-7.7,9.9-11.6,14.7l-23.4,29.4
									c-3.9,4.9-7.9,9.8-11.8,14.6l-11.8,14.6l-11.8,14.7l-12,14.5l-12,14.6l-6,7.3l-6.1,7.2c-8.1,9.6-16.2,19.3-24.3,29
									c-16.4,19.1-32.6,38.5-49.3,57.5l-12.4,14.4l-12.5,14.3l-12.5,14.3l-6.3,7.2l-6.3,7.1c-33.6,38.1-67.9,75.9-102.8,113.3
									c-34.9,37.5-70.2,74.8-106.1,112.1c-17.9,18.6-36,37.1-54.2,55.7c-9.2,9.2-18.4,18.4-27.4,27.7l-27.6,27.7
									c-36.9,37-74.4,73.6-112.2,110.5c-4.8,4.6-9.5,9.2-14.2,13.8c-4.7,4.7-9.5,9.2-14.2,13.8s-9.5,9.2-14.3,13.9l-14.3,13.7
									c-4.8,4.6-9.5,9.4-14.3,14l-7.2,6.9l-7.1,7c-9.5,9.5-19.2,18.6-28.7,28.2l0,0c-0.7,0.8-0.7,2,0.1,2.7
									c0.5,0.5,1.1,0.6,1.8,0.5c6.5-1.8,13-3.6,19.4-5.5s12.9-3.8,19.3-5.7l9.7-2.9l9.6-3c6.4-2,12.8-4.1,19.2-6.1
									c12.7-4.2,25.5-8.4,38.2-12.8c12.7-4.4,25.4-8.8,38-13.4c50.5-18.2,100.4-38.3,149.9-59.6l37-16.3
									c12.3-5.5,24.5-11.2,36.7-16.8l36.6-17.3c6.1-2.9,12.1-5.9,18.2-8.9l18.2-9c48.3-24.1,96.1-49.6,143.2-76.3
									c94.6-53.7,186.4-112,275.1-174.9c11.1-7.9,22.2-15.9,33.2-23.9l8.3-6l8.3-6.1l16.5-12.2l16.4-12.3l16.3-12.5
									c10.8-8.3,21.7-16.6,32.4-25.1l32.1-25.6c5.4-4.2,10.6-8.6,15.9-13l15.9-13c5.3-4.4,10.6-8.7,15.9-13.1l15.7-13.3l15.7-13.3
									c5.2-4.5,10.5-8.9,15.6-13.4l30.9-27.2l7.7-6.8l7.6-6.9l15.2-13.9l15.2-13.9c5.1-4.6,10.1-9.4,15.1-14l30-28.3
									c10-9.7,20-19.5,29.9-29.4s20-19.6,29.7-29.7l29.3-30.3l7.3-7.6l7.2-7.7l14.3-15.5l14.3-15.5l7.1-7.8c2.4-2.6,4.7-5.3,7-7.9
									l27.9-31.8l7-8c2.3-2.7,4.6-5.4,6.8-8.1l13.6-16.2l13.6-16.2c2.3-2.8,4.6-5.4,6.8-8.2l6.6-8.3l26.5-33l3.3-4.1l3.2-4.2
									l6.4-8.4l12.9-16.8l12.8-16.8l12.5-17l12.5-17c4.2-5.7,8.4-11.3,12.4-17.1l24.3-34.4l3-4.3l3-4.3l5.9-8.6l11.8-17.3l5.9-8.7
									c2-2.9,3.9-5.8,5.8-8.7l11.5-17.4c7.6-11.6,15.4-23.2,22.7-34.8l11.1-17.4c3.7-5.8,7.5-11.6,11-17.4l21.7-34.7l21.1-34.5
									l10.4-17.2l10.3-17.1c27.4-45.6,53.7-90.3,79.5-133.6s51-85,76.3-125c25.3-39.9,50.8-78.2,76.9-114.8l9.9-13.6l4.9-6.8
									l2.4-3.4c0.8-1.1,1.7-2.2,2.5-3.3c6.7-8.9,13.4-17.7,20-26.6c1.6-2.3,3.4-4.4,5.1-6.5l5.1-6.5l10.2-13l5.1-6.5
									c1.7-2.1,3.5-4.2,5.3-6.4l10.5-12.7l10.5-12.7l10.8-12.4l10.7-12.5l5.4-6.2l5.6-6.1l22.1-24.4l22.8-23.9l5.7-6l1.4-1.5
									c0.4-0.5,1-1.1,1.6-1.6l3.2-3.2l12.8-13l25.6-26c4.3-4.3,8.5-8.7,12.8-13l13-12.8c8.6-8.6,17.3-17.2,25.8-25.8
									c138.1-137.3,280.9-270.2,429-400.6l6.9-6.2l7-6.1l14-12.1l27.9-24.4l28.1-24.2l28.1-24.4l28.4-24.1l14.2-12.2l3.5-3l3.6-3
									l7.2-6l28.6-24.1l7.1-6.1c2.4-2,4.8-4,7.2-6l14.4-12c9.6-8,19.2-16.1,28.8-24.2c9.6-8.1,19.4-15.9,29-24l14.5-12.1
									c2.4-2,4.8-4.1,7.3-6.1l7.3-6L5529.1,2l14.6-12.1l58.9-48.1c9.9-7.9,19.8-15.9,29.7-23.9l14.8-12.1l15-11.9
									c10-7.9,19.9-16.1,29.9-24.1l30.1-24l15.1-12.1c5.1-4,10.1-8,15.2-12l30.3-24.2c10.2-7.9,20.3-16.1,30.5-24.2
									c10.2-8.1,20.5-16,30.7-24.2c10.2-8.2,20.4-16.4,30.8-24.4l7.7-6l7.7-6.1l15.4-12.3c41.3-32.6,83-65.4,125-99
									s84.4-67.5,126.6-103.9c0.8-0.7,0.9-1.9,0.2-2.8C6156.6-506,6156.1-506.3,6155.6-506.3z"/>
								
									<linearGradient id="SVGID_7_" gradientUnits="userSpaceOnUse" x1="14084.8613" y1="3317.4846" x2="18058.9023" y2="3317.4846" gradientTransform="matrix(-0.9175 0 0 -0.9175 14538.7285 6913.2808)">
									<stop  offset="0" style="stop-color:#6FA1E3"/>
									<stop  offset="0.18" style="stop-color:#83AEE7"/>
									<stop  offset="0.55" style="stop-color:#B7D0F1"/>
									<stop  offset="1" style="stop-color:#FFFFFF"/>
								</linearGradient>
								<path class="st7" d="M1613.8,2235.3c-55.8-1.2-110.8,1.9-165.5,6.9s-109.1,12.5-163.2,21.7l-20.2,3.6l-10.1,1.8l-10.1,1.9
									c-13.5,2.5-26.9,5.3-40.3,8c-6.7,1.3-13.4,2.8-20.1,4.3c-6.7,1.4-13.4,3-20.1,4.5c-13.3,3.1-26.8,6.1-40.1,9.3
									c-13.3,3.2-26.6,6.7-39.9,10.1c-6.6,1.7-13.3,3.4-19.9,5.2l-19.8,5.5l-39.6,11.3c-13.1,4-26.2,8-39.3,12.1l-19.7,6.2
									c-6.5,2.1-13,4.3-19.5,6.4c-13,4.3-26.1,8.7-39,13.1c-13,4.5-25.9,9.2-38.8,13.9l-19.4,7c-6.5,2.3-12.8,4.9-19.3,7.3
									l-19.3,7.4l-19.2,7.5c-12.8,5-25.5,10.3-38.2,15.6s-25.4,10.6-38,16c-12.6,5.5-25.2,11.1-37.7,16.8
									c-25.2,11.1-50,23.1-74.9,34.9s-49.3,24.6-73.9,37.1c-6.2,3.1-12.2,6.4-18.3,9.7l-18.2,9.8c-12.1,6.6-24.3,13.1-36.4,19.8
									l-36,20.5l-18,10.3l-9,5.2l-8.9,5.3c-190,112.9-368.2,247.1-530.5,398.4c-10.1,9.5-20.2,19-30.3,28.6l-15.1,14.3
									c-5,4.8-9.9,9.7-14.8,14.6l-29.5,29.4l-14.7,14.7l-3.7,3.7c-0.6,0.6-1.2,1.2-1.8,1.9l-1.9,2l-7.8,8.2
									c-10.3,10.9-20.7,21.8-30.9,32.7l-30.1,33.6l-7.5,8.4l-7.3,8.6l-14.5,17.2l-14.5,17.3l-14,17.7l-14,17.7
									c-2.3,3-4.7,5.9-7,8.9l-6.8,9l-13.5,18l-6.7,9c-2.2,3-4.5,6-6.7,9c-8.7,12.1-17.3,24.3-25.9,36.5c-1.1,1.5-2.2,3-3.2,4.6
									l-3.1,4.6l-6.2,9.2l-12.4,18.5c-32.6,49.3-62.8,99.1-90.7,148.6c-27.9,49.5-53.7,98.6-78,146.5
									c-24.2,47.9-47.3,94.9-69.7,140.7l-33.4,68l-16.6,33.4l-16.6,33l-4.1,8.3l-2.1,4.1l-2.1,4.1l-8.4,16.2l-8.3,16.3
									c-1.4,2.8-2.8,5.4-4.2,8.1l-4.2,8l-8.4,16.1l-4.2,8l-2.1,4l-2.2,4l-17.1,31.8c-2.8,5.3-5.8,10.5-8.7,15.8l-8.7,15.7
									l-8.7,15.8l-8.9,15.6l-8.9,15.6l-4.5,7.8l-2.2,3.9l-2.3,3.9l-18.4,30.9l-4.6,7.7c-1.5,2.6-3.1,5.1-4.7,7.6l-9.3,15.3
									l-9.4,15.3c-1.6,2.6-3.1,5.1-4.7,7.7l-4.8,7.6l-19.3,30.4c-1.6,2.5-3.2,5.1-4.8,7.6l-5,7.5l-9.9,15.1l-9.9,15.1l-5,7.6
									l-5.1,7.5c-6.8,10-13.7,19.9-20.4,30s-13.8,19.9-20.8,29.8s-14,19.9-21,29.9c-29.1,40-58.5,80.1-88.7,119.7
									c-3.7,5-7.6,9.9-11.3,14.8l-11.4,14.8l-11.4,14.8l-11.5,14.7l-11.6,14.8c-3.9,4.9-7.7,9.9-11.6,14.7l-23.4,29.4
									c-3.9,4.9-7.9,9.8-11.8,14.6l-11.8,14.6l-11.8,14.6l-12,14.5l-12,14.6l-6,7.3l-6.1,7.2c-8.1,9.6-16.2,19.3-24.3,29
									c-16.4,19.1-32.6,38.5-49.3,57.5l-12.4,14.4l-12.5,14.3l-12.5,14.3l-6.3,7.2l-6.3,7.1c-33.6,38.1-67.9,75.9-102.8,113.3
									s-70.2,74.8-106.1,112c-17.9,18.6-36,37.1-54.2,55.7c-9.2,9.2-18.4,18.4-27.4,27.7l-27.6,27.7
									c-36.9,37-74.4,73.6-112.2,110.5c-4.8,4.6-9.5,9.2-14.2,13.8s-9.5,9.2-14.2,13.8c-4.8,4.6-9.5,9.2-14.3,13.9l-14.3,13.8
									c-4.8,4.6-9.5,9.4-14.3,14l-7.2,6.9l-7.1,7c-9.5,9.5-19.2,18.6-28.7,28.2l0,0c-0.7,0.8-0.7,2,0.1,2.7
									c0.5,0.5,1.1,0.6,1.8,0.5c6.5-1.8,13-3.6,19.4-5.5s12.9-3.8,19.3-5.7l9.7-2.9l9.6-3c6.4-2,12.8-4.1,19.2-6.1
									c12.7-4.2,25.5-8.4,38.2-12.8s25.4-8.8,38-13.4c50.5-18.2,100.4-38.3,149.9-59.6l37-16.3c12.3-5.5,24.5-11.2,36.7-16.8
									l36.6-17.3c6.1-2.9,12.1-5.9,18.2-8.9l18.2-9c48.3-24.1,96.1-49.6,143.2-76.3c94.6-53.7,186.4-112,275.1-174.9
									c11.1-7.9,22.2-15.9,33.2-23.9l8.3-6l8.3-6.1l16.5-12.2l16.4-12.3l16.3-12.5c10.8-8.3,21.7-16.6,32.4-25.1l32.1-25.6
									c5.4-4.2,10.6-8.6,15.9-13l15.9-13c5.3-4.4,10.6-8.7,15.9-13.1l15.7-13.3l15.7-13.3c5.2-4.5,10.5-8.9,15.6-13.4l30.9-27.2
									l7.7-6.8l7.6-6.9l15.2-13.9l15.2-13.9c5.1-4.6,10.1-9.4,15.1-14l30-28.3c10-9.7,20-19.5,29.9-29.4s20-19.6,29.7-29.7
									l29.3-30.3l7.3-7.6l7.2-7.7l14.3-15.5l14.3-15.5l7.1-7.8c2.4-2.6,4.7-5.3,7-7.9l27.9-31.8l7-8c2.3-2.7,4.6-5.4,6.8-8.1
									l13.6-16.2l13.6-16.2c2.3-2.8,4.6-5.4,6.8-8.2l6.6-8.3l26.5-33l3.3-4.1l3.2-4.2l6.4-8.4l12.8-16.8l12.8-16.8l12.5-17
									l12.5-17c4.2-5.7,8.4-11.4,12.4-17.1l24.3-34.4l3-4.3l3-4.3l5.9-8.6l11.8-17.3l5.9-8.7c2-2.9,3.9-5.8,5.8-8.7l11.5-17.4
									c7.6-11.6,15.4-23.2,22.7-34.8l11.1-17.4c3.7-5.8,7.5-11.6,11-17.4l21.7-34.7l21.1-34.5l10.4-17.2l10.3-17.1
									c27.4-45.6,53.7-90.3,79.5-133.6s51-85,76.3-125c25.3-39.9,50.8-78.2,76.9-114.8l9.9-13.6l4.9-6.8l2.4-3.4
									c0.8-1.1,1.7-2.2,2.5-3.3c6.7-8.9,13.4-17.7,20-26.6c1.6-2.3,3.4-4.4,5.1-6.5l5.1-6.5l10.2-13l5.1-6.5
									c1.7-2.1,3.5-4.2,5.3-6.4l10.5-12.7l10.5-12.7l10.8-12.4l10.7-12.5l5.4-6.2l5.6-6.1l22.1-24.4l22.8-23.9l5.7-6l1.4-1.5
									c0.4-0.5,1-1.1,1.6-1.6l3.2-3.2l12.8-13l25.6-26c4.3-4.3,8.5-8.7,12.8-13l13-12.8c8.6-8.6,17.3-17.2,25.8-25.8
									c138.1-137.3,280.9-270.2,429-400.6l6.9-6.2l7-6.1l14-12.1l27.9-24.4l28.1-24.2l28.1-24.4l28.4-24.1l14.2-12.2l3.5-3l3.6-3
									l7.2-6l28.6-24.1l7.1-6.1c2.4-2,4.8-4,7.2-6l14.4-12c9.6-8,19.2-16.1,28.8-24.2c9.6-8.1,19.4-15.9,29-24l14.5-12.1
									c2.4-2,4.8-4.1,7.3-6.1l7.3-6l14.7-11.9l14.6-12.1l58.9-48.1c9.9-7.9,19.8-15.9,29.7-23.9l14.8-12.1l15-11.9
									c10-7.9,19.9-16.1,29.9-24.1l30.1-24l15.1-12.1c5.1-4,10.1-8,15.2-12l30.3-24.2c10.2-7.9,20.3-16.1,30.5-24.2
									c10.2-8.1,20.5-16,30.7-24.2s20.4-16.4,30.8-24.4l7.7-6l7.7-6.1l15.4-12.3c41.3-32.6,83-65.4,125-99s84.4-67.5,126.6-103.9
									c0.8-0.7,0.9-1.9,0.2-2.8C1614.8,2235.5,1614.3,2235.3,1613.8,2235.3z"/>
								<path class="st8" d="M4116.2,851.9l16.7,30.5c0.4,0.7,1,1.3,1.8,1.8l30.5,16.7c2.1,1.2,2.9,3.8,1.7,6
									c-0.4,0.7-1,1.3-1.7,1.7l-30.5,16.7c-0.7,0.4-1.4,1-1.8,1.8l-16.7,30.5c-1.2,2.1-3.8,2.9-6,1.8c-0.7-0.4-1.3-1-1.8-1.8
									l-16.6-30.5c-0.4-0.7-1-1.3-1.7-1.8l-30.5-16.7c-2.1-1.2-2.9-3.8-1.7-6c0.4-0.7,1-1.3,1.7-1.7l30.5-16.7
									c0.7-0.4,1.3-1,1.7-1.8l16.7-30.5c1.2-2.1,3.9-2.9,6-1.7C4115.2,850.6,4115.8,851.2,4116.2,851.9z"/>
								<path class="st8" d="M4461.1,2272.4l16.7,30.5c0.4,0.7,1,1.3,1.8,1.8l30.5,16.7c2.1,1.2,2.9,3.8,1.7,6
									c-0.4,0.7-1,1.3-1.7,1.7l-30.5,16.7c-0.7,0.4-1.4,1-1.8,1.8l-16.7,30.5c-1.2,2.1-3.8,2.9-6,1.8c-0.7-0.4-1.3-1-1.8-1.8
									l-16.6-30.5c-0.4-0.7-1-1.3-1.7-1.8l-30.5-16.7c-2.1-1.2-2.9-3.8-1.7-6c0.4-0.7,1-1.3,1.7-1.7l30.5-16.7
									c0.7-0.4,1.3-1,1.7-1.8l16.7-30.5c1.2-2.1,3.9-2.9,6-1.7C4460.2,2271.1,4460.7,2271.7,4461.1,2272.4z"/>
								<path class="st8" d="M803.9,4290.8l16.7,30.5c0.4,0.7,1,1.3,1.8,1.8l30.5,16.7c2.1,1.2,2.9,3.8,1.7,6
									c-0.4,0.7-1,1.3-1.7,1.7l-30.5,16.7c-0.7,0.4-1.4,1-1.8,1.8l-16.7,30.5c-1.2,2.1-3.8,2.9-6,1.8c-0.7-0.4-1.3-1-1.8-1.8
									l-16.6-30.5c-0.4-0.7-1-1.3-1.7-1.8l-30.5-16.7c-2.1-1.2-2.9-3.8-1.7-6c0.4-0.7,1-1.3,1.7-1.7l30.5-16.7
									c0.7-0.4,1.3-1,1.7-1.8l16.7-30.5c1.2-2.1,3.9-2.9,6-1.7C802.9,4289.5,803.5,4290.1,803.9,4290.8z"/>
								<path class="st8" d="M560.8,2186l16.7,30.5c0.4,0.7,1,1.3,1.8,1.8l30.5,16.7c2.1,1.2,2.9,3.8,1.7,6c-0.4,0.7-1,1.3-1.7,1.7
									l-30.5,16.7c-0.7,0.4-1.4,1-1.8,1.8l-16.7,30.5c-1.2,2.1-3.8,2.9-6,1.8c-0.7-0.4-1.3-1-1.8-1.8l-16.6-30.5
									c-0.4-0.7-1-1.3-1.7-1.8l-30.5-16.7c-2.1-1.2-2.9-3.8-1.7-6c0.4-0.7,1-1.3,1.7-1.7l30.5-16.7c0.7-0.4,1.3-1,1.7-1.8
									l16.7-30.5c1.2-2.1,3.9-2.9,6-1.7C559.8,2184.7,560.4,2185.3,560.8,2186z"/>
								<rect x="735.2" y="2443.4" class="st1" width="18.8" height="18.8"/>
								<circle class="st2" cx="744.6" cy="2452.8" r="9.4"/>
								<rect x="4381" y="146.4" class="st1" width="13.8" height="13.8"/>
								<circle class="st2" cx="4387.9" cy="153.3" r="6.9"/>
								<rect x="4289" y="2033.4" class="st1" width="10.4" height="10.4"/>
								<circle class="st2" cx="4294.2" cy="938.6" r="5.2"/>
								<rect x="472" y="1492.3" class="st1" width="20.6" height="20.6"/>
								<circle class="st2" cx="482.3" cy="1502.6" r="10.3"/>
								
									<linearGradient id="SVGID_8_" gradientUnits="userSpaceOnUse" x1="-1064.1163" y1="6518.4106" x2="757.3136" y2="7252.8706" gradientTransform="matrix(0.9175 0 0 -0.9175 345.2688 6913.2808)">
									<stop  offset="0" style="stop-color:#5793E1;stop-opacity:0"/>
									<stop  offset="0.2" style="stop-color:#72A4E6;stop-opacity:8.000000e-02"/>
									<stop  offset="0.61" style="stop-color:#B6D0F2;stop-opacity:0.28"/>
									<stop  offset="1" style="stop-color:#FFFFFF;stop-opacity:0.5"/>
								</linearGradient>
								<circle class="st9" cx="202.8" cy="596.4" r="788.2"/>
								<rect x="241.8" y="3095.5" class="st1" width="22.7" height="22.7"/>
								
									<ellipse transform="matrix(6.652071e-02 -0.9978 0.9978 6.652071e-02 -2863.8003 3152.541)" class="st2" cx="253" cy="3106.8" rx="11.3" ry="11.3"/>
								<rect x="4257.6" y="3985.3" class="st1" width="12.2" height="12.2"/>
								<circle class="st2" cx="4263.7" cy="3991.4" r="6.1"/>
								<rect x="3562.6" y="4339.8" class="st1" width="7.8" height="7.8"/>
								<circle class="st2" cx="3566.5" cy="4343.7" r="3.9"/>
								<rect x="1402.5" y="4151.2" class="st1" width="25.2" height="25.2"/>
								<circle class="st2" cx="1415.1" cy="4163.8" r="12.6"/>
								<rect x="4063.1" y="267.5" class="st1" width="11.3" height="11.3"/>
								<circle class="st2" cx="4068.8" cy="273.2" r="5.6"/>
								<rect x="1077.4" y="205.4" class="st1" width="30.6" height="30.6"/>
								<circle class="st2" cx="1092.7" cy="220.7" r="15.3"/>
								<rect x="4428.2" y="3091.4" class="st1" width="30.8" height="30.8"/>
								<circle class="st2" cx="4443.6" cy="2006.8" r="15.4"/>
								<rect x="153.7" y="1620.5" class="st1" width="19" height="19"/>
								<circle class="st2" cx="163.2" cy="1630" r="9.5"/>
								<rect x="4418.6" y="780.4" class="st1" width="20.1" height="20.1"/>
								<circle class="st2" cx="4428.6" cy="790.4" r="10"/>
							</g>
						</g>
					</g>
				</g>
			</g>
		</g>
	</g>
</g>
</svg>
