<svg width="21598" height="4550" viewBox="0 0 21598 4550" fill="none" xmlns="http://www.w3.org/2000/svg">
<g clip-path="url(#clip0_321_31)">
<path d="M10655 8084C29056 8084 43973 5558.89 43973 2444C43973 -670.886 29056 -3196 10655 -3196C-7746.02 -3196 -22663 -670.886 -22663 2444C-22663 5558.89 -7746.02 8084 10655 8084Z" fill="url(#paint0_linear_321_31)"/>
<g opacity="0.6">
<path d="M9394 3896.2C8701.2 3495.6 8701.2 2840.2 9394 2439.6C10086.8 2039 11221.5 2039 11915.5 2439.6C12609.5 2840.2 12609.5 3495.6 11915.5 3896.2C11221.5 4296.8 10086.8 4296.8 9394 3896.2Z" fill="#CCE8B8"/>
</g>
<path d="M9522.9 3559.5C8900.8 3199.9 8900.8 2611.4 9522.9 2251.7C10145 1892 11163.7 1892.1 11786.8 2251.7C12409.9 2611.3 12409.9 3199.8 11786.8 3559.5C11163.7 3919.2 10145 3919.2 9522.9 3559.5Z" fill="#CCE8B8"/>
<path d="M9656 3215.2C9107.1 2897.8 9107.1 2378.5 9656 2061.1C10204.9 1743.7 11104 1743.7 11653.8 2061.1C12203.6 2378.5 12203.6 2897.8 11653.8 3215.2C11104 3532.6 10205 3532.6 9656 3215.2Z" fill="#E4F2BB"/>
<path opacity="0.8" d="M11543.3 2086.3L11511.2 2073.7L11591.3 2027.2C11558.8 2010.6 11525.3 1994.9 11490.7 1980.3L11403 2031.3L11282.6 1984.1L11083.6 2014.8L10801.2 2094.6L10351.9 2271.4L10329.6 2453L10506.9 2603.7L10622 2621.8L10997.8 2741.5L11342.5 2794.9L11667.9 2352.1C11690.1 2316.4 11712.4 2280.7 11734.6 2245L11543.3 2086.3Z" fill="#717C66"/>
<path d="M10219.7 2014.1L10425.7 2133.2L10682.7 2162.4L11043.1 2014.1L10959.9 1835.8L10631.7 1776.6L10323 1835.8L10219.7 2014.1Z" fill="#E3EAE7"/>
<path d="M10604.3 1909.2L10620.2 1924.5L10668.6 1952.5L10695.2 1961.7L10923.3 1829.2L10785 1804.2L10604.3 1909.2Z" fill="#D0D6DA"/>
<path d="M10117 2311.5L10219.7 2014.1L10425.7 2133.2L10117 2311.5Z" fill="#CBD4CC"/>
<path d="M10014.4 2845.7L10117 2311.5L10425.7 2133.2L10682.7 2162.4L10940.4 2311.5L11043 2964.9L10631.7 3084L10528.3 3143.2L10219.7 3084L10014.4 2845.7Z" fill="#CBD4CC"/>
<path d="M11043 2251.6V2014.1L10682.7 2162.4L10940.4 2311.5L11043 2251.6Z" fill="#AEB9AB"/>
<path d="M11351.7 2786.5L11043 2014.1V2251.6L11351.7 2786.5Z" fill="#747E6D"/>
<path d="M11043 2964.9L11351.7 2786.5L11043 2251.6L10940.4 2311.5L11043 2964.9Z" fill="#96A18E"/>
<path d="M10528.3 3143.2L10682.7 2162.4L10631.7 3084L10528.3 3143.2Z" fill="#96A18E"/>
<path d="M10425.7 2133.2L10219.7 3084C10185.5 2826.5 10151.3 2569 10117.1 2311.6L10425.7 2133.2Z" fill="#AEB9AB"/>
<path d="M10695.5 1147.3H10567.4V1961.7L10597.3 1969.1H10665.4L10695.5 1961.7V1147.3Z" fill="#F1F8FD"/>
<path d="M10656 1514.4V1144.3H10606.9V1514.4L10631.4 1549.9L10656 1514.4Z" fill="white"/>
<path d="M10616.3 1501.7V1510.9L10631.4 1532.9L10646.6 1510.9V1501.7L10631.4 1479.7L10616.3 1501.7Z" fill="#B4ECF1"/>
<path d="M10661.7 762.9H10599.5V1069.3H10661.7V762.9Z" fill="#E4D8BD"/>
<path d="M10631 697L10574 762.9H10687.9L10631 697Z" fill="#F1E993"/>
<path d="M10935.4 1648.8C10940 1648.8 10943.8 1645.04 10943.8 1640.4C10943.8 1635.76 10940 1632 10935.4 1632C10930.8 1632 10927 1635.76 10927 1640.4C10927 1645.04 10930.8 1648.8 10935.4 1648.8Z" fill="#FBFAE4"/>
<path d="M10278.9 1625C10287.3 1625 10294.1 1618.19 10294.1 1609.8C10294.1 1601.4 10287.3 1594.6 10278.9 1594.6C10270.5 1594.6 10263.7 1601.4 10263.7 1609.8C10263.7 1618.19 10270.5 1625 10278.9 1625Z" fill="#FBFAE4"/>
<path d="M10985.9 1297.9C10989.4 1297.9 10992.3 1295.03 10992.3 1291.5C10992.3 1287.97 10989.4 1285.1 10985.9 1285.1C10982.4 1285.1 10979.5 1287.97 10979.5 1291.5C10979.5 1295.03 10982.4 1297.9 10985.9 1297.9Z" fill="#FBFAE4"/>
<path d="M10826.7 908.2C10834.8 908.2 10841.3 901.663 10841.3 893.6C10841.3 885.537 10834.8 879 10826.7 879C10818.6 879 10812.1 885.537 10812.1 893.6C10812.1 901.663 10818.6 908.2 10826.7 908.2Z" fill="#FBFAE4"/>
<path d="M10239.1 1881.3C10242 1881.3 10244.3 1878.97 10244.3 1876.1C10244.3 1873.23 10242 1870.9 10239.1 1870.9C10236.2 1870.9 10233.9 1873.23 10233.9 1876.1C10233.9 1878.97 10236.2 1881.3 10239.1 1881.3Z" fill="#FBFAE4"/>
<path d="M10449.3 2058.39C10450.3 2052.18 10446.1 2046.32 10439.9 2045.31C10433.6 2044.3 10427.8 2048.52 10426.8 2054.74C10425.8 2060.95 10430 2066.81 10436.2 2067.82C10442.4 2068.83 10448.3 2064.6 10449.3 2058.39Z" fill="#FBFAE4"/>
<path d="M11190.9 2001.1C11200.8 2001.1 11208.8 1993.09 11208.8 1983.2C11208.8 1973.31 11200.8 1965.3 11190.9 1965.3C11181 1965.3 11173 1973.31 11173 1983.2C11173 1993.09 11181 2001.1 11190.9 2001.1Z" fill="#FBFAE4"/>
<path d="M11328.7 2340.9C11330.2 2340.9 11331.4 2339.69 11331.4 2338.2C11331.4 2336.71 11330.2 2335.5 11328.7 2335.5C11327.2 2335.5 11326 2336.71 11326 2338.2C11326 2339.69 11327.2 2340.9 11328.7 2340.9Z" fill="#FBFAE4"/>
<path d="M9933 2378.7C9941.84 2378.7 9949 2371.54 9949 2362.7C9949 2353.86 9941.84 2346.7 9933 2346.7C9924.16 2346.7 9917 2353.86 9917 2362.7C9917 2371.54 9924.16 2378.7 9933 2378.7Z" fill="#FBFAE4"/>
<path d="M10269.7 1398.4C10274.7 1398.4 10278.7 1394.37 10278.7 1389.4C10278.7 1384.43 10274.7 1380.4 10269.7 1380.4C10264.7 1380.4 10260.7 1384.43 10260.7 1389.4C10260.7 1394.37 10264.7 1398.4 10269.7 1398.4Z" fill="#FBFAE4"/>
<path d="M10431.3 1030.63C10432.6 1022.51 10427.1 1014.86 10419 1013.54C10410.9 1012.22 10403.2 1017.74 10401.9 1025.86C10400.6 1033.98 10406.1 1041.64 10414.2 1042.95C10422.4 1044.27 10430 1038.76 10431.3 1030.63Z" fill="#FBFAE4"/>
<path d="M10841.2 1149.5L10818.8 1110.8H10746.4H10736.4H10733.4L10709.3 1069H10636H10626.9H10553.6L10529.5 1110.8H10526.5H10519.2H10444.1L10421.7 1149.5H10841.2Z" fill="#F1E993"/>
<path d="M8808.7 1736C9041.32 1736 9229.9 1547.42 9229.9 1314.8C9229.9 1082.18 9041.32 893.6 8808.7 893.6C8576.08 893.6 8387.5 1082.18 8387.5 1314.8C8387.5 1547.42 8576.08 1736 8808.7 1736Z" fill="url(#paint1_linear_321_31)"/>
<path opacity="0.6" d="M9343.8 1541.4C9361.3 1500.7 9315 1436.9 9226.1 1368.7C9225.5 1373.7 9224.8 1378.7 9224.2 1383.7C9223.6 1387.5 9222.9 1390.6 9222.3 1394.3C9221 1399.3 9220.4 1403.7 9219.2 1408.7C9258 1448.1 9275.5 1483.2 9264.9 1508.8C9235.5 1577.7 9007.7 1547 8756.1 1440C8504.5 1333 8323.1 1190.9 8352.5 1122.1C8363.1 1097.1 8400.7 1085.2 8455.8 1085.2C8458.3 1080.8 8461.4 1077.1 8463.9 1073.3C8465.8 1070.2 8468.3 1067.7 8470.2 1064.5C8473.3 1060.7 8476.5 1056.4 8479.6 1052.6C8368.8 1037 8291.2 1047.6 8273.7 1088.9C8239.3 1169.6 8451.4 1336.1 8746.8 1461.3C9042.2 1586.5 9310 1622.1 9343.8 1541.4Z" fill="url(#paint2_linear_321_31)"/>
<path d="M12577 1765.2C12784.4 1765.2 12952.6 1597.04 12952.6 1389.6C12952.6 1182.16 12784.4 1014 12577 1014C12369.6 1014 12201.4 1182.16 12201.4 1389.6C12201.4 1597.04 12369.6 1765.2 12577 1765.2Z" fill="url(#paint3_linear_321_31)"/>
<path opacity="0.6" d="M12915.2 1225.8C12917.2 1229.8 12918.9 1233.8 12920.9 1238C13000.2 1247.5 13051.4 1269.7 13057.3 1303.1C13070.3 1375.4 12866 1473 12600.9 1520.8C12335.8 1568.6 12109.8 1548.7 12096.8 1476.4C12090.8 1443 12131 1404.3 12201.8 1367.6C12202.1 1363.1 12202.3 1358.6 12202.8 1354.1C12112.3 1396.5 12059.6 1442.4 12066.6 1481.6C12080.6 1558.7 12320.3 1579.6 12602.1 1528.7C12883.9 1477.8 13100.9 1374.3 13087.2 1297.5C13080.3 1258.7 13014.7 1234 12915.2 1225.8Z" fill="url(#paint4_linear_321_31)"/>
<path opacity="0.3" d="M12921 1238C12922.3 1241 12923.5 1243.7 12924.7 1246.7C12990.3 1256.9 13032.2 1277.1 13037.4 1306.6C13049.9 1375.9 12854.1 1469.2 12599.9 1515.1C12345.7 1561 12129.5 1542 12117 1472.7C12111.8 1443.3 12143.7 1409.6 12201.8 1377.2C12201.8 1374 12202.1 1371 12202.3 1367.7C12131.2 1404.4 12091.3 1443 12097.3 1476.5C12110.3 1548.8 12336 1568.8 12601.1 1520.9C12866.2 1473 13070.7 1375.5 13057.8 1303.2C13051.1 1269.7 13000 1247.7 12921 1238Z" fill="url(#paint5_linear_321_31)"/>
<path opacity="0.6" d="M12924.7 1246.7C12926.5 1250.7 12928 1254.7 12929.4 1258.9C12977.8 1269.4 13008 1287.1 13012.5 1311C13024.2 1376.6 12839.1 1464.9 12598.7 1508.3C12358.3 1551.7 12153.7 1533.7 12142 1468.1C12137.8 1444.1 12159.7 1417 12201.4 1390.3C12201.4 1385.8 12201.4 1381.6 12201.7 1377.3C12143.8 1409.7 12111.7 1443.4 12116.9 1472.8C12129.4 1542.1 12345.6 1561.1 12599.8 1515.2C12854 1469.3 13050 1376 13037.3 1306.9C13032 1277.4 12990.3 1256.9 12924.7 1246.7Z" fill="url(#paint6_linear_321_31)"/>
<path d="M11452.5 1116.4C11647.8 1116.4 11805.7 958.1 11805.7 762.8C11805.7 567.5 11647.4 409.6 11452.1 409.6C11257.2 409.6 11098.9 567.9 11098.9 762.8C11099.3 958.1 11257.6 1116.4 11452.5 1116.4Z" fill="url(#paint7_linear_321_31)"/>
<path d="M11832.9 771.9C11824.2 767.6 11815.6 762.9 11806.1 758.5V773.1C11813.2 776.6 11819.9 780.2 11826.6 783.7C11910.1 827.8 11955.7 871.1 11948.3 899.1C11940.9 927.1 11880.2 942.4 11785.7 940.1C11685.3 938.1 11556.9 917.6 11423.1 882.6C11126.6 805.4 10942.7 695.2 10956.9 640.5C10963.6 614.1 11017.1 599.1 11103.8 599.1C11115.2 599.1 11127 599.1 11139.6 599.9C11142 596 11142.4 590.8 11145.1 587.7C11035.2 582.2 10955.3 596 10944.7 637.3C10924.2 715.7 11170.3 830.2 11420.3 895.2C11554.9 930.2 11684.5 950.7 11786.1 953.1H11803.4C11873.1 953.1 11950.7 943.6 11961.3 901.9C11972.7 856.9 11897.8 806.5 11832.9 771.9Z" fill="url(#paint8_linear_321_31)"/>
</g>
<defs>
<linearGradient id="paint0_linear_321_31" x1="10654.4" y1="8084" x2="10654.4" y2="-3196" gradientUnits="userSpaceOnUse">
<stop offset="0.3" stop-color="#49BFAA"/>
<stop offset="0.66" stop-color="#54ABAE"/>
<stop offset="1" stop-color="#6194B2"/>
</linearGradient>
<linearGradient id="paint1_linear_321_31" x1="8964.87" y1="1700.92" x2="8649.25" y2="920.789" gradientUnits="userSpaceOnUse">
<stop stop-color="#ECB7A0"/>
<stop offset="0.61" stop-color="#F3DF93"/>
<stop offset="1" stop-color="#F6F38D"/>
</linearGradient>
<linearGradient id="paint2_linear_321_31" x1="8759.1" y1="1465.83" x2="8857.08" y2="1168.24" gradientUnits="userSpaceOnUse">
<stop stop-color="#ECB7A0"/>
<stop offset="0.32" stop-color="#ECA88A"/>
<stop offset="0.34" stop-color="#ECAB8A"/>
<stop offset="0.78" stop-color="#F3DF8C"/>
<stop offset="1" stop-color="#F6F38D"/>
</linearGradient>
<linearGradient id="paint3_linear_321_31" x1="12885.5" y1="1603.82" x2="12268.4" y2="1175.38" gradientUnits="userSpaceOnUse">
<stop stop-color="#454DBF"/>
<stop offset="1" stop-color="#9BE8D2"/>
</linearGradient>
<linearGradient id="paint4_linear_321_31" x1="12768.5" y1="1715.83" x2="12383" y2="1059.47" gradientUnits="userSpaceOnUse">
<stop stop-color="#454DBF"/>
<stop offset="1" stop-color="#9BE8D2"/>
</linearGradient>
<linearGradient id="paint5_linear_321_31" x1="12683.7" y1="1570.72" x2="12471.1" y2="1208.84" gradientUnits="userSpaceOnUse">
<stop stop-color="#454DBF"/>
<stop offset="1" stop-color="#9BE8D2"/>
</linearGradient>
<linearGradient id="paint6_linear_321_31" x1="12650.7" y1="1546.02" x2="12504" y2="1234.82" gradientUnits="userSpaceOnUse">
<stop stop-color="#454DBF"/>
<stop offset="1" stop-color="#9BE8D2"/>
</linearGradient>
<linearGradient id="paint7_linear_321_31" x1="11702.3" y1="1012.88" x2="11202.6" y2="512.92" gradientUnits="userSpaceOnUse">
<stop stop-color="#49BFAA"/>
<stop offset="1" stop-color="#CCE8B8"/>
</linearGradient>
<linearGradient id="paint8_linear_321_31" x1="11452.9" y1="953.1" x2="11452.9" y2="586.547" gradientUnits="userSpaceOnUse">
<stop stop-color="#49BFAA"/>
<stop offset="1" stop-color="#CCE8B8" stop-opacity="0"/>
</linearGradient>
<clipPath id="clip0_321_31">
<rect width="21598" height="4550" fill="white"/>
</clipPath>
</defs>
</svg>
