<?xml version="1.0" encoding="utf-8"?>
<!-- Generator: Adobe Illustrator 23.0.6, SVG Export Plug-In . SVG Version: 6.00 Build 0)  -->
<svg version="1.1" id="Calque_1" xmlns="http://www.w3.org/2000/svg" xmlns:xlink="http://www.w3.org/1999/xlink" x="0px" y="0px"
	 viewBox="0 0 4995.6 2190.9" style="enable-background:new 0 0 4995.6 2190.9;" xml:space="preserve">
<style type="text/css">
	.st0{clip-path:url(#SVGID_2_);}
	.st1{fill:#1B9E7C;}
	.st2{fill:#0D4B63;}
	.st3{fill:#637714;}
	.st4{fill:#3FD3D1;}
	.st5{fill:#196F84;}
	.st6{fill:#1C466B;}
	.st7{fill:#717753;}
	.st8{fill:#9BAAAE;}
	.st9{fill:#7F8D90;}
	.st10{fill:#738286;}
	.st11{fill:url(#SVGID_3_);}
	.st12{fill:#CDAC96;}
	.st13{fill:#E0D2C0;stroke:#A99F95;stroke-miterlimit:10;}
	.st14{fill:none;stroke:#A99F95;stroke-width:0.5;stroke-miterlimit:10;}
	.st15{fill:#E7D5C2;stroke:#A99F95;stroke-miterlimit:10;}
	.st16{fill:#644031;}
	.st17{fill:#DABEA1;}
	.st18{fill:#E6D3B6;}
	.st19{fill:#CC9A80;}
	.st20{fill:#433333;}
</style>
<title>about_jumbotron_foregroundFichier 4</title>
<g>
	<g id="Calque_2-2">
		<g>
			<g>
				<g>
					<defs>
						<rect id="SVGID_1_" width="5001" height="2824"/>
					</defs>
					<clipPath id="SVGID_2_">
						<use xlink:href="#SVGID_1_"  style="overflow:visible;"/>
					</clipPath>
					<g class="st0">
						<path class="st1" d="M2,388c733,359.8,1384.2,509,1830,577c424,64.6,953.2,140.8,1630,20c700.6-125,1225.5-401.5,1540-600
							c-0.3,813-0.7,1626-1,2439H2V388z"/>
						<path class="st2" d="M4443.6,779c0.5,0.3,0.9,0.6,1.4,1l-70.6,125.1c-0.6,1.2-1.2,2.4-2,3.6c-0.4,0.6-0.9,1.2-1.4,1.8
							c-0.3,0.4-0.7,0.8-1.1,1.1c-1,0.9-1.4,1.3-1.8,1.6c-0.9,0.7-1.8,1.4-2.7,2c-0.5,0.3-1,0.6-1.5,0.9c-2.2,1.3-4.5,2.3-6.9,3.1
							c-1.3,0.5-2.6,0.9-3.9,1.3s-2.8,0.7-4.3,1c-2.2,0.5-4.5,0.8-7,1.1l-12.5,21.2c-0.4,0.9-0.7,1.4-1,1.9
							c-2.9,5.2-7.9,9.5-14.8,12.7c-0.7,0.3-1.3,0.6-2,0.9s-1.4,0.5-2.1,0.8s-1.5,0.5-2.2,0.8s-1.5,0.5-2.3,0.7
							c-2,0.5-2.8,0.7-3.6,0.9c-5.4,1.1-11,1.8-16.5,2c-1,0-2,0.1-3.1,0.1l-2.8,4.7l-13.7,23.2c-2.7,5.9-7.2,10.5-13.4,14.1
							c-0.7,0.4-1.4,0.8-2.1,1.1s-1.3,0.7-2,1s-1.7,0.8-2.5,1.1c-13.8,5.6-33.5,7.4-57.3,4.4c-2-0.2-4-0.5-6.1-0.8
							c-1-0.1-1.9-0.3-2.9-0.5l-2.9-0.5l-2.9-0.5l-2.9-0.6l-2.9-0.6l-2.9-0.7l-2.9-0.7l-2.9-0.7l-2.9-0.8l-2.9-0.8l-2.9-0.8
							l-2.9-0.9l-2.8-0.9l-2.8-0.9l-2.8-1l-2.8-1l-2.8-1l-2.8-1l-2.8-1.1c-6.5-2.6-12.8-5.4-18.9-8.4l-47.7,27.7
							c-2,1.4-5.6,1.9-10.2,1.2c-4.4-0.7-8.6-2.2-12.4-4.4c-3.6-2.1-6.5-4.7-7.6-7.2c-1.2-2.7-0.4-4.8,2-5.9l47.7-27.7
							c-19.2-13-33.8-27.7-40.6-42.2c-10.8-23.1,0.9-40.2,27.2-46.7c2.5-0.6,4.7-1,7-1.4l41.5-8.3l8-1.6c0.6-12.7,10.8-21.9,28-26.1
							c2.3-0.5,4.2-0.9,6.3-1.3l30.7-6.1l7.4-1.5c2.7-8.4,11-14.5,23.5-17.5c2-0.5,3.7-0.8,5.4-1.1l209.9-42
							C4437.7,777.2,4440.9,777.6,4443.6,779z"/>
						<path class="st3" d="M4070.2,1008v-75h-39.8v75c-0.3,3.1,1.7,6.3,5.8,8.7c7.8,4.5,20.5,4.5,28.2,0
							C4068.5,1014.3,4070.4,1011.2,4070.2,1008z"/>
						<path class="st4" d="M4183.8,832.7l-123.6-253.9c-2.7-5.5-9.2-7.7-14.7-5.1c-2.2,1.1-4,2.9-5.1,5.1L3916,834.4
							c-1.1,2-2.1,4.1-3,6.2l-0.2,0.5l0,0c-10.8,26.6,1.8,55.8,37.5,76.4c55,31.7,145,31.6,200-0.1c39.1-22.6,50.4-55.4,33.9-83.8
							C4184,833.2,4183.9,833,4183.8,832.7z"/>
						<path class="st4" d="M4183.8,832.7l-123.6-253.9c-2.7-5.5-9.2-7.7-14.7-5.1c-2.2,1.1-4,2.9-5.1,5.1L3916,834.4
							c-1.1,2-2.1,4.1-3,6.2l-0.2,0.5l0,0c-10.8,26.6,1.8,55.8,37.5,76.4c55,31.7,145,31.6,200-0.1c39.1-22.6,50.4-55.4,33.9-83.8
							C4184,833.2,4183.9,833,4183.8,832.7z"/>
						<path class="st5" d="M4183.8,832.7l-123.6-253.9c-1.8-3.8-5.7-6.3-10-6.2v368.5c36.3,0,72.6-8,100.1-23.9
							c39.1-22.6,50.4-55.4,33.9-83.8C4184,833.2,4183.9,833,4183.8,832.7z"/>
						<path class="st6" d="M4165.2,794.7l-105.1-215.9c-2.7-5.5-9.2-7.7-14.7-5.1c-2.2,1.1-4,2.9-5.1,5.1l-105.1,216
							c6.1,7.6,14.5,14.8,25.4,21c49.3,28.4,130,28.4,179.3-0.1C4150.7,809.4,4159.2,802.3,4165.2,794.7z"/>
						<path class="st4" d="M4170,727.9l-110.9-227.7c-2.4-4.9-8.3-6.9-13.2-4.5c-2,1-3.6,2.6-4.5,4.5l-111.6,229.2
							c-1,1.8-1.9,3.7-2.7,5.6l-0.2,0.4l0,0c-9.6,23.9,1.6,50,33.6,68.5c49.3,28.4,130,28.4,179.3-0.1
							c35.1-20.3,45.2-49.7,30.4-75.2L4170,727.9z"/>
						<path class="st5" d="M4170,727.9l-110.9-227.7c-1.7-3.5-5.2-5.6-9-5.5v330.5c32.5,0,65.1-7.2,89.8-21.4
							c35.1-20.3,45.2-49.7,30.4-75.2L4170,727.9z"/>
						<path class="st6" d="M4156.4,700.1l-97.3-199.9c-2.4-4.9-8.3-6.9-13.2-4.5c-2,1-3.6,2.6-4.5,4.5l-97.3,200
							c5.3,9.3,14.3,18,27,25.3c43.6,25.1,114.8,25,158.4-0.1C4142.1,718,4151.1,709.3,4156.4,700.1z"/>
						<path class="st4" d="M4154.7,648.6L4058,450c-2.1-4.3-7.2-6-11.5-4c-1.7,0.8-3.1,2.2-4,4l-97.3,199.9
							c-0.9,1.6-1.7,3.2-2.4,4.8l-0.2,0.3l0,0c-8.4,20.8,1.4,43.6,29.3,59.8c43,24.8,113.4,24.8,156.4-0.1
							c30.6-17.7,39.4-43.3,26.5-65.6C4154.9,649,4154.8,648.8,4154.7,648.6z"/>
						<path class="st5" d="M4154.7,648.6L4058,450c-1.4-3-4.5-4.9-7.9-4.8v288.2c28.4,0,56.8-6.2,78.4-18.7
							c30.6-17.7,39.4-43.3,26.5-65.6C4154.9,649,4154.8,648.8,4154.7,648.6z"/>
						<path class="st2" d="M4917.6,767c0.5,0.3,0.9,0.6,1.4,1l-70.6,125.1c-0.6,1.2-1.2,2.4-2,3.6c-0.4,0.6-0.9,1.2-1.4,1.8
							c-0.3,0.4-0.7,0.8-1.1,1.1c-1,0.9-1.4,1.3-1.8,1.6c-0.9,0.7-1.8,1.4-2.7,2c-0.5,0.3-1,0.6-1.5,0.9c-2.2,1.3-4.5,2.3-6.9,3.1
							c-1.3,0.5-2.6,0.9-3.9,1.3s-2.8,0.7-4.3,1c-2.2,0.5-4.5,0.8-7,1.1l-12.5,21.2c-0.4,0.9-0.7,1.4-1,1.9
							c-2.9,5.2-7.9,9.5-14.8,12.7c-0.7,0.3-1.3,0.6-2,0.9s-1.4,0.5-2.1,0.8s-1.5,0.5-2.2,0.8s-1.5,0.5-2.3,0.7
							c-2,0.5-2.8,0.7-3.6,0.9c-5.4,1.1-11,1.8-16.5,2c-1,0-2,0.1-3.1,0.1l-2.8,4.7l-13.7,23.2c-2.7,5.9-7.2,10.5-13.4,14.1
							c-0.7,0.4-1.4,0.8-2.1,1.1s-1.3,0.7-2,1s-1.7,0.8-2.5,1.1c-13.8,5.6-33.5,7.4-57.3,4.4c-2-0.2-4-0.5-6.1-0.8
							c-1-0.1-1.9-0.3-2.9-0.5l-2.9-0.5l-2.9-0.5l-2.9-0.6l-2.9-0.6l-2.9-0.7l-2.9-0.7l-2.9-0.7l-2.9-0.8l-2.9-0.8l-2.9-0.8
							l-2.9-0.9l-2.8-0.9l-2.8-0.9l-2.8-1l-2.8-1l-2.8-1l-2.8-1l-2.8-1.1c-6.5-2.6-12.8-5.4-18.9-8.4l-47.7,27.7
							c-2,1.4-5.6,1.9-10.2,1.2c-4.4-0.7-8.6-2.2-12.4-4.4c-3.6-2.1-6.5-4.7-7.6-7.2c-1.2-2.7-0.4-4.8,2-5.9l47.7-27.7
							c-19.2-13-33.8-27.7-40.6-42.2c-10.8-23.1,0.9-40.2,27.2-46.7c2.5-0.6,4.7-1,7-1.4l41.5-8.3l8-1.6c0.6-12.7,10.8-21.9,28-26.1
							c2.3-0.5,4.2-0.9,6.3-1.3l30.7-6.1l7.4-1.5c2.7-8.4,11-14.5,23.5-17.5c2-0.5,3.7-0.8,5.4-1.1l209.9-42
							C4911.7,765.2,4914.9,765.6,4917.6,767z"/>
						<path class="st3" d="M4544.2,996v-75h-39.8v75c-0.3,3.1,1.7,6.3,5.8,8.7c7.8,4.5,20.5,4.5,28.2,0
							C4542.5,1002.3,4544.4,999.2,4544.2,996z"/>
						<path class="st4" d="M4657.8,820.7l-123.6-253.9c-2.7-5.5-9.2-7.7-14.7-5.1c-2.2,1.1-4,2.9-5.1,5.1L4390,822.4
							c-1.1,2-2.1,4.1-3,6.2l-0.2,0.5l0,0c-10.8,26.6,1.8,55.8,37.5,76.4c55,31.7,145,31.6,200-0.1c39.1-22.6,50.4-55.4,33.9-83.8
							C4658,821.2,4657.9,821,4657.8,820.7z"/>
						<path class="st4" d="M4657.8,820.7l-123.6-253.9c-2.7-5.5-9.2-7.7-14.7-5.1c-2.2,1.1-4,2.9-5.1,5.1L4390,822.4
							c-1.1,2-2.1,4.1-3,6.2l-0.2,0.5l0,0c-10.8,26.6,1.8,55.8,37.5,76.4c55,31.7,145,31.6,200-0.1c39.1-22.6,50.4-55.4,33.9-83.8
							C4658,821.2,4657.9,821,4657.8,820.7z"/>
						<path class="st5" d="M4657.8,820.7l-123.6-253.9c-1.8-3.8-5.7-6.3-10-6.2v368.5c36.3,0,72.6-8,100.1-23.9
							c39.1-22.6,50.4-55.4,33.9-83.8C4658,821.2,4657.9,821,4657.8,820.7z"/>
						<path class="st6" d="M4639.2,782.7l-105.1-215.9c-2.7-5.5-9.2-7.7-14.7-5.1c-2.2,1.1-4,2.9-5.1,5.1l-105.1,216
							c6.1,7.6,14.5,14.8,25.4,21c49.3,28.4,130,28.4,179.3-0.1C4624.7,797.4,4633.2,790.3,4639.2,782.7z"/>
						<path class="st4" d="M4644,715.9l-110.9-227.7c-2.4-4.9-8.3-6.9-13.2-4.5c-2,1-3.6,2.6-4.5,4.5l-111.6,229.2
							c-1,1.8-1.9,3.7-2.7,5.6l-0.2,0.4l0,0c-9.6,23.9,1.6,50,33.6,68.5c49.3,28.4,130,28.4,179.3-0.1
							c35.1-20.3,45.2-49.7,30.4-75.2L4644,715.9z"/>
						<path class="st5" d="M4644,715.9l-110.9-227.7c-1.7-3.5-5.2-5.6-9-5.5v330.5c32.5,0,65.1-7.2,89.8-21.4
							c35.1-20.3,45.2-49.7,30.4-75.2L4644,715.9z"/>
						<path class="st6" d="M4630.4,688.1l-97.3-199.9c-2.4-4.9-8.3-6.9-13.2-4.5c-2,1-3.6,2.6-4.5,4.5l-97.3,200
							c5.3,9.3,14.3,18,27,25.3c43.6,25.1,114.8,25,158.4-0.1C4616.1,706,4625.1,697.3,4630.4,688.1z"/>
						<path class="st4" d="M4628.7,636.6L4532,438c-2.1-4.3-7.2-6-11.5-4c-1.7,0.8-3.1,2.2-4,4l-97.3,199.9
							c-0.9,1.6-1.7,3.2-2.4,4.8l-0.2,0.3l0,0c-8.4,20.8,1.4,43.6,29.3,59.8c43,24.8,113.4,24.8,156.4-0.1
							c30.6-17.7,39.4-43.3,26.5-65.6C4628.9,637,4628.8,636.8,4628.7,636.6z"/>
						<path class="st5" d="M4628.7,636.6L4532,438c-1.4-3-4.5-4.9-7.9-4.8v288.2c28.4,0,56.8-6.2,78.4-18.7
							c30.6-17.7,39.4-43.3,26.5-65.6C4628.9,637,4628.8,636.8,4628.7,636.6z"/>
						<path class="st2" d="M4707.6,905c0.5,0.3,0.9,0.6,1.4,1l-70.6,125.1c-0.6,1.2-1.2,2.4-2,3.6c-0.4,0.6-0.9,1.2-1.4,1.8
							c-0.3,0.4-0.7,0.8-1.1,1.1c-1,0.9-1.4,1.3-1.8,1.6c-0.9,0.7-1.8,1.4-2.7,2c-0.5,0.3-1,0.6-1.5,0.9c-2.2,1.3-4.5,2.3-6.9,3.1
							c-1.3,0.5-2.6,0.9-3.9,1.3s-2.8,0.7-4.3,1c-2.2,0.4-4.5,0.8-7,1.1l-12.5,21.2c-0.4,0.9-0.7,1.4-1,1.9
							c-2.9,5.2-7.9,9.5-14.8,12.7c-0.7,0.3-1.3,0.6-2,0.9s-1.4,0.6-2.1,0.8s-1.5,0.5-2.2,0.8s-1.5,0.5-2.3,0.7
							c-2,0.5-2.8,0.7-3.6,0.9c-5.4,1.1-11,1.8-16.5,2c-1,0-2,0.1-3.1,0.1l-2.8,4.7l-13.7,23.2c-2.7,5.9-7.2,10.5-13.4,14.1
							c-0.7,0.4-1.4,0.8-2.1,1.1s-1.3,0.7-2,1s-1.7,0.8-2.5,1.1c-13.8,5.6-33.5,7.4-57.3,4.4c-2-0.2-4-0.5-6.1-0.8
							c-1-0.1-1.9-0.3-2.9-0.5l-2.9-0.5l-2.9-0.5l-2.9-0.6l-2.9-0.6l-2.9-0.7l-2.9-0.7l-2.9-0.7l-2.9-0.8l-2.9-0.8l-2.9-0.8
							l-2.9-0.9l-2.8-0.9l-2.8-0.9l-2.8-1l-2.8-1l-2.8-1l-2.8-1l-2.8-1.1c-6.5-2.6-12.8-5.4-18.9-8.4l-47.7,27.7
							c-2,1.4-5.6,1.9-10.2,1.2c-4.4-0.7-8.6-2.2-12.4-4.4c-3.6-2.1-6.5-4.7-7.6-7.2c-1.2-2.7-0.4-4.8,2-5.9l47.7-27.7
							c-19.2-13-33.8-27.7-40.6-42.2c-10.8-23.1,0.9-40.2,27.2-46.7c2.5-0.6,4.7-1,7-1.4l41.5-8.3l8-1.6c0.6-12.7,10.8-21.9,28-26.1
							c2.3-0.5,4.2-0.9,6.3-1.3l30.7-6.1l7.4-1.5c2.7-8.4,11-14.5,23.5-17.5c2-0.5,3.7-0.8,5.4-1.1l209.9-42
							C4701.7,903.2,4704.9,903.6,4707.6,905z"/>
						<path class="st3" d="M4334.2,1134v-75h-39.8v75c-0.3,3.1,1.7,6.3,5.8,8.7c7.8,4.5,20.5,4.5,28.2,0
							C4332.5,1140.3,4334.4,1137.2,4334.2,1134z"/>
						<path class="st4" d="M4447.8,958.7l-123.6-253.9c-2.7-5.5-9.2-7.7-14.7-5.1c-2.2,1.1-4,2.9-5.1,5.1L4180,960.4
							c-1.1,2-2.1,4.1-3,6.2l-0.2,0.5l0,0c-10.8,26.6,1.8,55.8,37.5,76.4c55,31.7,145,31.6,200-0.1c39.1-22.6,50.4-55.4,33.9-83.8
							C4448,959.2,4447.9,959,4447.8,958.7z"/>
						<path class="st4" d="M4447.8,958.7l-123.6-253.9c-2.7-5.5-9.2-7.7-14.7-5.1c-2.2,1.1-4,2.9-5.1,5.1L4180,960.4
							c-1.1,2-2.1,4.1-3,6.2l-0.2,0.5l0,0c-10.8,26.6,1.8,55.8,37.5,76.4c55,31.7,145,31.6,200-0.1c39.1-22.6,50.4-55.4,33.9-83.8
							C4448,959.2,4447.9,959,4447.8,958.7z"/>
						<path class="st5" d="M4447.8,958.7l-123.6-253.9c-1.8-3.8-5.7-6.3-10-6.2v368.5c36.3,0,72.6-8,100.1-23.9
							c39.1-22.6,50.4-55.4,33.9-83.8C4448,959.2,4447.9,959,4447.8,958.7z"/>
						<path class="st6" d="M4429.2,920.7l-105.1-215.9c-2.7-5.5-9.2-7.7-14.7-5.1c-2.2,1.1-4,2.9-5.1,5.1l-105.1,216
							c6.1,7.6,14.5,14.8,25.4,21c49.3,28.4,130,28.4,179.3-0.1C4414.7,935.4,4423.2,928.3,4429.2,920.7z"/>
						<path class="st4" d="M4434,853.9l-110.9-227.7c-2.4-4.9-8.3-6.9-13.2-4.5c-2,1-3.6,2.6-4.5,4.5l-111.6,229.2
							c-1,1.8-1.9,3.7-2.7,5.6l-0.2,0.4l0,0c-9.6,23.9,1.6,50,33.6,68.5c49.3,28.4,130,28.4,179.3-0.1
							c35.1-20.3,45.2-49.7,30.4-75.2L4434,853.9z"/>
						<path class="st5" d="M4434,853.9l-110.9-227.7c-1.7-3.5-5.2-5.6-9-5.5v330.5c32.5,0,65.1-7.2,89.8-21.4
							c35.1-20.3,45.2-49.7,30.4-75.2L4434,853.9z"/>
						<path class="st6" d="M4420.4,826.1l-97.3-199.9c-2.4-4.9-8.3-6.9-13.2-4.5c-2,1-3.6,2.6-4.5,4.5l-97.3,200
							c5.3,9.3,14.3,18,27,25.3c43.6,25.1,114.8,25,158.4-0.1C4406.1,844,4415.1,835.3,4420.4,826.1z"/>
						<path class="st4" d="M4418.7,774.6L4322,576c-2.1-4.3-7.2-6-11.5-4c-1.7,0.8-3.1,2.2-4,4l-97.3,199.9
							c-0.9,1.6-1.7,3.2-2.4,4.8l-0.2,0.3l0,0c-8.4,20.8,1.4,43.6,29.3,59.8c43,24.8,113.4,24.8,156.4-0.1
							c30.6-17.7,39.4-43.3,26.5-65.6C4418.9,775,4418.8,774.8,4418.7,774.6z"/>
						<path class="st5" d="M4418.7,774.6L4322,576c-1.4-3-4.5-4.9-7.9-4.8v288.2c28.4,0,56.8-6.2,78.4-18.7
							c30.6-17.7,39.4-43.3,26.5-65.6C4418.9,775,4418.8,774.8,4418.7,774.6z"/>
						<path class="st7" d="M4796,405l-69,139l-119,69l-87,209l-137,39l-207,318v317l138,238l219,129l193-50l275,177V385L4796,405z"
							/>
						<path class="st8" d="M4534,1863l153-468l315,104c-91.7,104.7-183.3,209.3-275,314L4534,1863z"/>
						<polygon class="st8" points="4727,544 4906,642 4846,750 4608,613 						"/>
						<polygon class="st8" points="4796,401 5002,583.1 5002,382 						"/>
						<polygon class="st8" points="4906,642 5002,586 5002,673.4 						"/>
						<polygon class="st8" points="4846,750 4823,859 5002,895.3 						"/>
						<path class="st9" d="M4823,859c-45.3,178.7-90.7,357.3-136,536c12.5,130.8,25,261.5,37.5,392.3c0.4,8.6,1.2,17.2,2.5,25.7
							l275,177V895L4823,859z"/>
						<path class="st10" d="M4844,750c-64.2,149.6-128.5,299.3-192.7,449c0.6,34.3,1.2,68.7,1.7,103c11.3,31,22.7,62,34,93l136-536
							L4844,750z"/>
						<polygon class="st9" points="4608,613 4521,823 4651,1197 4844,750 						"/>
						<polygon class="st8" points="4521,823 4651,1197 4177,1179 4384,859 						"/>
						<path class="st8" d="M4687,1395l-372,339l-138-235l476-196C4664.3,1333.7,4675.7,1364.3,4687,1395z"/>
						<polygon class="st9" points="4906,642 4844,750 5002,895 5002,673 						"/>
						<polygon class="st9" points="4796,404 4727,544 4906,642 5002,586 						"/>
						<polygon class="st9" points="4687,1395 4534,1863 4315,1734 						"/>
						<polygon class="st9" points="4651,1197 4651,1303 4177,1499 4177,1179 						"/>
						<path class="st2" d="M968.3,1492l253.2-372.3l-83.7-177.3l50.3-111c-163-43-337.7-96-521.4-161.9L468,734
							C314.2,909.7,160.5,1085.3,6.7,1261l389.5,224.9L968.3,1492z"/>
						<path class="st8" d="M0,299l274,158L0,616V299z"/>
						<polygon class="st10" points="274,457 412,695 0,933 0,616 						"/>
						<polygon class="st8" points="412,695 0,933 412,1012 687,853 						"/>
						<polygon class="st9" points="412,1012 549,1885 0,1885 0,933 						"/>
						<path class="st10" d="M687,853c91.3,211.7,182.7,423.3,274,635l-412,397l-137-873L687,853z"/>
						<path class="st2" d="M1396.7,1454.7c0.5,0.3,0.9,0.6,1.3,1l-70.1,124.1c-0.6,1.2-1.2,2.4-2,3.6c-0.4,0.6-0.9,1.2-1.4,1.8
							c-0.3,0.4-0.7,0.8-1.1,1.1c-1,0.9-1.3,1.3-1.8,1.6c-0.9,0.7-1.8,1.4-2.7,2c-0.5,0.3-1,0.6-1.5,0.9c-2.2,1.2-4.4,2.3-6.8,3.1
							c-1.3,0.4-2.6,0.9-3.9,1.2s-2.8,0.7-4.2,1c-2.2,0.4-4.5,0.8-6.9,1.1l-12.4,21.1c-0.4,0.9-0.7,1.4-1,1.9
							c-2.8,5.2-7.9,9.5-14.7,12.6c-0.7,0.3-1.3,0.6-2,0.9s-1.4,0.6-2.1,0.8s-1.4,0.5-2.2,0.7s-1.5,0.5-2.3,0.7
							c-2,0.5-2.8,0.7-3.6,0.9c-5.4,1.1-10.9,1.8-16.4,2c-1,0-2,0.1-3.1,0.1l-2.7,4.6l-13.6,23c-2.7,5.9-7.1,10.4-13.3,14
							c-0.7,0.4-1.4,0.8-2.1,1.1s-1.3,0.6-2,1s-1.7,0.7-2.5,1.1c-13.7,5.5-33.3,7.3-56.9,4.4c-2-0.2-4-0.5-6-0.8l-2.9-0.5l-2.9-0.5
							l-2.9-0.5l-2.9-0.6l-2.9-0.6l-2.9-0.7l-2.9-0.7l-2.9-0.7l-2.8-0.8l-2.8-0.8c-1.3-0.4-2.1-0.6-2.8-0.8l-2.8-0.8l-2.8-0.9
							l-2.8-0.9l-2.8-1l-2.8-1c-1-0.4-1.9-0.7-2.8-1l-2.8-1c-1-0.4-1.8-0.7-2.7-1.1c-6.4-2.6-12.7-5.3-18.8-8.3l-47.4,27.5
							c-2,1.4-5.6,1.9-10.2,1.2c-4.3-0.7-8.5-2.2-12.3-4.4c-3.6-2.1-6.4-4.6-7.6-7.1c-1.2-2.7-0.4-4.7,2-5.9l47.3-27.5
							c-19-12.9-33.6-27.5-40.3-41.9c-10.8-22.9,0.8-39.9,27-46.3c2.5-0.6,4.7-1,6.9-1.4l41.2-8.3l8-1.6
							c0.6-12.6,10.7-21.7,27.8-25.9c2.3-0.5,4.2-0.9,6.2-1.3l30.4-6.1l7.3-1.5c2.7-8.3,10.9-14.4,23.3-17.4c2-0.5,3.7-0.8,5.4-1.1
							l208.4-41.7C1390.9,1452.9,1394,1453.3,1396.7,1454.7z"/>
						<path class="st3" d="M1026,1682v-74.5h-39.5v74.5c-0.3,3.1,1.7,6.3,5.8,8.6c7.7,4.4,20.3,4.4,28,0
							C1024.3,1688.2,1026.2,1685.1,1026,1682z"/>
						<path class="st4" d="M1138.7,1508L1016,1256c-2.6-5.4-9.2-7.7-14.6-5c-2.2,1.1-4,2.8-5,5l-123.5,253.6c-1.1,2-2.1,4-3,6.2
							l-0.2,0.4l0,0c-10.7,26.4,1.7,55.4,37.2,75.8c54.6,31.5,143.9,31.4,198.5-0.1c38.8-22.4,50-55,33.6-83.2
							C1138.9,1508.4,1138.8,1508.2,1138.7,1508z"/>
						<path class="st4" d="M1138.7,1508L1016,1256c-2.6-5.4-9.2-7.7-14.6-5c-2.2,1.1-4,2.8-5,5l-123.5,253.6c-1.1,2-2.1,4-3,6.2
							l-0.2,0.4l0,0c-10.7,26.4,1.7,55.4,37.2,75.8c54.6,31.5,143.9,31.4,198.5-0.1c38.8-22.4,50-55,33.6-83.2
							C1138.9,1508.4,1138.8,1508.2,1138.7,1508z"/>
						<path class="st5" d="M1138.7,1508L1016,1256c-1.8-3.8-5.7-6.2-10-6.1v365.7c36,0,72.1-7.9,99.4-23.7
							c38.8-22.4,50-55,33.6-83.2C1138.9,1508.4,1138.8,1508.2,1138.7,1508z"/>
						<path class="st6" d="M1120.3,1470.2L1016,1256c-2.6-5.4-9.2-7.7-14.6-5c-2.2,1.1-4,2.8-5,5L892,1470.4
							c6,7.6,14.4,14.6,25.2,20.8c49,28.2,129,28.2,178-0.1C1105.9,1484.8,1114.3,1477.8,1120.3,1470.2z"/>
						<path class="st4" d="M1125,1404l-110-226c-2.4-4.9-8.2-6.9-13.1-4.5c-2,1-3.6,2.5-4.5,4.5l-110.7,227.4
							c-1,1.8-1.9,3.6-2.7,5.5l-0.2,0.4l0,0c-9.6,23.7,1.6,49.7,33.4,68c49,28.2,129,28.2,178-0.1c34.8-20.1,44.9-49.3,30.2-74.6
							C1125.3,1404.4,1125.1,1404.2,1125,1404z"/>
						<path class="st5" d="M1125,1404l-110-226c-1.6-3.4-5.1-5.6-8.9-5.5v328c32.3,0,64.6-7.1,89.2-21.3
							c34.8-20.1,44.9-49.3,30.2-74.6C1125.3,1404.4,1125.1,1404.2,1125,1404z"/>
						<path class="st6" d="M1111.6,1376.3L1015,1178c-2.4-4.9-8.2-6.9-13.1-4.5c-2,1-3.6,2.5-4.5,4.5l-96.6,198.5
							c5.3,9.2,14.2,17.8,26.8,25.1c43.2,24.9,114,24.9,157.2-0.1C1097.4,1394.2,1106.3,1385.5,1111.6,1376.3z"/>
						<path class="st4" d="M1109.9,1325.2l-96-197.1c-2.1-4.2-7.2-6-11.4-3.9c-1.7,0.8-3.1,2.2-3.9,3.9L902,1326.5
							c-0.9,1.6-1.7,3.2-2.3,4.8l-0.2,0.3l0,0c-8.3,20.7,1.4,43.3,29.1,59.3c42.7,24.6,112.6,24.6,155.2-0.1
							c30.4-17.5,39.1-43,26.3-65.1C1110,1325.6,1109.9,1325.4,1109.9,1325.2z"/>
						<path class="st5" d="M1109.9,1325.2l-96-197.1c-1.4-3-4.5-4.9-7.8-4.8v286.1c28.2,0,56.4-6.2,77.8-18.5
							c30.4-17.5,39.1-43,26.3-65.1C1110,1325.6,1109.9,1325.4,1109.9,1325.2z"/>
						<g>
							<g>
								<path class="st2" d="M2820.9,896l-0.6-0.1L2820.9,896z"/>
								<path class="st2" d="M2378.4,938.5L2378.4,938.5z"/>
								<path class="st2" d="M2375.6,941.5c92.2-56.1,248.1-76,444.7-45.7C2623.7,865.5,2467.8,885.3,2375.6,941.5z"/>
								<path class="st2" d="M2375.6,941.5l-0.3,0.2L2375.6,941.5z"/>
								<path class="st2" d="M2378.4,938.5c-0.6,1.3-1.7,2.5-3.1,3.2C2376.7,940.9,2377.7,939.8,2378.4,938.5z"/>
								<path class="st2" d="M2356.8,954L2356.8,954z"/>
								<path class="st2" d="M2351.3,958.1c1.8-1.4,3.7-2.7,5.6-4C2355,955.4,2353,956.7,2351.3,958.1z"/>
								<path class="st2" d="M2351.3,958.1L2351.3,958.1z"/>
								<path class="st2" d="M2356.8,954c-1.8,1.3-3.8,2.7-5.6,4C2353,956.7,2355,955.4,2356.8,954z"/>
								<path class="st2" d="M2820.9,896c193.4,30,390.6,102.9,552.6,196.5C3211.4,998.9,3014.2,925.9,2820.9,896z"/>
								<path class="st2" d="M3374,1092.7L3374,1092.7l-0.5-0.3L3374,1092.7z"/>
								<path class="st2" d="M1933,1291.4c1.2-57.3,30.1-104.9,81.7-139.9C1963.1,1186.5,1934.2,1234.1,1933,1291.4z"/>
								<path class="st2" d="M1933,1291.4L1933,1291.4z"/>
								<path class="st2" d="M1939,1343.4L1939,1343.4c-4.2-16.9-6.3-34.3-5.9-51.8C1932.8,1309,1934.8,1326.5,1939,1343.4z"/>
								<path class="st2" d="M1939,1343.4L1939,1343.4L1939,1343.4L1939,1343.4z"/>
								<path class="st2" d="M1958.6,1397.8L1958.6,1397.8c-8.9-18.8-15.4-37-19.6-54.4C1943.2,1360.9,1949.7,1379,1958.6,1397.8z"
									/>
								<path class="st2" d="M1958.6,1397.8L1958.6,1397.8L1958.6,1397.8L1958.6,1397.8z"/>
								<path class="st2" d="M3374,1092.7L3374,1092.7c162,93.6,288.7,207.7,341.1,319.8C3662.6,1300.4,3535.9,1186.3,3374,1092.7z"
									/>
								<path class="st2" d="M3715.3,1412.8L3715.3,1412.8l-0.2-0.3L3715.3,1412.8z"/>
								<path class="st2" d="M1975,1428.8c-6-10.3-11.5-20.6-16.4-30.9C1963.5,1408.1,1968.9,1418.5,1975,1428.8z"/>
								<path class="st2" d="M1975,1428.8L1975,1428.8z"/>
								<path class="st2" d="M2025.5,1499c-19.7-23.3-36.6-46.8-50.4-70.2C1988.8,1452.2,2005.8,1475.7,2025.5,1499z"/>
								<path class="st2" d="M2025.5,1499L2025.5,1499L2025.5,1499z"/>
								<path class="st2" d="M2029.4,1503.6L2029.4,1503.6c-1.3-1.4-2.6-2.9-3.9-4.5C2026.7,1500.6,2028,1502.1,2029.4,1503.6z"/>
								<path class="st2" d="M2029.4,1503.6L2029.4,1503.6L2029.4,1503.6z"/>
								<path class="st2" d="M2097.5,1572.8L2097.5,1572.8c-26.2-23.7-48.5-46.3-68.1-69.1C2049,1526.4,2071.3,1549,2097.5,1572.8z"
									/>
								<path class="st2" d="M2097.5,1572.8L2097.5,1572.8L2097.5,1572.8L2097.5,1572.8z"/>
								<path class="st2" d="M2171.8,1633.3L2171.8,1633.3c-26.5-19.7-51.4-40-74.2-60.5C2120.5,1593.4,2145.3,1613.6,2171.8,1633.3
									z"/>
								<path class="st2" d="M2171.8,1633.3L2171.8,1633.3L2171.8,1633.3L2171.8,1633.3z"/>
								<path class="st2" d="M3626.2,1677.7c5.9-2.9,11.6-5.9,17-9C3637.8,1671.8,3632.1,1674.8,3626.2,1677.7z"/>
								<path class="st2" d="M3715.3,1412.8L3715.3,1412.8c55.4,118.7,16.8,212.1-89,264.8
									C3732.1,1624.9,3770.7,1531.5,3715.3,1412.8z"/>
								<path class="st2" d="M3626.2,1677.7L3626.2,1677.7z"/>
								<path class="st2" d="M3623.4,1679.3"/>
								<path class="st2" d="M3601,1689.1L3601,1689.1c7.8-3.1,15.2-6.4,22.4-9.9C3616.2,1682.7,3608.7,1686,3601,1689.1z"/>
								<path class="st2" d="M3601,1689.1"/>
								<path class="st2" d="M2256,1690.8L2256,1690.8L2256,1690.8L2256,1690.8z"/>
								<path class="st2" d="M2300.5,1717.6L2300.5,1717.6c-15.1-8.7-30-17.7-44.5-26.8C2270.6,1700,2285.4,1708.8,2300.5,1717.6z"
									/>
								<path class="st2" d="M2347.8,1743.8L2347.8,1743.8c-16-8.5-31.8-17.2-47.2-26.2C2316,1726.5,2331.8,1735.2,2347.8,1743.8z"
									/>
								<path class="st2" d="M3278.7,1881.5L3278.7,1881.5l0.2-0.1L3278.7,1881.5z"/>
								<path class="st2" d="M2800.4,1905.2L2800.4,1905.2L2800.4,1905.2z"/>
								<path class="st2" d="M2947.8,1925.6c-30.3-2.4-61.7-6.1-94.3-11.1C2886,1919.6,2917.5,1923.3,2947.8,1925.6z"/>
								<path class="st2" d="M2947.8,1925.6"/>
								<path class="st2" d="M3278.7,1881.5L3278.7,1881.5c-61.4,29.3-143,46.2-241.4,47.3
									C3135.8,1927.8,3217.4,1910.8,3278.7,1881.5z"/>
								<path class="st2" d="M3037.2,1928.8L3037.2,1928.8c-28.5,0.3-58.3-0.7-89.4-3.2C2978.9,1928,3008.7,1929.1,3037.2,1928.8z"
									/>
								<path class="st2" d="M3643.3,1668.7L3279,1881.5c-61.4,29.3-143,46.3-241.6,47.3c-28.5,0.3-58.3-0.7-89.5-3.2
									c-30.3-2.4-61.8-6-94.4-11.1c-17.6-2.8-35.3-5.9-53-9.3c-2.2-0.5-4.4-0.9-6.6-1.3c-40.9-8.2-81.9-18.2-122.5-29.8
									c-39.4-11.3-78.5-24-116.8-38.1c-38.2-14.1-73.2-28.4-107.3-43.7c-34.1-15.3-67.3-31.5-99.4-48.5
									c-16-8.5-31.8-17.2-47.3-26.2c-15.1-8.7-30.1-17.7-44.6-26.8c-29.6-18.6-57.7-37.7-84.1-57.4c-26.4-19.7-51.4-40-74.3-60.6
									c-26.3-23.8-48.6-46.4-68.2-69.2c-1.3-1.4-2.6-2.9-3.9-4.5c-19.7-23.4-36.6-46.8-50.5-70.3c-6-10.3-11.5-20.6-16.4-30.9
									c-8.9-18.8-15.4-37-19.6-54.5c-4.2-17-6.3-34.3-6-51.8c1.1-57.4,30-105.1,81.7-140l363.8-213.1c-0.7,1.4-1.8,2.5-3.2,3.3
									c92.1-56.3,248.2-76.2,445-45.8c193.6,29.9,391,102.9,553.2,196.6c162.2,93.6,289.1,207.8,341.7,320
									c55.7,118.9,17,212.4-88.9,265.2C3632.1,1674.8,3637.8,1671.8,3643.3,1668.7z M3623.4,1679.3c-7.1,3.5-14.7,6.7-22.4,9.9
									C3608.7,1686,3616.2,1682.7,3623.4,1679.3 M2356.8,954c-1.8,1.3-3.8,2.7-5.6,4C2353.1,956.7,2355,955.4,2356.8,954"/>
								<path class="st2" d="M3643.3,1668.7L3279,1881.5c-61.4,29.3-143,46.3-241.6,47.3c-28.5,0.3-58.3-0.7-89.5-3.2
									c-30.3-2.4-61.8-6-94.4-11.1c-17.6-2.8-35.3-5.9-53-9.3c-2.2-0.5-4.4-0.9-6.6-1.3c-40.9-8.2-81.9-18.2-122.5-29.8
									c-39.4-11.3-78.5-24-116.8-38.1c-38.2-14.1-73.2-28.4-107.3-43.7c-34.1-15.3-67.3-31.5-99.4-48.5
									c-16-8.5-31.8-17.2-47.3-26.2c-15.1-8.7-30.1-17.7-44.6-26.8c-29.6-18.6-57.7-37.7-84.1-57.4c-26.4-19.7-51.4-40-74.3-60.6
									c-26.3-23.8-48.6-46.4-68.2-69.2c-1.3-1.4-2.6-2.9-3.9-4.5c-19.7-23.4-36.6-46.8-50.5-70.3c-6-10.3-11.5-20.6-16.4-30.9
									c-8.9-18.8-15.4-37-19.6-54.5c-4.2-17-6.3-34.3-6-51.8c1.1-57.4,30-105.1,81.7-140l363.8-213.1c-0.7,1.4-1.8,2.5-3.2,3.3
									c92.1-56.3,248.2-76.2,445-45.8c193.6,29.9,391,102.9,553.2,196.6c162.2,93.6,289.1,207.8,341.7,320
									c55.7,118.9,17,212.4-88.9,265.2C3632.1,1674.8,3637.8,1671.8,3643.3,1668.7z M3623.4,1679.3c-7.1,3.5-14.7,6.7-22.4,9.9
									C3608.7,1686,3616.2,1682.7,3623.4,1679.3 M2356.8,954c-1.8,1.3-3.8,2.7-5.6,4C2353.1,956.7,2355,955.4,2356.8,954"/>
								<path class="st2" d="M3623.4,1679.3L3623.4,1679.3c-7.1,3.5-14.6,6.7-22.4,9.9C3608.7,1686,3616.1,1682.7,3623.4,1679.3z"/>
								<path class="st2" d="M2256,1690.8L2256,1690.8c-29.6-18.5-57.6-37.7-84.1-57.3C2198.3,1653.1,2226.4,1672.2,2256,1690.8z"/>
								<path class="st2" d="M2300.5,1717.6L2300.5,1717.6L2300.5,1717.6L2300.5,1717.6z"/>
								<path class="st2" d="M2347.8,1743.8L2347.8,1743.8L2347.8,1743.8L2347.8,1743.8z"/>
								<path class="st2" d="M2447.2,1792.3c-34.1-15.2-67.2-31.4-99.4-48.4C2379.9,1760.9,2413.1,1776.9,2447.2,1792.3z"/>
								<path class="st2" d="M2447.2,1792.3L2447.2,1792.3L2447.2,1792.3L2447.2,1792.3z"/>
								<path class="st2" d="M2554.5,1835.9c-38.2-14.1-73.1-28.4-107.1-43.6C2481.3,1807.6,2516.3,1821.8,2554.5,1835.9z"/>
								<path class="st2" d="M2554.5,1835.9L2554.5,1835.9L2554.5,1835.9z"/>
								<path class="st2" d="M2671.3,1874.1c-39.4-11.3-78.4-24-116.7-38.1C2592.9,1850.1,2631.9,1862.8,2671.3,1874.1z"/>
								<path class="st2" d="M2671.3,1874.1L2671.3,1874.1L2671.3,1874.1z"/>
								<path class="st2" d="M2793.8,1903.9L2793.8,1903.9c-40.9-8.2-81.8-18.2-122.4-29.7
									C2711.9,1885.7,2752.9,1895.7,2793.8,1903.9z"/>
								<path class="st2" d="M2793.8,1903.9L2793.8,1903.9h0.2H2793.8z"/>
								<path class="st2" d="M2800.4,1905.2L2800.4,1905.2c-2.2-0.5-4.4-0.9-6.6-1.3C2796.1,1904.4,2798.3,1904.8,2800.4,1905.2z"/>
								<path class="st2" d="M2853.4,1914.5L2853.4,1914.5c-17.6-2.8-35.3-5.9-53-9.3C2818.1,1908.7,2835.7,1911.8,2853.4,1914.5z"
									/>
								<path class="st2" d="M2853.4,1914.5"/>
								<path class="st2" d="M3037.2,1928.8"/>
							</g>
							
								<linearGradient id="SVGID_3_" gradientUnits="userSpaceOnUse" x1="1733.6" y1="3039.7312" x2="3511.8826" y2="3039.7312" gradientTransform="matrix(1 0 0 -1 0 4569)">
								<stop  offset="0" style="stop-color:#DABEA1"/>
								<stop  offset="0.55" style="stop-color:#D8BCA0"/>
								<stop  offset="0.76" style="stop-color:#D3B59B"/>
								<stop  offset="0.91" style="stop-color:#CAA994"/>
								<stop  offset="1" style="stop-color:#C19E8D"/>
							</linearGradient>
							<path class="st11" d="M3517.3,1034v518.2h-2.1c-5.7,79.2-42.7,157.9-111.2,228.8c-20.9,21.5-43.2,41.4-67.1,59.4
								c-25.6,19.4-52.4,37.2-80.2,53.1c-15.8,9.1-32.1,17.8-48.8,26.1c-2.1,1-4.1,2.1-6.2,3c-39.8,19.3-80.9,36.1-122.8,50.1
								c-42.3,14.3-85.4,26.2-129,35.8c-1,0.2-2.1,0.5-3.1,0.7c-41.2,9-83.3,16.3-125.9,21.7c-42.7,5.4-85.9,9-129.3,10.9
								c-43.1,1.7-86.4,1.8-129.4,0c-43.5-1.8-86.7-5.4-129.3-10.8c-42.7-5.4-85-12.6-126.2-21.6c-1-0.2-2.1-0.5-3.1-0.7
								c-43.8-9.6-86.9-21.6-129.3-35.8c-2.7-0.9-5.5-1.8-8.2-2.8c-0.1,0-0.2,0-0.2-0.1c-41.4-14.2-81.8-31-121-50.3
								c-16.8-8.4-33.3-17.1-49.2-26.3c-27.8-15.9-54.6-33.5-80.1-52.8c-23.9-18-46.4-37.8-67.3-59.2
								c-69.1-71.1-106.6-149.9-112.6-229.3h-2.1v-518.2h1.3c0.3,85.3,37,170.5,109.7,247.1c39.3-41.4,89.1-80.2,149.6-115.2
								c346.4-200.5,914-200.5,1261.4,0c61.1,35.3,111.5,74.5,151.1,116.3c73.3-76.8,109.8-162.5,109.7-248.2L3517.3,1034z"/>
							<path class="st12" d="M3436.9,1093.7c-13.8,52.8-45.4,103.6-93.9,151c-30.7,30.1-68,58.4-111,84.1c-3.6,2.2-7.2,4.3-10.8,6.3
								c-32,18.3-65.1,34.7-99.2,48.8c-37.3,15.5-75.6,28.9-114.5,40c-117,33.7-248.8,51.5-381.3,51.5c-133.2,0-265.7-18-383.3-52.1
								c-38.9-11.2-77.1-24.6-114.4-40.1c-33.5-14-66.1-30-97.7-48.1c-4.2-2.4-8.2-4.8-12.3-7.2c-43.1-25.9-80.3-54.2-111.2-84.3
								c-48.5-47.5-80.2-98.3-93.9-151.2c-34.1-130.4,44.6-262.2,216-361.4c156.9-90.8,368.1-140.8,594.6-140.8s438,50,595.4,140.8
								c89,51.4,155.4,113.7,192,180.2C3444.3,971.2,3452.9,1032.5,3436.9,1093.7z"/>
							<path class="st13" d="M3392.8,1295.8c12.3-122.5-62.4-247.6-223.9-340.8c-299.7-173.1-789.8-173.1-1088.8,0
								c-160.7,93-234.9,217.6-222.6,339.8c-58.7-57.3-96.3-120.1-113.1-184.2c27.3-104.8,110.4-205.5,249.3-285.9
								c346.4-200.5,914-200.5,1261.4,0c139.8,80.7,223.5,182,250.8,287.2C3489.2,1175.9,3451.5,1238.5,3392.8,1295.8z"/>
							<path class="st14" d="M3392.8,1295.8c12.3-122.5-62.4-247.6-223.9-340.8c-299.7-173.1-789.8-173.1-1088.8,0
								c-160.7,93-234.9,217.6-222.6,339.8"/>
							<path class="st14" d="M1850.5,1283.2c-9.8-121.1,64.9-244.2,224.2-336.4c302-174.8,796.8-174.8,1099.6,0
								c160.2,92.5,235.4,216.1,225.6,337.5"/>
							<path class="st14" d="M1843.4,1271.7c-7.3-120,68-241.6,225.9-333c305-176.5,804.6-176.5,1110.4,0
								c158.8,91.7,234.6,213.8,227.3,334.1"/>
							<path class="st14" d="M1836.3,1260.2c-4.8-118.9,71-239,227.6-329.6c307.9-178.3,812.5-178.3,1121.2,0
								c157.5,90.9,233.8,211.5,229,330.7"/>
							<path class="st14" d="M1829.2,1248.7c-2.3-117.8,74.1-236.5,229.3-326.3c310.9-180,820.3-180,1131.9,0
								c156.1,90.1,233,209.3,230.7,327.4"/>
							<path class="st14" d="M1822.2,1237.2c0.2-116.7,77.1-233.8,231-323c313.9-181.7,828.1-181.7,1142.7,0
								c154.7,89.4,232.2,207,232.3,324.1"/>
							<path class="st14" d="M1815.1,1225.6c2.6-115.6,80.1-231.3,232.6-319.6c316.8-183.4,835.9-183.4,1153.5,0
								c153.4,88.6,231.4,204.7,234,320.8"/>
							<path class="st14" d="M1808,1214.1c5.1-114.5,83.1-228.7,234.3-316.2c319.8-185.2,843.7-185.2,1164.3,0
								c152,87.8,230.6,202.4,235.7,317.3"/>
							<path class="st14" d="M1801,1202.6c7.5-113.5,86.2-226.2,236-312.8c322.7-186.8,851.5-186.8,1175,0
								c150.7,87,229.8,200.1,237.4,314"/>
							<path class="st14" d="M1793.9,1191.1c10-112.4,89.2-223.5,237.6-309.5c325.7-188.6,859.3-188.6,1185.9,0
								c149.3,86.2,229,197.9,239.1,310.7"/>
							<path class="st14" d="M1786.9,1179.6c12.4-111.3,92.2-221,239.3-306.1c328.7-190.2,867.2-190.2,1196.7,0
								c148,85.4,228.2,195.6,240.7,307.3"/>
							<path class="st14" d="M1779.8,1168c14.9-110.2,95.2-218.5,241-302.8c331.6-192,875-192,1207.4,0
								c146.6,84.6,227.4,193.3,242.4,303.9"/>
							<path class="st14" d="M1772.7,1156.5c17.4-109.1,98.3-215.8,242.6-299.4c334.6-193.7,882.8-193.7,1218.2,0
								c145.2,83.8,226.6,191.1,244.2,300.6"/>
							<path class="st14" d="M1765.6,1145c19.9-108,101.3-213.3,244.3-296c337.6-195.4,890.6-195.4,1229,0
								c143.8,83,225.8,188.8,245.8,297.3"/>
							<path class="st14" d="M1758.6,1133.5c22.4-106.9,104.4-210.7,246-292.7c340.5-197.1,898.4-197.1,1239.8,0
								c142.5,82.3,225,186.5,247.5,294"/>
							<path class="st14" d="M1751.5,1122c24.8-105.9,107.4-208.2,247.6-289.3c343.5-198.9,906.3-198.9,1250.6,0
								c141.1,81.5,224.2,184.3,249.1,290.5"/>
							<path class="st14" d="M1744.4,1110.5c27.3-104.7,110.4-205.5,249.3-285.9c346.4-200.5,914-200.5,1261.4,0
								c139.8,80.7,223.5,182,250.8,287.2"/>
							<path class="st13" d="M1870.2,1183.9c-9.7,28.6-14.4,58.8-14,89C1855.9,1242.7,1860.5,1212.5,1870.2,1183.9z"/>
							<path class="st13" d="M1873.9,1173.4c-1.3,3.5-2.5,7-3.7,10.5C1871.4,1180.4,1872.6,1176.9,1873.9,1173.4z"/>
							<path class="st13" d="M1878.1,1163c-1.4,3.4-2.8,6.9-4.1,10.4C1875.2,1169.9,1876.6,1166.4,1878.1,1163z"/>
							<path class="st13" d="M1939.4,1067.1c-4.3,4.8-8.3,9.8-12.3,14.7C1930.9,1076.8,1935.1,1071.9,1939.4,1067.1z"/>
							<path class="st13" d="M1957.3,1047.9c-4.7,4.8-9.3,9.5-13.6,14.4C1948.1,1057.4,1952.6,1052.6,1957.3,1047.9z"/>
							<path class="st13" d="M3325.1,1084.9c-3.3-4.2-6.8-8.4-10.3-12.6C3318.3,1076.5,3321.7,1080.7,3325.1,1084.9z"/>
							<path class="st13" d="M3393.5,1288.2c-0.2,2.5-0.4,5.1-0.6,7.6c-34.3,33.5-75.6,65.1-124.2,94.2
								c19.8-108.6-42.2-221.6-185.9-304.7c-252.2-145.7-664.6-145.7-916.3,0c-143,82.8-204.6,195.3-184.8,303.7
								c-48.6-29.1-89.9-60.8-124.3-94.4c-0.2-2.5-0.5-5.1-0.6-7.6c7.6-107.4,82-213.6,223.2-295.4c299-173.1,789.1-173.1,1088.8,0
								C3310.9,1073.8,3385.8,1180.3,3393.5,1288.2z"/>
							<path class="st14" d="M3268.7,1390c19.8-108.6-42.2-221.6-185.9-304.7c-252.2-145.7-664.6-145.7-916.3,0
								c-143,82.8-204.6,195.3-184.8,303.7"/>
							<path class="st14" d="M1973.9,1383.2c-0.4-2.4-0.8-4.8-1.2-7.2c-14.4-106.3,48.3-215.4,188.3-296.5
								c254.6-147.4,671.8-147.4,927,0c140.7,81.2,203.9,190.9,189.4,297.4c-0.3,2.4-0.7,4.8-1.2,7.2"/>
							<path class="st14" d="M1966.2,1377.3c-0.4-2.4-0.8-4.8-1.1-7.2c-12.9-106.3,50.6-215.4,190.6-296.4
								c257.6-149.1,679.6-149.1,937.8,0c140.8,81.3,204.7,190.7,191.8,297.4c-0.3,2.4-0.7,4.8-1.1,7.2"/>
							<path class="st14" d="M1958.5,1371.4c-0.4-2.5-0.8-4.8-1.1-7.3c-11.5-106.4,52.8-215.2,192.9-296.3
								c260.6-150.8,687.4-150.8,948.6,0c140.8,81.4,205.6,190.5,194.1,297.3c-0.3,2.4-0.7,4.8-1.1,7.2"/>
							<path class="st14" d="M1950.7,1365.5c-0.4-2.5-0.7-4.8-1-7.3c-10-106.5,55-215.1,195.3-296.2
								c263.5-152.5,695.3-152.5,959.4,0c141,81.4,206.5,190.4,196.5,297.2c-0.3,2.5-0.6,4.8-1,7.3"/>
							<path class="st14" d="M1942.9,1359.6c-0.4-2.5-0.7-4.9-1-7.3c-8.6-106.6,57.3-215,197.6-296.2c266.4-154.2,703-154.2,970.2,0
								c141.1,81.4,207.4,190.2,198.8,297.1c-0.3,2.5-0.6,4.9-1,7.3"/>
							<path class="st14" d="M1935.2,1353.7c-0.4-2.5-0.7-4.9-1-7.4c-7.1-106.7,59.6-214.8,200-296.1c269.4-156,710.9-156,981,0
								c141.1,81.5,208.2,190.1,201.2,297c-0.3,2.5-0.6,4.9-1,7.4"/>
							<path class="st14" d="M1927.4,1347.8c-0.3-2.5-0.6-4.9-1-7.4c-5.6-106.7,61.8-214.7,202.3-296
								c272.4-157.6,718.7-157.6,991.8,0c141.2,81.5,209.1,190,203.5,297c-0.2,2.5-0.6,4.9-1,7.4"/>
							<path class="st14" d="M1919.6,1341.9c-0.3-2.5-0.6-4.9-0.9-7.4c-4.1-106.8,64.1-214.6,204.6-295.9
								c275.3-159.4,726.5-159.4,1002.5,0c141.3,81.6,210,189.8,205.9,297c-0.2,2.5-0.6,4.9-0.9,7.4"/>
							<path class="st14" d="M1911.8,1336c-0.3-2.5-0.6-5-0.9-7.5c-2.7-106.9,66.3-214.5,207-295.9
								c278.3-161.1,734.3-161.1,1013.3,0c141.4,81.7,210.8,189.7,208.2,296.9c-0.2,2.5-0.6,5-0.9,7.5"/>
							<path class="st14" d="M1904.1,1330.1c-0.3-2.5-0.6-5-0.8-7.5c-1.2-107,68.5-214.3,209.3-295.8
								c281.3-162.8,742.1-162.8,1024.1,0c141.5,81.7,211.7,189.5,210.5,296.8c-0.2,2.5-0.5,5-0.9,7.5"/>
							<path class="st14" d="M1896.4,1324.2c-0.3-2.5-0.6-5-0.8-7.5c0.2-107,70.8-214.3,211.6-295.7c284.2-164.5,750-164.5,1034.9,0
								c141.5,81.8,212.6,189.4,212.8,296.7c-0.2,2.5-0.5,5-0.8,7.5"/>
							<path class="st14" d="M1888.5,1318.3c-0.3-2.5-0.6-5-0.8-7.5c1.7-107.1,73-214.1,213.9-295.6
								c287.2-166.3,757.8-166.3,1045.7,0c141.6,81.8,213.4,189.2,215.2,296.6c-0.2,2.5-0.5,5-0.8,7.5"/>
							<path class="st14" d="M1880.8,1312.4c-0.3-2.5-0.6-5-0.7-7.5c3.2-107.2,75.3-213.9,216.2-295.5
								c290.1-167.9,765.6-167.9,1056.5,0c141.7,81.8,214.3,189,217.6,296.6c-0.2,2.5-0.5,5-0.7,7.5"/>
							<path class="st14" d="M1873.1,1306.5c-0.2-2.5-0.5-5.1-0.7-7.6c4.7-107.3,77.6-213.9,218.5-295.5
								c293.1-169.7,773.4-169.7,1067.2,0c141.9,81.9,215.1,188.9,219.9,296.6c-0.2,2.5-0.4,5.1-0.7,7.6"/>
							<path class="st14" d="M1865.3,1300.6c-0.2-2.5-0.5-5.1-0.6-7.6c6.1-107.4,79.8-213.7,220.9-295.4
								c296.1-171.4,781.2-171.4,1078,0c141.9,82,216,188.7,222.2,296.5c-0.2,2.5-0.4,5.1-0.6,7.6"/>
							<path class="st14" d="M1857.5,1294.8c-0.2-2.5-0.5-5.1-0.6-7.6c7.6-107.4,82-213.6,223.2-295.4
								c299-173.1,789.1-173.1,1088.8,0c142,82,216.9,188.6,224.6,296.4c-0.2,2.5-0.4,5.1-0.6,7.6"/>
							<path class="st13" d="M3394.1,1274c0.3-19.3-1.5-38.6-5.5-57.6C3392.6,1235.4,3394.4,1254.6,3394.1,1274z"/>
							<path class="st15" d="M3394.1,1274v0.6c0,1.4-0.1,2.9-0.2,4.4c-0.2,3.1-0.3,6.1-0.5,9.2c-7.7-107.8-82.5-214.4-224.6-296.4
								c-299.7-173.1-789.8-173.1-1088.8,0c-141.2,81.8-215.6,187.9-223.2,295.4c-0.2-3-0.4-6.1-0.5-9.2c0-1.4-0.1-2.9-0.2-4.3v-0.7
								c-0.2-8.5,0.2-16.9,0.8-25.4c0.2-1.7,0.3-3.6,0.5-5.3c0.7-7.1,1.7-14.2,3.1-21.3c0.3-1.7,0.6-3.6,1-5.3
								c0.4-1.7,0.7-3.6,1.1-5.3c2-8.8,4.5-17.6,7.4-26.4c1.1-3.5,2.4-7,3.7-10.5l0,0c1.3-3.5,2.7-7,4.1-10.4s3-7,4.6-10.5
								s3.3-6.9,5-10.3l0,0c1.7-3.4,3.6-6.8,5.5-10.2c1-1.7,1.9-3.4,2.9-5.2c2-3.4,4-6.7,6.1-10.1c4.2-6.7,8.7-13.5,13.6-20.1
								c2.4-3.3,4.9-6.7,7.4-9.9c1.3-1.7,2.6-3.3,3.9-4.9c2-2.5,4-4.9,6-7.4s4.1-4.8,6.3-7.3c1.4-1.6,2.9-3.3,4.4-4.8
								c4.4-4.8,8.9-9.6,13.6-14.4c10.9-11.1,22.8-22,35.5-32.5c2.9-2.4,5.7-4.8,8.6-7.1c24.8-19.7,51.1-37.5,78.6-53.3
								c299-173.1,789.1-173.1,1088.8,0c33.9,19.6,64,40.6,90.2,62.6c2.8,2.4,5.6,4.8,8.3,7.1c8.8,7.7,17.1,15.5,25,23.5
								c1.6,1.6,3.1,3.2,4.7,4.8c1.6,1.6,3,3.2,4.6,4.8c3,3.2,5.9,6.4,8.8,9.7c1.4,1.7,2.9,3.3,4.3,4.9c3.6,4.1,7,8.4,10.3,12.6
								c25.3,32.1,43.6,65.6,55,99.8c1,3,2,5.9,2.9,9c2.3,7.5,4.2,15.1,5.8,22.8c1.3,6.7,2.5,13.3,3.3,20c0.3,2.2,0.6,4.4,0.8,6.7
								C3393.7,1253.4,3394.2,1263.7,3394.1,1274z"/>
							<path class="st13" d="M3268.7,1390c-4,2.4-8,4.8-12.1,7.1c-34.6,19.8-70.4,37.4-107.2,52.7c9-84.1-42-170-152.9-234
								c-204.7-118.2-539.5-118.2-743.7,0c-110.3,63.8-160.9,149.5-151.9,233.3c-36.3-15.1-71.6-32.4-105.7-52
								c-4.6-2.6-9.1-5.3-13.6-8c-19.8-108.4,41.7-220.9,184.8-303.7c251.6-145.7,663.9-145.7,916.3,0
								C3226.5,1168.4,3288.5,1281.3,3268.7,1390z"/>
							<path class="st14" d="M3149.4,1449.8c9-84.1-42-170-152.9-234c-204.7-118.2-539.5-118.2-743.7,0
								c-110.3,63.8-160.9,149.5-151.9,233.3"/>
							<path class="st14" d="M2093.5,1445.3c-9.7-85.3,41.6-172.6,153.9-237.7c207.2-120,546.7-120,754.5,0
								c112.9,65.2,164.5,152.8,154.9,238.4"/>
							<path class="st14" d="M2086.1,1441.5c-10.3-86.9,41.6-175.9,156-242.1c210.2-121.6,554.6-121.6,765.3,0
								c115,66.4,167.3,155.7,157,242.8"/>
							<path class="st14" d="M2078.6,1437.8c-11-88.4,41.6-179.1,158-246.5c213.1-123.4,562.4-123.4,776.1,0
								c117,67.6,170.1,158.5,159.1,247.2"/>
							<path class="st14" d="M2071.1,1434.1c-11.7-89.9,41.6-182.3,160.1-250.9c216.2-125.1,570.2-125.1,786.9,0
								c119.1,68.7,172.8,161.4,161.1,251.6"/>
							<path class="st14" d="M2063.7,1430.3c-12.4-91.5,41.6-185.6,162.2-255.3c219.1-126.8,578.1-126.8,797.6,0
								c121.2,69.9,175.6,164.3,163.2,256"/>
							<path class="st14" d="M2056.2,1426.5c-13.1-93,41.6-188.7,164.2-259.7c222-128.5,585.8-128.5,808.4,0
								c123.2,71.1,178.3,167.2,165.3,260.5"/>
							<path class="st14" d="M2048.8,1422.8c-13.7-94.6,41.6-192,166.3-264.1c225-130.3,593.7-130.3,819.2,0
								c125.3,72.3,181,170,167.3,264.8"/>
							<path class="st14" d="M2041.3,1419.1c-14.4-96.1,41.6-195.1,168.3-268.5c228-131.9,601.5-131.9,830,0
								c127.3,73.5,183.8,172.9,169.4,269.3"/>
							<path class="st14" d="M2033.9,1415.3c-15.1-97.6,41.7-198.4,170.4-272.9c230.9-133.7,609.3-133.7,840.8,0
								c129.3,74.7,186.5,175.8,171.4,273.7"/>
							<path class="st14" d="M2026.4,1411.6c-15.8-99.2,41.7-201.6,172.5-277.3c233.9-135.4,617.1-135.4,851.6,0
								c131.4,75.9,189.3,178.7,173.5,278.1"/>
							<path class="st14" d="M2019,1407.8c-16.4-100.7,41.7-204.8,174.5-281.7c236.9-137.1,624.9-137.1,862.3,0
								c133.5,77.1,192.1,181.6,175.6,282.5"/>
							<path class="st14" d="M2011.5,1404.1c-17.1-102.2,41.7-208.1,176.6-286.1c239.8-138.8,632.7-138.8,873.1,0
								c135.5,78.2,194.8,184.4,177.6,287"/>
							<path class="st14" d="M2004.1,1400.3c-17.8-103.8,41.7-211.2,178.7-290.5c242.8-140.5,640.6-140.5,883.9,0
								c137.6,79.5,197.5,187.3,179.8,291.4"/>
							<path class="st14" d="M1996.6,1396.6c-18.5-105.3,41.7-214.5,180.7-294.9c245.7-142.3,648.3-142.3,894.7,0
								c139.6,80.6,200.3,190.2,181.8,295.8"/>
							<path class="st14" d="M1989.2,1392.8c-19.2-106.9,41.7-217.7,182.7-299.3c248.7-143.9,656.2-143.9,905.5,0
								c141.7,81.8,203,193.1,183.9,300.2"/>
							<path class="st14" d="M1981.7,1389.1c-19.8-108.4,41.7-220.9,184.8-303.7c251.6-145.7,663.9-145.7,916.3,0
								c143.8,83,205.8,195.9,185.9,304.7"/>
							<path class="st13" d="M3149.4,1449.8c-39.9,16.6-80.6,30.8-122.2,42.7c-7.4-53.4-46.4-105.6-116.8-146.3
								c-157.2-90.8-414.2-90.8-571.2,0c-70.1,40.5-108.7,92.5-116.1,145.7c-41.5-12-82.3-26.2-122.2-42.9
								c-9-83.8,41.6-169.5,151.9-233.3c204.3-118.2,539-118.2,743.7,0C3107.4,1279.8,3158.4,1365.7,3149.4,1449.8z"/>
							<path class="st14" d="M3027.2,1492.5c-7.4-53.4-46.4-105.6-116.8-146.3c-157.2-90.8-414.2-90.8-571.2,0
								c-70.1,40.5-108.7,92.5-116.1,145.7"/>
							<path class="st14" d="M2215.5,1489.3c6.3-55.1,45.8-109.2,118.4-151.2c159.9-92.5,421.7-92.5,582,0
								c73,42.1,112.7,96.5,119.1,151.8"/>
							<path class="st14" d="M2207.9,1486.6c5.3-57,45.5-113.2,120.6-156.7c162.8-94.2,429.5-94.2,592.7,0
								c75.5,43.6,116,100.1,121.3,157.2"/>
							<path class="st14" d="M2200.2,1483.9c4.3-58.9,45.2-117.2,122.8-162.2c165.7-95.9,437.3-95.9,603.5,0
								c78,45,119.3,103.6,123.6,162.7"/>
							<path class="st14" d="M2192.6,1481.2c3.3-60.8,45-121.2,125-167.6c168.7-97.7,445.2-97.7,614.3,0
								c80.6,46.5,122.5,107.2,125.8,168.2"/>
							<path class="st14" d="M2185,1478.6c2.2-62.7,44.6-125.3,127.3-173.1c171.7-99.4,453-99.4,625.1,0
								c83.1,48,125.8,110.8,128.1,173.7"/>
							<path class="st14" d="M2177.3,1475.9c1.2-64.7,44.4-129.3,129.6-178.6c174.7-101.1,460.8-101.1,635.9,0
								c85.6,49.4,129.1,114.3,130.4,179.2"/>
							<path class="st14" d="M2169.7,1473.2c0.2-66.6,44.1-133.3,131.8-184c177.6-102.8,468.6-102.8,646.7,0
								c88.1,50.9,132.3,117.8,132.6,184.7"/>
							<path class="st14" d="M2162,1470.5c-0.8-68.5,43.9-137.3,134-189.5c180.6-104.5,476.4-104.5,657.4,0
								c90.6,52.3,135.6,121.4,134.8,190.2"/>
							<path class="st14" d="M2154.4,1467.8c-1.8-70.4,43.5-141.3,136.2-195c183.6-106.3,484.3-106.3,668.2,0
								c93.2,53.8,138.9,125,137.1,195.6"/>
							<path class="st14" d="M2146.8,1465.2c-2.9-72.3,43.3-145.3,138.5-200.5c186.5-108,492.1-108,679,0
								c95.7,55.3,142.2,128.5,139.3,201.1"/>
							<path class="st14" d="M2139.1,1462.5c-3.9-74.2,43-149.3,140.8-205.9c189.4-109.7,499.9-109.7,689.8,0
								c98.2,56.7,145.4,132.1,141.6,206.6"/>
							<path class="st14" d="M2131.5,1459.8c-4.9-76.1,42.7-153.4,143-211.4c192.5-111.4,507.7-111.4,700.6,0
								c100.7,58.1,148.8,135.7,143.8,212"/>
							<path class="st14" d="M2123.9,1457.1c-5.9-78.1,42.4-157.4,145.2-216.9c195.4-113.1,515.5-113.1,711.4,0
								c103.2,59.6,152,139.2,146.1,217.5"/>
							<path class="st14" d="M2116.3,1454.4c-7-80,42.2-161.4,147.4-222.3c198.3-114.8,523.4-114.8,722.1,0
								c105.8,61.1,155.3,142.8,148.4,223"/>
							<path class="st14" d="M2108.6,1451.8c-8-81.9,41.9-165.4,149.6-227.8c201.3-116.6,531.1-116.6,732.9,0
								c108.3,62.5,158.5,146.4,150.6,228.5"/>
							<path class="st14" d="M2101,1449.1c-9-83.8,41.6-169.5,151.9-233.3c204.3-118.2,539-118.2,743.7,0
								c110.9,64,161.8,149.9,152.9,234"/>
							<path class="st15" d="M3027.2,1492.5c-251.8,72.6-552.2,72.5-804.1-0.6c7.4-53.2,46.1-105.2,116.1-145.7
								c156.9-90.8,413.9-90.8,571.2,0C2980.9,1386.8,3019.8,1439.1,3027.2,1492.5z"/>
							<path class="st16" d="M1759.4,1051.6c6.3-12.8,13.3-25.3,21-37.3v-95.9c-9,19.4-16,39.6-21,60.5V1051.6z M3473,1010.6
								c7.6,11.7,14.7,23.7,21,36.1v-78.3c-5.3-19-12.4-37.5-21-55.3V1010.6z M1808.4,975.2c6.7-8.3,13.6-16.6,21-24.7V839.4
								c-7.5,9.6-14.6,19.3-21,29.1V975.2z M3424,948.3c7.4,7.9,14.4,16,21,24.2V865c-6.5-9.6-13.6-19-21-28.4V948.3z M1857.4,922.1
								c6.8-6.4,13.8-12.8,21-19v-117c-7.3,6.9-14.3,13.9-21,21V922.1z M3375.1,901.5c7.2,6.2,14.3,12.4,21,18.7V805.1
								c-6.7-7-13.7-13.9-21-20.7V901.5z M1906.3,880.5c6.8-5.2,13.9-10.5,21-15.5V744.6c-7.2,5.5-14.2,11.1-21,16.7V880.5z
								 M3326.2,863.8c7.1,5.1,14.2,10.1,21,15.4V759.9c-6.8-5.6-13.8-11.1-21-16.6V863.8z M1955.3,846c6.9-4.4,13.9-8.8,21-13.2
								V710.6c-7.2,4.6-14.3,9.2-21,13.9V846z M3277.2,832c7.1,4.3,14.1,8.6,21,13.1V723.3c-6.9-4.7-13.9-9.3-21-13.7V832z
								 M2004.2,816.8c6.9-3.8,13.9-7.5,21-11.3V681.9c-7.2,3.9-14.3,7.9-21,11.7V816.8z M3228.2,804.7c7.1,3.7,14.1,7.5,21,11.2
								V692.7c-6.8-3.9-13.9-7.8-21-11.7V804.7z M2053.2,791.5c6.9-3.3,13.9-6.6,21-9.8V657.3c-7.1,3.3-14.1,6.7-21,10.1V791.5z
								 M3179.2,781.2c7.1,3.2,14,6.4,21,9.7V666.7c-6.9-3.4-13.9-6.7-21-10.1V781.2z M2102.1,769.7c6.9-2.9,14-5.7,21-8.5V636
								c-7.1,2.9-14.1,5.8-21,8.7V769.7z M3130.3,760.7c7.1,2.8,14,5.6,21,8.4V644.3c-6.8-2.9-13.9-5.8-21-8.7V760.7z M2151.2,750.7
								c7-2.5,14-5,21-7.4V617.7c-7.1,2.5-14.1,5-21,7.5V750.7z M3081.3,742.9c7.1,2.4,14.1,4.8,21,7.3V624.8
								c-7.1-2.6-14-5.1-21-7.5V742.9z M2200.1,734.3c7.1-2.2,14-4.3,21-6.3V601.9c-7.1,2.1-14,4.3-21,6.5V734.3z M3032.4,727.6
								c7,2.1,14,4.1,21,6.3V608c-6.9-2.2-14-4.4-21-6.5V727.6z M2249,720.2c7-1.8,14-3.6,21-5.4V588.3c-7,1.8-14,3.6-21,5.6V720.2z
								 M2983.4,714.5c7.1,1.7,14.1,3.6,21,5.4V593.6c-7-1.9-14-3.7-21-5.6V714.5z M2298,708.1c6.9-1.6,13.9-3.1,21-4.6V576.9
								c-7.1,1.5-14,3.1-21,4.7V708.1z M2934.4,703.4c7.1,1.4,14,3,21,4.5V581.3c-6.9-1.6-14-3.2-21-4.7V703.4z M2346.9,698
								c7-1.3,14-2.5,21-3.8v-127c-7.1,1.3-14,2.5-21,3.9V698z M2885.5,694.1c7,1.2,14,2.5,21,3.7V570.9c-7.1-1.3-14-2.6-21-3.9
								V694.1z M2395.9,689.7c6.9-1,14-2.1,21-3V559.5c-6.9,1-14,2-21,3.1V689.7z M2836.5,686.6c7.1,1,14,2,21,3v-127
								c-7-1.1-14-2.1-21-3.1V686.6z M2444.9,683.1c7.1-0.8,14-1.6,21-2.3V553.5c-6.9,0.7-14,1.5-21,2.4V683.1z M2787.6,680.8
								c7.1,0.7,14,1.5,21,2.3V555.8c-7-0.9-14-1.7-21-2.4V680.8z M2493.9,678.2c7.1-0.6,14.1-1.2,21-1.7V549.1
								c-7,0.5-14,1.1-21,1.7V678.2z M2738.7,676.6c7.1,0.5,14,1,21,1.7V550.7c-7.1-0.6-14-1.2-21-1.7V676.6z M2542.8,674.9
								c7.1-0.4,14.1-0.7,21-1V546.3c-7.1,0.3-14,0.6-21,1V674.9z M2689.7,673.9c7,0.2,14,0.6,21,1V547.2c-7.1-0.4-14.1-0.7-21-1
								V673.9z M2591.7,673.1c7-0.2,14-0.2,21-0.3V545.1c-7,0.1-14,0.2-21,0.3V673.1z M2640.7,672.8c7,0.1,14,0.2,21,0.3V545.4
								c-7-0.2-14-0.2-21-0.3V672.8z"/>
							<path class="st17" d="M3011.4,1496.9c-18.6-35.9-52.3-69.8-101.3-98.1c-157.2-90.8-414.3-90.8-571.2,0
								c-48.6,28.1-82.1,61.7-100.5,97.5C2481.9,1563.4,2768,1563.6,3011.4,1496.9z"/>
							<path class="st18" d="M3255.1,669.4c-347.3-200.5-914.9-200.5-1261.4,0c-207,119.8-290.1,284.9-249.3,441.1
								c16.7,64.2,54.4,126.9,113.1,184.2c34.3,33.5,75.6,65.3,124.3,94.4c4.4,2.7,9,5.3,13.6,8c34.1,19.5,69.4,36.9,105.7,51.9
								c39.9,16.7,80.6,30.9,122.2,42.9c251.8,73,552.3,73.2,804.1,0.6c41.6-11.9,82.3-26.2,122.2-42.7
								c36.8-15.2,72.6-32.8,107.2-52.7c4-2.3,8.1-4.7,12.1-7.1c48.5-29.1,89.9-60.7,124.2-94.2c58.7-57.3,96.3-119.9,113.1-184
								C3546.8,955.3,3463.2,789.6,3255.1,669.4z M3436.9,1093.7c-13.8,52.8-45.4,103.6-93.9,151c-30.7,30.1-68,58.4-111,84.1
								c-3.6,2.2-7.2,4.3-10.8,6.3c-32,18.3-65.1,34.7-99.2,48.8c-37.3,15.5-75.6,28.9-114.5,40c-117,33.7-248.8,51.5-381.3,51.5
								c-133.2,0-265.7-18-383.3-52.1c-38.9-11.2-77.1-24.6-114.4-40.1c-33.5-14-66.1-30-97.7-48.1c-4.2-2.4-8.2-4.8-12.3-7.2
								c-43.1-25.9-80.3-54.2-111.2-84.3c-48.5-47.5-80.2-98.3-93.9-151.2c-34.1-130.4,44.6-262.2,216-361.4
								c156.9-90.8,368.1-140.8,594.6-140.8s438,50,595.4,140.8c89,51.4,155.4,113.7,192,180.2
								C3444.3,971.2,3452.9,1032.5,3436.9,1093.7z"/>
							<path class="st19" d="M2174,1611.1v45.8c-44.3-15.4-87.5-33.9-129.4-55.1v-53.4c0-30.8,31.5-51.3,59.8-39.3l0,0
								C2146.3,1525.5,2173.9,1566,2174,1611.1z"/>
							<path class="st20" d="M2104.4,1509.1L2104.4,1509.1c-11.5-5-24.7-4.7-35.9,1c-9.3,8.1-14.7,19.8-14.6,32.1v53.4
								c38.9,19.8,79,37.1,120.1,51.8v-36.3C2173.9,1566,2146.3,1525.6,2104.4,1509.1z"/>
							<path class="st19" d="M2432.7,1660.9v56.9c-43.9-5.9-87.1-13.7-129.3-23.6v-52.8c0-36.8,29.6-61.5,65.7-55l0.7,0.2l0.6,0.1
								C2406.4,1593.1,2432.6,1624.3,2432.7,1660.9z"/>
							<path class="st20" d="M2370.4,1586.7l-0.6-0.1l-0.7-0.2c-25-4.5-46.9,5.9-58,24.9c-3.2,7.5-4.8,15.7-4.7,23.9v52.7
								c41.2,9.5,83.4,17.2,126.2,23.1v-50.2C2432.7,1624.3,2406.4,1593.1,2370.4,1586.7z"/>
							<path class="st19" d="M2691.4,1673.7v56.7c-43.1,1.5-86.4,1.2-129.4-0.9V1675c0.1-36.1,29.3-65.2,65.4-65.2
								c0.1,0,0.2,0,0.2,0h0.1C2662.9,1610,2691.4,1638.5,2691.4,1673.7z"/>
							<path class="st20" d="M2627.7,1609.9L2627.7,1609.9c-36.2-0.2-65.5,28.9-65.7,64.9c0,0.1,0,0.2,0,0.2v48.3
								c43.1,2.1,86.3,2.4,129.4,0.9v-50.5C2691.4,1638.5,2662.9,1610,2627.7,1609.9z"/>
							<path class="st19" d="M1847.9,1385.9v71.2c20.7,22.6,43.2,43.5,67.3,62.4v-76.8c0-27.2-11.5-53.1-31.7-71.4
								c-0.3-0.2-0.6-0.6-0.9-0.8C1869.3,1358.6,1847.9,1367.9,1847.9,1385.9z"/>
							<path class="st20" d="M1883.5,1371.4c-0.3-0.2-0.6-0.6-0.9-0.8c-3.6-6.7-11.8-9.2-18.4-5.6c-5.3,2.9-8.2,8.9-7,14.7v71.2
								c18,19.7,37.3,38,58,54.9v-63C1915.2,1415.6,1903.7,1389.7,1883.5,1371.4z"/>
							<path class="st19" d="M3078.8,1611.1v45.8c44.2-15.4,87.4-33.9,129.1-55.1v-53.4c0-30.8-31.4-51.3-59.6-39.3l0,0
								C3106.4,1525.6,3078.8,1566,3078.8,1611.1z"/>
							<path class="st20" d="M3181,1508.7c-10.5-4.3-22.4-4.1-32.8,0.4l0,0c-41.9,16.5-69.4,56.9-69.4,102v40.5
								c42-14.9,83.1-32.6,122.8-52.9v-53.4C3201.7,1530.3,3193.9,1516.4,3181,1508.7z"/>
							<path class="st19" d="M2820.7,1660.9v56.9c43.8-5.9,86.9-13.7,129-23.6v-52.8c0-36.8-29.5-61.5-65.6-55l-0.7,0.2l-0.6,0.1
								C2847,1593.1,2820.8,1624.4,2820.7,1660.9z"/>
							<path class="st20" d="M2884.2,1586.5l-0.7,0.2l-0.6,0.1c-35.9,6.4-62.1,37.7-62.1,74.1v50.3c42.7-5.9,84.8-13.6,125.9-23.1
								v-52.7c0.1-8.2-1.6-16.3-4.8-23.9C2930.9,1592.4,2909.1,1582,2884.2,1586.5z"/>
							<path class="st19" d="M3404,1385.9v71.2c-20.7,22.6-43.1,43.5-67.2,62.4v-76.8c0-27.2,11.5-53.1,31.6-71.4l0.9-0.8
								C3382.8,1358.6,3404,1367.9,3404,1385.9z"/>
							<path class="st20" d="M3336.9,1508.9c20.5-16.9,39.9-35.2,57.8-54.9v-71.2c2.1-7.6-2.4-15.5-10-17.5
								c-5.7-1.6-11.8,0.6-15.3,5.3l-0.9,0.8c-20.1,18.2-31.6,44.2-31.6,71.4V1508.9L3336.9,1508.9z"/>
							<path class="st19" d="M2174,1778.6v45.9c-44.3-15.4-87.5-33.9-129.4-55.1V1716c0-30.8,31.5-51.3,59.8-39.3l0,0
								C2146.3,1693.1,2173.9,1733.6,2174,1778.6z"/>
							<path class="st20" d="M2104.4,1676.6L2104.4,1676.6c-11.5-5-24.7-4.7-35.9,1c-9.3,8.1-14.7,19.8-14.6,32.1v53.4
								c38.9,19.8,79,37.1,120.1,51.8v-36.3C2174,1733.6,2146.3,1693.1,2104.4,1676.6z"/>
							<path class="st19" d="M2432.7,1828.4v56.9c-43.9-5.9-87.1-13.7-129.3-23.6V1809c0-36.8,29.6-61.5,65.7-55l0.7,0.2l0.6,0.1
								C2406.4,1760.7,2432.6,1791.9,2432.7,1828.4z"/>
							<path class="st20" d="M2370.4,1754.3l-0.6-0.1l-0.7-0.2c-25-4.5-46.9,5.9-58,24.9c-3.2,7.5-4.8,15.7-4.7,23.9v52.7
								c41.2,9.5,83.4,17.2,126.2,23.1v-50.3C2432.6,1791.9,2406.4,1760.7,2370.4,1754.3z"/>
							<path class="st19" d="M2691.4,1841.3v56.7c-43.1,1.5-86.4,1.2-129.4-0.9v-54.5c0.1-36.1,29.3-65.2,65.4-65.2
								c0.1,0,0.2,0,0.2,0h0.1C2662.9,1777.5,2691.4,1806.1,2691.4,1841.3z"/>
							<path class="st20" d="M2627.7,1777.5L2627.7,1777.5c-36.2-0.2-65.5,28.9-65.7,64.9c0,0.1,0,0.2,0,0.2v48.3
								c43.1,2.1,86.3,2.4,129.4,0.9v-50.5C2691.4,1806.1,2662.9,1777.5,2627.7,1777.5z"/>
							<path class="st19" d="M1847.9,1553.5v71.2c20.7,22.6,43.2,43.5,67.3,62.4v-76.8c0-27.2-11.5-53.1-31.7-71.4
								c-0.3-0.2-0.6-0.6-0.9-0.8C1869.3,1526.1,1847.9,1535.5,1847.9,1553.5z"/>
							<path class="st20" d="M1883.5,1539c-0.3-0.2-0.6-0.6-0.9-0.8c-3.6-6.7-11.8-9.2-18.4-5.6c-5.3,2.9-8.2,8.9-7,14.7v71.2
								c18,19.7,37.3,38,58,54.9v-63C1915.2,1583.1,1903.7,1557.2,1883.5,1539z"/>
							<path class="st19" d="M3078.8,1778.6v45.9c44.2-15.4,87.4-33.9,129.1-55.1V1716c0-30.8-31.4-51.3-59.6-39.3l0,0
								C3106.4,1693.1,3078.8,1733.6,3078.8,1778.6z"/>
							<path class="st20" d="M3181,1676.2c-10.5-4.3-22.4-4.1-32.8,0.4l0,0c-41.9,16.5-69.4,56.9-69.4,102v40.5
								c42-14.9,83.1-32.6,122.8-52.9v-53.4C3201.7,1697.8,3193.9,1683.9,3181,1676.2z"/>
							<path class="st19" d="M2820.7,1828.4v56.9c43.8-5.9,86.9-13.7,129-23.6V1809c0-36.8-29.5-61.5-65.6-55l-0.7,0.2l-0.6,0.1
								C2847,1760.7,2820.8,1791.9,2820.7,1828.4z"/>
							<path class="st20" d="M2884.2,1754l-0.7,0.2l-0.6,0.1c-35.9,6.4-62.1,37.7-62.1,74.1v50.3c42.7-5.9,84.8-13.6,125.9-23.1
								v-52.8c0.1-8.2-1.6-16.3-4.8-23.9C2930.9,1760,2909.1,1749.5,2884.2,1754z"/>
							<path class="st19" d="M3404,1553.5v71.2c-20.7,22.6-43.1,43.5-67.2,62.4v-76.8c0-27.2,11.5-53.1,31.6-71.4l0.9-0.8
								C3382.8,1526.1,3404,1535.5,3404,1553.5z"/>
							<path class="st20" d="M3336.9,1676.5c20.5-16.9,39.9-35.2,57.8-54.9v-71.2c2.1-7.6-2.4-15.5-10-17.5
								c-5.7-1.6-11.8,0.6-15.3,5.3l-0.9,0.8c-20.1,18.2-31.6,44.2-31.6,71.4V1676.5L3336.9,1676.5z"/>
							<path class="st19" d="M2174,1936.9v36.3c-2.7-1-5.5-2-8.2-3c-0.1,0-0.2,0-0.2-0.1c-41.4-14.2-81.8-31-121-50.3v-45.7
								c-0.1-16.3,9.2-31.2,23.9-38.3c0.6-0.3,1.1-0.6,1.7-0.8c1.7-0.7,3.4-1.3,5.2-1.9c0.7-0.2,1.4-0.4,2.1-0.6
								c1.3-0.3,2.7-0.6,4-0.8l1.7-0.2c0.7-0.1,1.3-0.1,2.1-0.2c6.6-0.3,13.1,0.9,19.1,3.5l0,0
								C2146.3,1851.3,2173.9,1891.8,2174,1936.9z"/>
							<path class="st20" d="M2174,1936.9v36.3c-2.7-1-5.5-2-8.2-3c-0.1,0-0.2,0-0.2-0.1c-38.2-14-75.5-30.2-111.7-48.7V1868
								c-0.1-12.3,5.2-24,14.6-32.1c0.6-0.3,1.1-0.6,1.7-0.8c1.7-0.7,3.4-1.3,5.2-1.9c0.7-0.2,1.4-0.4,2.1-0.6
								c1.3-0.3,2.7-0.6,4-0.8l1.7-0.2c0.7-0.1,1.3-0.1,2.1-0.2c6.6-0.3,13.1,0.9,19.1,3.5l0,0
								C2146.3,1851.3,2173.9,1891.8,2174,1936.9z"/>
							<path class="st19" d="M2432.7,1986.7v44.5c-42.8-5.4-85-12.6-126.2-21.6c-1-0.2-2.1-0.5-3.1-0.7v-41.6
								c-0.2-10.5,2.5-20.9,7.9-30.1c0.6-1,1.1-1.8,1.7-2.7c0.2-0.2,0.3-0.5,0.5-0.7c0.6-0.8,1.1-1.6,1.7-2.3
								c1.3-1.8,2.9-3.6,4.5-5.2c0.8-0.8,1.6-1.6,2.5-2.3s1.7-1.4,2.6-2.1c0.1,0,0.1-0.1,0.2-0.1c0.9-0.6,1.7-1.2,2.5-1.7
								c0.1-0.1,0.2-0.2,0.3-0.2c0.9-0.6,1.7-1.1,2.7-1.6c0.8-0.5,1.7-1,2.5-1.3c1.2-0.6,2.4-1.2,3.6-1.7c1-0.4,1.9-0.7,2.9-1.1
								c0.2-0.1,0.6-0.2,0.8-0.2c0.9-0.3,1.7-0.6,2.6-0.8c0.2,0,0.3-0.1,0.4-0.2c1-0.2,2.1-0.5,3.2-0.7h0.2c1.1-0.2,2.3-0.4,3.5-0.6
								c0.1,0,0.2,0,0.4-0.1c1-0.1,2.1-0.2,3.1-0.3c0.2,0,0.2,0,0.4,0c1.2-0.1,2.4-0.2,3.6-0.2c3.8,0,7.7,0.4,11.4,1l0.7,0.2
								c0.2,0,0.4,0.1,0.6,0.2C2406.3,1919,2432.6,1950.1,2432.7,1986.7z"/>
							<path class="st20" d="M2432.7,1986.7v44.5c-42.8-5.4-85-12.6-126.2-21.6v-48.4c-0.1-8.2,1.6-16.3,4.8-23.8
								c0.6-1,1.1-1.8,1.7-2.7c0.2-0.2,0.3-0.5,0.5-0.7c0.6-0.8,1.1-1.6,1.7-2.3c1.3-1.8,2.9-3.6,4.5-5.2c0.8-0.8,1.6-1.6,2.5-2.3
								s1.7-1.4,2.6-2.1c0.1,0,0.1-0.1,0.2-0.1c0.9-0.6,1.7-1.2,2.5-1.7c0.1-0.1,0.2-0.2,0.3-0.2c0.9-0.6,1.7-1.1,2.7-1.6
								c0.8-0.5,1.7-1,2.5-1.3c1.2-0.6,2.4-1.2,3.6-1.7c1-0.4,1.9-0.7,2.9-1.1c0.2-0.1,0.6-0.2,0.8-0.2c0.9-0.3,1.7-0.6,2.6-0.8
								c0.2,0,0.3-0.1,0.4-0.2c1-0.2,2.1-0.5,3.2-0.7h0.2c1.1-0.2,2.3-0.4,3.5-0.6c0.1,0,0.2,0,0.4-0.1c1-0.1,2.1-0.2,3.1-0.3
								c0.2,0,0.2,0,0.4,0c1.2-0.1,2.4-0.2,3.6-0.2c3.8,0,7.7,0.4,11.4,1l0.7,0.2c0.2,0,0.4,0.1,0.6,0.2
								C2406.3,1919,2432.6,1950.1,2432.7,1986.7z"/>
							<path class="st20" d="M2691.4,1999.5v42.4c-43.1,1.7-86.4,1.8-129.4,0v-41.2c0.1-36.1,29.3-65.2,65.3-65.2c0.1,0,0.2,0,0.2,0
								h0.1C2662.9,1935.7,2691.4,1964.3,2691.4,1999.5z"/>
							<path class="st19" d="M1915.2,1768.6v72.1c-23.9-18-46.4-37.8-67.3-59.2v-69.7c-0.1-9.9,7-18.4,16.7-20.3l0,0
								c0.8-0.2,1.7-0.3,2.5-0.4c2.4-0.2,4.8,0,7.1,0.6c0.6,0.2,1.2,0.4,1.7,0.6c2.5,1,4.7,2.3,6.7,4.1l0.9,0.8
								C1903.6,1715.5,1915.2,1741.4,1915.2,1768.6z"/>
							<path class="st20" d="M1883.5,1697.3l-0.9-0.8c-3.6-6.7-11.8-9.2-18.4-5.6c-5.3,2.9-8.2,8.9-7,14.7v71.2
								c18,19.7,37.3,38,58,54.9v-63C1915.2,1741.4,1903.7,1715.5,1883.5,1697.3z"/>
							<path class="st19" d="M3207.9,1874.2v45.5c-2.1,1-4.1,2.1-6.2,3c-39.8,19.3-80.9,36.1-122.8,50.1v-35.9
								c0-45,27.5-85.5,69.4-102l0,0c0.7-0.3,1.4-0.6,2.1-0.9c1.4-0.6,2.8-1,4.3-1.3c1.4-0.4,2.9-0.6,4.3-0.9
								c3.5-0.6,7-0.6,10.5-0.3c0,0,0,0,0.1,0c3.3,0.3,6.7,1,9.8,2.2c0.6,0.2,1.3,0.5,1.9,0.7
								C3197.3,1840.9,3207.9,1856.7,3207.9,1874.2z"/>
							<path class="st20" d="M3201.7,1871.1v51.6c-39.8,19.3-80.9,36.1-122.8,50.1v-35.9c0-45,27.5-85.5,69.4-102l0,0
								c0.7-0.3,1.4-0.6,2.1-0.9c1.4-0.6,2.9-1,4.3-1.3c1.4-0.4,2.9-0.6,4.3-0.9c3.5-0.6,7-0.6,10.5-0.3c0,0,0,0,0.1,0
								c3.3,0.3,6.7,1.1,9.8,2.2c0.6,0.2,1.3,0.5,1.9,0.7C3193.9,1842.2,3201.7,1856.1,3201.7,1871.1z"/>
							<path class="st19" d="M2949.8,1967.3v41.4c-1,0.2-2.1,0.5-3.1,0.7c-41.2,9-83.3,16.3-125.9,21.7v-44.4
								c0-36.5,26.2-67.7,62.1-74.1c0.2-0.1,0.4-0.1,0.6-0.2l0.7-0.2c3.8-0.7,7.6-1,11.4-1c1.2,0,2.4,0,3.6,0.2c0.2,0,0.3,0,0.5,0
								c1,0.1,2,0.2,3,0.3c0.2,0,0.3,0,0.5,0.1c1.1,0.2,2.3,0.3,3.4,0.6c0.1,0,0.2,0,0.2,0c1,0.2,2.1,0.5,3.1,0.7
								c0.1,0,0.3,0.1,0.4,0.2c1,0.2,2,0.6,2.9,0.9c0.1,0,0.2,0.1,0.3,0.1c0.7,0.2,1.4,0.5,2.1,0.7c0.5,0.2,1,0.3,1.4,0.6
								c1.2,0.5,2.4,1,3.5,1.6c0.6,0.3,1.1,0.6,1.7,0.9c0.5,0.2,1,0.5,1.3,0.8c2.5,1.4,4.8,3.1,7.1,5c0.4,0.3,0.7,0.6,1,1
								c0.4,0.3,0.8,0.7,1.2,1.1c0.5,0.4,0.9,0.8,1.3,1.3c2,2,3.8,4.2,5.4,6.5c0.3,0.4,0.6,0.8,0.9,1.2c0.6,0.8,1,1.6,1.5,2.5
								C2947.2,1946.2,2949.9,1956.7,2949.8,1967.3z"/>
							<path class="st20" d="M2946.7,1961.1v48.3c-41.2,9-83.3,16.3-125.9,21.7v-44.4c0-36.5,26.2-67.7,62.1-74.1
								c0.2-0.1,0.4-0.1,0.6-0.2l0.7-0.2c3.8-0.7,7.6-1,11.4-1c1.2,0,2.4,0,3.6,0.2c0.2,0,0.3,0,0.5,0c1,0.1,2,0.2,3,0.3
								c0.2,0,0.3,0,0.5,0.1c1.1,0.2,2.3,0.3,3.4,0.6c0.1,0,0.2,0,0.2,0c1,0.2,2.1,0.5,3.1,0.7c0.1,0,0.3,0.1,0.4,0.2
								c1,0.2,2,0.6,2.9,0.9c0.1,0,0.2,0.1,0.3,0.1c0.7,0.2,1.4,0.5,2.1,0.7c0.5,0.2,1,0.3,1.4,0.6c1.2,0.5,2.4,1,3.5,1.6
								c0.6,0.3,1.1,0.6,1.7,0.9c0.5,0.2,1,0.5,1.3,0.8c2.5,1.4,4.8,3.1,7.1,5c0.4,0.3,0.7,0.6,1,1c0.4,0.3,0.8,0.7,1.2,1.1
								c0.5,0.4,0.9,0.8,1.3,1.3c2,2,3.8,4.2,5.4,6.5c0.3,0.4,0.6,0.8,0.9,1.2c0.6,0.8,1,1.6,1.5,2.5
								C2945.1,1944.7,2946.7,1952.8,2946.7,1961.1z"/>
							<path class="st19" d="M3404,1711.8v69.2c-20.9,21.5-43.2,41.4-67.1,59.4v-71.8c0-27.2,11.5-53.1,31.6-71.4
								c0.3-0.2,0.6-0.6,0.9-0.8c1.1-1,2.4-1.9,3.6-2.7c1-0.6,1.9-1,2.9-1.4c0,0,0,0,0.1,0C3388.8,1687.5,3404,1696.5,3404,1711.8z"
								/>
							<path class="st20" d="M3336.9,1834.8c20.5-16.9,39.9-35.2,57.8-54.9v-71.2c2.1-7.6-2.4-15.5-10-17.5
								c-5.7-1.6-11.8,0.6-15.3,5.3l-0.9,0.8c-20.1,18.2-31.6,44.2-31.6,71.4V1834.8L3336.9,1834.8z"/>
							<path class="st16" d="M2648.5,1331.1v-39.6H2602v39.5C2617.4,1330.6,2633,1330.6,2648.5,1331.1z"/>
							<path class="st17" d="M2648.5,1331.1c-3.6-4.4-7.2-8.8-10.9-13.2h-24.8l-10.9,13.2
								C2617.3,1334.2,2633.1,1334.2,2648.5,1331.1z"/>
						</g>
					</g>
				</g>
			</g>
		</g>
	</g>
</g>
</svg>
