<?xml version="1.0" encoding="utf-8"?>
<!-- Generator: Adobe Illustrator 23.0.6, SVG Export Plug-In . SVG Version: 6.00 Build 0)  -->
<svg version="1.1" id="Calque_1" xmlns="http://www.w3.org/2000/svg" xmlns:xlink="http://www.w3.org/1999/xlink" x="0px" y="0px"
	 viewBox="0 0 4817.8 4550" style="enable-background:new 0 0 4817.8 4550;" xml:space="preserve">
<style type="text/css">
	.st0{fill:url(#SVGID_1_);}
	.st1{opacity:0.6;}
	.st2{fill:#CCE8B8;}
	.st3{fill:#E4F2BB;}
	.st4{opacity:0.8;fill:#717C66;enable-background:new    ;}
	.st5{fill:#E3EAE7;}
	.st6{fill:#D0D6DA;}
	.st7{fill:#CBD4CC;}
	.st8{fill:#AEB9AB;}
	.st9{fill:#747E6D;}
	.st10{fill:#96A18E;}
	.st11{fill:#F1F8FD;}
	.st12{fill:#FFFFFF;}
	.st13{fill:#B4ECF1;}
	.st14{fill:#E4D8BD;}
	.st15{fill:#F1E993;}
	.st16{fill:none;}
	.st17{fill:#FBFAE4;}
	.st18{fill:url(#SVGID_4_);}
	.st19{opacity:0.6;fill:url(#SVGID_5_);enable-background:new    ;}
	.st20{fill:url(#SVGID_6_);}
	.st21{opacity:0.6;fill:url(#SVGID_7_);enable-background:new    ;}
	.st22{opacity:0.3;fill:url(#SVGID_8_);enable-background:new    ;}
	.st23{opacity:0.6;fill:url(#SVGID_9_);enable-background:new    ;}
	.st24{fill:url(#SVGID_10_);}
	.st25{fill:url(#SVGID_11_);}
</style>
<title>about_us_arthur_swordFichier 1</title>
<g>
	<g id="Calque_2-2">
		
			<linearGradient id="SVGID_1_" gradientUnits="userSpaceOnUse" x1="2385.0579" y1="1080" x2="2385.0579" y2="-3470" gradientTransform="matrix(1 0 0 1 0 3470)">
			<stop  offset="0.3" style="stop-color:#49BFAA"/>
			<stop  offset="0.66" style="stop-color:#54ABAE"/>
			<stop  offset="1" style="stop-color:#6194B2"/>
		</linearGradient>
		<circle class="st0" cx="2385.1" cy="2275" r="2275"/>
		<g class="st1">
			<path class="st2" d="M1124,3727.2c-692.8-400.6-692.8-1056,0-1456.6s1827.5-400.6,2521.5,0s694,1056,0,1456.6
				S1816.8,4127.8,1124,3727.2z"/>
		</g>
		<path class="st2" d="M1252.9,3390.5c-622.1-359.6-622.1-948.1,0-1307.8s1640.8-359.6,2263.9,0s623.1,948.1,0,1307.8
			S1875,3750.2,1252.9,3390.5z"/>
		<path class="st3" d="M1386,3046.2c-548.9-317.4-548.9-836.7,0-1154.1s1448-317.4,1997.8,0s549.8,836.7,0,1154.1
			S1935,3363.6,1386,3046.2z"/>
		<path class="st4" d="M3273.3,1917.3l-32.1-12.6l80.1-46.5c-32.5-16.6-66-32.3-100.6-46.9l-87.7,51l-120.4-47.2l-199,30.7
			l-282.4,79.8l-449.3,176.8l-22.3,181.6l177.3,150.7l115.1,18.1l375.8,119.7l344.7,53.4l325.4-442.8
			c22.2-35.7,44.5-71.4,66.7-107.1L3273.3,1917.3z"/>
		<path class="st5" d="M1949.7,1845.1l206,119.1l257,29.2l360.4-148.3l-83.2-178.3l-328.2-59.2l-308.7,59.2L1949.7,1845.1z"/>
		<polygon class="st6" points="2334.3,1740.2 2350.2,1755.5 2398.6,1783.5 2425.2,1792.7 2653.3,1660.2 2515,1635.2 		"/>
		<polygon class="st7" points="1847,2142.5 1949.7,1845.1 2155.7,1964.2 		"/>
		<polygon class="st7" points="1744.4,2676.7 1847,2142.5 2155.7,1964.2 2412.7,1993.4 2670.4,2142.5 2773,2795.9 2361.7,2915 
			2258.3,2974.2 1949.7,2915 		"/>
		<polygon class="st8" points="2773,2082.6 2773,1845.1 2412.7,1993.4 2670.4,2142.5 		"/>
		<polygon class="st9" points="3081.7,2617.5 2773,1845.1 2773,2082.6 		"/>
		<polygon class="st10" points="2773,2795.9 3081.7,2617.5 2773,2082.6 2670.4,2142.5 		"/>
		<polygon class="st10" points="2258.3,2974.2 2412.7,1993.4 2361.7,2915 		"/>
		<path class="st8" d="M2155.7,1964.2l-206,950.8c-34.2-257.5-68.4-515-102.6-772.4L2155.7,1964.2z"/>
		<polygon class="st11" points="2425.5,978.3 2297.4,978.3 2297.4,1792.7 2327.3,1800.1 2395.4,1800.1 2425.5,1792.7 		"/>
		<polygon class="st12" points="2386,1345.4 2386,975.3 2336.9,975.3 2336.9,1345.4 2361.4,1380.9 		"/>
		<polygon class="st13" points="2346.3,1332.7 2346.3,1341.9 2361.4,1363.9 2376.6,1341.9 2376.6,1332.7 2361.4,1310.7 		"/>
		<rect x="2329.5" y="593.9" class="st14" width="62.2" height="306.4"/>
		<polygon class="st15" points="2361,528 2304,593.9 2417.9,593.9 		"/>
		<rect x="2656.9" y="1463" class="st16" width="16.9" height="16.8"/>
		<circle class="st17" cx="2665.4" cy="1471.4" r="8.4"/>
		<rect x="1993.6" y="1425.6" class="st16" width="30.4" height="30.4"/>
		<circle class="st17" cx="2008.9" cy="1440.8" r="15.2"/>
		<rect x="2709.5" y="1116.1" class="st16" width="12.8" height="12.8"/>
		<circle class="st17" cx="2715.9" cy="1122.5" r="6.4"/>
		<rect x="2542.1" y="710" class="st16" width="29.1" height="29.2"/>
		<circle class="st17" cx="2556.7" cy="724.6" r="14.6"/>
		<rect x="1963.9" y="1701.8" class="st16" width="10.4" height="10.4"/>
		<circle class="st17" cx="1969.1" cy="1707.1" r="5.2"/>
		<rect x="2156.6" y="1876.3" class="st16" width="22.8" height="22.8"/>
		
			<ellipse transform="matrix(0.1602 -0.9871 0.9871 0.1602 -42.5375 3725.2031)" class="st17" cx="2168" cy="1887.6" rx="11.4" ry="11.4"/>
		<rect x="2903.1" y="1796.3" class="st16" width="35.7" height="35.7"/>
		<circle class="st17" cx="2920.9" cy="1814.2" r="17.9"/>
		<rect x="3056" y="2166.5" class="st16" width="5.3" height="5.3"/>
		<circle class="st17" cx="3058.7" cy="2169.2" r="2.7"/>
		<rect x="1647" y="2177.7" class="st16" width="32" height="32"/>
		<circle class="st17" cx="1663" cy="2193.7" r="16"/>
		<rect x="1990.7" y="1211.4" class="st16" width="18" height="18"/>
		<circle class="st17" cx="1999.7" cy="1220.4" r="9"/>
		<rect x="2131.7" y="844.3" class="st16" width="29.9" height="29.9"/>
		
			<ellipse transform="matrix(0.1602 -0.9871 0.9871 0.1602 954.5126 2840.4954)" class="st17" cx="2146.6" cy="859.3" rx="14.9" ry="14.9"/>
		<polygon class="st15" points="2571.2,980.5 2548.8,941.8 2476.4,941.8 2466.4,941.8 2463.4,941.8 2439.3,900 2366,900 2356.9,900 
			2283.6,900 2259.5,941.8 2256.5,941.8 2249.2,941.8 2174.1,941.8 2151.7,980.5 		"/>
		<g>
			<g>
				<defs>
					<circle id="SVGID_2_" cx="2385.1" cy="2275" r="2275"/>
				</defs>
				<clipPath id="SVGID_3_">
					<use xlink:href="#SVGID_2_"  style="overflow:visible;"/>
				</clipPath>
			</g>
		</g>
	</g>
</g>
<g>
	
		<linearGradient id="SVGID_4_" gradientUnits="userSpaceOnUse" x1="-2234.0161" y1="3060.3252" x2="-2829.5361" y2="3655.8452" gradientTransform="matrix(0.92 0.39 0.39 -0.92 1556.6427 5218.686)">
		<stop  offset="0" style="stop-color:#ECB7A0"/>
		<stop  offset="0.61" style="stop-color:#F3DF93"/>
		<stop  offset="1" style="stop-color:#F6F38D"/>
	</linearGradient>
	<circle class="st18" cx="538.7" cy="1145.8" r="421.2"/>
	
		<linearGradient id="SVGID_5_" gradientUnits="userSpaceOnUse" x1="-1310.7369" y1="3058.5757" x2="-1391.457" y2="3359.9958" gradientTransform="matrix(0.84 0.55 0.55 -0.84 -92.0946 4586.9404)">
		<stop  offset="0" style="stop-color:#ECB7A0"/>
		<stop  offset="0.32" style="stop-color:#ECA88A"/>
		<stop  offset="0.34" style="stop-color:#ECAB8A"/>
		<stop  offset="0.78" style="stop-color:#F3DF8C"/>
		<stop  offset="1" style="stop-color:#F6F38D"/>
	</linearGradient>
	<path class="st19" d="M1073.8,1372.4c17.5-40.7-28.8-104.5-117.7-172.7c-0.6,5-1.3,10-1.9,15c-0.6,3.8-1.3,6.9-1.9,10.6
		c-1.3,5-1.9,9.4-3.1,14.4c38.8,39.4,56.3,74.5,45.7,100.1c-29.4,68.9-257.2,38.2-508.8-68.8s-433-249.1-403.6-317.9
		c10.6-25,48.2-36.9,103.3-36.9c2.5-4.4,5.6-8.1,8.1-11.9c1.9-3.1,4.4-5.6,6.3-8.8c3.1-3.8,6.3-8.1,9.4-11.9
		C98.8,868,21.2,878.6,3.7,919.9c-34.4,80.7,177.7,247.2,473.1,372.4S1040,1453.1,1073.8,1372.4z"/>
	
		<linearGradient id="SVGID_6_" gradientUnits="userSpaceOnUse" x1="3976.8389" y1="-2058.8538" x2="3445.6213" y2="-2590.0913" gradientTransform="matrix(0.9841 -0.1776 0.1776 0.9841 1067.5626 4167.2275)">
		<stop  offset="0" style="stop-color:#454DBF"/>
		<stop  offset="1" style="stop-color:#9BE8D2"/>
	</linearGradient>
	<circle class="st20" cx="4307" cy="1220.6" r="375.6"/>
	
		<linearGradient id="SVGID_7_" gradientUnits="userSpaceOnUse" x1="3841.8057" y1="-1969.4069" x2="3578.9458" y2="-2683.8069" gradientTransform="matrix(0.9841 -0.1776 0.1776 0.9841 1067.5626 4167.2275)">
		<stop  offset="0" style="stop-color:#454DBF"/>
		<stop  offset="1" style="stop-color:#9BE8D2"/>
	</linearGradient>
	<path class="st21" d="M4645.2,1056.8c2,4,3.7,8,5.7,12.2c79.3,9.5,130.5,31.7,136.4,65.1c13,72.3-191.3,169.9-456.4,217.7
		s-491.1,27.9-504.1-44.4c-6-33.4,34.2-72.1,105-108.8c0.3-4.5,0.5-9,1-13.5c-90.5,42.4-143.2,88.3-136.2,127.5
		c14,77.1,253.7,98,535.5,47.1s498.8-154.4,485.1-231.2C4810.3,1089.7,4744.7,1065,4645.2,1056.8z"/>
	
		<linearGradient id="SVGID_8_" gradientUnits="userSpaceOnUse" x1="3784.0674" y1="-2127.2759" x2="3639.126" y2="-2521.1675" gradientTransform="matrix(0.9841 -0.1776 0.1776 0.9841 1067.5626 4167.2275)">
		<stop  offset="0" style="stop-color:#454DBF"/>
		<stop  offset="1" style="stop-color:#9BE8D2"/>
	</linearGradient>
	<path class="st22" d="M4651,1069c1.3,3,2.5,5.7,3.7,8.7c65.6,10.2,107.5,30.4,112.7,59.9c12.5,69.3-183.3,162.6-437.5,208.5
		s-470.4,26.9-482.9-42.4c-5.2-29.4,26.7-63.1,84.8-95.5c0-3.2,0.3-6.2,0.5-9.5c-71.1,36.7-111,75.3-105,108.8
		c13,72.3,238.7,92.3,503.8,44.4s469.6-145.4,456.7-217.7C4781.1,1100.7,4730,1078.7,4651,1069z"/>
	
		<linearGradient id="SVGID_9_" gradientUnits="userSpaceOnUse" x1="3755.9827" y1="-2157.4536" x2="3666.937" y2="-2489.7473" gradientTransform="matrix(0.9841 -0.1776 0.1776 0.9841 1067.5626 4167.2275)">
		<stop  offset="0" style="stop-color:#454DBF"/>
		<stop  offset="1" style="stop-color:#9BE8D2"/>
	</linearGradient>
	<path class="st23" d="M4654.7,1077.7c1.8,4,3.3,8,4.7,12.2c48.4,10.5,78.6,28.2,83.1,52.1c11.7,65.6-173.4,153.9-413.8,197.3
		c-240.4,43.4-445,25.4-456.7-40.2c-4.2-24,17.7-51.1,59.4-77.8c0-4.5,0-8.7,0.3-13c-57.9,32.4-90,66.1-84.8,95.5
		c12.5,69.3,228.7,88.3,482.9,42.4s450.2-139.2,437.5-208.3C4762,1108.4,4720.3,1087.9,4654.7,1077.7z"/>
	
		<linearGradient id="SVGID_10_" gradientUnits="userSpaceOnUse" x1="3432.2529" y1="-3523.2" x2="2932.563" y2="-4023.1602" gradientTransform="matrix(1 0 0 1 0 4367.0801)">
		<stop  offset="0" style="stop-color:#49BFAA"/>
		<stop  offset="1" style="stop-color:#CCE8B8"/>
	</linearGradient>
	<path class="st24" d="M3182.5,947.4c195.3,0,353.2-158.3,353.2-353.6s-158.3-353.2-353.6-353.2c-194.9,0-353.2,158.3-353.2,353.2
		C2829.3,789.1,2987.6,947.4,3182.5,947.4z"/>
	
		<linearGradient id="SVGID_11_" gradientUnits="userSpaceOnUse" x1="3182.9385" y1="-3582.98" x2="3182.9385" y2="-3949.533" gradientTransform="matrix(1 0 0 1 0 4367.0801)">
		<stop  offset="0" style="stop-color:#49BFAA"/>
		<stop  offset="1" style="stop-color:#CCE8B8;stop-opacity:0"/>
	</linearGradient>
	<path class="st25" d="M3562.9,602.9c-8.7-4.3-17.3-9-26.8-13.4v14.6c7.1,3.5,13.8,7.1,20.5,10.6c83.5,44.1,129.1,87.4,121.7,115.4
		s-68.1,43.3-162.6,41c-100.4-2-228.8-22.5-362.6-57.5c-296.5-77.2-480.4-187.4-466.2-242.1c6.7-26.4,60.2-41.4,146.9-41.4
		c11.4,0,23.2,0,35.8,0.8c2.4-3.9,2.8-9.1,5.5-12.2c-109.9-5.5-189.8,8.3-200.4,49.6c-20.5,78.4,225.6,192.9,475.6,257.9
		c134.6,35,264.2,55.5,365.8,57.9h17.3c69.7,0,147.3-9.5,157.9-51.2C3702.7,687.9,3627.8,637.5,3562.9,602.9z"/>
</g>
</svg>
