<svg xmlns="http://www.w3.org/2000/svg" viewBox="0 0 104 104"><defs><style>.cls-1{fill:#376eb7;}.cls-2{fill:#e1e1d9;}</style></defs><title>agenda_betaFichier 9</title><g id="Calque_2" data-name="Calque 2"><g id="Calque_1-2" data-name="Calque 1"><circle class="cls-1" cx="52" cy="52" r="52"/><polygon class="cls-2" points="65.77 37.96 64.38 35.54 59.87 35.54 59.25 35.54 59.06 35.54 57.56 32.94 54.59 32.94 54.59 13.88 56.23 13.88 52.68 9.78 49.14 13.88 50.72 13.88 50.72 32.94 47.87 32.94 46.36 35.54 46.17 35.54 45.72 35.54 41.05 35.54 39.65 37.96 48.72 37.96 48.72 88.53 52.71 97.41 56.7 88.53 56.7 37.96 65.77 37.96"/><path class="cls-2" d="M80.71,27a179.42,179.42,0,0,0-23.12-2.17v5.08h1.7l1.5,2.6h5.32L71,41H59.7V81.19A58.34,58.34,0,0,0,81.36,35.77,59.93,59.93,0,0,0,80.71,27Z"/><path class="cls-2" d="M45.72,41H34.46l4.85-8.42h5.32l1.5-2.6h1.59v-5.1A179.78,179.78,0,0,0,24,27a59.93,59.93,0,0,0-.65,8.74,58.35,58.35,0,0,0,22.36,46Z"/></g></g></svg>