<svg xmlns="http://www.w3.org/2000/svg" viewBox="0 0 104 104"><defs><style>.cls-1{fill:#49bfaa;}.cls-2{fill:#e1e1d9;}</style></defs><title>agenda_kickstarterFichier 10</title><g id="Calque_2" data-name="Calque 2"><g id="Calque_1-2" data-name="Calque 1"><circle class="cls-1" cx="52" cy="52" r="52"/><path class="cls-2" d="M69.45,87.7a8.6,8.6,0,0,1-1.6-.1,11.42,11.42,0,0,1-7.7-4.5h0L48.35,67.2V76A11.7,11.7,0,0,1,25,76V30a11.7,11.7,0,0,1,23.4,0v8.9l11.7-15.8a11.57,11.57,0,0,1,16.3-2.2h0a11.57,11.57,0,0,1,2.2,16.3L67,53l11.7,15.9A11.56,11.56,0,0,1,81,77.5a11.42,11.42,0,0,1-4.5,7.7,10.74,10.74,0,0,1-7,2.5Z"/></g></g></svg>