<svg xmlns="http://www.w3.org/2000/svg" xmlns:xlink="http://www.w3.org/1999/xlink" viewBox="0 0 304 304"><defs><style>.cls-1{fill:url(#Dégradé_sans_nom_606);}.cls-2{opacity:0.3;}.cls-3{fill:#fdffff;}.cls-4{fill:#fff7f3;}.cls-5{fill:#fff;}</style><linearGradient id="Dégradé_sans_nom_606" x1="44.52" y1="44.52" x2="259.48" y2="259.48" gradientUnits="userSpaceOnUse"><stop offset="0.01" stop-color="#fe8e8e"/><stop offset="0.49" stop-color="#f57a86"/><stop offset="1" stop-color="#ea607b"/></linearGradient></defs><title>award_cbc_tnFichier 12</title><g id="Calque_2" data-name="Calque 2"><g id="Calque_1-2" data-name="Calque 1"><circle class="cls-1" cx="152" cy="152" r="152"/><g class="cls-2"><path class="cls-3" d="M132.94,240.11c.16-.88.31-1.77.45-2.73a63,63,0,0,0-.59-21.23,74.24,74.24,0,0,1-50.09-47.6H82.3l-1.69-7.42a74.54,74.54,0,0,1-1.84-16.48c0-1.21,0-2.43.09-3.64l0-.55A379.37,379.37,0,0,1,41,131.06c-.1,2-.16,4-.16,6a111.47,111.47,0,0,0,90.57,109.48A59.79,59.79,0,0,0,132.94,240.11Z"/><path class="cls-3" d="M263.53,131.06q-17.79,5.4-36.29,9.08l0,.87c.06,1.21.09,2.43.09,3.64a74.54,74.54,0,0,1-1.84,16.48l-1.68,7.42h-.41a74.25,74.25,0,0,1-50.1,47.6,62.73,62.73,0,0,0-.59,21.18c.13.94.28,1.83.44,2.7.4,2.09.9,4.16,1.5,6.18a111.48,111.48,0,0,0,89-109.18C263.69,135,263.63,133,263.53,131.06Z"/></g><path class="cls-4" d="M216.94,141.47H87.54c-.05,1.06-.07,2.11-.07,3.18A64.94,64.94,0,0,0,89.07,159h0a64.86,64.86,0,0,0,50.74,49.2A72.3,72.3,0,0,1,142,238.75c-.15,1.05-.32,2.09-.52,3.13a71.14,71.14,0,0,1-7.87,21.62,66.52,66.52,0,0,0-18.7,8.79h74.7a66.65,66.65,0,0,0-18.7-8.79A71.33,71.33,0,0,1,163,241.81c-.19-1-.37-2.09-.51-3.13a71.82,71.82,0,0,1,2.18-30.45A64.86,64.86,0,0,0,215.41,159h0a64.94,64.94,0,0,0,1.6-14.38C217,143.58,217,142.53,216.94,141.47Z"/><path class="cls-5" d="M152.2,35.4a41.85,41.85,0,1,0,41.85,41.85A41.85,41.85,0,0,0,152.2,35.4Zm.62,75.63A33.78,33.78,0,1,1,175.5,52.21a29.25,29.25,0,1,0,0,50.08A33.68,33.68,0,0,1,152.82,111Zm14.1-32.53L173.5,92,160,85.44,149.25,95.86l2-14.84L138,74l14.74-2.66,2.59-14.76,7.08,13.2,14.84-2.1Z"/></g></g></svg>