<svg xmlns="http://www.w3.org/2000/svg" xmlns:xlink="http://www.w3.org/1999/xlink" viewBox="0 0 304 304"><defs><style>.cls-1{fill:url(#Dégradé_sans_nom_1045);}.cls-2{fill:#fff7f3;}.cls-3,.cls-4{fill:#fdffff;}.cls-3{opacity:0.6;}.cls-4{opacity:0.3;}</style><linearGradient id="Dégradé_sans_nom_1045" x1="44.52" y1="44.52" x2="259.48" y2="259.48" gradientUnits="userSpaceOnUse"><stop offset="0.01" stop-color="#cbb4f3"/><stop offset="0.58" stop-color="#b7a2e9"/><stop offset="1" stop-color="#a592e0"/></linearGradient></defs><title>award_mit_paFichier 13</title><g id="Calque_2" data-name="Calque 2"><g id="Calque_1-2" data-name="Calque 1"><circle class="cls-1" cx="152" cy="152" r="152"/><polygon class="cls-2" points="181.88 179.31 124.82 122.25 211.12 93.01 181.88 179.31"/><polygon class="cls-3" points="178.33 182.85 92.03 212.09 121.27 125.8 178.33 182.85"/><path class="cls-4" d="M151.57,27.56a125.89,125.89,0,0,1,48.36,8.25,127.81,127.81,0,0,1,70.9,67.35A130,130,0,0,1,282,152.55h0a5.44,5.44,0,0,1-10.87.29v-.3a120.52,120.52,0,0,0-7.83-46.27,122.42,122.42,0,0,0-64.41-68A124.4,124.4,0,0,0,151.57,27.56Z"/><path class="cls-4" d="M151.57,277.54a125.68,125.68,0,0,1-48.35-8.24,127.33,127.33,0,0,1-41.95-26.44,128.88,128.88,0,0,1-40.12-90.31h0A5.44,5.44,0,1,1,32,152.25v.3a120.35,120.35,0,0,0,7.83,46.28A121.69,121.69,0,0,0,65.12,239a123.33,123.33,0,0,0,86.45,38.53Z"/></g></g></svg>