<svg xmlns="http://www.w3.org/2000/svg" xmlns:xlink="http://www.w3.org/1999/xlink" viewBox="0 0 304 304"><defs><style>.cls-1{fill:url(#Dégradé_sans_nom_623);}.cls-2{fill:#fff7f3;}.cls-3{fill:#fdffff;opacity:0.3;}</style><linearGradient id="Dégradé_sans_nom_623" x1="44.52" y1="44.52" x2="259.48" y2="259.48" gradientUnits="userSpaceOnUse"><stop offset="0.01" stop-color="#8eb9fe"/><stop offset="1" stop-color="#8ac3ea"/></linearGradient></defs><title>award_cbc_cphFichier 11</title><g id="Calque_2" data-name="Calque 2"><g id="Calque_1-2" data-name="Calque 1"><circle class="cls-1" cx="152" cy="152" r="152"/><path class="cls-2" d="M80.42,110.48l3,4.09a.27.27,0,0,0,.08.07l4.08,3a.35.35,0,0,1,0,.56l-4.08,3-.08.08-3,4.09a.35.35,0,0,1-.56,0l-3-4.09a.27.27,0,0,0-.07-.08l-4.09-3a.35.35,0,0,1,0-.56l4.09-3a.23.23,0,0,0,.07-.07l3-4.09A.35.35,0,0,1,80.42,110.48Z"/><path class="cls-2" d="M136.27,45.41l1.39,1.92,0,0,1.92,1.39a.16.16,0,0,1,0,.26l-1.92,1.4,0,0-1.39,1.92a.16.16,0,0,1-.26,0l-1.39-1.92,0,0L132.66,49a.16.16,0,0,1,0-.26l1.92-1.39,0,0L136,45.41A.16.16,0,0,1,136.27,45.41Z"/><path class="cls-2" d="M228.27,100.41l1.39,1.92,0,0,1.92,1.39a.16.16,0,0,1,0,.26l-1.92,1.4,0,0-1.39,1.92a.16.16,0,0,1-.26,0l-1.39-1.92,0,0-1.92-1.4a.16.16,0,0,1,0-.26l1.92-1.39,0,0,1.39-1.92A.16.16,0,0,1,228.27,100.41Z"/><path class="cls-3" d="M287.49,138.09A136.42,136.42,0,0,1,179.39,256.6,60.91,60.91,0,0,0,173,254a51.26,51.26,0,0,1-4.24-12.79c-.16-.8-.29-1.6-.41-2.41a52.27,52.27,0,0,1,.48-17.65,61.76,61.76,0,0,0,41.68-39.6l1.74-6.17a61.79,61.79,0,0,0,1.54-13.72c0-1,0-2-.08-3l0-.85q9.47-1.53,18.77-3.51a80.92,80.92,0,0,1-23.42,65c-1.8,1.81-3.67,3.5-5.58,5.09a92.87,92.87,0,0,0,13.23-11,91.65,91.65,0,0,0,26.9-61.63A379,379,0,0,0,287.49,138.09Z"/><path class="cls-3" d="M136.15,231.36a52.15,52.15,0,0,1-.55,7.5c-.11.81-.25,1.62-.41,2.42A51.44,51.44,0,0,1,131,254a60.19,60.19,0,0,0-6.37,2.65A136.41,136.41,0,0,1,16.51,138.09a378.49,378.49,0,0,0,43.86,13.58,91.48,91.48,0,0,0,40.14,73c-2-1.64-3.91-3.39-5.77-5.25a80.4,80.4,0,0,1-23.16-65.16q9.27,2,18.71,3.5l0,.85c0,1-.07,2-.07,3a62.38,62.38,0,0,0,1.53,13.72l1.74,6.17a61.78,61.78,0,0,0,41.68,39.6A51.67,51.67,0,0,1,136.15,231.36Z"/><path class="cls-2" d="M205.83,159H98.17q-.06,1.32-.06,2.64a54.28,54.28,0,0,0,1.33,12h0a53.92,53.92,0,0,0,42.21,40.93,60.43,60.43,0,0,1,1.81,25.39c-.13.88-.27,1.75-.44,2.61a58.92,58.92,0,0,1-6.55,18,55.43,55.43,0,0,0-15.55,7.31h62.14a55.43,55.43,0,0,0-15.55-7.31A59,59,0,0,1,161,242.45c-.17-.86-.31-1.73-.43-2.6a60.19,60.19,0,0,1,1.81-25.34,53.92,53.92,0,0,0,42.21-40.93h0a54.28,54.28,0,0,0,1.33-12Q205.89,160.29,205.83,159Zm-47.06,21.84-6.61,9.6-6.62-9.6v-4l6.62-9.59,6.61,9.59Z"/><path class="cls-3" d="M100.7,101.25a83,83,0,0,0,14.47,12.91,123.4,123.4,0,0,0,16.61,10,129.4,129.4,0,0,0,17.85,7.36,96.16,96.16,0,0,0,18.65,4.1c.39,0,.78.11,1.18.14l1.17.08L173,136a35.28,35.28,0,0,0,4.6,0,21.89,21.89,0,0,0,8.32-2,8.94,8.94,0,0,0,2.88-2.2,6.86,6.86,0,0,0,.88-1.36,7.08,7.08,0,0,0,.48-1.54c.41-2.15-.26-4.81-1.52-7.32a32.61,32.61,0,0,0-5-7.23,41.17,41.17,0,0,0-4.48-4.37l.16.24c.27.42.52.86.78,1.31s.48.94.72,1.4.45,1,.64,1.52a16.37,16.37,0,0,1,.93,3.43,12.94,12.94,0,0,1,.05,4,11.29,11.29,0,0,1-4.46,7.44,13.06,13.06,0,0,1-3.34,1.84,16.24,16.24,0,0,1-3.25.91,25.82,25.82,0,0,1-6,.37c-1,0-1.86-.15-2.76-.25s-1.81-.19-2.68-.37a64.72,64.72,0,0,1-10.21-2.61l-2.46-.85-2.41-1-1.2-.49-1.17-.53c-.78-.35-1.57-.7-2.35-1.07a83.65,83.65,0,0,1-17.35-11.06,54.25,54.25,0,0,1-7.44-7.41,41.68,41.68,0,0,1-3.16-4.27,35.51,35.51,0,0,1-2.62-4.79,23.91,23.91,0,0,1-1.7-5.49,15.9,15.9,0,0,1,.12-6.21,13.21,13.21,0,0,1,1.14-3.07A12.75,12.75,0,0,1,111,80.4a15.19,15.19,0,0,1,5-3.53,23.39,23.39,0,0,1,5.39-1.62,33.69,33.69,0,0,1,5.34-.5,40.49,40.49,0,0,1,5.19.22l2.54.27,1.26.14c.42.06.84.14,1.25.21,13.36,2.22,25.82,7.33,37.34,13.83a125,125,0,0,1,16.42,11.09,85.2,85.2,0,0,1,13.94,14l-.83.67a83.3,83.3,0,0,0-14.47-12.9,123.29,123.29,0,0,0-16.6-10,127,127,0,0,0-17.85-7.36,96.42,96.42,0,0,0-18.66-4.1l-1.17-.15-1.18-.07-2.35-.15a35.29,35.29,0,0,0-4.6,0,22.12,22.12,0,0,0-8.32,2,9.06,9.06,0,0,0-2.87,2.21A6.49,6.49,0,0,0,114.9,86a6.62,6.62,0,0,0-.47,1.53A12.11,12.11,0,0,0,116,94.87a32.51,32.51,0,0,0,5,7.23,41.07,41.07,0,0,0,4.47,4.37l-.15-.24c-.27-.42-.53-.87-.78-1.32s-.49-.93-.73-1.4-.45-1-.64-1.51a17.89,17.89,0,0,1-.93-3.43,13,13,0,0,1,0-4,11.33,11.33,0,0,1,4.45-7.44A13.47,13.47,0,0,1,130,85.24a17.82,17.82,0,0,1,3.24-.91,25.85,25.85,0,0,1,6-.36c1,0,1.85.15,2.75.25s1.81.19,2.68.37a64.84,64.84,0,0,1,10.22,2.61l2.45.85,2.41,1,1.2.48,1.18.53c.78.36,1.57.7,2.34,1.08a83.45,83.45,0,0,1,17.36,11.06,55.91,55.91,0,0,1,7.44,7.4,43.27,43.27,0,0,1,3.15,4.28,34.43,34.43,0,0,1,2.62,4.79,23,23,0,0,1,1.7,5.48,15.52,15.52,0,0,1-.12,6.21,12.37,12.37,0,0,1-3,5.74,15.4,15.4,0,0,1-5,3.53,23.09,23.09,0,0,1-5.4,1.61,33.6,33.6,0,0,1-5.33.51,42.56,42.56,0,0,1-5.2-.22l-2.53-.27-1.27-.14c-.42-.06-.83-.14-1.25-.21-13.36-2.22-25.82-7.33-37.33-13.83A126.11,126.11,0,0,1,113.81,116a85.2,85.2,0,0,1-13.93-14Zm45,3.28a4,4,0,0,0,.25.51,10.23,10.23,0,0,0,1.13,1.58,18.93,18.93,0,0,0,7.27,4.88,12.42,12.42,0,0,0,2.12.6,4.71,4.71,0,0,0,1.89.06,1.2,1.2,0,0,0,.52-.23q-.1-.25-.24-.51a10.43,10.43,0,0,0-1.13-1.58,19,19,0,0,0-7.27-4.88,13.76,13.76,0,0,0-2.12-.61,4.88,4.88,0,0,0-1.89,0A1.14,1.14,0,0,0,145.69,104.53Z"/><path class="cls-3" d="M223.62,68a15.6,15.6,0,0,0,.12-1.82,14.15,14.15,0,0,0-25.22-8.8c-3.71-.53-6.32-.17-6.9,1.22s1,3.5,3.94,5.8a13.2,13.2,0,0,0-.12,1.78A14.15,14.15,0,0,0,220.64,75c3.73.53,6.35.16,6.92-1.22S226.6,70.27,223.62,68Zm-.07.46v0c0,.12,0,.23-.07.35s0,0,0,.08C223.5,68.75,223.53,68.6,223.55,68.44Zm-29.29-8.75c.36-.84,1.62-1.24,3.47-1.24A14.19,14.19,0,0,0,195.79,63C194.49,61.71,193.9,60.54,194.26,59.69Zm30.65,13c-.36.85-1.62,1.25-3.49,1.23a14,14,0,0,0,2-4.59C224.68,70.64,225.27,71.82,224.91,72.68Z"/></g></g></svg>