<?xml version="1.0" encoding="utf-8"?>
<!-- Generator: Adobe Illustrator 23.0.6, SVG Export Plug-In . SVG Version: 6.00 Build 0)  -->
<svg version="1.1" id="Calque_1" xmlns="http://www.w3.org/2000/svg" xmlns:xlink="http://www.w3.org/1999/xlink" x="0px" y="0px"
	 viewBox="0 0 304 304" style="enable-background:new 0 0 304 304;" xml:space="preserve">
<style type="text/css">
	.st0{fill:url(#SVGID_1_);}
	.st1{opacity:0.3;fill:#FDFFFF;enable-background:new    ;}
	.st2{fill:#FFF7F3;}
</style>
<title>award_start_up_actFichier 14</title>
<g>
	<g id="Calque_1-2">
		
			<linearGradient id="SVGID_1_" gradientUnits="userSpaceOnUse" x1="126.5269" y1="714.6811" x2="341.4869" y2="499.7211" gradientTransform="matrix(0.87 0.5 0.5 -0.87 -355.03 563.76)">
			<stop  offset="1.000000e-02" style="stop-color:#8B87EB"/>
			<stop  offset="0.27" style="stop-color:#7F75E1"/>
			<stop  offset="0.82" style="stop-color:#6651C8"/>
			<stop  offset="1" style="stop-color:#553CBF"/>
		</linearGradient>
		<circle class="st0" cx="152" cy="152" r="152"/>
		<path class="st1" d="M28,200.8c-1.3-1.7-2.5-3.6-3.6-5.5c0.9,0,1.8-0.1,2.6,0c5,0,10,0.9,14.7,2.9c2.1,0.9,4.1,2.1,5.9,3.6
			c3.1,2.5,5.3,6.1,6,10C44.8,214.1,34.9,209.7,28,200.8z M69.3,226c3-3.3,5-7.5,5.6-11.9c0.2-1.1,0.3-2.2,0.3-3.3
			c0.2-6.7-1.9-13.3-6.1-18.6C61.6,205.4,61.6,217.5,69.3,226z M36.8,112.2c-0.3,0.8-0.6,1.7-0.9,2.5c-1.8,5.4-2.3,11.2-1.3,16.8
			c0.8,4.8,3.2,9.3,6.8,12.6c0.5,0.4,1,0.8,1.6,1.2c2.4-3.3,3.7-7.3,3.7-11.4c0-0.6,0-1.2,0-1.9C46.2,125,42.6,118,36.8,112.2z
			 M80.8,84.6c-6.9,2.6-12.6,6.5-16.4,11.2s-5.4,9.8-4.7,14.9c4-0.1,7.8-1.5,10.7-4.2C75.8,102,79.5,94.3,80.8,84.6L80.8,84.6z
			 M66,227.1c-2.1-5-6.3-8.6-12.1-10.4c-3-0.9-6.1-1.3-9.2-1.4c-3.5,0-7.1,0.4-10.6,1.1C44.1,228,56.9,232.3,66,227.1z M43.2,160.6
			c1.7-0.5,3.3-1.1,4.9-2c7.8-4.4,11.9-13.3,11.9-25.7c0-0.5,0-1,0-1.4c-6.6,3.9-11.7,8.8-14.7,14.1S41.6,156,43.2,160.6z
			 M24.7,142.2C24.1,156,31.3,167.9,42,171c0.2-0.9,0.4-1.9,0.4-2.9c0.3-4.3-0.6-8.6-2.6-12.4C36.6,149.6,31.2,144.8,24.7,142.2z
			 M77,243.3c-6.6,0.7-12.8,3.8-17.4,8.6c14.2,5.7,26.2,4,33.5-4.8c-0.7-0.5-1.5-0.9-2.2-1.3C86.6,243.6,81.8,242.8,77,243.3z
			 M17.4,174.6c0.6,0.9,1.3,1.8,2,2.6c1.2,1.4,2.4,2.9,3.5,4.3c2.9,3.8,6.1,7.3,9.6,10.5c3.6,3,8.1,3.9,13.7,2.6
			c-0.5-0.9-0.9-1.8-1.3-2.7c-1.7-3.4-3.3-6.6-5.5-8.8C34,177.9,27,175.2,17.4,174.6L17.4,174.6z M45.2,234.8
			c5.6,5.1,12.9,8,20.5,8.3c4.6,0.1,9.1-1.2,12.9-3.8c-0.2-0.3-0.5-0.6-0.7-0.8C70.2,230,58,228.6,45.2,234.8L45.2,234.8z
			 M46.9,119.8c0.4,0.5,0.9,0.9,1.4,1.3c7.3-7.6,7.3-16.7,4.5-25.1l0,0c-0.1-0.3-0.2-0.6-0.3-0.9c-1-2.7-2.2-5.2-3.6-7.7
			c-3.2,5.4-5.3,11.4-6,17.6c-0.2,2.4-0.1,4.8,0.3,7.1C43.6,115,44.9,117.6,46.9,119.8L46.9,119.8z M77.7,225.8
			c0.1,0.5,0.2,1.1,0.3,1.6s0.2,1,0.4,1.5c0.6,2.3,1.5,4.6,2.8,6.6c1.7,3,4.4,5.2,7.7,6.4c1.3-2.7,2.1-5.7,2.1-8.7
			c0-0.7,0-1.4-0.1-2.1c-0.1-0.7-0.1-1.4-0.3-2.1c-0.1-0.3-0.1-0.7-0.2-1s-0.2-0.7-0.3-1c-1.6-6-5.8-11.9-12.2-17
			C77,215.3,76.9,220.6,77.7,225.8L77.7,225.8z M81.4,260.7c-1,0.9-1.9,1.8-2.9,2.8c15.5,4.3,28.2,1.4,32.7-7.7
			c-3.3-2-7.2-3.1-11.1-3.1C93.8,252.8,87.3,255.5,81.4,260.7L81.4,260.7z M54.1,177.7c2.7-6.4,2.8-14.1,0.3-21.6
			c-6.9,6.3-11.5,14.4-12.2,21.7c-0.1,0.7-0.1,1.5-0.1,2.2c0,2.9,0.8,5.8,2.3,8.3C48.8,186.1,52.3,182.3,54.1,177.7L54.1,177.7z
			 M63.4,195.5c1.7-7,0.9-14.4-2.3-20.9c-4.3,4.9-7.4,10.8-9,17.1c-1.1,4.6-1.4,11,2.8,16.1C59.1,204.9,62.2,200.4,63.4,195.5
			L63.4,195.5z M93.9,231.6c0.2,0.6,0.5,1.1,0.7,1.7c0.1,0.3,0.2,0.6,0.4,0.8c3.4,7.4,8.5,13.1,14.3,16.1c2.9,1.6,6.3,2.1,9.5,1.5
			c0-0.4-0.1-0.7-0.1-1.1s-0.1-0.8-0.2-1.2c-0.4-2.7-1.5-5.3-3-7.6c-1.1-1.6-2.3-3-3.8-4.2c-3.8-3-8.2-5.2-12.9-6.4
			c-1.8-0.5-3.7-1-5.7-1.3C93.4,230.4,93.7,231,93.9,231.6L93.9,231.6z M51.6,131.7c12-0.5,21.3-9.9,23.8-23.9
			c-9.1,2.2-17.1,7.3-21.2,13.8C52.1,124.6,51.2,128.2,51.6,131.7z M276.1,200.4c1.3-1.7,2.5-3.6,3.6-5.5c-0.9,0-1.8-0.1-2.6-0.1
			c-5,0-10,0.9-14.7,2.9c-2.1,0.9-4.1,2.1-5.9,3.6c-3.1,2.5-5.3,6.1-6,10C259.3,213.8,269.1,209.4,276.1,200.4L276.1,200.4z
			 M234.9,191.9c-4.2,5.3-6.3,11.9-6.1,18.6c0,1.1,0.2,2.2,0.3,3.3c0.7,4.4,2.6,8.6,5.6,11.9C242.4,217.2,242.5,205.1,234.9,191.9
			L234.9,191.9z M257.4,131.7c0,0.6-0.1,1.2,0,1.9c0,4.1,1.3,8.1,3.7,11.4c0.5-0.4,1.1-0.8,1.5-1.2c3.6-3.3,6-7.7,6.8-12.5
			c0.9-5.6,0.5-11.4-1.3-16.8c-0.3-0.8-0.5-1.7-0.9-2.5C261.4,117.6,257.9,124.7,257.4,131.7z M233.7,106.3c3,2.6,6.8,4.1,10.7,4.2
			c0.7-5.1-0.9-10.2-4.7-14.9s-9.5-8.6-16.4-11.2C224.6,94,228.2,101.7,233.7,106.3z M270,216.1c-3.5-0.8-7-1.2-10.6-1.1
			c-3.1,0-6.2,0.4-9.2,1.3c-5.9,1.8-10,5.4-12.1,10.4C247.2,231.9,259.9,227.6,270,216.1z M258.9,145.1c-3-5.3-8.1-10.3-14.7-14.1
			v1.4c-0.1,12.4,4.1,21.4,11.8,25.7c1.5,0.9,3.2,1.5,4.9,2C262.5,155.6,261.8,150.4,258.9,145.1L258.9,145.1z M264.2,155.4
			c-2,3.8-2.9,8.1-2.6,12.4c0.1,1,0.2,1.9,0.4,2.9c10.8-3,17.9-15,17.4-28.7C272.9,144.5,267.5,149.2,264.2,155.4L264.2,155.4z
			 M213.2,245.4c-0.8,0.4-1.5,0.8-2.2,1.3c7.3,8.8,19.2,10.5,33.4,4.8c-4.6-4.8-10.7-7.8-17.3-8.6
			C222.3,242.4,217.5,243.3,213.2,245.4L213.2,245.4z M264.7,182.8c-2.2,2.2-3.8,5.4-5.5,8.8c-0.4,0.9-0.9,1.8-1.4,2.7
			c5.6,1.3,10.1,0.4,13.7-2.6c3.5-3.2,6.8-6.7,9.6-10.5c1.1-1.4,2.3-2.9,3.5-4.3c0.7-0.8,1.4-1.7,2-2.6
			C277,174.8,270,177.6,264.7,182.8L264.7,182.8z M226.1,238.1c-0.3,0.3-0.5,0.6-0.7,0.9c3.8,2.6,8.3,3.9,12.9,3.8
			c7.6-0.3,14.8-3.2,20.5-8.3C246.1,228.3,233.8,229.7,226.1,238.1L226.1,238.1z M261,111.8c0.4-2.3,0.5-4.7,0.3-7.1
			c-0.7-6.2-2.8-12.3-6-17.6c-1.4,2.5-2.6,5-3.6,7.7c-0.1,0.3-0.2,0.6-0.3,1l0,0c-2.9,8.4-2.9,17.4,4.5,25.1c0.5-0.4,1-0.9,1.4-1.3
			C259.2,117.3,260.5,114.6,261,111.8z M226.2,209.7c-6.4,5.1-10.6,11-12.3,17c-0.1,0.4-0.2,0.7-0.3,1s-0.1,0.7-0.2,1
			c-0.1,0.7-0.2,1.4-0.3,2.1s-0.1,1.4-0.1,2.1c0.1,3,0.8,5.9,2.1,8.6c3.2-1.2,5.9-3.4,7.7-6.4c1.2-2.1,2.2-4.3,2.8-6.6
			c0.1-0.5,0.3-1,0.4-1.5s0.2-1,0.3-1.6C227.2,220.2,227.1,214.9,226.2,209.7L226.2,209.7z M204,252.4c-3.9,0-7.7,1.1-11.1,3.1
			c4.5,9,17.1,12,32.7,7.7c-0.9-1-1.9-2-2.9-2.8C216.8,255.1,210.3,252.4,204,252.4L204,252.4z M259.6,188c1.5-2.5,2.3-5.3,2.3-8.3
			c0-0.7,0-1.5-0.1-2.2c-0.8-7.4-5.4-15.5-12.2-21.8c-2.4,7.5-2.4,15.2,0.3,21.6C251.8,182,255.2,185.8,259.6,188z M249.2,207.5
			c4.1-5.1,3.8-11.5,2.7-16.1c-1.6-6.3-4.6-12.2-8.9-17.1c-3.2,6.5-4,13.8-2.3,20.9C241.9,200.1,244.9,204.5,249.2,207.5
			L249.2,207.5z M210.8,229.5c-2,0.4-3.9,0.8-5.7,1.3c-4.7,1.2-9.1,3.4-12.9,6.4c-1.4,1.2-2.7,2.6-3.8,4.2c-1.5,2.3-2.6,4.9-3,7.6
			c-0.1,0.4-0.1,0.8-0.2,1.2s-0.1,0.7-0.1,1.1c3.2,0.6,6.6,0.1,9.5-1.5c5.8-2.9,10.9-8.7,14.3-16c0.1-0.3,0.3-0.6,0.4-0.8
			c0.3-0.6,0.5-1.1,0.7-1.7S210.6,230,210.8,229.5L210.8,229.5z M249.9,121.4c-4.1-6.5-12.1-11.6-21.2-13.8
			c2.5,13.9,11.8,23.3,23.8,23.8C252.9,127.9,251.9,124.3,249.9,121.4L249.9,121.4z"/>
		<path class="st2" d="M90.7,157.3c-4,0-7-1.3-9.1-4l0.9-0.9c1.8,2.6,4.6,3.9,8.4,3.9c2.3,0.1,4.5-0.5,6.5-1.7c1.6-1.1,2.5-3,2.4-5
			c0-0.7-0.1-1.3-0.4-1.9c-0.3-0.6-0.8-1-1.3-1.4c-0.7-0.4-1.4-0.8-2.2-1c-0.9-0.3-1.9-0.6-3.1-0.8c-1.1-0.3-2.2-0.5-3.1-0.8
			c-0.8-0.2-1.6-0.6-2.3-1c-0.6-0.4-1.1-0.9-1.4-1.5c-0.3-0.7-0.5-1.4-0.5-2.1c0-1.3,0.3-2.5,0.8-3.6c0.5-1.1,1.3-2,2.2-2.7
			c1-0.8,2.1-1.3,3.3-1.7c1.4-0.4,2.8-0.6,4.3-0.6c1.4,0,2.8,0.2,4.2,0.7c1.2,0.5,2.2,1.3,2.9,2.4l-0.9,1c-0.6-1-1.5-1.8-2.6-2.3
			c-1.2-0.5-2.5-0.7-3.8-0.7c-1.4,0-2.8,0.2-4.1,0.6c-1,0.3-2,0.8-2.8,1.5c-0.7,0.6-1.3,1.4-1.6,2.2c-0.3,0.9-0.5,1.8-0.5,2.8
			c0,0.6,0.1,1.2,0.4,1.8c0.3,0.5,0.7,0.9,1.2,1.2c0.6,0.4,1.3,0.7,2,0.9c0.8,0.3,1.8,0.5,2.9,0.8s2.2,0.6,3.1,0.9
			c0.9,0.3,1.7,0.6,2.4,1.1c0.6,0.4,1.2,1,1.6,1.6c0.4,0.7,0.6,1.5,0.6,2.3c0,1.2-0.2,2.4-0.8,3.5c-0.5,1-1.3,1.9-2.2,2.6
			c-1,0.7-2.1,1.2-3.3,1.6C93.5,157.2,92.1,157.4,90.7,157.3z"/>
		<path class="st2" d="M107.9,157.3c-0.7,0-1.5-0.2-2.1-0.6c-0.5-0.4-0.8-1.1-0.8-1.8c0-0.1,0-0.2,0-0.4c0-0.1,0-0.3,0.1-0.4
			l3.3-15.3h-2.6l0.2-1.1h2.7l1.4-6.7h1.3l-1.4,6.7h4.4l-0.3,1.1h-4.4l-2.9,13.6c-0.1,0.6-0.2,1-0.3,1.3c0,0.2-0.1,0.4-0.1,0.6
			c0,0.5,0.2,1,0.6,1.4c0.4,0.3,0.9,0.5,1.4,0.5c0.4,0,0.7,0,1.1-0.1c0.3-0.1,0.7-0.2,1-0.3c0.2-0.1,0.5-0.2,0.7-0.3l0.4-0.2
			l0.2,1.1c-0.1,0.1-0.3,0.2-0.4,0.2c-0.3,0.1-0.6,0.3-0.9,0.4c-0.4,0.1-0.8,0.2-1.2,0.3C108.9,157.3,108.4,157.3,107.9,157.3z"/>
		<path class="st2" d="M121.8,157.5c-1,0-2-0.2-2.9-0.7c-0.9-0.4-1.6-1.1-2.2-1.8c-0.6-0.8-1.1-1.7-1.4-2.6c-0.3-1-0.5-2-0.5-3.1
			c0-1.5,0.3-3,0.9-4.4c0.6-1.4,1.4-2.7,2.4-3.8c1-1.1,2.2-2,3.5-2.7c1.3-0.7,2.6-1,4.1-1c0.8,0,1.6,0.1,2.3,0.4
			c0.7,0.2,1.3,0.6,1.8,1c0.5,0.4,1,0.9,1.4,1.5c0.4,0.6,0.7,1.2,0.9,1.8l0.9-4.4h1.3l-3.7,17.4c-0.1,0.1-0.1,0.3-0.1,0.4
			c0,0.3,0.2,0.5,0.5,0.5l-0.3,1.2h-0.2c-0.1,0-0.1,0-0.2,0c-0.3,0-0.7-0.1-0.9-0.4c-0.2-0.2-0.3-0.5-0.3-0.9c0-0.1,0-0.2,0-0.2
			c0-0.1,0-0.2,0.1-0.4s0.1-0.4,0.1-0.8s0.2-0.8,0.3-1.4c-1,1.3-2.3,2.4-3.7,3.1C124.8,157.1,123.3,157.5,121.8,157.5z M122.2,156.3
			c0.8,0,1.6-0.2,2.4-0.4c1.7-0.6,3.3-1.6,4.5-3c0.6-0.6,1-1.3,1.2-2.1l1.4-6.7c-0.1-0.7-0.3-1.4-0.7-2.1c-0.3-0.6-0.8-1.2-1.4-1.7
			c-0.6-0.5-1.2-0.9-1.9-1.2c-0.7-0.3-1.5-0.5-2.3-0.4c-1.3,0-2.5,0.4-3.6,1c-1.1,0.6-2.2,1.5-3,2.5c-0.9,1-1.6,2.2-2.1,3.4
			c-0.5,1.2-0.8,2.5-0.8,3.8c0,0.9,0.1,1.8,0.4,2.7c0.3,0.8,0.7,1.6,1.2,2.3c0.5,0.6,1.2,1.2,1.9,1.6
			C120.5,156.2,121.3,156.4,122.2,156.3z"/>
		<path class="st2" d="M140.4,137.7h1.2l-1,5c0.5-0.7,1.1-1.4,1.7-2.1c0.6-0.6,1.2-1.1,1.9-1.6c0.6-0.4,1.3-0.8,2.1-1
			c0.7-0.2,1.4-0.3,2.1-0.3c0.1,0,0.3,0,0.4,0l-0.3,1.2c-1.7,0.1-3.4,0.7-4.8,1.7c-1.5,1.1-2.7,2.6-3.5,4.3l-2.6,12.3h-1.3
			L140.4,137.7z"/>
		<path class="st2" d="M152.5,157.3c-0.7,0-1.4-0.2-2-0.6c-0.5-0.4-0.8-1.1-0.8-1.8c0-0.1,0-0.3,0-0.4l0.1-0.4l3.2-15.3h-2.6
			l0.2-1.1h2.7l1.4-6.7h1.3l-1.4,6.7h4.4l-0.3,1.1h-4.4l-2.9,13.6c-0.1,0.6-0.2,1-0.3,1.3c0,0.2-0.1,0.4-0.1,0.6
			c0,0.5,0.2,1,0.6,1.4c0.4,0.3,0.9,0.5,1.4,0.5c0.4,0,0.7,0,1.1-0.1c0.3-0.1,0.7-0.2,1-0.3c0.2-0.1,0.5-0.2,0.7-0.3l0.4-0.2
			l0.2,1.1c-0.1,0.1-0.3,0.2-0.4,0.2c-0.3,0.1-0.6,0.3-0.9,0.4c-0.4,0.1-0.8,0.2-1.2,0.3C153.5,157.3,153,157.3,152.5,157.3z"/>
		<path class="st2" d="M160.6,147.6l0.2-1.2h10.2l-0.3,1.2H160.6z"/>
		<path class="st2" d="M184.8,157.3c-1.3,0-2.6-0.2-3.8-0.7c-1-0.4-1.8-1-2.5-1.9c-0.7-0.8-1.1-1.8-1.4-2.8
			c-0.3-1.1-0.4-2.2-0.4-3.4c0-1.6,0.2-3.2,0.5-4.8l2.9-13.3h1.3l-2.8,13.3c-0.2,0.8-0.3,1.5-0.4,2.3c-0.1,0.7-0.1,1.5-0.1,2.2
			c0,1,0.1,2,0.4,3c0.2,0.9,0.6,1.7,1.2,2.4c0.6,0.7,1.3,1.3,2.2,1.6c1.1,0.4,2.2,0.6,3.4,0.6c1.6,0,3.2-0.3,4.7-1.1
			c1.3-0.7,2.5-1.6,3.4-2.8c1-1.2,1.7-2.5,2.3-3.9c0.6-1.4,1-2.9,1.4-4.4l2.8-13.3h1.3l-2.8,13.3c-0.4,1.7-0.9,3.5-1.6,5.1
			c-0.7,1.6-1.6,3-2.7,4.3c-1.1,1.2-2.4,2.3-3.9,3C188.3,157,186.6,157.4,184.8,157.3z"/>
		<path class="st2" d="M205.3,137.7h1.2l-0.9,4.1c1-1.3,2.3-2.3,3.8-3.1c1.3-0.8,2.8-1.2,4.3-1.2c1,0,2,0.2,2.9,0.7
			c0.9,0.5,1.6,1.1,2.2,1.9c0.6,0.8,1.1,1.7,1.4,2.6c0.3,1,0.5,2,0.5,3.1c0,1.5-0.3,3-0.9,4.4c-0.6,1.4-1.4,2.7-2.4,3.8
			c-1,1.1-2.2,2-3.5,2.7c-1.3,0.7-2.7,1-4.2,1c-0.8,0-1.5-0.1-2.2-0.4c-0.7-0.2-1.3-0.6-1.8-1c-0.5-0.4-1-0.9-1.4-1.5
			c-0.4-0.6-0.7-1.2-1-1.8l-2.6,12.3h-1.3L205.3,137.7z M209.7,156.3c1.3,0,2.6-0.3,3.7-0.9c1.1-0.6,2.2-1.5,3-2.4
			c0.9-1,1.6-2.2,2.1-3.4c0.5-1.2,0.8-2.5,0.8-3.8c0-0.9-0.1-1.9-0.4-2.8c-0.3-0.8-0.7-1.6-1.2-2.3c-0.5-0.7-1.2-1.2-1.9-1.6
			c-0.8-0.4-1.6-0.6-2.5-0.6c-0.8,0-1.6,0.2-2.3,0.5c-0.9,0.3-1.7,0.7-2.4,1.2c-0.8,0.5-1.5,1.1-2.1,1.8c-0.6,0.6-1,1.3-1.3,2.1
			l-1.4,6.7c0.1,0.7,0.4,1.5,0.8,2.1c0.4,0.6,0.8,1.2,1.3,1.7c0.5,0.5,1.1,0.9,1.8,1.2C208.2,156.2,209,156.3,209.7,156.3
			L209.7,156.3z"/>
		<path class="st2" d="M134.6,175.5h2.2l11.1,26.6h-2.8l-3.4-8.3h-12l-3.4,8.3h-2.8L134.6,175.5z M141.1,191.7l-5.4-13.1l-5.4,13.1
			H141.1z"/>
		<path class="st2" d="M149.3,192.3c0-1.3,0.2-2.6,0.7-3.9c0.4-1.2,1.1-2.3,2-3.2c0.9-0.9,1.9-1.6,3.1-2.1c1.3-0.5,2.6-0.8,4-0.8
			c1.7,0,3.4,0.4,4.8,1.3c1.3,0.8,2.4,2,3.1,3.4l-2.5,0.8c-0.5-1-1.3-1.8-2.3-2.3c-1.9-1-4.1-1.1-6.1-0.2c-0.8,0.4-1.6,0.9-2.2,1.6
			c-0.7,0.7-1.2,1.5-1.5,2.4c-0.4,1-0.6,2-0.6,3.1c0,1.1,0.2,2.1,0.6,3.1c0.4,0.9,0.9,1.8,1.5,2.5c0.6,0.7,1.4,1.3,2.3,1.7
			c0.9,0.4,1.8,0.6,2.8,0.6c0.6,0,1.3-0.1,1.9-0.3c0.6-0.2,1.2-0.4,1.7-0.7c0.5-0.3,1-0.6,1.4-1.1c0.4-0.4,0.6-0.8,0.8-1.3l2.5,0.8
			c-0.3,0.7-0.7,1.4-1.2,1.9c-0.5,0.6-1.2,1.1-1.9,1.5c-0.7,0.4-1.5,0.8-2.4,1c-0.9,0.2-1.8,0.4-2.7,0.4c-2.7,0-5.2-1.1-7-3
			c-0.9-0.9-1.5-2-2-3.2C149.6,195,149.4,193.6,149.3,192.3z"/>
		<path class="st2" d="M180.6,201.2c-0.1,0.1-0.4,0.2-0.6,0.3s-0.6,0.3-1,0.4c-0.4,0.1-0.8,0.2-1.3,0.3c-0.5,0.1-1,0.2-1.5,0.1
			c-0.5,0-1.1-0.1-1.6-0.2c-0.5-0.1-0.9-0.4-1.3-0.7c-0.4-0.3-0.7-0.7-0.9-1.2c-0.2-0.5-0.4-1.1-0.3-1.6v-14h-2.7v-2h2.7V176h2.6
			v6.6h4.5v2h-4.5v13.3c0,0.6,0.3,1.2,0.8,1.6c0.5,0.3,1,0.5,1.6,0.5c0.7,0,1.3-0.1,1.9-0.4c0.4-0.1,0.7-0.3,1.1-0.5L180.6,201.2z"
			/>
		
			<rect x="144.3" y="247" transform="matrix(0.7071 -0.7071 0.7071 0.7071 -135.6324 182.1191)" class="st2" width="15.5" height="15.5"/>
	</g>
</g>
</svg>
