<?xml version="1.0" encoding="utf-8"?>
<!-- Generator: Adobe Illustrator 23.0.6, SVG Export Plug-In . SVG Version: 6.00 Build 0)  -->
<svg version="1.1" id="Calque_1" xmlns="http://www.w3.org/2000/svg" xmlns:xlink="http://www.w3.org/1999/xlink" x="0px" y="0px"
	 viewBox="0 0 611 556" style="enable-background:new 0 0 611 556;" xml:space="preserve">
<style type="text/css">
	.st0{clip-path:url(#SVGID_2_);}
	.st1{fill:url(#SVGID_3_);}
	.st2{fill:#F4DCAB;}
	.st3{fill:#E8C391;}
	.st4{fill:#D8B782;}
	.st5{fill:#E8D4B1;}
	.st6{fill:none;}
	.st7{fill:#CCA46A;}
	.st8{fill:url(#SVGID_4_);}
	.st9{fill:url(#SVGID_5_);}
	.st10{fill:url(#SVGID_6_);}
	.st11{opacity:0.6;fill:url(#SVGID_7_);enable-background:new    ;}
	.st12{fill:url(#SVGID_8_);}
	.st13{clip-path:url(#SVGID_10_);}
	.st14{fill:url(#SVGID_11_);}
	.st15{opacity:0.6;fill:url(#SVGID_12_);enable-background:new    ;}
	.st16{opacity:0.3;fill:url(#SVGID_13_);enable-background:new    ;}
	.st17{opacity:0.6;fill:url(#SVGID_14_);enable-background:new    ;}
	.st18{fill:url(#SVGID_15_);}
	.st19{fill:#DBF8F7;}
	.st20{fill:#C3DDDB;}
	.st21{fill:url(#SVGID_16_);}
	.st22{fill:url(#SVGID_17_);}
	.st23{fill:#00112D;}
</style>
<title>background_jumbotron_pyramidsFichier 2</title>
<g>
	<g id="Calque_1-2">
		<g>
			<g>
				<g>
					<defs>
						<rect id="SVGID_1_" width="611" height="556"/>
					</defs>
					<clipPath id="SVGID_2_">
						<use xlink:href="#SVGID_1_"  style="overflow:visible;"/>
					</clipPath>
					<g class="st0">
						
							<linearGradient id="SVGID_3_" gradientUnits="userSpaceOnUse" x1="7.7307" y1="-271.0812" x2="910.0714" y2="-271.0812" gradientTransform="matrix(1 0 0 -1 -3.86 -22.4)">
							<stop  offset="0" style="stop-color:#2F8BD0"/>
							<stop  offset="1" style="stop-color:#17BCBF"/>
						</linearGradient>
						<path class="st1" d="M256,48c-31.9,21.1-43.4,11.2-72,29c-38.1,23.6-28.4,48.3-69,91c-41.4,43.6-65.1,32.4-90,70
							C2.5,271.9-1.8,318.5,11,356c9.2,26.8,26.4,46.3,98,96c81.1,56.3,121.7,84.5,151,94c94.3,30.7,113.4-20.5,259-12
							c113.3,6.6,140.8,39.8,213,16c65.8-21.7,103.8-69.4,116-85c12.6-16.2,76.7-102.6,53-192c-5.8-21.7-9.4-16-79-123
							c-47.5-73-47.4-78.1-64-92c-36.7-30.7-53-19-136-57c-58.8-26.9-59-36.6-101-49c-27.3-8-64-18.4-110-10
							c-12.1,2.2-57.5,11.7-98,47C283.7,14.5,285.8,28.3,256,48z"/>
						<path class="st2" d="M724,293c-112-3.4-117.9,17.5-247,23c-224.8,9.7-298.5-49.7-436,2c-12.6,4.7-24.4,9.9-35.5,15.4
							c1.2,7.7,3,15.3,5.5,22.6c9.2,26.8,26.4,46.3,98,96c81.1,56.3,121.7,84.5,151,94c94.3,30.7,113.4-20.5,259-12
							c113.3,6.6,140.8,39.8,213,16c65.8-21.7,103.8-69.4,116-85c10.5-13.5,56.7-75.7,58.2-147.8C846.4,303,785.4,294.9,724,293z"/>
						<polygon class="st3" points="692.3,483.3 605.2,445.4 653.5,426.5 						"/>
						<polygon class="st3" points="610.8,436.7 467.7,374.4 547,343.3 						"/>
						<polygon class="st4" points="511.4,378.2 611,277.3 611,435.7 						"/>
						<polygon class="st5" points="710.6,378.2 611,277.3 611,435.7 						"/>
						<polygon class="st6" points="679.7,347.9 675.7,343.8 610.8,381.3 610.7,381.2 545.9,343.8 541.8,347.9 610.8,387.7 						"/>
						<polygon class="st6" points="662.4,330.3 658.4,326.2 610.8,353.7 610.7,353.7 563.2,326.2 559.2,330.3 610.8,360.1 						"/>
						<polygon class="st6" points="675.4,343.5 671.4,339.4 610.8,374.4 610.7,374.3 550.2,339.4 546.2,343.5 610.8,380.8 						"/>
						<polygon class="st6" points="684,352.2 680,348.2 610.8,388.2 610.7,388.1 541.5,348.2 537.5,352.2 610.8,394.6 						"/>
						<polygon class="st6" points="666.7,334.7 662.7,330.6 610.8,360.6 610.7,360.6 558.8,330.6 554.8,334.7 610.8,367 						"/>
						<polygon class="st6" points="671,339.1 667,335 610.8,367.5 610.7,367.4 554.5,335 550.5,339.1 610.8,373.9 						"/>
						<polygon class="st6" points="688.4,356.6 684.3,352.6 610.8,395.1 610.7,395 537.2,352.6 533.2,356.6 610.8,401.4 						"/>
						<polygon class="st6" points="692.7,361 688.7,356.9 610.8,401.9 610.7,401.9 532.9,356.9 528.8,361 610.8,408.3 						"/>
						<polygon class="st6" points="705.7,374.2 701.7,370.1 610.8,422.6 610.7,422.5 519.9,370.1 515.9,374.2 610.8,429 						"/>
						<polygon class="st6" points="610.7,429.4 515.5,374.5 511.5,378.6 610.8,435.9 710,378.6 706,374.5 610.8,429.5 						"/>
						<polygon class="st6" points="701.4,369.8 697.3,365.7 610.8,415.7 610.7,415.7 524.2,365.7 520.2,369.8 610.8,422.1 						"/>
						<polygon class="st6" points="697,365.4 693,361.3 610.8,408.8 610.7,408.8 528.5,361.3 524.5,365.4 610.8,415.2 						"/>
						<polygon class="st6" points="653.7,321.5 649.7,317.5 610.8,340 610.7,339.9 571.8,317.5 567.8,321.5 610.8,346.3 						"/>
						<polygon class="st6" points="619.1,286.4 615.1,282.4 610.8,284.9 610.7,284.8 606.5,282.4 602.5,286.4 610.8,291.3 						"/>
						<polygon class="st6" points="632.1,299.6 628.1,295.5 610.8,305.5 610.7,305.5 593.5,295.5 589.5,299.6 610.8,311.9 						"/>
						<polygon class="st6" points="627.8,295.2 623.7,291.1 610.8,298.6 610.7,298.6 597.8,291.1 593.8,295.2 610.8,305 						"/>
						<polygon class="st6" points="623.4,290.8 619.4,286.8 610.8,291.8 610.7,291.7 602.1,286.8 598.1,290.8 610.8,298.1 						"/>
						<polygon class="st6" points="614.8,282.1 610.8,278 606.8,282.1 610.8,284.4 						"/>
						<polygon class="st6" points="640.7,308.4 636.7,304.3 610.8,319.3 610.7,319.2 584.8,304.3 580.8,308.4 610.8,325.7 						"/>
						<polygon class="st6" points="649.4,317.2 645.4,313.1 610.8,333.1 610.7,333 576.2,313.1 572.1,317.2 610.8,339.5 						"/>
						<polygon class="st6" points="636.4,304 632.4,299.9 610.8,312.4 610.7,312.3 589.2,299.9 585.1,304 610.8,318.8 						"/>
						<polygon class="st6" points="645.1,312.8 641,308.7 610.8,326.2 610.7,326.1 580.5,308.7 576.5,312.8 610.8,332.6 						"/>
						<polygon class="st6" points="658.1,325.9 654,321.9 610.8,346.8 610.7,346.8 567.5,321.9 563.5,325.9 610.8,353.2 						"/>
						<polygon class="st7" points="610.8,429 515.9,374.2 515.5,374.5 610.7,429.4 610.8,429.5 706,374.5 705.7,374.2 						"/>
						<polygon class="st7" points="610.8,422.6 701.7,370.1 701.4,369.8 610.8,422.1 520.2,369.8 519.9,370.1 610.7,422.5 						"/>
						<polygon class="st7" points="610.8,415.7 697.3,365.7 697,365.4 610.8,415.2 524.5,365.4 524.2,365.7 610.7,415.7 						"/>
						<polygon class="st7" points="610.8,408.8 693,361.3 692.7,361 610.8,408.3 528.8,361 528.5,361.3 610.7,408.8 						"/>
						<polygon class="st7" points="610.8,401.9 688.7,356.9 688.4,356.6 610.8,401.4 533.2,356.6 532.9,356.9 610.7,401.9 						"/>
						<polygon class="st7" points="610.8,395.1 684.3,352.6 684,352.2 610.8,394.6 537.5,352.2 537.2,352.6 610.7,395 						"/>
						<polygon class="st7" points="610.8,388.2 680,348.2 679.7,347.9 610.8,387.7 541.8,347.9 541.5,348.2 610.7,388.1 						"/>
						<polygon class="st7" points="610.8,381.3 675.7,343.8 675.4,343.5 610.8,380.8 546.2,343.5 545.9,343.8 610.7,381.2 						"/>
						<polygon class="st7" points="610.8,374.4 671.4,339.4 671,339.1 610.8,373.9 550.5,339.1 550.2,339.4 610.7,374.3 						"/>
						<polygon class="st7" points="610.8,367.5 667,335 666.7,334.7 610.8,367 554.8,334.7 554.5,335 610.7,367.4 						"/>
						<polygon class="st7" points="610.8,360.6 662.7,330.6 662.4,330.3 610.8,360.1 559.2,330.3 558.8,330.6 610.7,360.6 						"/>
						<polygon class="st7" points="610.8,353.7 658.4,326.2 658.1,325.9 610.8,353.2 563.5,325.9 563.2,326.2 610.7,353.7 						"/>
						<polygon class="st7" points="610.8,346.8 654,321.9 653.7,321.5 610.8,346.3 567.8,321.5 567.5,321.9 610.7,346.8 						"/>
						<polygon class="st7" points="610.8,340 649.7,317.5 649.4,317.2 610.8,339.5 572.1,317.2 571.8,317.5 610.7,339.9 						"/>
						<polygon class="st7" points="610.8,333.1 645.4,313.1 645.1,312.8 610.8,332.6 576.5,312.8 576.2,313.1 610.7,333 						"/>
						<polygon class="st7" points="610.8,326.2 641,308.7 640.7,308.4 610.8,325.7 580.8,308.4 580.5,308.7 610.7,326.1 						"/>
						<polygon class="st7" points="610.8,319.3 636.7,304.3 636.4,304 610.8,318.8 585.1,304 584.8,304.3 610.7,319.2 						"/>
						<polygon class="st7" points="610.8,312.4 632.4,299.9 632.1,299.6 610.8,311.9 589.5,299.6 589.2,299.9 610.7,312.3 						"/>
						<polygon class="st7" points="610.8,305.5 628.1,295.5 627.8,295.2 610.8,305 593.8,295.2 593.5,295.5 610.7,305.5 						"/>
						<polygon class="st7" points="610.8,298.6 623.7,291.1 623.4,290.8 610.8,298.1 598.1,290.8 597.8,291.1 610.7,298.6 						"/>
						<polygon class="st7" points="610.8,291.8 619.4,286.8 619.1,286.4 610.8,291.3 602.5,286.4 602.1,286.8 610.7,291.7 						"/>
						<polygon class="st7" points="610.8,284.9 615.1,282.4 614.8,282.1 610.8,284.4 606.8,282.1 606.5,282.4 610.7,284.8 						"/>
						<polygon class="st3" points="387.6,537.7 166.2,441.3 289,393.2 						"/>
						<polygon class="st4" points="233.9,447.1 388,291 388,536.2 						"/>
						<polygon class="st5" points="542.1,447.1 388,291 388,536.2 						"/>
						<polygon class="st6" points="494.4,400.2 488.1,393.9 387.7,451.9 387.5,451.8 287.2,393.9 281,400.2 387.7,461.8 						"/>
						<polygon class="st6" points="467.5,373 461.3,366.8 387.7,409.3 387.5,409.2 314,366.8 307.8,373 387.7,419.2 						"/>
						<polygon class="st6" points="487.7,393.4 481.4,387.1 387.7,441.3 387.5,441.2 293.9,387.1 287.7,393.4 387.7,451.2 						"/>
						<polygon class="st6" points="501.1,407 494.8,400.7 387.7,462.6 387.5,462.5 280.5,400.7 274.3,407 387.7,472.5 						"/>
						<polygon class="st6" points="474.3,379.8 468,373.5 387.7,420 387.5,419.9 307.3,373.5 301.1,379.8 387.7,429.8 						"/>
						<polygon class="st6" points="481,386.6 474.7,380.3 387.7,430.6 387.5,430.5 300.6,380.3 294.4,386.6 387.7,440.5 						"/>
						<polygon class="st6" points="507.8,413.8 501.5,407.5 387.7,473.3 387.5,473.2 273.8,407.5 267.6,413.8 387.7,483.1 						"/>
						<polygon class="st6" points="514.5,420.6 508.3,414.3 387.7,483.9 387.5,483.8 267.1,414.3 260.9,420.6 387.7,493.8 						"/>
						<polygon class="st6" points="534.6,440.9 528.3,434.6 387.7,515.9 387.5,515.8 247,434.6 240.8,440.9 387.7,525.8 						"/>
						<polygon class="st6" points="387.5,526.5 240.3,441.4 234.1,447.7 387.7,536.4 541.3,447.7 535,441.4 387.7,526.5 						"/>
						<polygon class="st6" points="527.9,434.1 521.6,427.8 387.7,505.2 387.5,505.1 253.7,427.8 247.5,434.1 387.7,515.1 						"/>
						<polygon class="st6" points="521.2,427.4 515,421.1 387.7,494.6 387.5,494.5 260.4,421.1 254.2,427.4 387.7,504.5 						"/>
						<polygon class="st6" points="454.1,359.5 447.9,353.2 387.7,388 387.5,387.9 327.4,353.2 321.2,359.5 387.7,397.9 						"/>
						<polygon class="st6" points="400.5,305.2 394.3,298.9 387.7,302.7 387.5,302.6 381,298.9 374.8,305.2 387.7,312.6 						"/>
						<polygon class="st6" points="420.6,325.5 414.4,319.2 387.7,334.7 387.5,334.6 360.9,319.2 354.7,325.5 387.7,344.6 						"/>
						<polygon class="st6" points="413.9,318.7 407.7,312.4 387.7,324 387.5,323.9 367.6,312.4 361.4,318.7 387.7,333.9 						"/>
						<polygon class="st6" points="407.2,312 401,305.7 387.7,313.4 387.5,313.3 374.3,305.7 368.1,312 387.7,323.3 						"/>
						<polygon class="st6" points="393.8,298.4 387.7,292.1 381.5,298.4 387.7,301.9 						"/>
						<polygon class="st6" points="434,339.1 427.8,332.8 387.7,356 387.5,355.9 347.5,332.8 341.3,339.1 387.7,365.9 						"/>
						<polygon class="st6" points="447.4,352.7 441.2,346.4 387.7,377.3 387.5,377.2 334.1,346.4 327.9,352.7 387.7,387.2 						"/>
						<polygon class="st6" points="427.3,332.3 421.1,326 387.7,345.3 387.5,345.3 354.2,326 348,332.3 387.7,355.2 						"/>
						<polygon class="st6" points="440.8,345.9 434.5,339.6 387.7,366.7 387.5,366.6 340.8,339.6 334.6,345.9 387.7,376.5 						"/>
						<polygon class="st6" points="460.8,366.3 454.6,360 387.7,398.6 387.5,398.5 320.7,360 314.5,366.3 387.7,408.5 						"/>
						<polygon class="st7" points="387.7,525.8 240.8,440.9 240.3,441.4 387.5,526.5 387.7,526.5 535,441.4 534.6,440.9 						"/>
						<polygon class="st7" points="387.7,515.9 528.3,434.6 527.9,434.1 387.7,515.1 247.5,434.1 247,434.6 387.5,515.8 						"/>
						<polygon class="st7" points="387.7,505.2 521.6,427.8 521.2,427.4 387.7,504.5 254.2,427.4 253.7,427.8 387.5,505.1 						"/>
						<polygon class="st7" points="387.7,494.6 515,421.1 514.5,420.6 387.7,493.8 260.9,420.6 260.4,421.1 387.5,494.5 						"/>
						<polygon class="st7" points="387.7,483.9 508.3,414.3 507.8,413.8 387.7,483.1 267.6,413.8 267.1,414.3 387.5,483.8 						"/>
						<polygon class="st7" points="387.7,473.3 501.5,407.5 501.1,407 387.7,472.5 274.3,407 273.8,407.5 387.5,473.2 						"/>
						<polygon class="st7" points="387.7,462.6 494.8,400.7 494.4,400.2 387.7,461.8 281,400.2 280.5,400.7 387.5,462.5 						"/>
						<polygon class="st7" points="387.7,451.9 488.1,393.9 487.7,393.4 387.7,451.2 287.7,393.4 287.2,393.9 387.5,451.8 						"/>
						<polygon class="st7" points="387.7,441.3 481.4,387.1 481,386.6 387.7,440.5 294.4,386.6 293.9,387.1 387.5,441.2 						"/>
						<polygon class="st7" points="387.7,430.6 474.7,380.3 474.3,379.8 387.7,429.8 301.1,379.8 300.6,380.3 387.5,430.5 						"/>
						<polygon class="st7" points="387.7,420 468,373.5 467.5,373 387.7,419.2 307.8,373 307.3,373.5 387.5,419.9 						"/>
						<polygon class="st7" points="387.7,409.3 461.3,366.8 460.8,366.3 387.7,408.5 314.5,366.3 314,366.8 387.5,409.2 						"/>
						<polygon class="st7" points="387.7,398.6 454.6,360 454.1,359.5 387.7,397.9 321.2,359.5 320.7,360 387.5,398.5 						"/>
						<polygon class="st7" points="387.7,388 447.9,353.2 447.4,352.7 387.7,387.2 327.9,352.7 327.4,353.2 387.5,387.9 						"/>
						<polygon class="st7" points="387.7,377.3 441.2,346.4 440.8,345.9 387.7,376.5 334.6,345.9 334.1,346.4 387.5,377.2 						"/>
						<polygon class="st7" points="387.7,366.7 434.5,339.6 434,339.1 387.7,365.9 341.3,339.1 340.8,339.6 387.5,366.6 						"/>
						<polygon class="st7" points="387.7,356 427.8,332.8 427.3,332.3 387.7,355.2 348,332.3 347.5,332.8 387.5,355.9 						"/>
						<polygon class="st7" points="387.7,345.3 421.1,326 420.6,325.5 387.7,344.6 354.7,325.5 354.2,326 387.5,345.3 						"/>
						<polygon class="st7" points="387.7,334.7 414.4,319.2 413.9,318.7 387.7,333.9 361.4,318.7 360.9,319.2 387.5,334.6 						"/>
						<polygon class="st7" points="387.7,324 407.7,312.4 407.2,312 387.7,323.3 368.1,312 367.6,312.4 387.5,323.9 						"/>
						<polygon class="st7" points="387.7,313.4 401,305.7 400.5,305.2 387.7,312.6 374.8,305.2 374.3,305.7 387.5,313.3 						"/>
						<polygon class="st7" points="387.7,302.7 394.3,298.9 393.8,298.4 387.7,301.9 381.5,298.4 381,298.9 387.5,302.6 						"/>
						<polygon class="st4" points="631.6,448.3 692.3,386.8 692.3,483.3 						"/>
						<polygon class="st5" points="752.9,448.3 692.3,386.8 692.3,483.3 						"/>
						<polygon class="st6" points="734.1,429.8 731.7,427.3 692.2,450.2 692.1,450.1 652.6,427.3 650.2,429.8 692.2,454.1 						"/>
						<polygon class="st6" points="723.6,419.1 721.1,416.6 692.2,433.4 692.1,433.3 663.2,416.6 660.7,419.1 692.2,437.3 						"/>
						<polygon class="st6" points="731.5,427.1 729.1,424.7 692.2,446 692.1,445.9 655.3,424.7 652.8,427.1 692.2,449.9 						"/>
						<polygon class="st6" points="736.8,432.5 734.3,430 692.2,454.4 692.1,454.3 650,430 647.5,432.5 692.2,458.3 						"/>
						<polygon class="st6" points="726.2,421.8 723.8,419.3 692.2,437.6 692.1,437.5 660.5,419.3 658.1,421.8 692.2,441.5 						"/>
						<polygon class="st6" points="728.9,424.5 726.4,422 692.2,441.8 692.1,441.7 657.9,422 655.5,424.5 692.2,445.7 						"/>
						<polygon class="st6" points="739.4,435.2 737,432.7 692.2,458.6 692.1,458.5 647.3,432.7 644.9,435.2 692.2,462.5 						"/>
						<polygon class="st6" points="742,437.8 739.6,435.3 692.2,462.8 692.1,462.7 644.7,435.3 642.3,437.8 692.2,466.6 						"/>
						<polygon class="st6" points="750,445.8 747.5,443.4 692.2,475.3 692.1,475.3 636.8,443.4 634.3,445.8 692.2,479.2 						"/>
						<polygon class="st6" points="692.1,479.5 634.2,446 631.7,448.5 692.2,483.4 752.6,448.5 750.1,446 692.2,479.5 						"/>
						<polygon class="st6" points="747.3,443.2 744.9,440.7 692.2,471.1 692.1,471.1 639.4,440.7 637,443.2 692.2,475 						"/>
						<polygon class="st6" points="744.7,440.5 742.2,438 692.2,467 692.1,466.9 642.1,438 639.6,440.5 692.2,470.8 						"/>
						<polygon class="st6" points="718.3,413.8 715.9,411.3 692.2,425 692.1,425 668.5,411.3 666,413.8 692.2,428.9 						"/>
						<polygon class="st6" points="697.2,392.4 694.8,389.9 692.2,391.4 692.1,391.4 689.5,389.9 687.1,392.4 692.2,395.3 						"/>
						<polygon class="st6" points="705.1,400.4 702.7,397.9 692.2,404 692.1,404 681.6,397.9 679.2,400.4 692.2,407.9 						"/>
						<polygon class="st6" points="702.5,397.8 700,395.3 692.2,399.8 692.1,399.8 684.3,395.3 681.8,397.8 692.2,403.7 						"/>
						<polygon class="st6" points="699.9,395.1 697.4,392.6 692.2,395.6 692.1,395.6 686.9,392.6 684.5,395.1 692.2,399.5 						"/>
						<polygon class="st6" points="694.6,389.7 692.2,387.3 689.7,389.7 692.2,391.1 						"/>
						<polygon class="st6" points="710.4,405.8 708,403.3 692.2,412.4 692.1,412.4 676.4,403.3 673.9,405.8 692.2,416.3 						"/>
						<polygon class="st6" points="715.7,411.1 713.2,408.6 692.2,420.8 692.1,420.8 671.1,408.6 668.6,411.1 692.2,424.7 						"/>
						<polygon class="st6" points="707.8,403.1 705.3,400.6 692.2,408.2 692.1,408.2 679,400.6 676.5,403.1 692.2,412.1 						"/>
						<polygon class="st6" points="713,408.4 710.6,406 692.2,416.6 692.1,416.6 673.7,406 671.3,408.4 692.2,420.5 						"/>
						<polygon class="st6" points="721,416.5 718.5,414 692.2,429.2 692.1,429.2 665.8,414 663.4,416.5 692.2,433.1 						"/>
						<polygon class="st7" points="692.2,479.2 634.3,445.8 634.2,446 692.1,479.5 692.2,479.5 750.1,446 750,445.8 						"/>
						<polygon class="st7" points="692.2,475.3 747.5,443.4 747.3,443.2 692.2,475 637,443.2 636.8,443.4 692.1,475.3 						"/>
						<polygon class="st7" points="692.2,471.1 744.9,440.7 744.7,440.5 692.2,470.8 639.6,440.5 639.4,440.7 692.1,471.1 						"/>
						<polygon class="st7" points="692.2,467 742.2,438 742,437.8 692.2,466.6 642.3,437.8 642.1,438 692.1,466.9 						"/>
						<polygon class="st7" points="692.2,462.8 739.6,435.3 739.4,435.2 692.2,462.5 644.9,435.2 644.7,435.3 692.1,462.7 						"/>
						<polygon class="st7" points="692.2,458.6 737,432.7 736.8,432.5 692.2,458.3 647.5,432.5 647.3,432.7 692.1,458.5 						"/>
						<polygon class="st7" points="692.2,454.4 734.3,430 734.1,429.8 692.2,454.1 650.2,429.8 650,430 692.1,454.3 						"/>
						<polygon class="st7" points="692.2,450.2 731.7,427.3 731.5,427.1 692.2,449.9 652.8,427.1 652.6,427.3 692.1,450.1 						"/>
						<polygon class="st7" points="692.2,446 729.1,424.7 728.9,424.5 692.2,445.7 655.5,424.5 655.3,424.7 692.1,445.9 						"/>
						<polygon class="st7" points="692.2,441.8 726.4,422 726.2,421.8 692.2,441.5 658.1,421.8 657.9,422 692.1,441.7 						"/>
						<polygon class="st7" points="692.2,437.6 723.8,419.3 723.6,419.1 692.2,437.3 660.7,419.1 660.5,419.3 692.1,437.5 						"/>
						<polygon class="st7" points="692.2,433.4 721.1,416.6 721,416.5 692.2,433.1 663.4,416.5 663.2,416.6 692.1,433.3 						"/>
						<polygon class="st7" points="692.2,429.2 718.5,414 718.3,413.8 692.2,428.9 666,413.8 665.8,414 692.1,429.2 						"/>
						<polygon class="st7" points="692.2,425 715.9,411.3 715.7,411.1 692.2,424.7 668.6,411.1 668.5,411.3 692.1,425 						"/>
						<polygon class="st7" points="692.2,420.8 713.2,408.6 713,408.4 692.2,420.5 671.3,408.4 671.1,408.6 692.1,420.8 						"/>
						<polygon class="st7" points="692.2,416.6 710.6,406 710.4,405.8 692.2,416.3 673.9,405.8 673.7,406 692.1,416.6 						"/>
						<polygon class="st7" points="692.2,412.4 708,403.3 707.8,403.1 692.2,412.1 676.5,403.1 676.4,403.3 692.1,412.4 						"/>
						<polygon class="st7" points="692.2,408.2 705.3,400.6 705.1,400.4 692.2,407.9 679.2,400.4 679,400.6 692.1,408.2 						"/>
						<polygon class="st7" points="692.2,404 702.7,397.9 702.5,397.8 692.2,403.7 681.8,397.8 681.6,397.9 692.1,404 						"/>
						<polygon class="st7" points="692.2,399.8 700,395.3 699.9,395.1 692.2,399.5 684.5,395.1 684.3,395.3 692.1,399.8 						"/>
						<polygon class="st7" points="692.2,395.6 697.4,392.6 697.2,392.4 692.2,395.3 687.1,392.4 686.9,392.6 692.1,395.6 						"/>
						<polygon class="st7" points="692.2,391.4 694.8,389.9 694.6,389.7 692.2,391.1 689.7,389.7 689.5,389.9 692.1,391.4 						"/>
						<polygon class="st3" points="259,390.3 185.9,358.5 226.4,342.6 						"/>
						<polygon class="st4" points="208.1,360.9 259,309.3 259,390.3 						"/>
						<polygon class="st5" points="309.9,360.9 259,309.3 259,390.3 						"/>
						<polygon class="st6" points="294.1,345.4 292.1,343.3 258.9,362.5 258.8,362.5 225.7,343.3 223.6,345.4 258.9,365.8 						"/>
						<polygon class="st6" points="285.3,336.4 283.2,334.3 258.9,348.4 258.8,348.4 234.6,334.3 232.5,336.4 258.9,351.7 						"/>
						<polygon class="st6" points="291.9,343.2 289.9,341.1 258.9,359 258.8,358.9 227.9,341.1 225.9,343.2 258.9,362.2 						"/>
						<polygon class="st6" points="296.4,347.6 294.3,345.6 258.9,366 258.8,366 223.5,345.6 221.4,347.6 258.9,369.3 						"/>
						<polygon class="st6" points="287.5,338.7 285.4,336.6 258.9,351.9 258.8,351.9 232.3,336.6 230.3,338.7 258.9,355.2 						"/>
						<polygon class="st6" points="289.7,340.9 287.7,338.8 258.9,355.4 258.8,355.4 230.1,338.8 228.1,340.9 258.9,358.7 						"/>
						<polygon class="st6" points="298.6,349.9 296.5,347.8 258.9,369.5 258.8,369.5 221.3,347.8 219.2,349.9 258.9,372.8 						"/>
						<polygon class="st6" points="300.8,352.1 298.7,350 258.9,373.1 258.8,373 219.1,350 217,352.1 258.9,376.3 						"/>
						<polygon class="st6" points="307.4,358.9 305.4,356.8 258.9,383.6 258.8,383.6 212.4,356.8 210.4,358.9 258.9,386.9 						"/>
						<polygon class="st6" points="258.8,387.1 210.2,359 208.1,361.1 258.9,390.4 309.7,361.1 307.6,359 258.9,387.1 						"/>
						<polygon class="st6" points="305.2,356.6 303.2,354.5 258.9,380.1 258.8,380.1 214.6,354.5 212.6,356.6 258.9,383.4 						"/>
						<polygon class="st6" points="303,354.4 301,352.3 258.9,376.6 258.8,376.5 216.8,352.3 214.8,354.4 258.9,379.8 						"/>
						<polygon class="st6" points="280.9,331.9 278.8,329.9 258.9,341.4 258.8,341.3 239,329.9 236.9,331.9 258.9,344.6 						"/>
						<polygon class="st6" points="263.1,314 261.1,311.9 258.9,313.2 258.8,313.1 256.7,311.9 254.6,314 258.9,316.4 						"/>
						<polygon class="st6" points="269.8,320.7 267.7,318.6 258.9,323.7 258.8,323.7 250.1,318.6 248,320.7 258.9,327 						"/>
						<polygon class="st6" points="267.6,318.5 265.5,316.4 258.9,320.2 258.8,320.2 252.3,316.4 250.2,318.5 258.9,323.5 						"/>
						<polygon class="st6" points="265.4,316.2 263.3,314.1 258.9,316.7 258.8,316.7 254.5,314.1 252.4,316.2 258.9,320 						"/>
						<polygon class="st6" points="260.9,311.8 258.9,309.7 256.9,311.8 258.9,312.9 						"/>
						<polygon class="st6" points="274.2,325.2 272.2,323.1 258.9,330.8 258.8,330.8 245.6,323.1 243.6,325.2 258.9,334.1 						"/>
						<polygon class="st6" points="278.6,329.7 276.6,327.6 258.9,337.8 258.8,337.8 241.2,327.6 239.1,329.7 258.9,341.1 						"/>
						<polygon class="st6" points="272,323 269.9,320.9 258.9,327.3 258.8,327.2 247.8,320.9 245.8,323 258.9,330.5 						"/>
						<polygon class="st6" points="276.4,327.4 274.4,325.4 258.9,334.3 258.8,334.3 243.4,325.4 241.4,327.4 258.9,337.6 						"/>
						<polygon class="st6" points="283.1,334.2 281,332.1 258.9,344.9 258.8,344.8 236.8,332.1 234.7,334.2 258.9,348.1 						"/>
						<polygon class="st7" points="258.9,386.9 210.4,358.9 210.2,359 258.8,387.1 258.9,387.1 307.6,359 307.4,358.9 						"/>
						<polygon class="st7" points="258.9,383.6 305.4,356.8 305.2,356.6 258.9,383.4 212.6,356.6 212.4,356.8 258.8,383.6 						"/>
						<polygon class="st7" points="258.9,380.1 303.2,354.5 303,354.4 258.9,379.8 214.8,354.4 214.6,354.5 258.8,380.1 						"/>
						<polygon class="st7" points="258.9,376.6 301,352.3 300.8,352.1 258.9,376.3 217,352.1 216.8,352.3 258.8,376.5 						"/>
						<polygon class="st7" points="258.9,373.1 298.7,350 298.6,349.9 258.9,372.8 219.2,349.9 219.1,350 258.8,373 						"/>
						<polygon class="st7" points="258.9,369.5 296.5,347.8 296.4,347.6 258.9,369.3 221.4,347.6 221.3,347.8 258.8,369.5 						"/>
						<polygon class="st7" points="258.9,366 294.3,345.6 294.1,345.4 258.9,365.8 223.6,345.4 223.5,345.6 258.8,366 						"/>
						<polygon class="st7" points="258.9,362.5 292.1,343.3 291.9,343.2 258.9,362.2 225.9,343.2 225.7,343.3 258.8,362.5 						"/>
						<polygon class="st7" points="258.9,359 289.9,341.1 289.7,340.9 258.9,358.7 228.1,340.9 227.9,341.1 258.8,358.9 						"/>
						<polygon class="st7" points="258.9,355.4 287.7,338.8 287.5,338.7 258.9,355.2 230.3,338.7 230.1,338.8 258.8,355.4 						"/>
						<polygon class="st7" points="258.9,351.9 285.4,336.6 285.3,336.4 258.9,351.7 232.5,336.4 232.3,336.6 258.8,351.9 						"/>
						<polygon class="st7" points="258.9,348.4 283.2,334.3 283.1,334.2 258.9,348.1 234.7,334.2 234.6,334.3 258.8,348.4 						"/>
						<polygon class="st7" points="258.9,344.9 281,332.1 280.9,331.9 258.9,344.6 236.9,331.9 236.8,332.1 258.8,344.8 						"/>
						<polygon class="st7" points="258.9,341.4 278.8,329.9 278.6,329.7 258.9,341.1 239.1,329.7 239,329.9 258.8,341.3 						"/>
						<polygon class="st7" points="258.9,337.8 276.6,327.6 276.4,327.4 258.9,337.6 241.4,327.4 241.2,327.6 258.8,337.8 						"/>
						<polygon class="st7" points="258.9,334.3 274.4,325.4 274.2,325.2 258.9,334.1 243.6,325.2 243.4,325.4 258.8,334.3 						"/>
						<polygon class="st7" points="258.9,330.8 272.2,323.1 272,323 258.9,330.5 245.8,323 245.6,323.1 258.8,330.8 						"/>
						<polygon class="st7" points="258.9,327.3 269.9,320.9 269.8,320.7 258.9,327 248,320.7 247.8,320.9 258.8,327.2 						"/>
						<polygon class="st7" points="258.9,323.7 267.7,318.6 267.6,318.5 258.9,323.5 250.2,318.5 250.1,318.6 258.8,323.7 						"/>
						<polygon class="st7" points="258.9,320.2 265.5,316.4 265.4,316.2 258.9,320 252.4,316.2 252.3,316.4 258.8,320.2 						"/>
						<polygon class="st7" points="258.9,316.7 263.3,314.1 263.1,314 258.9,316.4 254.6,314 254.5,314.1 258.8,316.7 						"/>
						<polygon class="st7" points="258.9,313.2 261.1,311.9 260.9,311.8 258.9,312.9 256.9,311.8 256.7,311.9 258.8,313.1 						"/>
						
							<linearGradient id="SVGID_4_" gradientUnits="userSpaceOnUse" x1="224.4737" y1="-2289.2437" x2="97.5713" y2="-2416.2163" gradientTransform="matrix(1 0 0 1 -3.86 2451.48)">
							<stop  offset="0" style="stop-color:#7485DE"/>
							<stop  offset="0.3" style="stop-color:#6DA9DD"/>
							<stop  offset="0.77" style="stop-color:#64DDDC"/>
							<stop  offset="1" style="stop-color:#60F1DC"/>
						</linearGradient>
						<path class="st8" d="M157.2,188.5c49.6,0,89.7-40.2,89.7-89.8S206.7,9,157.1,9c-49.5,0-89.7,40.2-89.7,89.7
							s40.1,89.8,89.6,89.8C157.1,188.5,157.1,188.5,157.2,188.5z"/>
						
							<linearGradient id="SVGID_5_" gradientUnits="userSpaceOnUse" x1="161.156" y1="-2304.48" x2="161.156" y2="-2397.5742" gradientTransform="matrix(1 0 0 1 -3.86 2451.48)">
							<stop  offset="0" style="stop-color:#80FFE1"/>
							<stop  offset="0.27" style="stop-color:#A5E1E7;stop-opacity:0.73"/>
							<stop  offset="1" style="stop-color:#85A5FF;stop-opacity:0"/>
						</linearGradient>
						<path class="st9" d="M253.8,101c-2.2-1.1-4.4-2.3-6.8-3.4v3.7c1.8,0.9,3.5,1.8,5.2,2.7c21.2,11.2,32.8,22.2,30.9,29.3
							s-17.3,11-41.3,10.4c-25.5-0.5-58.1-5.7-92.1-14.6c-75.3-19.6-122-47.6-118.4-61.5c1.7-6.7,15.3-10.5,37.3-10.5
							c2.9,0,5.9,0,9.1,0.2c0.6-1,0.7-2.3,1.4-3.1c-27.9-1.4-48.2,2.1-50.9,12.6c-5.2,19.9,57.3,49,120.8,65.5
							c34.2,8.9,67.1,14.1,92.9,14.7h4.4c17.7,0,37.4-2.4,40.1-13C289.3,122.6,270.3,109.8,253.8,101z"/>
						
							<linearGradient id="SVGID_6_" gradientUnits="userSpaceOnUse" x1="-887.6672" y1="-3496.7578" x2="-982.8271" y2="-3401.5981" gradientTransform="matrix(0.92 0.39 0.39 -0.92 2786.147 -2775.2393)">
							<stop  offset="0" style="stop-color:#ECB7A0"/>
							<stop  offset="0.61" style="stop-color:#F3DF93"/>
							<stop  offset="1" style="stop-color:#F6F38D"/>
						</linearGradient>
						<circle class="st10" cx="580.8" cy="33.9" r="67.3"/>
						
							<linearGradient id="SVGID_7_" gradientUnits="userSpaceOnUse" x1="765.0372" y1="-2971.9968" x2="752.1488" y2="-2923.8433" gradientTransform="matrix(0.837 0.5473 0.5473 -0.837 1558.8361 -2847.3621)">
							<stop  offset="0" style="stop-color:#ECB7A0"/>
							<stop  offset="0.32" style="stop-color:#ECA88A"/>
							<stop  offset="0.34" style="stop-color:#ECAB8A"/>
							<stop  offset="0.78" style="stop-color:#F3DF8C"/>
							<stop  offset="1" style="stop-color:#F6F38D"/>
						</linearGradient>
						<path class="st11" d="M666.3,70.1c2.8-6.5-4.6-16.7-18.8-27.6l-0.3,2.4c-0.1,0.6-0.2,1.1-0.3,1.7c-0.2,0.8-0.3,1.5-0.5,2.3
							c6.2,6.3,9,11.9,7.3,16c-4.7,11-41.1,6.1-81.3-11s-69.2-39.8-64.5-50.8c1.7-4,7.7-5.9,16.5-5.9c0.4-0.7,0.9-1.3,1.3-1.9
							s0.7-0.9,1-1.4c0.5-0.6,1-1.3,1.5-1.9c-17.7-2.5-30.1-0.8-32.9,5.8c-5.5,12.9,28.4,39.5,75.6,59.5S660.9,83,666.3,70.1z"/>
						
							<linearGradient id="SVGID_8_" gradientUnits="userSpaceOnUse" x1="230.8592" y1="-1186.7806" x2="208.7192" y2="-1165.9208" gradientTransform="matrix(1 0 0 -1 -3.86 -978.4)">
							<stop  offset="0" style="stop-color:#8296FA"/>
							<stop  offset="0.3" style="stop-color:#7BBFFA"/>
							<stop  offset="0.77" style="stop-color:#71FAF8"/>
							<stop  offset="1" style="stop-color:#65FDE7"/>
						</linearGradient>
						<circle class="st12" cx="216.3" cy="198.3" r="14.7"/>
						<g>
							<g>
								<g>
									<defs>
										<path id="SVGID_9_" d="M256,48c-31.9,21.1-43.4,11.2-72,29c-38.1,23.6-28.4,48.3-69,91c-41.4,43.6-65.1,32.4-90,70
											C2.5,271.9-1.8,318.5,11,356c9.2,26.8,26.4,46.3,98,96c81.1,56.3,121.7,84.5,151,94c94.3,30.7,113.4-20.5,259-12
											c113.3,6.6,140.8,39.8,213,16c65.8-21.7,103.8-69.4,116-85c12.6-16.2,76.7-102.6,53-192c-5.8-21.7-9.4-16-79-123
											c-47.5-73-47.4-78.1-64-92c-36.7-30.7-53-19-136-57c-58.8-26.9-59-36.6-101-49c-27.3-8-64-18.4-110-10
											c-12.1,2.2-57.5,11.7-98,47C283.7,14.5,285.8,28.3,256,48z"/>
									</defs>
									<clipPath id="SVGID_10_">
										<use xlink:href="#SVGID_9_"  style="overflow:visible;"/>
									</clipPath>
									<g class="st13">
										
											<linearGradient id="SVGID_11_" gradientUnits="userSpaceOnUse" x1="-502.3225" y1="-1756.0769" x2="-600.9122" y2="-1657.5071" gradientTransform="matrix(0.9841 -0.1776 -0.1776 -0.9841 1059.5204 -1588.7212)">
											<stop  offset="0" style="stop-color:#7891DE"/>
											<stop  offset="0.22" style="stop-color:#72A9D8"/>
											<stop  offset="0.74" style="stop-color:#65DDCB"/>
											<stop  offset="1" style="stop-color:#60F1C6"/>
										</linearGradient>
										<circle class="st14" cx="819.8" cy="188.9" r="69.7"/>
										
											<linearGradient id="SVGID_12_" gradientUnits="userSpaceOnUse" x1="-527.4263" y1="-1772.7272" x2="-576.2363" y2="-1640.0773" gradientTransform="matrix(0.9841 -0.1776 -0.1776 -0.9841 1059.5104 -1588.7212)">
											<stop  offset="0" style="stop-color:#7891DE"/>
											<stop  offset="0.32" style="stop-color:#517FDE"/>
											<stop  offset="0.54" style="stop-color:#57A9D5"/>
											<stop  offset="0.85" style="stop-color:#5DDDCA"/>
											<stop  offset="1" style="stop-color:#60F1C6"/>
										</linearGradient>
										<path class="st15" d="M882.6,158.5c0.4,0.7,0.7,1.5,1,2.3c14.7,1.8,24.2,5.9,25.3,12.1c2.4,13.4-35.5,31.5-84.8,40.4
											s-91.1,5.2-93.5-8.2c-1.1-6.2,6.3-13.4,19.5-20.2c0-0.8,0.1-1.7,0.2-2.5c-16.8,7.9-26.6,16.4-25.3,23.7
											c2.6,14.3,47.1,18.2,99.4,8.7s92.7-28.7,90.1-42.9C913.3,164.6,901.1,160,882.6,158.5z"/>
										
											<linearGradient id="SVGID_13_" gradientUnits="userSpaceOnUse" x1="-537.9851" y1="-1743.2826" x2="-564.8849" y2="-1670.1533" gradientTransform="matrix(0.9841 -0.1776 -0.1776 -0.9841 1059.5104 -1588.7212)">
											<stop  offset="0" style="stop-color:#7891DE"/>
											<stop  offset="0.32" style="stop-color:#517FDE"/>
											<stop  offset="0.54" style="stop-color:#57A9D5"/>
											<stop  offset="0.85" style="stop-color:#5DDDCA"/>
											<stop  offset="1" style="stop-color:#60F1C6"/>
										</linearGradient>
										<path class="st16" d="M883.7,160.7c0.2,0.5,0.5,1.1,0.7,1.6c12.2,1.9,20,5.7,20.9,11.1c2.3,12.9-34,30.2-81.2,38.7
											s-87.3,5-89.6-7.9c-1-5.4,5-11.7,15.7-17.7c0-0.6,0-1.2,0.1-1.8c-13.2,6.8-20.6,14-19.5,20.2c2.4,13.4,44.3,17.1,93.6,8.2
											s87.2-27,84.8-40.4C907.9,166.6,898.4,162.5,883.7,160.7z"/>
										
											<linearGradient id="SVGID_14_" gradientUnits="userSpaceOnUse" x1="-543.4009" y1="-1737.7126" x2="-559.9055" y2="-1676.0726" gradientTransform="matrix(0.9841 -0.1776 -0.1776 -0.9841 1059.5104 -1588.7212)">
											<stop  offset="0" style="stop-color:#7891DE"/>
											<stop  offset="0.32" style="stop-color:#517FDE"/>
											<stop  offset="0.54" style="stop-color:#57A9D5"/>
											<stop  offset="0.85" style="stop-color:#5DDDCA"/>
											<stop  offset="1" style="stop-color:#60F1C6"/>
										</linearGradient>
										<path class="st17" d="M884.3,162.4c0.3,0.7,0.6,1.5,0.9,2.3c9,2,14.6,5.2,15.4,9.7c2.2,12.2-32.2,28.6-76.8,36.6
											s-82.6,4.7-84.8-7.5c-0.8-4.5,3.3-9.5,11-14.5v-2.4c-10.8,6-16.7,12.3-15.7,17.7c2.3,12.9,42.5,16.4,89.6,7.9
											s83.6-25.9,81.2-38.7C904.3,168.1,896.6,164.3,884.3,162.4z"/>
										
											<linearGradient id="SVGID_15_" gradientUnits="userSpaceOnUse" x1="374.9073" y1="-983.7897" x2="315.4275" y2="-927.7396" gradientTransform="matrix(1 0 0 -1 -3.86 -978.4)">
											<stop  offset="0" style="stop-color:#C29BEC"/>
											<stop  offset="0.15" style="stop-color:#C6AAE9"/>
											<stop  offset="0.72" style="stop-color:#D4DEDF"/>
											<stop  offset="1" style="stop-color:#DAF2DB"/>
										</linearGradient>
										<circle class="st18" cx="342.3" cy="-21.7" r="39.5"/>
									</g>
								</g>
							</g>
						</g>
						<rect x="415.5" y="225.7" class="st6" width="9.7" height="9.7"/>
						<path class="st19" d="M420.6,225.8l1.9,2.6l0,0l2.6,1.9c0.1,0.1,0.1,0.2,0,0.3l0,0l-2.6,1.9l0,0l-1.9,2.6
							c-0.1,0.1-0.2,0.1-0.3,0.1c0,0,0,0-0.1-0.1l-1.9-2.6l0,0l-2.6-1.9c-0.1-0.1-0.1-0.2-0.1-0.3c0,0,0-0.1,0.1-0.1l2.6-1.9l0,0
							l1.9-2.6C420.3,225.7,420.4,225.7,420.6,225.8C420.5,225.8,420.5,225.8,420.6,225.8z"/>
						<rect x="542" y="132.2" class="st6" width="11.5" height="11.5"/>
						<path class="st19" d="M548,132.3l2.3,3.1v0.1l3.1,2.3c0.1,0.1,0.1,0.2,0.1,0.4c0,0,0,0-0.1,0.1l-3.1,2.3v0.1l-2.3,3.1
							c-0.1,0.1-0.2,0.1-0.4,0.1c0,0-0.1,0-0.1-0.1l-2.2-3.1l-0.1-0.1l-3.1-2.3c-0.1-0.1-0.1-0.2-0.1-0.4c0,0,0,0,0.1-0.1l3.1-2.3
							l0.1-0.1l2.2-3.1C547.7,132.2,547.8,132.1,548,132.3C548,132.2,548,132.2,548,132.3z"/>
						<rect x="848.3" y="262.6" class="st6" width="4.1" height="4.1"/>
						<path class="st19" d="M850.4,262.7l0.8,1.1l0,0l1.1,0.8c0,0,0.1,0.1,0,0.1l0,0l-1.1,0.8l0,0l-0.8,1.1c0,0-0.1,0.1-0.1,0l0,0
							l-0.8-1.1l0,0l-1.1-0.8c0,0-0.1-0.1,0-0.1l0,0l1.1-0.8l0,0L850.4,262.7C850.3,262.6,850.4,262.6,850.4,262.7L850.4,262.7z"/>
						<rect x="56.6" y="235" class="st6" width="4.4" height="4.4"/>
						<path class="st19" d="M58.9,235.1l0.9,1.2l0,0l1.2,0.9c0,0,0.1,0.1,0,0.1l0,0l-1.2,0.9l0,0l-0.9,1.2c0,0-0.1,0.1-0.1,0l0,0
							l-0.9-1.2l0,0l-1.2-0.9c0,0,0-0.1,0-0.2l0,0l1.2-0.9l0,0L58.9,235.1C58.8,235,58.8,235,58.9,235.1
							C58.9,235,58.9,235,58.9,235.1z"/>
						<rect x="285" y="54.5" class="st6" width="1.2" height="1.2"/>
						<circle class="st20" cx="285.6" cy="55.1" r="0.6"/>
						<rect x="402.3" y="105.4" class="st6" width="3.5" height="3.4"/>
						<circle class="st20" cx="404" cy="107.2" r="1.7"/>
						<rect x="483.1" y="-8.8" class="st6" width="1.2" height="1.2"/>
						<circle class="st20" cx="483.7" cy="-8.2" r="0.6"/>
						<rect x="630.6" y="128.5" class="st6" width="2.3" height="2.3"/>
						<circle class="st20" cx="631.8" cy="129.6" r="1.2"/>
						<rect x="714.3" y="122.3" class="st6" width="2.4" height="2.4"/>
						<circle class="st20" cx="715.5" cy="123.5" r="1.2"/>
						<rect x="643" y="218.5" class="st6" width="2" height="2"/>
						<circle class="st20" cx="644" cy="219.5" r="1"/>
						<rect x="517.8" y="153.6" class="st6" width="1.2" height="1.2"/>
						<circle class="st20" cx="518.4" cy="154.2" r="0.6"/>
						<rect x="317.3" y="220.6" class="st6" width="3.9" height="3.9"/>
						<circle class="st20" cx="319.3" cy="222.6" r="2"/>
						<rect x="162.4" y="268.9" class="st6" width="3.3" height="3.3"/>
						<circle class="st20" cx="164.1" cy="270.6" r="1.6"/>
						<rect x="30.1" y="283.7" class="st6" width="2.4" height="2.4"/>
						<circle class="st20" cx="31.3" cy="284.9" r="1.2"/>
						<rect x="179" y="229.3" class="st6" width="2.8" height="2.8"/>
						<circle class="st20" cx="180.4" cy="230.7" r="1.4"/>
						<rect x="427.5" y="-14.4" class="st6" width="2" height="2"/>
						<circle class="st20" cx="428.6" cy="-13.3" r="1"/>
						<rect x="874.4" y="296.6" class="st6" width="3" height="3"/>
						<circle class="st20" cx="875.9" cy="298.1" r="1.5"/>
						<rect x="769.7" y="102.1" class="st6" width="1.9" height="1.9"/>
						<circle class="st20" cx="770.7" cy="103.1" r="0.9"/>
						<rect x="332.5" y="285.8" class="st6" width="2.2" height="2.2"/>
						<circle class="st20" cx="333.6" cy="286.9" r="1.1"/>
						
							<linearGradient id="SVGID_16_" gradientUnits="userSpaceOnUse" x1="430.82" y1="-50.0514" x2="469.59" y2="-50.0514" gradientTransform="matrix(1 0 0 -1 -3.86 -22.4)">
							<stop  offset="0" style="stop-color:#C1DCE3"/>
							<stop  offset="0.34" style="stop-color:#ADCBD8"/>
							<stop  offset="1" style="stop-color:#7BA2BE"/>
						</linearGradient>
						<path class="st21" d="M427.4,43.7l36.7-34.8c0.1-0.1,0.2-0.1,0.2,0s0,0.1,0,0.2l-34.8,36.7c-0.5,0.7-1.4,0.9-2.1,0.4
							s-0.9-1.4-0.4-2.1C427.1,44,427.2,43.9,427.4,43.7C427.4,43.8,427.4,43.7,427.4,43.7z"/>
						
							<linearGradient id="SVGID_17_" gradientUnits="userSpaceOnUse" x1="473.2206" y1="-40.9" x2="496.6606" y2="-40.9" gradientTransform="matrix(1 0 0 -1 -3.86 -22.4)">
							<stop  offset="0" style="stop-color:#C1DCE3"/>
							<stop  offset="0.34" style="stop-color:#ADCBD8"/>
							<stop  offset="1" style="stop-color:#7BA2BE"/>
						</linearGradient>
						<path class="st22" d="M469.6,28.3l22.2-21.1h0.1v0.1l-21.1,22.2c-0.3,0.4-0.9,0.4-1.3,0C469.3,29.3,469.3,28.7,469.6,28.3
							L469.6,28.3z"/>
					</g>
				</g>
			</g>
		</g>
	</g>
</g>
<path class="st23" d="M409.7,197l-17.6,16.5h-32.2L343.3,197l33.2-81.1L409.7,197z M480.4,201.8c-7.8,16.2-15.6,32.4-23.4,48.5
	c0,0.2-0.1,0.2-0.1,0.4l-80.3,167.1l-77.5-161.4c0-0.2-0.1-0.4-0.1-0.6c-5.7-11.8-11.5-23.6-17.2-35.4l-9-18.7l-0.1,0.1
	c0,0,0-0.1-0.1-0.1c30.3-33.4,60.8-66.9,91.1-100.3v7.1l-42.2,92.3c12,10.6,24,21.2,36,31.7c12.7,0,25.3,0,38,0
	c11.7-10.6,23.4-21.2,35.1-31.7l-42.2-92.2v-7.1C419.1,135,449.7,168.4,480.4,201.8z M446.3,232.2h-40.2c-3.2,3.1-6.4,6.1-9.5,9.3
	c12,0.1,24,0.2,36,0.2l-56,122.3l-55.9-122.3c12-0.1,23.9-0.2,35.8-0.2c-3.4-3.1-6.8-6.1-10.2-9.3h-39.5l69.7,152.3L446.3,232.2z
	 M380.8,440.5l95.8-206.3l26.7,11.2l1.6,34.5l-23.4-4.9l-71.8,133.6C400.1,419.1,390.4,429.8,380.8,440.5z M404.3,439.9
	c11.6-11,23.1-22.1,34.7-33.1c21-39.8,42.1-79.5,63.1-119.3c-4.8-0.6-9.6-1.4-14.4-2C459.8,336.9,432,388.4,404.3,439.9z
	 M370.8,440.5l-94.6-206.3l-26.4,11.2l-1.6,34.5l23.1-4.9l71,133.6C351.8,419.1,361.3,429.8,370.8,440.5z M265.3,285.4
	c-4.8,0.6-9.5,1.4-14.2,2c20.8,39.8,41.5,79.5,62.3,119.3c11.4,11,22.8,22.1,34.3,33.1C320.1,388.4,292.7,336.9,265.3,285.4z"/>
</svg>
