<?xml version="1.0" encoding="utf-8"?>
<!-- Generator: Adobe Illustrator 23.0.6, SVG Export Plug-In . SVG Version: 6.00 Build 0)  -->
<svg version="1.1" id="Calque_1" xmlns="http://www.w3.org/2000/svg" xmlns:xlink="http://www.w3.org/1999/xlink" x="0px" y="0px"
	 viewBox="0 0 1731.3 646.4" style="enable-background:new 0 0 1731.3 646.4;" xml:space="preserve">
<style type="text/css">
	.st0{opacity:0;}
	.st1{opacity:0.15;}
	.st2{fill:none;}
	.st3{fill:#E1DCFF;}
	.st4{fill:#FFFFFF;}
	.st5{fill:url(#SVGID_1_);}
	.st6{opacity:0.6;fill:url(#SVGID_2_);enable-background:new    ;}
	.st7{opacity:0.3;fill:url(#SVGID_3_);enable-background:new    ;}
	.st8{opacity:0.6;fill:url(#SVGID_4_);enable-background:new    ;}
	.st9{fill:url(#SVGID_5_);}
	.st10{fill:url(#SVGID_6_);}
	.st11{fill:url(#SVGID_7_);}
	.st12{fill:url(#SVGID_8_);}
	.st13{opacity:0.6;fill:url(#SVGID_9_);enable-background:new    ;}
</style>
<title>barely visible space pattern3Fichier 3</title>
<g class="st0">
	<g id="Calque_1-2">
		<g class="st1">
			<rect x="536.8" y="6.4" class="st2" width="3.8" height="3.8"/>
			<circle class="st3" cx="538.7" cy="8.3" r="1.9"/>
		</g>
		<g class="st1">
			<rect x="748.7" y="123.3" class="st2" width="1" height="1"/>
			<circle class="st3" cx="749.2" cy="123.8" r="0.5"/>
		</g>
		<g class="st1">
			<rect x="1110.1" y="627" class="st2" width="1.3" height="1.3"/>
			<circle class="st3" cx="1110.7" cy="627.7" r="0.7"/>
		</g>
		<g class="st1">
			<rect x="1315.1" y="521.8" class="st2" width="1.5" height="1.5"/>
			<circle class="st3" cx="1315.8" cy="522.6" r="0.8"/>
		</g>
		<g class="st1">
			<rect x="1316.4" class="st2" width="1.5" height="1.5"/>
			<circle class="st3" cx="1317.1" cy="0.8" r="0.8"/>
		</g>
		<g class="st1">
			<rect x="1397.1" y="357.6" class="st2" width="1.6" height="1.6"/>
			<circle class="st3" cx="1397.9" cy="358.5" r="0.8"/>
		</g>
		<g class="st1">
			<rect x="1157.3" y="368.3" class="st2" width="3.3" height="3.3"/>
			<circle class="st3" cx="1158.9" cy="370" r="1.7"/>
		</g>
		<g class="st1">
			<rect x="968.3" y="537.8" class="st2" width="2.9" height="2.9"/>
			<circle class="st3" cx="969.7" cy="539.2" r="1.4"/>
		</g>
		<g class="st1">
			<rect x="643.7" y="560.7" class="st2" width="3.3" height="3.3"/>
			<circle class="st3" cx="645.3" cy="562.3" r="1.7"/>
		</g>
		<g class="st1">
			<rect x="459.8" y="620.3" class="st2" width="4.5" height="4.5"/>
			<circle class="st3" cx="462" cy="622.6" r="2.2"/>
		</g>
		<g class="st1">
			<rect x="901.6" y="178.9" class="st2" width="3" height="3"/>
			<circle class="st3" cx="903.1" cy="180.4" r="1.5"/>
		</g>
		<g class="st1">
			<rect x="1108" y="122.4" class="st2" width="2.8" height="2.8"/>
			<circle class="st3" cx="1109.4" cy="123.8" r="1.4"/>
		</g>
		<g class="st1">
			<rect x="1580.1" y="26.6" class="st2" width="2.4" height="2.4"/>
			<circle class="st3" cx="1581.3" cy="27.8" r="1.2"/>
		</g>
		<g class="st1">
			<rect x="1657" y="76.8" class="st2" width="1.8" height="1.8"/>
			<circle class="st3" cx="1657.9" cy="77.7" r="0.9"/>
		</g>
		<g class="st1">
			<rect x="1679.4" y="216.9" class="st2" width="1.1" height="1.1"/>
			<circle class="st3" cx="1679.9" cy="217.4" r="0.6"/>
		</g>
		<g class="st1">
			<rect x="1567.8" y="340" class="st2" width="3.7" height="3.7"/>
			<circle class="st3" cx="1569.7" cy="341.8" r="1.8"/>
		</g>
		<g class="st1">
			<rect x="1419.7" y="460.8" class="st2" width="1" height="1"/>
			<circle class="st3" cx="1420.2" cy="461.3" r="0.5"/>
		</g>
		<g class="st1">
			<rect x="1565.6" y="580.5" class="st2" width="2.9" height="2.9"/>
			<circle class="st3" cx="1567.1" cy="581.9" r="1.5"/>
		</g>
		<g class="st1">
			<rect x="1726.9" y="639.2" class="st2" width="4.4" height="4.4"/>
			<circle class="st3" cx="1729.1" cy="641.5" r="2.2"/>
		</g>
		<g class="st1">
			<rect x="1393.2" y="622.1" class="st2" width="2.6" height="2.6"/>
			<circle class="st3" cx="1394.5" cy="623.4" r="1.3"/>
		</g>
		<g class="st1">
			<rect x="1191.2" y="506.6" class="st2" width="1" height="1"/>
			<circle class="st3" cx="1191.7" cy="507.1" r="0.5"/>
		</g>
		<g class="st1">
			<rect x="1042.6" y="331.4" class="st2" width="2.9" height="2.9"/>
			<circle class="st3" cx="1044.1" cy="332.8" r="1.4"/>
		</g>
		<g class="st1">
			<rect x="841.9" y="62.6" class="st2" width="1.7" height="1.7"/>
			<circle class="st3" cx="842.7" cy="63.4" r="0.9"/>
		</g>
		<g class="st1">
			<rect x="762.9" y="222.2" class="st2" width="0.7" height="0.7"/>
			<circle class="st3" cx="763.3" cy="222.6" r="0.4"/>
		</g>
		<g class="st1">
			<rect x="733.2" y="360.8" class="st2" width="1.3" height="1.3"/>
			<circle class="st3" cx="733.8" cy="361.4" r="0.7"/>
			<rect x="763" y="351.8" class="st2" width="4" height="4"/>
			<circle class="st3" cx="765" cy="353.8" r="2"/>
		</g>
		<g class="st1">
			<rect x="441.4" y="236.6" class="st2" width="2.7" height="2.7"/>
			<circle class="st4" cx="442.8" cy="237.9" r="1.4"/>
		</g>
		<g class="st1">
			<rect x="735.5" y="166.6" class="st2" width="4.3" height="4.3"/>
			<circle class="st3" cx="737.6" cy="168.7" r="2.2"/>
		</g>
		<g class="st1">
			<rect x="557" y="262.4" class="st2" width="2.3" height="2.3"/>
			<circle class="st3" cx="558.2" cy="263.6" r="1.2"/>
		</g>
		<g class="st1">
			<rect x="427.6" y="375.4" class="st2" width="2" height="2"/>
			<circle class="st3" cx="428.7" cy="376.4" r="1"/>
		</g>
		<g class="st1">
			<rect x="293.5" y="329.7" class="st2" width="3.6" height="3.6"/>
			<circle class="st3" cx="295.3" cy="331.5" r="1.8"/>
		</g>
		<g class="st1">
			<rect x="358.2" y="162.4" class="st2" width="2.4" height="2.4"/>
			<circle class="st3" cx="359.4" cy="163.6" r="1.2"/>
		</g>
		<g class="st1">
			<rect x="529.7" y="94.1" class="st2" width="3" height="3"/>
			<circle class="st3" cx="531.2" cy="95.6" r="1.5"/>
		</g>
		<g class="st1">
			<rect x="226.6" y="541" class="st2" width="1.6" height="1.6"/>
			<circle class="st3" cx="227.4" cy="541.8" r="0.8"/>
		</g>
		<g class="st1">
			<rect x="161.3" y="642.3" class="st2" width="4" height="4"/>
			<circle class="st3" cx="163.3" cy="644.4" r="2"/>
		</g>
		<g class="st1">
			<rect x="24" y="479.4" class="st2" width="4.2" height="4.2"/>
			<circle class="st3" cx="26.1" cy="481.5" r="2.1"/>
		</g>
		<g class="st1">
			<rect y="274.7" class="st2" width="0.9" height="0.9"/>
			<circle class="st3" cx="0.5" cy="275.1" r="0.5"/>
		</g>
		<g class="st1">
			<rect x="291.1" y="69.6" class="st2" width="0.7" height="0.7"/>
			<circle class="st3" cx="291.5" cy="70" r="0.4"/>
		</g>
		<g class="st1">
			<rect x="998.3" y="11.4" class="st2" width="1.8" height="1.8"/>
			<circle class="st3" cx="999.2" cy="12.3" r="0.9"/>
		</g>
		<g class="st1">
			<rect x="1679.2" y="15.4" class="st2" width="1.4" height="1.4"/>
			<circle class="st3" cx="1679.9" cy="16.1" r="0.7"/>
		</g>
		<g class="st1">
			<rect x="1450.3" y="545.4" class="st2" width="3" height="3"/>
			<circle class="st3" cx="1451.7" cy="546.9" r="1.5"/>
		</g>
		<g class="st1">
			<rect x="500.1" y="278.9" class="st2" width="10.8" height="10.8"/>
			<path class="st3" d="M505.7,279l2.1,2.9l0,0l2.9,2.1c0.1,0.1,0.1,0.2,0,0.4l0,0l-2.9,2.1l0,0l-2.1,2.9c-0.1,0.1-0.2,0.1-0.4,0
				l0,0l-2.1-2.9l0,0l-2.9-2.1c-0.1-0.1-0.1-0.2-0.1-0.3c0,0,0,0,0.1-0.1l2.9-2.1l0,0l2.1-2.9C505.4,278.9,505.6,278.9,505.7,279
				L505.7,279z"/>
		</g>
		<g class="st1">
			<rect x="924.7" y="240.7" class="st2" width="8.8" height="8.8"/>
			<path class="st3" d="M929.3,240.8l1.7,2.4l0,0l2.4,1.7c0.1,0.1,0.1,0.2,0,0.3l0,0L931,247v0.1l-1.7,2.4c-0.1,0.1-0.2,0.1-0.3,0
				l0,0l-1.8-2.4c0,0,0,0,0-0.1l-2.4-1.7c-0.1-0.1-0.1-0.2,0-0.3l0,0l2.4-1.7l0,0l1.7-2.4C929,240.7,929.1,240.7,929.3,240.8
				C929.3,240.7,929.3,240.8,929.3,240.8z"/>
		</g>
		<g class="st1">
			<rect x="1045" y="186.2" class="st2" width="5.6" height="5.6"/>
			<path class="st3" d="M1047.9,186.3l1.1,1.5l0,0l1.5,1.1c0.1,0,0.1,0.1,0,0.2l0,0l-1.5,1.1l0,0l-1.1,1.5c0,0.1-0.1,0.1-0.2,0l0,0
				l-1.1-1.5l0,0l-1.5-1.1c-0.1,0-0.1-0.1,0-0.2l0,0l1.5-1.1l0,0l1.1-1.5C1047.8,186.2,1047.8,186.2,1047.9,186.3L1047.9,186.3z"/>
		</g>
		<g class="st1">
			<rect x="1208.5" y="297.8" class="st2" width="9.9" height="9.9"/>
			<path class="st3" d="M1213.7,297.9l2,2.7l0,0l2.7,2c0.1,0.1,0.1,0.2,0.1,0.3c0,0,0,0-0.1,0.1l-2.7,2l0,0l-2,2.7
				c-0.1,0.1-0.2,0.1-0.3,0.1c0,0,0,0-0.1-0.1l-2-2.7l0,0l-2.7-2c-0.1-0.1-0.1-0.2-0.1-0.3c0,0,0,0,0.1-0.1l2.7-2l0,0l2-2.7
				C1213.4,297.8,1213.5,297.8,1213.7,297.9C1213.6,297.9,1213.7,297.9,1213.7,297.9z"/>
		</g>
		<g class="st1">
			<rect x="776.8" y="503.9" class="st2" width="5.9" height="5.9"/>
			<path class="st3" d="M779.9,504l1.2,1.6l0,0l1.6,1.2c0.1,0,0.1,0.1,0,0.2l0,0l-1.6,1.2l0,0l-1.2,1.6c0,0.1-0.1,0.1-0.2,0l0,0
				l-1.2-1.6l0,0l-1.6-1.2c-0.1,0-0.1-0.1,0-0.2l0,0l1.6-1.2l0,0l1.2-1.6C779.7,503.9,779.8,503.9,779.9,504
				C779.8,504,779.9,504,779.9,504z"/>
		</g>
		<g class="st1">
			<rect x="1619.7" y="76.6" class="st2" width="17.4" height="17.4"/>
			<path class="st3" d="M1628.8,76.8l3.4,4.7l0.1,0.1l4.7,3.4c0.2,0.1,0.2,0.4,0.1,0.5l-0.1,0.1l-4.7,3.4l-0.1,0.1l-3.4,4.7
				c-0.1,0.2-0.4,0.2-0.6,0.1l-0.1-0.1l-3.4-4.7l-0.1-0.1l-4.7-3.4c-0.2-0.1-0.2-0.4-0.1-0.5l0.1-0.1l4.7-3.4l0.1-0.1l3.4-4.7
				C1628.2,76.6,1628.5,76.5,1628.8,76.8C1628.7,76.7,1628.7,76.7,1628.8,76.8z"/>
		</g>
		<g class="st1">
			<rect x="48.1" y="125.3" class="st2" width="15.1" height="15.1"/>
			<path class="st3" d="M55.9,125.4l3,4.1c0,0,0,0.1,0.1,0.1l4.1,3c0.2,0.1,0.2,0.3,0.1,0.5c0,0,0,0.1-0.1,0.1l-4.1,3l-0.1,0.1
				l-3,4.1c-0.1,0.2-0.3,0.2-0.5,0.1c0,0-0.1,0-0.1-0.1l-3-4.1l-0.1-0.1l-4.1-3c-0.2-0.1-0.2-0.3-0.1-0.5c0,0,0-0.1,0.1-0.1l4.1-3
				c0,0,0.1,0,0.1-0.1l3-4.1C55.5,125.2,55.7,125.2,55.9,125.4C55.9,125.3,55.9,125.4,55.9,125.4z"/>
		</g>
	</g>
</g>
<g>
	
		<linearGradient id="SVGID_1_" gradientUnits="userSpaceOnUse" x1="355.7156" y1="526.098" x2="226.1074" y2="396.4835" gradientTransform="matrix(0.9841 -0.1776 0.1776 0.9841 1346.1387 -94.4903)">
		<stop  offset="0" style="stop-color:#7377DE"/>
		<stop  offset="0.31" style="stop-color:#6C9EE5"/>
		<stop  offset="0.77" style="stop-color:#63D2EE"/>
		<stop  offset="1" style="stop-color:#60E6F1"/>
	</linearGradient>
	<circle class="st5" cx="1714.3" cy="307.8" r="91.6"/>
	
		<linearGradient id="SVGID_2_" gradientUnits="userSpaceOnUse" x1="322.7788" y1="547.9058" x2="258.6486" y2="373.6122" gradientTransform="matrix(0.9841 -0.1776 0.1776 0.9841 1346.1387 -94.4903)">
		<stop  offset="0" style="stop-color:#7377DE"/>
		<stop  offset="0.32" style="stop-color:#515DDE"/>
		<stop  offset="0.61" style="stop-color:#589EE7"/>
		<stop  offset="0.87" style="stop-color:#5ED2EE"/>
		<stop  offset="1" style="stop-color:#60E6F1"/>
	</linearGradient>
	<path class="st6" d="M1796.9,267.8c0.5,1,0.9,1.9,1.4,3c19.4,2.3,31.8,7.7,33.3,15.9c3.2,17.6-46.7,41.4-111.4,53.1
		c-64.7,11.7-119.8,6.8-123-10.8c-1.5-8.2,8.3-17.6,25.6-26.5c0.1-1.1,0.1-2.2,0.2-3.3c-22.1,10.3-34.9,21.5-33.2,31.1
		c3.4,18.8,61.9,23.9,130.6,11.5c68.8-12.4,121.7-37.7,118.4-56.4C1837.1,275.9,1821.1,269.8,1796.9,267.8z"/>
	
		<linearGradient id="SVGID_3_" gradientUnits="userSpaceOnUse" x1="308.7031" y1="509.3822" x2="273.3451" y2="413.2919" gradientTransform="matrix(0.9841 -0.1776 0.1776 0.9841 1346.1387 -94.4903)">
		<stop  offset="0" style="stop-color:#7377DE"/>
		<stop  offset="0.32" style="stop-color:#515DDE"/>
		<stop  offset="0.61" style="stop-color:#589EE7"/>
		<stop  offset="0.87" style="stop-color:#5ED2EE"/>
		<stop  offset="1" style="stop-color:#60E6F1"/>
	</linearGradient>
	<path class="st7" d="M1798.3,270.8c0.3,0.7,0.6,1.4,0.9,2.1c16,2.5,26.2,7.4,27.5,14.6c3,16.9-44.7,39.7-106.7,50.9
		c-62,11.2-114.8,6.6-117.8-10.3c-1.3-7.2,6.5-15.4,20.7-23.3c0-0.8,0.1-1.5,0.1-2.3c-17.3,8.9-27.1,18.4-25.6,26.5
		c3.2,17.6,58.2,22.5,122.9,10.8c64.7-11.7,114.6-35.5,111.4-53.1C1830,278.5,1817.6,273.2,1798.3,270.8z"/>
	
		<linearGradient id="SVGID_4_" gradientUnits="userSpaceOnUse" x1="301.8027" y1="502.0592" x2="280.0788" y2="420.987" gradientTransform="matrix(0.9841 -0.1776 0.1776 0.9841 1346.1387 -94.4903)">
		<stop  offset="0" style="stop-color:#7377DE"/>
		<stop  offset="0.32" style="stop-color:#515DDE"/>
		<stop  offset="0.61" style="stop-color:#589EE7"/>
		<stop  offset="0.87" style="stop-color:#5ED2EE"/>
		<stop  offset="1" style="stop-color:#60E6F1"/>
	</linearGradient>
	<path class="st8" d="M1799.2,272.9c0.4,1,0.8,1.9,1.2,3c11.8,2.6,19.2,6.9,20.3,12.7c2.9,16-42.3,37.5-101,48.1
		c-58.7,10.6-108.6,6.2-111.4-9.8c-1-5.8,4.3-12.5,14.5-19c0-1.1,0-2.1,0.1-3.2c-14.1,7.9-22,16.1-20.7,23.3
		c3,16.9,55.8,21.5,117.8,10.3c62-11.2,109.8-34,106.7-50.8C1825.3,280.4,1815.2,275.4,1799.2,272.9z"/>
</g>
<linearGradient id="SVGID_5_" gradientUnits="userSpaceOnUse" x1="1675.4452" y1="82.4263" x2="1634.4436" y2="121.0634" gradientTransform="matrix(1 0 0 -1 0 570)">
	<stop  offset="0" style="stop-color:#C29BEC"/>
	<stop  offset="0.15" style="stop-color:#C6AAE9"/>
	<stop  offset="0.72" style="stop-color:#D4DEDF"/>
	<stop  offset="1" style="stop-color:#DAF2DB"/>
</linearGradient>
<circle class="st9" cx="1655.6" cy="468.9" r="27.2"/>
<linearGradient id="SVGID_6_" gradientUnits="userSpaceOnUse" x1="125.9135" y1="-642.7075" x2="61.5785" y2="-707.0781" gradientTransform="matrix(1 0 0 1 0 897.0801)">
	<stop  offset="0" style="stop-color:#7485DE"/>
	<stop  offset="0.3" style="stop-color:#6DA9DD"/>
	<stop  offset="0.77" style="stop-color:#64DDDC"/>
	<stop  offset="1" style="stop-color:#60F1DC"/>
</linearGradient>
<path class="st10" d="M93.8,267.7c25.1,0,45.5-20.4,45.5-45.5s-20.4-45.5-45.5-45.5c-25.1,0-45.5,20.4-45.5,45.5
	C48.3,247.3,68.7,267.7,93.8,267.7L93.8,267.7z"/>
<linearGradient id="SVGID_7_" gradientUnits="userSpaceOnUse" x1="93.8009" y1="-650.4191" x2="93.8009" y2="-697.6144" gradientTransform="matrix(1 0 0 1 0 897.0801)">
	<stop  offset="0" style="stop-color:#80FFE1"/>
	<stop  offset="0.27" style="stop-color:#A5E1E7;stop-opacity:0.73"/>
	<stop  offset="1" style="stop-color:#85A5FF;stop-opacity:0"/>
</linearGradient>
<path class="st11" d="M142.7,223.3c-1.1-0.6-2.2-1.2-3.4-1.7v1.9c0.9,0.5,1.8,0.9,2.6,1.4c10.7,5.7,16.6,11.3,15.7,14.9
	c-1,3.6-8.8,5.6-20.9,5.3c-12.9-0.3-29.5-2.9-46.7-7.4c-38.2-9.9-61.8-24.1-60-31.2c0.9-3.4,7.8-5.3,18.9-5.3c1.5,0,3,0,4.6,0.1
	c0.3-0.5,0.4-1.2,0.7-1.6c-14.1-0.7-24.4,1.1-25.8,6.4c-2.6,10.1,29,24.8,61.2,33.2c17.3,4.5,34,7.1,47.1,7.5c0.7,0,1.5,0,2.2,0
	c9,0,19-1.2,20.3-6.6C160.7,234.3,151.1,227.8,142.7,223.3z"/>
<linearGradient id="SVGID_8_" gradientUnits="userSpaceOnUse" x1="-1473.7994" y1="-1461.1346" x2="-1568.9596" y2="-1365.9747" gradientTransform="matrix(0.9448 -0.3252 -0.3252 -0.9448 1001.0865 -1418.6064)">
	<stop  offset="0" style="stop-color:#ECB7A0"/>
	<stop  offset="0.61" style="stop-color:#F3DF93"/>
	<stop  offset="1" style="stop-color:#F6F38D"/>
</linearGradient>
<circle class="st12" cx="24" cy="412.1" r="67.3"/>
<linearGradient id="SVGID_9_" gradientUnits="userSpaceOnUse" x1="59.3225" y1="-584.0911" x2="46.4241" y2="-535.9272" gradientTransform="matrix(0.9883 -0.1528 -0.1528 -0.9883 -113.2446 -132.0131)">
	<stop  offset="0" style="stop-color:#ECB7A0"/>
	<stop  offset="0.32" style="stop-color:#ECA88A"/>
	<stop  offset="0.34" style="stop-color:#ECAB8A"/>
	<stop  offset="0.78" style="stop-color:#F3DF8C"/>
	<stop  offset="1" style="stop-color:#F6F38D"/>
</linearGradient>
<path class="st13" d="M111.8,381.8c-2.3-6.7-14.6-9.3-32.4-7.9c0.5,0.7,0.9,1.3,1.4,2c0.3,0.5,0.6,1,0.9,1.5c0.4,0.7,0.8,1.3,1.2,2
	c8.8,0.5,14.6,2.8,16.1,7c3.9,11.3-26.5,32-67.8,46.2s-78.1,16.7-81.9,5.4c-1.4-4.1,1.8-9.5,8.3-15.4c-0.2-0.8-0.2-1.6-0.3-2.3
	c-0.1-0.6-0.1-1.1-0.2-1.7c0-0.8-0.1-1.6-0.2-2.4c-14.8,10-22.9,19.5-20.6,26.3c4.5,13.3,47.5,10.4,96-6.3
	C80.7,419.4,116.4,395,111.8,381.8z"/>
</svg>
