<svg xmlns="http://www.w3.org/2000/svg" xmlns:xlink="http://www.w3.org/1999/xlink" viewBox="0 0 1731.29 646.37"><defs><style>.cls-1,.cls-6,.cls-7,.cls-8,.cls-9{opacity:0.15;}.cls-2{fill:url(#Dégradé_sans_nom_5);}.cls-3,.cls-5{opacity:0.6;}.cls-3,.cls-4,.cls-5{isolation:isolate;}.cls-3{fill:url(#Dégradé_sans_nom_8);}.cls-4{opacity:0.3;fill:url(#Dégradé_sans_nom_8-2);}.cls-5{fill:url(#Dégradé_sans_nom_8-3);}.cls-6{fill:url(#Dégradé_sans_nom_5-2);}.cls-7{fill:url(#Dégradé_sans_nom_5-3);}.cls-8{fill:url(#Dégradé_sans_nom_2);}.cls-9{fill:url(#Dégradé_sans_nom_6);}.cls-10{fill:none;}.cls-11{fill:#e1dcff;}.cls-12{fill:#fff;}</style><linearGradient id="Dégradé_sans_nom_5" x1="-23.42" y1="-633.8" x2="-188.2" y2="-469.01" gradientTransform="matrix(0.98, -0.18, -0.18, -0.98, 1381, -383.04)" gradientUnits="userSpaceOnUse"><stop offset="0" stop-color="#7377de"/><stop offset="0.31" stop-color="#6c9ee5"/><stop offset="0.77" stop-color="#63d2ee"/><stop offset="1" stop-color="#60e6f1"/></linearGradient><linearGradient id="Dégradé_sans_nom_8" x1="-65.31" y1="-661.47" x2="-146.84" y2="-439.9" gradientTransform="matrix(0.98, -0.18, -0.18, -0.98, 1381, -383.04)" gradientUnits="userSpaceOnUse"><stop offset="0" stop-color="#7377de"/><stop offset="0.32" stop-color="#515dde"/><stop offset="0.61" stop-color="#589ee7"/><stop offset="0.87" stop-color="#5ed2ee"/><stop offset="1" stop-color="#60e6f1"/></linearGradient><linearGradient id="Dégradé_sans_nom_8-2" x1="-83.35" y1="-612.46" x2="-128.28" y2="-490.36" xlink:href="#Dégradé_sans_nom_8"/><linearGradient id="Dégradé_sans_nom_8-3" x1="-91.96" y1="-603.14" x2="-119.57" y2="-500.08" xlink:href="#Dégradé_sans_nom_8"/><linearGradient id="Dégradé_sans_nom_5-2" x1="955.67" y1="288.76" x2="866.87" y2="372.44" gradientTransform="matrix(1, 0, 0, -1, 0, 765.48)" xlink:href="#Dégradé_sans_nom_5"/><linearGradient id="Dégradé_sans_nom_5-3" x1="700.26" y1="478.79" x2="662.71" y2="514.17" gradientTransform="matrix(1, 0, 0, -1, 0, 765.48)" xlink:href="#Dégradé_sans_nom_5"/><linearGradient id="Dégradé_sans_nom_2" x1="1644.84" y1="213.67" x2="1556.27" y2="302.3" gradientTransform="matrix(1, 0, 0, -1, 0, 698.56)" gradientUnits="userSpaceOnUse"><stop offset="0" stop-color="#7485de"/><stop offset="0.3" stop-color="#6da9dd"/><stop offset="0.77" stop-color="#64dddc"/><stop offset="1" stop-color="#60f1dc"/></linearGradient><linearGradient id="Dégradé_sans_nom_6" x1="1600.63" y1="224.29" x2="1600.63" y2="289.27" gradientTransform="matrix(1, 0, 0, -1, 0, 698.56)" gradientUnits="userSpaceOnUse"><stop offset="0" stop-color="#80ffe1"/><stop offset="0.27" stop-color="#a5e1e7" stop-opacity="0.73"/><stop offset="1" stop-color="#85a5ff" stop-opacity="0"/></linearGradient></defs><title>barely visible space patternFichier 1</title><g id="Calque_2" data-name="Calque 2"><g id="Calque_1-2" data-name="Calque 1"><g class="cls-1"><circle class="cls-2" cx="1374.8" cy="178.39" r="116.52"/><path class="cls-3" d="M1479.67,127.56q.9,1.86,1.74,3.78c24.6,3,40.46,9.84,42.33,20.17,4,22.44-59.35,52.65-141.61,67.5s-152.22,8.7-156.26-13.73c-1.87-10.34,10.59-22.33,32.59-33.7.09-1.39.19-2.78.32-4.15-28.07,13.15-44.41,27.4-42.22,39.52,4.3,23.85,78.62,30.37,166,14.57S1537.3,173.64,1533,149.81C1530.86,137.71,1510.57,130.07,1479.67,127.56Z"/><path class="cls-4" d="M1481.41,131.34c.4.9.78,1.81,1.16,2.72,20.37,3.17,33.32,9.47,35,18.57,3.87,21.49-56.88,50.45-135.71,64.67s-145.87,8.34-149.75-13.15c-1.64-9.09,8.29-19.53,26.26-29.62,0-1,.08-2,.13-2.95-22,11.36-34.45,23.35-32.59,33.7,4,22.43,74,28.58,156.26,13.73s145.65-45.06,141.61-67.5C1521.87,141.18,1506,134.3,1481.41,131.34Z"/><path class="cls-5" d="M1482.57,134.06c.52,1.25,1,2.51,1.48,3.78,15,3.28,24.38,8.74,25.72,16.19,3.67,20.33-53.78,47.72-128.32,61.17s-138,7.87-141.62-12.45c-1.35-7.45,5.53-15.85,18.44-24.17,0-1.35,0-2.7.06-4.05-18,10.05-27.9,20.52-26.26,29.62,3.87,21.5,70.93,27.39,149.75,13.15s139.6-43.17,135.71-64.63C1515.89,143.53,1502.94,137.2,1482.57,134.06Z"/></g><circle class="cls-6" cx="912.79" cy="436.31" r="58.93"/><circle class="cls-7" cx="682.12" cy="269.6" r="24.92"/><path class="cls-8" d="M1600.56,503.24a62.65,62.65,0,1,0-62.68-62.68,62.62,62.62,0,0,0,62.68,62.68Z"/><path class="cls-9" d="M1668,442.16c-1.54-.77-3.07-1.6-4.75-2.37v2.58c1.26.63,2.45,1.26,3.63,1.88,14.8,7.82,22.9,15.5,21.57,20.46s-12.07,7.67-28.83,7.26c-17.79-.35-40.55-4-64.28-10.2-52.56-13.68-85.16-33.22-82.65-42.92,1.19-4.68,10.68-7.33,26-7.33,2,0,4.12,0,6.35.14.42-.7.49-1.61,1-2.17-19.48-1-33.64,1.47-35.53,8.8-3.63,13.89,40,34.2,84.32,45.72,23.87,6.21,46.84,9.84,64.84,10.26h3.08c12.35,0,26.1-1.68,28-9.08C1692.77,457.24,1679.51,448.3,1668,442.16Z"/><g class="cls-1"><rect class="cls-10" x="536.84" y="6.43" width="3.75" height="3.75"/><circle class="cls-11" cx="538.71" cy="8.3" r="1.87"/></g><g class="cls-1"><rect class="cls-10" x="748.66" y="123.33" width="1.02" height="1.02"/><circle class="cls-11" cx="749.18" cy="123.84" r="0.51"/></g><g class="cls-1"><rect class="cls-10" x="967.58" y="251.22" width="4.22" height="4.22"/><circle class="cls-11" cx="969.69" cy="253.33" r="2.11"/></g><g class="cls-1"><rect class="cls-10" x="1060.3" y="132.4" width="3.4" height="3.4"/><circle class="cls-11" cx="1062" cy="134.1" r="1.7"/></g><g class="cls-1"><rect class="cls-10" x="603.33" y="486.97" width="1.95" height="1.95"/><circle class="cls-11" cx="604.3" cy="487.94" r="0.98"/></g><g class="cls-1"><rect class="cls-10" x="1110.05" y="627.03" width="1.32" height="1.32"/><circle class="cls-11" cx="1110.71" cy="627.69" r="0.66"/></g><g class="cls-1"><rect class="cls-10" x="1315.09" y="521.8" width="1.51" height="1.51"/><circle class="cls-11" cx="1315.84" cy="522.56" r="0.76"/></g><g class="cls-1"><rect class="cls-10" x="1316.36" width="1.53" height="1.53"/><circle class="cls-11" cx="1317.12" cy="0.77" r="0.77"/></g><g class="cls-1"><rect class="cls-10" x="1635.15" y="238.03" width="2.4" height="2.4"/><circle class="cls-11" cx="1636.36" cy="239.23" r="1.2"/></g><g class="cls-1"><rect class="cls-10" x="1397.09" y="357.65" width="1.61" height="1.61"/><circle class="cls-11" cx="1397.89" cy="358.46" r="0.81"/></g><g class="cls-1"><rect class="cls-10" x="1157.25" y="368.32" width="3.3" height="3.3"/><circle class="cls-11" cx="1158.9" cy="369.97" r="1.65"/></g><g class="cls-1"><rect class="cls-10" x="968.25" y="537.79" width="2.87" height="2.87"/><circle class="cls-11" cx="969.69" cy="539.23" r="1.44"/></g><g class="cls-1"><rect class="cls-10" x="643.68" y="560.65" width="3.31" height="3.31"/><circle class="cls-11" cx="645.33" cy="562.3" r="1.65"/></g><g class="cls-1"><rect class="cls-10" x="459.75" y="620.32" width="4.48" height="4.48"/><circle class="cls-11" cx="462" cy="622.56" r="2.24"/></g><g class="cls-1"><rect class="cls-10" x="901.58" y="178.92" width="2.96" height="2.96"/><circle class="cls-11" cx="903.06" cy="180.4" r="1.48"/></g><g class="cls-1"><rect class="cls-10" x="1108.02" y="122.43" width="2.82" height="2.82"/><circle class="cls-11" cx="1109.43" cy="123.84" r="1.41"/></g><g class="cls-1"><rect class="cls-10" x="1580.07" y="26.64" width="2.41" height="2.41"/><circle class="cls-11" cx="1581.28" cy="27.84" r="1.2"/></g><g class="cls-1"><rect class="cls-10" x="1657.02" y="76.84" width="1.78" height="1.78"/><circle class="cls-11" cx="1657.91" cy="77.73" r="0.89"/></g><g class="cls-1"><rect class="cls-10" x="1679.39" y="216.88" width="1.11" height="1.11"/><circle class="cls-11" cx="1679.95" cy="217.43" r="0.55"/></g><g class="cls-1"><rect class="cls-10" x="1567.85" y="339.95" width="3.68" height="3.68"/><circle class="cls-11" cx="1569.69" cy="341.79" r="1.84"/></g><g class="cls-1"><rect class="cls-10" x="1419.73" y="460.81" width="1.04" height="1.04"/><circle class="cls-11" cx="1420.24" cy="461.33" r="0.52"/></g><g class="cls-1"><rect class="cls-10" x="1565.61" y="580.45" width="2.92" height="2.92"/><circle class="cls-11" cx="1567.07" cy="581.91" r="1.46"/></g><g class="cls-1"><rect class="cls-10" x="1726.87" y="639.24" width="4.42" height="4.42"/><circle class="cls-11" cx="1729.08" cy="641.45" r="2.21"/></g><g class="cls-1"><rect class="cls-10" x="1393.16" y="622.12" width="2.64" height="2.64"/><circle class="cls-11" cx="1394.48" cy="623.44" r="1.32"/></g><g class="cls-1"><rect class="cls-10" x="1191.15" y="506.64" width="1.01" height="1.01"/><circle class="cls-11" cx="1191.65" cy="507.15" r="0.5"/></g><g class="cls-1"><rect class="cls-10" x="1042.6" y="331.36" width="2.9" height="2.9"/><circle class="cls-11" cx="1044.05" cy="332.82" r="1.45"/></g><g class="cls-1"><rect class="cls-10" x="988.08" y="109.99" width="2.02" height="2.02"/><circle class="cls-11" cx="989.09" cy="111" r="1.01"/></g><g class="cls-1"><rect class="cls-10" x="841.87" y="62.56" width="1.73" height="1.73"/><circle class="cls-11" cx="842.73" cy="63.42" r="0.87"/></g><g class="cls-1"><rect class="cls-10" x="762.92" y="222.2" width="0.72" height="0.72"/><circle class="cls-11" cx="763.28" cy="222.56" r="0.36"/></g><g class="cls-1"><rect class="cls-10" x="733.18" y="360.77" width="1.29" height="1.29"/><circle class="cls-11" cx="733.82" cy="361.42" r="0.65"/><rect class="cls-10" x="762.96" y="351.78" width="4.05" height="4.05"/><circle class="cls-11" cx="764.99" cy="353.8" r="2.03"/></g><g class="cls-1"><rect class="cls-10" x="510.13" y="395.06" width="3.72" height="3.72"/><circle class="cls-11" cx="512" cy="396.92" r="1.86"/></g><g class="cls-1"><rect class="cls-10" x="575.8" y="148.89" width="3.99" height="3.99"/><circle class="cls-11" cx="577.79" cy="150.89" r="2"/><rect class="cls-10" x="552.23" y="170.5" width="1.66" height="1.66"/><circle class="cls-11" cx="553.06" cy="171.33" r="0.83"/></g><g class="cls-1"><rect class="cls-10" x="441.41" y="236.59" width="2.72" height="2.72"/><circle class="cls-12" cx="442.77" cy="237.94" r="1.36"/></g><g class="cls-1"><rect class="cls-10" x="735.48" y="166.56" width="4.31" height="4.31"/><circle class="cls-11" cx="737.64" cy="168.71" r="2.15"/></g><g class="cls-1"><rect class="cls-10" x="556.98" y="262.42" width="2.33" height="2.33"/><circle class="cls-11" cx="558.15" cy="263.59" r="1.17"/></g><g class="cls-1"><rect class="cls-10" x="427.65" y="375.39" width="2.02" height="2.02"/><circle class="cls-11" cx="428.66" cy="376.41" r="1.01"/></g><g class="cls-1"><rect class="cls-10" x="293.51" y="329.72" width="3.64" height="3.64"/><circle class="cls-11" cx="295.33" cy="331.53" r="1.82"/></g><g class="cls-1"><rect class="cls-10" x="358.22" y="162.37" width="2.43" height="2.43"/><circle class="cls-11" cx="359.43" cy="163.59" r="1.21"/></g><g class="cls-1"><rect class="cls-10" x="529.73" y="94.14" width="2.99" height="2.99"/><circle class="cls-11" cx="531.23" cy="95.64" r="1.5"/></g><g class="cls-1"><rect class="cls-10" x="226.6" y="541.01" width="1.56" height="1.56"/><circle class="cls-11" cx="227.38" cy="541.79" r="0.78"/></g><g class="cls-1"><rect class="cls-10" x="161.26" y="642.34" width="4.04" height="4.04"/><circle class="cls-11" cx="163.28" cy="644.36" r="2.02"/></g><g class="cls-1"><rect class="cls-10" x="23.98" y="479.42" width="4.24" height="4.24"/><circle class="cls-11" cx="26.1" cy="481.53" r="2.12"/></g><g class="cls-1"><rect class="cls-10" y="274.67" width="0.92" height="0.92"/><circle class="cls-11" cx="0.46" cy="275.12" r="0.46"/></g><g class="cls-1"><rect class="cls-10" x="291.12" y="69.63" width="0.72" height="0.72"/><circle class="cls-11" cx="291.48" cy="70" r="0.36"/></g><g class="cls-1"><rect class="cls-10" x="998.29" y="11.41" width="1.78" height="1.78"/><circle class="cls-11" cx="999.18" cy="12.3" r="0.89"/></g><g class="cls-1"><rect class="cls-10" x="1679.24" y="15.45" width="1.4" height="1.4"/><circle class="cls-11" cx="1679.95" cy="16.15" r="0.7"/></g><g class="cls-1"><rect class="cls-10" x="1450.25" y="545.43" width="2.99" height="2.99"/><circle class="cls-11" cx="1451.74" cy="546.92" r="1.49"/></g><g class="cls-1"><rect class="cls-10" x="498.34" y="281.91" width="14.4" height="14.4"/><path class="cls-11" d="M505.81,282l2.82,3.9a.27.27,0,0,0,.08.07l3.89,2.83a.32.32,0,0,1,0,.53l-3.89,2.82-.08.08-2.82,3.9a.33.33,0,0,1-.53,0l-2.83-3.9a.27.27,0,0,0-.07-.08l-3.9-2.82a.33.33,0,0,1,0-.53l3.9-2.83a.23.23,0,0,0,.07-.07l2.83-3.9A.33.33,0,0,1,505.81,282Z"/></g><g class="cls-1"><rect class="cls-10" x="614" y="403.04" width="11.35" height="11.35"/><path class="cls-11" d="M619.88,403.15l2.23,3.07,0,.06,3.08,2.23a.25.25,0,0,1,0,.41l-3.08,2.23,0,.06-2.23,3.07a.25.25,0,0,1-.42,0l-2.23-3.07-.05-.06-3.08-2.23a.25.25,0,0,1,0-.41l3.08-2.23.05-.06,2.23-3.07A.26.26,0,0,1,619.88,403.15Z"/></g><g class="cls-1"><rect class="cls-10" x="924.72" y="240.69" width="8.79" height="8.79"/><path class="cls-11" d="M929.28,240.77l1.72,2.39,0,0,2.38,1.72a.21.21,0,0,1,0,.33L931.05,247l0,.05-1.72,2.38a.21.21,0,0,1-.33,0L927.23,247s0,0-.05-.05l-2.38-1.72a.21.21,0,0,1,0-.33l2.38-1.72.05,0,1.72-2.39A.21.21,0,0,1,929.28,240.77Z"/></g><g class="cls-1"><rect class="cls-10" x="1045.04" y="186.24" width="5.59" height="5.59"/><path class="cls-11" d="M1047.94,186.3l1.1,1.51,0,0,1.51,1.09a.13.13,0,0,1,0,.21l-1.51,1.1s0,0,0,0l-1.1,1.51a.12.12,0,0,1-.2,0l-1.1-1.51s0,0,0,0l-1.51-1.1a.13.13,0,0,1,0-.21l1.51-1.09,0,0,1.1-1.51A.11.11,0,0,1,1047.94,186.3Z"/></g><g class="cls-1"><rect class="cls-10" x="1208.52" y="297.82" width="9.94" height="9.94"/><path class="cls-11" d="M1213.68,297.91l2,2.69,0,0,2.69,2a.22.22,0,0,1,0,.37l-2.69,1.95a.12.12,0,0,0,0,.05l-2,2.69a.22.22,0,0,1-.37,0l-2-2.69a.12.12,0,0,0,0-.05l-2.69-1.95a.22.22,0,0,1,0-.37l2.69-2,0,0,2-2.69A.22.22,0,0,1,1213.68,297.91Z"/></g><g class="cls-1"><rect class="cls-10" x="776.79" y="503.92" width="5.92" height="5.92"/><path class="cls-11" d="M779.86,504l1.17,1.61s0,0,0,0l1.6,1.16a.13.13,0,0,1,0,.22l-1.6,1.16,0,0-1.17,1.61a.13.13,0,0,1-.21,0l-1.17-1.61,0,0-1.6-1.16a.13.13,0,0,1,0-.22l1.6-1.16,0,0,1.17-1.61A.13.13,0,0,1,779.86,504Z"/></g><g class="cls-1"><rect class="cls-10" x="1624.67" y="76.98" width="7.53" height="7.53"/><path class="cls-11" d="M1628.57,77.05l1.48,2a.08.08,0,0,0,0,0l2,1.48a.17.17,0,0,1,0,.27l-2,1.48a.08.08,0,0,0,0,0l-1.48,2a.17.17,0,0,1-.27,0l-1.48-2a.08.08,0,0,0,0,0l-2-1.48a.17.17,0,0,1,0-.27l2-1.48a.08.08,0,0,0,0,0l1.48-2A.17.17,0,0,1,1628.57,77.05Z"/></g><g class="cls-1"><rect class="cls-10" x="1190.98" y="586.45" width="12.94" height="12.94"/><path class="cls-11" d="M1197.7,586.58l2.53,3.5.07.07,3.51,2.54a.29.29,0,0,1,0,.47l-3.51,2.54-.07.07-2.53,3.51a.3.3,0,0,1-.48,0l-2.54-3.51a.23.23,0,0,0-.07-.07l-3.5-2.54a.28.28,0,0,1,0-.47l3.5-2.54a.23.23,0,0,0,.07-.07l2.54-3.5A.29.29,0,0,1,1197.7,586.58Z"/></g><g class="cls-1"><rect class="cls-10" x="1523.95" y="603.67" width="16.98" height="16.98"/><path class="cls-11" d="M1532.75,603.83l3.33,4.6a.2.2,0,0,0,.09.09l4.6,3.33a.39.39,0,0,1,0,.63l-4.6,3.33a.24.24,0,0,0-.09.08l-3.33,4.6a.38.38,0,0,1-.63,0l-3.33-4.6a.24.24,0,0,0-.09-.08l-4.59-3.33a.38.38,0,0,1,0-.63l4.59-3.33a.2.2,0,0,0,.09-.09l3.33-4.6A.39.39,0,0,1,1532.75,603.83Z"/></g><g class="cls-1"><rect class="cls-10" x="702.54" y="537.27" width="21.66" height="21.66"/><path class="cls-11" d="M713.77,537.48l4.25,5.86.11.11L724,547.7a.5.5,0,0,1,0,.8l-5.87,4.25-.11.11-4.25,5.87a.5.5,0,0,1-.8,0l-4.25-5.87-.11-.11-5.87-4.25a.5.5,0,0,1,0-.8l5.87-4.25.11-.11,4.25-5.86A.49.49,0,0,1,713.77,537.48Z"/></g><g class="cls-1"><rect class="cls-10" x="1186.83" y="103.24" width="15.12" height="15.12"/><path class="cls-11" d="M1194.67,103.38l3,4.1a.27.27,0,0,0,.08.07l4.09,3a.35.35,0,0,1,0,.56l-4.09,3a.6.6,0,0,0-.08.08l-3,4.1a.35.35,0,0,1-.56,0l-3-4.1a.6.6,0,0,0-.08-.08l-4.09-3a.35.35,0,0,1,0-.56l4.09-3a.27.27,0,0,0,.08-.07l3-4.1A.35.35,0,0,1,1194.67,103.38Z"/></g></g></g></svg>