<?xml version="1.0" encoding="utf-8"?>
<!-- Generator: Adobe Illustrator 23.0.6, SVG Export Plug-In . SVG Version: 6.00 Build 0)  -->
<svg version="1.1" id="Calque_1" xmlns="http://www.w3.org/2000/svg" xmlns:xlink="http://www.w3.org/1999/xlink" x="0px" y="0px"
	 viewBox="0 0 1731.3 646.4" style="enable-background:new 0 0 1731.3 646.4;" xml:space="preserve">
<style type="text/css">
	.st0{opacity:0.15;}
	.st1{fill:none;}
	.st2{fill:#E1DCFF;}
	.st3{fill:#FFFFFF;}
</style>
<title>barely visible space pattern2Fichier 2</title>
<g>
	<g id="Calque_1-2">
		<g class="st0">
			<rect x="536.8" y="6.4" class="st1" width="3.8" height="3.8"/>
			<circle class="st2" cx="538.7" cy="8.3" r="1.9"/>
		</g>
		<g class="st0">
			<rect x="748.7" y="123.3" class="st1" width="1" height="1"/>
			<circle class="st2" cx="749.2" cy="123.8" r="0.5"/>
		</g>
		<g class="st0">
			<rect x="967.6" y="251.2" class="st1" width="4.2" height="4.2"/>
			<circle class="st2" cx="969.7" cy="253.3" r="2.1"/>
		</g>
		<g class="st0">
			<rect x="1060.3" y="132.4" class="st1" width="3.4" height="3.4"/>
			<circle class="st2" cx="1062" cy="134.1" r="1.7"/>
		</g>
		<g class="st0">
			<rect x="603.3" y="487" class="st1" width="2" height="2"/>
			<circle class="st2" cx="604.3" cy="487.9" r="1"/>
		</g>
		<g class="st0">
			<rect x="1110.1" y="627" class="st1" width="1.3" height="1.3"/>
			<circle class="st2" cx="1110.7" cy="627.7" r="0.7"/>
		</g>
		<g class="st0">
			<rect x="1315.1" y="521.8" class="st1" width="1.5" height="1.5"/>
			<circle class="st2" cx="1315.8" cy="522.6" r="0.8"/>
		</g>
		<g class="st0">
			<rect x="1316.4" class="st1" width="1.5" height="1.5"/>
			<circle class="st2" cx="1317.1" cy="0.8" r="0.8"/>
		</g>
		<g class="st0">
			<rect x="1635.2" y="238" class="st1" width="2.4" height="2.4"/>
			<circle class="st2" cx="1636.4" cy="239.2" r="1.2"/>
		</g>
		<g class="st0">
			<rect x="1397.1" y="357.6" class="st1" width="1.6" height="1.6"/>
			<circle class="st2" cx="1397.9" cy="358.5" r="0.8"/>
		</g>
		<g class="st0">
			<rect x="1157.3" y="368.3" class="st1" width="3.3" height="3.3"/>
			<circle class="st2" cx="1158.9" cy="370" r="1.7"/>
		</g>
		<g class="st0">
			<rect x="968.3" y="537.8" class="st1" width="2.9" height="2.9"/>
			<circle class="st2" cx="969.7" cy="539.2" r="1.4"/>
		</g>
		<g class="st0">
			<rect x="643.7" y="560.7" class="st1" width="3.3" height="3.3"/>
			<circle class="st2" cx="645.3" cy="562.3" r="1.7"/>
		</g>
		<g class="st0">
			<rect x="459.8" y="620.3" class="st1" width="4.5" height="4.5"/>
			<circle class="st2" cx="462" cy="622.6" r="2.2"/>
		</g>
		<g class="st0">
			<rect x="901.6" y="178.9" class="st1" width="3" height="3"/>
			<circle class="st2" cx="903.1" cy="180.4" r="1.5"/>
		</g>
		<g class="st0">
			<rect x="1108" y="122.4" class="st1" width="2.8" height="2.8"/>
			<circle class="st2" cx="1109.4" cy="123.8" r="1.4"/>
		</g>
		<g class="st0">
			<rect x="1580.1" y="26.6" class="st1" width="2.4" height="2.4"/>
			<circle class="st2" cx="1581.3" cy="27.8" r="1.2"/>
		</g>
		<g class="st0">
			<rect x="1657" y="76.8" class="st1" width="1.8" height="1.8"/>
			<circle class="st2" cx="1657.9" cy="77.7" r="0.9"/>
		</g>
		<g class="st0">
			<rect x="1679.4" y="216.9" class="st1" width="1.1" height="1.1"/>
			<circle class="st2" cx="1679.9" cy="217.4" r="0.6"/>
		</g>
		<g class="st0">
			<rect x="1567.8" y="340" class="st1" width="3.7" height="3.7"/>
			<circle class="st2" cx="1569.7" cy="341.8" r="1.8"/>
		</g>
		<g class="st0">
			<rect x="1419.7" y="460.8" class="st1" width="1" height="1"/>
			<circle class="st2" cx="1420.2" cy="461.3" r="0.5"/>
		</g>
		<g class="st0">
			<rect x="1565.6" y="580.5" class="st1" width="2.9" height="2.9"/>
			<circle class="st2" cx="1567.1" cy="581.9" r="1.5"/>
		</g>
		<g class="st0">
			<rect x="1726.9" y="639.2" class="st1" width="4.4" height="4.4"/>
			<circle class="st2" cx="1729.1" cy="641.5" r="2.2"/>
		</g>
		<g class="st0">
			<rect x="1393.2" y="622.1" class="st1" width="2.6" height="2.6"/>
			<circle class="st2" cx="1394.5" cy="623.4" r="1.3"/>
		</g>
		<g class="st0">
			<rect x="1191.2" y="506.6" class="st1" width="1" height="1"/>
			<circle class="st2" cx="1191.7" cy="507.1" r="0.5"/>
		</g>
		<g class="st0">
			<rect x="1042.6" y="331.4" class="st1" width="2.9" height="2.9"/>
			<circle class="st2" cx="1044.1" cy="332.8" r="1.4"/>
		</g>
		<g class="st0">
			<rect x="988.1" y="110" class="st1" width="2" height="2"/>
			<circle class="st2" cx="989.1" cy="111" r="1"/>
		</g>
		<g class="st0">
			<rect x="841.9" y="62.6" class="st1" width="1.7" height="1.7"/>
			<circle class="st2" cx="842.7" cy="63.4" r="0.9"/>
		</g>
		<g class="st0">
			<rect x="762.9" y="222.2" class="st1" width="0.7" height="0.7"/>
			<circle class="st2" cx="763.3" cy="222.6" r="0.4"/>
		</g>
		<g class="st0">
			<rect x="733.2" y="360.8" class="st1" width="1.3" height="1.3"/>
			<circle class="st2" cx="733.8" cy="361.4" r="0.7"/>
			<rect x="763" y="351.8" class="st1" width="4" height="4"/>
			<circle class="st2" cx="765" cy="353.8" r="2"/>
		</g>
		<g class="st0">
			<rect x="510.1" y="395.1" class="st1" width="3.7" height="3.7"/>
			<circle class="st2" cx="512" cy="396.9" r="1.9"/>
		</g>
		<g class="st0">
			<rect x="575.8" y="148.9" class="st1" width="4" height="4"/>
			<circle class="st2" cx="577.8" cy="150.9" r="2"/>
			<rect x="552.2" y="170.5" class="st1" width="1.7" height="1.7"/>
			<circle class="st2" cx="553.1" cy="171.3" r="0.8"/>
		</g>
		<g class="st0">
			<rect x="441.4" y="236.6" class="st1" width="2.7" height="2.7"/>
			<circle class="st3" cx="442.8" cy="237.9" r="1.4"/>
		</g>
		<g class="st0">
			<rect x="735.5" y="166.6" class="st1" width="4.3" height="4.3"/>
			<circle class="st2" cx="737.6" cy="168.7" r="2.2"/>
		</g>
		<g class="st0">
			<rect x="557" y="262.4" class="st1" width="2.3" height="2.3"/>
			<circle class="st2" cx="558.2" cy="263.6" r="1.2"/>
		</g>
		<g class="st0">
			<rect x="427.6" y="375.4" class="st1" width="2" height="2"/>
			<circle class="st2" cx="428.7" cy="376.4" r="1"/>
		</g>
		<g class="st0">
			<rect x="293.5" y="329.7" class="st1" width="3.6" height="3.6"/>
			<circle class="st2" cx="295.3" cy="331.5" r="1.8"/>
		</g>
		<g class="st0">
			<rect x="358.2" y="162.4" class="st1" width="2.4" height="2.4"/>
			<circle class="st2" cx="359.4" cy="163.6" r="1.2"/>
		</g>
		<g class="st0">
			<rect x="529.7" y="94.1" class="st1" width="3" height="3"/>
			<circle class="st2" cx="531.2" cy="95.6" r="1.5"/>
		</g>
		<g class="st0">
			<rect x="226.6" y="541" class="st1" width="1.6" height="1.6"/>
			<circle class="st2" cx="227.4" cy="541.8" r="0.8"/>
		</g>
		<g class="st0">
			<rect x="161.3" y="642.3" class="st1" width="4" height="4"/>
			<circle class="st2" cx="163.3" cy="644.4" r="2"/>
		</g>
		<g class="st0">
			<rect x="24" y="479.4" class="st1" width="4.2" height="4.2"/>
			<circle class="st2" cx="26.1" cy="481.5" r="2.1"/>
		</g>
		<g class="st0">
			<rect y="274.7" class="st1" width="0.9" height="0.9"/>
			<circle class="st2" cx="0.5" cy="275.1" r="0.5"/>
		</g>
		<g class="st0">
			<rect x="291.1" y="69.6" class="st1" width="0.7" height="0.7"/>
			<circle class="st2" cx="291.5" cy="70" r="0.4"/>
		</g>
		<g class="st0">
			<rect x="998.3" y="11.4" class="st1" width="1.8" height="1.8"/>
			<circle class="st2" cx="999.2" cy="12.3" r="0.9"/>
		</g>
		<g class="st0">
			<rect x="1679.2" y="15.4" class="st1" width="1.4" height="1.4"/>
			<circle class="st2" cx="1679.9" cy="16.1" r="0.7"/>
		</g>
		<g class="st0">
			<rect x="1450.3" y="545.4" class="st1" width="3" height="3"/>
			<circle class="st2" cx="1451.7" cy="546.9" r="1.5"/>
		</g>
		<g class="st0">
			<rect x="493.8" y="273.5" class="st1" width="23.5" height="23.5"/>
			<path class="st2" d="M506,273.7l4.6,6.4l0.1,0.1l6.4,4.6c0.2,0.2,0.3,0.5,0.1,0.7c0,0.1-0.1,0.1-0.1,0.1l-6.4,4.6l-0.1,0.1
				l-4.6,6.4c-0.2,0.2-0.5,0.3-0.8,0.1c0,0-0.1-0.1-0.1-0.1l-4.6-6.4c0,0-0.1-0.1-0.1-0.1l-6.4-4.6c-0.2-0.2-0.3-0.5-0.1-0.7
				c0-0.1,0.1-0.1,0.1-0.1l6.4-4.6c0,0,0.1-0.1,0.1-0.1l4.6-6.4c0.2-0.3,0.5-0.3,0.7-0.2C505.9,273.6,506,273.6,506,273.7z"/>
		</g>
		<g class="st0">
			<rect x="615.9" y="407.4" class="st1" width="7.5" height="7.5"/>
			<path class="st2" d="M619.8,407.5l1.5,2l0,0l2,1.5c0.1,0,0.1,0.1,0,0.2c0,0,0,0,0,0l-2,1.5l0,0l-1.5,2c-0.1,0.1-0.2,0.1-0.3,0
				c0,0,0,0,0,0l-1.5-2l0,0l-2-1.5c-0.1,0-0.1-0.1,0-0.2c0,0,0,0,0,0l2-1.5l0,0l1.5-2C619.6,407.4,619.7,407.4,619.8,407.5
				C619.8,407.5,619.8,407.5,619.8,407.5z"/>
		</g>
		<g class="st0">
			<rect x="924.7" y="240.7" class="st1" width="8.8" height="8.8"/>
			<path class="st2" d="M929.3,240.8l1.7,2.4l0,0l2.4,1.7c0.1,0.1,0.1,0.2,0,0.3c0,0,0,0,0,0L931,247v0.1l-1.7,2.4
				c-0.1,0.1-0.2,0.1-0.3,0c0,0,0,0,0,0l-1.8-2.4c0,0,0,0,0-0.1l-2.4-1.7c-0.1-0.1-0.1-0.2,0-0.3c0,0,0,0,0,0l2.4-1.7h0l1.7-2.4
				C929,240.7,929.1,240.7,929.3,240.8C929.3,240.7,929.3,240.8,929.3,240.8z"/>
		</g>
		<g class="st0">
			<rect x="1045" y="186.2" class="st1" width="5.6" height="5.6"/>
			<path class="st2" d="M1047.9,186.3l1.1,1.5l0,0l1.5,1.1c0.1,0,0.1,0.1,0,0.2c0,0,0,0,0,0l-1.5,1.1l0,0l-1.1,1.5
				c0,0.1-0.1,0.1-0.2,0c0,0,0,0,0,0l-1.1-1.5l0,0l-1.5-1.1c-0.1,0-0.1-0.1,0-0.2c0,0,0,0,0,0l1.5-1.1l0,0l1.1-1.5
				C1047.8,186.2,1047.8,186.2,1047.9,186.3C1047.9,186.3,1047.9,186.3,1047.9,186.3z"/>
		</g>
		<g class="st0">
			<rect x="1208.5" y="297.8" class="st1" width="9.9" height="9.9"/>
			<path class="st2" d="M1213.7,297.9l2,2.7l0,0l2.7,2c0.1,0.1,0.1,0.2,0.1,0.3c0,0,0,0-0.1,0.1l-2.7,2c0,0,0,0,0,0l-2,2.7
				c-0.1,0.1-0.2,0.1-0.3,0.1c0,0,0,0-0.1-0.1l-2-2.7c0,0,0,0,0,0l-2.7-2c-0.1-0.1-0.1-0.2-0.1-0.3c0,0,0,0,0.1-0.1l2.7-2l0,0l2-2.7
				C1213.4,297.8,1213.5,297.8,1213.7,297.9C1213.6,297.9,1213.7,297.9,1213.7,297.9z"/>
		</g>
		<g class="st0">
			<rect x="1467.5" y="361.7" class="st1" width="1.5" height="1.5"/>
			<circle class="st2" cx="1468.3" cy="362.4" r="0.8"/>
		</g>
		<g class="st0">
			<rect x="1385.4" y="525.7" class="st1" width="1.6" height="1.6"/>
			<circle class="st2" cx="1386.2" cy="526.5" r="0.8"/>
		</g>
		<g class="st0">
			<rect x="1623.6" y="513.3" class="st1" width="3.3" height="3.3"/>
			<circle class="st2" cx="1625.2" cy="515" r="1.7"/>
		</g>
		<g class="st0">
			<rect x="1212.6" y="541.3" class="st1" width="3.7" height="3.7"/>
			<circle class="st2" cx="1214.4" cy="543.2" r="1.8"/>
		</g>
		<g class="st0">
			<rect x="1363.3" y="423.1" class="st1" width="1" height="1"/>
			<circle class="st2" cx="1363.9" cy="423.6" r="0.5"/>
		</g>
		<g class="st0">
			<rect x="1591.9" y="377.3" class="st1" width="1" height="1"/>
			<circle class="st2" cx="1592.5" cy="377.8" r="0.5"/>
		</g>
		<g class="st0">
			<rect x="1330.9" y="336.5" class="st1" width="3" height="3"/>
			<circle class="st2" cx="1332.4" cy="338" r="1.5"/>
		</g>
		<g class="st0">
			<rect x="1565.7" y="577.2" class="st1" width="9.9" height="9.9"/>
			<path class="st2" d="M1570.4,587.1l-2-2.7l0,0l-2.7-2c-0.1-0.1-0.1-0.2-0.1-0.3c0,0,0,0,0.1-0.1l2.7-2c0,0,0,0,0,0l2-2.7
				c0.1-0.1,0.2-0.1,0.3-0.1c0,0,0,0,0.1,0.1l2,2.7c0,0,0,0,0,0l2.7,2c0.1,0.1,0.1,0.2,0.1,0.3c0,0,0,0-0.1,0.1l-2.7,2l0,0l-2,2.7
				C1570.7,587.2,1570.6,587.2,1570.4,587.1C1570.5,587.1,1570.4,587.1,1570.4,587.1z"/>
		</g>
		<g class="st0">
			<rect x="776.8" y="503.9" class="st1" width="5.9" height="5.9"/>
			<path class="st2" d="M779.9,504l1.2,1.6l0,0l1.6,1.2c0.1,0,0.1,0.1,0,0.2c0,0,0,0,0,0l-1.6,1.2l0,0l-1.2,1.6c0,0.1-0.1,0.1-0.2,0
				c0,0,0,0,0,0l-1.2-1.6l0,0l-1.6-1.2c-0.1,0-0.1-0.1,0-0.2c0,0,0,0,0,0l1.6-1.2l0,0l1.2-1.6C779.7,503.9,779.8,503.9,779.9,504
				C779.8,504,779.9,504,779.9,504z"/>
		</g>
		<g class="st0">
			<rect x="1622.5" y="79.1" class="st1" width="11.9" height="11.9"/>
			<path class="st2" d="M1628.7,79.2l2.3,3.2c0,0,0,0,0.1,0.1l3.2,2.3c0.1,0.1,0.1,0.3,0,0.4c0,0,0,0,0,0l-3.2,2.3c0,0,0,0-0.1,0.1
				l-2.3,3.2c-0.1,0.1-0.3,0.1-0.4,0.1c0,0,0,0-0.1-0.1l-2.3-3.2l-0.1-0.1l-3.2-2.3c-0.1-0.1-0.1-0.3-0.1-0.4c0,0,0,0,0.1-0.1
				l3.2-2.3l0.1-0.1l2.3-3.2C1628.3,79.1,1628.5,79.1,1628.7,79.2C1628.6,79.2,1628.6,79.2,1628.7,79.2z"/>
		</g>
		<g class="st0">
			<rect x="1188.1" y="583.4" class="st1" width="18.8" height="18.8"/>
			<path class="st2" d="M1197.8,583.5l3.7,5.1l0.1,0.1l5.1,3.7c0.2,0.1,0.2,0.4,0.1,0.6c0,0-0.1,0.1-0.1,0.1l-5.1,3.7l-0.1,0.1
				l-3.7,5.1c-0.1,0.2-0.4,0.2-0.6,0.1c0,0-0.1-0.1-0.1-0.1l-3.7-5.1l-0.1-0.1l-5.1-3.7c-0.2-0.1-0.2-0.4-0.1-0.6
				c0,0,0.1-0.1,0.1-0.1l5.1-3.7l0.1-0.1l3.7-5.1c0.1-0.2,0.4-0.3,0.6-0.1C1197.7,583.5,1197.8,583.5,1197.8,583.5z"/>
		</g>
		<g class="st0">
			<rect x="1526.6" y="594.8" class="st1" width="11.7" height="11.7"/>
			<path class="st2" d="M1532.7,594.9l2.3,3.2l0.1,0.1l3.2,2.3c0.1,0.1,0.1,0.2,0.1,0.4c0,0,0,0.1-0.1,0.1l-3.2,2.3l-0.1,0.1
				l-2.3,3.2c-0.1,0.1-0.2,0.1-0.4,0.1c0,0-0.1,0-0.1-0.1l-2.3-3.2c0,0,0,0-0.1-0.1l-3.2-2.3c-0.1-0.1-0.1-0.2-0.1-0.4
				c0,0,0-0.1,0.1-0.1l3.2-2.3l0.1-0.1l2.3-3.2C1532.3,594.8,1532.5,594.8,1532.7,594.9C1532.6,594.9,1532.6,594.9,1532.7,594.9z"/>
		</g>
		<g class="st0">
			<rect x="702.5" y="537.3" class="st1" width="21.7" height="21.7"/>
			<path class="st2" d="M713.8,537.5l4.3,5.9l0.1,0.1l5.9,4.3c0.2,0.2,0.3,0.5,0.1,0.7c0,0-0.1,0.1-0.1,0.1l-5.9,4.3l-0.1,0.1
				l-4.3,5.9c-0.2,0.2-0.5,0.3-0.7,0.1c0,0-0.1-0.1-0.1-0.1l-4.3-5.9l-0.1-0.1l-5.9-4.3c-0.2-0.2-0.3-0.5-0.1-0.7
				c0,0,0.1-0.1,0.1-0.1l5.9-4.3l0.1-0.1l4.3-5.9c0.2-0.2,0.5-0.3,0.7-0.1C713.7,537.4,713.7,537.4,713.8,537.5z"/>
		</g>
		<g class="st0">
			<rect x="1186.8" y="103.2" class="st1" width="15.1" height="15.1"/>
			<path class="st2" d="M1194.7,103.4l3,4.1c0,0,0,0.1,0.1,0.1l4.1,3c0.2,0.1,0.2,0.3,0.1,0.5c0,0,0,0.1-0.1,0.1l-4.1,3
				c0,0-0.1,0.1-0.1,0.1l-3,4.1c-0.1,0.2-0.3,0.2-0.5,0.1c0,0-0.1,0-0.1-0.1l-3-4.1c0,0-0.1-0.1-0.1-0.1l-4.1-3
				c-0.2-0.1-0.2-0.3-0.1-0.5c0,0,0-0.1,0.1-0.1l4.1-3c0,0,0.1,0,0.1-0.1l3-4.1C1194.2,103.2,1194.4,103.2,1194.7,103.4
				C1194.6,103.3,1194.7,103.4,1194.7,103.4z"/>
		</g>
		<g class="st0">
			<rect x="1378.5" y="513.7" class="st1" width="1" height="1"/>
			<circle class="st2" cx="1379" cy="514.2" r="0.5"/>
		</g>
		<g class="st0">
			<rect x="1156.3" y="382.6" class="st1" width="4.2" height="4.2"/>
			<circle class="st2" cx="1158.5" cy="384.7" r="2.1"/>
		</g>
		<g class="st0">
			<rect x="1064.4" y="502.3" class="st1" width="3.4" height="3.4"/>
			<circle class="st2" cx="1066.1" cy="504" r="1.7"/>
		</g>
		<g class="st0">
			<rect x="1522.9" y="149.1" class="st1" width="2" height="2"/>
			<circle class="st2" cx="1523.8" cy="150.1" r="1"/>
		</g>
		<g class="st0">
			<rect x="811.5" y="114.7" class="st1" width="1.5" height="1.5"/>
			<circle class="st2" cx="812.3" cy="115.5" r="0.8"/>
		</g>
		<g class="st0">
			<rect x="729.4" y="278.8" class="st1" width="1.6" height="1.6"/>
			<circle class="st2" cx="730.3" cy="279.6" r="0.8"/>
		</g>
		<g class="st0">
			<rect x="967.6" y="266.4" class="st1" width="3.3" height="3.3"/>
			<circle class="st2" cx="969.2" cy="268.1" r="1.7"/>
		</g>
		<g class="st0">
			<rect x="1157" y="97.4" class="st1" width="2.9" height="2.9"/>
			<circle class="st2" cx="1158.5" cy="98.8" r="1.4"/>
		</g>
		<g class="st0">
			<rect x="1223.6" y="456.2" class="st1" width="3" height="3"/>
			<circle class="st2" cx="1225.1" cy="457.7" r="1.5"/>
		</g>
		<g class="st0">
			<rect x="1017.3" y="512.8" class="st1" width="2.8" height="2.8"/>
			<circle class="st2" cx="1018.7" cy="514.2" r="1.4"/>
		</g>
		<g class="st0">
			<rect x="556.6" y="294.4" class="st1" width="3.7" height="3.7"/>
			<circle class="st2" cx="558.5" cy="296.3" r="1.8"/>
		</g>
		<g class="st0">
			<rect x="707.4" y="176.2" class="st1" width="1" height="1"/>
			<circle class="st2" cx="707.9" cy="176.7" r="0.5"/>
		</g>
		<g class="st0">
			<rect x="936" y="130.4" class="st1" width="1" height="1"/>
			<circle class="st2" cx="936.5" cy="130.9" r="0.5"/>
		</g>
		<g class="st0">
			<rect x="1082.6" y="303.8" class="st1" width="2.9" height="2.9"/>
			<circle class="st2" cx="1084.1" cy="305.2" r="1.4"/>
		</g>
		<g class="st0">
			<rect x="1138" y="526" class="st1" width="2" height="2"/>
			<circle class="st2" cx="1139.1" cy="527.1" r="1"/>
		</g>
		<g class="st0">
			<rect x="1364.5" y="415.1" class="st1" width="0.7" height="0.7"/>
			<circle class="st2" cx="1364.9" cy="415.5" r="0.4"/>
		</g>
		<g class="st0">
			<rect x="1393.7" y="276" class="st1" width="1.3" height="1.3"/>
			<circle class="st2" cx="1394.3" cy="276.6" r="0.7"/>
			<rect x="1361.1" y="282.2" class="st1" width="4" height="4"/>
			<circle class="st2" cx="1363.2" cy="284.3" r="2"/>
		</g>
		<g class="st0">
			<rect x="1614.3" y="239.3" class="st1" width="3.7" height="3.7"/>
			<circle class="st2" cx="1616.1" cy="241.1" r="1.9"/>
		</g>
		<g class="st0">
			<rect x="1548.4" y="485.2" class="st1" width="4" height="4"/>
			<circle class="st2" cx="1550.4" cy="487.2" r="2"/>
			<rect x="1574.3" y="465.9" class="st1" width="1.7" height="1.7"/>
			<circle class="st2" cx="1575.1" cy="466.7" r="0.8"/>
		</g>
		<g class="st0">
			<rect x="1388.4" y="467.2" class="st1" width="4.3" height="4.3"/>
			<circle class="st2" cx="1390.5" cy="469.3" r="2.2"/>
		</g>
		<g class="st0">
			<rect x="1568.8" y="373.3" class="st1" width="2.3" height="2.3"/>
			<circle class="st2" cx="1570" cy="374.5" r="1.2"/>
		</g>
		<g class="st0">
			<rect x="1595.4" y="540.9" class="st1" width="3" height="3"/>
			<circle class="st2" cx="1596.9" cy="542.4" r="1.5"/>
		</g>
		<g class="st0">
			<rect x="674.9" y="89.6" class="st1" width="3" height="3"/>
			<circle class="st2" cx="676.4" cy="91.1" r="1.5"/>
		</g>
		<g class="st0">
			<rect x="1504.7" y="223.1" class="st1" width="7.5" height="7.5"/>
			<path class="st2" d="M1508.3,230.5l-1.5-2l0,0l-2-1.5c-0.1,0-0.1-0.1,0-0.2c0,0,0,0,0,0l2-1.5l0,0l1.5-2c0.1-0.1,0.2-0.1,0.3,0
				c0,0,0,0,0,0l1.5,2l0,0l2,1.5c0.1,0,0.1,0.1,0,0.2c0,0,0,0,0,0l-2,1.5l0,0l-1.5,2C1508.6,230.6,1508.4,230.6,1508.3,230.5
				C1508.4,230.6,1508.3,230.6,1508.3,230.5z"/>
		</g>
		<g class="st0">
			<rect x="1194.6" y="388.6" class="st1" width="8.8" height="8.8"/>
			<path class="st2" d="M1198.9,397.3l-1.7-2.4l0,0l-2.4-1.7c-0.1-0.1-0.1-0.2,0-0.3c0,0,0,0,0,0l2.3-1.8V391l1.7-2.4
				c0.1-0.1,0.2-0.1,0.3,0c0,0,0,0,0,0l1.8,2.4c0,0,0,0,0.1,0l2.4,1.7c0.1,0.1,0.1,0.2,0,0.3c0,0,0,0,0,0l-2.4,1.7h-0.1l-1.7,2.4
				C1199.1,397.4,1199,397.4,1198.9,397.3C1198.9,397.3,1198.9,397.3,1198.9,397.3z"/>
		</g>
		<g class="st0">
			<rect x="1077.5" y="446.2" class="st1" width="5.6" height="5.6"/>
			<path class="st2" d="M1080.2,451.8l-1.1-1.5l0,0l-1.5-1.1c-0.1,0-0.1-0.1,0-0.2c0,0,0,0,0,0l1.5-1.1l0,0l1.1-1.5
				c0-0.1,0.1-0.1,0.2,0c0,0,0,0,0,0l1.1,1.5l0,0l1.5,1.1c0.1,0,0.1,0.1,0,0.2c0,0,0,0,0,0l-1.5,1.1l0,0l-1.1,1.5
				C1080.4,451.8,1080.3,451.8,1080.2,451.8C1080.2,451.8,1080.2,451.8,1080.2,451.8z"/>
		</g>
		<g class="st0">
			<rect x="909.7" y="330.3" class="st1" width="9.9" height="9.9"/>
			<path class="st2" d="M914.5,340.1l-2-2.7l0,0l-2.7-2c-0.1-0.1-0.1-0.2-0.1-0.3c0,0,0,0,0.1-0.1l2.7-2c0,0,0,0,0,0l2-2.7
				c0.1-0.1,0.2-0.1,0.3-0.1c0,0,0,0,0.1,0.1l2,2.7c0,0,0,0,0,0l2.7,2c0.1,0.1,0.1,0.2,0.1,0.3c0,0,0,0-0.1,0.1l-2.7,2l0,0l-2,2.7
				C914.8,340.2,914.6,340.3,914.5,340.1C914.5,340.2,914.5,340.2,914.5,340.1z"/>
		</g>
		<g class="st0">
			<rect x="659.1" y="274.9" class="st1" width="1.5" height="1.5"/>
			<circle class="st2" cx="659.9" cy="275.7" r="0.8"/>
		</g>
		<g class="st0">
			<rect x="741.1" y="110.7" class="st1" width="1.6" height="1.6"/>
			<circle class="st2" cx="741.9" cy="111.6" r="0.8"/>
		</g>
		<g class="st0">
			<rect x="501.3" y="121.4" class="st1" width="3.3" height="3.3"/>
			<circle class="st2" cx="502.9" cy="123.1" r="1.7"/>
		</g>
		<g class="st0">
			<rect x="911.9" y="93" class="st1" width="3.7" height="3.7"/>
			<circle class="st2" cx="913.7" cy="94.9" r="1.8"/>
		</g>
		<g class="st0">
			<rect x="763.8" y="213.9" class="st1" width="1" height="1"/>
			<circle class="st2" cx="764.3" cy="214.4" r="0.5"/>
		</g>
		<g class="st0">
			<rect x="535.2" y="259.7" class="st1" width="1" height="1"/>
			<circle class="st2" cx="535.7" cy="260.2" r="0.5"/>
		</g>
		<g class="st0">
			<rect x="794.3" y="298.5" class="st1" width="3" height="3"/>
			<circle class="st2" cx="795.8" cy="300" r="1.5"/>
		</g>
		<g class="st0">
			<rect x="1345.4" y="128.2" class="st1" width="5.9" height="5.9"/>
			<path class="st2" d="M1348.3,134.1l-1.2-1.6l0,0l-1.6-1.2c-0.1,0-0.1-0.1,0-0.2c0,0,0,0,0,0l1.6-1.2l0,0l1.2-1.6
				c0-0.1,0.1-0.1,0.2,0c0,0,0,0,0,0l1.2,1.6l0,0l1.6,1.2c0.1,0,0.1,0.1,0,0.2c0,0,0,0,0,0l-1.6,1.2l0,0l-1.2,1.6
				C1348.5,134.1,1348.4,134.1,1348.3,134.1C1348.3,134.1,1348.3,134.1,1348.3,134.1z"/>
		</g>
		<g class="st0">
			<rect x="493.8" y="547" class="st1" width="11.9" height="11.9"/>
			<path class="st2" d="M499.5,558.8l-2.3-3.2c0,0,0,0-0.1-0.1l-3.2-2.3c-0.1-0.1-0.1-0.3,0-0.4c0,0,0,0,0,0l3.2-2.3
				c0,0,0,0,0.1-0.1l2.3-3.2c0.1-0.1,0.3-0.1,0.4-0.1c0,0,0,0,0.1,0.1l2.3,3.2l0.1,0.1l3.2,2.3c0.1,0.1,0.1,0.3,0.1,0.4
				c0,0,0,0-0.1,0.1l-3.2,2.3l-0.1,0.1l-2.3,3.2C499.8,558.9,499.7,559,499.5,558.8C499.5,558.9,499.5,558.8,499.5,558.8z"/>
		</g>
		<g class="st0">
			<rect x="926.2" y="519.7" class="st1" width="15.1" height="15.1"/>
			<path class="st2" d="M933.5,534.7l-3-4.1c0,0,0-0.1-0.1-0.1l-4.1-3c-0.2-0.1-0.2-0.3-0.1-0.5c0,0,0-0.1,0.1-0.1l4.1-3
				c0,0,0.1-0.1,0.1-0.1l3-4.1c0.1-0.2,0.3-0.2,0.5-0.1c0,0,0.1,0,0.1,0.1l3,4.1c0,0,0.1,0.1,0.1,0.1l4.1,3c0.2,0.1,0.2,0.3,0.1,0.5
				c0,0,0,0.1-0.1,0.1l-4.1,3c0,0-0.1,0-0.1,0.1l-3,4.1C933.9,534.8,933.7,534.9,933.5,534.7C933.5,534.7,933.5,534.7,933.5,534.7z"
				/>
		</g>
	</g>
</g>
</svg>
