<svg width="640" height="1038" viewBox="0 0 640 1038" fill="none" xmlns="http://www.w3.org/2000/svg">
<path d="M550.677 645.945C537.77 559.114 469.26 481.214 393.341 453.963C330.101 431.291 263.233 448.467 227.985 399.383C211.908 377.017 221.226 367.017 195.143 315.415C168.105 261.943 151.57 259.691 151.608 234.119C151.684 193.47 193.577 175.875 185.596 140.609C182.388 126.372 172.841 117.327 163.828 109.311C93.9817 47.3275 43.3439 2.36638 0 0V1038C13.4041 1036.74 25.2044 1034.07 25.2044 1034.07C43.0766 1030.06 55.9842 1024.41 62.629 1021.47C100.665 1004.57 129.153 988.764 142.061 982.543C212.901 948.383 254.335 990.558 290.232 957.734C320.21 930.33 294.051 898.46 324.602 864.224C356.107 828.919 393.265 852.392 465.135 814.225C488.43 801.858 520.814 784.683 539.984 748.577C561.485 708.119 553.732 666.479 550.677 645.945Z" fill="url(#paint0_linear)"/>
<path d="M51.5925 145.456C51.7402 145.456 51.8598 145.336 51.8598 145.189C51.8598 145.041 51.7402 144.922 51.5925 144.922C51.4449 144.922 51.3252 145.041 51.3252 145.189C51.3252 145.336 51.4449 145.456 51.5925 145.456Z" fill="#F4DAD0"/>
<path d="M70.0382 297.706C70.2702 297.706 70.4583 297.518 70.4583 297.286C70.4583 297.054 70.2702 296.866 70.0382 296.866C69.8062 296.866 69.6182 297.054 69.6182 297.286C69.6182 297.518 69.8062 297.706 70.0382 297.706Z" fill="#F4DAD0"/>
<path d="M126.48 322.247C127.387 322.247 128.122 321.512 128.122 320.606C128.122 319.7 127.387 318.965 126.48 318.965C125.573 318.965 124.838 319.7 124.838 320.606C124.838 321.512 125.573 322.247 126.48 322.247Z" fill="#F4DAD0"/>
<path d="M147.522 609.801C148.366 609.801 149.049 609.117 149.049 608.274C149.049 607.431 148.366 606.747 147.522 606.747C146.678 606.747 145.994 607.431 145.994 608.274C145.994 609.117 146.678 609.801 147.522 609.801Z" fill="white"/>
<path d="M192.279 756.63C192.869 756.63 193.348 756.152 193.348 755.561C193.348 754.971 192.869 754.493 192.279 754.493C191.688 754.493 191.209 754.971 191.209 755.561C191.209 756.152 191.688 756.63 192.279 756.63Z" fill="white"/>
<path d="M105.4 821.934C105.864 821.934 106.24 821.559 106.24 821.095C106.24 820.631 105.864 820.255 105.4 820.255C104.936 820.255 104.56 820.631 104.56 821.095C104.56 821.559 104.936 821.934 105.4 821.934Z" fill="white"/>
<path d="M84.3583 959.833C84.7801 959.833 85.122 959.491 85.122 959.07C85.122 958.648 84.7801 958.306 84.3583 958.306C83.9364 958.306 83.5945 958.648 83.5945 959.07C83.5945 959.491 83.9364 959.833 84.3583 959.833Z" fill="white"/>
<path d="M51.5925 697.623C51.8667 697.623 52.089 697.401 52.089 697.127C52.089 696.853 51.8667 696.631 51.5925 696.631C51.3183 696.631 51.0961 696.853 51.0961 697.127C51.0961 697.401 51.3183 697.623 51.5925 697.623Z" fill="white"/>
<path d="M100.512 469.382C101.377 469.382 102.078 468.682 102.078 467.818C102.078 466.953 101.377 466.253 100.512 466.253C99.6473 466.253 98.9463 466.953 98.9463 467.818C98.9463 468.682 99.6473 469.382 100.512 469.382Z" fill="white"/>
<path d="M59.6504 112.327C61.2111 112.327 62.4764 111.062 62.4764 109.502C62.4764 107.942 61.2111 106.678 59.6504 106.678C58.0897 106.678 56.8245 107.942 56.8245 109.502C56.8245 111.062 58.0897 112.327 59.6504 112.327Z" fill="white"/>
<path d="M46.8954 422.857C47.8234 422.857 48.5757 422.105 48.5757 421.178C48.5757 420.25 47.8234 419.498 46.8954 419.498C45.9674 419.498 45.2151 420.25 45.2151 421.178C45.2151 422.105 45.9674 422.857 46.8954 422.857Z" fill="white"/>
<path d="M407.28 633.273C408.187 633.273 408.922 632.538 408.922 631.632C408.922 630.726 408.187 629.991 407.28 629.991C406.373 629.991 405.638 630.726 405.638 631.632C405.638 632.538 406.373 633.273 407.28 633.273Z" fill="white"/>
<path d="M96.0439 969.032C97.6679 969.032 98.9844 967.716 98.9844 966.093C98.9844 964.47 97.6679 963.154 96.0439 963.154C94.4199 963.154 93.1034 964.47 93.1034 966.093C93.1034 967.716 94.4199 969.032 96.0439 969.032Z" fill="white"/>
<path d="M75.0028 367.247C76.2261 367.247 77.2178 366.255 77.2178 365.033C77.2178 363.81 76.2261 362.819 75.0028 362.819C73.7796 362.819 72.7879 363.81 72.7879 365.033C72.7879 366.255 73.7796 367.247 75.0028 367.247Z" fill="#FF8DA0"/>
<path d="M217.712 532.931C218.725 532.931 219.545 532.111 219.545 531.099C219.545 530.088 218.725 529.267 217.712 529.267C216.7 529.267 215.879 530.088 215.879 531.099C215.879 532.111 216.7 532.931 217.712 532.931Z" fill="#FF8DA0"/>
<path d="M96.044 814.53C97.5836 814.53 98.8317 813.283 98.8317 811.744C98.8317 810.205 97.5836 808.958 96.044 808.958C94.5043 808.958 93.2562 810.205 93.2562 811.744C93.2562 813.283 94.5043 814.53 96.044 814.53Z" fill="#FF8DA0"/>
<path d="M154.549 910.483C154.844 910.483 155.083 910.244 155.083 909.948C155.083 909.653 154.844 909.414 154.549 909.414C154.253 909.414 154.014 909.653 154.014 909.948C154.014 910.244 154.253 910.483 154.549 910.483Z" fill="#FF8DA0"/>
<path d="M39.8688 732.966C41.5771 732.966 42.962 731.582 42.962 729.875C42.962 728.167 41.5771 726.783 39.8688 726.783C38.1604 726.783 36.7755 728.167 36.7755 729.875C36.7755 731.582 38.1604 732.966 39.8688 732.966Z" fill="#FF8DA0"/>
<path d="M159.246 419.65C159.71 419.65 160.086 419.274 160.086 418.81C160.086 418.347 159.71 417.971 159.246 417.971C158.782 417.971 158.406 418.347 158.406 418.81C158.406 419.274 158.782 419.65 159.246 419.65Z" fill="#B0ECFF"/>
<path d="M75.0021 565.87C76.141 565.87 77.0643 564.947 77.0643 563.809C77.0643 562.67 76.141 561.748 75.0021 561.748C73.8632 561.748 72.9399 562.67 72.9399 563.809C72.9399 564.947 73.8632 565.87 75.0021 565.87Z" fill="#B0ECFF"/>
<path d="M135.836 733.272C136.427 733.272 136.906 732.793 136.906 732.203C136.906 731.613 136.427 731.134 135.836 731.134C135.246 731.134 134.767 731.613 134.767 732.203C134.767 732.793 135.246 733.272 135.836 733.272Z" fill="#B0ECFF"/>
<path d="M75.0028 920.025C75.3824 920.025 75.6901 919.717 75.6901 919.338C75.6901 918.958 75.3824 918.651 75.0028 918.651C74.6231 918.651 74.3154 918.958 74.3154 919.338C74.3154 919.717 74.6231 920.025 75.0028 920.025Z" fill="#B0ECFF"/>
<path d="M23.524 130.494C24.452 130.494 25.2043 129.742 25.2043 128.815C25.2043 127.887 24.452 127.135 23.524 127.135C22.596 127.135 21.8438 127.887 21.8438 128.815C21.8438 129.742 22.596 130.494 23.524 130.494Z" fill="#B0ECFF"/>
<path d="M117.124 117.975C118.896 117.975 120.332 116.54 120.332 114.769C120.332 112.999 118.896 111.563 117.124 111.563C115.352 111.563 113.916 112.999 113.916 114.769C113.916 116.54 115.352 117.975 117.124 117.975Z" fill="#B0ECFF"/>
<path opacity="0.3" d="M29.9016 194.997L31.6965 198.279C31.7347 198.356 31.811 198.432 31.8874 198.47L35.1716 200.264C35.5153 200.455 35.5153 200.913 35.1716 201.104L31.8874 202.898C31.811 202.936 31.7347 203.012 31.6965 203.089L29.9016 206.371C29.7107 206.714 29.2524 206.714 29.0615 206.371L27.2666 203.089C27.2284 203.012 27.152 202.936 27.0757 202.898L23.7915 201.104C23.4478 200.913 23.4478 200.455 23.7915 200.264L27.0757 198.47C27.152 198.432 27.2284 198.356 27.2666 198.279L29.0615 194.997C29.2524 194.692 29.7107 194.692 29.9016 194.997Z" fill="white"/>
<path opacity="0.3" d="M228.863 462.169L230.658 465.451C230.696 465.528 230.773 465.604 230.849 465.642L234.133 467.436C234.477 467.627 234.477 468.085 234.133 468.276L230.849 470.07C230.773 470.108 230.696 470.184 230.658 470.26L228.863 473.543C228.672 473.886 228.214 473.886 228.023 473.543L226.228 470.26C226.19 470.184 226.114 470.108 226.037 470.07L222.753 468.276C222.409 468.085 222.409 467.627 222.753 467.436L226.037 465.642C226.114 465.604 226.19 465.528 226.228 465.451L228.023 462.169C228.214 461.864 228.672 461.864 228.863 462.169Z" fill="white"/>
<path opacity="0.3" d="M41.74 590.029L43.5348 593.312C43.573 593.388 43.6494 593.464 43.7258 593.503L47.01 595.296C47.3537 595.487 47.3537 595.945 47.01 596.136L43.7258 597.93C43.6494 597.968 43.573 598.045 43.5348 598.121L41.74 601.403C41.549 601.747 41.0908 601.747 40.8998 601.403L39.105 598.121C39.0668 598.045 38.9904 597.968 38.914 597.93L35.6298 596.136C35.2861 595.945 35.2861 595.487 35.6298 595.296L38.914 593.503C38.9904 593.464 39.0668 593.388 39.105 593.312L40.8998 590.029C41.0908 589.724 41.549 589.724 41.74 590.029Z" fill="white"/>
<path opacity="0.3" d="M283.473 733.157L285.268 736.44C285.306 736.516 285.382 736.592 285.459 736.63L288.743 738.424C289.087 738.615 289.087 739.073 288.743 739.264L285.459 741.058C285.382 741.096 285.306 741.172 285.268 741.249L283.473 744.531C283.282 744.875 282.824 744.875 282.633 744.531L280.838 741.249C280.8 741.172 280.723 741.096 280.647 741.058L277.363 739.264C277.019 739.073 277.019 738.615 277.363 738.424L280.647 736.63C280.723 736.592 280.8 736.516 280.838 736.44L282.633 733.157C282.824 732.852 283.282 732.852 283.473 733.157Z" fill="white"/>
<path opacity="0.3" d="M52.0508 844.224L53.8456 847.507C53.8838 847.583 53.9602 847.659 54.0366 847.697L57.3208 849.491C57.6645 849.682 57.6645 850.14 57.3208 850.331L54.0366 852.125C53.9602 852.163 53.8838 852.239 53.8456 852.316L52.0508 855.598C51.8598 855.942 51.4016 855.942 51.2106 855.598L49.4158 852.316C49.3776 852.239 49.3012 852.163 49.2248 852.125L45.9406 850.331C45.5969 850.14 45.5969 849.682 45.9406 849.491L49.2248 847.697C49.3012 847.659 49.3776 847.583 49.4158 847.507L51.2106 844.224C51.4016 843.919 51.8598 843.919 52.0508 844.224Z" fill="white"/>
<path opacity="0.3" d="M125.373 922.849L127.168 926.131C127.206 926.208 127.282 926.284 127.358 926.322L130.643 928.116C130.986 928.307 130.986 928.765 130.643 928.956L127.358 930.75C127.282 930.788 127.206 930.864 127.168 930.94L125.373 934.223C125.182 934.566 124.723 934.566 124.533 934.223L122.738 930.94C122.699 930.864 122.623 930.788 122.547 930.75L119.263 928.956C118.919 928.765 118.919 928.307 119.263 928.116L122.547 926.322C122.623 926.284 122.699 926.208 122.738 926.131L124.533 922.849C124.723 922.544 125.182 922.544 125.373 922.849Z" fill="white"/>
<path opacity="0.9" d="M124.036 661.784C121.134 665.181 117.582 667.967 113.763 670.219C109.944 672.509 105.858 674.265 101.619 675.524C97.3805 676.784 93.027 677.547 88.6354 677.7C84.2819 677.891 79.8902 677.471 75.804 676.25C73.7801 675.639 71.8706 674.837 70.1903 673.731C69.3502 673.158 68.5864 672.547 67.899 671.86C67.2116 671.173 66.6388 670.41 66.1424 669.609C65.1877 668.005 64.6912 666.173 64.6912 664.303C64.6912 663.387 64.8058 662.433 65.0349 661.517C65.264 660.601 65.5695 659.685 65.9896 658.769C66.066 658.54 66.2187 658.311 66.3333 658.12C66.4479 657.891 66.5624 657.662 66.677 657.471L67.0589 656.822L67.479 656.174C67.5935 655.945 67.7845 655.754 67.899 655.563C68.0518 655.372 68.2045 655.143 68.3573 654.952C68.6628 654.571 69.0065 654.151 69.312 653.769C69.9612 653.044 70.6868 652.319 71.4888 651.67C72.2525 651.021 73.0927 650.41 73.9328 649.838C75.1167 649.036 76.3769 648.349 77.6753 647.739C77.6371 647.777 77.5989 647.777 77.5607 647.815C77.2934 648.006 77.0261 648.197 76.7206 648.387L75.9186 649.036L75.5367 649.38C75.4222 649.494 75.2694 649.609 75.1548 649.723L74.3911 650.448C74.1619 650.716 73.9328 650.983 73.7037 651.25C73.4746 651.517 73.2454 651.784 73.0545 652.051C72.8635 652.319 72.6344 652.586 72.4435 652.891C71.6415 654.036 70.9923 655.296 70.4577 656.708C70.3431 657.051 70.2285 657.395 70.114 657.777L69.9612 658.311L69.8466 658.883L69.8085 659.151L69.7703 659.456L69.6939 660.028C69.6557 660.41 69.6175 660.83 69.6557 661.212C69.6557 662.815 69.9994 664.456 70.6486 665.944C70.9923 666.708 71.3742 667.395 71.8324 668.044C72.2907 668.692 72.8253 669.265 73.3982 669.799C74.5056 670.868 75.7659 671.631 77.0261 672.28C78.2863 672.891 79.6229 673.311 80.8831 673.616C82.1433 673.921 83.4035 674.112 84.6638 674.227C85.2748 674.303 85.924 674.303 86.535 674.341C87.146 674.341 87.7952 674.341 88.4062 674.341C90.8885 674.265 93.3325 673.921 95.7002 673.349C98.0679 672.776 100.397 672.013 102.612 671.021C103.72 670.525 104.827 669.99 105.858 669.38C106.928 668.769 107.959 668.12 108.952 667.395C109.944 666.67 110.899 665.906 111.816 665.067C112.732 664.227 113.572 663.311 114.374 662.357C114.794 661.861 115.138 661.364 115.52 660.868C115.711 660.639 115.864 660.372 116.055 660.105C116.207 659.838 116.398 659.609 116.551 659.303L117.048 658.502C117.2 658.235 117.353 657.929 117.506 657.662C117.659 657.395 117.773 657.09 117.926 656.822C118.04 656.517 118.193 656.25 118.308 655.945C118.804 654.761 119.186 653.54 119.415 652.28C119.644 651.021 119.797 649.685 119.721 648.387C119.644 647.052 119.415 645.754 119.033 644.494C118.613 643.235 118.04 642.013 117.315 640.945C116.589 639.838 115.749 638.846 114.794 637.968C113.84 637.09 112.809 636.365 111.778 635.716C109.639 634.418 107.309 633.578 104.98 633.006C100.359 631.899 95.6238 631.708 91.003 632.128C86.3822 632.548 81.8378 633.578 77.5225 635.105C73.2072 636.67 69.0447 638.693 65.264 641.288C61.4834 643.845 58.0464 646.937 55.2587 650.563L55.8315 651.021C58.7338 647.624 62.2853 644.838 66.1042 642.586C69.923 640.296 74.0092 638.54 78.2481 637.281C82.487 636.021 86.8405 635.258 91.2322 635.105C95.5856 634.914 99.9773 635.334 104.063 636.556C106.087 637.166 107.997 637.968 109.677 639.075C110.517 639.647 111.281 640.258 111.968 640.945C112.656 641.632 113.229 642.395 113.725 643.197C114.68 644.8 115.176 646.632 115.176 648.502C115.176 649.418 115.062 650.372 114.833 651.288C114.603 652.204 114.298 653.12 113.878 654.036C113.802 654.265 113.649 654.494 113.534 654.685C113.42 654.914 113.305 655.143 113.191 655.334L112.809 655.983L112.389 656.632C112.274 656.861 112.083 657.051 111.968 657.242C111.816 657.433 111.663 657.662 111.51 657.853C111.205 658.235 110.861 658.654 110.556 659.036C109.906 659.761 109.181 660.486 108.379 661.135C107.615 661.784 106.775 662.395 105.935 662.967C104.751 663.769 103.491 664.456 102.192 665.067C102.23 665.028 102.269 665.028 102.307 664.99C102.574 664.799 102.841 664.609 103.147 664.418L103.949 663.769L104.331 663.425C104.445 663.311 104.598 663.196 104.713 663.082L105.476 662.357C105.706 662.09 105.935 661.822 106.164 661.555C106.393 661.288 106.622 661.021 106.813 660.754C107.004 660.486 107.233 660.219 107.424 659.914C108.226 658.769 108.875 657.509 109.41 656.097C109.524 655.754 109.639 655.41 109.754 655.029L109.906 654.494L110.021 653.922L110.059 653.654L110.097 653.349L110.174 652.777C110.212 652.395 110.25 651.975 110.212 651.593C110.212 649.99 109.868 648.349 109.219 646.861C108.875 646.097 108.493 645.41 108.035 644.762C107.577 644.113 107.042 643.54 106.469 643.006C105.362 641.937 104.102 641.174 102.841 640.525C101.581 639.914 100.245 639.494 98.9844 639.189C97.7242 638.884 96.464 638.693 95.2038 638.578C94.5928 638.502 93.9435 638.502 93.3325 638.464C92.7215 638.464 92.0723 638.464 91.4613 638.464C88.9791 638.54 86.535 638.884 84.1673 639.456C81.7996 640.029 79.4701 640.792 77.2552 641.784C76.1477 642.281 75.0403 642.815 74.0092 643.426C72.9399 644.036 71.9088 644.685 70.9159 645.41C69.923 646.136 68.9683 646.899 68.0518 647.739C67.1353 648.578 66.2951 649.494 65.4932 650.448C65.0731 650.945 64.7294 651.441 64.3475 651.937C64.1566 652.166 64.0038 652.433 63.8129 652.7C63.6601 652.967 63.4692 653.196 63.3164 653.502L62.82 654.303C62.6672 654.571 62.5145 654.876 62.3617 655.143C62.209 655.41 62.0944 655.716 61.9416 655.983C61.8271 656.288 61.6743 656.555 61.5598 656.861C61.0633 658.044 60.6814 659.265 60.4523 660.525C60.2232 661.784 60.0704 663.12 60.1468 664.418C60.2232 665.754 60.4523 667.051 60.8342 668.311C61.2543 669.57 61.8271 670.792 62.5527 671.86C63.2782 672.967 64.1184 673.96 65.0731 674.837C66.0278 675.715 67.0589 676.44 68.09 677.089C70.2285 678.387 72.558 679.227 74.8875 679.799C79.5083 680.906 84.2437 681.097 88.8645 680.677C93.4853 680.257 98.0297 679.227 102.345 677.7C106.66 676.135 110.823 674.112 114.603 671.517C118.384 668.96 121.821 665.868 124.609 662.242L124.036 661.784ZM94.4018 654.952L94.3254 655.219C94.3254 655.296 94.2491 655.41 94.2109 655.487C94.1727 655.563 94.1345 655.677 94.0963 655.754C93.9054 656.135 93.6762 656.441 93.3707 656.746C93.0652 657.051 92.7215 657.357 92.3396 657.624C91.9578 657.891 91.5377 658.12 91.0794 658.311C90.2011 658.693 89.2464 658.96 88.2535 658.998C88.1389 658.998 88.0243 658.998 87.9098 658.998C87.7952 658.998 87.6806 658.998 87.5661 658.998C87.4515 658.998 87.3369 658.96 87.2224 658.96C87.1078 658.922 86.9933 658.922 86.9169 658.883C86.4968 658.769 86.1149 658.578 85.8476 658.311C85.6948 658.158 85.6185 657.967 85.5421 657.777V657.738L85.6185 657.471C85.6185 657.395 85.6948 657.28 85.733 657.204C85.7712 657.128 85.8094 657.013 85.8476 656.937C86.0385 656.555 86.2677 656.25 86.5732 655.945C86.8787 655.639 87.2224 655.334 87.6043 655.067C87.9862 654.8 88.4062 654.571 88.8645 654.38C89.7428 653.998 90.6975 653.731 91.6904 653.693C91.805 653.693 91.9196 653.693 92.0341 653.693C92.1487 653.693 92.2633 653.693 92.3778 653.731C92.4924 653.731 92.607 653.769 92.7215 653.769C92.8361 653.807 92.9507 653.807 93.027 653.845C93.4471 653.96 93.829 654.151 94.0963 654.418C94.2491 654.571 94.3254 654.761 94.4018 654.952C94.4018 654.914 94.4018 654.952 94.4018 654.952Z" fill="url(#paint1_linear)"/>
<path d="M152.716 244.348C141.641 240.645 130.795 236.142 120.294 230.874C109.333 225.378 98.7553 219.081 88.7881 211.905C78.7827 204.768 69.4266 196.715 61.3306 187.44L59.7649 188.699C67.4026 198.623 76.4532 207.401 86.1913 215.302C95.9675 223.165 106.431 230.111 117.353 236.332C129.879 243.393 143.016 249.615 156.725 254.424C154.93 251.179 153.556 247.973 152.716 244.348Z" fill="url(#paint2_linear)"/>
<path d="M127.817 138.357L125.411 138.089L120.599 137.555C117.391 137.173 114.069 137.097 110.746 137.135C107.424 137.173 104.025 137.517 100.627 138.089C97.2277 138.7 93.7908 139.616 90.392 141.143C87.0314 142.67 83.6708 144.807 80.9213 147.822C79.5083 149.311 78.3245 151.028 77.2934 152.86C76.3768 154.73 75.5749 156.677 75.1166 158.7C74.1619 162.707 74.2383 166.753 74.8875 170.494C75.5367 174.234 76.6824 177.669 78.1335 180.913C79.5847 184.119 81.2268 187.173 83.098 189.997C84.9693 192.821 86.8787 195.57 89.0936 198.127C93.3325 203.394 98.1824 207.936 103.223 212.172C113.305 220.646 124.456 227.439 136.18 233.164C137.631 233.851 139.159 234.5 140.648 235.187L142.863 236.18L145.154 237.096L149.737 238.928L151.99 239.729C151.799 237.973 151.684 236.103 151.684 234.119C151.723 223.012 154.854 213.623 159.246 205.111C155.465 203.165 151.952 200.569 149.355 197.631C148.515 196.638 147.827 195.684 147.216 194.615C147.025 194.272 146.873 193.966 146.758 193.661C146.987 193.47 147.293 193.318 147.751 193.203C148.706 192.974 150.042 193.05 151.341 193.318C152.677 193.547 154.052 193.966 155.351 194.463C158.024 195.493 160.621 196.829 163.026 198.432C169.518 187.783 177.309 178.318 182.121 168.089C180.708 167.402 179.295 166.791 177.882 166.142L175.667 165.15L173.375 164.234L168.793 162.402L164.134 160.799C157.871 158.738 151.494 156.906 144.734 155.837C143.092 155.494 141.374 155.341 139.655 155.15C137.937 154.959 136.256 154.73 134.423 154.692C130.795 154.54 127.053 154.654 123.043 155.379C121.057 155.723 118.995 156.295 116.895 157.097C114.794 157.898 112.618 159.005 110.556 160.608C108.493 162.173 106.508 164.234 104.98 166.715C103.452 169.196 102.498 172.02 102.078 174.73C101.658 177.478 101.772 180.074 102.154 182.402C102.536 184.73 103.147 186.944 103.911 188.89C104.254 189.921 104.713 190.799 105.133 191.753C105.591 192.631 106.011 193.585 106.508 194.425C107.004 195.264 107.462 196.142 107.997 196.905C108.111 197.058 108.188 197.211 108.302 197.363C105.247 194.768 102.345 192.02 99.8246 189.081C96.0057 184.844 92.6451 180.15 90.2774 175.379C87.8716 170.608 86.6114 165.57 87.4133 161.486C87.5661 160.456 87.9479 159.501 88.3298 158.585C88.7881 157.707 89.2845 156.791 90.0101 155.99C91.3467 154.349 93.218 152.937 95.4711 151.83C99.9391 149.578 105.553 148.471 111.243 148.089C114.107 147.937 117.009 147.86 119.988 148.089L124.456 148.356L126.671 148.509C127.397 148.585 128.16 148.7 128.886 148.776C140.801 150.074 152.677 152.86 164.287 156.562C170.931 158.7 177.462 161.181 183.915 163.929C184.756 161.715 185.405 159.425 185.901 157.097C168.411 148.624 149.813 142.097 130.223 138.853C129.382 138.624 128.619 138.471 127.817 138.357Z" fill="url(#paint3_linear)"/>
<path d="M268.732 864.262C279.889 864.262 288.934 855.222 288.934 844.071C288.934 832.92 279.889 823.881 268.732 823.881C257.575 823.881 248.53 832.92 248.53 844.071C248.53 855.222 257.575 864.262 268.732 864.262Z" fill="url(#paint4_linear)"/>
<path d="M421.104 771.591C426.82 771.591 431.453 766.961 431.453 761.248C431.453 755.536 426.82 750.905 421.104 750.905C415.388 750.905 410.755 755.536 410.755 761.248C410.755 766.961 415.388 771.591 421.104 771.591Z" fill="url(#paint5_linear)"/>
<path d="M316.468 518.924C322.183 518.924 326.817 514.293 326.817 508.58C326.817 502.868 322.183 498.237 316.468 498.237C310.752 498.237 306.119 502.868 306.119 508.58C306.119 514.293 310.752 518.924 316.468 518.924Z" fill="url(#paint6_linear)"/>
<path d="M484.879 551.29C496.036 551.29 505.08 542.25 505.08 531.099C505.08 519.948 496.036 510.909 484.879 510.909C473.721 510.909 464.677 519.948 464.677 531.099C464.677 542.25 473.721 551.29 484.879 551.29Z" fill="url(#paint7_linear)"/>
<path d="M540.595 755.485C578.665 755.485 609.526 724.641 609.526 686.593C609.526 648.545 578.665 617.701 540.595 617.701C502.526 617.701 471.665 648.545 471.665 686.593C471.665 724.641 502.526 755.485 540.595 755.485Z" fill="url(#paint8_linear)"/>
<path d="M614.719 688.31C613.039 687.433 611.32 686.555 609.526 685.677C609.526 686.555 609.526 687.585 609.526 688.501C610.9 689.188 612.237 689.875 613.535 690.562C629.842 699.188 638.702 707.585 637.289 713.043C635.876 718.463 624.037 721.478 605.592 721.058C586.04 720.638 560.95 716.669 534.867 709.875C477.012 694.837 441.153 673.311 443.902 662.7C445.239 657.586 455.626 654.609 472.506 654.609C474.72 654.609 477.012 654.647 479.456 654.761C479.876 654.036 479.99 652.967 480.525 652.357C459.14 651.288 443.52 653.998 441.42 662.051C437.449 677.356 485.451 699.646 534.18 712.318C560.415 719.15 585.734 723.157 605.478 723.577C606.585 723.615 607.731 723.615 608.876 723.615C622.472 723.615 637.594 721.745 639.695 713.654C642.024 704.875 627.398 695.028 614.719 688.31Z" fill="url(#paint9_linear)"/>
<defs>
<linearGradient id="paint0_linear" x1="0" y1="519.009" x2="554.578" y2="519.009" gradientUnits="userSpaceOnUse">
<stop stop-color="#0C1D48"/>
<stop offset="1" stop-color="#6E158D"/>
</linearGradient>
<linearGradient id="paint1_linear" x1="55.292" y1="656.346" x2="124.616" y2="656.346" gradientUnits="userSpaceOnUse">
<stop stop-color="#FFF9D7"/>
<stop offset="0.4388" stop-color="#FFE2CC"/>
<stop offset="1" stop-color="#FFC9C0"/>
</linearGradient>
<linearGradient id="paint2_linear" x1="59.7432" y1="220.931" x2="156.729" y2="220.931" gradientUnits="userSpaceOnUse">
<stop stop-color="#80DBFF"/>
<stop offset="0.266" stop-color="#A5BFE7" stop-opacity="0.734"/>
<stop offset="0.7646" stop-color="#E68EBD" stop-opacity="0.2354"/>
<stop offset="1" stop-color="#FF7BAC" stop-opacity="0"/>
</linearGradient>
<linearGradient id="paint3_linear" x1="74.3963" y1="188.442" x2="185.841" y2="188.442" gradientUnits="userSpaceOnUse">
<stop stop-color="#80DBFF"/>
<stop offset="0.266" stop-color="#A5BFE7" stop-opacity="0.734"/>
<stop offset="0.7646" stop-color="#E68EBD" stop-opacity="0.2354"/>
<stop offset="1" stop-color="#FF7BAC" stop-opacity="0"/>
</linearGradient>
<linearGradient id="paint4_linear" x1="283.038" y1="858.337" x2="254.476" y2="829.758" gradientUnits="userSpaceOnUse">
<stop stop-color="#AB7DFF" stop-opacity="0"/>
<stop offset="0.6591" stop-color="#E673CF" stop-opacity="0.6591"/>
<stop offset="1" stop-color="#FF6FBA"/>
</linearGradient>
<linearGradient id="paint5_linear" x1="428.434" y1="768.541" x2="413.816" y2="753.915" gradientUnits="userSpaceOnUse">
<stop stop-color="#A4A4FF"/>
<stop offset="0.3931" stop-color="#A791FF"/>
<stop offset="1" stop-color="#AA78FF"/>
</linearGradient>
<linearGradient id="paint6_linear" x1="323.798" y1="515.874" x2="309.18" y2="501.247" gradientUnits="userSpaceOnUse">
<stop stop-color="#7DA2FF"/>
<stop offset="0.6697" stop-color="#BBA8FF"/>
<stop offset="1" stop-color="#D4AAFF"/>
</linearGradient>
<linearGradient id="paint7_linear" x1="499.185" y1="545.365" x2="470.622" y2="516.786" gradientUnits="userSpaceOnUse">
<stop stop-color="#7D8FFF"/>
<stop offset="0.6555" stop-color="#B781FF"/>
<stop offset="1" stop-color="#D07BFF"/>
</linearGradient>
<linearGradient id="paint8_linear" x1="589.342" y1="735.296" x2="491.909" y2="637.809" gradientUnits="userSpaceOnUse">
<stop stop-color="#7D8AFF"/>
<stop offset="0.2812" stop-color="#A585E5"/>
<stop offset="0.7694" stop-color="#E67EBC"/>
<stop offset="1" stop-color="#FF7BAC"/>
</linearGradient>
<linearGradient id="paint9_linear" x1="540.6" y1="723.598" x2="540.6" y2="652.123" gradientUnits="userSpaceOnUse">
<stop stop-color="#80DBFF"/>
<stop offset="0.266" stop-color="#A5BFE7" stop-opacity="0.734"/>
<stop offset="0.7646" stop-color="#E68EBD" stop-opacity="0.2354"/>
<stop offset="1" stop-color="#FF7BAC" stop-opacity="0"/>
</linearGradient>
</defs>
</svg>
