<svg width="291" height="491" viewBox="0 0 291 491" fill="none" xmlns="http://www.w3.org/2000/svg">
<g id="Group 108">
<path id="Vector" opacity="0.6" d="M57.1027 79.2315C64.2632 84.7519 74.2335 93.6661 82.9348 106.834C95.9869 126.562 92.6332 135.341 104.235 148.01C117.604 162.581 128.708 158.237 148.195 171.54C164.419 182.626 172.441 196.337 181.278 211.812C213.274 267.966 232.943 361.497 203.032 380.139C193.968 385.795 182.049 383.488 169.495 395.977C160.023 405.388 162.335 411.09 154.54 416.791C140.4 427.108 125.807 413.488 104.235 418.149C85.4727 422.221 82.1191 435.66 58.4623 456.158C46.5432 466.475 27.8715 480.004 0 491C0 353.714 0 216.427 0 79.1863C19.0342 79.1863 38.0685 79.1863 57.1027 79.2315Z" fill="url(#paint0_linear)"/>
<path id="Vector_2" d="M249.575 292.265C243.729 252.989 212.685 217.74 178.287 205.387C149.645 195.115 119.326 202.898 103.329 180.68C96.0322 170.545 100.247 166.02 88.4638 142.671C76.2275 118.463 68.7045 117.467 68.7498 105.883C68.7951 87.5121 87.784 79.5482 84.1585 63.5752C82.7082 57.1498 78.3575 53.0322 74.2788 49.4122C42.6004 21.4029 19.6234 1.08598 0 0V469.688C6.07282 469.099 11.4205 467.923 11.4205 467.923C19.5327 466.113 25.379 463.534 28.3701 462.221C45.5915 454.574 58.5076 447.425 64.3538 444.619C96.4401 429.144 115.248 448.239 131.517 433.398C145.113 420.999 133.24 406.565 147.107 391.09C161.383 375.117 178.242 385.75 210.781 368.465C221.341 362.854 236.024 355.116 244.68 338.781C254.469 320.41 250.935 301.587 249.575 292.265Z" fill="url(#paint1_linear)"/>
<g id="stars-cluster1">
<path id="Vector_3" d="M31.7238 134.707C31.8144 134.707 31.905 134.617 31.905 134.526C31.905 134.436 31.8144 134.345 31.7238 134.345C31.6331 134.345 31.5425 134.436 31.5425 134.526C31.5425 134.617 31.6331 134.707 31.7238 134.707Z" fill="#F4DAD0"/>
<path id="Vector_4" d="M66.8464 275.93C67.209 275.93 67.5262 275.613 67.5262 275.251C67.5262 274.889 67.209 274.573 66.8464 274.573C66.4839 274.573 66.1666 274.889 66.1666 275.251C66.1666 275.613 66.4839 275.93 66.8464 275.93Z" fill="white"/>
<path id="Vector_5" d="M47.7669 371.904C47.9934 371.904 48.1294 371.723 48.1294 371.542C48.1294 371.316 47.9481 371.18 47.7669 371.18C47.5403 371.18 47.4043 371.361 47.4043 371.542C47.4043 371.768 47.5403 371.904 47.7669 371.904Z" fill="white"/>
<path id="Vector_6" d="M38.2498 434.303C38.431 434.303 38.6123 434.167 38.6123 433.941C38.6123 433.76 38.4764 433.579 38.2498 433.579C38.0685 433.579 37.8872 433.714 37.8872 433.941C37.8872 434.167 38.0232 434.303 38.2498 434.303Z" fill="white"/>
<path id="Vector_7" d="M27.0558 50.815C27.7809 50.815 28.3248 50.2267 28.3248 49.548C28.3248 48.8692 27.7356 48.281 27.0558 48.281C26.3307 48.281 25.7869 48.8692 25.7869 49.548C25.7869 50.2267 26.3307 50.815 27.0558 50.815Z" fill="white"/>
<path id="Vector_8" d="M184.587 286.564C184.995 286.564 185.312 286.247 185.312 285.84C185.312 285.432 184.995 285.116 184.587 285.116C184.179 285.116 183.862 285.432 183.862 285.84C183.862 286.247 184.179 286.564 184.587 286.564Z" fill="white"/>
<path id="Vector_9" d="M43.5068 438.466C44.2319 438.466 44.821 437.877 44.821 437.153C44.821 436.429 44.2319 435.841 43.5068 435.841C42.7817 435.841 42.1925 436.429 42.1925 437.153C42.1925 437.877 42.7817 438.466 43.5068 438.466Z" fill="white"/>
<path id="Vector_10" d="M33.9897 166.155C34.5335 166.155 34.9867 165.703 34.9867 165.16C34.9867 164.617 34.5335 164.164 33.9897 164.164C33.4459 164.164 32.9927 164.617 32.9927 165.16C32.9927 165.748 33.4459 166.155 33.9897 166.155Z" fill="#FF8DA0"/>
<path id="Vector_11" d="M98.6607 241.133C99.1139 241.133 99.4765 240.771 99.4765 240.319C99.4765 239.866 99.1139 239.504 98.6607 239.504C98.2075 239.504 97.845 239.866 97.845 240.319C97.845 240.771 98.2075 241.133 98.6607 241.133Z" fill="#FF8DA0"/>
<path id="Vector_12" d="M70.0187 411.995C70.1547 411.995 70.2453 411.904 70.2453 411.768C70.2453 411.633 70.1547 411.542 70.0187 411.542C69.8828 411.542 69.7921 411.633 69.7921 411.768C69.7921 411.859 69.9281 411.995 70.0187 411.995Z" fill="#FF8DA0"/>
</g>
<g id="stars-cluster2">
<path id="Vector_13" d="M18.0825 331.677C18.853 331.677 19.4874 331.044 19.4874 330.275C19.4874 329.505 18.853 328.872 18.0825 328.872C17.3121 328.872 16.6776 329.505 16.6776 330.275C16.6776 331.044 17.3121 331.677 18.0825 331.677Z" fill="#FF8DA0"/>
<path id="Vector_14" d="M33.9897 256.066C34.4882 256.066 34.9414 255.658 34.9414 255.115C34.9414 254.618 34.5335 254.165 33.9897 254.165C33.4458 254.165 33.038 254.573 33.038 255.115C33.038 255.613 33.4912 256.066 33.9897 256.066Z" fill="#B0ECFF"/>
<path id="Vector_15" d="M61.5441 331.813C61.816 331.813 62.0426 331.587 62.0426 331.315C62.0426 331.044 61.816 330.817 61.5441 330.817C61.2721 330.817 61.0455 331.044 61.0455 331.315C61.0455 331.587 61.2721 331.813 61.5441 331.813Z" fill="#B0ECFF"/>
<path id="Vector_16" d="M10.6501 59.0503C11.0579 59.0503 11.4205 58.6883 11.4205 58.2811C11.4205 57.8738 11.0579 57.5118 10.6501 57.5118C10.2422 57.5118 9.87964 57.8738 9.87964 58.2811C9.87964 58.6883 10.2422 59.0503 10.6501 59.0503Z" fill="#B0ECFF"/>
<path id="Vector_17" d="M53.0692 53.3941C53.885 53.3941 54.5195 52.7606 54.5195 51.9461C54.5195 51.1317 53.885 50.4982 53.0692 50.4982C52.2535 50.4982 51.619 51.1317 51.619 51.9461C51.619 52.7154 52.2988 53.3941 53.0692 53.3941Z" fill="#B0ECFF"/>
<path id="Vector_18" opacity="0.3" d="M103.737 209.142L104.552 210.636C104.552 210.681 104.598 210.726 104.643 210.726L106.139 211.541C106.274 211.631 106.274 211.812 106.139 211.903L104.643 212.717C104.598 212.717 104.552 212.762 104.552 212.808L103.737 214.301C103.646 214.436 103.465 214.436 103.374 214.301L102.558 212.808C102.558 212.762 102.513 212.717 102.468 212.717L100.972 211.903C100.836 211.812 100.836 211.631 100.972 211.541L102.468 210.726C102.513 210.726 102.558 210.681 102.558 210.636L103.374 209.142C103.419 209.007 103.646 209.007 103.737 209.142Z" fill="white"/>
<path id="Vector_19" opacity="0.3" d="M128.481 331.768L129.297 333.261C129.297 333.306 129.342 333.352 129.387 333.352L130.883 334.166C131.019 334.257 131.019 334.438 130.883 334.528L129.387 335.343C129.342 335.343 129.297 335.388 129.297 335.433L128.481 336.926C128.39 337.062 128.209 337.062 128.118 336.926L127.303 335.433C127.303 335.388 127.257 335.343 127.212 335.343L125.716 334.528C125.581 334.438 125.581 334.257 125.716 334.166L127.212 333.352C127.257 333.352 127.303 333.306 127.303 333.261L128.118 331.768C128.164 331.632 128.39 331.632 128.481 331.768Z" fill="white"/>
<path id="Vector_20" opacity="0.3" d="M23.6115 381.994L24.4272 383.488C24.4272 383.533 24.4725 383.578 24.5178 383.578L26.0134 384.393C26.1494 384.483 26.1494 384.664 26.0134 384.755L24.5178 385.569C24.4725 385.569 24.4272 385.614 24.4272 385.66L23.6115 387.153C23.5208 387.289 23.3395 387.289 23.2489 387.153L22.4331 385.66C22.4331 385.614 22.3878 385.569 22.3425 385.569L20.847 384.755C20.711 384.664 20.711 384.483 20.847 384.393L22.3425 383.578C22.3878 383.578 22.4331 383.533 22.4331 383.488L23.2489 381.994C23.2942 381.859 23.5208 381.859 23.6115 381.994Z" fill="white"/>
</g>
<g id="stars-cluster3">
<path id="Vector_21" d="M23.3849 65.8377C23.4302 65.8377 23.5208 65.7924 23.5208 65.7019C23.5208 65.6567 23.4755 65.5662 23.3849 65.5662C23.3395 65.5662 23.2489 65.6114 23.2489 65.7019C23.2489 65.7472 23.2942 65.8377 23.3849 65.8377Z" fill="#F4DAD0"/>
<path id="Vector_22" d="M57.3293 145.793C57.7372 145.793 58.0544 145.476 58.0544 145.069C58.0544 144.662 57.7372 144.345 57.3293 144.345C56.9214 144.345 56.6042 144.662 56.6042 145.069C56.5589 145.476 56.9214 145.793 57.3293 145.793Z" fill="#F4DAD0"/>
<path id="Vector_23" d="M87.1495 342.356C87.4214 342.356 87.648 342.13 87.648 341.858C87.648 341.587 87.4214 341.361 87.1495 341.361C86.8776 341.361 86.651 341.587 86.651 341.858C86.651 342.175 86.8776 342.356 87.1495 342.356Z" fill="white"/>
<path id="Vector_24" d="M23.3849 315.659C23.5209 315.659 23.6115 315.569 23.6115 315.433C23.6115 315.297 23.5209 315.207 23.3849 315.207C23.249 315.207 23.1583 315.297 23.1583 315.433C23.1583 315.569 23.249 315.659 23.3849 315.659Z" fill="white"/>
<path id="Vector_25" d="M45.5462 212.4C45.954 212.4 46.2713 212.083 46.2713 211.676C46.2713 211.269 45.954 210.952 45.5462 210.952C45.1383 210.952 44.821 211.269 44.821 211.676C44.821 212.083 45.1383 212.4 45.5462 212.4Z" fill="white"/>
<path id="Vector_26" d="M21.2549 191.359C21.6628 191.359 22.0254 190.997 22.0254 190.59C22.0254 190.183 21.6628 189.821 21.2549 189.821C20.8471 189.821 20.4845 190.183 20.4845 190.59C20.4845 190.997 20.8471 191.359 21.2549 191.359Z" fill="white"/>
<path id="Vector_27" d="M43.5067 368.555C44.1865 368.555 44.7757 368.012 44.7757 367.288C44.7757 366.564 44.2318 366.067 43.5067 366.067C42.8269 366.067 42.2378 366.61 42.2378 367.334C42.2378 368.058 42.8269 368.555 43.5067 368.555Z" fill="#FF8DA0"/>
<path id="Vector_28" d="M72.1487 189.866C72.3753 189.866 72.5112 189.685 72.5112 189.504C72.5112 189.278 72.33 189.142 72.1487 189.142C71.9674 189.142 71.7861 189.323 71.7861 189.504C71.7861 189.73 71.9674 189.866 72.1487 189.866Z" fill="#B0ECFF"/>
<path id="Vector_29" d="M33.9897 416.293C34.171 416.293 34.307 416.158 34.307 415.977C34.307 415.796 34.171 415.66 33.9897 415.66C33.8084 415.66 33.6725 415.796 33.6725 415.977C33.6725 416.158 33.8084 416.293 33.9897 416.293Z" fill="#B0ECFF"/>
<path id="Vector_30" opacity="0.3" d="M13.5505 88.2361L14.3663 89.7293C14.3663 89.7746 14.4116 89.8198 14.4569 89.8198L15.9525 90.6343C16.0884 90.7248 16.0884 90.9058 15.9525 90.9963L14.4569 91.8108C14.4116 91.8108 14.3663 91.856 14.3663 91.9013L13.5505 93.3945C13.4599 93.5303 13.2786 93.5303 13.188 93.3945L12.3722 91.9013C12.3722 91.856 12.3269 91.8108 12.2816 91.8108L10.7861 90.9963C10.6501 90.9058 10.6501 90.7248 10.7861 90.6343L12.2816 89.8198C12.3269 89.8198 12.3722 89.7746 12.3722 89.7293L13.188 88.2361C13.2786 88.1003 13.4599 88.1003 13.5505 88.2361Z" fill="white"/>
<path id="Vector_31" opacity="0.3" d="M18.8983 266.971L19.7141 268.464C19.7141 268.509 19.7594 268.555 19.8047 268.555L21.3003 269.369C21.4362 269.46 21.4362 269.641 21.3003 269.731L19.8047 270.546C19.7594 270.546 19.7141 270.591 19.7141 270.636L18.8983 272.129C18.8077 272.265 18.6264 272.265 18.5358 272.129L17.72 270.636C17.72 270.591 17.6747 270.546 17.6294 270.546L16.1338 269.731C15.9979 269.641 15.9979 269.46 16.1338 269.369L17.6294 268.555C17.6747 268.555 17.72 268.509 17.72 268.464L18.5358 266.971C18.6264 266.835 18.8077 266.835 18.8983 266.971Z" fill="white"/>
<path id="Vector_32" opacity="0.3" d="M56.8308 417.561L57.6466 419.054C57.6466 419.099 57.6919 419.144 57.7372 419.144L59.2328 419.959C59.3687 420.049 59.3687 420.23 59.2328 420.321L57.7372 421.135C57.6919 421.135 57.6466 421.181 57.6466 421.226L56.8308 422.719C56.7402 422.855 56.5136 422.855 56.4683 422.719L55.6525 421.226C55.6525 421.181 55.6072 421.135 55.5619 421.135L54.0663 420.321C53.9304 420.23 53.9304 420.049 54.0663 419.959L55.5619 419.144C55.6072 419.144 55.6525 419.099 55.6525 419.054L56.4683 417.561C56.5136 417.425 56.7402 417.425 56.8308 417.561Z" fill="white"/>
</g>
<path id="Vector_33" opacity="0.9" d="M56.1963 299.46C54.882 300.998 53.2505 302.265 51.5284 303.261C49.8063 304.301 47.9482 305.071 46.0447 305.659C44.1413 306.247 42.1472 306.564 40.1532 306.654C38.1591 306.745 36.2104 306.564 34.3523 305.976C33.4459 305.704 32.5848 305.342 31.8144 304.844C31.4518 304.573 31.0893 304.301 30.772 303.985C30.4548 303.668 30.1829 303.306 29.9563 302.944C29.5031 302.22 29.2765 301.406 29.2765 300.546C29.2765 300.139 29.3218 299.686 29.4124 299.279C29.5031 298.872 29.639 298.464 29.8656 298.057C29.911 297.967 29.9563 297.831 30.0016 297.786C30.0469 297.695 30.0922 297.559 30.1376 297.514L30.3188 297.243L30.5001 296.971C30.5454 296.881 30.6361 296.79 30.6814 296.7C30.772 296.609 30.8174 296.519 30.908 296.428C31.044 296.247 31.1799 296.066 31.3612 295.885C31.6331 295.568 31.9957 295.206 32.3582 294.935C32.7208 294.663 33.0833 294.347 33.4459 294.12C33.9897 293.758 34.5336 293.442 35.1227 293.17C35.1227 293.17 35.0774 293.17 35.0774 293.215C34.9414 293.306 34.8508 293.396 34.7148 293.487L34.3523 293.758L34.171 293.894C34.1257 293.939 34.035 293.985 33.9897 294.03L33.6272 294.347C33.5365 294.482 33.4006 294.573 33.3099 294.709C33.2193 294.844 33.0833 294.935 33.038 295.071C32.9474 295.206 32.8567 295.297 32.7661 295.433C32.4035 295.93 32.0863 296.519 31.8597 297.152C31.8144 297.288 31.7691 297.469 31.7237 297.65L31.6331 297.876L31.5878 298.148V298.283V298.419L31.5425 298.691C31.5425 298.872 31.4971 299.053 31.5425 299.234C31.5425 299.958 31.6784 300.682 31.9957 301.36C32.1316 301.722 32.3129 302.039 32.5395 302.31C32.7661 302.582 32.9927 302.854 33.2646 303.125C33.7631 303.623 34.3523 303.939 34.8961 304.256C35.4853 304.528 36.0744 304.709 36.6636 304.844C37.2527 304.98 37.7966 305.071 38.3857 305.116C38.6576 305.161 38.9749 305.161 39.2468 305.161C39.5187 305.161 39.8359 305.161 40.1079 305.161C41.2409 305.116 42.3285 304.98 43.4162 304.709C44.5039 304.437 45.5462 304.12 46.5432 303.668C47.0418 303.442 47.5403 303.215 47.9935 302.944C48.492 302.673 48.9452 302.356 49.3984 302.039C49.8516 301.722 50.2595 301.36 50.7126 300.998C51.1205 300.636 51.5284 300.184 51.891 299.777C52.0722 299.55 52.2535 299.324 52.3895 299.098C52.4801 299.007 52.5254 298.872 52.6161 298.736C52.7067 298.6 52.752 298.51 52.8427 298.374L53.0693 298.012C53.1599 297.876 53.2052 297.74 53.2959 297.65C53.3865 297.514 53.4318 297.378 53.4771 297.288C53.5225 297.152 53.6131 297.016 53.6584 296.881C53.885 296.338 54.0663 295.795 54.1569 295.206C54.2476 294.618 54.3382 294.03 54.2929 293.442C54.2476 292.853 54.1569 292.265 53.9757 291.677C53.7944 291.089 53.5225 290.546 53.2052 290.093C52.888 289.595 52.4801 289.143 52.0722 288.736C51.619 288.328 51.1658 288.012 50.7126 287.695C49.7609 287.107 48.6733 286.745 47.6309 286.473C45.5462 285.975 43.3709 285.885 41.2862 286.066C39.2015 286.247 37.1168 286.745 35.168 287.423C33.2193 288.147 31.3159 289.052 29.5937 290.229C27.8716 291.405 26.3307 292.763 25.0618 294.437L25.3337 294.663C26.648 293.125 28.2795 291.858 30.0016 290.862C31.7237 289.822 33.5818 289.052 35.4853 288.464C37.3887 287.876 39.3828 287.559 41.3768 287.469C43.3709 287.378 45.3196 287.559 47.1777 288.147C48.0841 288.419 48.9452 288.781 49.7156 289.279C50.0782 289.55 50.4407 289.822 50.758 290.138C51.0752 290.455 51.3471 290.817 51.5737 291.179C52.0269 291.903 52.2535 292.718 52.2535 293.577C52.2535 293.985 52.2082 294.437 52.1176 294.844C52.0269 295.252 51.891 295.659 51.6644 296.066C51.619 296.157 51.5737 296.292 51.5284 296.338C51.4831 296.428 51.4378 296.564 51.3924 296.609L51.2112 296.881L51.0299 297.152C50.9846 297.243 50.8939 297.333 50.8486 297.424C50.758 297.514 50.7126 297.605 50.622 297.695C50.486 297.876 50.3501 298.057 50.1688 298.238C49.8516 298.555 49.5343 298.917 49.1718 299.188C48.8092 299.46 48.4467 299.777 48.0841 300.003C47.5403 300.365 46.9964 300.682 46.4073 300.953C46.4073 300.953 46.4526 300.953 46.4526 300.908C46.5886 300.817 46.6792 300.727 46.8152 300.636L47.1777 300.365L47.359 300.229C47.4043 300.184 47.495 300.139 47.5403 300.093L47.9028 299.777C47.9935 299.641 48.1294 299.55 48.2201 299.415C48.3107 299.279 48.4467 299.188 48.492 299.053C48.5826 298.917 48.6733 298.826 48.7639 298.691C49.1265 298.193 49.4437 297.605 49.6703 296.971C49.7156 296.835 49.7609 296.654 49.8063 296.473L49.8969 296.247L49.9422 295.976V295.84V295.704L49.9875 295.433C49.9875 295.252 50.0329 295.071 49.9875 294.89C49.9875 294.166 49.8516 293.442 49.5343 292.763C49.3984 292.401 49.2171 292.084 48.9905 291.813C48.7639 291.541 48.5373 291.27 48.2654 290.998C47.7669 290.5 47.1777 290.184 46.6339 289.867C46.0447 289.595 45.4556 289.414 44.8664 289.279C44.2773 289.143 43.7334 289.052 43.1443 289.007C42.8724 288.962 42.5551 288.962 42.2832 288.962C42.0113 288.962 41.6941 288.962 41.4221 288.962C40.2891 289.007 39.2015 289.143 38.1138 289.414C37.0261 289.686 35.9838 290.003 34.9868 290.455C34.4882 290.681 33.9897 290.908 33.5365 291.179C33.038 291.451 32.5848 291.767 32.1316 292.084C31.6784 292.401 31.2705 292.763 30.8174 293.125C30.4095 293.487 30.0016 293.939 29.639 294.347C29.4578 294.573 29.2765 294.799 29.1405 295.025C29.0499 295.116 29.0046 295.252 28.9139 295.387C28.8233 295.523 28.778 295.614 28.6873 295.749L28.4607 296.111C28.3701 296.247 28.3248 296.383 28.2341 296.473C28.1435 296.609 28.0982 296.745 28.0529 296.835C28.0075 296.971 27.9169 297.107 27.8716 297.243C27.645 297.786 27.4637 298.329 27.3731 298.917C27.2824 299.505 27.1918 300.093 27.2371 300.682C27.2824 301.27 27.3731 301.858 27.5543 302.446C27.7356 303.035 28.0075 303.578 28.3248 304.03C28.642 304.528 29.0499 304.98 29.4578 305.387C29.911 305.795 30.3642 306.111 30.8174 306.428C31.7691 307.016 32.8567 307.378 33.8991 307.65C35.9838 308.148 38.1591 308.238 40.2438 308.057C42.3285 307.876 44.4132 307.378 46.362 306.7C48.3107 305.976 50.2141 305.071 51.9363 303.894C53.6584 302.718 55.1993 301.36 56.4682 299.686L56.1963 299.46ZM42.7817 296.383L42.7364 296.519C42.7364 296.564 42.6911 296.609 42.6911 296.654C42.6911 296.7 42.6458 296.745 42.6458 296.79C42.5551 296.971 42.4645 297.107 42.3285 297.243C42.1926 297.378 42.0566 297.514 41.8753 297.65C41.6941 297.786 41.5128 297.876 41.2862 297.967C40.8783 298.148 40.4704 298.238 40.0172 298.283C39.9719 298.283 39.9266 298.283 39.8813 298.283C39.8359 298.283 39.7906 298.283 39.7453 298.283C39.7 298.283 39.6547 298.283 39.6094 298.283C39.564 298.283 39.5187 298.283 39.4734 298.238C39.2921 298.193 39.1108 298.102 38.9749 297.967C38.8842 297.876 38.8842 297.831 38.8389 297.74L38.8842 297.605C38.8842 297.559 38.9296 297.514 38.9296 297.469C38.9296 297.424 38.9749 297.378 38.9749 297.333C39.0655 297.152 39.1562 297.016 39.2921 296.881C39.4281 296.745 39.564 296.609 39.7453 296.473C39.9266 296.338 40.1079 296.247 40.3345 296.157C40.7423 295.976 41.1502 295.885 41.6034 295.84C41.6487 295.84 41.6941 295.84 41.7394 295.84C41.7847 295.84 41.83 295.84 41.8753 295.84C41.9207 295.84 41.966 295.84 42.0113 295.84C42.0566 295.84 42.1019 295.84 42.1472 295.885C42.3285 295.93 42.5098 296.021 42.6458 296.157C42.6911 296.202 42.7364 296.292 42.7817 296.383C42.7817 296.383 42.7817 296.338 42.7817 296.383Z" fill="url(#paint2_linear)"/>
<path id="Vector_34" d="M69.203 110.544C64.1725 108.87 59.278 106.834 54.5195 104.435C49.5343 101.947 44.7757 99.096 40.2438 95.838C35.7118 92.6253 31.4518 88.9601 27.7809 84.752L27.0558 85.3402C30.5001 89.8199 34.6242 93.8018 39.0202 97.3765C43.4615 100.951 48.1747 104.073 53.1599 106.879C58.8248 110.092 64.807 112.897 71.0158 115.069C70.2 113.666 69.6109 112.218 69.203 110.544Z" fill="url(#paint3_linear)"/>
<path id="Vector_35" d="M57.9185 62.625L56.8308 62.4892L54.6555 62.263C53.2052 62.082 51.7097 62.0367 50.1688 62.082C48.6733 62.082 47.1324 62.263 45.5915 62.5345C44.0507 62.806 42.5098 63.2132 40.9689 63.9372C39.4281 64.616 37.9325 65.6114 36.6636 66.9689C36.0291 67.6477 35.4853 68.4169 35.0321 69.2314C34.6242 70.0911 34.2616 70.9509 34.035 71.8558C33.5818 73.6658 33.6272 75.521 33.9444 77.1953C34.2163 78.8695 34.7602 80.4532 35.3946 81.9012C36.0744 83.3492 36.7995 84.7519 37.6606 86.0189C38.5217 87.2858 39.3828 88.5528 40.3798 89.6841C42.2832 92.0823 44.5039 94.1185 46.7698 96.019C51.3471 99.8651 56.3776 102.942 61.7253 105.521C62.4051 105.838 63.0849 106.11 63.7647 106.426L64.7617 106.879L65.8041 107.286L67.8888 108.101L68.9311 108.463C68.8405 107.648 68.7952 106.834 68.7952 105.929C68.7952 100.906 70.2454 96.6524 72.2395 92.8063C70.5173 91.9465 68.9311 90.77 67.7528 89.4126C67.3903 88.9601 67.073 88.5528 66.8011 88.0551C66.7105 87.9193 66.6651 87.7836 66.5745 87.6026C66.6651 87.5121 66.8011 87.4668 67.0277 87.3763C67.4809 87.2858 68.0701 87.2858 68.6592 87.4216C69.2484 87.5121 69.8828 87.6931 70.472 87.9193C71.6956 88.3718 72.8739 89.0053 73.9616 89.7293C76.9074 84.9329 80.4423 80.6342 82.6176 76.0188C81.9832 75.702 81.3487 75.4305 80.7142 75.159L79.7172 74.7065L78.6748 74.2993L76.5901 73.4848L74.4601 72.7608C71.605 71.8106 68.7498 70.9961 65.6681 70.4984C64.943 70.3626 64.1272 70.2721 63.3568 70.1816C62.5864 70.0911 61.816 70.0006 61.0002 69.9554C59.3687 69.8649 57.6465 69.9554 55.8338 70.2721C54.9274 70.4079 54.021 70.6794 53.0693 71.0414C52.1176 71.4033 51.1205 71.9011 50.2141 72.6251C49.2624 73.3491 48.4014 74.2541 47.6762 75.3853C46.9511 76.5165 46.5433 77.7835 46.362 79.0052C46.1807 80.227 46.226 81.4034 46.4073 82.4894C46.5886 83.5302 46.8605 84.5256 47.223 85.4306C47.359 85.8831 47.5856 86.2904 47.7669 86.7429C47.9935 87.1501 48.1748 87.5573 48.4014 87.9646C48.628 88.3266 48.8545 88.7338 49.0811 89.0958C49.1265 89.1863 49.1718 89.2316 49.2171 89.3221C47.8122 88.1456 46.4979 86.9239 45.3649 85.5664C43.6428 83.6659 42.1019 81.5392 41.0596 79.3672C39.9719 77.1953 39.3828 74.9328 39.7453 73.0776C39.8359 72.6251 39.9719 72.1726 40.1532 71.7653C40.3798 71.3581 40.6064 70.9509 40.9236 70.5889C41.5128 69.8649 42.3738 69.1861 43.4162 68.6884C45.4556 67.6477 47.9935 67.1499 50.5767 67.0142C51.891 66.9237 53.2052 66.9237 54.5195 67.0142L56.5589 67.1499L57.5559 67.2404C57.8731 67.2857 58.2357 67.3309 58.5529 67.3762C63.946 67.9644 69.339 69.2314 74.5961 70.9056C77.5872 71.8558 80.5783 72.9871 83.4787 74.2541C83.8413 73.2586 84.1585 72.2178 84.3851 71.1771C76.4542 67.3309 68.0247 64.3897 59.1421 62.9417C58.6436 62.7155 58.281 62.6702 57.9185 62.625Z" fill="url(#paint4_linear)"/>
<path id="Vector_36" d="M121.774 391.09C126.849 391.09 130.928 387.017 130.928 381.949C130.928 376.881 126.849 372.809 121.774 372.809C116.698 372.809 112.619 376.881 112.619 381.949C112.619 387.017 116.743 391.09 121.774 391.09Z" fill="url(#paint5_linear)"/>
<path id="Vector_37" d="M190.841 349.144C193.424 349.144 195.509 347.062 195.509 344.483C195.509 341.904 193.424 339.822 190.841 339.822C188.258 339.822 186.173 341.904 186.173 344.483C186.173 347.062 188.258 349.144 190.841 349.144Z" fill="url(#paint6_linear)"/>
<path id="Vector_38" d="M143.436 234.798C146.02 234.798 148.104 232.717 148.104 230.138C148.104 227.559 146.02 225.477 143.436 225.477C140.853 225.477 138.769 227.559 138.769 230.138C138.723 232.717 140.853 234.798 143.436 234.798Z" fill="url(#paint7_linear)"/>
<path id="Vector_39" d="M219.755 249.459C224.83 249.459 228.909 245.387 228.909 240.319C228.909 235.251 224.83 231.179 219.755 231.179C214.679 231.179 210.6 235.251 210.6 240.319C210.6 245.387 214.679 249.459 219.755 249.459Z" fill="url(#paint8_linear)"/>
<path id="Vector_40" d="M244.998 341.858C262.264 341.858 276.223 327.922 276.223 310.682C276.223 293.487 262.219 279.505 244.998 279.505C227.731 279.505 213.772 293.442 213.772 310.682C213.772 327.876 227.731 341.858 244.998 341.858Z" fill="url(#paint9_linear)"/>
<path id="Vector_41" d="M278.58 311.451C277.809 311.044 277.039 310.636 276.223 310.274C276.223 310.682 276.223 311.134 276.223 311.541C276.857 311.858 277.447 312.175 278.036 312.492C285.423 316.383 289.456 320.184 288.822 322.673C288.187 325.116 282.794 326.474 274.455 326.293C265.573 326.112 254.243 324.302 242.414 321.225C216.174 314.437 199.95 304.663 201.174 299.867C201.763 297.559 206.476 296.202 214.135 296.202C215.132 296.202 216.174 296.202 217.262 296.292C217.443 295.976 217.489 295.478 217.761 295.206C208.062 294.709 200.992 295.93 200.041 299.595C198.228 306.519 219.981 316.609 242.097 322.356C253.971 325.433 265.482 327.243 274.41 327.469C274.909 327.469 275.452 327.469 275.951 327.469C282.114 327.469 288.958 326.609 289.909 322.944C290.952 318.962 284.335 314.483 278.58 311.451Z" fill="url(#paint10_linear)"/>
</g>
<style lang="scss">
#stars-cluster1 {
  animation: shiningStars 3s ease infinite;
}
#stars-cluster2 {
  animation: shiningStars 3s ease 1s infinite;
}
#stars-cluster3 {
  animation: shiningStars 3s ease 2s infinite;
}
@keyframes shiningStars {
  0% {
    opacity: 1;
  }
  20% {
    opacity: 1;
  }
  47% {
    opacity: 0;
  }
  80% {
    opacity: 1;
  }
  100% {
    opacity: 1;
  }
}
</style>
<defs>
<linearGradient id="paint0_linear" x1="0" y1="285.078" x2="217.817" y2="285.078" gradientUnits="userSpaceOnUse">
<stop stop-color="#0C1D48"/>
<stop offset="1" stop-color="#6E158D"/>
</linearGradient>
<linearGradient id="paint1_linear" x1="0" y1="234.844" x2="251.33" y2="234.844" gradientUnits="userSpaceOnUse">
<stop stop-color="#0C1D48"/>
<stop offset="1" stop-color="#6E158D"/>
</linearGradient>
<linearGradient id="paint2_linear" x1="25.0431" y1="297.017" x2="56.4724" y2="297.017" gradientUnits="userSpaceOnUse">
<stop stop-color="#FFF9D7"/>
<stop offset="0.4388" stop-color="#FFE2CC"/>
<stop offset="1" stop-color="#FFC9C0"/>
</linearGradient>
<linearGradient id="paint3_linear" x1="27.0852" y1="99.9702" x2="71.0272" y2="99.9702" gradientUnits="userSpaceOnUse">
<stop stop-color="#80DBFF"/>
<stop offset="0.266" stop-color="#A5BFE7" stop-opacity="0.734"/>
<stop offset="0.7646" stop-color="#E68EBD" stop-opacity="0.2354"/>
<stop offset="1" stop-color="#FF7BAC" stop-opacity="0"/>
</linearGradient>
<linearGradient id="paint4_linear" x1="33.7175" y1="85.2621" x2="84.2496" y2="85.2621" gradientUnits="userSpaceOnUse">
<stop stop-color="#80DBFF"/>
<stop offset="0.266" stop-color="#A5BFE7" stop-opacity="0.734"/>
<stop offset="0.7646" stop-color="#E68EBD" stop-opacity="0.2354"/>
<stop offset="1" stop-color="#FF7BAC" stop-opacity="0"/>
</linearGradient>
<linearGradient id="paint5_linear" x1="128.258" y1="388.4" x2="115.338" y2="375.452" gradientUnits="userSpaceOnUse">
<stop stop-color="#AB7DFF" stop-opacity="0"/>
<stop offset="0.6591" stop-color="#E673CF" stop-opacity="0.6591"/>
<stop offset="1" stop-color="#FF6FBA"/>
</linearGradient>
<linearGradient id="paint6_linear" x1="194.157" y1="347.771" x2="187.538" y2="341.138" gradientUnits="userSpaceOnUse">
<stop stop-color="#A4A4FF"/>
<stop offset="0.3931" stop-color="#A791FF"/>
<stop offset="1" stop-color="#AA78FF"/>
</linearGradient>
<linearGradient id="paint7_linear" x1="146.736" y1="233.44" x2="140.118" y2="226.807" gradientUnits="userSpaceOnUse">
<stop stop-color="#7DA2FF"/>
<stop offset="0.6697" stop-color="#BBA8FF"/>
<stop offset="1" stop-color="#D4AAFF"/>
</linearGradient>
<linearGradient id="paint8_linear" x1="226.215" y1="246.782" x2="213.295" y2="233.835" gradientUnits="userSpaceOnUse">
<stop stop-color="#7D8FFF"/>
<stop offset="0.6555" stop-color="#B781FF"/>
<stop offset="1" stop-color="#D07BFF"/>
</linearGradient>
<linearGradient id="paint9_linear" x1="267.073" y1="332.733" x2="222.987" y2="288.555" gradientUnits="userSpaceOnUse">
<stop stop-color="#7D8AFF"/>
<stop offset="0.2812" stop-color="#A585E5"/>
<stop offset="0.7694" stop-color="#E67EBC"/>
<stop offset="1" stop-color="#FF7BAC"/>
</linearGradient>
<linearGradient id="paint10_linear" x1="244.982" y1="327.431" x2="244.982" y2="295.086" gradientUnits="userSpaceOnUse">
<stop stop-color="#80DBFF"/>
<stop offset="0.266" stop-color="#A5BFE7" stop-opacity="0.734"/>
<stop offset="0.7646" stop-color="#E68EBD" stop-opacity="0.2354"/>
<stop offset="1" stop-color="#FF7BAC" stop-opacity="0"/>
</linearGradient>
</defs>
</svg>
