<svg width="587" height="1259" viewBox="0 0 587 1259" fill="none" xmlns="http://www.w3.org/2000/svg">
<g id="Group 109">
<path id="Vector" opacity="0.4" d="M570.093 42C552.093 54.6 522.193 72.5 482.093 83C410.993 101.5 386.293 76 309.093 89C281.893 93.6 215.493 105.7 164.593 158.5C158.993 164.3 138.093 187.4 118.593 231.5C79.293 320.6 108.593 367 97.593 524.5C91.393 613.5 79.693 628.1 92.593 673.5C96.393 686.9 117.193 760.3 182.593 801.5C273.993 859.2 360.293 795.8 403.593 846.5C438.693 887.6 383.393 932.2 420.593 1026.5C428.693 1047 460.093 1118.5 533.593 1154.5C547.193 1161.2 559.193 1165.1 567.593 1167.5C568.393 792.3 569.293 417.2 570.093 42Z" fill="url(#paint0_linear)"/>
<path id="Vector_2" d="M586.093 1259C504.693 1239.6 477.193 1208.2 467.193 1183C447.393 1133.2 489.993 1093.7 465.193 1034C448.593 994 424.593 1000.3 401.193 956C368.493 893.9 404.093 859.9 381.193 813C345.693 740.2 242.593 786.8 162.293 705C118.393 660.3 146.693 643.9 70.393 513C41.893 464.1 14.893 446.1 7.39301 400C5.29301 387.1 -1.60699 334 28.393 286C55.693 242.3 102.793 220.3 148.293 199C175.593 186.2 185.993 184 207.393 169.5C232.693 152.4 244.393 136.8 265.693 125.4C270.793 122.7 279.893 118.1 301.193 113C376.693 94.8 442.793 107.6 495.093 88C520.893 78.3 555.193 56.3 586.093 0C586.093 419.7 586.093 839.3 586.093 1259Z" fill="url(#paint1_linear)"/>
<path id="Vector_3" d="M586.093 1259C504.693 1239.6 477.193 1208.2 467.193 1183C447.393 1133.2 489.993 1093.7 465.193 1034C448.593 994 424.593 1000.3 401.193 956C368.493 893.9 404.093 859.9 381.193 813C345.693 740.2 242.593 786.8 162.293 705C118.393 660.3 146.693 643.9 70.393 513C41.893 464.1 14.893 446.1 7.39301 400C5.29301 387.1 -1.60699 334 28.393 286C55.693 242.3 102.793 220.3 148.293 199C175.593 186.2 185.993 184 207.393 169.5C232.693 152.4 244.393 136.8 265.693 125.4C270.793 122.7 279.893 118.1 301.193 113C376.693 94.8 442.793 107.6 495.093 88C520.893 78.3 555.193 56.3 586.093 0C586.093 419.7 586.093 839.3 586.093 1259Z" fill="url(#paint2_linear)"/>
<path id="Vector_4" d="M108.593 596.3C64.1341 596.3 28.093 560.259 28.093 515.8C28.093 471.341 64.1341 435.3 108.593 435.3C153.052 435.3 189.093 471.341 189.093 515.8C189.093 560.259 153.052 596.3 108.593 596.3Z" fill="url(#paint3_linear)"/>
<path id="Vector_5" opacity="0.6" d="M28.193 511.6C28.193 512.6 28.093 513.5 28.093 514.5C13.293 523 4.99302 531.6 6.59302 538.7C10.093 554.1 58.493 556.2 114.793 543.5C171.093 530.8 213.993 508.1 210.493 492.7C208.893 485.6 197.793 481.4 180.693 480C180.293 479.1 179.793 478.3 179.393 477.4C200.793 478.2 214.993 482.9 216.893 491.2C220.593 507.5 175.093 531.7 115.193 545.2C55.293 558.7 3.89299 556.4 0.192993 540.1C-1.60701 531.9 9.29299 521.6 28.193 511.6Z" fill="url(#paint4_linear)"/>
<path id="Vector_6" opacity="0.3" d="M28.093 514.5C28.093 515.2 28.093 515.9 28.093 516.5C15.993 524 9.49299 531.5 10.893 537.7C14.193 552.4 60.693 554.5 114.593 542.3C168.493 530.1 209.593 508.4 206.293 493.6C204.893 487.4 195.793 483.4 181.593 481.8C181.293 481.2 180.993 480.6 180.693 480C197.793 481.3 208.893 485.6 210.493 492.7C213.993 508.1 171.093 530.8 114.793 543.5C58.493 556.2 9.993 554 6.593 538.7C5.093 531.7 13.293 523 28.093 514.5Z" fill="url(#paint5_linear)"/>
<path id="Vector_7" opacity="0.6" d="M28.093 516.6C28.093 517.5 28.0929 518.5 28.1929 519.4C19.4929 525.5 14.9929 531.5 16.1929 536.6C19.2929 550.5 63.193 552.5 114.293 541C165.293 529.5 204.193 508.9 200.993 495C199.893 489.9 193.193 486.4 182.793 484.6C182.393 483.7 182.093 482.9 181.693 482C195.793 483.6 204.993 487.5 206.393 493.8C209.693 508.5 168.693 530.3 114.693 542.5C60.693 554.7 14.293 552.6 10.993 537.9C9.493 531.6 15.993 524.1 28.093 516.6Z" fill="url(#paint6_linear)"/>
<g id="Group">
<path id="Vector_8" d="M206.393 272.6C194.629 272.6 185.093 263.064 185.093 251.3C185.093 239.536 194.629 230 206.393 230C218.157 230 227.693 239.536 227.693 251.3C227.693 263.064 218.157 272.6 206.393 272.6Z" fill="url(#paint7_linear)"/>
<path id="Vector_9" opacity="0.3" d="M206.393 276.1C192.696 276.1 181.593 264.997 181.593 251.3C181.593 237.603 192.696 226.5 206.393 226.5C220.09 226.5 231.193 237.603 231.193 251.3C231.193 264.997 220.09 276.1 206.393 276.1Z" fill="url(#paint8_linear)"/>
</g>
<g id="Group_2">
<path id="Vector_10" opacity="0.3" d="M277.593 419.3C269.972 419.3 263.793 413.121 263.793 405.5C263.793 397.878 269.972 391.7 277.593 391.7C285.215 391.7 291.393 397.878 291.393 405.5C291.393 413.121 285.215 419.3 277.593 419.3Z" fill="#FFE7C5"/>
<path id="Vector_11" opacity="0.3" d="M277.593 420.2C269.474 420.2 262.893 413.619 262.893 405.5C262.893 397.381 269.474 390.8 277.593 390.8C285.712 390.8 292.293 397.381 292.293 405.5C292.293 413.619 285.712 420.2 277.593 420.2Z" fill="#FFE7C5"/>
<path id="Vector_12" opacity="0.3" d="M277.593 421C269.033 421 262.093 414.06 262.093 405.5C262.093 396.94 269.033 390 277.593 390C286.153 390 293.093 396.94 293.093 405.5C293.093 414.06 286.153 421 277.593 421Z" fill="#FFE7C5"/>
<path id="Vector_13" d="M277.593 418.3C270.524 418.3 264.793 412.569 264.793 405.5C264.793 398.431 270.524 392.7 277.593 392.7C284.662 392.7 290.393 398.431 290.393 405.5C290.393 412.569 284.662 418.3 277.593 418.3Z" fill="#FFD3A4"/>
<path id="Vector_14" d="M277.593 416.3C271.628 416.3 266.793 411.465 266.793 405.5C266.793 399.535 271.628 394.7 277.593 394.7C283.558 394.7 288.393 399.535 288.393 405.5C288.393 411.465 283.558 416.3 277.593 416.3Z" fill="#FFE7C5"/>
</g>
<g id="Group_3">
<path id="Vector_15" opacity="0.3" d="M82.593 284.1C78.3956 284.1 74.993 280.697 74.993 276.5C74.993 272.303 78.3956 268.9 82.593 268.9C86.7904 268.9 90.193 272.303 90.193 276.5C90.193 280.697 86.7904 284.1 82.593 284.1Z" fill="#EAFFF7"/>
<path id="Vector_16" opacity="0.3" d="M82.593 284.6C78.1195 284.6 74.493 280.973 74.493 276.5C74.493 272.026 78.1195 268.4 82.593 268.4C87.0665 268.4 90.693 272.026 90.693 276.5C90.693 280.973 87.0665 284.6 82.593 284.6Z" fill="#EAFFF7"/>
<path id="Vector_17" opacity="0.3" d="M82.593 285C77.8986 285 74.093 281.194 74.093 276.5C74.093 271.806 77.8986 268 82.593 268C87.2874 268 91.093 271.806 91.093 276.5C91.093 281.194 87.2874 285 82.593 285Z" fill="#EAFFF7"/>
<path id="Vector_18" d="M82.593 283.5C78.727 283.5 75.593 280.366 75.593 276.5C75.593 272.634 78.727 269.5 82.593 269.5C86.459 269.5 89.593 272.634 89.593 276.5C89.593 280.366 86.459 283.5 82.593 283.5Z" fill="#DEFFF1"/>
<path id="Vector_19" d="M82.593 282.4C79.3346 282.4 76.6931 279.759 76.6931 276.5C76.6931 273.242 79.3346 270.6 82.593 270.6C85.8515 270.6 88.493 273.242 88.493 276.5C88.493 279.759 85.8515 282.4 82.593 282.4Z" fill="#EAFFF7"/>
</g>
<g id="Group_4">
<path id="Vector_20" d="M468.593 1043.6C467.593 1040.5 466.493 1037.4 465.193 1034.2C471.893 1029 477.793 1023.1 482.593 1017C483.293 1016.1 483.993 1015.2 485.293 1013.5C485.893 1012.7 486.393 1011.9 486.993 1011C487.193 1010.7 487.393 1010.4 487.593 1010.1C488.293 1009.1 488.893 1008 489.493 1006.9C491.493 1003.5 493.093 1000.1 494.493 996.6C497.093 989.7 498.293 982.8 497.993 976.4C497.893 973.2 497.293 970 496.393 967C496.193 966.3 495.893 965.5 495.693 964.8C495.393 964.1 495.193 963.5 494.893 962.8C494.293 961.5 493.593 960.3 492.793 959.1C491.193 956.8 489.293 954.7 486.993 953C484.793 951.2 482.193 949.8 479.393 948.6C476.593 947.5 473.593 946.6 470.393 946.1C467.193 945.6 463.893 945.4 459.193 945.6L457.893 945.7C456.993 945.8 456.193 945.9 455.293 945.9C454.393 946 453.593 946.1 452.693 946.3L450.093 946.8C449.293 947 448.493 947.1 446.893 947.5C446.293 947.6 445.793 947.8 445.193 947.9C444.893 948 444.593 948.1 444.293 948.2C443.793 948.4 443.293 948.5 442.793 948.7C442.493 948.8 442.193 948.9 441.293 949.2C442.193 949 443.193 948.8 444.193 948.7C446.293 948.3 448.493 948.2 450.593 948C451.693 948 452.693 948 453.793 947.9C454.293 947.9 454.893 947.9 455.393 947.9L456.993 948C461.193 948.2 465.193 949.1 468.793 950.3C469.693 950.6 470.593 951 471.493 951.3C472.393 951.7 473.193 952.1 473.993 952.5L475.193 953.1L476.293 953.8C476.993 954.3 477.793 954.8 478.493 955.3C479.793 956.4 481.193 957.5 482.193 958.8C482.693 959.4 483.293 960.1 483.793 960.7C484.293 961.4 484.693 962.1 485.093 962.7C485.593 963.4 485.893 964.1 486.193 964.8C486.493 965.5 486.893 966.3 487.093 967C487.293 967.7 487.593 968.4 487.793 969.1C487.993 969.8 488.193 970.5 488.293 971.2C488.893 974.1 489.093 977.1 488.893 980.2C488.793 981.1 488.693 982 488.593 982.9C488.593 983.2 488.493 983.5 488.493 983.7C488.393 984.4 488.293 985 488.093 985.7C487.993 986 487.993 986.3 487.893 986.6C487.693 987.4 487.493 988.2 487.093 989.4C486.793 990.3 486.493 991.2 486.093 992.1C485.993 992.4 485.893 992.6 485.793 992.9C485.493 993.6 485.193 994.3 484.893 994.9C484.793 995.2 484.593 995.5 484.493 995.8C484.093 996.5 483.793 997.2 483.093 998.6C482.593 999.5 482.093 1000.4 481.093 1001.9C480.593 1002.6 480.193 1003.3 479.693 1004C479.493 1004.3 479.293 1004.5 479.093 1004.8C478.493 1005.6 477.993 1006.3 476.993 1007.6C476.293 1008.5 475.493 1009.4 474.693 1010.3C474.493 1010.5 474.293 1010.7 474.093 1010.9C473.493 1011.6 472.793 1012.3 472.093 1012.9C471.793 1013.1 471.593 1013.4 471.393 1013.6C470.493 1014.5 469.593 1015.3 468.693 1016.1C466.093 1018.4 463.193 1020.6 460.093 1022.7C452.093 1008.8 442.893 1001.9 432.993 993.9C435.793 993.3 437.993 992.4 438.493 992.2C439.193 991.9 439.793 991.7 440.393 991.4C440.593 991.3 440.793 991.2 440.993 991.1C441.393 990.9 441.793 990.7 442.193 990.5C442.393 990.4 442.593 990.3 442.793 990.2C443.193 990 443.493 989.8 443.793 989.6C443.993 989.5 444.193 989.4 444.293 989.3C444.693 989.1 444.993 988.8 445.293 988.6C445.393 988.5 445.493 988.4 445.593 988.3C445.993 988 446.393 987.7 446.793 987.3C446.893 987.2 446.993 987.1 447.093 987C447.393 986.8 447.593 986.5 447.893 986.3C447.993 986.2 448.093 986.1 448.293 986C448.393 985.9 448.493 985.8 448.593 985.7C448.693 985.6 448.793 985.5 448.893 985.4C448.993 985.3 449.093 985.2 449.193 985.1C449.393 984.9 449.593 984.7 449.693 984.6C449.793 984.5 449.793 984.5 449.893 984.4C449.993 984.2 449.993 984 450.093 983.8C450.293 983.2 450.493 982.6 450.593 982C450.693 981.4 450.793 980.8 450.893 980.2C450.893 979.9 450.893 979.6 450.993 979.3V978.4C450.993 978.1 450.993 977.9 450.893 977.7C450.893 977.5 450.893 977.2 450.793 977C450.793 976.8 450.693 976.6 450.693 976.3C450.693 976.1 450.593 975.9 450.493 975.7C450.393 975.2 450.093 974.9 449.993 974.5C449.893 974.3 449.693 974.2 449.593 974L449.393 973.7L449.193 973.5C448.993 973.3 448.893 973.2 448.693 973C448.493 972.9 448.293 972.7 448.193 972.6C447.393 972 446.493 971.5 445.393 971.1L444.993 970.9C444.893 970.9 444.693 970.8 444.593 970.8L443.693 970.6C443.493 970.6 443.293 970.6 443.093 970.5C442.693 970.4 442.193 970.4 441.693 970.4C440.293 970.3 438.793 970.5 437.093 970.7C435.293 971 433.993 971.4 432.393 971.9C430.893 972.5 429.393 973.3 427.893 974.2L427.293 974.6C427.093 974.7 426.893 974.8 426.793 975C426.493 975.3 426.093 975.5 425.793 975.8C425.493 976.1 425.193 976.4 424.793 976.7C424.593 976.8 424.493 977 424.293 977.2L423.893 977.7C423.593 978 423.293 978.4 422.993 978.7C422.893 978.8 422.793 978.9 422.693 979.1C422.593 979.2 422.493 979.4 422.393 979.5C422.293 979.6 422.293 979.7 422.193 979.8C422.093 980 421.893 980.2 421.793 980.4C421.693 980.5 421.593 980.6 421.593 980.8C421.393 981.1 421.193 981.5 420.993 981.8C420.793 982.2 420.693 982.5 420.493 982.9C414.193 976.4 407.793 968.1 401.393 956C400.693 954.6 399.993 953.3 399.293 951.9C399.393 951.8 399.493 951.7 399.693 951.6C400.593 950.7 401.493 949.9 402.393 949.1C408.493 943.7 415.993 938.9 424.193 935.1L427.293 933.8L430.293 932.6L433.293 931.5C434.293 931.1 435.393 930.8 436.393 930.5C440.593 929.2 444.793 928.1 449.093 927.4C457.693 925.8 466.593 925.5 474.893 926.5C483.193 927.4 490.893 929.7 497.393 933.2C503.893 936.6 509.193 941.2 512.993 946.5C514.893 949.1 516.393 951.9 517.493 954.9L518.293 957.1C518.493 957.8 518.693 958.5 518.893 959.2C519.293 960.6 519.593 962 519.893 963.4C520.893 969.1 520.793 975.1 519.693 981.2C518.593 987.2 516.593 993.3 513.593 999.2C513.093 1000.1 512.693 1001 512.193 1001.9C512.093 1002.2 511.893 1002.4 511.793 1002.7C511.393 1003.4 510.993 1004.1 510.593 1004.8C510.493 1005 510.293 1005.3 510.193 1005.5C509.693 1006.4 509.093 1007.3 508.193 1008.7C507.693 1009.4 507.193 1010.2 506.693 1010.9C506.493 1011.2 506.293 1011.4 506.093 1011.7C505.593 1012.4 505.093 1013 504.193 1014.3C503.593 1015.1 502.893 1016 501.793 1017.3C501.193 1018 500.693 1018.6 500.093 1019.3C499.893 1019.6 499.593 1019.8 499.393 1020.1C498.793 1020.7 498.293 1021.3 497.693 1021.9C497.493 1022.1 497.293 1022.3 497.093 1022.5C496.293 1023.3 495.493 1024.1 494.393 1025.2C493.693 1025.9 492.993 1026.5 492.293 1027.2C491.993 1027.4 491.793 1027.7 491.493 1027.9C490.893 1028.4 490.293 1029 489.693 1029.5C489.393 1029.7 489.193 1030 488.893 1030.2C487.993 1030.9 487.193 1031.7 486.293 1032.4C480.693 1036.2 474.893 1040.1 468.593 1043.6Z" fill="url(#paint9_linear)"/>
<path id="Vector_21" d="M474.493 904.5C473.893 904.5 473.293 904.6 472.693 904.7L469.093 905.1C468.493 905.2 467.893 905.3 467.293 905.4L465.493 905.7L463.693 906C463.093 906.1 462.493 906.2 461.893 906.4L458.293 907.1C455.893 907.7 453.493 908.2 451.193 908.9C449.993 909.2 448.793 909.5 447.693 909.9L444.193 911C442.993 911.3 441.893 911.8 440.693 912.2L438.893 912.8L437.993 913.1L437.093 913.4L433.593 914.8L431.893 915.5L430.293 916.2C425.993 918.1 421.793 920.3 417.793 922.6C413.793 925 409.993 927.6 406.393 930.3C401.893 933.7 397.893 937.3 394.193 941.1C392.593 937 391.293 933 390.293 929.1C394.793 925.9 399.593 922.9 404.693 920.3C406.493 919.3 408.393 918.4 410.293 917.5C411.193 917 412.193 916.6 413.193 916.2C414.193 915.8 415.093 915.3 416.093 915C417.993 914.2 419.993 913.4 421.893 912.8C423.793 912.1 425.593 911.5 427.493 910.9C435.093 908.5 442.893 906.7 450.693 905.5C451.693 905.3 452.693 905.2 453.593 905.1L456.493 904.8C458.493 904.6 460.393 904.5 462.293 904.3C464.193 904.2 466.193 904.1 468.093 904.1H470.993H472.393L473.793 904.2C474.993 904.2 476.193 904.3 477.393 904.4L475.993 904.5H474.493Z" fill="url(#paint10_linear)"/>
</g>
<path id="Vector_22" opacity="0.8" d="M480.593 178.2C483.193 181.3 486.393 183.8 489.893 185.8C493.293 187.9 497.093 189.5 500.893 190.6C504.693 191.7 508.693 192.4 512.593 192.6C516.493 192.8 520.493 192.4 524.193 191.3C525.993 190.8 527.793 190 529.293 189C530.093 188.5 530.793 187.9 531.393 187.3C531.993 186.7 532.493 186 532.993 185.3C533.893 183.8 534.293 182.2 534.293 180.5C534.293 179.7 534.193 178.8 533.993 178C533.793 177.2 533.493 176.3 533.093 175.5C532.993 175.3 532.893 175.1 532.793 174.9C532.693 174.7 532.593 174.5 532.493 174.3L532.193 173.7L531.793 173.1C531.693 172.9 531.493 172.7 531.393 172.5C531.293 172.3 531.093 172.1 530.993 171.9C530.693 171.5 530.393 171.2 530.093 170.8C529.493 170.1 528.793 169.5 528.093 168.9C527.393 168.3 526.693 167.8 525.893 167.2C524.793 166.5 523.693 165.9 522.493 165.3C522.493 165.3 522.593 165.3 522.593 165.4C522.793 165.6 523.093 165.7 523.293 165.9L523.993 166.5L524.393 166.8C524.493 166.9 524.593 167 524.693 167.1L525.393 167.8C525.593 168 525.793 168.3 525.993 168.5C526.193 168.7 526.393 169 526.593 169.2C526.793 169.4 526.993 169.7 527.193 170C527.893 171 528.493 172.2 528.993 173.5C529.093 173.8 529.193 174.1 529.293 174.5L529.393 175L529.493 175.5V175.8V176.1L529.593 176.6C529.593 177 529.693 177.3 529.593 177.7C529.593 179.1 529.293 180.6 528.693 182C528.393 182.7 527.993 183.3 527.593 183.9C527.193 184.5 526.693 185 526.193 185.5C525.193 186.5 524.093 187.2 522.893 187.7C521.693 188.3 520.593 188.6 519.393 188.9C518.293 189.2 517.093 189.3 515.993 189.4C515.393 189.5 514.893 189.5 514.293 189.5C513.693 189.5 513.193 189.5 512.593 189.5C510.393 189.4 508.093 189.1 505.993 188.6C503.893 188.1 501.793 187.4 499.793 186.5C498.793 186 497.793 185.6 496.893 185C495.893 184.4 494.993 183.9 494.093 183.2C493.193 182.5 492.293 181.8 491.493 181.1C490.693 180.3 489.893 179.5 489.193 178.7C488.793 178.3 488.493 177.8 488.193 177.4C487.993 177.2 487.893 176.9 487.693 176.7C487.493 176.5 487.393 176.2 487.193 176L486.793 175.3C486.693 175.1 486.493 174.8 486.393 174.5C486.293 174.3 486.093 174 485.993 173.7C485.893 173.4 485.793 173.2 485.693 172.9C485.293 171.8 484.893 170.7 484.693 169.6C484.493 168.4 484.393 167.3 484.393 166.1C484.493 164.9 484.693 163.7 484.993 162.6C485.393 161.5 485.893 160.4 486.493 159.4C487.093 158.4 487.893 157.5 488.793 156.7C489.693 155.9 490.593 155.2 491.493 154.7C493.393 153.5 495.493 152.8 497.593 152.2C501.793 151.2 506.093 151 510.193 151.4C514.393 151.8 518.493 152.7 522.393 154.1C526.293 155.5 530.093 157.4 533.493 159.7C536.893 162 539.993 164.8 542.493 168.1L541.993 168.5C539.393 165.4 536.193 162.9 532.693 160.9C529.293 158.8 525.493 157.2 521.693 156.1C517.893 155 513.893 154.3 509.993 154.1C506.093 153.9 502.093 154.3 498.393 155.4C496.593 155.9 494.793 156.7 493.293 157.7C492.493 158.2 491.793 158.8 491.193 159.4C490.593 160 490.093 160.7 489.593 161.4C488.693 162.9 488.293 164.5 488.293 166.2C488.293 167 488.393 167.9 488.593 168.7C488.793 169.5 489.093 170.4 489.493 171.2C489.593 171.4 489.693 171.6 489.793 171.8C489.893 172 489.993 172.2 490.093 172.4L490.393 173L490.793 173.6C490.893 173.8 491.093 174 491.193 174.2C491.293 174.4 491.493 174.6 491.593 174.8C491.893 175.2 492.193 175.5 492.493 175.9C493.093 176.6 493.793 177.2 494.493 177.8C495.193 178.4 495.893 178.9 496.693 179.5C497.793 180.2 498.893 180.8 500.093 181.4C500.093 181.4 499.993 181.4 499.993 181.3C499.793 181.1 499.493 181 499.293 180.8L498.593 180.2L498.193 179.9C498.093 179.8 497.993 179.7 497.893 179.6L497.193 178.9C496.993 178.7 496.793 178.4 496.593 178.2C496.393 178 496.193 177.7 495.993 177.5C495.793 177.3 495.593 177 495.393 176.7C494.693 175.7 494.093 174.5 493.593 173.2C493.493 172.9 493.393 172.6 493.293 172.2L493.193 171.7L493.093 171.2V170.9V170.6L492.993 170.1C492.993 169.7 492.893 169.4 492.993 169C492.993 167.6 493.293 166.1 493.893 164.7C494.193 164 494.593 163.4 494.993 162.8C495.393 162.2 495.893 161.7 496.393 161.2C497.393 160.2 498.493 159.5 499.693 159C500.893 158.4 501.993 158.1 503.193 157.8C504.293 157.5 505.493 157.4 506.593 157.3C507.193 157.2 507.693 157.2 508.293 157.2C508.893 157.2 509.393 157.2 509.993 157.2C512.193 157.3 514.493 157.6 516.593 158.1C518.693 158.6 520.793 159.3 522.793 160.2C523.793 160.7 524.793 161.1 525.693 161.7C526.693 162.3 527.593 162.8 528.493 163.5C529.393 164.2 530.293 164.9 531.093 165.6C531.893 166.4 532.693 167.2 533.393 168C533.793 168.4 534.093 168.9 534.393 169.3C534.593 169.5 534.693 169.8 534.893 170C535.093 170.2 535.193 170.5 535.393 170.7L535.793 171.4C535.893 171.6 536.093 171.9 536.193 172.2C536.293 172.4 536.493 172.7 536.593 173C536.693 173.3 536.793 173.5 536.893 173.8C537.293 174.9 537.693 176 537.893 177.1C538.093 178.3 538.193 179.4 538.193 180.6C538.093 181.8 537.893 183 537.593 184.1C537.193 185.2 536.693 186.3 536.093 187.3C535.493 188.3 534.693 189.2 533.793 190C532.893 190.8 531.993 191.5 531.093 192C529.193 193.2 527.093 193.9 524.993 194.5C520.793 195.5 516.493 195.7 512.393 195.3C508.193 194.9 504.093 194 500.193 192.6C496.293 191.2 492.493 189.3 489.093 187C485.693 184.7 482.593 181.9 480.093 178.6L480.593 178.2ZM507.393 172L507.493 172.2C507.493 172.3 507.593 172.4 507.593 172.4C507.593 172.5 507.693 172.6 507.693 172.6C507.893 172.9 508.093 173.2 508.393 173.5C508.693 173.8 508.993 174.1 509.293 174.3C509.693 174.5 509.993 174.7 510.393 174.9C511.193 175.3 512.093 175.5 512.893 175.5C512.993 175.5 513.093 175.5 513.193 175.5C513.293 175.5 513.393 175.5 513.493 175.5C513.593 175.5 513.693 175.5 513.793 175.5C513.893 175.5 513.993 175.5 514.093 175.4C514.493 175.3 514.793 175.1 515.093 174.9C515.193 174.8 515.293 174.6 515.393 174.4C515.393 174.4 515.393 174.4 515.393 174.3L515.293 174.1C515.293 174 515.193 173.9 515.193 173.9C515.193 173.8 515.093 173.7 515.093 173.7C514.893 173.4 514.693 173.1 514.393 172.8C514.093 172.5 513.793 172.2 513.493 172C513.093 171.8 512.793 171.6 512.393 171.4C511.593 171 510.693 170.8 509.893 170.8C509.793 170.8 509.693 170.8 509.593 170.8C509.493 170.8 509.393 170.8 509.293 170.8C509.193 170.8 509.093 170.8 508.993 170.8C508.893 170.8 508.793 170.8 508.693 170.9C508.293 171 507.993 171.2 507.693 171.4C507.593 171.6 507.493 171.7 507.393 172C507.393 172 507.393 171.9 507.393 172Z" fill="url(#paint11_linear)"/>
<g id="stars-cluster2">
<g id="Group_5">
<g id="Group_6">
<g id="Group_7">
<path id="Vector_23" d="M392.893 204.9C391.678 204.9 390.693 203.915 390.693 202.7C390.693 201.485 391.678 200.5 392.893 200.5C394.108 200.5 395.093 201.485 395.093 202.7C395.093 203.915 394.108 204.9 392.893 204.9Z" fill="white"/>
</g>
</g>
</g>
<g id="Group_8">
<g id="Group_9">
<g id="Group_10">
<path id="Vector_24" d="M470.993 368.8C469.778 368.8 468.793 367.815 468.793 366.6C468.793 365.385 469.778 364.4 470.993 364.4C472.208 364.4 473.193 365.385 473.193 366.6C473.193 367.815 472.208 368.8 470.993 368.8Z" fill="white"/>
</g>
</g>
</g>
<g id="Group_11">
<g id="Group_12">
<g id="Group_13">
<path id="Vector_25" d="M431.193 634.1C428.984 634.1 427.193 632.309 427.193 630.1C427.193 627.891 428.984 626.1 431.193 626.1C433.402 626.1 435.193 627.891 435.193 630.1C435.193 632.309 433.402 634.1 431.193 634.1Z" fill="white"/>
</g>
</g>
</g>
<g id="Group_14">
<g id="Group_15">
<g id="Group_16">
<path id="Vector_26" d="M523.093 770.4C521.768 770.4 520.693 769.326 520.693 768C520.693 766.675 521.768 765.6 523.093 765.6C524.419 765.6 525.493 766.675 525.493 768C525.493 769.326 524.419 770.4 523.093 770.4Z" fill="white"/>
</g>
</g>
</g>
<g id="Group_17">
<g id="Group_18">
<g id="Group_19">
<path id="Vector_27" d="M441.893 860.8C439.739 860.8 437.993 859.054 437.993 856.9C437.993 854.746 439.739 853 441.893 853C444.047 853 445.793 854.746 445.793 856.9C445.793 859.054 444.047 860.8 441.893 860.8Z" fill="white"/>
</g>
</g>
</g>
<g id="Group_20">
<g id="Group_21">
<g id="Group_22">
<path id="Vector_28" d="M265.693 640.1C265.251 640.1 264.893 639.742 264.893 639.3C264.893 638.858 265.251 638.5 265.693 638.5C266.135 638.5 266.493 638.858 266.493 639.3C266.493 639.742 266.135 640.1 265.693 640.1Z" fill="white"/>
</g>
</g>
</g>
<g id="Group_23">
<g id="Group_24">
<g id="Group_25">
<path id="Vector_29" d="M115.593 341.6C114.212 341.6 113.093 340.481 113.093 339.1C113.093 337.719 114.212 336.6 115.593 336.6C116.974 336.6 118.093 337.719 118.093 339.1C118.093 340.481 116.974 341.6 115.593 341.6Z" fill="white"/>
</g>
</g>
</g>
<g id="Group_26">
<g id="Group_27">
<g id="Group_28">
<path id="Vector_30" d="M330.093 261.4C328.988 261.4 328.093 260.504 328.093 259.4C328.093 258.295 328.988 257.4 330.093 257.4C331.198 257.4 332.093 258.295 332.093 259.4C332.093 260.504 331.198 261.4 330.093 261.4Z" fill="white"/>
</g>
</g>
</g>
<path id="Vector_31" d="M248.593 176.3L246.493 180.2C246.393 180.3 246.393 180.4 246.293 180.4L242.393 182.5C241.993 182.7 241.993 183.3 242.393 183.5L246.293 185.6C246.393 185.7 246.493 185.7 246.493 185.8L248.593 189.7C248.793 190.1 249.393 190.1 249.593 189.7L251.693 185.8C251.793 185.7 251.793 185.6 251.893 185.6L255.793 183.5C256.193 183.3 256.193 182.7 255.793 182.5L251.893 180.4C251.793 180.3 251.693 180.3 251.693 180.2L249.593 176.3C249.393 175.9 248.793 175.9 248.593 176.3Z" fill="#C2F9FF"/>
</g>
<g id="stars-cluster3">
<g id="Group_29">
<g id="Group_30">
<g id="Group_31">
<path id="Vector_32" d="M379.093 408.6C377.933 408.6 376.993 407.66 376.993 406.5C376.993 405.34 377.933 404.4 379.093 404.4C380.253 404.4 381.193 405.34 381.193 406.5C381.193 407.66 380.253 408.6 379.093 408.6Z" fill="white"/>
</g>
</g>
</g>
<g id="Group_32">
<g id="Group_33">
<g id="Group_34">
<path id="Vector_33" d="M519.993 495.8C518.06 495.8 516.493 494.233 516.493 492.3C516.493 490.367 518.06 488.8 519.993 488.8C521.926 488.8 523.493 490.367 523.493 492.3C523.493 494.233 521.926 495.8 519.993 495.8Z" fill="#80DBFF"/>
</g>
</g>
</g>
<g id="Group_35">
<g id="Group_36">
<g id="Group_37">
<path id="Vector_34" d="M440.393 734.4C438.626 734.4 437.193 732.967 437.193 731.2C437.193 729.433 438.626 728 440.393 728C442.16 728 443.593 729.433 443.593 731.2C443.593 732.967 442.16 734.4 440.393 734.4Z" fill="#80DBFF"/>
</g>
</g>
</g>
<g id="Group_38">
<g id="Group_39">
<g id="Group_40">
<path id="Vector_35" d="M521.593 1121.1C521.151 1121.1 520.793 1120.74 520.793 1120.3C520.793 1119.86 521.151 1119.5 521.593 1119.5C522.035 1119.5 522.393 1119.86 522.393 1120.3C522.393 1120.74 522.035 1121.1 521.593 1121.1Z" fill="#80DBFF"/>
</g>
</g>
</g>
<g id="Group_41">
<g id="Group_42">
<g id="Group_43">
<path id="Vector_36" d="M268.793 573.5C267.081 573.5 265.693 572.112 265.693 570.4C265.693 568.688 267.081 567.3 268.793 567.3C270.505 567.3 271.893 568.688 271.893 570.4C271.893 572.112 270.505 573.5 268.793 573.5Z" fill="#80DBFF"/>
</g>
</g>
</g>
<g id="Group_44">
<g id="Group_45">
<g id="Group_46">
<path id="Vector_37" d="M544.493 103.9C544.106 103.9 543.793 103.587 543.793 103.2C543.793 102.813 544.106 102.5 544.493 102.5C544.88 102.5 545.193 102.813 545.193 103.2C545.193 103.587 544.88 103.9 544.493 103.9Z" fill="#80DBFF"/>
</g>
</g>
</g>
<path id="Vector_38" d="M441.593 441.3L439.493 445.2C439.393 445.3 439.393 445.4 439.293 445.4L435.393 447.5C434.993 447.7 434.993 448.3 435.393 448.5L439.293 450.6C439.393 450.7 439.493 450.7 439.493 450.8L441.593 454.7C441.793 455.1 442.393 455.1 442.593 454.7L444.693 450.8C444.793 450.7 444.793 450.6 444.893 450.6L448.793 448.5C449.193 448.3 449.193 447.7 448.793 447.5L444.893 445.4C444.793 445.3 444.693 445.3 444.693 445.2L442.593 441.3C442.393 440.9 441.793 440.9 441.593 441.3Z" fill="#C2F9FF"/>
</g>
<g id="stars-cluster1">
<g id="Group_47">
<g id="Group_48">
<g id="Group_49">
<path id="Vector_39" d="M527.693 104.2C527.141 104.2 526.693 103.752 526.693 103.2C526.693 102.648 527.141 102.2 527.693 102.2C528.245 102.2 528.693 102.648 528.693 103.2C528.693 103.752 528.245 104.2 527.693 104.2Z" fill="#80DBFF"/>
</g>
</g>
</g>
<g id="Group_50">
<g id="Group_51">
<g id="Group_52">
<path id="Vector_40" d="M492.493 276.3C490.781 276.3 489.393 274.912 489.393 273.2C489.393 271.488 490.781 270.1 492.493 270.1C494.205 270.1 495.593 271.488 495.593 273.2C495.593 274.912 494.205 276.3 492.493 276.3Z" fill="#80DBFF"/>
</g>
</g>
</g>
<g id="Group_53">
<g id="Group_54">
<g id="Group_55">
<path id="Vector_41" d="M397.493 515.2C395.836 515.2 394.493 513.857 394.493 512.2C394.493 510.543 395.836 509.2 397.493 509.2C399.15 509.2 400.493 510.543 400.493 512.2C400.493 513.857 399.15 515.2 397.493 515.2Z" fill="#80DBFF"/>
</g>
</g>
</g>
<g id="Group_56">
<g id="Group_57">
<g id="Group_58">
<path id="Vector_42" d="M547.593 921.8C546.433 921.8 545.493 920.86 545.493 919.7C545.493 918.54 546.433 917.6 547.593 917.6C548.753 917.6 549.693 918.54 549.693 919.7C549.693 920.86 548.753 921.8 547.593 921.8Z" fill="#80DBFF"/>
</g>
</g>
</g>
<g id="Group_59">
<g id="Group_60">
<g id="Group_61">
<path id="Vector_43" d="M558.293 1216C557.078 1216 556.093 1215.02 556.093 1213.8C556.093 1212.59 557.078 1211.6 558.293 1211.6C559.508 1211.6 560.493 1212.59 560.493 1213.8C560.493 1215.02 559.508 1216 558.293 1216Z" fill="#80DBFF"/>
</g>
</g>
</g>
<g id="Group_62">
<g id="Group_63">
<g id="Group_64">
<path id="Vector_44" d="M495.493 917.4C495.051 917.4 494.693 917.042 494.693 916.6C494.693 916.158 495.051 915.8 495.493 915.8C495.935 915.8 496.293 916.158 496.293 916.6C496.293 917.042 495.935 917.4 495.493 917.4Z" fill="#80DBFF"/>
</g>
</g>
</g>
<path id="Vector_45" d="M313.593 671.3L311.493 675.2C311.393 675.3 311.393 675.4 311.293 675.4L307.393 677.5C306.993 677.7 306.993 678.3 307.393 678.5L311.293 680.6C311.393 680.7 311.493 680.7 311.493 680.8L313.593 684.7C313.793 685.1 314.393 685.1 314.593 684.7L316.693 680.8C316.793 680.7 316.793 680.6 316.893 680.6L320.793 678.5C321.193 678.3 321.193 677.7 320.793 677.5L316.893 675.4C316.793 675.3 316.693 675.3 316.693 675.2L314.593 671.3C314.393 670.9 313.793 670.9 313.593 671.3Z" fill="#C2F9FF"/>
<path id="Vector_46" d="M533.593 832.3L531.493 836.2C531.393 836.3 531.393 836.4 531.293 836.4L527.393 838.5C526.993 838.7 526.993 839.3 527.393 839.5L531.293 841.6C531.393 841.7 531.493 841.7 531.493 841.8L533.593 845.7C533.793 846.1 534.393 846.1 534.593 845.7L536.693 841.8C536.793 841.7 536.793 841.6 536.893 841.6L540.793 839.5C541.193 839.3 541.193 838.7 540.793 838.5L536.893 836.4C536.793 836.3 536.693 836.3 536.693 836.2L534.593 832.3C534.393 831.9 533.793 831.9 533.593 832.3Z" fill="#C2F9FF"/>
</g>
</g>
<style lang="scss">
#stars-cluster1 {
  animation: shiningStars 3s ease infinite;
}
#stars-cluster2 {
  animation: shiningStars 3s ease 1s infinite;
}
#stars-cluster3 {
  animation: shiningStars 3s ease 2s infinite;
}
@keyframes shiningStars {
  0% {
    opacity: 1;
  }
  20% {
    opacity: 1;
  }
  47% {
    opacity: 0;
  }
  80% {
    opacity: 1;
  }
  100% {
    opacity: 1;
  }
}
</style>
<defs>
<linearGradient id="paint0_linear" x1="570.093" y1="604.753" x2="86.7734" y2="604.753" gradientUnits="userSpaceOnUse">
<stop offset="9.53674e-07" stop-color="#051335"/>
<stop offset="0.3645" stop-color="#100F49"/>
<stop offset="1" stop-color="#270775"/>
</linearGradient>
<linearGradient id="paint1_linear" x1="586.094" y1="629.5" x2="5.30587" y2="629.5" gradientUnits="userSpaceOnUse">
<stop offset="9.53674e-07" stop-color="#051335"/>
<stop offset="0.3645" stop-color="#100F49"/>
<stop offset="1" stop-color="#270775"/>
</linearGradient>
<linearGradient id="paint2_linear" x1="586.094" y1="629.5" x2="5.30587" y2="629.5" gradientUnits="userSpaceOnUse">
<stop offset="9.53674e-07" stop-color="#051335"/>
<stop offset="0.3645" stop-color="#100F49"/>
<stop offset="1" stop-color="#270775"/>
</linearGradient>
<linearGradient id="paint3_linear" x1="65.6215" y1="583.742" x2="151.616" y2="447.724" gradientUnits="userSpaceOnUse">
<stop offset="5.43435e-07" stop-color="#7377DE"/>
<stop offset="0.3142" stop-color="#6C9EE5"/>
<stop offset="0.7744" stop-color="#63D2EE"/>
<stop offset="1" stop-color="#60E6F1"/>
</linearGradient>
<linearGradient id="paint4_linear" x1="98.0446" y1="596.028" x2="119.332" y2="434.382" gradientUnits="userSpaceOnUse">
<stop offset="5.43435e-07" stop-color="#7377DE"/>
<stop offset="0.3179" stop-color="#515DDE"/>
<stop offset="0.6088" stop-color="#589EE7"/>
<stop offset="0.8719" stop-color="#5ED2EE"/>
<stop offset="1" stop-color="#60E6F1"/>
</linearGradient>
<linearGradient id="paint5_linear" x1="102.753" y1="560.272" x2="114.484" y2="471.198" gradientUnits="userSpaceOnUse">
<stop offset="5.43435e-07" stop-color="#7377DE"/>
<stop offset="0.3179" stop-color="#515DDE"/>
<stop offset="0.6088" stop-color="#589EE7"/>
<stop offset="0.8719" stop-color="#5ED2EE"/>
<stop offset="1" stop-color="#60E6F1"/>
</linearGradient>
<linearGradient id="paint6_linear" x1="107.133" y1="552.692" x2="110.092" y2="479.071" gradientUnits="userSpaceOnUse">
<stop offset="5.43435e-07" stop-color="#7377DE"/>
<stop offset="0.3179" stop-color="#515DDE"/>
<stop offset="0.6088" stop-color="#589EE7"/>
<stop offset="0.8719" stop-color="#5ED2EE"/>
<stop offset="1" stop-color="#60E6F1"/>
</linearGradient>
<linearGradient id="paint7_linear" x1="191.297" y1="266.37" x2="221.407" y2="236.261" gradientUnits="userSpaceOnUse">
<stop offset="5.43435e-07" stop-color="#7377DE"/>
<stop offset="0.3142" stop-color="#6C9EE5"/>
<stop offset="0.7744" stop-color="#63D2EE"/>
<stop offset="1" stop-color="#60E6F1"/>
</linearGradient>
<linearGradient id="paint8_linear" x1="188.782" y1="268.886" x2="223.922" y2="233.745" gradientUnits="userSpaceOnUse">
<stop offset="5.43435e-07" stop-color="#7377DE"/>
<stop offset="0.3142" stop-color="#6C9EE5"/>
<stop offset="0.7744" stop-color="#63D2EE"/>
<stop offset="1" stop-color="#60E6F1"/>
</linearGradient>
<linearGradient id="paint9_linear" x1="430.025" y1="1004.96" x2="501.146" y2="933.835" gradientUnits="userSpaceOnUse">
<stop stop-color="#B4A2FF" stop-opacity="0"/>
<stop offset="0.588" stop-color="#B3CDFF" stop-opacity="0.588"/>
<stop offset="1" stop-color="#B3E6FF"/>
</linearGradient>
<linearGradient id="paint10_linear" x1="402.039" y1="948.744" x2="462.09" y2="888.693" gradientUnits="userSpaceOnUse">
<stop stop-color="#B4A2FF" stop-opacity="0"/>
<stop offset="0.588" stop-color="#B3CDFF" stop-opacity="0.588"/>
<stop offset="1" stop-color="#B3E6FF"/>
</linearGradient>
<linearGradient id="paint11_linear" x1="542.774" y1="173.237" x2="480.093" y2="173.237" gradientUnits="userSpaceOnUse">
<stop stop-color="#EFE0FF"/>
<stop offset="0.1171" stop-color="#EDE4FF"/>
<stop offset="1" stop-color="#DCFDFF"/>
</linearGradient>
</defs>
</svg>
