<svg width="85" height="85" viewBox="0 0 85 85" fill="none" xmlns="http://www.w3.org/2000/svg">
<path d="M81.9799 0.918945H2.87003C1.56026 0.918945 0.512451 1.96699 0.512451 3.27705V82.3392C0.512451 83.6492 1.56026 84.6973 2.87003 84.6973H81.9144C83.2242 84.6973 84.272 83.6492 84.272 82.3392V3.27705C84.3375 1.96699 83.2897 0.918945 81.9799 0.918945ZM74.5797 18.3427L69.4716 23.2555C69.0132 23.583 68.8167 24.1725 68.8822 24.6965V60.9197C68.8167 61.4437 69.0132 62.0332 69.4716 62.3607L74.5142 67.2735V68.3215H49.2357V67.2735L54.4093 62.2297C54.9332 61.7057 54.9332 61.5747 54.9332 60.7887V31.5743L40.4603 68.256H38.4957L21.6652 31.5743V56.2035C21.5342 57.2515 21.8616 58.2996 22.582 59.0201L29.3273 67.208V68.3215H10.2702V67.208L17.0155 59.0201C17.7359 58.2996 18.0633 57.2515 17.8669 56.2035V27.7097C17.9323 26.9236 17.6704 26.1376 17.081 25.6136L11.0561 18.3427V17.2947H29.7202L44.1277 48.9326L56.8324 17.2947H74.6452V18.3427H74.5797Z" fill="white"/>
</svg>
