<svg width="85" height="85" viewBox="0 0 85 85" fill="none" xmlns="http://www.w3.org/2000/svg">
<path d="M82.1908 0.918945H3.02182C1.71107 0.918945 0.662476 1.96781 0.662476 3.27889V82.4027C0.662476 83.7138 1.71107 84.7627 3.02182 84.7627H82.1253C83.436 84.7627 84.4846 83.7138 84.4846 82.4027V3.27889C84.5502 1.96781 83.5016 0.918945 82.1908 0.918945ZM27.9915 68.4397H17.0468V32.8438H27.9915V68.4397ZM22.4864 28.255C18.5541 28.255 16.588 26.4195 16.588 22.7485C16.588 22.0274 16.7191 21.3063 17.0468 20.6507C17.3745 19.9952 17.7677 19.4052 18.3575 18.8808C19.4717 17.8319 21.0446 17.2419 22.5519 17.3075C26.4842 17.3075 28.4503 19.143 28.4503 22.814C28.4503 26.4195 26.4842 28.255 22.4864 28.255ZM68.6246 68.4397H57.4177V48.5768C57.4177 43.398 55.5827 40.8414 51.9126 40.8414C49.029 40.8414 47.1284 42.2836 46.2109 45.168C45.9487 45.6269 45.7521 46.5446 45.7521 47.9213V68.4397H34.6108V44.2502C34.6108 38.7437 34.5452 34.9415 34.4142 32.8438H43.9826L44.638 37.6293C47.1284 33.8271 50.7985 31.9261 55.8448 31.9261C59.646 31.9261 62.7263 33.2371 65.0856 35.9249C67.4449 38.6126 68.6246 42.4147 68.6246 47.4624V68.4397Z" fill="white"/>
</svg>
