<svg width="84" height="85" viewBox="0 0 84 85" fill="none" xmlns="http://www.w3.org/2000/svg">
<path d="M81.6158 0.918945H2.44686C1.13612 0.918945 0.0875244 1.96781 0.0875244 3.27889V82.4027C0.0875244 83.7138 1.13612 84.7627 2.44686 84.7627H81.5502C82.861 84.7627 83.9096 83.7138 83.9096 82.4027V3.27889C83.9751 1.96781 82.9265 0.918945 81.6158 0.918945ZM53.0416 42.8736H45.8325V68.5053H35.2154V42.8736H30.1035V34.2204H35.2154V27.1406C35.2154 25.8295 34.9533 17.1764 46.0946 17.1764H53.828V26.2228H48.1918C47.0121 26.354 46.0946 27.1406 45.8325 28.3206V34.2204H53.9591C53.6969 38.8092 53.0416 42.8736 53.0416 42.8736Z" fill="white"/>
</svg>
