<svg width="62" height="78" viewBox="0 0 62 78" fill="none" xmlns="http://www.w3.org/2000/svg">
<path d="M39.0133 21.9601L34.7749 25.7485H26.9976L22.9951 21.9601L31.0084 3.27475L39.0133 21.9601ZM56.1017 23.0838C54.2142 26.808 52.3351 30.5322 50.4477 34.2564C50.4393 34.2885 50.4393 34.3206 50.4308 34.3527L31.0253 72.823L12.2938 35.6771C12.2854 35.6289 12.277 35.5728 12.277 35.5246C10.8867 32.8037 9.49633 30.0908 8.10601 27.3698L5.94047 23.0757L5.92362 23.0998C5.92362 23.0918 5.91519 23.0838 5.91519 23.0757C13.246 15.3865 20.5852 7.69726 27.9244 0V1.63737L17.7119 22.8831C20.6105 25.3151 23.5091 27.7551 26.4077 30.1871C29.4749 30.1871 32.5336 30.1871 35.6007 30.1871C38.4235 27.7551 41.2547 25.3151 44.0775 22.8831L33.8733 1.63737V0C41.28 7.69726 48.695 15.3865 56.1017 23.0838ZM47.8608 30.0908H38.1454C37.3786 30.8051 36.6034 31.5114 35.8366 32.2258C38.7353 32.2418 41.6339 32.2579 44.5325 32.2739L31.0253 60.4143L17.5181 32.2739C20.4083 32.2579 23.29 32.2418 26.1802 32.2258C25.3629 31.5114 24.5455 30.8051 23.7282 30.0908H14.1897L31.0253 65.1579L47.8608 30.0908ZM32.028 78L55.1579 30.5162L61.6124 33.1087L62 41.0387L56.3544 39.907L39.0049 70.6479C36.6793 73.1039 34.3536 75.552 32.028 78ZM37.6988 77.8796C40.4963 75.3353 43.2854 72.7989 46.0829 70.2546C51.1639 61.0965 56.2449 51.9465 61.3175 42.7884C60.1547 42.6279 59.0003 42.4754 57.8375 42.3149C51.1302 54.1698 44.4145 66.0247 37.6988 77.8796ZM29.6097 78L6.75781 30.5242L0.379179 33.1167L0 41.0467L5.57815 39.915L22.717 70.6479C25.0174 73.1039 27.3093 75.552 29.6097 78ZM4.11199 42.3149C2.96602 42.4754 1.82006 42.6279 0.674096 42.7884C5.69611 51.9465 10.7097 61.0965 15.7317 70.2546C18.4955 72.7989 21.2509 75.3353 24.0147 77.8796C17.3748 66.0247 10.7434 54.1698 4.11199 42.3149Z" fill="white"/>
</svg>
