<svg xmlns="http://www.w3.org/2000/svg" xmlns:xlink="http://www.w3.org/1999/xlink" viewBox="0 0 709.9 1168.34"><defs><style>.cls-1{fill:#e4f2bb;}.cls-2,.cls-6{fill:#747e6d;}.cls-2{opacity:0.8;}.cls-3{fill:#e3eae7;}.cls-4{fill:#96a18e;}.cls-5{fill:#aeb9ab;}.cls-7{fill:#cbd4cc;}.cls-8{fill:url(#Dégradé_sans_nom_29);}.cls-9{fill:url(#Dégradé_sans_nom_28);}.cls-10{fill:url(#Dégradé_sans_nom_28-2);}</style><linearGradient id="Dégradé_sans_nom_29" x1="-14.35" y1="217.5" x2="4.33" y2="217.5" gradientTransform="translate(340.32)" gradientUnits="userSpaceOnUse"><stop offset="0.3" stop-color="#f1f8fd"/><stop offset="0.97" stop-color="#ddebf0"/><stop offset="1" stop-color="#dceaef"/></linearGradient><linearGradient id="Dégradé_sans_nom_28" x1="-17.02" y1="104.17" x2="178.27" y2="104.17" gradientTransform="translate(340.32)" gradientUnits="userSpaceOnUse"><stop offset="0.3" stop-color="#49bfaa"/><stop offset="0.66" stop-color="#54abae"/><stop offset="1" stop-color="#6194b2"/></linearGradient><linearGradient id="Dégradé_sans_nom_28-2" x1="-145.14" y1="908.05" x2="-138.19" y2="908.05" xlink:href="#Dégradé_sans_nom_28"/></defs><title>isometric_gard_towerFichier 1</title><g id="Calque_2" data-name="Calque 2"><g id="Calque_1-2" data-name="Calque 1"><path class="cls-1" d="M43.86,793.37C89,748,167.1,734.48,224.07,690.05c8.56-6.66,36.52-26.51,84.31-46.53,4.41-1.85,9.2-3.53,15.56-5.51,68.34-21.25,161-23.87,242.54-29.24,33-2.18,82.62-6.18,143.42-14.11V887.39h0v280.95a1008.73,1008.73,0,0,0-146.42-15.17c-84.37-2.5-173,5.57-239.54-16.12-6.95-2.27-15.16-5.35-15.56-5.5-48.58-18.26-74.16-38.57-84.31-46.48-88-68.67-133.36-76.91-171.2-128.44C35.42,932.86-19.86,857.56,43.86,793.37Z"/><path class="cls-2" d="M709.9,769.38v118h0V1037l-2-1.25H336.2L336,779.64v-.17H692.5Z"/><polygon class="cls-3" points="336.12 77.69 0 271.9 336.12 466.11 672.4 271.9 336.12 77.69"/><polygon class="cls-4" points="336.29 153.92 468.12 153.92 403.39 116.48 336.29 153.92"/><polygon class="cls-5" points="336.2 388.38 336.2 280.52 335.53 155.71 336.12 155.37 537.95 271.9 336.2 388.38"/><polygon class="cls-4" points="336.2 155.44 433.05 314.89 336.2 259.1 336.2 155.44"/><polygon class="cls-5" points="336.05 388.38 134.61 271.9 335.41 155.78 336.05 388.38"/><polygon class="cls-5" points="336.2 280.52 336.2 388.38 336.12 388.42 336.05 388.38 335.41 155.78 335.53 155.71 336.2 280.52"/><polygon class="cls-5" points="336.2 280.52 336.2 388.38 336.12 388.42 336.05 388.38 335.41 155.78 335.53 155.71 336.2 280.52"/><polygon class="cls-6" points="224.14 323.67 336.12 259 448.28 323.67 336.12 388.42 224.14 323.67"/><polygon class="cls-3" points="134.61 194.21 67.2 233.04 0 194.21 67.29 155.33 134.61 194.21"/><polygon class="cls-5" points="134.61 194.21 134.61 271.9 67.22 310.71 67.22 233.03 134.61 194.21"/><polygon class="cls-3" points="403.5 38.92 336.12 77.69 268.89 38.88 268.89 38.84 336.12 0 403.37 38.84 403.5 38.92"/><polygon class="cls-5" points="403.51 116.53 403.37 116.53 403.5 116.6 336.12 155.37 336.12 77.69 403.5 38.92 403.37 38.84 403.51 38.84 403.51 116.53"/><polygon class="cls-7" points="336.12 77.69 336.12 155.37 268.86 116.55 268.89 116.53 268.89 38.88 336.12 77.69"/><path class="cls-8" d="M326,217.5c0,75.54,2.11,138.55,4.67,140a10.32,10.32,0,0,0,9.34,0c2.57-1.48,4.68-64.49,4.68-140s-2.12-138.56-4.71-140a10.38,10.38,0,0,0-9.34,0C328.05,78.94,326,142,326,217.5Z"/><path class="cls-9" d="M461,65.48c-18.45,7.46-24.24,17.19-43.37,23.76-17.4,6-45.28,9.06-56.7,8.45,0,0-12.75-.69-17.18,4.78a8.21,8.21,0,0,1-.86.93l-.45.39c-3.9,3.12-10.11,2.45-14.36.75l-1.69-.8c-1.16-.53-1.73-.8-1.79-.8-2.52.19.32,30.1-1.12,38.13a8.61,8.61,0,0,0,.75,5.72,4.81,4.81,0,0,0,1.78,1.79,6.84,6.84,0,0,0,2.54.56c3,.82,5.43,1.5,6.75,1.69,3.68.52,6.71-1.46,7.89-2.25a12.64,12.64,0,0,0,2.44-2.16c4.09-4.59,12.83-8.8,14.65-9.67,9.46-4.57,14-1.32,20.85-2.58a22.55,22.55,0,0,0,6.18-2.21c13.17-6.24,29.07-8,45-16.62,15.19-8.26,16-13.09,35.48-28.17a216.07,216.07,0,0,1,50.79-29C494,55.71,475.18,59.75,461,65.48Z"/><polygon class="cls-3" points="672.4 194.21 605.18 233.07 537.95 194.21 605.24 155.42 672.4 194.21"/><polygon class="cls-7" points="605.18 233.07 605.18 310.76 537.95 271.9 537.95 194.21 605.18 233.07"/><polygon class="cls-5" points="605.18 233.07 605.18 310.72 403.51 427.19 403.51 349.42 403.21 349.42 403.44 349.55 336.12 388.42 336.12 466.11 336.12 569.74 672.4 375.53 672.4 271.9 672.4 194.21 605.18 233.07"/><polygon class="cls-7" points="268.89 349.47 268.89 427.16 268.9 427.27 67.2 310.73 67.22 310.71 67.22 233.03 67.2 233.04 0 194.21 0 271.9 0 375.53 336.12 569.74 336.12 469.37 336.12 466.11 336.12 388.42 268.89 349.47"/><polygon class="cls-5" points="558.7 907.12 558.82 441.22 336.4 569.85 336.26 1035.68 558.7 907.12"/><polygon class="cls-7" points="113.61 907.12 113.48 441.22 336.13 569.85 336.26 1035.68 113.61 907.12"/><polygon class="cls-6" points="435.65 564.19 435.65 667.5 480.52 641.71 480.52 538.08 435.65 564.19"/><polygon class="cls-6" points="236.75 564.19 236.75 667.5 192.04 641.71 192.04 538.08 236.75 564.19"/><polygon class="cls-4" points="458.17 628.66 480.52 641.71 480.52 538.08 458.27 551.02 458.17 628.66"/><polygon class="cls-4" points="435.65 641.61 458.17 628.66 480.52 641.71 435.65 667.5 435.65 641.61"/><polygon class="cls-5" points="214.4 628.66 192.04 641.71 192.04 538.08 214.4 551.14 214.4 628.66"/><polygon class="cls-3" points="236.75 641.61 214.4 628.66 192.04 641.71 236.75 667.5 236.75 641.61"/><path class="cls-6" d="M246.46,880.16,202.16,906l-.06-103.43,44.28,25.66Q246.41,854.21,246.46,880.16Z"/><path class="cls-5" d="M202.16,906l-6.95,4.07L179.69,919l-.05-129.41,22.46,13Z"/><polygon class="cls-5" points="246.73 958.01 246.72 983.83 201.89 1009.65 201.89 1003.18 213.08 996.74 213.25 996.84 213.25 990.32 213.17 990.27 222.92 984.62 223.04 984.55 224.29 983.83 224.29 983.82 224.35 983.79 224.35 977.32 235.49 970.94 235.49 964.44 246.73 958.01"/><polygon class="cls-5" points="246.73 958.01 246.72 983.83 201.89 1009.65 201.89 1003.18 213.08 996.74 213.25 996.84 213.25 990.32 213.17 990.27 222.92 984.62 223.04 984.55 224.29 983.83 224.29 983.82 224.35 983.79 224.35 977.32 235.49 970.94 235.49 964.44 246.73 958.01"/><path class="cls-3" d="M246.7,958l-11.25,6.36-67-38.72v0l11.21-6.41v0h0Z"/><polygon class="cls-3" points="235.45 970.89 224.35 977.26 157.26 938.49 168.37 932.14 235.45 970.89"/><polygon class="cls-3" points="224.29 983.75 224.29 983.82 223.04 984.55 222.92 984.62 213.13 990.24 146.03 951.47 146.03 958 213.03 996.71 201.83 1003.21 134.83 964.49 134.83 964.34 146.03 957.9 146.03 951.42 157.22 944.99 224.29 983.75"/><polygon class="cls-7" points="235.45 964.37 235.45 970.89 168.37 932.14 168.43 932.1 168.43 925.64 235.45 964.37"/><polygon class="cls-7" points="224.35 977.26 224.35 977.32 224.29 977.36 224.29 983.75 157.22 944.99 157.23 944.99 157.23 938.51 157.26 938.49 224.35 977.26"/><polygon class="cls-7" points="213.13 990.24 213.09 990.27 213.09 996.68 213.03 996.71 146.03 958 146.03 951.47 213.13 990.24"/><path class="cls-7" d="M201.83,1003.21v6.36l-67-38.78,0,0v0l-.06,0,.06,0v-6.2Z"/><polygon class="cls-4" points="558.84 441.14 558.82 466.88 336.2 595.28 336.2 569.69 558.84 441.14"/><polygon class="cls-5" points="336.2 569.69 336.2 595.28 336.12 595.33 113.49 466.75 113.56 441.14 336.12 569.74 336.2 569.69"/><polygon class="cls-3" points="403.44 349.55 336.12 388.42 268.89 349.47 268.89 349.43 268.92 349.42 336.12 310.74 403.21 349.42 403.44 349.55"/><path class="cls-3" d="M246.57,958l-66.85-38.89,15.49-9,6.95-4V906l44.3-25.86Q246.51,919.09,246.57,958Z"/><polygon class="cls-10" points="202.16 906.02 202.16 906.1 195.21 910.09 202.16 906.02"/><polygon class="cls-2" points="201.81 1009.58 212.06 1012.09 221.17 1006.85 230.97 1009.12 239.62 1003.66 249.19 1006.62 257.62 1001.61 266.96 1004.11 274.17 999.56 246.68 958.09 246.68 983.84 201.81 1009.58"/><polygon class="cls-4" points="67.19 310.82 201.81 310.76 134.62 271.86 67.19 310.82"/><polygon class="cls-4" points="403.51 388.84 469.34 389.17 403.39 427.24 403.51 388.84"/></g></g></svg>