<svg
    id="isometric-tipi-hills"
    width="85%"
    height="auto"
    viewBox="0 0 1996 1277"
    fill="none"
    xmlns="http://www.w3.org/2000/svg"
  >
  <style type='text/css'>
#mid-layer {
  animation: mid 3s ease-in-out infinite alternate;
  transform-origin: center;
}
#tipis {
  animation: mid 2.4s ease-in-out infinite alternate;
  transform-origin: center;
}
#bot-layer {
  transform-origin: center;
}

@keyframes mid {
  from {
    transform: translateY(0px);
  }
  to {
    transform: translateY(50px);
  }
}
  </style>
    <g id="tipi 1">
      <g id="bot-layer" opacity="0.3">
        <path
          id="Vector"
          opacity="0.3"
          d="M286.887 1102.35C-95.6289 881.515 -95.6289 520.15 286.887 299.303L302.515 290.281C685.031 69.4465 1310.97 69.4465 1693.48 290.281L1709.11 299.303C2091.63 520.138 2091.63 881.503 1709.11 1102.35L1693.48 1111.37C1310.97 1332.21 685.031 1332.21 302.515 1111.37L286.887 1102.35Z"
          fill="#90C43D"
        />
      </g>
      <g id="mid-layer" opacity="0.3">
        <path
          id="Vector_2"
          opacity="0.3"
          d="M1001.81 1111.71C1486.48 1111.71 1879.38 884.876 1879.38 605.065C1879.38 325.253 1486.48 98.4219 1001.81 98.4219C517.149 98.4219 124.251 325.253 124.251 605.065C124.251 884.876 517.149 1111.71 1001.81 1111.71Z"
          fill="#90C43D"
        />
      </g>
      <g id="tipis">
        <path
          id="Vector_3"
          d="M998 894.633C1396.58 894.633 1719.69 708.093 1719.69 477.984C1719.69 247.876 1396.58 61.3358 998 61.3358C599.424 61.3358 276.314 247.876 276.314 477.984C276.314 708.093 599.424 894.633 998 894.633Z"
          fill="#90C43D"
        />
        <path
          id="Vector_4"
          d="M1144.44 196.85L1144.49 195.178L1170.14 182.397L1168.8 179.701L1147.06 190.542L1152.16 182.369L1149.61 180.767L1144.7 188.631L1145.31 169.332L1142.29 169.236L1141.53 193.286L1139.15 194.475C1137.77 193.933 1136.74 193.582 1136.22 193.409C1118.45 187.396 1101.19 191.658 1094.46 194.814L907.547 282.546L1071.33 356.7C1084.36 339.551 1159.8 239.873 1161.68 221.188C1161.86 219.084 1161.74 216.964 1161.32 214.894C1159.31 206.033 1151.02 200.199 1144.44 196.85Z"
          fill="#488E2E"
        />
        <path
          id="Vector_5"
          d="M1052.19 377.388C1048.11 380.522 1043.82 383.378 1039.36 385.937C986.245 416.576 899.331 416.576 846.218 385.937C841.753 383.378 837.466 380.521 833.386 377.386C854.047 358.761 872.256 337.584 887.576 314.366C900.326 294.998 910.97 274.324 919.328 252.695C934.998 251.143 950.784 251.15 966.453 252.715C978.567 283.883 992.473 305.934 998.008 314.366C1013.27 337.622 1031.49 358.806 1052.19 377.388V377.388Z"
          fill="#5E401B"
        />
        <path
          id="Vector_6"
          d="M1051.74 377.733C1047.29 368.454 1042.04 358.597 1035.85 348.395C1026.62 333.212 1016.22 318.779 1004.73 305.231C986.317 324.232 964.877 340.04 941.282 352.008C897.273 374.292 856.515 377.613 833.844 377.733C837.808 380.702 841.939 383.441 846.218 385.936C899.331 416.576 986.245 416.576 1039.36 385.936C1043.66 383.471 1047.79 380.731 1051.74 377.733Z"
          fill="#FFEFD4"
        />
        <path
          id="Vector_7"
          d="M978.023 120.534H907.553V282.546H978.023V120.534Z"
          fill="#30200E"
        />
        <path
          id="Vector_8"
          d="M970.394 107.283C962.855 111.642 952.927 113.836 942.991 113.864C932.918 113.894 922.827 111.7 915.186 107.283C906.152 102.064 902.501 94.8886 904.204 88.095C905.368 83.4595 909.023 79.0006 915.186 75.4632C930.368 66.7403 955.216 66.7403 970.398 75.4632C976.555 79.0006 980.215 83.4595 981.38 88.095C983.078 94.8886 979.418 102.066 970.394 107.283Z"
          fill="#FFEFD4"
        />
        <path
          id="Vector_9"
          d="M967.734 105.752C960.922 109.691 951.951 111.674 942.971 111.698C933.868 111.726 924.751 109.743 917.844 105.752C909.691 101.038 906.382 94.5513 907.922 88.4121C908.974 84.2243 912.281 80.1951 917.844 76.999C931.563 69.1172 954.017 69.1172 967.736 76.999C973.299 80.1951 976.608 84.2263 977.66 88.4121C979.196 94.5574 975.889 101.038 967.734 105.752Z"
          fill="#5E401B"
        />
        <path
          id="Vector_10"
          d="M967.734 105.752C960.922 109.691 951.951 111.674 942.971 111.698C933.868 111.726 924.751 109.743 917.844 105.752C909.691 101.038 906.382 94.5513 907.922 88.4121C908.974 84.2243 912.281 80.1951 917.844 76.999C931.563 69.1172 954.017 69.1172 967.736 76.999C973.299 80.1951 976.608 84.2263 977.66 88.4121C979.196 94.5574 975.889 101.038 967.734 105.752Z"
          fill="url(#paint0_linear)"
        />
        <path
          id="Vector_11"
          d="M830.588 267.521L828.232 273.261C828.883 271.295 829.67 269.377 830.588 267.521V267.521Z"
          stroke="#10BF7C"
          stroke-miterlimit="10"
        />
        <path
          id="Vector_12"
          d="M1057.26 272.974L1055.13 267.792C1055.95 269.474 1056.66 271.204 1057.26 272.974V272.974Z"
          stroke="#10BF7C"
          stroke-miterlimit="10"
        />
        <path
          id="Vector_13"
          d="M893.429 114.354L891.788 118.351C892.189 116.963 892.739 115.623 893.429 114.354Z"
          stroke="#10BF7C"
          stroke-miterlimit="10"
        />
        <path
          id="Vector_14"
          d="M993.78 118.319L992.164 114.378C992.841 115.631 993.383 116.952 993.78 118.319Z"
          stroke="#10BF7C"
          stroke-miterlimit="10"
        />
        <path
          id="Vector_15"
          d="M942.788 71.0867V73.2288L942.21 71.8455L941.895 71.0927H942.521L942.788 71.0867Z"
          stroke="#10BF7C"
          stroke-miterlimit="10"
        />
        <path
          id="Vector_16"
          d="M942.981 130.72C942.828 137.546 942.479 145.036 941.821 153.101C928.879 152.964 916.007 150.057 906.188 144.382C894.222 137.464 889.369 127.948 891.628 118.942C891.678 118.741 891.73 118.54 891.786 118.351L893.427 114.354L904.2 88.095C903.082 92.5558 904.276 97.1833 907.788 101.313C909.619 103.471 912.084 105.493 915.182 107.283C922.824 111.7 932.914 113.894 942.987 113.864C942.879 118.869 942.849 124.515 942.981 130.72Z"
          fill="#00D3D3"
        />
        <path
          id="Vector_17"
          d="M941.814 153.101C940.019 175.471 936.161 197.627 930.288 219.287C927.212 230.604 923.554 241.755 919.328 252.695C910.973 274.324 900.331 294.998 887.584 314.366C881.84 323.085 875.907 331.176 869.904 338.672C866.551 337.123 863.322 335.45 860.215 333.653C833.22 318.044 822.27 296.575 827.363 276.252C827.615 275.248 827.906 274.248 828.238 273.251L830.593 267.511L891.794 118.347C891.738 118.548 891.686 118.749 891.636 118.938C889.377 127.944 894.23 137.46 906.195 144.378C916.007 150.057 928.879 152.964 941.814 153.101Z"
          fill="#FFEFD4"
        />
        <path
          id="Vector_18"
          d="M869.896 338.68C858.786 352.544 846.576 365.49 833.386 377.394C813.875 362.323 804.937 344.056 806.571 326.058C807.431 316.586 811.217 307.187 817.931 298.372L828.23 273.277C827.897 274.274 827.605 275.274 827.355 276.278C822.264 296.601 833.212 318.07 860.207 333.679C863.31 335.462 866.54 337.129 869.896 338.68Z"
          fill="#EA4262"
        />
        <path
          id="Vector_19"
          d="M904.441 87.5087L904.2 88.0949"
          stroke="#10BF7C"
          stroke-miterlimit="10"
        />
        <path
          id="Vector_20"
          d="M979.388 144.382C969.635 150.021 956.866 152.926 944.011 153.099C943.459 145.901 943.101 138.443 942.981 130.72C943.119 124.496 943.095 118.857 942.981 113.856C952.919 113.828 962.845 111.634 970.384 107.275C973.482 105.485 975.947 103.461 977.778 101.305C981.29 97.1753 982.484 92.5478 981.366 88.0869L992.153 114.37L993.77 118.311C993.83 118.512 993.886 118.727 993.938 118.933C996.207 127.948 991.354 137.463 979.388 144.382Z"
          fill="url(#paint1_linear)"
        />
        <path
          id="Vector_21"
          d="M1025.37 333.661C1022.26 335.46 1019.02 337.133 1015.64 338.68C1009.75 331.304 1003.81 323.208 998 314.358C992.465 305.926 978.559 283.875 966.445 252.707C962.193 241.766 958.515 230.611 955.425 219.287C949.527 197.634 945.705 175.468 944.011 153.091C956.86 152.918 969.635 150.013 979.389 144.374C991.354 137.456 996.207 127.94 993.948 118.934C993.896 118.733 993.84 118.518 993.78 118.311L1055.13 267.784L1057.25 272.966C1057.62 274.058 1057.95 275.154 1058.22 276.254C1063.31 296.585 1052.36 318.054 1025.37 333.661Z"
          fill="url(#paint2_linear)"
        />
        <path
          id="Vector_22"
          d="M1052.19 377.388C1038.96 365.516 1026.74 352.572 1015.65 338.688C1019.02 337.138 1022.26 335.465 1025.38 333.669C1052.37 318.06 1063.32 296.591 1058.23 276.268C1057.95 275.168 1057.63 274.072 1057.26 272.98L1067.7 298.438C1074.37 307.231 1078.14 316.596 1079 326.036C1080.64 344.042 1071.71 362.313 1052.19 377.388Z"
          fill="url(#paint3_linear)"
        />
        <path
          id="Vector_23"
          d="M981.376 88.0949L981.135 87.5087"
          stroke="#10BF7C"
          stroke-miterlimit="10"
        />
        <path
          id="Vector_24"
          d="M1052.21 377.404L1052.19 377.388"
          stroke="#10BF7C"
          stroke-miterlimit="10"
        />
        <path
          id="Vector_25"
          d="M942.989 113.808C942.99 113.827 942.99 113.846 942.989 113.864"
          stroke="#10BF7C"
          stroke-miterlimit="10"
        />
        <path
          id="Vector_26"
          d="M833.386 377.386L833.368 377.404"
          stroke="#10BF7C"
          stroke-miterlimit="10"
        />
        <path
          id="Vector_27"
          d="M942.991 113.864C942.99 113.846 942.99 113.827 942.991 113.808"
          stroke="#10BF7C"
          stroke-miterlimit="10"
        />
        <path
          id="Vector_28"
          d="M963.467 10.3232L923.346 108.092L930.219 110.912L970.339 13.143L963.467 10.3232Z"
          fill="#634029"
        />
        <path
          id="Vector_29"
          d="M920.63 10.609L913.776 13.4744L954.628 111.175L961.482 108.309L920.63 10.609Z"
          fill="#634029"
        />
        <path
          id="Vector_30"
          d="M946.502 0H939.074V111.698H946.502V0Z"
          fill="#634029"
        />
        <path
          id="Vector_31"
          d="M1361.07 378.336L1361.13 376.663L1386.77 363.883L1385.43 361.187L1363.69 372.028L1368.79 363.855L1366.24 362.261L1361.33 370.125L1361.93 350.826L1358.92 350.729L1358.16 374.78L1355.78 375.969C1354.4 375.427 1353.37 375.076 1352.85 374.903C1335.08 368.88 1317.81 373.152 1311.09 376.308L1124.18 464.04L1287.96 538.194C1300.98 521.045 1376.43 421.366 1378.31 402.682C1378.49 400.578 1378.37 398.458 1377.95 396.388C1375.94 387.519 1367.65 381.684 1361.07 378.336Z"
          fill="#488E2E"
        />
        <path
          id="Vector_32"
          d="M1268.82 558.874C1264.74 562.008 1260.45 564.864 1255.99 567.422C1202.88 598.062 1115.96 598.062 1062.85 567.422C1058.38 564.864 1054.1 562.007 1050.02 558.872C1088.07 524.644 1117.51 481.923 1135.95 434.181C1151.62 432.629 1167.4 432.635 1183.07 434.201C1195.19 465.369 1209.09 487.42 1214.63 495.852C1229.9 519.109 1248.11 540.292 1268.82 558.874V558.874Z"
          fill="#5E401B"
        />
        <path
          id="Vector_33"
          d="M1268.37 559.219C1263.92 549.94 1258.67 540.083 1252.48 529.88C1243.25 514.698 1232.85 500.265 1221.36 486.717C1202.95 505.718 1181.51 521.526 1157.91 533.494C1113.9 555.778 1073.15 559.099 1050.48 559.219C1054.44 562.188 1058.57 564.927 1062.85 567.422C1115.96 598.062 1202.88 598.062 1255.99 567.422C1260.29 564.957 1264.42 562.217 1268.37 559.219V559.219Z"
          fill="#FFEFD4"
        />
        <path
          id="Vector_34"
          d="M1194.65 302.019H1124.18V464.032H1194.65V302.019Z"
          fill="#30200E"
        />
        <path
          id="Vector_35"
          d="M1187.03 288.769C1179.49 293.128 1169.56 295.322 1159.62 295.35C1149.55 295.38 1139.46 293.186 1131.82 288.769C1122.78 283.55 1119.13 276.375 1120.84 269.581C1122 264.945 1125.65 260.486 1131.82 256.949C1147 248.226 1171.85 248.226 1187.03 256.949C1193.19 260.486 1196.85 264.945 1198.01 269.581C1199.71 276.375 1196.05 283.552 1187.03 288.769Z"
          fill="#FFEFD4"
        />
        <path
          id="Vector_36"
          d="M1184.37 287.237C1177.55 291.176 1168.58 293.16 1159.6 293.184C1150.5 293.212 1141.38 291.229 1134.48 287.237C1126.32 282.524 1123.01 276.037 1124.55 269.898C1125.61 265.71 1128.91 261.681 1134.48 258.485C1148.19 250.603 1170.65 250.603 1184.37 258.485C1189.93 261.681 1193.24 265.712 1194.29 269.898C1195.83 276.043 1192.52 282.524 1184.37 287.237Z"
          fill="#5E401B"
        />
        <path
          id="Vector_37"
          d="M1184.37 287.237C1177.55 291.176 1168.58 293.16 1159.6 293.184C1150.5 293.212 1141.38 291.229 1134.48 287.237C1126.32 282.524 1123.01 276.037 1124.55 269.898C1125.61 265.71 1128.91 261.681 1134.48 258.485C1148.19 250.603 1170.65 250.603 1184.37 258.485C1189.93 261.681 1193.24 265.712 1194.29 269.898C1195.83 276.043 1192.52 282.524 1184.37 287.237Z"
          fill="url(#paint4_linear)"
        />
        <path
          id="Vector_38"
          d="M1047.22 449.007L1044.86 454.746C1045.51 452.781 1046.3 450.863 1047.22 449.007Z"
          stroke="#10BF7C"
          stroke-miterlimit="10"
        />
        <path
          id="Vector_39"
          d="M1273.89 454.459L1271.76 449.278C1272.58 450.96 1273.29 452.69 1273.89 454.459V454.459Z"
          stroke="#10BF7C"
          stroke-miterlimit="10"
        />
        <path
          id="Vector_40"
          d="M1110.06 295.84L1108.42 299.837C1108.82 298.449 1109.37 297.109 1110.06 295.84V295.84Z"
          stroke="#10BF7C"
          stroke-miterlimit="10"
        />
        <path
          id="Vector_41"
          d="M1210.41 299.805L1208.79 295.864C1209.47 297.117 1210.01 298.438 1210.41 299.805V299.805Z"
          stroke="#10BF7C"
          stroke-miterlimit="10"
        />
        <path
          id="Vector_42"
          d="M1159.42 252.573V254.715L1158.84 253.331L1158.53 252.579H1159.15L1159.42 252.573Z"
          stroke="#10BF7C"
          stroke-miterlimit="10"
        />
        <path
          id="Vector_43"
          d="M1159.61 312.206C1159.46 319.022 1159.11 326.522 1158.45 334.586C1145.51 334.45 1132.64 331.543 1122.82 325.867C1110.85 318.949 1106 309.433 1108.26 300.427C1108.31 300.227 1108.36 300.026 1108.42 299.837L1110.06 295.84L1120.83 269.581C1119.71 274.042 1120.91 278.669 1124.42 282.799C1126.25 284.957 1128.72 286.979 1131.81 288.769C1139.45 293.186 1149.55 295.38 1159.62 295.35C1159.51 300.355 1159.48 306 1159.61 312.206Z"
          fill="#00D3D3"
        />
        <path
          id="Vector_44"
          d="M1158.45 334.586C1156.65 356.956 1152.79 379.113 1146.92 400.773C1143.84 412.09 1140.19 423.241 1135.96 434.181C1127.6 455.809 1116.96 476.484 1104.22 495.852C1098.47 504.571 1092.54 512.661 1086.54 520.158C1083.18 518.609 1079.95 516.94 1076.85 515.149C1049.85 499.54 1038.9 478.071 1043.99 457.748C1044.25 456.744 1044.54 455.74 1044.87 454.737L1047.22 448.997L1108.43 299.833C1108.37 300.034 1108.32 300.235 1108.27 300.423C1106.01 309.429 1110.86 318.945 1122.83 325.864C1132.64 331.543 1145.51 334.45 1158.45 334.586Z"
          fill="#FFEFD4"
        />
        <path
          id="Vector_45"
          d="M1086.53 520.166C1075.42 534.03 1063.21 546.976 1050.02 558.88C1030.51 543.809 1021.57 525.542 1023.2 507.544C1024.06 498.072 1027.85 488.673 1034.56 479.857L1044.86 454.763C1044.53 455.761 1044.24 456.765 1043.99 457.774C1038.89 478.097 1049.84 499.566 1076.84 515.175C1079.94 516.95 1083.17 518.613 1086.53 520.166Z"
          fill="#EA4262"
        />
        <path
          id="Vector_46"
          d="M1121.07 268.995L1120.83 269.581"
          stroke="#10BF7C"
          stroke-miterlimit="10"
        />
        <path
          id="Vector_47"
          d="M1196.02 325.867C1186.27 331.507 1173.5 334.412 1160.64 334.584C1160.09 327.387 1159.73 319.929 1159.61 312.206C1159.75 305.982 1159.73 300.343 1159.61 295.342C1169.55 295.314 1179.48 293.12 1187.02 288.761C1190.11 286.97 1192.58 284.947 1194.41 282.791C1197.92 278.661 1199.12 274.034 1198 269.573L1208.78 295.856L1210.4 299.797C1210.46 299.998 1210.52 300.213 1210.57 300.419C1212.84 309.433 1207.99 318.949 1196.02 325.867Z"
          fill="url(#paint5_linear)"
        />
        <path
          id="Vector_48"
          d="M1242 515.147C1238.89 516.946 1235.65 518.619 1232.27 520.166C1226.38 512.79 1220.44 504.693 1214.63 495.844C1209.1 487.412 1195.19 465.361 1183.08 434.193C1178.82 423.252 1175.15 412.097 1172.06 400.773C1166.16 379.12 1162.34 356.954 1160.64 334.576C1173.49 334.404 1186.27 331.499 1196.02 325.86C1207.99 318.941 1212.84 309.425 1210.58 300.419C1210.53 300.219 1210.47 300.004 1210.41 299.797L1271.76 449.27L1273.88 454.451C1274.25 455.544 1274.58 456.64 1274.85 457.74C1279.94 478.071 1269 499.54 1242 515.147Z"
          fill="url(#paint6_linear)"
        />
        <path
          id="Vector_49"
          d="M1268.82 558.874C1255.6 547.002 1243.37 534.058 1232.28 520.174C1235.65 518.624 1238.89 516.951 1242.01 515.155C1269 499.546 1279.95 478.077 1274.86 457.754C1274.58 456.654 1274.26 455.558 1273.89 454.465L1284.33 479.924C1291 488.717 1294.77 498.082 1295.63 507.522C1297.27 525.528 1288.34 543.799 1268.82 558.874Z"
          fill="url(#paint7_linear)"
        />
        <path
          id="Vector_50"
          d="M1198.01 269.581L1197.77 268.995"
          stroke="#10BF7C"
          stroke-miterlimit="10"
        />
        <path
          id="Vector_51"
          d="M1268.84 558.89L1268.82 558.874"
          stroke="#10BF7C"
          stroke-miterlimit="10"
        />
        <path
          id="Vector_52"
          d="M1159.62 295.294C1159.62 295.313 1159.62 295.331 1159.62 295.35"
          stroke="#10BF7C"
          stroke-miterlimit="10"
        />
        <path
          id="Vector_53"
          d="M1050.02 558.872C1050.01 558.879 1050.01 558.885 1050 558.89"
          stroke="#10BF7C"
          stroke-miterlimit="10"
        />
        <path
          id="Vector_54"
          d="M1159.62 295.35C1159.62 295.331 1159.62 295.313 1159.62 295.294"
          stroke="#10BF7C"
          stroke-miterlimit="10"
        />
        <path
          id="Vector_55"
          d="M1146.83 292.387L1139.96 289.568L1180.08 191.799L1186.95 194.617L1162.59 253.986L1162.28 254.743L1146.83 292.387Z"
          fill="#634029"
        />
        <path
          id="Vector_56"
          d="M1137.26 192.104L1130.4 194.97L1171.26 292.67L1178.11 289.805L1137.26 192.104Z"
          fill="#634029"
        />
        <path
          id="Vector_57"
          d="M1163.13 181.486H1155.71V293.184H1163.13V181.486Z"
          fill="#634029"
        />
        <path
          id="Vector_58"
          d="M947.285 465.867L947.338 464.194L972.986 451.414L971.643 448.718L949.907 459.559L955.007 451.386L952.453 449.792L947.544 457.656L948.147 438.357L945.135 438.26L944.376 462.311L941.991 463.5C940.616 462.958 939.582 462.606 939.066 462.434C921.292 456.421 904.027 460.683 897.306 463.839L710.388 551.57L874.175 625.725C887.197 608.576 962.642 508.897 964.522 490.213C964.706 488.108 964.586 485.989 964.166 483.919C962.15 475.049 953.861 469.215 947.285 465.867Z"
          fill="#488E2E"
        />
        <path
          id="Vector_59"
          d="M855.033 646.405C850.953 649.539 846.666 652.394 842.202 654.953C789.088 685.593 702.175 685.593 649.061 654.953C644.597 652.394 640.31 649.538 636.23 646.403C674.281 612.175 703.721 569.454 722.159 521.712C737.83 520.159 753.615 520.166 769.284 521.732C781.399 552.9 795.304 574.951 800.839 583.383C816.11 606.64 834.326 627.823 855.033 646.405V646.405Z"
          fill="#5E401B"
        />
        <path
          id="Vector_60"
          d="M854.58 646.75C850.131 637.471 844.886 627.614 838.689 617.411C829.465 602.229 819.06 587.796 807.569 574.248C789.16 593.249 767.72 609.057 744.126 621.025C700.117 643.309 659.358 646.63 636.687 646.75C640.651 649.719 644.783 652.458 649.061 654.953C702.175 685.593 789.088 685.593 842.202 654.953C846.5 652.488 850.634 649.748 854.58 646.75Z"
          fill="#FFEFD4"
        />
        <path
          id="Vector_61"
          d="M780.867 389.55H710.396V551.562H780.867V389.55Z"
          fill="#30200E"
        />
        <path
          id="Vector_62"
          d="M773.238 376.3C765.699 380.659 755.771 382.853 745.834 382.881C735.762 382.911 725.671 380.717 718.03 376.3C709.005 371.08 705.345 363.905 707.047 357.112C708.212 352.476 711.866 348.017 718.03 344.48C733.212 335.757 758.059 335.757 773.242 344.48C779.399 348.017 783.059 352.476 784.224 357.112C785.922 363.905 782.262 371.082 773.238 376.3Z"
          fill="#FFEFD4"
        />
        <path
          id="Vector_63"
          d="M770.577 374.768C763.765 378.707 754.795 380.691 745.814 380.715C736.711 380.743 727.594 378.759 720.688 374.768C712.534 370.054 709.226 363.568 710.766 357.429C711.818 353.241 715.124 349.212 720.688 346.016C734.406 338.134 756.861 338.134 770.579 346.016C776.143 349.212 779.451 353.243 780.503 357.429C782.039 363.574 778.732 370.054 770.577 374.768Z"
          fill="#5E401B"
        />
        <path
          id="Vector_64"
          d="M770.577 374.768C763.765 378.707 754.795 380.691 745.814 380.715C736.711 380.743 727.594 378.759 720.688 374.768C712.534 370.054 709.226 363.568 710.766 357.429C711.818 353.241 715.124 349.212 720.688 346.016C734.406 338.134 756.861 338.134 770.579 346.016C776.143 349.212 779.451 353.243 780.503 357.429C782.039 363.574 778.732 370.054 770.577 374.768Z"
          fill="url(#paint8_linear)"
        />
        <path
          id="Vector_65"
          d="M633.431 536.538L631.076 542.277C631.727 540.312 632.514 538.394 633.431 536.538V536.538Z"
          stroke="#10BF7C"
          stroke-miterlimit="10"
        />
        <path
          id="Vector_66"
          d="M860.101 541.99L857.975 536.809C858.789 538.491 859.499 540.221 860.101 541.99V541.99Z"
          stroke="#10BF7C"
          stroke-miterlimit="10"
        />
        <path
          id="Vector_67"
          d="M696.272 383.371L694.632 387.368C695.032 385.98 695.582 384.64 696.272 383.371V383.371Z"
          stroke="#10BF7C"
          stroke-miterlimit="10"
        />
        <path
          id="Vector_68"
          d="M796.623 387.336L795.017 383.395C795.691 384.648 796.229 385.969 796.623 387.336V387.336Z"
          stroke="#10BF7C"
          stroke-miterlimit="10"
        />
        <path
          id="Vector_69"
          d="M745.631 340.103V342.245L745.053 340.862L744.738 340.109H745.364L745.631 340.103Z"
          stroke="#10BF7C"
          stroke-miterlimit="10"
        />
        <path
          id="Vector_70"
          d="M745.824 399.737C745.672 406.552 745.322 414.053 744.664 422.117C731.722 421.981 718.851 419.074 709.031 413.398C697.065 406.48 692.212 396.964 694.471 387.958C694.521 387.757 694.574 387.557 694.63 387.368L696.27 383.371L707.043 357.111C705.925 361.572 707.12 366.2 710.631 370.329C712.462 372.488 714.928 374.509 718.026 376.3C725.667 380.717 735.758 382.911 745.83 382.881C745.722 387.886 745.692 393.531 745.824 399.737Z"
          fill="#00D3D3"
        />
        <path
          id="Vector_71"
          d="M744.658 422.117C742.862 444.487 739.004 466.643 733.131 488.303C730.056 499.621 726.398 510.772 722.171 521.712C713.816 543.34 703.174 564.014 690.428 583.383C684.684 592.102 678.751 600.192 672.748 607.689C669.402 606.14 666.172 604.47 663.059 602.68C636.063 587.071 625.113 565.601 630.207 545.279C630.458 544.275 630.75 543.271 631.082 542.267L633.437 536.528L694.638 387.364C694.582 387.565 694.529 387.765 694.479 387.954C692.22 396.96 697.073 406.476 709.039 413.394C718.851 419.074 731.722 421.981 744.658 422.117Z"
          fill="#FFEFD4"
        />
        <path
          id="Vector_72"
          d="M672.74 607.697C661.629 621.561 649.419 634.507 636.23 646.411C616.719 631.34 607.78 613.073 609.415 595.075C610.274 585.603 614.061 576.204 620.774 567.388L631.074 542.293C630.741 543.292 630.449 544.296 630.199 545.305C625.107 565.628 636.055 587.097 663.051 602.706C666.153 604.482 669.383 606.146 672.74 607.697Z"
          fill="#EA4262"
        />
        <path
          id="Vector_73"
          d="M707.284 356.525L707.043 357.112"
          stroke="#10BF7C"
          stroke-miterlimit="10"
        />
        <path
          id="Vector_74"
          d="M782.232 413.398C772.478 419.038 759.709 421.943 746.854 422.115C746.302 414.918 745.945 407.46 745.824 399.737C745.963 393.513 745.939 387.874 745.834 382.873C755.772 382.845 765.698 380.651 773.237 376.292C776.335 374.501 778.801 372.478 780.632 370.322C784.143 366.192 785.338 361.564 784.22 357.104L795.007 383.387L796.613 387.328C796.673 387.529 796.73 387.743 796.782 387.95C799.05 396.964 794.198 406.48 782.232 413.398Z"
          fill="url(#paint9_linear)"
        />
        <path
          id="Vector_75"
          d="M828.212 602.678C825.1 604.476 821.859 606.149 818.487 607.697C812.59 600.321 806.652 592.224 800.843 583.375C795.308 574.943 781.403 552.891 769.288 521.724C765.036 510.783 761.358 499.627 758.268 488.303C752.37 466.65 748.548 444.485 746.854 422.107C759.703 421.935 772.478 419.03 782.232 413.39C794.198 406.472 799.05 396.956 796.792 387.95C796.74 387.749 796.683 387.535 796.623 387.328L857.968 536.801L860.095 541.982C860.465 543.074 860.789 544.171 861.064 545.271C866.156 565.602 855.208 587.071 828.212 602.678Z"
          fill="url(#paint10_linear)"
        />
        <path
          id="Vector_76"
          d="M855.033 646.405C841.808 634.533 829.586 621.589 818.493 607.705C821.86 606.155 825.102 604.482 828.218 602.686C855.214 587.077 866.164 565.608 861.071 545.285C860.796 544.185 860.473 543.088 860.101 541.996L870.541 567.455C877.215 576.248 880.981 585.613 881.84 595.053C883.485 613.059 874.556 631.33 855.033 646.405Z"
          fill="url(#paint11_linear)"
        />
        <path
          id="Vector_77"
          d="M784.22 357.112L783.979 356.525"
          stroke="#10BF7C"
          stroke-miterlimit="10"
        />
        <path
          id="Vector_78"
          d="M855.051 646.421L855.033 646.405"
          stroke="#10BF7C"
          stroke-miterlimit="10"
        />
        <path
          id="Vector_79"
          d="M745.832 382.825C745.833 382.843 745.833 382.862 745.832 382.881"
          stroke="#10BF7C"
          stroke-miterlimit="10"
        />
        <path
          id="Vector_80"
          d="M636.23 646.403L636.212 646.421"
          stroke="#10BF7C"
          stroke-miterlimit="10"
        />
        <path
          id="Vector_81"
          d="M745.834 382.881C745.833 382.862 745.833 382.843 745.834 382.825"
          stroke="#10BF7C"
          stroke-miterlimit="10"
        />
        <path
          id="Vector_82"
          d="M766.303 279.344L726.183 377.112L733.056 379.932L773.176 282.163L766.303 279.344Z"
          fill="#634029"
        />
        <path
          id="Vector_83"
          d="M723.461 279.624L716.608 282.49L757.459 380.19L764.313 377.325L723.461 279.624Z"
          fill="#634029"
        />
        <path
          id="Vector_84"
          d="M749.346 269.017H741.917V380.715H749.346V269.017Z"
          fill="#634029"
        />
        <path
          id="Vector_85"
          d="M1225.87 757.926C1216.47 778.456 1207.08 798.985 1197.68 819.515L1182.36 817.144C1180.01 822.263 1177.67 827.384 1175.33 832.506L1160 830.137L1152.97 845.499L1100.05 837.314L1078.82 849.655C1077.99 850.123 1076.64 850.283 1074.93 850.016C1073.22 849.732 1071.57 849.143 1070.06 848.278C1068.64 847.455 1067.52 846.453 1067.06 845.467C1066.57 844.415 1066.92 843.59 1067.86 843.132L1088.95 830.886L1074.78 800.357L1101.26 796.261L1097.13 787.363L1123.62 783.27L1119.5 774.372L1225.87 757.926Z"
          fill="#488E2E"
        />
        <path
          id="Vector_86"
          d="M1065.55 806.094V846.336C1065.43 847.573 1066.19 848.832 1067.82 849.771C1070.86 851.524 1075.85 851.524 1078.91 849.771C1080.44 848.894 1081.21 847.74 1081.21 846.583H1081.22V806.094H1065.55Z"
          fill="#56301D"
        />
        <path
          id="Vector_87"
          d="M1073.59 693.699L1018.38 789.06L1073.39 820.98L1128.6 789.06L1073.59 693.699Z"
          fill="#279D63"
        />
        <path
          id="Vector_88"
          d="M1073.39 694.047V820.98L1128.6 789.06L1073.59 693.699L1073.39 694.047Z"
          fill="#1E8153"
        />
        <path
          id="Vector_89"
          d="M1073.59 661.98L1018.38 757.34L1073.39 789.261L1128.6 757.34L1073.59 661.98Z"
          fill="#208A59"
        />
        <path
          id="Vector_90"
          d="M1073.39 662.327V789.261L1128.6 757.34L1073.59 661.98L1073.39 662.327Z"
          fill="#13633E"
        />
        <path
          id="Vector_91"
          d="M1073.59 630.26L1018.38 725.62L1073.39 757.541L1128.6 725.62L1073.59 630.26Z"
          fill="#1D8354"
        />
        <path
          id="Vector_92"
          d="M1073.39 630.607V757.541L1128.6 725.62L1073.59 630.26L1073.39 630.607Z"
          fill="#165133"
        />
        <path
          id="Vector_93"
          d="M1432.66 170.306C1423.27 190.835 1413.87 211.365 1404.48 231.894L1389.15 229.523C1386.81 234.643 1384.46 239.763 1382.12 244.885L1366.79 242.517L1359.77 257.879L1306.85 249.694L1285.61 262.034C1284.79 262.502 1283.43 262.663 1281.72 262.396C1280.01 262.111 1278.36 261.522 1276.86 260.657C1275.43 259.834 1274.31 258.832 1273.85 257.846C1273.36 256.794 1273.71 255.969 1274.66 255.512L1295.74 243.265L1281.57 212.736L1308.06 208.641L1303.92 199.743L1330.41 195.649L1326.29 186.752L1432.66 170.306Z"
          fill="#488E2E"
        />
        <path
          id="Vector_94"
          d="M1272.34 218.474V258.716C1272.23 259.952 1272.98 261.211 1274.61 262.151C1277.65 263.903 1282.64 263.903 1285.71 262.151C1287.24 261.273 1288 260.119 1288 258.963H1288.01V218.474H1272.34Z"
          fill="#56301D"
        />
        <path
          id="Vector_95"
          d="M1280.38 106.079L1225.17 201.439L1280.18 233.36L1335.39 201.439L1280.38 106.079Z"
          fill="#279D63"
        />
        <path
          id="Vector_96"
          d="M1280.18 106.426V233.36L1335.39 201.439L1280.38 106.079L1280.18 106.426Z"
          fill="#1E8153"
        />
        <path
          id="Vector_97"
          d="M1280.38 74.359L1225.17 169.719L1280.18 201.64L1335.39 169.719L1280.38 74.359Z"
          fill="#208A59"
        />
        <path
          id="Vector_98"
          d="M1280.18 74.7063V201.64L1335.39 169.719L1280.38 74.359L1280.18 74.7063Z"
          fill="#13633E"
        />
        <path
          id="Vector_99"
          d="M1280.38 42.6392L1225.17 138L1280.18 169.92L1335.39 138L1280.38 42.6392Z"
          fill="#1D8354"
        />
        <path
          id="Vector_100"
          d="M1280.18 42.9865V169.92L1335.39 138L1280.38 42.6392L1280.18 42.9865Z"
          fill="#165133"
        />
        <path
          id="Vector_101"
          d="M688.006 136.98C678.607 157.509 669.211 178.039 659.818 198.568L644.491 196.197C642.148 201.317 639.805 206.437 637.464 211.559L622.135 209.19L615.108 224.553L562.189 216.368L540.952 228.708C540.129 229.176 538.772 229.337 537.067 229.07C535.353 228.785 533.704 228.196 532.198 227.331C530.773 226.508 529.657 225.506 529.197 224.52C528.703 223.468 529.054 222.643 530 222.186L551.081 209.939L536.91 179.41L563.398 175.314L559.266 166.417L585.754 162.323L581.632 153.426L688.006 136.98Z"
          fill="#488E2E"
        />
        <path
          id="Vector_102"
          d="M527.685 185.148V225.39C527.569 226.626 528.324 227.885 529.952 228.825C532.991 230.577 537.983 230.577 541.048 228.825C542.578 227.947 543.345 226.793 543.345 225.637V185.148H527.685Z"
          fill="#56301D"
        />
        <path
          id="Vector_103"
          d="M535.726 72.7529L480.514 168.113L535.525 200.034L590.737 168.113L535.726 72.7529Z"
          fill="#279D63"
        />
        <path
          id="Vector_104"
          d="M535.525 73.1002V200.034L590.737 168.113L535.726 72.7529L535.525 73.1002Z"
          fill="#1E8153"
        />
        <path
          id="Vector_105"
          d="M535.726 41.0331L480.514 136.393L535.525 168.314L590.737 136.393L535.726 41.0331Z"
          fill="#208A59"
        />
        <path
          id="Vector_106"
          d="M535.525 41.3804V168.314L590.737 136.393L535.726 41.0331L535.525 41.3804Z"
          fill="#13633E"
        />
        <path
          id="Vector_107"
          d="M535.726 9.31323L480.514 104.674L535.525 136.594L590.737 104.674L535.726 9.31323Z"
          fill="#1D8354"
        />
        <path
          id="Vector_108"
          d="M535.525 9.66054V136.594L590.737 104.674L535.726 9.31323L535.525 9.66054Z"
          fill="#165133"
        />
        <path
          id="Vector_109"
          d="M571.158 232.541C561.759 253.07 552.363 273.6 542.97 294.13L527.643 291.759C525.299 296.878 522.957 301.999 520.616 307.121L505.287 304.752L498.26 320.114L445.341 311.929L424.104 324.269C423.28 324.737 421.923 324.898 420.219 324.631C418.505 324.346 416.856 323.758 415.35 322.892C413.924 322.069 412.808 321.067 412.348 320.082C411.855 319.03 412.206 318.204 413.152 317.747L434.232 305.5L420.062 274.971L446.55 270.876L442.418 261.978L468.905 257.885L464.784 248.987L571.158 232.541Z"
          fill="#488E2E"
        />
        <path
          id="Vector_110"
          d="M410.837 280.709V320.951C410.72 322.188 411.475 323.446 413.103 324.386C416.143 326.139 421.134 326.139 424.2 324.386C425.73 323.509 426.497 322.354 426.497 321.198V280.709H410.837Z"
          fill="#56301D"
        />
        <path
          id="Vector_111"
          d="M418.877 168.314L363.666 263.674L418.677 295.595L473.888 263.674L418.877 168.314Z"
          fill="#279D63"
        />
        <path
          id="Vector_112"
          d="M418.677 168.661V295.595L473.889 263.674L418.878 168.314L418.677 168.661Z"
          fill="#1E8153"
        />
        <path
          id="Vector_113"
          d="M418.877 136.594L363.666 231.955L418.677 263.875L473.888 231.955L418.877 136.594Z"
          fill="#208A59"
        />
        <path
          id="Vector_114"
          d="M418.677 136.942V263.875L473.889 231.955L418.878 136.594L418.677 136.942Z"
          fill="#13633E"
        />
        <path
          id="Vector_115"
          d="M418.877 104.874L363.666 200.235L418.677 232.155L473.888 200.235L418.877 104.874Z"
          fill="#1D8354"
        />
        <path
          id="Vector_116"
          d="M418.677 105.222V232.155L473.889 200.235L418.878 104.874L418.677 105.222Z"
          fill="#165133"
        />
        <path
          id="Vector_117"
          d="M1598.1 581.459C1588.7 601.989 1579.31 622.519 1569.91 643.048L1554.58 640.677C1552.24 645.796 1549.9 650.917 1547.56 656.039L1532.23 653.67L1525.2 669.032L1472.28 660.847L1451.04 673.188C1450.22 673.656 1448.86 673.816 1447.16 673.549C1445.45 673.265 1443.8 672.676 1442.29 671.811C1440.87 670.988 1439.75 669.986 1439.29 669C1438.8 667.948 1439.15 667.123 1440.09 666.665L1461.17 654.419L1447 623.89L1473.49 619.794L1469.36 610.897L1495.85 606.803L1491.72 597.906L1598.1 581.459Z"
          fill="#488E2E"
        />
        <path
          id="Vector_118"
          d="M1437.78 629.627V669.87C1437.66 671.106 1438.42 672.365 1440.04 673.305C1443.08 675.057 1448.08 675.057 1451.14 673.305C1452.67 672.427 1453.44 671.273 1453.44 670.117H1453.45V629.627H1437.78Z"
          fill="#56301D"
        />
        <path
          id="Vector_119"
          d="M1445.82 517.233L1390.61 612.593L1445.62 644.514L1500.83 612.593L1445.82 517.233Z"
          fill="#279D63"
        />
        <path
          id="Vector_120"
          d="M1445.62 517.58V644.514L1500.83 612.593L1445.82 517.233L1445.62 517.58Z"
          fill="#1E8153"
        />
        <path
          id="Vector_121"
          d="M1445.82 485.513L1390.61 580.873L1445.62 612.794L1500.83 580.873L1445.82 485.513Z"
          fill="#208A59"
        />
        <path
          id="Vector_122"
          d="M1445.62 485.86V612.794L1500.83 580.873L1445.82 485.513L1445.62 485.86Z"
          fill="#13633E"
        />
        <path
          id="Vector_123"
          d="M1445.82 453.793L1390.61 549.153L1445.62 581.074L1500.83 549.153L1445.82 453.793Z"
          fill="#1D8354"
        />
        <path
          id="Vector_124"
          d="M1445.62 454.14V581.074L1500.83 549.153L1445.82 453.793L1445.62 454.14Z"
          fill="#165133"
        />
        <path
          id="Vector_125"
          d="M1549.51 661.763C1540.12 682.293 1530.72 702.822 1521.32 723.352L1506 720.981C1503.65 726.1 1501.31 731.221 1498.97 736.343L1483.64 733.974L1476.61 749.336L1423.7 741.151L1402.46 753.492C1401.64 753.959 1400.28 754.12 1398.57 753.853C1396.86 753.569 1395.21 752.98 1393.7 752.114C1392.28 751.291 1391.16 750.29 1390.7 749.304C1390.21 748.252 1390.56 747.427 1391.51 746.969L1412.59 734.723L1398.42 704.193L1424.9 700.098L1420.77 691.2L1447.26 687.107L1443.14 678.209L1549.51 661.763Z"
          fill="#488E2E"
        />
        <path
          id="Vector_126"
          d="M1389.19 709.931V750.173C1389.07 751.41 1389.83 752.668 1391.46 753.608C1394.5 755.361 1399.49 755.361 1402.55 753.608C1404.08 752.731 1404.85 751.576 1404.85 750.42H1404.86V709.931H1389.19Z"
          fill="#56301D"
        />
        <path
          id="Vector_127"
          d="M1397.23 597.536L1342.02 692.897L1397.03 724.817L1452.24 692.897L1397.23 597.536Z"
          fill="#279D63"
        />
        <path
          id="Vector_128"
          d="M1397.03 597.883V724.817L1452.24 692.897L1397.23 597.536L1397.03 597.883Z"
          fill="#1E8153"
        />
        <path
          id="Vector_129"
          d="M1397.23 565.816L1342.02 661.177L1397.03 693.097L1452.24 661.177L1397.23 565.816Z"
          fill="#208A59"
        />
        <path
          id="Vector_130"
          d="M1397.03 566.164V693.097L1452.24 661.177L1397.23 565.816L1397.03 566.164Z"
          fill="#13633E"
        />
        <path
          id="Vector_131"
          d="M1397.23 534.096L1342.02 629.457L1397.03 661.378L1452.24 629.457L1397.23 534.096Z"
          fill="#1D8354"
        />
        <path
          id="Vector_132"
          d="M1397.03 534.444V661.378L1452.24 629.457L1397.23 534.096L1397.03 534.444Z"
          fill="#165133"
        />
      </g>
    </g>
    <defs>
      <linearGradient
        id="paint0_linear"
        x1="942.788"
        y1="124.924"
        x2="942.788"
        y2="54.7047"
        gradientUnits="userSpaceOnUse"
      >
        <stop stop-color="#5E401B" />
        <stop offset="1" stop-color="#FFEFD4" />
      </linearGradient>
      <linearGradient
        id="paint1_linear"
        x1="994.486"
        y1="120.598"
        x2="942.981"
        y2="120.598"
        gradientUnits="userSpaceOnUse"
      >
        <stop stop-color="#007793" />
        <stop offset="1" stop-color="#00D3D3" />
      </linearGradient>
      <linearGradient
        id="paint2_linear"
        x1="1059.43"
        y1="228.504"
        x2="944.011"
        y2="228.504"
        gradientUnits="userSpaceOnUse"
      >
        <stop stop-color="#C4B494" />
        <stop offset="1" stop-color="#FFEFD4" />
      </linearGradient>
      <linearGradient
        id="paint3_linear"
        x1="1079.19"
        y1="325.181"
        x2="1015.64"
        y2="325.181"
        gradientUnits="userSpaceOnUse"
      >
        <stop stop-color="#9C4262" />
        <stop offset="1" stop-color="#EA4262" />
      </linearGradient>
      <linearGradient
        id="paint4_linear"
        x1="408078"
        y1="62235.1"
        x2="408078"
        y2="48030.7"
        gradientUnits="userSpaceOnUse"
      >
        <stop stop-color="#5E401B" />
        <stop offset="1" stop-color="#FFEFD4" />
      </linearGradient>
      <linearGradient
        id="paint5_linear"
        x1="311823"
        y1="98093.2"
        x2="298612"
        y2="98093.2"
        gradientUnits="userSpaceOnUse"
      >
        <stop stop-color="#007793" />
        <stop offset="1" stop-color="#00D3D3" />
      </linearGradient>
      <linearGradient
        id="paint6_linear"
        x1="734767"
        y1="450337"
        x2="668410"
        y2="450337"
        gradientUnits="userSpaceOnUse"
      >
        <stop stop-color="#C4B494" />
        <stop offset="1" stop-color="#FFEFD4" />
      </linearGradient>
      <linearGradient
        id="paint7_linear"
        x1="411330"
        y1="263957"
        x2="391218"
        y2="263957"
        gradientUnits="userSpaceOnUse"
      >
        <stop stop-color="#9C4262" />
        <stop offset="1" stop-color="#EA4262" />
      </linearGradient>
      <linearGradient
        id="paint8_linear"
        x1="262425"
        y1="80028.8"
        x2="262425"
        y2="65824.4"
        gradientUnits="userSpaceOnUse"
      >
        <stop stop-color="#5E401B" />
        <stop offset="1" stop-color="#FFEFD4" />
      </linearGradient>
      <linearGradient
        id="paint9_linear"
        x1="205269"
        y1="126526"
        x2="192057"
        y2="126526"
        gradientUnits="userSpaceOnUse"
      >
        <stop stop-color="#007793" />
        <stop offset="1" stop-color="#00D3D3" />
      </linearGradient>
      <linearGradient
        id="paint10_linear"
        x1="496467"
        y1="546505"
        x2="430111"
        y2="546505"
        gradientUnits="userSpaceOnUse"
      >
        <stop stop-color="#C4B494" />
        <stop offset="1" stop-color="#FFEFD4" />
      </linearGradient>
      <linearGradient
        id="paint11_linear"
        x1="279963"
        y1="309566"
        x2="259851"
        y2="309566"
        gradientUnits="userSpaceOnUse"
      >
        <stop stop-color="#9C4262" />
        <stop offset="1" stop-color="#EA4262" />
      </linearGradient>
    </defs>
  </svg>