<?xml version="1.0" encoding="utf-8"?>
<!-- Generator: Adobe Illustrator 23.0.6, SVG Export Plug-In . SVG Version: 6.00 Build 0)  -->
<svg version="1.1" id="Calque_1" xmlns="http://www.w3.org/2000/svg" xmlns:xlink="http://www.w3.org/1999/xlink" x="0px" y="0px"
	 viewBox="0 0 850 693" style="enable-background:new 0 0 850 693;" xml:space="preserve">
<style type="text/css">
	.st0{clip-path:url(#SVGID_2_);}
	.st1{fill:url(#SVGID_3_);}
	.st2{fill:#F4DCAB;}
	.st3{fill:#E8C391;}
	.st4{fill:#D8B782;}
	.st5{fill:#E8D4B1;}
	.st6{fill:none;}
	.st7{fill:#CCA46A;}
	.st8{fill:url(#SVGID_4_);}
	.st9{fill:url(#SVGID_5_);}
	.st10{fill:url(#SVGID_6_);}
	.st11{opacity:0.6;fill:url(#SVGID_7_);enable-background:new    ;}
	.st12{fill:url(#SVGID_8_);}
	.st13{clip-path:url(#SVGID_10_);}
	.st14{fill:url(#SVGID_11_);}
	.st15{opacity:0.6;fill:url(#SVGID_12_);enable-background:new    ;}
	.st16{opacity:0.3;fill:url(#SVGID_13_);enable-background:new    ;}
	.st17{opacity:0.6;fill:url(#SVGID_14_);enable-background:new    ;}
	.st18{fill:url(#SVGID_15_);}
	.st19{fill:#DBF8F7;}
	.st20{fill:#C3DDDB;}
	.st21{fill:url(#SVGID_16_);}
	.st22{fill:url(#SVGID_17_);}
</style>
<title>jumbotron_background_pyramids_smallFichier 3</title>
<g>
	<g id="Calque_1-2">
		<g>
			<defs>
				<rect id="SVGID_1_" width="850" height="693"/>
			</defs>
			<clipPath id="SVGID_2_">
				<use xlink:href="#SVGID_1_"  style="overflow:visible;"/>
			</clipPath>
			<g class="st0">
				
					<linearGradient id="SVGID_3_" gradientUnits="userSpaceOnUse" x1="-33.1425" y1="312.111" x2="869.2237" y2="312.111" gradientTransform="matrix(1 0 0 -1 0 655.8)">
					<stop  offset="0" style="stop-color:#2F8BD0"/>
					<stop  offset="1" style="stop-color:#17BCBF"/>
				</linearGradient>
				<path class="st1" d="M219,143c-31.9,21.1-43.4,11.2-72,29c-38,23.6-28.4,48.3-69,91c-41.4,43.6-65.1,32.4-90,70
					c-22.5,33.9-26.8,80.5-14,118c9.2,26.8,26.4,46.3,98,96c81.2,56.3,121.7,84.5,151,94c94.3,30.7,113.4-20.5,259-12
					c113.3,6.6,140.8,39.8,213,16c65.8-21.7,103.8-69.4,116-85c12.6-16.2,76.7-102.6,53-192c-5.8-21.7-9.4-16-79-123
					c-47.5-73-47.4-78.1-64-92c-36.7-30.7-53-19-136-57c-58.8-26.9-59-36.6-101-49c-27.3-8-64-18.4-110-10
					c-12.1,2.2-57.5,11.7-98,47C246.7,109.5,248.9,123.3,219,143z"/>
				<path class="st2" d="M687,388c-112-3.4-117.9,17.5-247,23c-224.8,9.7-298.5-49.7-436,2c-12.6,4.7-24.4,9.9-35.5,15.4
					c1.2,7.7,3,15.3,5.5,22.6c9.2,26.8,26.4,46.3,98,96c81.2,56.3,121.7,84.5,151,94c94.3,30.7,113.4-20.5,259-12
					c113.3,6.6,140.8,39.8,213,16c65.8-21.7,103.8-69.4,116-85c10.5-13.5,56.7-75.7,58.2-147.8C809.4,398,748.4,389.9,687,388z"/>
				<polygon class="st3" points="655.3,578.3 568.2,540.4 616.5,521.5 				"/>
				<polygon class="st3" points="573.8,531.7 430.7,469.4 510,438.3 				"/>
				<polygon class="st4" points="474.4,473.2 574,372.3 574,530.7 				"/>
				<polygon class="st5" points="673.6,473.2 574,372.3 574,530.7 				"/>
				<polygon class="st6" points="642.7,442.9 638.7,438.8 573.8,476.3 573.7,476.2 508.9,438.8 504.8,442.9 573.8,482.7 				"/>
				<polygon class="st6" points="625.4,425.3 621.4,421.2 573.8,448.7 573.7,448.7 526.2,421.2 522.2,425.3 573.8,455.1 				"/>
				<polygon class="st6" points="638.4,438.5 634.4,434.4 573.8,469.4 573.7,469.3 513.2,434.4 509.2,438.5 573.8,475.8 				"/>
				<polygon class="st6" points="647,447.2 643,443.2 573.8,483.2 573.7,483.1 504.5,443.2 500.5,447.2 573.8,489.6 				"/>
				<polygon class="st6" points="629.7,429.7 625.7,425.6 573.8,455.6 573.7,455.6 521.8,425.6 517.8,429.7 573.8,462 				"/>
				<polygon class="st6" points="634,434.1 630,430 573.8,462.5 573.7,462.4 517.5,430 513.5,434.1 573.8,468.9 				"/>
				<polygon class="st6" points="651.4,451.6 647.3,447.6 573.8,490.1 573.7,490 500.2,447.6 496.2,451.6 573.8,496.4 				"/>
				<polygon class="st6" points="655.7,456 651.7,451.9 573.8,496.9 573.7,496.9 495.9,451.9 491.8,456 573.8,503.3 				"/>
				<polygon class="st6" points="668.7,469.2 664.7,465.1 573.8,517.6 573.7,517.5 482.9,465.1 478.9,469.2 573.8,524 				"/>
				<polygon class="st6" points="573.7,524.4 478.5,469.5 474.5,473.6 573.8,530.9 673,473.6 669,469.5 573.8,524.5 				"/>
				<polygon class="st6" points="664.4,464.8 660.3,460.7 573.8,510.7 573.7,510.7 487.2,460.7 483.2,464.8 573.8,517.1 				"/>
				<polygon class="st6" points="660,460.4 656,456.3 573.8,503.8 573.7,503.8 491.5,456.3 487.5,460.4 573.8,510.2 				"/>
				<polygon class="st6" points="616.7,416.5 612.7,412.5 573.8,435 573.7,434.9 534.8,412.5 530.8,416.5 573.8,441.3 				"/>
				<polygon class="st6" points="582.1,381.4 578.1,377.4 573.8,379.9 573.7,379.8 569.5,377.4 565.5,381.4 573.8,386.3 				"/>
				<polygon class="st6" points="595.1,394.6 591.1,390.5 573.8,400.5 573.7,400.5 556.5,390.5 552.5,394.6 573.8,406.9 				"/>
				<polygon class="st6" points="590.8,390.2 586.7,386.1 573.8,393.6 573.7,393.6 560.8,386.1 556.8,390.2 573.8,400 				"/>
				<polygon class="st6" points="586.4,385.8 582.4,381.8 573.8,386.8 573.7,386.7 565.1,381.8 561.1,385.8 573.8,393.1 				"/>
				<polygon class="st6" points="577.8,377.1 573.8,373 569.8,377.1 573.8,379.4 				"/>
				<polygon class="st6" points="603.7,403.4 599.7,399.3 573.8,414.3 573.7,414.2 547.8,399.3 543.8,403.4 573.8,420.7 				"/>
				<polygon class="st6" points="612.4,412.2 608.4,408.1 573.8,428.1 573.7,428 539.2,408.1 535.1,412.2 573.8,434.5 				"/>
				<polygon class="st6" points="599.4,399 595.4,394.9 573.8,407.4 573.7,407.3 552.2,394.9 548.1,399 573.8,413.8 				"/>
				<polygon class="st6" points="608.1,407.8 604,403.7 573.8,421.2 573.7,421.1 543.5,403.7 539.5,407.8 573.8,427.6 				"/>
				<polygon class="st6" points="621.1,420.9 617,416.9 573.8,441.8 573.7,441.8 530.5,416.9 526.5,420.9 573.8,448.2 				"/>
				<polygon class="st7" points="573.8,524 478.9,469.2 478.5,469.5 573.7,524.4 573.8,524.5 669,469.5 668.7,469.2 				"/>
				<polygon class="st7" points="573.8,517.6 664.7,465.1 664.4,464.8 573.8,517.1 483.2,464.8 482.9,465.1 573.7,517.5 				"/>
				<polygon class="st7" points="573.8,510.7 660.3,460.7 660,460.4 573.8,510.2 487.5,460.4 487.2,460.7 573.7,510.7 				"/>
				<polygon class="st7" points="573.8,503.8 656,456.3 655.7,456 573.8,503.3 491.8,456 491.5,456.3 573.7,503.8 				"/>
				<polygon class="st7" points="573.8,496.9 651.7,451.9 651.4,451.6 573.8,496.4 496.2,451.6 495.9,451.9 573.7,496.9 				"/>
				<polygon class="st7" points="573.8,490.1 647.3,447.6 647,447.2 573.8,489.6 500.5,447.2 500.2,447.6 573.7,490 				"/>
				<polygon class="st7" points="573.8,483.2 643,443.2 642.7,442.9 573.8,482.7 504.8,442.9 504.5,443.2 573.7,483.1 				"/>
				<polygon class="st7" points="573.8,476.3 638.7,438.8 638.4,438.5 573.8,475.8 509.2,438.5 508.9,438.8 573.7,476.2 				"/>
				<polygon class="st7" points="573.8,469.4 634.4,434.4 634,434.1 573.8,468.9 513.5,434.1 513.2,434.4 573.7,469.3 				"/>
				<polygon class="st7" points="573.8,462.5 630,430 629.7,429.7 573.8,462 517.8,429.7 517.5,430 573.7,462.4 				"/>
				<polygon class="st7" points="573.8,455.6 625.7,425.6 625.4,425.3 573.8,455.1 522.2,425.3 521.8,425.6 573.7,455.6 				"/>
				<polygon class="st7" points="573.8,448.7 621.4,421.2 621.1,420.9 573.8,448.2 526.5,420.9 526.2,421.2 573.7,448.7 				"/>
				<polygon class="st7" points="573.8,441.8 617,416.9 616.7,416.5 573.8,441.3 530.8,416.5 530.5,416.9 573.7,441.8 				"/>
				<polygon class="st7" points="573.8,435 612.7,412.5 612.4,412.2 573.8,434.5 535.1,412.2 534.8,412.5 573.7,434.9 				"/>
				<polygon class="st7" points="573.8,428.1 608.4,408.1 608.1,407.8 573.8,427.6 539.5,407.8 539.2,408.1 573.7,428 				"/>
				<polygon class="st7" points="573.8,421.2 604,403.7 603.7,403.4 573.8,420.7 543.8,403.4 543.5,403.7 573.7,421.1 				"/>
				<polygon class="st7" points="573.8,414.3 599.7,399.3 599.4,399 573.8,413.8 548.1,399 547.8,399.3 573.7,414.2 				"/>
				<polygon class="st7" points="573.8,407.4 595.4,394.9 595.1,394.6 573.8,406.9 552.5,394.6 552.2,394.9 573.7,407.3 				"/>
				<polygon class="st7" points="573.8,400.5 591.1,390.5 590.8,390.2 573.8,400 556.8,390.2 556.5,390.5 573.7,400.5 				"/>
				<polygon class="st7" points="573.8,393.6 586.7,386.1 586.4,385.8 573.8,393.1 561.1,385.8 560.8,386.1 573.7,393.6 				"/>
				<polygon class="st7" points="573.8,386.8 582.4,381.8 582.1,381.4 573.8,386.3 565.5,381.4 565.1,381.8 573.7,386.7 				"/>
				<polygon class="st7" points="573.8,379.9 578.1,377.4 577.8,377.1 573.8,379.4 569.8,377.1 569.5,377.4 573.7,379.8 				"/>
				<polygon class="st3" points="350.6,632.7 129.2,536.3 252.1,488.2 				"/>
				<polygon class="st4" points="196.9,542.1 351,386 351,631.2 				"/>
				<polygon class="st5" points="505.1,542.1 351,386 351,631.2 				"/>
				<polygon class="st6" points="457.4,495.2 451.1,488.9 350.7,546.9 350.5,546.8 250.2,488.9 244,495.2 350.7,556.8 				"/>
				<polygon class="st6" points="430.5,468 424.3,461.8 350.7,504.3 350.5,504.2 277,461.8 270.8,468 350.7,514.2 				"/>
				<polygon class="st6" points="450.7,488.4 444.4,482.1 350.7,536.3 350.5,536.2 256.9,482.1 250.7,488.4 350.7,546.2 				"/>
				<polygon class="st6" points="464.1,502 457.8,495.7 350.7,557.6 350.5,557.5 243.5,495.7 237.3,502 350.7,567.5 				"/>
				<polygon class="st6" points="437.3,474.8 431,468.5 350.7,515 350.5,514.9 270.3,468.5 264.1,474.8 350.7,524.8 				"/>
				<polygon class="st6" points="444,481.6 437.7,475.3 350.7,525.6 350.5,525.5 263.6,475.3 257.4,481.6 350.7,535.5 				"/>
				<polygon class="st6" points="470.8,508.8 464.5,502.5 350.7,568.3 350.5,568.2 236.8,502.5 230.6,508.8 350.7,578.1 				"/>
				<polygon class="st6" points="477.5,515.6 471.3,509.3 350.7,578.9 350.5,578.8 230.1,509.3 223.9,515.6 350.7,588.8 				"/>
				<polygon class="st6" points="497.6,535.9 491.3,529.6 350.7,610.9 350.5,610.8 210,529.6 203.8,535.9 350.7,620.8 				"/>
				<polygon class="st6" points="350.5,621.5 203.3,536.4 197.1,542.7 350.7,631.4 504.3,542.7 498,536.4 350.7,621.5 				"/>
				<polygon class="st6" points="490.9,529.2 484.6,522.8 350.7,600.2 350.5,600.1 216.7,522.8 210.5,529.2 350.7,610.1 				"/>
				<polygon class="st6" points="484.2,522.4 478,516.1 350.7,589.6 350.5,589.5 223.4,516.1 217.2,522.4 350.7,599.5 				"/>
				<polygon class="st6" points="417.2,454.5 410.9,448.2 350.7,483 350.5,482.9 290.4,448.2 284.2,454.5 350.7,492.9 				"/>
				<polygon class="st6" points="363.5,400.2 357.3,393.9 350.7,397.7 350.5,397.6 344,393.9 337.8,400.2 350.7,407.6 				"/>
				<polygon class="st6" points="383.6,420.5 377.4,414.2 350.7,429.7 350.5,429.6 323.9,414.2 317.7,420.5 350.7,439.6 				"/>
				<polygon class="st6" points="376.9,413.7 370.7,407.4 350.7,419 350.5,418.9 330.6,407.4 324.4,413.7 350.7,428.9 				"/>
				<polygon class="st6" points="370.2,407 364,400.7 350.7,408.4 350.5,408.3 337.3,400.7 331.1,407 350.7,418.3 				"/>
				<polygon class="st6" points="356.8,393.4 350.7,387.1 344.5,393.4 350.7,396.9 				"/>
				<polygon class="st6" points="397,434.1 390.8,427.8 350.7,451 350.5,450.9 310.5,427.8 304.3,434.1 350.7,460.9 				"/>
				<polygon class="st6" points="410.5,447.7 404.2,441.4 350.7,472.3 350.5,472.2 297.1,441.4 290.9,447.7 350.7,482.2 				"/>
				<polygon class="st6" points="390.3,427.3 384.1,421 350.7,440.3 350.5,440.3 317.2,421 311,427.3 350.7,450.2 				"/>
				<polygon class="st6" points="403.8,440.9 397.5,434.6 350.7,461.7 350.5,461.6 303.8,434.6 297.6,440.9 350.7,471.5 				"/>
				<polygon class="st6" points="423.8,461.3 417.6,455 350.7,493.6 350.5,493.5 283.7,455 277.5,461.3 350.7,503.5 				"/>
				<polygon class="st7" points="350.7,620.8 203.8,535.9 203.3,536.4 350.5,621.5 350.7,621.5 498,536.4 497.6,535.9 				"/>
				<polygon class="st7" points="350.7,610.9 491.3,529.6 490.9,529.2 350.7,610.1 210.5,529.2 210,529.6 350.5,610.8 				"/>
				<polygon class="st7" points="350.7,600.2 484.6,522.8 484.2,522.4 350.7,599.5 217.2,522.4 216.7,522.8 350.5,600.1 				"/>
				<polygon class="st7" points="350.7,589.6 478,516.1 477.5,515.6 350.7,588.8 223.9,515.6 223.4,516.1 350.5,589.5 				"/>
				<polygon class="st7" points="350.7,578.9 471.3,509.3 470.8,508.8 350.7,578.1 230.6,508.8 230.1,509.3 350.5,578.8 				"/>
				<polygon class="st7" points="350.7,568.3 464.5,502.5 464.1,502 350.7,567.5 237.3,502 236.8,502.5 350.5,568.2 				"/>
				<polygon class="st7" points="350.7,557.6 457.8,495.7 457.4,495.2 350.7,556.8 244,495.2 243.5,495.7 350.5,557.5 				"/>
				<polygon class="st7" points="350.7,546.9 451.1,488.9 450.7,488.4 350.7,546.2 250.7,488.4 250.2,488.9 350.5,546.8 				"/>
				<polygon class="st7" points="350.7,536.3 444.4,482.1 444,481.6 350.7,535.5 257.4,481.6 256.9,482.1 350.5,536.2 				"/>
				<polygon class="st7" points="350.7,525.6 437.7,475.3 437.3,474.8 350.7,524.8 264.1,474.8 263.6,475.3 350.5,525.5 				"/>
				<polygon class="st7" points="350.7,515 431,468.5 430.5,468 350.7,514.2 270.8,468 270.3,468.5 350.5,514.9 				"/>
				<polygon class="st7" points="350.7,504.3 424.3,461.8 423.8,461.3 350.7,503.5 277.5,461.3 277,461.8 350.5,504.2 				"/>
				<polygon class="st7" points="350.7,493.6 417.6,455 417.2,454.5 350.7,492.9 284.2,454.5 283.7,455 350.5,493.5 				"/>
				<polygon class="st7" points="350.7,483 410.9,448.2 410.5,447.7 350.7,482.2 290.9,447.7 290.4,448.2 350.5,482.9 				"/>
				<polygon class="st7" points="350.7,472.3 404.2,441.4 403.8,440.9 350.7,471.5 297.6,440.9 297.1,441.4 350.5,472.2 				"/>
				<polygon class="st7" points="350.7,461.7 397.5,434.6 397,434.1 350.7,460.9 304.3,434.1 303.8,434.6 350.5,461.6 				"/>
				<polygon class="st7" points="350.7,451 390.8,427.8 390.3,427.3 350.7,450.2 311,427.3 310.5,427.8 350.5,450.9 				"/>
				<polygon class="st7" points="350.7,440.3 384.1,421 383.6,420.5 350.7,439.6 317.7,420.5 317.2,421 350.5,440.3 				"/>
				<polygon class="st7" points="350.7,429.7 377.4,414.2 376.9,413.7 350.7,428.9 324.4,413.7 323.9,414.2 350.5,429.6 				"/>
				<polygon class="st7" points="350.7,419 370.7,407.4 370.2,407 350.7,418.3 331.1,407 330.6,407.4 350.5,418.9 				"/>
				<polygon class="st7" points="350.7,408.4 364,400.7 363.5,400.2 350.7,407.6 337.8,400.2 337.3,400.7 350.5,408.3 				"/>
				<polygon class="st7" points="350.7,397.7 357.3,393.9 356.8,393.4 350.7,396.9 344.5,393.4 344,393.9 350.5,397.6 				"/>
				<polygon class="st4" points="594.6,543.3 655.3,481.8 655.3,578.3 				"/>
				<polygon class="st5" points="715.9,543.3 655.3,481.8 655.3,578.3 				"/>
				<polygon class="st6" points="697.1,524.8 694.7,522.3 655.2,545.2 655.1,545.1 615.6,522.3 613.2,524.8 655.2,549.1 				"/>
				<polygon class="st6" points="686.6,514.1 684.1,511.6 655.2,528.4 655.1,528.3 626.2,511.6 623.7,514.1 655.2,532.3 				"/>
				<polygon class="st6" points="694.5,522.1 692.1,519.7 655.2,541 655.1,540.9 618.3,519.7 615.8,522.1 655.2,544.9 				"/>
				<polygon class="st6" points="699.8,527.5 697.3,525 655.2,549.4 655.1,549.3 613,525 610.5,527.5 655.2,553.3 				"/>
				<polygon class="st6" points="689.2,516.8 686.8,514.3 655.2,532.6 655.1,532.5 623.5,514.3 621.1,516.8 655.2,536.5 				"/>
				<polygon class="st6" points="691.9,519.5 689.4,517 655.2,536.8 655.1,536.7 620.9,517 618.5,519.5 655.2,540.7 				"/>
				<polygon class="st6" points="702.4,530.2 700,527.7 655.2,553.6 655.1,553.5 610.3,527.7 607.9,530.2 655.2,557.5 				"/>
				<polygon class="st6" points="705,532.8 702.6,530.3 655.2,557.8 655.1,557.7 607.7,530.3 605.3,532.8 655.2,561.6 				"/>
				<polygon class="st6" points="713,540.8 710.5,538.4 655.2,570.3 655.1,570.3 599.8,538.4 597.3,540.8 655.2,574.2 				"/>
				<polygon class="st6" points="655.1,574.5 597.2,541 594.7,543.5 655.2,578.4 715.6,543.5 713.1,541 655.2,574.5 				"/>
				<polygon class="st6" points="710.3,538.2 707.9,535.7 655.2,566.1 655.1,566.1 602.4,535.7 600,538.2 655.2,570 				"/>
				<polygon class="st6" points="707.7,535.5 705.2,533 655.2,562 655.1,561.9 605.1,533 602.6,535.5 655.2,565.8 				"/>
				<polygon class="st6" points="681.3,508.8 678.9,506.3 655.2,520 655.1,520 631.5,506.3 629,508.8 655.2,523.9 				"/>
				<polygon class="st6" points="660.2,487.4 657.8,484.9 655.2,486.4 655.1,486.4 652.5,484.9 650.1,487.4 655.2,490.3 				"/>
				<polygon class="st6" points="668.1,495.4 665.7,492.9 655.2,499 655.1,499 644.6,492.9 642.2,495.4 655.2,502.9 				"/>
				<polygon class="st6" points="665.5,492.8 663,490.3 655.2,494.8 655.1,494.8 647.3,490.3 644.8,492.8 655.2,498.7 				"/>
				<polygon class="st6" points="662.9,490.1 660.4,487.6 655.2,490.6 655.1,490.6 649.9,487.6 647.5,490.1 655.2,494.5 				"/>
				<polygon class="st6" points="657.6,484.7 655.2,482.3 652.7,484.7 655.2,486.1 				"/>
				<polygon class="st6" points="673.4,500.8 671,498.3 655.2,507.4 655.1,507.4 639.4,498.3 636.9,500.8 655.2,511.3 				"/>
				<polygon class="st6" points="678.7,506.1 676.2,503.6 655.2,515.8 655.1,515.8 634.1,503.6 631.6,506.1 655.2,519.7 				"/>
				<polygon class="st6" points="670.8,498.1 668.3,495.6 655.2,503.2 655.1,503.2 642,495.6 639.5,498.1 655.2,507.1 				"/>
				<polygon class="st6" points="676,503.4 673.6,501 655.2,511.6 655.1,511.6 636.7,501 634.3,503.4 655.2,515.5 				"/>
				<polygon class="st6" points="684,511.5 681.5,509 655.2,524.2 655.1,524.2 628.8,509 626.4,511.5 655.2,528.1 				"/>
				<polygon class="st7" points="655.2,574.2 597.3,540.8 597.2,541 655.1,574.5 655.2,574.5 713.1,541 713,540.8 				"/>
				<polygon class="st7" points="655.2,570.3 710.5,538.4 710.3,538.2 655.2,570 600,538.2 599.8,538.4 655.1,570.3 				"/>
				<polygon class="st7" points="655.2,566.1 707.9,535.7 707.7,535.5 655.2,565.8 602.6,535.5 602.4,535.7 655.1,566.1 				"/>
				<polygon class="st7" points="655.2,562 705.2,533 705,532.8 655.2,561.6 605.3,532.8 605.1,533 655.1,561.9 				"/>
				<polygon class="st7" points="655.2,557.8 702.6,530.3 702.4,530.2 655.2,557.5 607.9,530.2 607.7,530.3 655.1,557.7 				"/>
				<polygon class="st7" points="655.2,553.6 700,527.7 699.8,527.5 655.2,553.3 610.5,527.5 610.3,527.7 655.1,553.5 				"/>
				<polygon class="st7" points="655.2,549.4 697.3,525 697.1,524.8 655.2,549.1 613.2,524.8 613,525 655.1,549.3 				"/>
				<polygon class="st7" points="655.2,545.2 694.7,522.3 694.5,522.1 655.2,544.9 615.8,522.1 615.6,522.3 655.1,545.1 				"/>
				<polygon class="st7" points="655.2,541 692.1,519.7 691.9,519.5 655.2,540.7 618.5,519.5 618.3,519.7 655.1,540.9 				"/>
				<polygon class="st7" points="655.2,536.8 689.4,517 689.2,516.8 655.2,536.5 621.1,516.8 620.9,517 655.1,536.7 				"/>
				<polygon class="st7" points="655.2,532.6 686.8,514.3 686.6,514.1 655.2,532.3 623.7,514.1 623.5,514.3 655.1,532.5 				"/>
				<polygon class="st7" points="655.2,528.4 684.1,511.6 684,511.5 655.2,528.1 626.4,511.5 626.2,511.6 655.1,528.3 				"/>
				<polygon class="st7" points="655.2,524.2 681.5,509 681.3,508.8 655.2,523.9 629,508.8 628.8,509 655.1,524.2 				"/>
				<polygon class="st7" points="655.2,520 678.9,506.3 678.7,506.1 655.2,519.7 631.6,506.1 631.5,506.3 655.1,520 				"/>
				<polygon class="st7" points="655.2,515.8 676.2,503.6 676,503.4 655.2,515.5 634.3,503.4 634.1,503.6 655.1,515.8 				"/>
				<polygon class="st7" points="655.2,511.6 673.6,501 673.4,500.8 655.2,511.3 636.9,500.8 636.7,501 655.1,511.6 				"/>
				<polygon class="st7" points="655.2,507.4 671,498.3 670.8,498.1 655.2,507.1 639.5,498.1 639.4,498.3 655.1,507.4 				"/>
				<polygon class="st7" points="655.2,503.2 668.3,495.6 668.1,495.4 655.2,502.9 642.2,495.4 642,495.6 655.1,503.2 				"/>
				<polygon class="st7" points="655.2,499 665.7,492.9 665.5,492.8 655.2,498.7 644.8,492.8 644.6,492.9 655.1,499 				"/>
				<polygon class="st7" points="655.2,494.8 663,490.3 662.9,490.1 655.2,494.5 647.5,490.1 647.3,490.3 655.1,494.8 				"/>
				<polygon class="st7" points="655.2,490.6 660.4,487.6 660.2,487.4 655.2,490.3 650.1,487.4 649.9,487.6 655.1,490.6 				"/>
				<polygon class="st7" points="655.2,486.4 657.8,484.9 657.6,484.7 655.2,486.1 652.7,484.7 652.5,484.9 655.1,486.4 				"/>
				<polygon class="st3" points="222,485.3 148.9,453.5 189.4,437.6 				"/>
				<polygon class="st4" points="171.1,455.9 222,404.3 222,485.3 				"/>
				<polygon class="st5" points="272.9,455.9 222,404.3 222,485.3 				"/>
				<polygon class="st6" points="257.2,440.4 255.1,438.3 221.9,457.5 221.8,457.5 188.7,438.3 186.6,440.4 221.9,460.8 				"/>
				<polygon class="st6" points="248.3,431.4 246.2,429.3 221.9,443.4 221.8,443.4 197.6,429.3 195.5,431.4 221.9,446.7 				"/>
				<polygon class="st6" points="254.9,438.2 252.9,436.1 221.9,454 221.8,453.9 190.9,436.1 188.9,438.2 221.9,457.2 				"/>
				<polygon class="st6" points="259.4,442.6 257.3,440.6 221.9,461 221.8,461 186.5,440.6 184.4,442.6 221.9,464.3 				"/>
				<polygon class="st6" points="250.5,433.7 248.4,431.6 221.9,446.9 221.8,446.9 195.3,431.6 193.3,433.7 221.9,450.2 				"/>
				<polygon class="st6" points="252.7,435.9 250.7,433.8 221.9,450.4 221.8,450.4 193.1,433.8 191.1,435.9 221.9,453.7 				"/>
				<polygon class="st6" points="261.6,444.9 259.5,442.8 221.9,464.5 221.8,464.5 184.3,442.8 182.2,444.9 221.9,467.8 				"/>
				<polygon class="st6" points="263.8,447.1 261.7,445 221.9,468.1 221.8,468 182.1,445 180,447.1 221.9,471.3 				"/>
				<polygon class="st6" points="270.4,453.9 268.4,451.8 221.9,478.6 221.8,478.6 175.4,451.8 173.4,453.9 221.9,481.9 				"/>
				<polygon class="st6" points="221.8,482.1 173.2,454 171.1,456.1 221.9,485.4 272.7,456.1 270.6,454 221.9,482.1 				"/>
				<polygon class="st6" points="268.2,451.6 266.2,449.5 221.9,475.1 221.8,475.1 177.6,449.5 175.6,451.6 221.9,478.4 				"/>
				<polygon class="st6" points="266,449.4 264,447.3 221.9,471.6 221.8,471.5 179.8,447.3 177.8,449.4 221.9,474.8 				"/>
				<polygon class="st6" points="243.9,426.9 241.8,424.9 221.9,436.4 221.8,436.3 202,424.9 199.9,426.9 221.9,439.6 				"/>
				<polygon class="st6" points="226.2,409 224.1,406.9 221.9,408.2 221.8,408.1 219.7,406.9 217.6,409 221.9,411.4 				"/>
				<polygon class="st6" points="232.8,415.7 230.7,413.6 221.9,418.7 221.8,418.7 213.1,413.6 211,415.7 221.9,422 				"/>
				<polygon class="st6" points="230.6,413.5 228.5,411.4 221.9,415.2 221.8,415.2 215.3,411.4 213.2,413.5 221.9,418.5 				"/>
				<polygon class="st6" points="228.4,411.2 226.3,409.1 221.9,411.7 221.8,411.7 217.5,409.1 215.4,411.2 221.9,415 				"/>
				<polygon class="st6" points="223.9,406.8 221.9,404.7 219.9,406.8 221.9,407.9 				"/>
				<polygon class="st6" points="237.2,420.2 235.2,418.1 221.9,425.8 221.8,425.8 208.6,418.1 206.6,420.2 221.9,429.1 				"/>
				<polygon class="st6" points="241.7,424.7 239.6,422.6 221.9,432.8 221.8,432.8 204.2,422.6 202.1,424.7 221.9,436.1 				"/>
				<polygon class="st6" points="235,418 232.9,415.9 221.9,422.3 221.8,422.2 210.8,415.9 208.8,418 221.9,425.5 				"/>
				<polygon class="st6" points="239.4,422.4 237.4,420.4 221.9,429.3 221.8,429.3 206.4,420.4 204.4,422.4 221.9,432.6 				"/>
				<polygon class="st6" points="246.1,429.2 244,427.1 221.9,439.9 221.8,439.8 199.8,427.1 197.7,429.2 221.9,443.1 				"/>
				<polygon class="st7" points="221.9,481.9 173.4,453.9 173.2,454 221.8,482.1 221.9,482.1 270.6,454 270.4,453.9 				"/>
				<polygon class="st7" points="221.9,478.6 268.4,451.8 268.2,451.6 221.9,478.4 175.6,451.6 175.4,451.8 221.8,478.6 				"/>
				<polygon class="st7" points="221.9,475.1 266.2,449.5 266,449.4 221.9,474.8 177.8,449.4 177.6,449.5 221.8,475.1 				"/>
				<polygon class="st7" points="221.9,471.6 264,447.3 263.8,447.1 221.9,471.3 180,447.1 179.8,447.3 221.8,471.5 				"/>
				<polygon class="st7" points="221.9,468.1 261.7,445 261.6,444.9 221.9,467.8 182.2,444.9 182.1,445 221.8,468 				"/>
				<polygon class="st7" points="221.9,464.5 259.5,442.8 259.4,442.6 221.9,464.3 184.4,442.6 184.3,442.8 221.8,464.5 				"/>
				<polygon class="st7" points="221.9,461 257.3,440.6 257.2,440.4 221.9,460.8 186.6,440.4 186.5,440.6 221.8,461 				"/>
				<polygon class="st7" points="221.9,457.5 255.1,438.3 254.9,438.2 221.9,457.2 188.9,438.2 188.7,438.3 221.8,457.5 				"/>
				<polygon class="st7" points="221.9,454 252.9,436.1 252.7,435.9 221.9,453.7 191.1,435.9 190.9,436.1 221.8,453.9 				"/>
				<polygon class="st7" points="221.9,450.4 250.7,433.8 250.5,433.7 221.9,450.2 193.3,433.7 193.1,433.8 221.8,450.4 				"/>
				<polygon class="st7" points="221.9,446.9 248.4,431.6 248.3,431.4 221.9,446.7 195.5,431.4 195.3,431.6 221.8,446.9 				"/>
				<polygon class="st7" points="221.9,443.4 246.2,429.3 246.1,429.2 221.9,443.1 197.7,429.2 197.6,429.3 221.8,443.4 				"/>
				<polygon class="st7" points="221.9,439.9 244,427.1 243.9,426.9 221.9,439.6 199.9,426.9 199.8,427.1 221.8,439.8 				"/>
				<polygon class="st7" points="221.9,436.4 241.8,424.9 241.7,424.7 221.9,436.1 202.1,424.7 202,424.9 221.8,436.3 				"/>
				<polygon class="st7" points="221.9,432.8 239.6,422.6 239.4,422.4 221.9,432.6 204.4,422.4 204.2,422.6 221.8,432.8 				"/>
				<polygon class="st7" points="221.9,429.3 237.4,420.4 237.2,420.2 221.9,429.1 206.6,420.2 206.4,420.4 221.8,429.3 				"/>
				<polygon class="st7" points="221.9,425.8 235.2,418.1 235,418 221.9,425.5 208.8,418 208.6,418.1 221.8,425.8 				"/>
				<polygon class="st7" points="221.9,422.3 232.9,415.9 232.8,415.7 221.9,422 211,415.7 210.8,415.9 221.8,422.2 				"/>
				<polygon class="st7" points="221.9,418.7 230.7,413.6 230.6,413.5 221.9,418.5 213.2,413.5 213.1,413.6 221.8,418.7 				"/>
				<polygon class="st7" points="221.9,415.2 228.5,411.4 228.4,411.2 221.9,415 215.4,411.2 215.3,411.4 221.8,415.2 				"/>
				<polygon class="st7" points="221.9,411.7 226.3,409.1 226.2,409 221.9,411.4 217.6,409 217.5,409.1 221.8,411.7 				"/>
				<polygon class="st7" points="221.9,408.2 224.1,406.9 223.9,406.8 221.9,407.9 219.9,406.8 219.7,406.9 221.8,408.1 				"/>
				
					<linearGradient id="SVGID_4_" gradientUnits="userSpaceOnUse" x1="183.5895" y1="-4810.0439" x2="56.6987" y2="-4937.0044" gradientTransform="matrix(1 0 0 1 0 5067.2803)">
					<stop  offset="0" style="stop-color:#7485DE"/>
					<stop  offset="0.3" style="stop-color:#6DA9DD"/>
					<stop  offset="0.77" style="stop-color:#64DDDC"/>
					<stop  offset="1" style="stop-color:#60F1DC"/>
				</linearGradient>
				<path class="st8" d="M120.2,283.5c49.6,0,89.7-40.2,89.7-89.8c0-49.6-40.2-89.7-89.8-89.7c-49.5,0-89.7,40.2-89.7,89.7
					c0,49.5,40.1,89.8,89.6,89.8C120.1,283.5,120.1,283.5,120.2,283.5z"/>
				
					<linearGradient id="SVGID_5_" gradientUnits="userSpaceOnUse" x1="120.296" y1="-4825.2803" x2="120.296" y2="-4918.374" gradientTransform="matrix(1 0 0 1 0 5067.2803)">
					<stop  offset="0" style="stop-color:#80FFE1"/>
					<stop  offset="0.27" style="stop-color:#A5E1E7;stop-opacity:0.73"/>
					<stop  offset="1" style="stop-color:#85A5FF;stop-opacity:0"/>
				</linearGradient>
				<path class="st9" d="M216.8,196c-2.2-1.1-4.4-2.3-6.8-3.4v3.7c1.8,0.9,3.5,1.8,5.2,2.7c21.2,11.2,32.8,22.2,30.9,29.3
					s-17.3,11-41.3,10.4c-25.5-0.5-58.1-5.7-92.1-14.6c-75.3-19.6-122-47.6-118.4-61.5c1.7-6.7,15.3-10.5,37.3-10.5
					c2.9,0,5.9,0,9.1,0.2c0.6-1,0.7-2.3,1.4-3.1c-27.9-1.4-48.2,2.1-50.9,12.6c-5.2,19.9,57.3,49,120.8,65.5
					c34.2,8.9,67.1,14.1,92.9,14.7h4.4c17.7,0,37.4-2.4,40.1-13C252.3,217.6,233.3,204.8,216.8,196z"/>
				
					<linearGradient id="SVGID_6_" gradientUnits="userSpaceOnUse" x1="-1365.2229" y1="-3132.4351" x2="-1460.3829" y2="-3037.2749" gradientTransform="matrix(0.92 0.39 0.39 -0.92 3196.4067 -2158.8293)">
					<stop  offset="0" style="stop-color:#ECB7A0"/>
					<stop  offset="0.61" style="stop-color:#F3DF93"/>
					<stop  offset="1" style="stop-color:#F6F38D"/>
				</linearGradient>
				<circle class="st10" cx="693.8" cy="128.9" r="67.3"/>
				
					<linearGradient id="SVGID_7_" gradientUnits="userSpaceOnUse" x1="65.2689" y1="-2777.6421" x2="52.3833" y2="-2729.4888" gradientTransform="matrix(0.837 0.5473 0.5473 -0.837 2151.1367 -2206.7107)">
					<stop  offset="0" style="stop-color:#ECB7A0"/>
					<stop  offset="0.32" style="stop-color:#ECA88A"/>
					<stop  offset="0.34" style="stop-color:#ECAB8A"/>
					<stop  offset="0.78" style="stop-color:#F3DF8C"/>
					<stop  offset="1" style="stop-color:#F6F38D"/>
				</linearGradient>
				<path class="st11" d="M779.3,165.1c2.8-6.5-4.6-16.7-18.8-27.6l-0.3,2.4c-0.1,0.6-0.2,1.1-0.3,1.7c-0.2,0.8-0.3,1.5-0.5,2.3
					c6.2,6.3,9,11.9,7.3,16c-4.7,11-41.1,6.1-81.3-11s-69.2-39.8-64.5-50.8c1.7-4,7.7-5.9,16.5-5.9c0.4-0.7,0.9-1.3,1.3-1.9
					s0.7-0.9,1-1.4c0.5-0.6,1-1.3,1.5-1.9c-17.7-2.5-30.1-0.8-32.9,5.8c-5.5,12.9,28.4,39.5,75.6,59.5S773.9,178,779.3,165.1z"/>
				
					<linearGradient id="SVGID_8_" gradientUnits="userSpaceOnUse" x1="189.9969" y1="-603.583" x2="167.8669" y2="-582.723" gradientTransform="matrix(1 0 0 -1 0 -300.2)">
					<stop  offset="0" style="stop-color:#8296FA"/>
					<stop  offset="0.3" style="stop-color:#7BBFFA"/>
					<stop  offset="0.77" style="stop-color:#71FAF8"/>
					<stop  offset="1" style="stop-color:#65FDE7"/>
				</linearGradient>
				<circle class="st12" cx="179.3" cy="293.3" r="14.7"/>
				<g>
					<defs>
						<path id="SVGID_9_" d="M219,143c-31.9,21.1-43.4,11.2-72,29c-38,23.6-28.4,48.3-69,91c-41.4,43.6-65.1,32.4-90,70
							c-22.5,33.9-26.8,80.5-14,118c9.2,26.8,26.4,46.3,98,96c81.2,56.3,121.7,84.5,151,94c94.3,30.7,113.4-20.5,259-12
							c113.3,6.6,140.8,39.8,213,16c65.8-21.7,103.8-69.4,116-85c12.6-16.2,76.7-102.6,53-192c-5.8-21.7-9.4-16-79-123
							c-47.5-73-47.4-78.1-64-92c-36.7-30.7-53-19-136-57c-58.8-26.9-59-36.6-101-49c-27.3-8-64-18.4-110-10
							c-12.1,2.2-57.5,11.7-98,47C246.7,109.5,248.9,123.3,219,143z"/>
					</defs>
					<clipPath id="SVGID_10_">
						<use xlink:href="#SVGID_9_"  style="overflow:visible;"/>
					</clipPath>
					<g class="st13">
						
							<linearGradient id="SVGID_11_" gradientUnits="userSpaceOnUse" x1="-261.2052" y1="-1126.832" x2="-359.7947" y2="-1028.2625" gradientTransform="matrix(0.9841 -0.1776 -0.1776 -0.9841 896.9915 -831.692)">
							<stop  offset="0" style="stop-color:#7891DE"/>
							<stop  offset="0.22" style="stop-color:#72A9D8"/>
							<stop  offset="0.74" style="stop-color:#65DDCB"/>
							<stop  offset="1" style="stop-color:#60F1C6"/>
						</linearGradient>
						<circle class="st14" cx="782.8" cy="283.9" r="69.7"/>
						
							<linearGradient id="SVGID_12_" gradientUnits="userSpaceOnUse" x1="-286.3089" y1="-1143.5085" x2="-335.1189" y2="-1010.8586" gradientTransform="matrix(0.9841 -0.1776 -0.1776 -0.9841 896.9915 -831.692)">
							<stop  offset="0" style="stop-color:#7891DE"/>
							<stop  offset="0.32" style="stop-color:#517FDE"/>
							<stop  offset="0.54" style="stop-color:#57A9D5"/>
							<stop  offset="0.85" style="stop-color:#5DDDCA"/>
							<stop  offset="1" style="stop-color:#60F1C6"/>
						</linearGradient>
						<path class="st15" d="M845.6,253.5c0.4,0.7,0.7,1.5,1,2.3c14.7,1.8,24.2,5.9,25.3,12.1c2.4,13.4-35.5,31.5-84.8,40.4
							s-91.1,5.2-93.5-8.2c-1.1-6.2,6.3-13.4,19.5-20.2c0-0.8,0.1-1.7,0.2-2.5c-16.8,7.9-26.6,16.4-25.3,23.7
							c2.6,14.3,47.1,18.2,99.4,8.7s92.7-28.7,90.1-42.9C876.3,259.6,864.1,255,845.6,253.5z"/>
						
							<linearGradient id="SVGID_13_" gradientUnits="userSpaceOnUse" x1="-296.8849" y1="-1114.0355" x2="-323.7793" y2="-1040.9108" gradientTransform="matrix(0.9841 -0.1776 -0.1776 -0.9841 896.9915 -831.692)">
							<stop  offset="0" style="stop-color:#7891DE"/>
							<stop  offset="0.32" style="stop-color:#517FDE"/>
							<stop  offset="0.54" style="stop-color:#57A9D5"/>
							<stop  offset="0.85" style="stop-color:#5DDDCA"/>
							<stop  offset="1" style="stop-color:#60F1C6"/>
						</linearGradient>
						<path class="st16" d="M846.7,255.7c0.2,0.5,0.5,1.1,0.7,1.6c12.2,1.9,20,5.7,20.9,11.1c2.3,12.9-34,30.2-81.2,38.7
							s-87.3,5-89.6-7.9c-1-5.4,5-11.7,15.7-17.7c0-0.6,0-1.2,0.1-1.8c-13.2,6.8-20.6,14-19.5,20.2c2.4,13.4,44.3,17.1,93.6,8.2
							s87.2-27,84.8-40.4C870.9,261.6,861.4,257.5,846.7,255.7z"/>
						
							<linearGradient id="SVGID_14_" gradientUnits="userSpaceOnUse" x1="-302.2723" y1="-1108.5398" x2="-318.7806" y2="-1046.896" gradientTransform="matrix(0.9841 -0.1776 -0.1776 -0.9841 896.9915 -831.692)">
							<stop  offset="0" style="stop-color:#7891DE"/>
							<stop  offset="0.32" style="stop-color:#517FDE"/>
							<stop  offset="0.54" style="stop-color:#57A9D5"/>
							<stop  offset="0.85" style="stop-color:#5DDDCA"/>
							<stop  offset="1" style="stop-color:#60F1C6"/>
						</linearGradient>
						<path class="st17" d="M847.3,257.4c0.3,0.7,0.6,1.5,0.9,2.3c9,2,14.6,5.2,15.4,9.7c2.2,12.2-32.2,28.6-76.8,36.6
							s-82.6,4.7-84.8-7.5c-0.8-4.5,3.3-9.5,11-14.5v-2.4c-10.8,6-16.7,12.3-15.7,17.7c2.3,12.9,42.5,16.4,89.6,7.9
							s83.6-25.9,81.2-38.7C867.3,263.1,859.6,259.3,847.3,257.4z"/>
						
							<linearGradient id="SVGID_15_" gradientUnits="userSpaceOnUse" x1="334.0474" y1="-400.5896" x2="274.5674" y2="-344.5396" gradientTransform="matrix(1 0 0 -1 0 -300.2)">
							<stop  offset="0" style="stop-color:#C29BEC"/>
							<stop  offset="0.15" style="stop-color:#C6AAE9"/>
							<stop  offset="0.72" style="stop-color:#D4DEDF"/>
							<stop  offset="1" style="stop-color:#DAF2DB"/>
						</linearGradient>
						<circle class="st18" cx="305.3" cy="73.3" r="39.5"/>
					</g>
				</g>
				<rect x="378.5" y="320.7" class="st6" width="9.7" height="9.7"/>
				<path class="st19" d="M383.6,320.8l1.9,2.6l0,0l2.6,1.9c0.1,0.1,0.1,0.2,0.1,0.3c0,0,0,0.1-0.1,0.1l-2.6,1.9l0,0l-1.9,2.6
					c-0.1,0.1-0.2,0.1-0.3,0c0,0,0,0,0,0l-1.9-2.6l0,0l-2.6-1.9c-0.1-0.1-0.1-0.2-0.1-0.3c0,0,0,0,0.1-0.1l2.6-1.9l0,0l1.9-2.6
					C383.3,320.7,383.4,320.7,383.6,320.8C383.5,320.8,383.6,320.8,383.6,320.8z"/>
				<rect x="492" y="128.2" class="st6" width="11.5" height="11.5"/>
				<path class="st19" d="M498,128.3l2.3,3.1l0.1,0.1l3.1,2.3c0.1,0.1,0.1,0.2,0.1,0.3c0,0,0,0.1-0.1,0.1l-3.1,2.3l-0.1,0.1
					l-2.3,3.1c-0.1,0.1-0.2,0.1-0.3,0.1c0,0-0.1,0-0.1-0.1l-2.3-3.1l-0.1-0.1l-3.1-2.3c-0.1-0.1-0.1-0.2-0.1-0.3c0,0,0-0.1,0.1-0.1
					l3.1-2.3l0.1-0.1l2.3-3.1C497.6,128.2,497.8,128.1,498,128.3C497.9,128.2,498,128.2,498,128.3z"/>
				<rect x="19.6" y="330" class="st6" width="4.4" height="4.4"/>
				<path class="st19" d="M21.9,330l0.9,1.2l0,0l1.2,0.9c0,0,0,0.1,0,0.2c0,0,0,0,0,0l-1.2,0.9l0,0l-0.9,1.2c0,0-0.1,0-0.2,0
					c0,0,0,0,0,0l-0.9-1.2l0,0l-1.2-0.9c0,0-0.1-0.1,0-0.1c0,0,0,0,0,0l1.2-0.9l0,0l0.9-1.2C21.8,330,21.9,330,21.9,330
					C21.9,330,21.9,330,21.9,330z"/>
				<rect x="248" y="149.5" class="st6" width="1.2" height="1.2"/>
				<circle class="st20" cx="248.6" cy="150.1" r="0.6"/>
				<rect x="365.3" y="200.4" class="st6" width="3.5" height="3.4"/>
				<circle class="st20" cx="367" cy="202.2" r="1.7"/>
				<rect x="446.1" y="86.2" class="st6" width="1.2" height="1.2"/>
				<circle class="st20" cx="446.7" cy="86.8" r="0.6"/>
				<rect x="593.6" y="223.5" class="st6" width="2.3" height="2.3"/>
				<circle class="st20" cx="594.8" cy="224.6" r="1.2"/>
				<rect x="677.3" y="217.3" class="st6" width="2.4" height="2.4"/>
				<circle class="st20" cx="678.5" cy="218.5" r="1.2"/>
				<rect x="606" y="313.5" class="st6" width="2" height="2"/>
				<circle class="st20" cx="607" cy="314.5" r="1"/>
				<rect x="480.8" y="248.6" class="st6" width="1.2" height="1.2"/>
				<circle class="st20" cx="481.4" cy="249.2" r="0.6"/>
				<rect x="280.3" y="315.6" class="st6" width="3.9" height="3.9"/>
				<circle class="st20" cx="282.3" cy="317.6" r="2"/>
				<rect x="125.4" y="363.9" class="st6" width="3.3" height="3.3"/>
				<circle class="st20" cx="127.1" cy="365.6" r="1.6"/>
				<rect x="142" y="324.3" class="st6" width="2.8" height="2.8"/>
				<circle class="st20" cx="143.4" cy="325.7" r="1.4"/>
				<rect x="390.5" y="80.6" class="st6" width="2" height="2"/>
				<circle class="st20" cx="391.6" cy="81.7" r="1"/>
				<rect x="732.7" y="197.1" class="st6" width="1.9" height="1.9"/>
				<circle class="st20" cx="733.7" cy="198.1" r="0.9"/>
				<rect x="295.5" y="380.8" class="st6" width="2.2" height="2.2"/>
				<circle class="st20" cx="296.6" cy="381.9" r="1.1"/>
				
					<linearGradient id="SVGID_16_" gradientUnits="userSpaceOnUse" x1="389.96" y1="533.2134" x2="428.73" y2="533.2134" gradientTransform="matrix(1 0 0 -1 0 655.8)">
					<stop  offset="0" style="stop-color:#C1DCE3"/>
					<stop  offset="0.34" style="stop-color:#ADCBD8"/>
					<stop  offset="1" style="stop-color:#7BA2BE"/>
				</linearGradient>
				<path class="st21" d="M390.4,138.7l36.7-34.8c0.1-0.1,0.1-0.1,0.2,0c0,0,0,0,0,0c0,0.1,0,0.1,0,0.2l-34.8,36.7
					c-0.5,0.6-1.5,0.7-2.1,0.1c-0.6-0.5-0.7-1.5-0.1-2.1C390.3,138.8,390.3,138.8,390.4,138.7L390.4,138.7z"/>
				
					<linearGradient id="SVGID_17_" gradientUnits="userSpaceOnUse" x1="432.3869" y1="542.2363" x2="455.8169" y2="542.2363" gradientTransform="matrix(1 0 0 -1 0 655.8)">
					<stop  offset="0" style="stop-color:#C1DCE3"/>
					<stop  offset="0.34" style="stop-color:#ADCBD8"/>
					<stop  offset="1" style="stop-color:#7BA2BE"/>
				</linearGradient>
				<path class="st22" d="M432.7,123.3l22.2-21.1c0,0,0.1,0,0.1,0c0,0,0,0.1,0,0.1l-21.1,22.2c-0.4,0.3-0.9,0.3-1.3,0
					C432.3,124.3,432.3,123.7,432.7,123.3L432.7,123.3z"/>
			</g>
		</g>
	</g>
</g>
</svg>
