<?xml version="1.0" encoding="utf-8"?>
<!-- Generator: Adobe Illustrator 23.0.6, SVG Export Plug-In . SVG Version: 6.00 Build 0)  -->
<svg version="1.1" id="Calque_1" xmlns="http://www.w3.org/2000/svg" xmlns:xlink="http://www.w3.org/1999/xlink" x="0px" y="0px"
	 viewBox="0 0 1346.2 1016" style="enable-background:new 0 0 1346.2 1016;" xml:space="preserve">
<style type="text/css">
	.st0{clip-path:url(#SVGID_2_);}
	.st1{clip-path:url(#SVGID_4_);}
	.st2{fill:url(#SVGID_5_);}
	.st3{opacity:0.6;fill:#3589BC;enable-background:new    ;}
	.st4{fill:url(#SVGID_6_);}
	.st5{opacity:0.3;fill:#AADEF3;enable-background:new    ;}
	.st6{fill:url(#SVGID_7_);}
	.st7{fill:url(#SVGID_8_);}
	.st8{fill:url(#SVGID_9_);}
	.st9{fill:none;}
	.st10{fill:#FFFFFF;}
	.st11{fill:url(#SVGID_10_);}
	.st12{opacity:0.6;fill:url(#SVGID_11_);enable-background:new    ;}
	.st13{opacity:0.3;fill:url(#SVGID_12_);enable-background:new    ;}
	.st14{opacity:0.6;fill:url(#SVGID_13_);enable-background:new    ;}
	.st15{fill:#67533A;}
	.st16{fill:#503E25;}
	.st17{opacity:0.9;fill:#503E25;enable-background:new    ;}
	.st18{fill:#9A8260;}
	.st19{opacity:0.6;fill:#503E25;enable-background:new    ;}
	.st20{opacity:0.3;fill:#9A8260;enable-background:new    ;}
	.st21{fill:#38BA6D;}
	.st22{fill:#329360;}
	.st23{fill:#CCC3BE;}
	.st24{fill:#E0D5CE;}
	.st25{fill:#D3CAC5;}
	.st26{fill:#B5AEAA;}
	.st27{opacity:0.35;fill:#4F4D4C;enable-background:new    ;}
	.st28{opacity:0.35;fill:#0C0C0C;enable-background:new    ;}
	.st29{fill:#6B512C;}
	.st30{fill:#9E7E4A;}
	.st31{fill:#543D1A;}
	.st32{fill:#6ABA90;}
	.st33{fill:#27B768;}
	.st34{fill:#0D9B64;}
	.st35{opacity:0.3;fill:#FFDFA5;enable-background:new    ;}
	.st36{opacity:0.6;fill:#FFDFA5;enable-background:new    ;}
	.st37{fill:#FFDFA5;}
	.st38{opacity:0.1;fill:#4C605B;enable-background:new    ;}
	.st39{fill:#E9D4BB;}
	.st40{fill:url(#SVGID_14_);}
	.st41{fill:#72938C;}
	.st42{fill:#FFF2E3;}
	.st43{fill:#B5C1B9;}
	.st44{fill:url(#SVGID_15_);}
	.st45{fill:url(#SVGID_16_);}
	.st46{fill:#21CDBA;}
	.st47{fill:#7DDBCC;}
	.st48{opacity:0.4;fill:#72938C;enable-background:new    ;}
	.st49{opacity:0.4;fill:url(#SVGID_17_);enable-background:new    ;}
	.st50{opacity:0.4;fill:#B5C1B9;enable-background:new    ;}
	.st51{fill:#6A5A4E;}
	.st52{fill:#55463A;}
	.st53{opacity:0.9;fill:#55463A;enable-background:new    ;}
	.st54{fill:#978677;}
	.st55{opacity:0.6;fill:#55463A;enable-background:new    ;}
	.st56{opacity:0.3;fill:#978677;enable-background:new    ;}
	.st57{fill:#F4D8AB;}
	.st58{fill:#BFD06C;}
	.st59{fill:#776654;}
	.st60{fill:#E7BFCB;}
	.st61{fill:#E7ADBE;}
	.st62{fill:#8CC642;}
	.st63{fill:#B8B982;}
	.st64{fill:#D9E0C8;}
	.st65{fill:#D0BC9B;}
	.st66{fill:#A9947C;}
	.st67{fill:#8C8C64;}
	.st68{fill:#9B646A;}
	.st69{fill:#C87E84;}
	.st70{fill:#F7A0A5;}
	.st71{fill:#DF97A3;}
	.st72{fill:#BC7981;}
	.st73{fill:#F8A5AC;}
	.st74{fill:#FBACB7;}
	.st75{fill:#72673B;}
	.st76{fill:url(#SVGID_18_);}
</style>
<title>jumbotron_corner_backgroundFichier 1</title>
<g>
	<g id="Calque_1-2">
		<g>
			<g>
				<defs>
					<path id="SVGID_1_" d="M0.2,0c-3.3,174.4,43.2,242.9,87,273c42.9,29.5,97.5,32.1,192,97c17,11.6,39.8,25.5,64.7,50.3
						c55.9,55.7,67.5,110.4,160.3,183.9c115.5,91.4,143.9,43.4,278,138c129,91.1,127.7,153.2,229,215c63.6,38.8,168.3,77.8,335,48.7
						V0H0.2z"/>
				</defs>
				<clipPath id="SVGID_2_">
					<use xlink:href="#SVGID_1_"  style="overflow:visible;"/>
				</clipPath>
				<g class="st0">
					<g>
						<g>
							<defs>
								<rect id="SVGID_3_" x="-573.9" y="0.4" width="1920" height="1080"/>
							</defs>
							<clipPath id="SVGID_4_">
								<use xlink:href="#SVGID_3_"  style="overflow:visible;"/>
							</clipPath>
							<g class="st1">
								
									<linearGradient id="SVGID_5_" gradientUnits="userSpaceOnUse" x1="-364.434" y1="1289.04" x2="1135.566" y2="-210.96" gradientTransform="matrix(1 0 0 1 0 1.86)">
									<stop  offset="0" style="stop-color:#389BBC"/>
									<stop  offset="1" style="stop-color:#3819A9"/>
								</linearGradient>
								<rect x="-574.4" y="0.9" class="st2" width="1920" height="1080"/>
								<rect x="-574.4" y="0.9" class="st3" width="1920" height="1080"/>
								
									<linearGradient id="SVGID_6_" gradientUnits="userSpaceOnUse" x1="-454.4395" y1="125.1197" x2="-281.1394" y2="125.1197" gradientTransform="matrix(1 0 0 1 0 0.9301)">
									<stop  offset="0" style="stop-color:#4D8CC9;stop-opacity:0"/>
									<stop  offset="0.21" style="stop-color:#5C9AD0;stop-opacity:8.000000e-02"/>
									<stop  offset="0.63" style="stop-color:#84BDE2;stop-opacity:0.3"/>
									<stop  offset="1" style="stop-color:#AADEF3;stop-opacity:0.5"/>
								</linearGradient>
								<path class="st4" d="M-282.4,114.5c-7.1,8-15.2,15.2-24,21.3c-8.7,6.2-17.9,11.8-27.4,16.5c-9.5,4.8-19.4,8.9-29.5,12.2
									c-10,3.3-20.4,5.5-30.9,6.8c-0.6,0.1-1.3,0.2-1.9,0.3l-1.9,0.1l-3.9,0.2c-2.5,0.2-5.1,0.2-7.6,0c-4.8-0.2-9.4-1.3-13.8-3.3
									c-1.8-0.9-3.4-2.1-4.8-3.6c-1.2-1.4-2-3-2.2-4.8c-0.7-3.6,0.4-8,2.5-12.1c2.2-4.4,5-8.4,8.3-12c2.3-2.6,4.8-5,7.4-7.2
									l-0.3,0.4c-0.5,0.7-0.9,1.4-1.3,2.2c-0.4,0.7-0.8,1.6-1.2,2.3c-0.4,0.8-0.8,1.6-1.1,2.5c-0.7,1.8-1.2,3.7-1.5,5.7
									c-0.4,2.2-0.4,4.5-0.1,6.7c0.4,2.5,1.2,4.9,2.5,7s2.9,3.9,4.9,5.3c1.7,1.3,3.6,2.3,5.5,3c1.7,0.7,3.5,1.2,5.4,1.5
									c3.3,0.6,6.6,0.8,9.9,0.6c1.6,0,3.1-0.3,4.6-0.4s3-0.3,4.4-0.6c5.7-1,11.4-2.4,16.9-4.3l4.1-1.4l4-1.6l2-0.8l2-0.9
									c1.3-0.6,2.6-1.2,3.9-1.8c10.3-4.9,19.9-11,28.7-18.3c4.5-3.7,8.6-7.8,12.3-12.2c1.9-2.2,3.6-4.6,5.2-7.1
									c1.7-2.5,3.1-5.2,4.3-7.9c1.3-2.9,2.3-5.9,2.8-9.1c0.6-3.4,0.5-6.9-0.2-10.3c-0.8-3.6-2.5-6.8-5-9.5
									c-2.3-2.5-5.1-4.5-8.3-5.8c-2.9-1.3-5.8-2.2-8.9-2.7c-2.9-0.5-5.9-0.8-8.8-0.8c-2.9-0.1-5.7,0.1-8.6,0.3l-4.2,0.5l-2.1,0.2
									c-0.7,0.1-1.4,0.2-2.1,0.3c-22.1,3.7-42.7,12.1-61.7,22.9c-9.5,5.4-18.6,11.5-27.1,18.3s-16.3,14.6-23,23.2l1.3,1.1
									c7.1-8,15.2-15.2,23.9-21.3c8.6-6.2,17.7-11.7,27.2-16.5c9.5-4.8,19.4-8.9,29.5-12.2c10-3.3,20.4-5.6,30.8-6.8
									c0.7-0.1,1.3-0.2,1.9-0.2l1.9-0.1l3.9-0.3c2.5-0.2,5.1-0.2,7.6,0c4.8,0.2,9.4,1.3,13.8,3.3c1.8,0.9,3.4,2.1,4.7,3.7
									c0.6,0.7,1.1,1.4,1.5,2.3c0.4,0.8,0.6,1.7,0.8,2.5c0.7,3.6-0.4,8-2.5,12.1c-2.2,4.4-5,8.4-8.3,12c-2.3,2.6-4.8,5-7.4,7.2
									l0.3-0.4c0.4-0.7,0.9-1.4,1.3-2.2c0.4-0.8,0.8-1.5,1.2-2.3c0.4-0.8,0.7-1.6,1.1-2.5c0.7-1.8,1.2-3.7,1.5-5.7
									c0.4-2.2,0.4-4.5,0.1-6.7c-0.4-2.5-1.2-4.9-2.5-7s-2.9-3.9-4.8-5.3c-1.7-1.3-3.6-2.3-5.5-3c-1.7-0.7-3.5-1.2-5.4-1.5
									c-3.3-0.6-6.6-0.8-9.9-0.6c-1.6,0-3.1,0.2-4.6,0.4s-3,0.3-4.4,0.6c-5.7,1-11.4,2.4-16.9,4.3l-4.1,1.4l-4,1.6l-2,0.8l-1.8,1
									c-1.3,0.6-2.6,1.2-3.9,1.8c-10.3,4.9-19.9,11-28.7,18.2c-4.5,3.7-8.6,7.8-12.3,12.3c-1.9,2.2-3.6,4.6-5.2,7.1
									c-1.7,2.5-3.1,5.2-4.3,7.9c-1.3,2.9-2.2,5.9-2.8,9.1c-0.6,3.4-0.6,6.9,0.2,10.3c0.4,1.8,1,3.5,1.9,5.1s1.9,3.1,3.1,4.4
									c2.3,2.5,5.1,4.5,8.3,5.8c2.9,1.3,5.9,2.2,8.9,2.7c2.9,0.5,5.9,0.8,8.8,0.8c2.9,0.1,5.7-0.1,8.5-0.4l4.2-0.4l2.1-0.2
									c0.7-0.1,1.4-0.2,2.1-0.4c22.1-3.7,42.7-12.1,61.7-22.9c9.5-5.4,18.6-11.5,27.2-18.3c8.5-6.8,16.3-14.6,23-23.2
									L-282.4,114.5z M-356.8,119.9c-0.1,0.3-0.3,0.6-0.4,0.8c-0.5,0.9-1.2,1.8-1.9,2.6c-3.3,3.6-7.4,6.3-12,8
									c-1.1,0.4-2.3,0.8-3.5,1c-1,0.2-2.1,0.3-3.1,0.1c-0.3,0-0.6-0.2-0.9-0.4c0.1-0.3,0.3-0.6,0.4-0.8c0.5-0.9,1.2-1.8,1.9-2.6
									c3.3-3.6,7.4-6.3,12-8.1c1.1-0.4,2.3-0.8,3.5-1c1-0.2,2.1-0.3,3.1-0.1C-357.4,119.6-357.1,119.7-356.8,119.9L-356.8,119.9z"
									/>
								<path class="st5" d="M-443.2,354.2l4.7,8.6c0.1,0.2,0.3,0.4,0.5,0.5l8.6,4.8c0.6,0.3,0.8,1.1,0.5,1.7
									c-0.1,0.2-0.3,0.4-0.5,0.5l-8.6,4.7c-0.2,0.1-0.4,0.3-0.5,0.5l-4.7,8.6c-0.3,0.6-1.1,0.8-1.7,0.5c-0.2-0.1-0.4-0.3-0.5-0.5
									l-4.7-8.6c-0.1-0.2-0.3-0.4-0.5-0.5l-8.6-4.7c-0.6-0.3-0.8-1.1-0.5-1.7c0.1-0.2,0.3-0.4,0.5-0.5l8.6-4.7
									c0.2-0.1,0.4-0.3,0.5-0.5l4.7-8.6c0.3-0.6,1.1-0.9,1.7-0.5C-443.5,353.8-443.3,354-443.2,354.2z"/>
								<path class="st5" d="M1134.8,804.2l4.7,8.6c0.1,0.2,0.3,0.4,0.5,0.5l8.6,4.8c0.6,0.3,0.8,1.1,0.5,1.7
									c-0.1,0.2-0.3,0.4-0.5,0.5l-8.6,4.7c-0.2,0.1-0.4,0.3-0.5,0.5l-4.7,8.6c-0.3,0.6-1.1,0.8-1.7,0.5c-0.2-0.1-0.4-0.3-0.5-0.5
									l-4.7-8.6c-0.1-0.2-0.3-0.4-0.5-0.5l-8.6-4.7c-0.6-0.3-0.8-1.1-0.5-1.7c0.1-0.2,0.3-0.4,0.5-0.5l8.6-4.7
									c0.2-0.1,0.4-0.3,0.5-0.5l4.7-8.6c0.3-0.6,1.1-0.9,1.7-0.5C1134.5,803.8,1134.7,804,1134.8,804.2z"/>
								<path class="st5" d="M117.8,877.2l4.7,8.6c0.1,0.2,0.3,0.4,0.5,0.5l8.6,4.8c0.6,0.3,0.8,1.1,0.5,1.7
									c-0.1,0.2-0.3,0.4-0.5,0.5L123,898c-0.2,0.1-0.4,0.3-0.5,0.5l-4.7,8.6c-0.3,0.6-1.1,0.8-1.7,0.5c-0.2-0.1-0.4-0.3-0.5-0.5
									l-4.7-8.6c-0.1-0.2-0.3-0.4-0.5-0.5l-8.6-4.7c-0.6-0.3-0.8-1.1-0.5-1.7c0.1-0.2,0.3-0.4,0.5-0.5l8.6-4.7
									c0.2-0.1,0.4-0.3,0.5-0.5l4.7-8.6c0.3-0.6,1.1-0.9,1.7-0.5C117.5,876.8,117.7,877,117.8,877.2z"/>
								
									<linearGradient id="SVGID_7_" gradientUnits="userSpaceOnUse" x1="1270.2032" y1="938.9774" x2="1193.1287" y2="861.9026" gradientTransform="matrix(1 0 0 1 0 1.86)">
									<stop  offset="0" style="stop-color:#4D8CC9;stop-opacity:0"/>
									<stop  offset="0.21" style="stop-color:#5C9AD0;stop-opacity:8.000000e-02"/>
									<stop  offset="0.63" style="stop-color:#84BDE2;stop-opacity:0.3"/>
									<stop  offset="1" style="stop-color:#AADEF3;stop-opacity:0.5"/>
								</linearGradient>
								<circle class="st6" cx="1231.7" cy="902.3" r="54.5"/>
								
									<linearGradient id="SVGID_8_" gradientUnits="userSpaceOnUse" x1="3914.8772" y1="-246.799" x2="3897.1992" y2="-264.4766" gradientTransform="matrix(1 0 0 1 -2765.4099 1174.9001)">
									<stop  offset="0" style="stop-color:#4D8CC9;stop-opacity:0"/>
									<stop  offset="0.21" style="stop-color:#5C9AD0;stop-opacity:8.000000e-02"/>
									<stop  offset="0.63" style="stop-color:#84BDE2;stop-opacity:0.3"/>
									<stop  offset="1" style="stop-color:#AADEF3;stop-opacity:0.5"/>
								</linearGradient>
								<circle class="st7" cx="1140.7" cy="919.3" r="12.5"/>
								
									<linearGradient id="SVGID_9_" gradientUnits="userSpaceOnUse" x1="1231.7551" y1="930.5699" x2="1231.7551" y2="874.0079" gradientTransform="matrix(1 0 0 1 0 0.9301)">
									<stop  offset="0" style="stop-color:#4D8CC9;stop-opacity:0"/>
									<stop  offset="0.21" style="stop-color:#5C9AD0;stop-opacity:8.000000e-02"/>
									<stop  offset="0.63" style="stop-color:#84BDE2;stop-opacity:0.3"/>
									<stop  offset="1" style="stop-color:#AADEF3;stop-opacity:0.5"/>
								</linearGradient>
								<path class="st8" d="M1290.3,903.6c-1.3-0.7-2.7-1.4-4.1-2.1v2.2c1.1,0.5,2.1,1.1,3.2,1.6c12.9,6.8,19.9,13.5,18.8,17.8
									s-10.5,6.7-25.1,6.3c-15.5-0.3-35.3-3.5-55.9-8.8c-45.7-11.9-74.1-28.9-71.9-37.3c1.1-4,9.3-6.4,22.6-6.4
									c1.7,0,3.6,0,5.5,0.1c0.3-0.6,0.4-1.4,0.9-1.9c-16.9-0.8-29.3,1.3-30.9,7.7c-3.2,12.1,34.8,29.7,73.3,39.8
									c20.8,5.4,40.8,8.6,56.4,8.9c0.9,0,1.8,0,2.7,0c10.8,0,22.7-1.5,24.4-7.9C1311.9,916.7,1300.3,908.9,1290.3,903.6z"/>
								<rect x="781.3" y="918.4" class="st9" width="7.7" height="7.7"/>
								<circle class="st10" cx="785.2" cy="922.3" r="3.8"/>
								<rect x="-344.7" y="288.6" class="st9" width="1.4" height="1.4"/>
								<circle class="st10" cx="-344" cy="289.3" r="0.7"/>
								<rect x="-128.9" y="126.5" class="st9" width="7" height="6.9"/>
								<circle class="st10" cx="-125.4" cy="130" r="3.5"/>
								<rect x="-355.3" y="486.4" class="st9" width="2.2" height="2.2"/>
								<circle class="st10" cx="-354.2" cy="487.5" r="1.1"/>
								<rect x="582.5" y="980.9" class="st9" width="5.8" height="5.8"/>
								<circle class="st10" cx="585.4" cy="983.8" r="2.9"/>
								<rect x="1257" y="536.1" class="st9" width="4.9" height="4.9"/>
								<circle class="st10" cx="1259.4" cy="538.5" r="2.5"/>
								<rect x="505.2" y="41.7" class="st9" width="5.1" height="5.1"/>
								<circle class="st10" cx="507.8" cy="44.2" r="2.5"/>
								<rect x="-527.5" y="708.4" class="st9" width="7.5" height="7.5"/>
								<circle class="st10" cx="-523.7" cy="712.1" r="3.8"/>
								<rect x="-521.2" y="998.6" class="st9" width="7.1" height="7.1"/>
								<circle class="st10" cx="-517.6" cy="1002.2" r="3.6"/>
								<rect x="1099" y="539.4" class="st9" width="2.3" height="2.3"/>
								<circle class="st10" cx="1100.1" cy="540.6" r="1.1"/>
								<rect x="879.6" y="957.3" class="st9" width="8" height="8"/>
								<circle class="st10" cx="883.6" cy="961.3" r="4"/>
								<rect x="-215.4" y="571.1" class="st9" width="8.3" height="8.3"/>
								<circle class="st10" cx="-211.2" cy="575.3" r="4.2"/>
								<rect x="974.2" y="38.8" class="st9" width="2.6" height="2.6"/>
								<circle class="st10" cx="975.5" cy="40.1" r="1.3"/>
								<rect x="1312.4" y="1028.6" class="st9" width="4.4" height="4.4"/>
								<circle class="st10" cx="1314.6" cy="1030.8" r="2.2"/>
								<rect x="1264.9" y="1044.4" class="st9" width="1.4" height="1.4"/>
								<circle class="st10" cx="1265.6" cy="1045.1" r="0.7"/>
								<rect x="1222.2" y="32.5" class="st9" width="6.1" height="6.1"/>
								<circle class="st10" cx="1225.2" cy="35.5" r="3"/>
								<rect x="1047.2" y="519.3" class="st9" width="3.7" height="3.7"/>
								<circle class="st10" cx="1049" cy="521.2" r="1.9"/>
								<rect x="135.6" y="762.8" class="st9" width="3.8" height="3.8"/>
								<circle class="st10" cx="137.6" cy="764.7" r="1.9"/>
								<rect x="565.3" y="838.6" class="st9" width="5.5" height="5.5"/>
								<circle class="st10" cx="568" cy="841.3" r="2.8"/>
								<rect x="195.3" y="94.8" class="st9" width="7.1" height="7.1"/>
								<circle class="st10" cx="198.8" cy="98.4" r="3.5"/>
								<rect x="804.5" y="226.1" class="st9" width="4.9" height="4.9"/>
								<circle class="st10" cx="807" cy="228.6" r="2.5"/>
								
									<linearGradient id="SVGID_10_" gradientUnits="userSpaceOnUse" x1="-1107.762" y1="1028.3918" x2="-1321.0732" y2="815.0806" gradientTransform="matrix(0.9133 -0.4074 0.4074 0.9133 897.1782 -1177.0754)">
									<stop  offset="0" style="stop-color:#A69DEC"/>
									<stop  offset="0.6" style="stop-color:#9CC2F3"/>
									<stop  offset="1" style="stop-color:#97D6F7"/>
								</linearGradient>
								<circle class="st11" cx="163.6" cy="159.5" r="150.8"/>
								
									<linearGradient id="SVGID_11_" gradientUnits="userSpaceOnUse" x1="-1162.0652" y1="1064.098" x2="-1267.5552" y2="777.3979" gradientTransform="matrix(0.9133 -0.4074 0.4074 0.9133 897.1782 -1177.0753)">
									<stop  offset="0" style="stop-color:#A69DEC"/>
									<stop  offset="0.32" style="stop-color:#958FEC"/>
									<stop  offset="0.77" style="stop-color:#96C2F4"/>
									<stop  offset="1" style="stop-color:#97D6F7"/>
								</linearGradient>
								<path class="st12" d="M279.6,63.2c1.1,1.4,2.3,2.8,3.4,4.2c31.8-3.9,53.9-0.1,59.4,12.3c12,26.9-58.3,84.5-157.1,128.6
									s-188.6,57.9-200.6,31c-5.5-12.4,6.4-31.3,30.6-52.4c-0.3-1.8-0.6-3.6-0.9-5.3c-31.2,25.2-47.3,48.2-40.8,62.7
									c12.8,28.6,108.2,13.9,213.1-32.9S366.4,103.5,353.6,74.8C347.1,60.2,319.2,56.8,279.6,63.2z"/>
								
									<linearGradient id="SVGID_12_" gradientUnits="userSpaceOnUse" x1="-1185.3661" y1="1000.6276" x2="-1243.4691" y2="842.694" gradientTransform="matrix(0.9133 -0.4074 0.4074 0.9133 897.1782 -1177.0753)">
									<stop  offset="0" style="stop-color:#A69DEC"/>
									<stop  offset="0.32" style="stop-color:#958FEC"/>
									<stop  offset="0.77" style="stop-color:#96C2F4"/>
									<stop  offset="1" style="stop-color:#97D6F7"/>
								</linearGradient>
								<path class="st13" d="M283,67.4c0.8,1,1.6,2,2.3,3.1c26.6-2.3,44.8,1.6,49.7,12.5c11.5,25.8-55.9,81-150.5,123.2
									S3.8,261.7-7.7,235.9c-4.9-10.9,4.4-27.1,23.8-45.3c-0.3-1.3-0.5-2.5-0.8-3.8c-24.1,21.1-36.1,40-30.6,52.4
									c12,26.9,101.8,13.1,200.6-31S354.4,106.6,342.4,79.6C336.9,67.3,314.8,63.5,283,67.4z"/>
								
									<linearGradient id="SVGID_13_" gradientUnits="userSpaceOnUse" x1="-1196.5872" y1="988.5439" x2="-1232.3079" y2="855.2283" gradientTransform="matrix(0.9133 -0.4074 0.4074 0.9133 897.1782 -1177.0753)">
									<stop  offset="0" style="stop-color:#A69DEC"/>
									<stop  offset="0.32" style="stop-color:#958FEC"/>
									<stop  offset="0.77" style="stop-color:#96C2F4"/>
									<stop  offset="1" style="stop-color:#97D6F7"/>
								</linearGradient>
								<path class="st14" d="M285.3,70.5c1,1.4,2,2.8,3,4.3c19.9-0.5,33.3,3.4,37.3,12.4c10.9,24.4-52.9,76.6-142.4,116.5
									S12.3,256.2,1.4,231.8c-4-9,2.1-21.6,15.7-36.1c-0.4-1.7-0.8-3.4-1.2-5.1C-3.6,208.8-12.8,225-7.9,235.9
									c11.5,25.8,97.6,12.5,192.2-29.7s162-97.4,150.5-123.2C330.1,72.1,311.9,68.2,285.3,70.5z"/>
							</g>
						</g>
					</g>
				</g>
			</g>
		</g>
		<path class="st15" d="M890.7,497.4l23.3,84l75.8,64.4l19.8,36.3l30.8,14l65.8-41.1l28.1-59l18.8-20.9c4.9-26.8,9.8-53.6,14.8-80.5
			L890.7,497.4z"/>
		<path class="st16" d="M1134.4,595.5l18.8-20.2c4.9-26.8,9.8-53.7,14.7-80.5l-27.8,41.8C1138.3,556.2,1136.3,575.8,1134.4,595.5z"
			/>
		<path class="st17" d="M1097.7,545.1l36.7,50.4l8.2-83C1127.6,523.3,1112.7,534.2,1097.7,545.1z"/>
		<polygon class="st18" points="914,581.4 943.5,534.1 892.1,504.9 		"/>
		<path class="st15" d="M934.9,547.8l29.3,76.3L914,581.4L934.9,547.8z"/>
		<polygon class="st18" points="964,624.3 978.3,563.3 936.6,545.1 934.9,547.8 		"/>
		<polygon class="st19" points="989.7,645.8 978.4,561.9 964,624.3 		"/>
		<polygon class="st16" points="1009.6,682.2 1041.1,655.1 1041.1,696.2 		"/>
		<polygon class="st20" points="978.3,563.3 1009.6,599.2 1061.8,566.3 		"/>
		<polygon class="st19" points="1041.1,655.1 1061.7,566.3 1009.6,599.2 1009.6,682.2 		"/>
		<polygon class="st16" points="1105.2,555.4 1106.3,655.1 1134.4,595.5 		"/>
		<path class="st15" d="M1041.1,655.1l40.1-25c8-24.9,16-49.8,24-74.7l-43.5,11L1041.1,655.1z"/>
		<polygon class="st19" points="1106.3,655.1 1081.3,630.1 1105.2,555.3 		"/>
		<polygon class="st16" points="1041.1,696.2 1081.3,630.1 1106.3,655.1 		"/>
		<path class="st21" d="M929.9,545.1c-54.3-31.3-54.3-82.6-0.1-114c54.3-31.4,143.1-31.4,197.4,0s54.3,82.7,0.1,114
			C1073,576.4,984.2,576.4,929.9,545.1z"/>
		<path class="st22" d="M1127.3,545.1c-13.4,7.6-27.8,13.2-42.8,16.8h-53.8V437.5h106.5C1181.3,469.1,1178,515.8,1127.3,545.1z"/>
		<polygon class="st23" points="1155.4,489.8 1149.7,480 1030.6,548.8 911.4,480 900.1,486.5 1030.6,561.9 		"/>
		<polygon class="st24" points="1149.7,480 1030.6,411.1 911.4,480 1030.6,548.8 		"/>
		<polygon class="st23" points="1138.4,480 1132.7,470.1 1030.6,529 928.4,470.1 922.7,480 1030.6,542.1 		"/>
		<polygon class="st24" points="1132.7,470.1 1030.6,411.1 928.4,470.1 1030.6,529 		"/>
		<polygon class="st23" points="1121.4,470.1 1115.7,460.3 1030.6,509.3 945.4,460.3 939.7,470.1 1030.6,522.6 		"/>
		<polygon class="st24" points="1115.7,460.3 1030.6,411.1 945.4,460.3 1030.6,509.3 		"/>
		<polygon class="st23" points="1098.5,450.5 1104.2,460.3 1030.6,502.9 956.7,460.3 962.4,450.5 1030.6,489.8 		"/>
		<polygon class="st24" points="1098.5,450.5 1030.4,489.8 962.4,450.5 1030.4,411.1 		"/>
		<polygon class="st23" points="1030.6,476.7 1087.2,443.9 1087.2,450.5 1030.6,483.4 973.7,450.5 973.7,443.9 		"/>
		<polygon class="st24" points="1064.3,417.7 1030.4,398 996.6,417.7 1030.6,437.4 		"/>
		<polygon class="st23" points="1030.6,437.4 1064.3,417.7 1064.3,444 1064.2,444 1030.6,463.6 996.7,444 996.6,444 996.6,417.7 		
			"/>
		<path class="st25" d="M1047.6,466.8l22.7-13.1l16.8,29.3l23,39.3l-22.8,13.3c-7-12.5-14.1-24.9-21.3-37.3
			C1059.9,487.8,1053.7,477.3,1047.6,466.8z"/>
		<polygon class="st25" points="1013.6,466.7 973.9,535.7 951.1,522.6 990.9,453.7 		"/>
		<path class="st26" d="M1083.5,529.2l3.8,6.5l-0.1-0.1l0,0l-0.4-0.2l-5.3-2.9l-4-10.9l-5.7-3.2l-3-11.4l-5.5-3.4l-3-11.4l-5.8-3.2
			l-2.8-11.5l-4.2-4l-0.1-6.7C1047.5,466.8,1074.7,513.8,1083.5,529.2z"/>
		<path class="st26" d="M977.8,529.2l-3.8,6.5l0.1-0.1l0,0l0.4-0.2l5.2-2.9l4-10.9l5.7-3.2l2.9-11.4l5.4-3.4l3-11.4l5.7-3.2
			l2.8-11.5l4.2-4c0-2.2,0.1-4.5,0.1-6.7C1013.6,466.8,986.5,513.8,977.8,529.2z"/>
		<line class="st9" x1="1070.3" y1="453.8" x2="1047.6" y2="466.6"/>
		<line class="st9" x1="1071.2" y1="455.3" x2="1048.5" y2="468.1"/>
		<line class="st9" x1="1072" y1="456.8" x2="1049.4" y2="469.6"/>
		<line class="st9" x1="1072.9" y1="458.2" x2="1050.2" y2="471.2"/>
		<line class="st9" x1="1073.8" y1="459.7" x2="1051.1" y2="472.7"/>
		<line class="st9" x1="1074.6" y1="461.2" x2="1052" y2="474.2"/>
		<line class="st9" x1="1075.5" y1="462.7" x2="1052.8" y2="475.7"/>
		<line class="st9" x1="1076.4" y1="464.2" x2="1053.7" y2="477.2"/>
		<line class="st9" x1="1077.2" y1="465.7" x2="1054.5" y2="478.7"/>
		<line class="st9" x1="1078.1" y1="467.2" x2="1055.4" y2="480.2"/>
		<line class="st9" x1="1079" y1="468.7" x2="1056.3" y2="481.7"/>
		<line class="st9" x1="1079.8" y1="470.2" x2="1057.1" y2="483.2"/>
		<line class="st9" x1="1080.7" y1="471.7" x2="1058" y2="484.7"/>
		<line class="st9" x1="1081.6" y1="473.2" x2="1058.8" y2="486.2"/>
		<line class="st9" x1="1082.4" y1="474.7" x2="1059.7" y2="487.7"/>
		<line class="st9" x1="1083.3" y1="476.2" x2="1060.6" y2="489.2"/>
		<line class="st9" x1="1084.2" y1="477.7" x2="1061.4" y2="490.7"/>
		<line class="st9" x1="1085" y1="479.2" x2="1062.3" y2="492.2"/>
		<line class="st9" x1="1085.9" y1="480.7" x2="1063.2" y2="493.7"/>
		<line class="st9" x1="1086.8" y1="482.1" x2="1064" y2="495.2"/>
		<line class="st9" x1="1087.6" y1="483.6" x2="1064.9" y2="496.7"/>
		<line class="st9" x1="1088.5" y1="485.1" x2="1065.7" y2="498.2"/>
		<line class="st9" x1="1089.4" y1="486.6" x2="1066.6" y2="499.7"/>
		<line class="st9" x1="1090.2" y1="488.1" x2="1067.5" y2="501.2"/>
		<line class="st9" x1="1091.1" y1="489.6" x2="1068.3" y2="502.7"/>
		<line class="st9" x1="1091.9" y1="491.1" x2="1069.2" y2="504.2"/>
		<line class="st9" x1="1092.8" y1="492.6" x2="1070.1" y2="505.7"/>
		<line class="st9" x1="1093.7" y1="494.1" x2="1070.9" y2="507.2"/>
		<line class="st9" x1="1094.5" y1="495.6" x2="1071.8" y2="508.7"/>
		<line class="st9" x1="1095.4" y1="497.1" x2="1072.6" y2="510.2"/>
		<line class="st9" x1="1096.3" y1="498.6" x2="1073.5" y2="511.7"/>
		<line class="st9" x1="1097.1" y1="500.1" x2="1074.4" y2="513.2"/>
		<line class="st9" x1="1098" y1="501.6" x2="1075.2" y2="514.7"/>
		<line class="st9" x1="1098.9" y1="503.1" x2="1076.1" y2="516.3"/>
		<line class="st9" x1="1099.7" y1="504.6" x2="1076.9" y2="517.8"/>
		<line class="st9" x1="1100.6" y1="506.1" x2="1077.8" y2="519.3"/>
		<line class="st9" x1="1101.5" y1="507.6" x2="1078.7" y2="520.8"/>
		<line class="st9" x1="1102.3" y1="509" x2="1079.5" y2="522.3"/>
		<line class="st9" x1="1103.2" y1="510.5" x2="1080.4" y2="523.8"/>
		<line class="st9" x1="1104.1" y1="512" x2="1081.3" y2="525.3"/>
		<line class="st9" x1="1104.9" y1="513.5" x2="1082.1" y2="526.8"/>
		<line class="st9" x1="1105.8" y1="515" x2="1083" y2="528.3"/>
		<line class="st9" x1="1106.7" y1="516.5" x2="1083.8" y2="529.8"/>
		<line class="st9" x1="1107.5" y1="518" x2="1084.7" y2="531.3"/>
		<line class="st9" x1="1108.4" y1="519.5" x2="1085.6" y2="532.8"/>
		<line class="st9" x1="1109.3" y1="521" x2="1086.4" y2="534.3"/>
		<line class="st9" x1="1110.1" y1="522.5" x2="1087.3" y2="535.8"/>
		<line class="st9" x1="990.8" y1="453.8" x2="1013.5" y2="466.6"/>
		<line class="st9" x1="989.9" y1="455.3" x2="1012.6" y2="468.1"/>
		<line class="st9" x1="989.1" y1="456.8" x2="1011.7" y2="469.6"/>
		<line class="st9" x1="988.2" y1="458.2" x2="1010.9" y2="471.2"/>
		<line class="st9" x1="987.3" y1="459.7" x2="1010" y2="472.7"/>
		<line class="st9" x1="986.5" y1="461.2" x2="1009.2" y2="474.2"/>
		<line class="st9" x1="985.6" y1="462.7" x2="1008.3" y2="475.7"/>
		<line class="st9" x1="984.7" y1="464.2" x2="1007.4" y2="477.2"/>
		<line class="st9" x1="983.9" y1="465.7" x2="1006.6" y2="478.7"/>
		<line class="st9" x1="983" y1="467.2" x2="1005.7" y2="480.2"/>
		<line class="st9" x1="982.1" y1="468.7" x2="1004.8" y2="481.7"/>
		<line class="st9" x1="981.3" y1="470.2" x2="1004" y2="483.2"/>
		<line class="st9" x1="980.4" y1="471.7" x2="1003.1" y2="484.7"/>
		<line class="st9" x1="979.5" y1="473.2" x2="1002.3" y2="486.2"/>
		<line class="st9" x1="978.7" y1="474.7" x2="1001.4" y2="487.7"/>
		<line class="st9" x1="977.8" y1="476.2" x2="1000.5" y2="489.2"/>
		<line class="st9" x1="977" y1="477.7" x2="999.7" y2="490.7"/>
		<line class="st9" x1="976.1" y1="479.2" x2="998.8" y2="492.2"/>
		<line class="st9" x1="975.2" y1="480.7" x2="998" y2="493.7"/>
		<line class="st9" x1="974.4" y1="482.1" x2="997.1" y2="495.2"/>
		<line class="st9" x1="973.5" y1="483.6" x2="996.2" y2="496.7"/>
		<line class="st9" x1="972.6" y1="485.1" x2="995.4" y2="498.2"/>
		<line class="st9" x1="971.8" y1="486.6" x2="994.5" y2="499.7"/>
		<line class="st9" x1="970.9" y1="488.1" x2="993.6" y2="501.2"/>
		<line class="st9" x1="970" y1="489.6" x2="992.8" y2="502.7"/>
		<line class="st9" x1="969.2" y1="491.1" x2="991.9" y2="504.2"/>
		<line class="st9" x1="968.3" y1="492.6" x2="991.1" y2="505.7"/>
		<line class="st9" x1="967.4" y1="494.1" x2="990.2" y2="507.2"/>
		<line class="st9" x1="966.6" y1="495.6" x2="989.3" y2="508.7"/>
		<line class="st9" x1="965.7" y1="497.1" x2="988.5" y2="510.2"/>
		<line class="st9" x1="964.8" y1="498.6" x2="987.6" y2="511.7"/>
		<line class="st9" x1="964" y1="500.1" x2="986.7" y2="513.2"/>
		<line class="st9" x1="963.1" y1="501.6" x2="985.9" y2="514.7"/>
		<line class="st9" x1="962.2" y1="503.1" x2="985" y2="516.3"/>
		<line class="st9" x1="961.4" y1="504.6" x2="984.2" y2="517.8"/>
		<line class="st9" x1="960.5" y1="506.1" x2="983.3" y2="519.3"/>
		<line class="st9" x1="959.6" y1="507.6" x2="982.4" y2="520.8"/>
		<line class="st9" x1="958.8" y1="509" x2="981.6" y2="522.3"/>
		<line class="st9" x1="957.9" y1="510.5" x2="980.7" y2="523.8"/>
		<line class="st9" x1="957" y1="512" x2="979.9" y2="525.3"/>
		<line class="st9" x1="956.2" y1="513.5" x2="979" y2="526.8"/>
		<line class="st9" x1="955.3" y1="515" x2="978.1" y2="528.3"/>
		<line class="st9" x1="954.4" y1="516.5" x2="977.3" y2="529.8"/>
		<line class="st9" x1="953.6" y1="518" x2="976.4" y2="531.3"/>
		<line class="st9" x1="952.7" y1="519.5" x2="975.5" y2="532.8"/>
		<line class="st9" x1="951.8" y1="521" x2="974.7" y2="534.3"/>
		<line class="st9" x1="951" y1="522.5" x2="973.8" y2="535.8"/>
		<path class="st27" d="M1030.7,437.4l33.8-19.7v12.9l85.1,49.4l5.9,9.8l-48.2,27.9l2.9,4.9l-22.9,13.3l-5.7-3.3l-51,29.3v-13.1
			l11.3-6.5l-11.3-0.2v-13l11.3-6.3l-11.3-0.1v-13.3l11.1-6.3l-11.1-0.1l-0.2-13.1l11.5-6.3l-11.3-0.1v-6.6l17-10l-17-3.1"/>
		<polygon class="st27" points="1057.6,448 1057.6,428.4 1040.6,438.1 1040.6,457.7 		"/>
		<path class="st28" d="M1054.7,446.3V430l-14.1,8v16.4L1054.7,446.3z"/>
		<path class="st29" d="M697.3,187.5l0.8,33.9l10.8,14.4v15.7l15.8,22.8l7.9,25.1l55.3,27.4l23.7,27.4l23.7,22.8l38.5-6.4l24.7-18
			l10.6-12.1l21-9.1l13.3-22.8l21.4-7.4l4.8-24.6l11.8-13.7l6.9-18.2l4.3-63.7l-240.4-32.2L697.3,187.5z"/>
		<path class="st30" d="M741.9,266.4l-16.7-5.1l-2.5-5.1l-5.4-4.4l2.9-1.6l2.8,1.2h6.6l-6.6-4.9l-8.4-2.2l-5.8-13.4l-3.9-13.7v-16
			l-7.3-14.1l-0.4,0.3l0.8,33.9l10.8,14.4v15.7l15.8,22.8l7.9,25.1l2.6,1.3c-0.3-6.9-0.6-13.8-0.9-20.7l-4.9-10l6.8-1.3l5.1,3.2h6.7
			L741.9,266.4z"/>
		<path class="st31" d="M959.4,176.5L946,189.8l-51.3,43.4L825.9,262l0.5-3.8l-60.5-4.3l1,2.1l5.4,5.2l31,8.4l12.4,5.5l4-0.9
			l15.5,6.9l1.5,8.5l-28.6,5.5l-20.9-6l12.3,10.4l19.7,4.3l6.2,4.4l-0.4,0.3c1.1,4.8,2.2,9.5,3.3,14.3l-8.8,9.3
			c-4.2,5.4-8.5,10.8-12.7,16.2l5,5.8l23.7,22.8l38.5-6.4l24.7-18l10.6-12.1l21-9.1l13.3-22.8l21.4-7.4l4.8-24.6l11.8-13.7l6.9-18.2
			l4.3-63.7L959.4,176.5z"/>
		<path class="st32" d="M740.9,120.1c58.6-33.9,152.9-35,209.5-2.4s56.6,88,0.1,123.2s-150.8,36.3-209.5,2.4S682.2,154,740.9,120.1z
			"/>
		<path class="st33" d="M743.9,138.4l-6,10.3c-0.3,0.6-0.1,1.3,0.4,1.6l0,0l5.9,3.4c0.4,0.2,0.8,0.2,1.2,0l5.9-3.4
			c0.6-0.3,0.8-1.1,0.4-1.6l0,0l-5.9-10.3c-0.4-0.6-1.1-0.7-1.7-0.4C744.1,138.1,744,138.2,743.9,138.4z"/>
		<path class="st34" d="M745.9,138.4c-0.2-0.4-0.6-0.6-1-0.6v16c0.2,0,0.4-0.1,0.6-0.2l5.9-3.4c0.6-0.3,0.8-1.1,0.4-1.6l0,0
			L745.9,138.4z"/>
		<path class="st33" d="M743.9,138.4l-6,10.3c-0.3,0.6-0.1,1.3,0.4,1.6l5.9,3.4c0.4,0.2,0.8,0.2,1.2,0l5.9-3.4
			c0.6-0.3,0.8-1.1,0.4-1.6l-5.9-10.3c-0.4-0.6-1.1-0.7-1.7-0.4C744.1,138.1,744,138.3,743.9,138.4z"/>
		<path class="st34" d="M745.9,138.4c-0.2-0.4-0.6-0.6-1-0.6v16c0.2,0,0.4-0.1,0.6-0.2l5.9-3.4c0.6-0.3,0.8-1.1,0.4-1.6L745.9,138.4
			z"/>
		<path class="st33" d="M743.9,129.7l-6,10.3c-0.3,0.6-0.1,1.3,0.4,1.6l5.9,3.4c0.4,0.2,0.8,0.2,1.2,0l5.9-3.4
			c0.6-0.3,0.8-1.1,0.4-1.6l0,0l-5.9-10.2c-0.4-0.6-1.1-0.7-1.7-0.4C744.1,129.5,744,129.6,743.9,129.7z"/>
		<path class="st34" d="M745.9,129.7c-0.2-0.4-0.6-0.6-1-0.6v16.1c0.2,0,0.4-0.1,0.6-0.2l5.9-3.4c0.6-0.3,0.8-1.1,0.4-1.6l0,0
			L745.9,129.7z"/>
		<path class="st33" d="M736.3,134.1l-5.9,10.2c-0.3,0.6-0.1,1.3,0.4,1.6l0,0l5.9,3.4c0.4,0.2,0.8,0.2,1.2,0l5.9-3.4
			c0.6-0.3,0.8-1.1,0.4-1.6l-5.9-10.3c-0.3-0.6-1.1-0.8-1.6-0.4C736.6,133.7,736.4,133.9,736.3,134.1z"/>
		<path class="st34" d="M738.4,134.1c-0.2-0.4-0.6-0.6-1-0.6v16.1c0.2,0,0.4-0.1,0.6-0.2l5.9-3.4c0.6-0.3,0.8-1.1,0.4-1.6
			L738.4,134.1z"/>
		<path class="st33" d="M751.5,134.1l-5.9,10.2c-0.3,0.6-0.1,1.3,0.4,1.6l0,0l5.9,3.4c0.4,0.2,0.8,0.2,1.2,0l5.9-3.4
			c0.6-0.3,0.8-1.1,0.4-1.6l-5.9-10.3c-0.3-0.6-1.1-0.8-1.6-0.4C751.7,133.7,751.6,133.9,751.5,134.1z"/>
		<path class="st34" d="M753.6,134.1c-0.2-0.4-0.6-0.6-1-0.6v16.1c0.2,0,0.4-0.1,0.6-0.2l5.9-3.4c0.6-0.3,0.8-1.1,0.4-1.6
			L753.6,134.1z"/>
		<path class="st33" d="M751.4,134.1l-5.9,10.2c-0.3,0.6-0.1,1.3,0.4,1.6l6,3.4c0.4,0.2,0.8,0.2,1.2,0l5.9-3.4
			c0.6-0.3,0.8-1,0.5-1.6l0,0l-5.9-10.3c-0.3-0.6-1-0.8-1.6-0.5C751.7,133.7,751.5,133.9,751.4,134.1z"/>
		<path class="st34" d="M753.5,134.1c-0.2-0.4-0.6-0.6-1-0.6v16.1c0.2,0,0.4-0.1,0.6-0.2l5.9-3.4c0.6-0.3,0.8-1,0.5-1.6l0,0
			L753.5,134.1z"/>
		<path class="st33" d="M759,138.4l-5.9,10.3c-0.3,0.6-0.1,1.3,0.5,1.6l5.9,3.4c0.4,0.2,0.8,0.2,1.2,0l5.9-3.4
			c0.6-0.3,0.8-1.1,0.4-1.6l-5.9-10.3c-0.3-0.6-1.1-0.8-1.7-0.4C759.2,138.1,759.1,138.2,759,138.4z"/>
		<path class="st34" d="M761.1,138.4c-0.2-0.4-0.6-0.6-1-0.6v16c0.2,0,0.4-0.1,0.6-0.2l5.9-3.4c0.6-0.3,0.8-1.1,0.4-1.6L761.1,138.4
			z"/>
		<path class="st33" d="M751.4,142.7l-5.9,10.3c-0.3,0.6-0.1,1.3,0.4,1.6l6,3.4c0.4,0.2,0.8,0.2,1.2,0l5.9-3.4
			c0.6-0.3,0.8-1,0.5-1.6l0,0l-5.9-10.3c-0.3-0.6-1-0.8-1.6-0.5C751.7,142.3,751.5,142.5,751.4,142.7z"/>
		<path class="st34" d="M753.5,142.7c-0.2-0.4-0.6-0.6-1-0.6v16c0.2,0,0.4-0.1,0.6-0.2l5.9-3.4c0.6-0.3,0.8-1,0.5-1.6l0,0
			L753.5,142.7z"/>
		<path class="st33" d="M735.9,143.8L730,154c-0.3,0.6-0.1,1.3,0.4,1.6l0,0l5.9,3.4c0.4,0.2,0.8,0.2,1.2,0l5.9-3.4
			c0.6-0.3,0.8-1.1,0.4-1.6l-5.9-10.3c-0.3-0.6-1.1-0.8-1.6-0.4C736.1,143.5,736,143.6,735.9,143.8z"/>
		<path class="st34" d="M738,143.8c-0.2-0.4-0.6-0.6-1-0.6v16.1c0.2,0,0.4-0.1,0.6-0.2l5.9-3.4c0.6-0.3,0.8-1.1,0.4-1.6L738,143.8z"
			/>
		<path class="st33" d="M728.3,148.2l-5.9,10.3c-0.3,0.6-0.1,1.3,0.4,1.6l0,0l5.9,3.4c0.4,0.2,0.8,0.2,1.2,0l5.9-3.4
			c0.6-0.3,0.8-1.1,0.4-1.6l-5.9-10.2c-0.3-0.6-1.1-0.8-1.6-0.4C728.6,147.8,728.5,148,728.3,148.2z"/>
		<path class="st34" d="M730.4,148.2c-0.2-0.4-0.6-0.6-1-0.6v16.1c0.2,0,0.4-0.1,0.6-0.2l5.9-3.4c0.6-0.3,0.8-1.1,0.4-1.6
			L730.4,148.2z"/>
		<path class="st33" d="M743.5,148.2l-5.9,10.3c-0.3,0.6-0.1,1.3,0.4,1.6l0,0l5.9,3.4c0.4,0.2,0.8,0.2,1.2,0l5.9-3.4
			c0.6-0.3,0.8-1.1,0.4-1.6l-5.9-10.2c-0.3-0.6-1-0.8-1.6-0.5C743.8,147.8,743.6,147.9,743.5,148.2z"/>
		<path class="st34" d="M745.6,148.2c-0.2-0.4-0.6-0.6-1-0.6v16.1c0.2,0,0.4-0.1,0.6-0.2l5.9-3.4c0.6-0.3,0.8-1.1,0.4-1.6
			L745.6,148.2z"/>
		<path class="st33" d="M735.9,152.4l-5.9,10.3c-0.3,0.6-0.1,1.3,0.4,1.6l0,0l5.9,3.4c0.4,0.2,0.8,0.2,1.2,0l5.9-3.4
			c0.6-0.3,0.8-1.1,0.4-1.6l-5.9-10.2c-0.3-0.6-1.1-0.8-1.6-0.4C736.1,152.1,736,152.3,735.9,152.4z"/>
		<path class="st34" d="M738,152.5c-0.2-0.4-0.6-0.6-1-0.6V168c0.2,0,0.4-0.1,0.6-0.2l5.9-3.4c0.6-0.3,0.8-1.1,0.4-1.6L738,152.5z"
			/>
		<path class="st33" d="M719.7,151.1l-5.9,10.2c-0.3,0.6-0.1,1.3,0.4,1.6l0,0l5.9,3.4c0.4,0.2,0.8,0.2,1.2,0l5.9-3.4
			c0.6-0.3,0.8-1.1,0.4-1.6l-5.9-10.3c-0.3-0.6-1.1-0.8-1.6-0.4C719.9,150.7,719.8,150.9,719.7,151.1z"/>
		<path class="st34" d="M721.7,151.1c-0.2-0.4-0.6-0.6-1-0.6v16.1c0.2,0,0.4-0.1,0.6-0.2l5.9-3.4c0.6-0.3,0.8-1.1,0.4-1.6
			L721.7,151.1z"/>
		<path class="st33" d="M712.1,155.4l-5.9,10.3c-0.3,0.6-0.1,1.3,0.4,1.6l0,0l5.9,3.4c0.4,0.2,0.8,0.2,1.2,0l5.9-3.4
			c0.6-0.3,0.8-1.1,0.4-1.6l0,0l-5.9-10.3c-0.3-0.6-1.1-0.8-1.6-0.4C712.4,155.1,712.2,155.2,712.1,155.4z"/>
		<path class="st34" d="M714.2,155.4c-0.2-0.4-0.6-0.6-1-0.6v16c0.2,0,0.4-0.1,0.6-0.2l5.9-3.4c0.6-0.3,0.8-1.1,0.4-1.6l0,0
			L714.2,155.4z"/>
		<path class="st33" d="M727.2,155.4l-5.9,10.3c-0.3,0.6-0.1,1.3,0.4,1.6l0,0l5.9,3.4c0.4,0.2,0.8,0.2,1.2,0l5.9-3.4
			c0.6-0.3,0.8-1.1,0.4-1.6l0,0l-5.9-10.3c-0.3-0.6-1.1-0.8-1.6-0.4C727.5,155.1,727.4,155.2,727.2,155.4z"/>
		<path class="st34" d="M729.3,155.4c-0.2-0.4-0.6-0.6-1-0.6v16c0.2,0,0.4-0.1,0.6-0.2l5.9-3.4c0.6-0.3,0.8-1.1,0.4-1.6l0,0
			L729.3,155.4z"/>
		<path class="st33" d="M719.7,159.7l-5.9,10.3c-0.3,0.6-0.1,1.3,0.4,1.6l0,0l5.9,3.4c0.4,0.2,0.8,0.2,1.2,0l5.9-3.4
			c0.6-0.3,0.8-1.1,0.4-1.6l-5.9-10.3c-0.3-0.6-1-0.8-1.6-0.5C719.9,159.4,719.8,159.5,719.7,159.7z"/>
		<path class="st34" d="M721.7,159.7c-0.2-0.4-0.6-0.6-1-0.6v16c0.2,0,0.4-0.1,0.6-0.2l5.9-3.4c0.6-0.3,0.8-1.1,0.4-1.6L721.7,159.7
			z"/>
		<path class="st33" d="M735.4,158.3l-5.9,10.3c-0.3,0.6-0.1,1.3,0.4,1.6l0,0l5.9,3.4c0.4,0.2,0.8,0.2,1.2,0l5.9-3.4
			c0.6-0.3,0.8-1.1,0.4-1.6l0,0l-5.9-10.3c-0.3-0.6-1.1-0.8-1.6-0.4C735.7,158,735.6,158.2,735.4,158.3z"/>
		<path class="st34" d="M737.6,158.3c-0.2-0.4-0.6-0.6-1-0.6v16.1c0.2,0,0.4-0.1,0.6-0.2l5.9-3.4c0.6-0.3,0.8-1.1,0.4-1.6l0,0
			L737.6,158.3z"/>
		<path class="st33" d="M727.9,162.7l-5.9,10.2c-0.3,0.6-0.1,1.3,0.4,1.6l0,0l5.9,3.4c0.4,0.2,0.8,0.2,1.2,0l5.9-3.4
			c0.6-0.3,0.8-1.1,0.4-1.6l0,0l-5.9-10.3c-0.3-0.6-1.1-0.8-1.6-0.4C728.2,162.4,728,162.5,727.9,162.7z"/>
		<path class="st34" d="M730,162.7c-0.2-0.4-0.6-0.6-1-0.6v16c0.2,0,0.4-0.1,0.6-0.2l5.9-3.4c0.6-0.3,0.8-1.1,0.4-1.6l0,0L730,162.7
			z"/>
		<path class="st33" d="M749.6,160.5l-5.9,10.3c-0.3,0.6-0.1,1.3,0.4,1.6l0,0l5.9,3.4c0.4,0.2,0.8,0.2,1.2,0l5.9-3.4
			c0.6-0.3,0.8-1.1,0.4-1.6l0,0l-5.9-10.3c-0.3-0.6-1.1-0.8-1.6-0.4C749.8,160.2,749.7,160.4,749.6,160.5z"/>
		<path class="st34" d="M751.7,160.5c-0.2-0.4-0.6-0.6-1-0.6V176c0.2,0,0.4-0.1,0.6-0.2l5.9-3.4c0.6-0.3,0.8-1.1,0.4-1.6l0,0
			L751.7,160.5z"/>
		<path class="st33" d="M742,164.8l-5.9,10.3c-0.3,0.6-0.1,1.3,0.5,1.6l5.9,3.4c0.4,0.2,0.8,0.2,1.2,0l5.9-3.4
			c0.6-0.3,0.8-1.1,0.4-1.6l-5.9-10.2c-0.3-0.6-1.1-0.8-1.7-0.4C742.2,164.5,742.1,164.7,742,164.8z"/>
		<path class="st34" d="M744.1,164.8c-0.2-0.4-0.6-0.6-1-0.6v16.1c0.2,0,0.4-0.1,0.6-0.2l5.9-3.4c0.6-0.3,0.8-1.1,0.4-1.6
			L744.1,164.8z"/>
		<path class="st33" d="M722,164.2l-5.9,10.3c-0.3,0.6-0.1,1.3,0.4,1.6l5.9,3.4c0.4,0.2,0.8,0.2,1.2,0l5.9-3.4
			c0.6-0.3,0.8-1.1,0.5-1.6l-5.9-10.2c-0.3-0.6-1.1-0.8-1.7-0.4C722.3,163.8,722.1,164,722,164.2z"/>
		<path class="st34" d="M724.1,164.2c-0.2-0.4-0.6-0.6-1-0.6v16.1c0.2,0,0.4-0.1,0.6-0.2l5.9-3.4c0.6-0.3,0.8-1.1,0.4-1.6
			L724.1,164.2z"/>
		<path class="st33" d="M714.5,168.5l-6,10.3c-0.3,0.6-0.1,1.3,0.4,1.6l0,0l5.9,3.4c0.4,0.2,0.8,0.2,1.2,0l5.9-3.4
			c0.6-0.3,0.8-1.1,0.4-1.6l0,0l-5.9-10.3c-0.4-0.6-1.1-0.7-1.7-0.4C714.7,168.2,714.6,168.4,714.5,168.5z"/>
		<path class="st34" d="M716.6,168.5c-0.2-0.4-0.6-0.6-1-0.6V184c0.2,0,0.4-0.1,0.6-0.2l5.9-3.4c0.6-0.3,0.8-1.1,0.4-1.6l0,0
			L716.6,168.5z"/>
		<path class="st33" d="M729.6,168.5l-6,10.3c-0.3,0.6-0.1,1.3,0.4,1.6l0,0l5.9,3.4c0.4,0.2,0.8,0.2,1.2,0l5.9-3.4
			c0.6-0.3,0.8-1.1,0.4-1.6l0,0l-5.9-10.3c-0.4-0.6-1.1-0.7-1.7-0.4C729.8,168.2,729.7,168.4,729.6,168.5z"/>
		<path class="st34" d="M731.7,168.5c-0.2-0.4-0.6-0.6-1-0.6V184c0.2,0,0.4-0.1,0.6-0.2l5.9-3.4c0.6-0.3,0.8-1.1,0.4-1.6l0,0
			L731.7,168.5z"/>
		<path class="st33" d="M722,172.8l-5.9,10.3c-0.3,0.6-0.1,1.3,0.4,1.6l0,0l5.9,3.4c0.4,0.2,0.8,0.2,1.2,0l5.9-3.4
			c0.6-0.3,0.8-1.1,0.5-1.6l0,0l-5.9-10.3c-0.3-0.6-1.1-0.8-1.7-0.4C722.3,172.5,722.1,172.6,722,172.8z"/>
		<path class="st34" d="M724.1,172.8c-0.2-0.4-0.6-0.6-1-0.6v16.1c0.2,0,0.4-0.1,0.6-0.2l5.9-3.4c0.6-0.3,0.8-1.1,0.5-1.6l0,0
			L724.1,172.8z"/>
		<path class="st33" d="M805.9,92.4l-5.9,10.3c-0.3,0.6-0.1,1.3,0.4,1.6l0,0l5.9,3.4c0.4,0.2,0.8,0.2,1.2,0l5.9-3.4
			c0.6-0.3,0.8-1.1,0.4-1.6l0,0l-5.9-10.3c-0.3-0.6-1.1-0.8-1.6-0.4C806.1,92,806,92.2,805.9,92.4z"/>
		<path class="st34" d="M807.9,92.4c-0.2-0.4-0.6-0.6-1-0.6v16c0.2,0,0.4-0.1,0.6-0.2l5.9-3.4c0.6-0.3,0.8-1.1,0.4-1.6l0,0
			L807.9,92.4z"/>
		<path class="st33" d="M798.3,96.7l-5.9,10.2c-0.3,0.6-0.1,1.3,0.4,1.6l0,0l5.9,3.4c0.4,0.2,0.8,0.2,1.2,0l5.9-3.4
			c0.6-0.3,0.8-1.1,0.4-1.6l-5.9-10.3c-0.3-0.6-1.1-0.8-1.6-0.4C798.5,96.3,798.4,96.5,798.3,96.7z"/>
		<path class="st34" d="M800.4,96.7c-0.2-0.4-0.6-0.6-1-0.6v16c0.2,0,0.4-0.1,0.6-0.2l5.9-3.4c0.6-0.3,0.8-1.1,0.4-1.6L800.4,96.7z"
			/>
		<path class="st33" d="M782.8,97.8l-5.9,10.2c-0.3,0.6-0.1,1.3,0.4,1.7l6,3.4c0.4,0.2,0.8,0.2,1.2,0l5.9-3.4c0.6-0.3,0.8-1,0.5-1.6
			l0,0L785,97.8c-0.3-0.6-1-0.8-1.6-0.5C783,97.4,782.9,97.6,782.8,97.8z"/>
		<path class="st34" d="M784.8,97.8c-0.2-0.4-0.6-0.6-1-0.6v16c0.2,0,0.4-0.1,0.6-0.2l5.9-3.4c0.6-0.3,0.8-1,0.5-1.6l0,0L784.8,97.8
			z"/>
		<path class="st33" d="M775.2,102.1l-6,10.3c-0.3,0.6-0.1,1.3,0.4,1.7l5.9,3.4c0.4,0.2,0.8,0.2,1.2,0l5.9-3.4
			c0.6-0.3,0.8-1.1,0.4-1.7l-5.9-10.2c-0.4-0.6-1.1-0.7-1.7-0.4C775.4,101.8,775.3,102,775.2,102.1z"/>
		<path class="st34" d="M777.3,102.1c-0.2-0.4-0.6-0.6-1-0.6v16.1c0.2,0,0.4-0.1,0.6-0.2l5.9-3.4c0.6-0.3,0.8-1.1,0.4-1.7
			L777.3,102.1z"/>
		<path class="st33" d="M790.3,102.1l-5.9,10.3c-0.3,0.6-0.1,1.3,0.4,1.7l5.9,3.4c0.4,0.2,0.8,0.2,1.2,0l5.9-3.4
			c0.6-0.3,0.8-1.1,0.4-1.7l-5.9-10.2c-0.3-0.6-1.1-0.8-1.7-0.4C790.6,101.8,790.5,101.9,790.3,102.1z"/>
		<path class="st34" d="M792.4,102.1c-0.2-0.4-0.6-0.6-1-0.6v16.1c0.2,0,0.4-0.1,0.6-0.2l5.9-3.4c0.6-0.3,0.8-1.1,0.4-1.7
			L792.4,102.1z"/>
		<path class="st33" d="M782.8,106.4l-5.9,10.3c-0.3,0.6-0.1,1.3,0.4,1.7l6,3.4c0.4,0.2,0.8,0.2,1.2,0l5.9-3.4
			c0.6-0.3,0.8-1,0.5-1.6l0,0l-5.9-10.3c-0.3-0.6-1-0.8-1.6-0.5C783,106,782.9,106.2,782.8,106.4z"/>
		<path class="st34" d="M784.8,106.4c-0.2-0.4-0.6-0.6-1-0.6v16.1c0.2,0,0.4-0.1,0.6-0.2l5.9-3.4c0.6-0.3,0.8-1,0.5-1.6l0,0
			L784.8,106.4z"/>
		<path class="st33" d="M766.6,105l-6,10.3c-0.3,0.6-0.1,1.3,0.4,1.6l6,3.4c0.4,0.2,0.8,0.2,1.2,0l5.9-3.4c0.6-0.3,0.8-1,0.5-1.6
			l0,0l-6-10.3c-0.4-0.6-1.1-0.7-1.7-0.3C766.8,104.8,766.7,104.9,766.6,105z"/>
		<path class="st34" d="M768.6,105c-0.2-0.4-0.6-0.6-1-0.6v16c0.2,0,0.4-0.1,0.6-0.2l5.9-3.4c0.6-0.3,0.8-1,0.5-1.6l0,0L768.6,105z"
			/>
		<path class="st33" d="M759,109.4l-5.9,10.2c-0.3,0.6-0.1,1.3,0.5,1.7l5.9,3.4c0.4,0.2,0.8,0.2,1.2,0l5.9-3.4
			c0.6-0.3,0.8-1.1,0.4-1.6l-5.9-10.3c-0.3-0.6-1.1-0.8-1.7-0.4C759.2,109.1,759.1,109.2,759,109.4z"/>
		<path class="st34" d="M761.1,109.4c-0.2-0.4-0.6-0.6-1-0.6v16c0.2,0,0.4-0.1,0.6-0.2l5.9-3.4c0.6-0.3,0.8-1.1,0.4-1.6L761.1,109.4
			z"/>
		<path class="st33" d="M774.1,109.4l-5.9,10.2c-0.3,0.6-0.1,1.3,0.4,1.7l5.9,3.4c0.4,0.2,0.8,0.2,1.2,0l5.9-3.4
			c0.6-0.3,0.8-1.1,0.4-1.6l-5.9-10.3c-0.3-0.6-1.1-0.8-1.7-0.4C774.4,109.1,774.2,109.2,774.1,109.4z"/>
		<path class="st34" d="M776.2,109.4c-0.2-0.4-0.6-0.6-1-0.6v16c0.2,0,0.4-0.1,0.6-0.2l5.9-3.4c0.6-0.3,0.8-1.1,0.4-1.6L776.2,109.4
			z"/>
		<path class="st33" d="M766.6,113.7l-6,10.2c-0.3,0.6-0.1,1.3,0.4,1.7l6,3.4c0.4,0.2,0.8,0.2,1.2,0l5.9-3.4c0.6-0.3,0.8-1,0.5-1.6
			l0,0l-6-10.3c-0.4-0.6-1.1-0.7-1.7-0.3C766.8,113.4,766.7,113.5,766.6,113.7z"/>
		<path class="st34" d="M768.6,113.7c-0.2-0.4-0.6-0.6-1-0.6v16c0.2,0,0.4-0.1,0.6-0.2l5.9-3.4c0.6-0.3,0.8-1,0.5-1.6l0,0
			L768.6,113.7z"/>
		<path class="st33" d="M782.3,112.3l-5.9,10.3c-0.3,0.6-0.1,1.3,0.4,1.6l6,3.4c0.4,0.2,0.8,0.2,1.2,0l5.9-3.4
			c0.6-0.3,0.8-1,0.5-1.6l0,0l-5.9-10.3c-0.3-0.6-1-0.8-1.6-0.5C782.6,111.9,782.4,112.1,782.3,112.3z"/>
		<path class="st34" d="M784.4,112.3c-0.2-0.4-0.6-0.6-1-0.6v16.1c0.2,0,0.4-0.1,0.6-0.2l5.9-3.4c0.6-0.3,0.8-1,0.5-1.6l0,0
			L784.4,112.3z"/>
		<path class="st33" d="M774.8,116.6l-5.9,10.2c-0.3,0.6-0.1,1.3,0.4,1.7l5.9,3.4c0.4,0.2,0.8,0.2,1.2,0l5.9-3.4
			c0.6-0.3,0.8-1.1,0.4-1.6l-5.9-10.3c-0.3-0.6-1.1-0.8-1.7-0.4C775,116.3,774.9,116.5,774.8,116.6z"/>
		<path class="st34" d="M776.9,116.6c-0.2-0.4-0.6-0.6-1-0.6v16c0.2,0,0.4-0.1,0.6-0.2l5.9-3.4c0.6-0.3,0.8-1.1,0.4-1.6L776.9,116.6
			z"/>
		<path class="st33" d="M791.6,113.7l-5.9,10.2c-0.3,0.6-0.1,1.3,0.4,1.7l6,3.4c0.4,0.2,0.8,0.2,1.2,0l5.9-3.4
			c0.6-0.3,0.8-1.1,0.4-1.6l0,0l-5.9-10.3c-0.3-0.6-1-0.8-1.6-0.5C791.9,113.3,791.7,113.4,791.6,113.7z"/>
		<path class="st34" d="M793.7,113.7c-0.2-0.4-0.6-0.6-1-0.6v16c0.2,0,0.4-0.1,0.6-0.2l5.9-3.4c0.6-0.3,0.8-1.1,0.4-1.6l0,0
			L793.7,113.7z"/>
		<path class="st33" d="M784,117.9l-5.9,10.2c-0.3,0.6-0.1,1.3,0.4,1.6l0,0l5.9,3.4c0.4,0.2,0.8,0.2,1.2,0l5.9-3.4
			c0.6-0.3,0.8-1.1,0.4-1.6l-5.9-10.3c-0.3-0.6-1.1-0.8-1.6-0.4C784.3,117.6,784.1,117.8,784,117.9z"/>
		<path class="st34" d="M786.1,117.9c-0.2-0.4-0.6-0.6-1-0.6v16c0.2,0,0.4-0.1,0.6-0.2l5.9-3.4c0.6-0.3,0.8-1.1,0.4-1.6L786.1,117.9
			z"/>
		<path class="st33" d="M768.9,118.1l-5.9,10.2c-0.3,0.6-0.1,1.3,0.4,1.6l0,0l5.9,3.4c0.4,0.2,0.8,0.2,1.2,0l5.9-3.4
			c0.6-0.3,0.8-1.1,0.4-1.6l-5.9-10.2c-0.3-0.6-1.1-0.8-1.6-0.4C769.2,117.8,769,117.9,768.9,118.1z"/>
		<path class="st34" d="M771,118.1c-0.2-0.4-0.6-0.6-1-0.6v16.1c0.2,0,0.4-0.1,0.6-0.2l5.9-3.4c0.6-0.3,0.8-1.1,0.4-1.6L771,118.1z"
			/>
		<path class="st33" d="M761.4,122.5l-5.9,10.3c-0.3,0.6-0.1,1.3,0.4,1.6l0,0l6,3.4c0.4,0.2,0.8,0.2,1.2,0l5.9-3.4
			c0.6-0.3,0.8-1.1,0.4-1.6l0,0l-5.9-10.3c-0.3-0.6-1-0.8-1.6-0.5C761.6,122.1,761.5,122.3,761.4,122.5z"/>
		<path class="st34" d="M763.4,122.5c-0.2-0.4-0.6-0.6-1-0.6v16c0.2,0,0.4-0.1,0.6-0.2l5.9-3.4c0.6-0.3,0.8-1.1,0.4-1.6l0,0
			L763.4,122.5z"/>
		<path class="st33" d="M776.5,122.5l-5.9,10.3c-0.3,0.6-0.1,1.3,0.4,1.6l0,0l5.9,3.4c0.4,0.2,0.8,0.2,1.2,0l5.9-3.4
			c0.6-0.3,0.8-1.1,0.4-1.6l0,0l-5.9-10.3c-0.3-0.6-1-0.8-1.6-0.5C776.8,122.1,776.6,122.3,776.5,122.5z"/>
		<path class="st34" d="M778.6,122.5c-0.2-0.4-0.6-0.6-1-0.6v16c0.2,0,0.4-0.1,0.6-0.2l5.9-3.4c0.6-0.3,0.8-1.1,0.4-1.6l0,0
			L778.6,122.5z"/>
		<path class="st33" d="M768.9,126.8L763,137c-0.3,0.6-0.1,1.3,0.4,1.6l0,0l5.9,3.4c0.4,0.2,0.8,0.2,1.2,0l5.9-3.4
			c0.6-0.3,0.8-1.1,0.4-1.6l0,0l-5.9-10.3c-0.3-0.6-1.1-0.8-1.6-0.4C769.2,126.4,769,126.6,768.9,126.8z"/>
		<path class="st34" d="M771,126.8c-0.2-0.4-0.6-0.6-1-0.6v16.1c0.2,0,0.4-0.1,0.6-0.2l5.9-3.4c0.6-0.3,0.8-1.1,0.4-1.6l0,0
			L771,126.8z"/>
		<path class="st33" d="M751,114.1l-5.9,10.3c-0.3,0.6-0.1,1.3,0.4,1.7l5.9,3.4c0.4,0.2,0.8,0.2,1.2,0l5.9-3.4
			c0.6-0.3,0.8-1.1,0.4-1.6l0,0l-5.9-10.2c-0.3-0.6-1.1-0.8-1.7-0.4C751.2,113.7,751.1,113.9,751,114.1z"/>
		<path class="st34" d="M753,114.1c-0.2-0.4-0.6-0.6-1-0.6v16.1c0.2,0,0.4-0.1,0.6-0.2l5.9-3.4c0.6-0.3,0.8-1.1,0.4-1.6l0,0
			L753,114.1z"/>
		<path class="st33" d="M857,96.7l-5.9,10.2c-0.3,0.6-0.1,1.3,0.4,1.7l5.9,3.4c0.4,0.2,0.8,0.2,1.2,0l5.9-3.4
			c0.6-0.3,0.8-1.1,0.4-1.6l0,0L859,96.7c-0.3-0.6-1.1-0.8-1.6-0.4C857.2,96.3,857.1,96.5,857,96.7z"/>
		<path class="st34" d="M859.1,96.7c-0.2-0.4-0.6-0.6-1-0.6v16c0.2,0,0.4-0.1,0.6-0.2l5.9-3.4c0.6-0.3,0.8-1.1,0.4-1.6l0,0
			L859.1,96.7z"/>
		<path class="st33" d="M843.4,102.4l-5.9,10.2c-0.3,0.6-0.1,1.3,0.4,1.6l0,0l5.9,3.4c0.4,0.2,0.8,0.2,1.2,0l5.9-3.4
			c0.6-0.3,0.8-1.1,0.4-1.6l-5.9-10.3c-0.3-0.6-1.1-0.8-1.6-0.4C843.7,102.1,843.6,102.2,843.4,102.4z"/>
		<path class="st34" d="M845.6,102.4c-0.2-0.4-0.6-0.6-1-0.6v16c0.2,0,0.4-0.1,0.6-0.2l5.9-3.4c0.6-0.3,0.8-1.1,0.4-1.6L845.6,102.4
			z"/>
		<path class="st33" d="M851.4,110.4l-5.9,10.3c-0.3,0.6-0.1,1.3,0.4,1.6l0,0l5.9,3.4c0.4,0.2,0.8,0.2,1.2,0l5.9-3.4
			c0.6-0.3,0.8-1.1,0.4-1.6l0,0l-5.9-10.3c-0.3-0.6-1.1-0.8-1.6-0.4C851.6,110.1,851.5,110.2,851.4,110.4z"/>
		<path class="st34" d="M853.4,110.4c-0.2-0.4-0.6-0.6-1-0.6v16.1c0.2,0,0.4-0.1,0.6-0.2l5.9-3.4c0.6-0.3,0.8-1.1,0.4-1.6l0,0
			L853.4,110.4z"/>
		<path class="st33" d="M837.3,117.4l-5.9,10.2c-0.3,0.6-0.1,1.3,0.4,1.6l0,0l5.9,3.4c0.4,0.2,0.8,0.2,1.2,0l5.9-3.4
			c0.6-0.3,0.8-1.1,0.4-1.6l0,0l-5.9-10.3c-0.3-0.6-1.1-0.8-1.6-0.4C837.6,117.1,837.4,117.2,837.3,117.4z"/>
		<path class="st34" d="M839.4,117.4c-0.2-0.4-0.6-0.6-1-0.6v16c0.2,0,0.4-0.1,0.6-0.2l5.9-3.4c0.6-0.3,0.8-1.1,0.4-1.6l0,0
			L839.4,117.4z"/>
		<path class="st35" d="M988.5,157.1c-6.2-14.7-18.9-28.4-38.1-39.5c-20.3-11.7-45.3-19-71.9-22.1c-10.2,17.3-3.4,37.4,20.4,51.1
			C923.3,160.8,958.7,164.3,988.5,157.1z"/>
		<path class="st36" d="M985,150.1c-6.9-12-18.5-23.2-34.7-32.5c-17-9.8-37.5-16.6-59.4-20.3c-5.5,14.5,1.4,30.4,20.9,41.6
			C931.9,150.5,959.9,154.2,985,150.1z"/>
		<path class="st37" d="M977.8,139.9c-6.8-8.1-16-15.6-27.4-22.2c-12.9-7.3-26.7-12.8-41.1-16.4c0,10,6.6,20,19.7,27.5
			C942.5,136.6,960.3,140.3,977.8,139.9z"/>
		<path class="st38" d="M983.5,147.6c-4.4-6.8-9.8-12.8-15.9-18l-13.6-5.1l0.4,3.7l0.3,6.4l3.7,5L880,186.1l-19.2,1.7l-6,1.5
			l-2.2,24.9L835.7,231l-20.8,6.4l-40.6-0.8l-4,6.9l23.8,4.7c7.8,1.6,35.3,6.3,58.6-9.5c6.4-4.3,21.1-14.3,23-30.7
			c0.4-3.7,0.1-7.4-0.8-11l21.9,0.5L983.5,147.6z"/>
		<path class="st39" d="M818.6,203.6c0,0.7-0.1,1.3-0.3,2c-0.7,2.4-2.7,4.8-5.9,6.6l-1.6,0.9c-8.3,4.8-21.8,4.8-30,0l-1.6-0.9
			c-3.2-1.9-5.2-4.2-5.9-6.6c-0.2-0.7-0.3-1.3-0.3-2l0,0c0-3.1,2.1-6.3,6.2-8.6l1.7-1c8.2-4.8,21.7-4.8,30,0l1.6,0.9
			C816.6,197.3,818.6,200.4,818.6,203.6z"/>
		
			<linearGradient id="SVGID_14_" gradientUnits="userSpaceOnUse" x1="728.3657" y1="224.0574" x2="863.1491" y2="224.0574" gradientTransform="matrix(1 0 0 1 0 0.9301)">
			<stop  offset="0" style="stop-color:#B5C1B9"/>
			<stop  offset="1" style="stop-color:#72938C"/>
		</linearGradient>
		<path class="st40" d="M843.9,234.6l-1.3,0.7c-25.7,14.9-67.8,14.9-93.6,0l-1.3-0.8c-12.9-7.4-19.3-17.2-19.3-27v-4
			c0,0.7,0,1.4,0.1,2c0.8,9.1,7.2,18.1,19.2,25l1.3,0.8c25.7,14.9,67.8,14.8,93.6,0l1.3-0.7c12-6.9,18.4-15.9,19.2-25v0.1
			C864,216.1,857.6,226.7,843.9,234.6z"/>
		<path class="st41" d="M818.6,203.6v3.6l0,0v1l0,0c-0.2,3-2.3,5.9-6.2,8.1l-1.6,0.9c-8.3,4.8-21.8,4.8-30,0l-1.6-0.9
			c-4.1-2.4-6.2-5.5-6.2-8.7v-4c0,0.7,0.1,1.3,0.3,2c0.7,2.4,2.7,4.8,5.9,6.6l1.6,0.9c8.3,4.8,21.8,4.8,30,0l1.6-0.9
			c3.2-1.9,5.2-4.2,5.9-6.6C818.5,205,818.6,204.3,818.6,203.6z"/>
		<polygon class="st42" points="953.9,139.7 952.7,140.4 946,128.9 946,126 947.3,128.1 		"/>
		<polygon class="st43" points="930.2,116.8 930.2,119.7 906.5,115.2 906.5,112.3 		"/>
		<path class="st43" d="M882.8,189.9v2.9h-22.3c-0.5-1-1.1-2-1.7-2.9H882.8z"/>
		<path class="st39" d="M964.9,142l-1.2,0.7l-80.9,47.2h-24c0.6,0.9,1.2,1.9,1.7,2.9c1.7,3.4,2.7,7.1,2.7,10.9l0,0l-0.1,1.7l0,0
			c0,0.1,0,0.2,0,0.3c-0.8,9.1-7.2,18.1-19.2,25l-1.3,0.7c-25.7,14.9-67.8,14.9-93.6,0l-1.3-0.8c-12-6.9-18.4-15.9-19.2-25
			c-0.1-0.7-0.1-1.3-0.1-2l0,0c0-9.8,6.4-19.6,19.3-27l1.3-0.8c19-11,46.8-13.8,70.5-8.6v-13.8l83-47.9l31.7,6.1l3.8,0.7l-1.9,1.1
			l-1.8,1.1l-4.1,2.4l-23.7-4.5L827.4,158v9.1l-2.5,1.5c0.9,0.2,1.7,0.5,2.5,0.8c3.7,1.1,7.4,2.6,10.9,4.2l-0.1,0.1l-3,2.6l-3.2,2.9
			l-1-0.5l-0.5-0.2l-0.5-0.2l-0.5-0.2l-0.5-0.2l0,0l-0.5-0.2l0,0l-0.5-0.2l-0.5-0.2l-0.5-0.2l-0.5-0.2l-0.5-0.2l-1.1-0.4l-0.5-0.2
			l-0.5-0.2l-1.5-0.5l-0.3-0.1l0,0l-0.4-0.1h-0.1l-0.4-0.1l0,0l-0.3-0.1h-0.1l-0.4-0.1l0,0l-0.3-0.1l0,0H820h-0.1l-0.2-0.1l0,0h-0.1
			l-0.3-0.1l-0.8-0.2l-0.8-0.2l-0.6-0.1l-0.6-0.1l-0.6-0.1l-0.6-0.1c-0.4-0.1-0.8-0.2-1.2-0.2l-0.6-0.1l-1.2-0.2l-1.2-0.2l-0.6-0.1
			l-1.8-0.3l-0.6-0.1l-0.6-0.1l0,0l-0.6-0.1l-0.6-0.1l-0.6-0.1l-0.6-0.1l0,0l-0.6-0.1l-0.6-0.1c-1-0.1-2-0.1-3-0.2h-0.5l-0.9-0.1
			H799c-0.6,0-1.2,0-1.8-0.1c-1,0-2,0-3,0h-4h-0.4h-1.2h-0.5H788h-0.2h-0.3h-0.4h-0.3h-0.3h-0.7h-0.2h-0.4l-0.4,0.1h-0.1h-0.2l0,0
			h-0.2h-0.1h-0.1l-0.5,0.1l0,0l-0.4,0.1H783l-0.5,0.1l0,0h-0.2h-0.1h-0.1H782l-0.3,0.1h-0.2h-0.2l0,0l-0.3,0.1l0,0l-0.4,0.1h-0.1
			h-0.1h-0.1h-0.2H780h-0.1h-0.2h-0.2h-0.1h-0.2H779h-0.1h-0.1h-0.1l0,0l-0.3,0.1h-0.1h-0.1l-0.5,0.1h-0.1l-0.5,0.1
			c-1.8,0.4-3.6,0.8-5.4,1.3l-0.6,0.2l-0.6,0.2l-1.1,0.3l-0.3,0.1l-0.6,0.2l-0.3,0.1l-0.5,0.1c-1.7,0.6-3.4,1.2-5,1.8l-0.6,0.2
			l-0.8,0.4l-0.6,0.3l-1.6,0.8l-0.5,0.3c-0.9,0.5-1.8,0.9-2.6,1.4c-11.8,6.8-17.2,15.9-16.2,24.8c0.8,7.6,6.2,15,16.2,20.8
			c21.7,12.6,57.3,12.6,79.1,0c10-5.8,15.4-13.2,16.2-20.8c0.1-0.7,0.1-1.5,0.1-2.2v-0.3c0-0.1,0-0.1,0-0.2c0-0.1,0-0.1,0-0.2V202
			c0-0.1,0-0.1,0-0.2s0-0.1,0-0.2v-0.1c0-0.1,0-0.1,0-0.2l0,0c0-0.1,0-0.2,0-0.2l0,0v-0.3v-0.2v-0.1V200v-0.2v-0.2v-0.2v-0.1v-0.2
			c0-0.1,0-0.2,0-0.3l-0.1-0.3c0-0.1,0-0.1,0-0.2v-0.1v-0.1c0-0.1,0-0.1,0-0.2l-0.1-0.5l-0.1-0.2V197l0,0l-0.1-0.2
			c0-0.1-0.1-0.1-0.1-0.2v-0.1l-0.1-0.3l-0.1-0.1V196v-0.1c-0.1-0.2-0.1-0.4-0.2-0.6c0-0.1,0-0.1-0.1-0.2V195c0,0,0-0.1-0.1-0.1
			l-0.2-0.4l-0.1-0.1l-0.1-0.1c-0.1-0.2-0.2-0.3-0.3-0.5l-0.1-0.2c0-0.1-0.1-0.2-0.1-0.3c0,0,0-0.1-0.1-0.1l-0.1-0.2l-0.1-0.2
			l-0.1-0.2v-0.1l-0.1-0.1l-0.2-0.3l-0.1-0.2l-0.1-0.2l0,0l-0.1-0.2l-0.2-0.3c0-0.1-0.1-0.1-0.1-0.2l-0.2-0.2l-0.3-0.5
			c-0.8-1.1-1.6-2.1-2.6-3l0,0l9.5-3.6c0.9,0.9,1.7,1.7,2.4,2.6l2.6-1.5h15.9l77.8-44.9l1.3-0.7l-6.7-11.5l-1.3-2.2l7.9-4.5l1.6,2.9
			l0,0L964.9,142z"/>
		
			<linearGradient id="SVGID_15_" gradientUnits="userSpaceOnUse" x1="739.9506" y1="188.47" x2="831.9304" y2="188.47" gradientTransform="matrix(1 0 0 1 0 0.9301)">
			<stop  offset="0" style="stop-color:#72938C"/>
			<stop  offset="1" style="stop-color:#B5C1B9"/>
		</linearGradient>
		<path class="st44" d="M832,179v4l-0.8-0.4l-0.4-0.2l-0.4-0.2l-0.8-0.4l-0.8-0.4l-0.7-0.3l-0.5-0.2l-0.4-0.2h-0.1l-0.3-0.1h-0.1
			l-0.4-0.1l-0.2-0.1l-0.2-0.1l0,0l-0.5-0.2L825,180l-0.5-0.2h-0.1l-0.7-0.2l-0.2-0.1l-0.2-0.1l-0.2-0.1l-0.3-0.1l-0.2-0.1l-0.3-0.1
			l-0.3-0.1l-0.2-0.1l-0.3-0.1l-0.3-0.1l0,0l-0.3-0.1l-0.3-0.1l-0.4-0.1l-0.2-0.1h-0.1h-0.1l0,0l-0.3-0.1L819,178l-0.3-0.1h-0.2
			l-0.6-0.1h-0.2l-0.2-0.1l-0.5-0.1h-0.2l-0.2-0.1h-0.1l-0.5-0.1l-0.3-0.1l-1.5-0.3l-0.5-0.1c-0.7-0.1-1.4-0.3-2.2-0.4l-0.4-0.1
			l-0.6-0.1l-0.5-0.1l0,0c-0.3-0.1-0.7-0.1-1-0.1l-1.1-0.1h-0.4h-0.3h-0.3h-0.3h-0.3l-1.3-0.1l-0.9-0.1l-0.5-0.1h-0.5h-0.5h-0.2H802
			h-0.5H801l-1.6-0.1h-1.1h-1.6h-1.2h-1.3h-0.7h-0.7h-0.6h-0.1h-0.6h-0.1h-0.7l-1.3,0.1h-0.2h-0.4h-0.2h-0.4H788h-0.3h-0.3l-0.5,0.1
			h-0.2l-0.6,0.1l-0.7,0.1l-0.6,0.1h-0.2h-0.4H784l-0.4,0.1h-0.3l-0.5,0.1l-0.6,0.1l-0.6,0.1l0,0l-0.6,0.1h-0.2l-0.4,0.1l-0.3,0.1
			l-0.3,0.1l-0.3,0.1h-0.2l-0.4,0.1l-0.5,0.1l-0.6,0.1l-0.5,0.1h-0.2l-0.4,0.1h-0.2l-0.4,0.1l-0.2,0.1l-0.7,0.2l-0.3,0.1l-0.3,0.1
			l-0.3,0.1l-0.3,0.1l-0.3,0.1l-0.3,0.1l-0.3,0.1l-0.4,0.1l-0.6,0.2l-0.6,0.2l-0.5,0.1l-0.2,0.1l-0.4,0.1l-0.5,0.1l-0.2,0.1
			l-0.2,0.1l-0.3,0.1l-0.8,0.3l-0.6,0.2l-0.6,0.2l-0.3,0.1l-0.7,0.3l-0.3,0.1l-0.3,0.1l-0.3,0.1l-0.3,0.1l-0.3,0.1l-0.3,0.1
			l-0.6,0.2l-0.3,0.1l-0.6,0.2l-0.4,0.2l-0.4,0.2l-0.6,0.3l-0.4,0.2l-0.4,0.2l-0.4,0.2l-0.4,0.2l-0.5,0.3l-0.3,0.1l-0.2,0.1
			c-0.4,0.2-0.8,0.4-1.3,0.7l-0.3,0.2l-0.3,0.2l-0.3,0.2c-10,5.8-15.4,13.2-16.2,20.8c-1-8.9,4.4-18,16.2-24.8
			c0.8-0.5,1.7-1,2.6-1.4l0.5-0.3l1.6-0.8l0.5-0.3l0.8-0.4l0.6-0.2c1.6-0.7,3.3-1.3,5-1.8l0.5-0.1l0.3-0.1l0.6-0.2l0.3-0.1l1.1-0.3
			l0.6-0.2l0.6-0.2c1.8-0.5,3.5-0.9,5.3-1.3l0.5-0.1h0.1l0.5-0.1h0.1h0.1l0.3-0.1l0,0h0.1h0.1h0.1h0.1h0.2h0.1h0.1h0.2h0.1h0.1h0.2
			h0.2h0.2l0.4-0.1l0,0l0.3-0.1l0,0h0.2h0.1l0.3-0.1h0.1h0.1h0.1h0.2l0,0l0.5-0.1h0.2h0.2h0.2l0,0l0.5-0.1h0.1h0.1h0.2l0,0h0.2h0.2
			l0.4-0.1h0.4h0.2h0.7h0.3h0.3h0.4h0.3h0.2h0.1h0.5h1.2h0.4h4c1,0,2,0,3,0c0.6,0,1.2,0,1.8,0.1h0.4l0.9,0.1h0.5c1,0.1,2,0.1,3,0.2
			l0.6,0.1l0.6,0.1l0,0l0.6,0.1l0.6,0.1l0.6,0.1l0.6,0.1l0,0l0.6,0.1l0.6,0.1l1.8,0.3l0.6,0.1l1.2,0.2l1.2,0.2l0.6,0.1
			c0.4,0.1,0.8,0.1,1.2,0.2l0.6,0.1l0.6,0.1l0.6,0.1l0.6,0.1l0.8,0.2l0.8,0.2l0.3,0.1h0.1l0,0l0.2,0.1h0.1h0.1l0,0l0.3,0.1l0,0
			l0.4,0.1h0.1l0.3,0.1l0,0l0.4,0.1h0.1l0.3,0.1l0,0l0.3,0.1l1.5,0.5l0.5,0.2l0.5,0.2l1.1,0.4l0.5,0.2l0.5,0.2l0.5,0.2l0.5,0.2
			l0.5,0.2l0,0l0.5,0.2l0,0l0.5,0.2l0.5,0.2l0.5,0.2l0.5,0.2L832,179z"/>
		<path class="st41" d="M838.2,177.5l-3.4,3l-2.9,2.5l0,0v-4l0,0l3.2-2.8l3-2.6L838.2,177.5L838.2,177.5z"/>
		
			<linearGradient id="SVGID_16_" gradientUnits="userSpaceOnUse" x1="844.5805" y1="195.8199" x2="861.1306" y2="195.8199" gradientTransform="matrix(1 0 0 1 0 0.9301)">
			<stop  offset="0" style="stop-color:#B5C1B9"/>
			<stop  offset="0.87" style="stop-color:#72938C"/>
		</linearGradient>
		<path class="st45" d="M851.6,205.6c-0.5-4.8-2.8-9.5-6.9-13.7v-4c0.9,0.9,1.8,1.9,2.6,3l0.3,0.5l0.2,0.2c0,0.1,0.1,0.1,0.1,0.2
			l0.2,0.3l0.1,0.2l0,0l0.1,0.2l0.1,0.2l0.2,0.3l0.1,0.1v0.1l0.1,0.2l0.1,0.2l0.1,0.2l0.1,0.1c0.1,0.1,0.1,0.2,0.1,0.3l0.1,0.2
			c0.1,0.2,0.2,0.3,0.3,0.5l0.1,0.1l0.1,0.1l0.2,0.4c0,0.1,0,0.1,0.1,0.1v0.1c0,0.1,0.1,0.1,0.1,0.2c0.1,0.2,0.2,0.4,0.2,0.6v0.1
			v0.1l0.1,0.1l0.1,0.3c0,0.1,0,0.1,0,0.1c0,0.1,0,0.1,0.1,0.2l0.1,0.2v0.2v0.2l0.1,0.2l0.1,0.5c0,0.1,0,0.1,0,0.2v0.1v0.1
			c0,0.1,0,0.1,0,0.2l0.1,0.3c0,0.1,0,0.2,0,0.3v0.2v0.1v0.2v0.2v0.2v0.1v0.1v0.2v0.3l0,0c0,0.1,0,0.2,0,0.2l0,0c0,0.1,0,0.1,0,0.2
			v0.1c0,0.1,0,0.1,0,0.2s0,0.1,0,0.2v0.1c0,0.1,0,0.1,0,0.2c0,0.1,0,0.1,0,0.2v0.3C851.1,204.1,851.4,204.8,851.6,205.6z"/>
		<path class="st46" d="M953.9,112.3c-10.5-7.2-21.7-5-23.8-4.6l4,3.8l3.8,0.7v2.9l-7.9,4.5l-23.7-4.5l-79.1,45.6v8.5
			c3.7,1.1,7.4,2.6,10.9,4.2l-0.1,0.1v4l0,0l-3.4,3l-2.8,2.4l-0.8-0.4l-0.4-0.2l-0.4-0.2l-0.8-0.4l-0.8-0.4l-0.7-0.3l-0.5-0.2
			l-0.3-0.1H827h-0.1l-0.3-0.1h-0.1l-0.3-0.1h-0.1l-0.2-0.1l-0.2-0.1l0,0l-0.3-0.1l-0.2-0.1l-0.4-0.1l-0.3-0.1h-0.1h-0.1l-0.7-0.2
			l-0.2-0.1l-0.2-0.1l-0.2-0.1l-0.3-0.1l-0.2-0.1l-0.3-0.1l-0.3-0.1l-0.2-0.1l-0.3-0.1l-0.3-0.1l0,0l-0.3-0.1l-0.3-0.1l-0.4-0.1
			l-0.2-0.1h-0.1h-0.1l0,0l-0.3-0.1l-0.3-0.1l-0.2-0.1l-0.3-0.1h-0.2l-0.2-0.1l-0.3-0.1h-0.2l-0.2-0.1h-0.2l-0.3-0.1h-0.2l-0.2-0.1
			h-0.1h-0.2l-0.3-0.1l-0.3-0.1l-1.5-0.3l-0.5-0.1c-0.7-0.1-1.4-0.3-2.2-0.4l-0.4-0.1l-0.6-0.1l-0.5-0.1l0,0c-0.3-0.1-0.7-0.1-1-0.1
			l-1.1-0.1h-0.4h-0.3h-0.3h-0.3h-0.3l-1.3-0.1l-0.9-0.1l-0.5-0.1h-0.5h-0.5h-0.2H802h-0.5H801l-1.7-0.1h-1.1h-1.6h-1.2h-1.3h-0.7
			h-0.7h-0.6H792h-0.6h-0.1h-0.6l-1.3,0.1h-0.2h-0.4h-0.2h-0.4H788h-0.3h-0.3l-0.5,0.1h-0.2l-0.6,0.1l-0.7,0.1l-0.6,0.1h-0.2h-0.4
			H784l-0.4,0.1h-0.3l-0.5,0.1l-0.6,0.1l-0.6,0.1l0,0l-0.6,0.1h-0.2l-0.4,0.1l-0.3,0.1l-0.3,0.1l-0.3,0.1h-0.2l-0.4,0.1l-0.5,0.1
			l-0.6,0.1l-0.5,0.1h-0.2l-0.4,0.1h-0.2l-0.4,0.1l-0.2,0.1l-0.7,0.2l-0.3,0.1l-0.3,0.1l-0.3,0.1l-0.3,0.1l-0.3,0.1l-0.4,0.1
			l-0.3,0.1l-0.4,0.1l-0.6,0.2l-0.6,0.2l-0.5,0.1l-0.2,0.1l-0.4,0.1l-0.5,0.1l-0.2,0.1l-0.2,0.1l-0.3,0.1l-0.8,0.3l-0.6,0.2
			l-0.6,0.2l-0.3,0.1l-0.7,0.3l-0.3,0.1l-0.3,0.1l-0.3,0.1l-0.3,0.1l-0.3,0.1l-0.3,0.1l-0.5,0.2l-0.3,0.1l-0.6,0.2l-0.4,0.2
			l-0.4,0.2l-0.6,0.3l-0.4,0.2l-0.4,0.2l-0.4,0.2l-0.4,0.2l-0.5,0.3l-0.3,0.1l-0.2,0.1c-0.4,0.2-0.8,0.4-1.3,0.7l-0.3,0.2L757,185
			l-0.3,0.2c-10,5.8-15.4,13.2-16.2,20.8c0.8,7.6,6.2,15,16.2,20.8c21.7,12.6,57.3,12.6,79.1,0c10-5.8,15.4-13.2,16.2-20.8
			c-0.5-4.8-2.8-9.5-6.9-13.7l0,0v-4l0,0l9.5-3.6c0.9,0.9,1.7,1.7,2.4,2.6l2.6-1.5h15.9l77.8-44.9l-6.7-11.5V126l7.9-4.5l1.6,2.9
			l0,0l10.3,3.9C963.8,121.8,959.6,116.1,953.9,112.3z M818.6,208.1L818.6,208.1c-0.2,3-2.3,5.9-6.2,8.1l-1.6,0.9
			c-8.3,4.8-21.8,4.8-30,0l-1.6-0.9c-4.1-2.4-6.2-5.5-6.2-8.7v-4c0-3.1,2.1-6.3,6.2-8.6l1.7-1c8.2-4.8,21.7-4.8,30,0l1.6,0.9
			c4.1,2.4,6.2,5.5,6.2,8.7v3.6l0,0C818.6,207.5,818.6,207.8,818.6,208.1z"/>
		<path class="st47" d="M769.7,216.1c-0.1,0-0.1,0-0.2-0.1c-4-2.6-6.6-5.8-7.6-9.3c-0.3-1-0.4-2.1-0.4-3.1c0-0.2,0.1-0.4,0.3-0.4
			s0.4,0.1,0.4,0.3v0.1c0,1,0.1,2,0.4,2.9c0.9,3.3,3.5,6.4,7.3,8.9c0.2,0.1,0.2,0.3,0.1,0.5l0,0C770,216,769.8,216,769.7,216.1z"/>
		<path class="st47" d="M795.8,223.6c-1,0-1.9,0-2.9-0.1c-0.2,0-0.3-0.2-0.3-0.4s0.2-0.3,0.3-0.3c8.6,0.4,17.1-1.2,23.5-4.4
			c0.2-0.1,0.4,0,0.5,0.2l0,0c0.1,0.2,0,0.4-0.2,0.5l0,0c-3.6,1.8-7.4,3-11.3,3.7C802.3,223.3,799.1,223.6,795.8,223.6z"/>
		<path class="st47" d="M828.7,208.8h-0.2c-0.2-0.1-0.3-0.3-0.2-0.5l0,0c0.3-0.6,0.5-1.1,0.6-1.7c0.3-0.9,0.4-1.9,0.4-2.9
			c0-2.1-0.6-4.2-1.8-6c-0.1-0.2-0.1-0.4,0.1-0.5l0,0c0.2-0.1,0.4-0.1,0.5,0.1c1.2,1.9,1.9,4.1,1.9,6.3c0,1-0.2,2.1-0.4,3.1
			c-0.2,0.6-0.4,1.3-0.7,1.9C829,208.7,828.8,208.8,828.7,208.8z"/>
		<path class="st47" d="M816.6,188.9c-0.1,0-0.1,0-0.2,0c-3.3-1.6-6.8-2.8-10.4-3.5c-0.2,0-0.3-0.2-0.3-0.4l0,0
			c0-0.2,0.2-0.3,0.4-0.3l0,0c3.7,0.7,7.2,1.9,10.6,3.6c0.2,0.1,0.3,0.3,0.2,0.5l0,0C816.9,188.8,816.8,188.9,816.6,188.9z"/>
		<path class="st47" d="M764.6,196.4c-0.1,0-0.2,0-0.2-0.1c-0.2-0.1-0.2-0.4-0.1-0.5l0,0c1.8-2.2,4-4,6.5-5.4l2.5-1.4
			c1.2-0.7,2.5-1.4,3.9-1.9c0.2-0.1,0.4,0,0.5,0.2s0,0.4-0.2,0.5l0,0c-1.3,0.5-2.6,1.2-3.8,1.9l-2.5,1.4c-2.4,1.3-4.5,3.1-6.3,5.2
			C764.9,196.4,764.8,196.4,764.6,196.4z"/>
		<path class="st47" d="M795.8,227.3c-3.8,0-7.6-0.3-11.3-1c-0.2,0-0.3-0.2-0.3-0.4l0,0c0-0.2,0.2-0.3,0.4-0.3
			c4.6,0.8,9.3,1.1,14,0.9c0.2,0,0.4,0.1,0.4,0.3l0,0c0,0.2-0.1,0.4-0.4,0.4C797.7,227.3,796.7,227.3,795.8,227.3z"/>
		<path class="st47" d="M828,217.5c-0.1,0-0.2-0.1-0.3-0.1c-0.1-0.2-0.1-0.4,0.1-0.5c3.9-2.8,6.5-6.2,7.5-9.8
			c0.3-1.1,0.5-2.3,0.5-3.4c0-0.8-0.1-1.7-0.3-2.5c0-0.2,0.1-0.4,0.3-0.4l0,0c0.2,0,0.4,0.1,0.4,0.3c0.2,0.9,0.3,1.7,0.3,2.6
			c0,1.2-0.2,2.5-0.5,3.7c-1.1,3.7-3.8,7.3-7.8,10.2C828.1,217.5,828,217.5,828,217.5z"/>
		<path class="st47" d="M822.4,187c-0.1,0-0.1,0-0.2-0.1c-2.6-1.5-5.3-2.7-8.1-3.6c-0.2-0.1-0.3-0.3-0.2-0.5s0.3-0.3,0.5-0.2l0,0
			c2.9,0.9,5.7,2.1,8.3,3.6c0.2,0.1,0.2,0.3,0.1,0.5l0,0C822.6,186.9,822.5,187,822.4,187z"/>
		<path class="st47" d="M773.1,185.1c-0.1,0-0.3-0.1-0.3-0.2c-0.1-0.2,0-0.4,0.2-0.5c5.6-2.4,11.6-3.8,17.8-4.2
			c3.1-0.2,6.2-0.3,9.3-0.1c0.2,0,0.4,0.2,0.3,0.4c0,0.2-0.2,0.4-0.4,0.4l0,0c-3.1-0.2-6.2-0.2-9.3,0.1c-6,0.4-11.9,1.8-17.5,4.2
			L773.1,185.1z"/>
		<path class="st47" d="M760.9,215.2c-0.1,0-0.2,0-0.3-0.1c-2-1.8-3.6-4.1-4.6-6.6c-0.2-0.4-0.3-0.8-0.4-1.3
			c-0.3-1.2-0.5-2.4-0.5-3.7l0,0c0-2.9,1-5.8,2.7-8.1c2.2-3.1,5.1-5.7,8.5-7.5l0.7-0.4c0.2-0.1,0.4,0,0.5,0.1c0.1,0.2,0,0.4-0.1,0.5
			l0,0l-0.7,0.4c-3.2,1.8-6.1,4.2-8.2,7.3c-1.6,2.3-2.5,5-2.5,7.7l0,0c0,1.2,0.2,2.3,0.5,3.5c0.1,0.4,0.3,0.8,0.4,1.2
			c1,2.4,2.5,4.6,4.4,6.3c0.1,0.1,0.1,0.4,0,0.5C761.1,215.2,761,215.2,760.9,215.2z"/>
		<path class="st47" d="M749.2,201.7L749.2,201.7c-0.3,0-0.4-0.2-0.4-0.4c0.3-1.9,0.9-3.6,1.8-5.3c1-1.8,2.2-3.5,3.7-5
			c0.1-0.1,0.4-0.2,0.5,0c0.1,0.1,0.2,0.4,0,0.5c-2.7,2.7-4.6,6.1-5.3,9.9C749.5,201.6,749.3,201.7,749.2,201.7z"/>
		<path class="st47" d="M772.9,227.3h-0.1c-2.7-1-5.4-2.2-7.9-3.6l-3.4-1.9c-3.3-1.8-6.3-4.3-8.7-7.2c-0.1-0.1-0.1-0.4,0-0.5
			c0.2-0.1,0.4-0.1,0.5,0.1c2.4,2.8,5.3,5.2,8.5,7l3.4,1.9c2.5,1.4,5.1,2.6,7.8,3.6c0.2,0.1,0.3,0.3,0.2,0.5l0,0
			C773.1,227.2,773,227.3,772.9,227.3z"/>
		<path class="st47" d="M809.6,229.7c-0.2,0-0.4-0.1-0.4-0.3s0.1-0.4,0.3-0.4c5.9-1,11.6-3.1,16.9-6l3.3-1.9c1.1-0.6,2.1-1.3,3.1-2
			c0.2-0.1,0.4-0.1,0.5,0s0.1,0.4,0,0.5l0,0c-1,0.7-2,1.4-3.1,2l-3.3,1.9C821.5,226.5,815.7,228.6,809.6,229.7L809.6,229.7z"/>
		<path class="st47" d="M842.2,207.4L842.2,207.4c-0.3,0-0.4-0.2-0.4-0.4c0.3-1.1,0.4-2.2,0.4-3.3c0-3-0.9-5.9-2.5-8.4
			c-0.8-1.3-0.9-2.8-0.5-4.2c0.7-1.8,2.3-3,4.2-3.1c0.2,0,0.4,0.1,0.4,0.3s-0.1,0.4-0.3,0.4l0,0c-1.6,0.1-3,1.1-3.6,2.6
			c-0.4,1.2-0.2,2.5,0.4,3.5c1.7,2.6,2.6,5.7,2.7,8.9c0,1.2-0.1,2.4-0.4,3.5C842.5,207.3,842.4,207.4,842.2,207.4z"/>
		<path class="st47" d="M771.3,181.3c-0.2,0-0.4-0.1-0.4-0.3s0.1-0.3,0.3-0.4c4-1.5,8.1-2.7,12.2-3.3c4.4-0.7,8.8-1.1,13.2-1
			c0.2,0,0.4,0.2,0.4,0.4l0,0c0,0.2-0.2,0.4-0.4,0.4l0,0c-8.6-0.2-17.1,1.3-25.1,4.3C771.4,181.3,771.3,181.3,771.3,181.3z"/>
		<path class="st48" d="M818.6,206.2v3.6l0,0v1l0,0c-0.2,3-2.3,5.9-6.2,8.1l-1.6,0.9c-8.3,4.8-21.8,4.8-30,0l-1.6-0.9
			c-4.1-2.4-6.2-5.5-6.2-8.7v-4c0,0.7,0.1,1.3,0.3,2c0.7,2.4,2.7,4.8,5.9,6.6l1.6,0.9c8.3,4.8,21.8,4.8,30,0l1.6-0.9
			c3.2-1.9,5.2-4.2,5.9-6.7C818.5,207.6,818.6,206.9,818.6,206.2z"/>
		
			<linearGradient id="SVGID_17_" gradientUnits="userSpaceOnUse" x1="739.9506" y1="190.7699" x2="831.9304" y2="190.7699" gradientTransform="matrix(1 0 0 1 0 0.9301)">
			<stop  offset="0" style="stop-color:#72938C"/>
			<stop  offset="1" style="stop-color:#B5C1B9"/>
		</linearGradient>
		<path class="st49" d="M832,181.8v4l-0.8-0.4l-0.4-0.2l-0.4-0.2l-0.8-0.4l-0.8-0.4l-0.7-0.3l-0.5-0.2l-0.4-0.2h-0.1l-0.3-0.1h-0.1
			l-0.4-0.1l-0.2-0.1l-0.2-0.1l0,0l-0.5-0.2l-0.4-0.1l-0.4-0.1h-0.1l-0.7-0.2l-0.2-0.1l-0.2-0.1l-0.2-0.1l-0.3-0.1l-0.2-0.1
			l-0.3-0.1l-0.3-0.1l-0.2-0.1l-0.3-0.1l-0.3-0.1l0,0l-0.3-0.1l-0.3-0.1l-0.4-0.1l-0.2-0.1h-0.2h-0.1l0,0l-0.3-0.1l-0.5-0.1
			l-0.3-0.1l-0.2-0.1l-0.6-0.1l-0.2-0.1l-0.2-0.1l-0.5-0.1l-0.2-0.1l-0.2-0.1h-0.1L816,180l-0.3-0.1l-1.5-0.3l-0.5-0.1
			c-0.7-0.1-1.4-0.3-2.2-0.4l-0.4-0.1l-0.6-0.1l-0.5-0.1l0,0l-1-0.1l-1.1-0.1h-0.4h-0.3h-0.3h-0.3h-0.3l-1.3-0.1l-0.9-0.1l-0.5-0.1
			h-0.5h-0.5h-0.2H802h-0.5H801l-1.7-0.1h-1.1h-1.6h-1.2h-1.3h-0.7h-0.7h-0.6H792h-0.6h-0.1h-0.6l-1.3,0.1h-0.2h-0.4h-0.2h-0.4H788
			h-0.3h-0.3h-0.5h-0.2l-0.6,0.1l-0.7,0.1l-0.6,0.1h-0.2h-0.4H784l-0.4,0.1h-0.3l-0.5,0.1l-0.6,0.1l-0.6,0.1l0,0l-0.6,0.1h-0.2
			l-0.4,0.1h-0.3l-0.3,0.1l-0.3,0.1h-0.2l-0.4,0.1l-0.5,0.1l-0.6,0.1l-0.5,0.1h-0.2l-0.4,0.1h-0.2l-0.4,0.1l-0.2,0.1l-0.7,0.2
			l-0.3,0.1l-0.3,0.1l-0.3,0.1l-0.3,0.1l-0.3,0.1l-0.4,0.1L773,181l-0.4,0.1l-0.6,0.2l-0.6,0.2l-0.5,0.1l-0.2,0.1l-0.4,0.1l-0.5,0.1
			l-0.2,0.1l-0.2,0.1l-0.3,0.1l-0.8,0.3l-0.6,0.2l-0.6,0.2l-0.3,0.1l-0.7,0.2l-0.3,0.1l-0.3,0.1l-0.3,0.1l-0.3,0.1l-0.3,0.1
			l-0.3,0.1l-0.5,0.2l-0.3,0.1l-0.6,0.2l-0.4,0.2l-0.4,0.2l-0.6,0.3l-0.4,0.2l-0.4,0.2l-0.4,0.2l-0.4,0.2l-0.5,0.3l-0.3,0.1
			l-0.2,0.1c-0.4,0.2-0.8,0.4-1.3,0.7l-0.3,0.1l-0.3,0.2l-0.3,0.2c-10,5.8-15.4,13.2-16.2,20.8c-1-8.9,4.4-18.1,16.2-24.8
			c0.8-0.5,1.7-1,2.6-1.4l0.5-0.3l1.6-0.8l0.6-0.3l0.8-0.4l0.6-0.2c1.6-0.7,3.3-1.3,5-1.8l0.5-0.1l0.3-0.1l0.6-0.2l0.3-0.1l1.1-0.3
			l0.6-0.2l0.6-0.2c1.8-0.5,3.5-0.9,5.4-1.3l0.5-0.1h0.1l0.5-0.1h0.1h0.1l0.3-0.1l0,0h0.1h0.1h0.1h0.1h0.2h0.1h0.1l0,0h0.2h0.1h0.1
			h0.2h0.2h0.2l0.4-0.1l0,0h0.3l0,0h0.2h0.1l0.3-0.1h0.1h0.1h0.1h0.2l0,0l0.5-0.1h0.2h0.2h0.2l0,0h0.5h0.1h0.1h0.2l0,0h0.2h0.2
			l0.4-0.1h0.4h0.2h0.7h0.3h0.3h0.4h0.3h0.2h0.1h0.5h1.2h0.4h4c1,0,2,0,3,0c0.6,0,1.2,0,1.8,0h0.4h0.9h0.5c1,0.1,2,0.1,3,0.2
			l0.6,0.1h0.6l0,0l0.6,0.1l0.6,0.1l0.6,0.1l0.6,0.1l0,0l0.6,0.1l0.6,0.1l1.8,0.3l0.6,0.1l1.2,0.2l1.2,0.2l0.6,0.1
			c0.4,0.1,0.8,0.1,1.1,0.2l0.6,0.1l0.6,0.1l0.6,0.1l0.6,0.1l0.8,0.2l0.8,0.2l0.3,0.1h0.1l0,0l0.2,0.1h0.1h0.1l0,0l0.3,0.1l0,0
			l0.4,0.1h0.1l0.3,0.1l0,0l0.4,0.1h0.1l0.3,0.1l0,0l0.3,0.1c0.5,0.2,1,0.3,1.5,0.5l0.5,0.2l0.5,0.2l1.1,0.4l0.5,0.2l0.5,0.2
			l0.5,0.2l0.5,0.2l0.5,0.2l0,0l0.5,0.2l0,0l0.5,0.2l0.5,0.2l0.5,0.2l0.5,0.2L832,181.8z"/>
		<path class="st47" d="M831.6,186.4c-0.6,0-1.2-0.1-1.8-0.2h-0.1l-3.4-1.9c-3.6-2-7.4-3.6-11.4-4.7c-0.2-0.1-0.3-0.3-0.3-0.5
			s0.3-0.3,0.5-0.3l0,0c4,1.1,7.9,2.7,11.6,4.8l3.3,1.9c1,0.2,2.1,0.2,3.1,0c2.2-0.5,4.1-1.8,5.4-3.6c0.1-0.2,0.4-0.2,0.5-0.1
			s0.2,0.4,0.1,0.5c-1.4,2-3.5,3.4-5.8,3.9C832.7,186.3,832.2,186.4,831.6,186.4z"/>
		<path class="st48" d="M838.2,180.4l-3.4,3l-2.9,2.5l0,0v-4l0,0l3.2-2.8l3-2.6L838.2,180.4L838.2,180.4z"/>
		<path class="st41" d="M827.4,167v2.2c-0.8-0.3-1.7-0.5-2.5-0.8L827.4,167z"/>
		<polygon class="st41" points="906.5,112.3 906.5,115.2 827.4,160.8 827.4,157.9 		"/>
		<polygon class="st41" points="964.9,142 964.9,144.9 882.8,192.7 882.8,189.8 963.7,142.7 		"/>
		<polygon class="st41" points="938.1,112.3 938.1,115.2 930.2,119.7 930.2,116.8 934.3,114.4 936.2,113.4 		"/>
		<polygon class="st50" points="930.2,119.1 930.2,122 906.5,117.5 906.5,114.6 		"/>
		<polygon class="st48" points="906.5,114.6 906.5,117.5 827.4,163.1 827.4,160.2 		"/>
		<polygon class="st48" points="938.1,114.6 938.1,117.5 930.2,122 930.2,119.1 934.3,116.8 936.2,115.7 		"/>
		<path class="st43" d="M779.4,216.4l-19.8,11.7l-0.3-0.1l10.3-6.1l9.5-5.6l0.1,0.1L779.4,216.4z"/>
		<path class="st42" d="M779.4,216.1l-0.3,0.2l-9.5,5.6l-10.3,6.2l0,0l-0.6-0.3l-0.6-0.3l-0.3-0.2l-0.3-0.2l-0.3-0.2l-0.3-0.2
			l10.7-6.1l9.7-5.6l0.3-0.1c0.5,0.4,1.1,0.8,1.7,1.1L779.4,216.1z"/>
		<path class="st33" d="M860.3,232.3l-5.9,10.3c-0.3,0.6-0.1,1.3,0.4,1.6l6,3.4c0.4,0.2,0.8,0.2,1.2,0l5.9-3.4
			c0.6-0.3,0.8-1,0.5-1.6l0,0l-5.9-10.3c-0.3-0.6-1-0.8-1.6-0.5C860.6,232,860.4,232.1,860.3,232.3z"/>
		<path class="st34" d="M862.4,232.3c-0.2-0.4-0.6-0.6-1-0.6v16c0.2,0,0.4-0.1,0.6-0.2l5.9-3.4c0.6-0.3,0.8-1,0.5-1.6l0,0
			L862.4,232.3z"/>
		<path class="st33" d="M922.3,195l-5.9,10.3c-0.3,0.6-0.1,1.3,0.4,1.6l0,0l5.9,3.4c0.4,0.2,0.8,0.2,1.2,0l5.9-3.4
			c0.6-0.3,0.8-1.1,0.4-1.6l-5.9-10.2c-0.3-0.6-1.1-0.8-1.6-0.4C922.5,194.7,922.4,194.8,922.3,195z"/>
		<path class="st34" d="M924.4,195c-0.2-0.4-0.6-0.6-1-0.6v16.1c0.2,0,0.4-0.1,0.6-0.2l5.9-3.4c0.6-0.3,0.8-1.1,0.4-1.6L924.4,195z"
			/>
		<path class="st33" d="M914.7,199.3l-5.9,10.3c-0.3,0.6-0.1,1.3,0.4,1.6l5.9,3.4c0.4,0.2,0.8,0.2,1.2,0l5.9-3.4
			c0.6-0.3,0.8-1.1,0.4-1.6l-5.9-10.2c-0.3-0.6-1.1-0.8-1.7-0.4C914.9,198.9,914.8,199.1,914.7,199.3z"/>
		<path class="st34" d="M916.8,199.3c-0.2-0.4-0.6-0.6-1-0.6v16.1c0.2,0,0.4-0.1,0.6-0.2l5.9-3.4c0.6-0.3,0.8-1.1,0.4-1.6
			L916.8,199.3z"/>
		<path class="st33" d="M899.2,200.4l-5.9,10.3c-0.3,0.6-0.1,1.3,0.4,1.6l0,0l5.9,3.4c0.4,0.2,0.8,0.2,1.2,0l5.9-3.4
			c0.6-0.3,0.8-1.1,0.4-1.6l0,0l-5.9-10.3c-0.3-0.6-1.1-0.8-1.6-0.4C899.4,200,899.3,200.2,899.2,200.4z"/>
		<path class="st34" d="M901.3,200.4c-0.2-0.4-0.6-0.6-1-0.6v16.1c0.2,0,0.4-0.1,0.6-0.2l5.9-3.4c0.6-0.3,0.8-1.1,0.4-1.6l0,0
			L901.3,200.4z"/>
		<path class="st33" d="M891.6,204.7l-5.9,10.3c-0.3,0.6-0.1,1.3,0.4,1.6l6,3.4c0.4,0.2,0.8,0.2,1.2,0l5.9-3.4
			c0.6-0.4,0.7-1.1,0.4-1.6l0,0l-5.9-10.3c-0.3-0.6-1.1-0.8-1.7-0.4C891.9,204.4,891.7,204.6,891.6,204.7z"/>
		<path class="st34" d="M893.7,204.7c-0.2-0.4-0.6-0.6-1-0.6v16.1c0.2,0,0.4-0.1,0.6-0.2l5.9-3.4c0.5-0.4,0.7-1.1,0.4-1.6
			L893.7,204.7z"/>
		<path class="st33" d="M906.8,204.7l-5.9,10.3c-0.3,0.6-0.1,1.3,0.4,1.6l0,0l6,3.4c0.4,0.2,0.8,0.2,1.2,0l5.9-3.4
			c0.6-0.3,0.8-1,0.5-1.6l0,0l-5.9-10.3c-0.3-0.6-1-0.8-1.6-0.5C907.1,204.3,906.9,204.5,906.8,204.7z"/>
		<path class="st34" d="M908.9,204.7c-0.2-0.4-0.6-0.6-1-0.6v16.1c0.2,0,0.4-0.1,0.6-0.2l5.9-3.4c0.6-0.3,0.8-1,0.5-1.6l0,0
			L908.9,204.7z"/>
		<path class="st33" d="M936.6,163.4l-5.9,10.2c-0.3,0.6-0.1,1.3,0.4,1.6l6,3.4c0.4,0.2,0.8,0.2,1.2,0l5.9-3.4
			c0.6-0.3,0.8-1.1,0.4-1.6l0,0l-5.9-10.3c-0.3-0.6-1-0.8-1.6-0.5C936.9,163,936.7,163.1,936.6,163.4z"/>
		<path class="st34" d="M938.7,163.4c-0.2-0.4-0.6-0.6-1-0.6v16.1c0.2,0,0.4-0.1,0.6-0.2l5.9-3.4c0.6-0.3,0.8-1.1,0.4-1.6l0,0
			L938.7,163.4z"/>
		<path class="st33" d="M932,172.2l-5.9,10.2c-0.3,0.6-0.1,1.3,0.4,1.6l5.9,3.4c0.4,0.2,0.8,0.2,1.2,0l5.9-3.4
			c0.6-0.3,0.8-1.1,0.4-1.6l-5.9-10.3c-0.3-0.6-1.1-0.8-1.7-0.4C932.3,171.9,932.1,172,932,172.2z"/>
		<path class="st34" d="M934.1,172.2c-0.2-0.4-0.6-0.6-1-0.6v16c0.2,0,0.4-0.1,0.6-0.2l5.9-3.4c0.6-0.3,0.8-1.1,0.4-1.6L934.1,172.2
			z"/>
		<path class="st33" d="M948.3,172.2l-6,10.2c-0.3,0.6-0.1,1.3,0.5,1.6l5.9,3.4c0.4,0.2,0.8,0.2,1.2,0l5.9-3.4
			c0.6-0.3,0.8-1.1,0.4-1.6l-5.9-10.3c-0.4-0.6-1.1-0.7-1.7-0.4C948.5,171.9,948.4,172.1,948.3,172.2z"/>
		<path class="st34" d="M950.3,172.2c-0.2-0.4-0.6-0.6-1-0.6v16c0.2,0,0.4-0.1,0.6-0.2l5.9-3.4c0.6-0.3,0.8-1.1,0.4-1.6L950.3,172.2
			z"/>
		<path class="st33" d="M882.9,207.6l-5.9,10.2c-0.3,0.6-0.1,1.3,0.4,1.6l0,0l5.9,3.4c0.4,0.2,0.8,0.2,1.2,0l5.9-3.4
			c0.6-0.3,0.8-1.1,0.4-1.6l0,0l-5.9-10.3c-0.3-0.6-1.1-0.8-1.6-0.4C883.2,207.3,883.1,207.5,882.9,207.6z"/>
		<path class="st34" d="M885,207.6c-0.2-0.4-0.6-0.6-1-0.6v16.1c0.2,0,0.4-0.1,0.6-0.2l5.9-3.4c0.6-0.3,0.8-1.1,0.4-1.6l0,0
			L885,207.6z"/>
		<path class="st33" d="M875.4,212l-5.9,10.3c-0.3,0.6-0.1,1.3,0.4,1.6l6,3.4c0.4,0.2,0.8,0.2,1.2,0l5.9-3.4
			c0.6-0.3,0.8-1.1,0.4-1.6l0,0l-5.9-10.3c-0.3-0.6-1.1-0.8-1.7-0.4C875.7,211.7,875.5,211.8,875.4,212z"/>
		<path class="st34" d="M877.5,212c-0.2-0.4-0.6-0.6-1-0.6v16.1c0.2,0,0.4-0.1,0.6-0.2l5.9-3.4c0.6-0.3,0.8-1.1,0.4-1.6l0,0
			L877.5,212z"/>
		<path class="st33" d="M890.6,212l-6,10.2c-0.3,0.6-0.1,1.3,0.4,1.6l6,3.4c0.4,0.2,0.8,0.2,1.2,0l5.9-3.4c0.6-0.3,0.8-1.1,0.4-1.6
			l0,0l-5.9-10.2c-0.4-0.6-1.1-0.7-1.7-0.4C890.8,211.7,890.7,211.8,890.6,212z"/>
		<path class="st34" d="M892.6,212c-0.2-0.4-0.6-0.6-1-0.6v16.1c0.2,0,0.4-0.1,0.6-0.2l5.9-3.4c0.6-0.3,0.8-1.1,0.4-1.6l0,0
			L892.6,212z"/>
		<path class="st33" d="M882.9,216.3l-5.9,10.3c-0.3,0.6-0.1,1.3,0.4,1.6l0,0l5.9,3.4c0.4,0.2,0.8,0.2,1.2,0l5.9-3.4
			c0.6-0.3,0.8-1.1,0.4-1.6l0,0l-5.9-10.3c-0.3-0.6-1.1-0.8-1.6-0.4C883.2,215.9,883.1,216.1,882.9,216.3z"/>
		<path class="st34" d="M885,216.3c-0.2-0.4-0.6-0.6-1-0.6v16.1c0.2,0,0.4-0.1,0.6-0.2l5.9-3.4c0.6-0.3,0.8-1.1,0.4-1.6l0,0
			L885,216.3z"/>
		<path class="st33" d="M898.7,214.9l-5.9,10.3c-0.3,0.6-0.1,1.3,0.4,1.6l0,0l5.9,3.4c0.4,0.2,0.8,0.2,1.2,0l5.9-3.4
			c0.6-0.3,0.8-1.1,0.4-1.6l0,0l-5.9-10.3c-0.3-0.6-1.1-0.8-1.6-0.4C899,214.6,898.8,214.7,898.7,214.9z"/>
		<path class="st34" d="M900.8,214.9c-0.2-0.4-0.6-0.6-1-0.6v16c0.2,0,0.4-0.1,0.6-0.2l5.9-3.4c0.6-0.3,0.8-1.1,0.4-1.6l0,0
			L900.8,214.9z"/>
		<path class="st33" d="M891.2,219.3l-5.9,10.2c-0.3,0.6-0.1,1.3,0.4,1.6l6,3.4c0.4,0.2,0.8,0.2,1.2,0l5.9-3.4
			c0.6-0.3,0.8-1,0.5-1.6l0,0l-5.9-10.3c-0.3-0.6-1-0.8-1.6-0.5C891.5,218.9,891.3,219,891.2,219.3z"/>
		<path class="st34" d="M893.3,219.3c-0.2-0.4-0.6-0.6-1-0.6v16c0.2,0,0.4-0.1,0.6-0.2l5.9-3.4c0.6-0.3,0.8-1,0.5-1.6l0,0
			L893.3,219.3z"/>
		<path class="st33" d="M906.3,219.3l-5.9,10.2c-0.3,0.6-0.1,1.3,0.4,1.6l6,3.4c0.4,0.2,0.8,0.2,1.2,0l5.9-3.4
			c0.6-0.3,0.8-1,0.5-1.6l0,0l-5.9-10.3c-0.3-0.6-1-0.8-1.6-0.5C906.6,218.9,906.4,219,906.3,219.3z"/>
		<path class="st34" d="M908.4,219.3c-0.2-0.4-0.6-0.6-1-0.6v16c0.2,0,0.4-0.1,0.6-0.2l5.9-3.4c0.6-0.3,0.8-1,0.5-1.6l0,0
			L908.4,219.3z"/>
		<path class="st33" d="M898.7,223.5l-5.9,10.2c-0.3,0.6-0.1,1.3,0.4,1.6l0,0l5.9,3.4c0.4,0.2,0.8,0.2,1.2,0l5.9-3.4
			c0.6-0.3,0.8-1.1,0.4-1.6l0,0l-5.9-10.3c-0.3-0.6-1.1-0.8-1.6-0.4C899,223.2,898.8,223.4,898.7,223.5z"/>
		<path class="st34" d="M900.8,223.5c-0.2-0.4-0.6-0.6-1-0.6V239c0.2,0,0.4-0.1,0.6-0.2l5.9-3.4c0.6-0.3,0.8-1.1,0.4-1.6l0,0
			L900.8,223.5z"/>
		<path class="st33" d="M885.3,220.7l-6,10.3c-0.3,0.6-0.1,1.3,0.4,1.6l0,0l5.9,3.4c0.4,0.2,0.8,0.2,1.2,0l5.9-3.4
			c0.6-0.3,0.8-1.1,0.4-1.6l0,0l-5.9-10.3c-0.4-0.6-1.1-0.7-1.7-0.4C885.5,220.5,885.4,220.6,885.3,220.7z"/>
		<path class="st34" d="M887.4,220.7c-0.2-0.4-0.6-0.6-1-0.6v16.1c0.2,0,0.4-0.1,0.6-0.2l5.9-3.4c0.6-0.3,0.8-1.1,0.4-1.6l0,0
			L887.4,220.7z"/>
		<path class="st33" d="M877.8,225.1l-5.9,10.2c-0.3,0.6-0.1,1.3,0.4,1.6l0,0l5.9,3.4c0.4,0.2,0.8,0.2,1.2,0l5.9-3.4
			c0.6-0.3,0.8-1.1,0.4-1.6l-5.9-10.3c-0.3-0.6-1.1-0.8-1.6-0.4C878,224.7,877.9,224.9,877.8,225.1z"/>
		<path class="st34" d="M879.9,225.1c-0.2-0.4-0.6-0.6-1-0.6v16.1c0.2,0,0.4-0.1,0.6-0.2l5.9-3.4c0.6-0.3,0.8-1.1,0.4-1.6
			L879.9,225.1z"/>
		<path class="st33" d="M892.9,225.1l-5.9,10.2c-0.3,0.6-0.1,1.3,0.4,1.6l0,0l5.9,3.4c0.4,0.2,0.8,0.2,1.2,0l5.9-3.4
			c0.6-0.3,0.8-1.1,0.4-1.6l-5.9-10.3c-0.3-0.6-1.1-0.8-1.6-0.4C893.2,224.7,893,224.9,892.9,225.1z"/>
		<path class="st34" d="M895,225.1c-0.2-0.4-0.6-0.6-1-0.6v16.1c0.2,0,0.4-0.1,0.6-0.2l5.9-3.4c0.6-0.3,0.8-1.1,0.4-1.6L895,225.1z"
			/>
		<path class="st33" d="M885.3,229.4l-6,10.2c-0.3,0.6-0.1,1.3,0.4,1.6l5.9,3.4c0.4,0.2,0.8,0.2,1.2,0l5.9-3.4
			c0.6-0.3,0.8-1.1,0.4-1.6l-5.9-10.3c-0.4-0.6-1.1-0.7-1.7-0.4C885.5,229.1,885.4,229.2,885.3,229.4z"/>
		<path class="st34" d="M887.4,229.4c-0.2-0.4-0.6-0.6-1-0.6v16c0.2,0,0.4-0.1,0.6-0.2l5.9-3.4c0.6-0.3,0.8-1.1,0.4-1.6L887.4,229.4
			z"/>
		<path class="st33" d="M867.4,216.7l-5.9,10.3c-0.3,0.6-0.1,1.3,0.4,1.6l0,0l5.9,3.4c0.4,0.2,0.8,0.2,1.2,0l5.9-3.4
			c0.6-0.3,0.8-1.1,0.4-1.6l0,0l-5.9-10.3c-0.3-0.6-1.1-0.8-1.6-0.4C867.6,216.3,867.5,216.5,867.4,216.7z"/>
		<path class="st34" d="M869.5,216.7c-0.2-0.4-0.6-0.6-1-0.6v16.1c0.2,0,0.4-0.1,0.6-0.2l5.9-3.4c0.6-0.3,0.8-1.1,0.4-1.6l0,0
			L869.5,216.7z"/>
		<path class="st33" d="M905.8,228.1l-5.9,10.3c-0.3,0.6-0.1,1.3,0.4,1.6l6,3.4c0.4,0.2,0.8,0.2,1.2,0l5.9-3.4
			c0.6-0.3,0.8-1.1,0.4-1.6l0,0l-5.9-10.2c-0.3-0.6-1-0.8-1.6-0.5C906.1,227.7,905.9,227.9,905.8,228.1z"/>
		<path class="st34" d="M907.9,228.1c-0.2-0.4-0.6-0.6-1-0.6v16.1c0.2,0,0.4-0.1,0.6-0.2l5.9-3.4c0.6-0.3,0.8-1.1,0.4-1.6l0,0
			L907.9,228.1z"/>
		<path class="st33" d="M967.8,190.8l-5.9,10.3c-0.3,0.6-0.1,1.3,0.4,1.6l0,0l5.9,3.4c0.4,0.2,0.8,0.2,1.2,0l5.9-3.4
			c0.6-0.3,0.8-1.1,0.4-1.6l-5.9-10.3c-0.3-0.6-1.1-0.8-1.6-0.4C968,190.4,967.9,190.6,967.8,190.8z"/>
		<path class="st34" d="M969.9,190.8c-0.2-0.4-0.6-0.6-1-0.6v16c0.2,0,0.4-0.1,0.6-0.2l5.9-3.4c0.6-0.3,0.8-1.1,0.4-1.6L969.9,190.8
			z"/>
		<path class="st33" d="M960.2,195l-5.9,10.2c-0.3,0.6-0.1,1.3,0.4,1.6l5.9,3.4c0.4,0.2,0.8,0.2,1.2,0l5.9-3.4
			c0.6-0.3,0.8-1.1,0.5-1.6l0,0l-5.9-10.3c-0.3-0.6-1.1-0.8-1.7-0.4C960.4,194.7,960.3,194.8,960.2,195z"/>
		<path class="st34" d="M962.3,195c-0.2-0.4-0.6-0.6-1-0.6v16.1c0.2,0,0.4-0.1,0.6-0.2l5.9-3.4c0.6-0.3,0.8-1.1,0.5-1.6l0,0
			L962.3,195z"/>
		<path class="st33" d="M944.7,196.1l-5.9,10.2c-0.3,0.6-0.1,1.3,0.4,1.6l0,0l5.9,3.4c0.4,0.2,0.8,0.2,1.2,0l5.9-3.4
			c0.6-0.3,0.8-1.1,0.4-1.6l-5.9-10.3c-0.3-0.6-1.1-0.8-1.6-0.4C944.9,195.8,944.8,196,944.7,196.1z"/>
		<path class="st34" d="M946.8,196.1c-0.2-0.4-0.6-0.6-1-0.6v16.1c0.2,0,0.4-0.1,0.6-0.2l5.9-3.4c0.6-0.3,0.8-1.1,0.4-1.6
			L946.8,196.1z"/>
		<path class="st33" d="M937.1,200.5l-5.9,10.3c-0.3,0.6-0.1,1.3,0.4,1.6l6,3.4c0.4,0.2,0.8,0.2,1.2,0l5.9-3.4
			c0.6-0.3,0.8-1.1,0.4-1.6l0,0l-5.9-10.3c-0.3-0.6-1-0.8-1.6-0.5C937.4,200.1,937.2,200.3,937.1,200.5z"/>
		<path class="st34" d="M939.2,200.5c-0.2-0.4-0.6-0.6-1-0.6V216c0.2,0,0.4-0.1,0.6-0.2l5.9-3.4c0.6-0.3,0.8-1.1,0.4-1.6l0,0
			L939.2,200.5z"/>
		<path class="st33" d="M952.3,200.5l-5.9,10.3c-0.3,0.6-0.1,1.3,0.4,1.6l6,3.4c0.4,0.2,0.8,0.2,1.2,0l5.9-3.4
			c0.6-0.3,0.8-1.1,0.4-1.6l0,0l-5.9-10.3c-0.3-0.6-1-0.8-1.6-0.5C952.6,200.1,952.4,200.3,952.3,200.5z"/>
		<path class="st34" d="M954.3,200.5c-0.2-0.4-0.6-0.6-1-0.6V216c0.2,0,0.4-0.1,0.6-0.2l5.9-3.4c0.6-0.3,0.8-1.1,0.4-1.6l0,0
			L954.3,200.5z"/>
		<path class="st33" d="M944.7,204.8l-5.9,10.2c-0.3,0.6-0.1,1.3,0.4,1.6l0,0l5.9,3.4c0.4,0.2,0.8,0.2,1.2,0l5.9-3.4
			c0.6-0.3,0.8-1.1,0.4-1.6l-5.9-10.3c-0.3-0.6-1.1-0.8-1.6-0.4C944.9,204.4,944.8,204.6,944.7,204.8z"/>
		<path class="st34" d="M946.8,204.8c-0.2-0.4-0.6-0.6-1-0.6v16c0.2,0,0.4-0.1,0.6-0.2l5.9-3.4c0.6-0.3,0.8-1.1,0.4-1.6L946.8,204.8
			z"/>
		<path class="st33" d="M928.4,203.4l-5.9,10.3c-0.3,0.6-0.1,1.3,0.4,1.6l0,0l5.9,3.4c0.4,0.2,0.8,0.2,1.2,0l5.9-3.4
			c0.6-0.3,0.8-1.1,0.4-1.6l0,0l-5.8-10.3c-0.3-0.6-1-0.8-1.6-0.5C928.7,203,928.6,203.2,928.4,203.4z"/>
		<path class="st34" d="M930.6,203.4c-0.2-0.4-0.6-0.6-1-0.6v16c0.2,0,0.4-0.1,0.6-0.2l5.9-3.4c0.6-0.3,0.8-1.1,0.4-1.6l0,0
			L930.6,203.4z"/>
		<path class="st33" d="M920.9,207.8L915,218c-0.3,0.6-0.1,1.3,0.4,1.6l6,3.4c0.4,0.2,0.8,0.2,1.2,0l5.9-3.4
			c0.6-0.3,0.8-1.1,0.4-1.6l0,0l-5.9-10.3c-0.3-0.6-1-0.8-1.6-0.5C921.2,207.4,921,207.5,920.9,207.8z"/>
		<path class="st34" d="M923,207.8c-0.2-0.4-0.6-0.6-1-0.6v16c0.2,0,0.4-0.1,0.6-0.2l5.9-3.4c0.6-0.3,0.8-1.1,0.4-1.6l0,0L923,207.8
			z"/>
		<path class="st33" d="M936,207.8l-5.9,10.3c-0.3,0.6-0.1,1.3,0.4,1.6l6,3.4c0.4,0.2,0.8,0.2,1.2,0l5.9-3.4
			c0.6-0.3,0.8-1.1,0.4-1.6l0,0l-5.9-10.3c-0.3-0.6-1-0.8-1.6-0.5C936.3,207.4,936.1,207.5,936,207.8z"/>
		<path class="st34" d="M938.1,207.8c-0.2-0.4-0.6-0.6-1-0.6v16c0.2,0,0.4-0.1,0.6-0.2l5.9-3.4c0.6-0.3,0.8-1.1,0.4-1.6l0,0
			L938.1,207.8z"/>
		<path class="st33" d="M928.4,212l-5.9,10.2c-0.3,0.6-0.1,1.3,0.4,1.6l0,0l5.9,3.4c0.4,0.2,0.8,0.2,1.2,0l5.9-3.4
			c0.6-0.3,0.8-1.1,0.4-1.6l-5.8-10.3c-0.3-0.6-1-0.8-1.6-0.5C928.7,211.6,928.6,211.8,928.4,212z"/>
		<path class="st34" d="M930.6,212c-0.2-0.4-0.6-0.6-1-0.6v16.1c0.2,0,0.4-0.1,0.6-0.2l5.9-3.4c0.6-0.3,0.8-1.1,0.4-1.6L930.6,212z"
			/>
		<path class="st33" d="M944.2,210.7l-5.9,10.3c-0.3,0.6-0.1,1.3,0.4,1.6l0,0l5.9,3.4c0.4,0.2,0.8,0.2,1.2,0l5.9-3.4
			c0.6-0.3,0.8-1.1,0.4-1.6l-5.9-10.2c-0.3-0.6-1.1-0.8-1.6-0.4C944.5,210.3,944.3,210.5,944.2,210.7z"/>
		<path class="st34" d="M946.3,210.7c-0.2-0.4-0.6-0.6-1-0.6v16.1c0.2,0,0.4-0.1,0.6-0.2l5.9-3.4c0.6-0.3,0.8-1.1,0.4-1.6
			L946.3,210.7z"/>
		<path class="st33" d="M936.7,215l-5.9,10.3c-0.3,0.6-0.1,1.3,0.4,1.6l0,0l6,3.4c0.4,0.2,0.8,0.2,1.2,0l5.9-3.4
			c0.6-0.3,0.8-1.1,0.4-1.6l0,0l-5.9-10.3c-0.3-0.6-1.1-0.8-1.6-0.4C937,214.7,936.8,214.8,936.7,215z"/>
		<path class="st34" d="M938.8,215c-0.2-0.4-0.6-0.6-1-0.6v16.1c0.2,0,0.4-0.1,0.6-0.2l5.9-3.4c0.6-0.3,0.8-1.1,0.4-1.6l0,0
			L938.8,215z"/>
		<path class="st33" d="M951.8,215l-5.9,10.3c-0.3,0.6-0.1,1.3,0.4,1.6l0,0l6,3.4c0.4,0.2,0.8,0.2,1.2,0l5.9-3.4
			c0.6-0.3,0.8-1.1,0.4-1.6l0,0L954,215c-0.3-0.6-1-0.8-1.6-0.5C952.1,214.6,951.9,214.8,951.8,215z"/>
		<path class="st34" d="M953.9,215c-0.2-0.4-0.6-0.6-1-0.6v16.1c0.2,0,0.4-0.1,0.6-0.2l5.9-3.4c0.6-0.3,0.8-1.1,0.4-1.6l0,0
			L953.9,215z"/>
		<path class="st33" d="M944.2,219.3l-5.9,10.3c-0.3,0.6-0.1,1.3,0.4,1.6l0,0l5.9,3.4c0.4,0.2,0.8,0.2,1.2,0l5.9-3.4
			c0.6-0.3,0.8-1.1,0.4-1.6l0,0l-5.9-10.3c-0.3-0.6-1.1-0.8-1.6-0.4C944.5,219,944.3,219.1,944.2,219.3z"/>
		<path class="st34" d="M946.3,219.3c-0.2-0.4-0.6-0.6-1-0.6v16.1c0.2,0,0.4-0.1,0.6-0.2l5.9-3.4c0.6-0.3,0.8-1.1,0.4-1.6l0,0
			L946.3,219.3z"/>
		<path class="st33" d="M930.8,216.5l-5.9,10.3c-0.3,0.6-0.1,1.3,0.4,1.6l5.9,3.4c0.4,0.2,0.8,0.2,1.2,0l5.9-3.4
			c0.6-0.3,0.8-1.1,0.5-1.6l0,0l-5.9-10.3c-0.3-0.6-1.1-0.8-1.7-0.4C931.1,216.2,930.9,216.3,930.8,216.5z"/>
		<path class="st34" d="M932.9,216.5c-0.2-0.4-0.6-0.6-1-0.6V232c0.2,0,0.4-0.1,0.6-0.2l5.9-3.4c0.6-0.3,0.8-1.1,0.5-1.6l0,0
			L932.9,216.5z"/>
		<path class="st33" d="M923.3,220.8l-5.9,10.3c-0.3,0.6-0.1,1.3,0.4,1.6l0,0l5.9,3.4c0.4,0.2,0.8,0.2,1.2,0l5.9-3.4
			c0.6-0.3,0.8-1.1,0.4-1.6l0,0l-5.9-10.3c-0.3-0.6-1.1-0.8-1.6-0.4C923.5,220.5,923.4,220.7,923.3,220.8z"/>
		<path class="st34" d="M925.4,220.8c-0.2-0.4-0.6-0.6-1-0.6v16.1c0.2,0,0.4-0.1,0.6-0.2l5.9-3.4c0.6-0.3,0.8-1.1,0.4-1.6l0,0
			L925.4,220.8z"/>
		<path class="st33" d="M930.8,225.1l-5.9,10.3c-0.3,0.6-0.1,1.3,0.4,1.6l5.9,3.4c0.4,0.2,0.8,0.2,1.2,0l5.9-3.4
			c0.6-0.3,0.8-1.1,0.5-1.6l-5.9-10.2c-0.3-0.6-1.1-0.8-1.7-0.4C931.1,224.8,930.9,225,930.8,225.1z"/>
		<path class="st34" d="M932.9,225.1c-0.2-0.4-0.6-0.6-1-0.6v16.1c0.2,0,0.4-0.1,0.6-0.2l5.9-3.4c0.6-0.3,0.8-1.1,0.5-1.6
			L932.9,225.1z"/>
		<path class="st47" d="M945,125c-0.1,0-0.2,0-0.3-0.1s-0.1-0.4,0-0.5c0.8-0.8,1.7-1.6,2.6-2.2c1.7-1.1,3.5-1.8,5.5-2
			c2.6-0.3,5.3,0.1,7.6,1.3c0.2,0.1,0.3,0.3,0.2,0.5s-0.3,0.3-0.5,0.2l0,0c-2.2-1.1-4.7-1.5-7.2-1.2c-2.9,0.4-5.6,1.8-7.7,4
			C945.2,125,945.1,125,945,125z"/>
		<path class="st47" d="M936.5,120.4c-0.2,0-0.4-0.1-0.4-0.3c0-0.2,0.1-0.3,0.2-0.4c1.8-0.8,2.9-2.6,3-4.5c0-1.8-0.9-3.4-2.3-4.4
			c-0.2-0.1-0.2-0.3-0.1-0.5l0,0c0.1-0.2,0.3-0.2,0.5-0.1l0,0c1.7,1.2,2.6,3.1,2.6,5.1c-0.1,2.2-1.4,4.2-3.4,5.2
			C936.7,120.4,936.6,120.4,936.5,120.4z"/>
		<path class="st47" d="M941.2,123.8c-0.1,0-0.1,0-0.2-0.1c-0.2-0.1-0.2-0.3-0.1-0.5l0,0c2.3-3.6,5.8-6.2,9.9-7.4
			c1.4-0.4,2.9-0.6,4.3-0.5c0.2,0,0.4,0.2,0.4,0.4l0,0c0,0.2-0.2,0.4-0.4,0.4c-1.4,0-2.8,0.1-4.1,0.5c-3.9,1.2-7.3,3.7-9.5,7.1
			C941.5,123.8,941.3,123.8,941.2,123.8z"/>
		<path class="st47" d="M938,122.2c-0.2,0-0.4-0.2-0.4-0.4c0-0.1,0.1-0.2,0.2-0.3c1-0.6,5.8-3.7,6-8.6c0-0.9-0.1-1.9-0.3-2.8
			c0-0.2,0.1-0.4,0.3-0.4s0.3,0.1,0.4,0.2c0.3,1,0.4,2,0.4,3c-0.2,2.5-1.2,4.8-3,6.5c-1,1.1-2.1,2-3.4,2.7
			C938.1,122.1,938.1,122.2,938,122.2z"/>
		<path class="st51" d="M415,493.1c9,32.6,18.1,65.1,27.1,97.7l88.1,75l23.1,42.2l35.9,16.3l76.6-47.8l32.7-68.6l21.9-24.3
			c5.7-31.2,11.4-62.4,17.1-93.6L415,493.1z"/>
		<path class="st52" d="M698.5,607.1l21.9-23.5c5.7-31.2,11.4-62.4,17.1-93.6l-32.3,48.6L698.5,607.1z"/>
		<path class="st53" d="M655.9,548.5l42.7,58.6l9.6-96.5L655.9,548.5z"/>
		<polygon class="st54" points="442.2,590.8 476.4,535.8 416.7,501.8 		"/>
		<path class="st51" d="M466.5,551.7c11.3,29.6,22.7,59.1,34,88.7l-58.4-49.7L466.5,551.7z"/>
		<polygon class="st54" points="500.4,640.6 517,569.7 468.5,548.5 466.5,551.7 		"/>
		<polygon class="st55" points="530.3,665.7 517.1,568.1 500.4,640.6 		"/>
		<polygon class="st52" points="553.4,708 590.1,676.5 590.1,724.3 		"/>
		<polygon class="st56" points="517,569.7 553.4,611.5 614.1,573.2 		"/>
		<polygon class="st55" points="590.1,676.5 614,573.2 553.4,611.5 553.4,708 		"/>
		<polygon class="st52" points="664.6,560.6 665.8,676.5 698.5,607.1 		"/>
		<path class="st51" d="M590.1,676.5l46.6-29.1c9.3-29,18.6-57.9,27.9-86.9L614,573.3L590.1,676.5z"/>
		<polygon class="st55" points="665.8,676.5 636.7,647.4 664.6,560.5 		"/>
		<polygon class="st52" points="590.1,724.3 636.7,647.4 665.8,676.5 		"/>
		<path class="st57" d="M460.9,548.5c-63.3-36.4-63.3-96.1-0.1-132.6s166.6-36.5,229.9,0c63.3,36.5,63.3,96.2,0.1,132.6
			S524.2,585,460.9,548.5z"/>
		<path class="st58" d="M690.9,548.7c63.2-36.5,63.3-96.2,0.1-132.7s-166.6-36.5-229.8,0s-63.3,96.3-0.1,132.7
			S627.7,585.2,690.9,548.7z"/>
		<path class="st59" d="M544.7,350c-0.6-0.1-1.1,0.2-1.3,0.8l0,0c-2.5,10.4-9.1,19.2-18.3,24.6c-2.2,1.3-4.6,2.4-7,3.4
			c-1.2,0.5-2.4,0.8-3.7,1.2l-0.5,0.1l-0.5,0.1l-0.9,0.2c-0.6,0.1-1.3,0.3-1.9,0.4c-3.7,0.6-7.5,0.8-11.3,0.4
			c-0.9-2.3-1.8-4.4-2.3-6.1c-0.3-0.8-0.4-1.7-0.6-2.5c-0.1-0.7-0.1-1.5,0.1-2.2c0.1-0.4,0.2-0.8,0.3-1.2c0.1-0.4,0.3-0.7,0.4-1.1
			c0.3-0.7,0.8-1.4,1.3-1.9c0.7-0.7,1.5-1.4,2.3-1.9c0.9-0.7,2-1.4,3.1-2.1s2.3-1.6,3.4-2.6c1.1-0.9,2.2-2,3.1-3.1
			c1.9-2.2,3.5-4.6,4.7-7.2c1.2-2.5,2.1-5.2,2.6-7.9c0.5-2.6,0.8-5.3,0.9-8c0-1.3,0-2.6,0-4c0-0.6,0-1.3-0.1-2l-0.2-2l-0.1-1l-0.1-1
			l-0.3-1.9c-0.2-1.3-0.4-2.5-0.7-3.8c-0.1-0.6-0.7-1-1.3-0.8c-0.5,0.1-0.9,0.5-0.9,1v0.1c0,1.3,0.1,2.5,0.1,3.8v1.9v0.9v0.9
			l-0.1,1.9c0,0.6-0.1,1.2-0.2,1.8c-0.1,1.2-0.3,2.4-0.5,3.6c-0.4,2.4-1,4.7-1.8,7c-0.8,2.2-1.8,4.2-3.1,6.2c-1.2,1.9-2.7,3.5-4.4,5
			c-1.7,1.4-3.6,2.6-5.6,3.6c-1.1,0.5-2.2,1.1-3.4,1.7c-1.4,0.7-2.7,1.5-3.9,2.5c-0.7,0.5-1.3,1.1-1.9,1.8c-0.6,0.7-1.2,1.3-1.7,2.1
			c-0.5,0.7-0.9,1.5-1.3,2.3s-0.7,1.6-1,2.4c-0.6,1.7-1,3.5-1.1,5.3c-0.1,1.7,0,3.4,0.3,5c0.1,0.5,0.2,0.9,0.2,1.4
			c-1.1-1.2-2.3-2.4-3.6-3.5l-1.3-1.1c-0.4-0.4-0.9-0.7-1.3-1c-0.9-0.7-1.8-1.3-2.7-1.9c-1.9-1.2-3.8-2.2-5.8-3.1
			c-2-0.8-4-1.5-6-2.1c-1-0.3-1.9-0.6-2.8-0.9c-0.4-0.2-0.9-0.3-1.3-0.5l-0.6-0.3l-0.3-0.1l-0.3-0.2l-0.6-0.3
			c-0.2-0.1-0.4-0.2-0.6-0.4s-0.4-0.2-0.6-0.4l-0.5-0.4c-0.2-0.1-0.4-0.3-0.5-0.4l-0.5-0.5c-0.2-0.2-0.3-0.3-0.5-0.5l-0.5-0.5
			c-1.3-1.4-2.4-2.9-3.3-4.6c-1.8-3.5-2.8-7.3-3.2-11.2l0,0c0-0.6-0.5-1-1.1-1s-1,0.5-1,1.1l0,0c0,1,0,2.1,0.1,3.1s0.2,2.1,0.4,3.1
			c0.4,2.1,0.9,4.2,1.7,6.2c0.8,2,1.9,4,3.3,5.7l0.5,0.7c0.2,0.2,0.4,0.4,0.6,0.6l0.6,0.6c0.2,0.2,0.4,0.4,0.6,0.6l0.6,0.6
			c0.2,0.2,0.4,0.4,0.7,0.5s0.4,0.4,0.7,0.5l0.7,0.5l0.4,0.2l0.4,0.2l0.7,0.4c0.5,0.3,1,0.5,1.5,0.8c1,0.5,2,0.9,2.9,1.3
			c1.8,0.7,3.6,1.6,5.3,2.5c1.6,0.9,3.2,2,4.7,3.1c0.7,0.6,1.5,1.2,2.1,1.8c0.3,0.3,0.7,0.6,1,1l1,1c1.3,1.4,2.5,2.8,3.5,4.4
			c1.1,1.5,2,3.1,2.9,4.8c0.9,1.6,1.6,3.3,2.2,5c0.2,0.4,0.3,0.9,0.4,1.3l0.4,1.3l0.3,1.3c0.1,0.4,0.2,0.9,0.3,1.3l0.2,1.3
			c0,0.2,0.1,0.5,0.1,0.7l0.1,0.7c0.1,0.9,0.2,1.8,0.2,2.7c0,0.4,0,0.9,0,1.4s0,0.9,0,1.4l-0.1,1.4l-0.1,1.4
			c-0.4,3.6-1.2,7.1-2.4,10.5c-0.1,0.2-0.1,0.4-0.2,0.6c-0.2,0.6-0.2,1.3-0.2,1.9c0,0,0,0,0,0.1l-0.2,0.4c-0.1,0.1-0.1,0.3-0.1,0.4
			c0,0.4,0.1,0.7,0.4,1l1,1.2c3.7,4.5,9.8,6.2,15.3,4.4c0.4-0.1,0.8-0.4,1-0.8c0.1-0.2,0.1-0.3,0.2-0.5l0.1-0.5
			c0.2-0.7,0.3-1.4,0.5-2.1c0.3-1.4,0.6-2.8,0.9-4.2c0.5-2.8,0.9-5.6,1.1-8.5c0.5-5.7,0.2-11.5-0.7-17.2c-0.1-0.7-0.3-1.4-0.4-2.1
			s-0.3-1.4-0.5-2.1c-0.3-1.4-0.7-2.8-1.1-4.1c-0.1-0.3-0.2-0.5-0.3-0.8c3.4-0.1,6.7-0.6,9.9-1.5c0.7-0.2,1.4-0.4,2.1-0.6l1-0.3
			l0.5-0.2l0.5-0.2c1.4-0.5,2.7-1.1,4-1.7c2.6-1.2,5.1-2.7,7.5-4.4c2.3-1.7,4.5-3.6,6.5-5.7s3.7-4.4,5.3-6.8c3-4.8,5-10.2,5.9-15.8
			C545.7,350.6,545.3,350.1,544.7,350z"/>
		
			<ellipse transform="matrix(0.3827 -0.9239 0.9239 0.3827 -42.4028 632.8262)" class="st60" cx="452.3" cy="348.1" rx="16.2" ry="16.2"/>
		<path class="st61" d="M440.7,359.4c6.3,6.3,16.5,6.3,22.9,0c6.3-6.3,6.3-16.5,0-22.9l0,0L440.7,359.4z"/>
		<circle class="st60" cx="544.7" cy="350.4" r="16.2"/>
		<path class="st61" d="M533.1,361.6c6.3,6.3,16.5,6.3,22.9,0c6.3-6.3,6.3-16.5,0-22.9L533.1,361.6z"/>
		<circle class="st60" cx="485.9" cy="340.1" r="22.2"/>
		<path class="st61" d="M469.8,355.5c8.7,8.7,22.8,8.7,31.5,0s8.7-22.8,0-31.5L469.8,355.5z"/>
		<circle class="st60" cx="510.1" cy="326.1" r="15.4"/>
		<path class="st61" d="M498.9,336.8c5.7,6.3,15.5,6.9,21.8,1.2s6.9-15.5,1.2-21.8c-0.4-0.4-0.7-0.8-1.2-1.2L498.9,336.8z"/>
		<circle class="st60" cx="510.7" cy="345.9" r="22.2"/>
		<path class="st61" d="M494.6,361.3c8.6,8.8,22.7,8.9,31.4,0.4c8.8-8.6,8.9-22.7,0.4-31.4c-0.1-0.1-0.2-0.2-0.4-0.4L494.6,361.3z"
			/>
		<path class="st62" d="M691,415.9c-16.3-9.5-35.4-16.5-55.7-21l-13,13.1l-46.1,125.7h5.2l31.3-18l28.9,4.8l71.7,12.1
			C753,496.4,745.6,447.5,691,415.9z"/>
		<polygon class="st63" points="690.8,464.6 576.2,530.7 461.5,464.6 461.5,467.6 461.6,467.6 576.3,533.8 690.9,467.6 690.9,464.6 
					"/>
		<polygon class="st64" points="659.5,410.4 576.2,362.2 492.8,410.4 576.1,458.5 		"/>
		<polygon class="st64" points="690.8,464.6 576.2,398.4 461.5,464.6 503.2,488.7 500.6,490.2 531.9,508.2 534.5,506.7 576.2,530.8 
					"/>
		<polygon class="st64" points="500.6,491.7 498,493.1 529.3,511.2 531.9,509.7 		"/>
		<polygon class="st63" points="531.9,508.2 531.9,509.6 500.5,491.6 500.5,490.1 		"/>
		<polygon class="st63" points="529.3,511.2 529.3,512.7 498,494.7 498,493.2 		"/>
		<path class="st65" d="M576.1,410.4l-41.7-24.1v24.1l41.7,24l41.7-24v-24L576.1,410.4z"/>
		<path class="st66" d="M576.1,434.4l0.1,0.1l41.6-24v-24l-41.7,24l0,0V434.4z"/>
		<polygon class="st67" points="576.2,431.5 618,407.4 617.8,386.4 659.6,410.4 607.6,440.5 		"/>
		<polygon class="st68" points="641.2,409 641.2,397 638.8,398.3 638.8,410.4 		"/>
		<polygon class="st68" points="630.8,415.1 630.7,403 628.4,404.4 628.4,416.5 		"/>
		<polygon class="st68" points="620.4,421.1 620.3,409 618,410.4 618,422.5 		"/>
		<polygon class="st68" points="609.9,427.1 609.9,415 607.6,416.4 607.6,428.5 		"/>
		<polygon class="st68" points="599.5,433.1 599.4,421 597.1,422.4 597.1,434.5 		"/>
		<polygon class="st68" points="620.3,397 617.8,398.3 617.8,386.4 620.3,387.7 		"/>
		<polygon class="st68" points="630.7,403 628.2,404.4 628.2,392.4 630.7,393.8 		"/>
		<polygon class="st69" points="547.3,427.1 544.9,428.4 544.9,416.5 547.3,417.8 		"/>
		<polygon class="st69" points="557.8,433.1 555.3,434.4 555.3,422.5 557.8,423.8 		"/>
		<polygon class="st69" points="568.1,439.1 565.7,440.5 565.7,428.5 568.1,429.9 		"/>
		<path class="st69" d="M578.6,445.1l-2.4,1.4v-12l2.4-1.4V445.1z"/>
		<polygon class="st69" points="536.9,421.1 534.5,422.5 534.5,410.5 536.9,411.8 		"/>
		<polygon class="st69" points="526.5,415.1 524.1,416.5 524.1,404.5 526.5,405.8 		"/>
		<polygon class="st69" points="516,409 513.6,410.4 513.6,398.4 516,399.8 		"/>
		<polygon class="st69" points="589.1,439.1 589,427.1 586.7,428.4 586.7,440.5 		"/>
		<polygon class="st69" points="526.5,403 526.4,391 524.1,392.3 524.1,404.4 		"/>
		<polygon class="st70" points="511.2,409 511.2,397 513.6,398.3 513.6,410.4 		"/>
		<polygon class="st70" points="521.6,415.1 521.7,403 524,404.4 524,416.5 		"/>
		<polygon class="st70" points="532,421.1 532.1,409 534.4,410.4 534.4,422.5 		"/>
		<polygon class="st70" points="542.4,427.1 542.5,415 544.8,416.4 544.8,428.5 		"/>
		<polygon class="st70" points="552.9,433.1 553,421 555.3,422.4 555.3,434.5 		"/>
		<polygon class="st70" points="563.3,439.1 563.4,427.1 565.7,428.4 565.7,440.5 		"/>
		<polygon class="st70" points="573.8,445.1 573.8,433.1 576.2,434.4 576.2,446.5 		"/>
		<polygon class="st70" points="584.2,439.1 586.6,440.5 586.6,428.5 584.2,429.9 		"/>
		<polygon class="st70" points="532,397 534.5,398.3 534.5,386.4 532,387.7 		"/>
		<polygon class="st70" points="521.6,403 524,404.4 524,392.4 521.6,393.8 		"/>
		<polygon class="st69" points="625.8,403 625.9,391 628.2,392.3 628.2,404.4 		"/>
		<polygon class="st69" points="605.1,427.1 607.5,428.4 607.5,416.5 605.1,417.8 		"/>
		<polygon class="st69" points="594.6,433.1 597,434.4 597,422.5 594.6,423.8 		"/>
		<polygon class="st69" points="615.5,421.1 617.9,422.5 617.9,410.5 615.5,411.8 		"/>
		<polygon class="st69" points="625.9,415.1 628.3,416.5 628.3,404.5 625.9,405.8 		"/>
		<polygon class="st69" points="636.4,409 638.8,410.4 638.8,398.4 636.4,399.8 		"/>
		<path class="st71" d="M576.2,359.2L511,396.8l65.2,37.6l65-37.6L576.2,359.2z M576.2,431.5l-60.1-34.7l60.1-34.7l60,34.7
			L576.2,431.5z"/>
		<polygon class="st72" points="591.7,425.4 641.2,396.8 609.2,378.3 607.7,380.4 636.2,396.8 587.9,424.7 		"/>
		<polygon class="st63" points="659.5,410.4 576.1,458.5 492.8,410.4 492.8,413.4 576.1,461.5 659.5,413.4 659.6,413.4 659.6,410.4 
					"/>
		<polygon class="st65" points="649.1,419.4 649.1,464.6 576.1,506.7 503.2,464.6 503.2,419.4 576.1,461.5 		"/>
		<path class="st73" d="M544.9,356.2c-9.2,8-19.8,14.1-31.3,18l62.5,36.1l62.7-36.1c-11.5-4-22.1-10.1-31.4-18l-31.3,18L544.9,356.2
			z"/>
		<path class="st65" d="M576.1,356.4l-31-17.9v17.9l31.1,17.9l31-17.9v-17.9L576.1,356.4z"/>
		<path class="st74" d="M597,317.2c-9.1-7.1-16.3-16.5-20.9-27.2c-8.5,19.8-25.7,34.4-46.6,39.5l46.5,26.9l46.7-26.9
			C613.4,327.3,604.7,323,597,317.2z"/>
		<path class="st75" d="M531.9,508.2v1.4l-2.7,1.5v1.5l5.2-3v-3"/>
		<path class="st69" d="M576.2,290.1v66.2l46.5-26.8C601.9,324.5,584.6,309.9,576.2,290.1L576.2,290.1z"/>
		<polygon class="st66" points="576.2,374.2 607.1,356.4 607.1,338.5 576.2,356.3 		"/>
		<path class="st69" d="M607.4,356.2l-31.3,18l0,0v36.1l0,0l62.7-36.1C627.3,370.2,616.7,364.1,607.4,356.2L607.4,356.2z"/>
		<polygon class="st66" points="576.1,461.5 576.1,506.6 576.1,506.7 649.1,464.6 649.1,419.4 		"/>
		<polygon class="st75" points="576.1,458.5 576.1,458.5 576.1,461.5 576.1,461.5 659.5,413.4 659.6,413.4 659.6,410.4 659.5,410.4 
					"/>
		<polygon class="st75" points="576.2,530.7 576.2,533.7 576.3,533.8 690.9,467.6 690.9,464.6 690.8,464.6 		"/>
		<polygon class="st67" points="649.2,440.5 690.8,464.5 607.5,512.6 576.1,506.6 649.1,464.5 		"/>
		
			<linearGradient id="SVGID_18_" gradientUnits="userSpaceOnUse" x1="539.016" y1="495.42" x2="539.016" y2="459.22" gradientTransform="matrix(1 0 0 1 0 1.86)">
			<stop  offset="0" style="stop-color:#72673B"/>
			<stop  offset="1" style="stop-color:#000000"/>
		</linearGradient>
		<polygon class="st76" points="528.6,479.2 528.6,455.1 549.5,467.3 549.5,491.3 		"/>
		<polygon class="st75" points="528.6,479.2 530.8,478 530.8,456.4 528.6,455.1 		"/>
		<path class="st64" d="M549.6,483.3l-20.9-4l2.7,4l18.3,8L549.6,483.3z"/>
	</g>
</g>
</svg>
