<svg xmlns="http://www.w3.org/2000/svg" viewBox="0 0 814.51 879.3"><defs><style>.cls-1{fill:#685a4d;}.cls-2,.cls-3,.cls-5{fill:#534639;}.cls-3{opacity:0.9;}.cls-4,.cls-6{fill:#968676;}.cls-5{opacity:0.6;}.cls-6{opacity:0.3;}.cls-7{fill:#f4dcab;}.cls-8{fill:#e8c391;}.cls-9{fill:#d8b782;}.cls-10{fill:#e8d4b1;}.cls-11{fill:none;}.cls-12{fill:#cca46a;}</style></defs><title>jumbotron_pyramidsFichier 4</title><g id="Calque_2" data-name="Calque 2"><g id="Calque_1-2" data-name="Calque 1"><path class="cls-1" d="M4,299.3q34,122.51,68,245l221,188,58,106,90,41,192-120,82-172q27.5-30.49,55-61,21.5-117.43,43-234.89Z"/><path class="cls-2" d="M715,585.3l55-59q21.5-117.43,43-234.89L732,413.3Q723.5,499.31,715,585.3Z"/><path class="cls-3" d="M608,438.3l107,147,24-242Z"/><polygon class="cls-4" points="72 544.3 158 406.3 8.27 321.03 72 544.3"/><path class="cls-1" d="M133,446.3l85.38,222.52L72,544.3Z"/><polygon class="cls-4" points="218 669.3 259.62 491.37 138.02 438.36 133 446.3 218 669.3"/><polygon class="cls-5" points="293 732.3 260 487.3 218 669.3 293 732.3"/><polygon class="cls-2" points="351 838.3 443 759.3 443 879.3 351 838.3"/><polygon class="cls-6" points="259.62 491.37 351 596.3 503.17 500.24 259.62 491.37"/><polygon class="cls-5" points="443 759.3 503 500.3 351 596.3 351 838.3 443 759.3"/><polygon class="cls-2" points="629.98 468.5 633 759.3 715 585.3 629.98 468.5"/><path class="cls-1" d="M443,759.3l117-73q35-109,70-218l-127,32Z"/><polygon class="cls-5" points="633 759.3 560 686.3 630 468.3 633 759.3"/><polygon class="cls-2" points="443 879.3 560 686.3 633 759.3 443 879.3"/><path class="cls-7" d="M119.06,438.38C-39.59,347-39.7,197.27,118.8,105.72s418-91.55,576.65,0,158.76,241.25.26,332.66S277.71,529.78,119.06,438.38Z"/><polygon class="cls-8" points="114.97 328.84 254.1 268.33 176.92 238.15 114.97 328.84"/><polygon class="cls-8" points="245.29 254.45 473.95 155.01 347.1 105.41 245.29 254.45"/><path class="cls-8" d="M792.17,349.39,499.66,476.6,663.71,236.45l149,58.25A155.93,155.93,0,0,1,792.17,349.39Z"/><polygon class="cls-9" points="404.09 161.04 244.91 0 244.91 252.87 404.09 161.04"/><polygon class="cls-10" points="85.72 161.04 244.91 0 244.91 252.87 85.72 161.04"/><polygon class="cls-11" points="135.07 112.64 141.49 106.14 245.25 166 245.42 165.9 349.01 106.14 355.43 112.64 245.25 176.2 135.07 112.64"/><polygon class="cls-11" points="162.75 84.63 169.18 78.13 245.25 122.02 245.42 121.92 321.32 78.13 327.75 84.63 245.25 132.22 162.75 84.63"/><polygon class="cls-11" points="141.99 105.64 148.41 99.14 245.25 155 245.42 154.9 342.09 99.14 348.51 105.64 245.25 165.2 141.99 105.64"/><polygon class="cls-11" points="128.15 119.64 134.57 113.14 245.25 176.99 245.42 176.89 355.93 113.14 362.35 119.64 245.25 187.19 128.15 119.64"/><polygon class="cls-11" points="155.83 91.63 162.25 85.14 245.25 133.01 245.42 132.91 328.25 85.14 334.67 91.63 245.25 143.22 155.83 91.63"/><polygon class="cls-11" points="148.91 98.64 155.33 92.14 245.25 144.01 245.42 143.91 335.17 92.14 341.59 98.64 245.25 154.21 148.91 98.64"/><polygon class="cls-11" points="121.23 126.64 127.65 120.14 245.25 187.98 245.42 187.88 362.85 120.14 369.27 126.64 245.25 198.19 121.23 126.64"/><polygon class="cls-11" points="114.31 133.64 120.73 127.15 245.25 198.98 245.42 198.88 369.77 127.15 376.19 133.64 245.25 209.18 114.31 133.64"/><polygon class="cls-11" points="93.54 154.65 99.97 148.15 245.25 231.96 245.42 231.86 390.53 148.15 396.96 154.65 245.25 242.16 93.54 154.65"/><polygon class="cls-11" points="245.42 242.86 397.45 155.15 403.88 161.65 245.25 253.16 86.62 161.65 93.04 155.15 245.25 242.96 245.42 242.86"/><polygon class="cls-11" points="100.46 147.65 106.89 141.15 245.25 220.97 245.42 220.87 383.61 141.15 390.04 147.65 245.25 231.17 100.46 147.65"/><polygon class="cls-11" points="107.38 140.65 113.81 134.15 245.25 209.97 245.42 209.87 376.69 134.15 383.12 140.65 245.25 220.18 107.38 140.65"/><polygon class="cls-11" points="176.59 70.63 183.02 64.13 245.25 100.03 245.42 99.93 307.48 64.13 313.9 70.63 245.25 110.23 176.59 70.63"/><polygon class="cls-11" points="231.96 14.61 238.39 8.12 245.25 12.07 245.42 11.98 252.11 8.12 258.54 14.61 245.25 22.28 231.96 14.61"/><polygon class="cls-11" points="211.2 35.62 217.62 29.12 245.25 45.06 245.42 44.96 272.88 29.12 279.3 35.62 245.25 55.26 211.2 35.62"/><polygon class="cls-11" points="218.12 28.62 224.54 22.12 245.25 34.06 245.42 33.97 265.95 22.12 272.38 28.62 245.25 44.27 218.12 28.62"/><polygon class="cls-11" points="225.04 21.62 231.47 15.12 245.25 23.07 245.42 22.97 259.03 15.12 265.46 21.62 245.25 33.27 225.04 21.62"/><polygon class="cls-11" points="238.88 7.61 245.25 1.17 251.62 7.61 245.25 11.28 238.88 7.61"/><polygon class="cls-11" points="197.36 49.62 203.78 43.13 245.25 67.05 245.42 66.95 286.72 43.13 293.14 49.62 245.25 77.25 197.36 49.62"/><polygon class="cls-11" points="183.52 63.63 189.94 57.13 245.25 89.03 245.42 88.94 300.56 57.13 306.98 63.63 245.25 99.24 183.52 63.63"/><polygon class="cls-11" points="204.28 42.62 210.7 36.12 245.25 56.05 245.42 55.95 279.8 36.12 286.22 42.62 245.25 66.25 204.28 42.62"/><polygon class="cls-11" points="190.44 56.63 196.86 50.13 245.25 78.04 245.42 77.94 293.64 50.13 300.06 56.63 245.25 88.24 190.44 56.63"/><polygon class="cls-11" points="169.67 77.63 176.1 71.13 245.25 111.02 245.42 110.92 314.4 71.13 320.82 77.63 245.25 121.23 169.67 77.63"/><polygon class="cls-12" points="245.25 242.16 396.96 154.65 397.45 155.15 245.42 242.86 245.25 242.96 93.04 155.15 93.54 154.65 245.25 242.16"/><polygon class="cls-12" points="245.25 231.96 99.97 148.15 100.46 147.65 245.25 231.17 390.04 147.65 390.53 148.15 245.42 231.86 245.25 231.96"/><polygon class="cls-12" points="245.25 220.97 106.89 141.15 107.38 140.65 245.25 220.18 383.12 140.65 383.61 141.15 245.42 220.87 245.25 220.97"/><polygon class="cls-12" points="245.25 209.97 113.81 134.15 114.31 133.64 245.25 209.18 376.19 133.64 376.69 134.15 245.42 209.87 245.25 209.97"/><polygon class="cls-12" points="245.25 198.98 120.73 127.15 121.23 126.64 245.25 198.19 369.27 126.64 369.77 127.15 245.42 198.88 245.25 198.98"/><polygon class="cls-12" points="245.25 187.98 127.65 120.14 128.15 119.64 245.25 187.19 362.35 119.64 362.85 120.14 245.42 187.88 245.25 187.98"/><polygon class="cls-12" points="245.25 176.99 134.57 113.14 135.07 112.64 245.25 176.2 355.43 112.64 355.93 113.14 245.42 176.89 245.25 176.99"/><polygon class="cls-12" points="245.25 166 141.49 106.14 141.99 105.64 245.25 165.2 348.51 105.64 349.01 106.14 245.42 165.9 245.25 166"/><polygon class="cls-12" points="245.25 155 148.41 99.14 148.91 98.64 245.25 154.21 341.59 98.64 342.09 99.14 245.42 154.9 245.25 155"/><polygon class="cls-12" points="245.25 144.01 155.33 92.14 155.83 91.63 245.25 143.22 334.67 91.63 335.17 92.14 245.42 143.91 245.25 144.01"/><polygon class="cls-12" points="245.25 133.01 162.25 85.14 162.75 84.63 245.25 132.22 327.75 84.63 328.25 85.14 245.42 132.91 245.25 133.01"/><polygon class="cls-12" points="245.25 122.02 169.18 78.13 169.67 77.63 245.25 121.23 320.82 77.63 321.32 78.13 245.42 121.92 245.25 122.02"/><polygon class="cls-12" points="245.25 111.02 176.1 71.13 176.59 70.63 245.25 110.23 313.9 70.63 314.4 71.13 245.42 110.92 245.25 111.02"/><polygon class="cls-12" points="245.25 100.03 183.02 64.13 183.52 63.63 245.25 99.24 306.98 63.63 307.48 64.13 245.42 99.93 245.25 100.03"/><polygon class="cls-12" points="245.25 89.03 189.94 57.13 190.44 56.63 245.25 88.24 300.06 56.63 300.56 57.13 245.42 88.94 245.25 89.03"/><polygon class="cls-12" points="245.25 78.04 196.86 50.13 197.36 49.62 245.25 77.25 293.14 49.62 293.64 50.13 245.42 77.94 245.25 78.04"/><polygon class="cls-12" points="245.25 67.05 203.78 43.13 204.28 42.62 245.25 66.25 286.22 42.62 286.72 43.13 245.42 66.95 245.25 67.05"/><polygon class="cls-12" points="245.25 56.05 210.7 36.12 211.2 35.62 245.25 55.26 279.3 35.62 279.8 36.12 245.42 55.95 245.25 56.05"/><polygon class="cls-12" points="245.25 45.06 217.62 29.12 218.12 28.62 245.25 44.27 272.38 28.62 272.88 29.12 245.42 44.96 245.25 45.06"/><polygon class="cls-12" points="245.25 34.06 224.54 22.12 225.04 21.62 245.25 33.27 265.46 21.62 265.95 22.12 245.42 33.97 245.25 34.06"/><polygon class="cls-12" points="245.25 23.07 231.47 15.12 231.96 14.61 245.25 22.28 258.54 14.61 259.03 15.12 245.42 22.97 245.25 23.07"/><polygon class="cls-12" points="245.25 12.07 238.39 8.12 238.88 7.61 245.25 11.28 251.62 7.61 252.11 8.12 245.42 11.98 245.25 12.07"/><polygon class="cls-9" points="211.91 272.94 114.97 174.87 114.97 328.87 211.91 272.94"/><polygon class="cls-10" points="18.02 272.94 114.97 174.87 114.97 328.87 18.02 272.94"/><polygon class="cls-11" points="48.08 243.47 51.99 239.51 115.18 275.96 115.28 275.9 178.37 239.51 182.28 243.47 115.18 282.17 48.08 243.47"/><polygon class="cls-11" points="64.94 226.41 68.85 222.45 115.18 249.18 115.28 249.12 161.51 222.45 165.42 226.41 115.18 255.39 64.94 226.41"/><polygon class="cls-11" points="52.29 239.2 56.2 235.24 115.18 269.26 115.28 269.2 174.15 235.24 178.06 239.2 115.18 275.48 52.29 239.2"/><polygon class="cls-11" points="43.86 247.73 47.77 243.77 115.18 282.66 115.28 282.6 182.58 243.77 186.5 247.73 115.18 288.87 43.86 247.73"/><polygon class="cls-11" points="60.72 230.67 64.63 226.72 115.18 255.87 115.28 255.81 165.72 226.72 169.63 230.67 115.18 262.09 60.72 230.67"/><polygon class="cls-11" points="56.51 234.94 60.42 230.98 115.18 262.57 115.28 262.51 169.94 230.98 173.85 234.94 115.18 268.78 56.51 234.94"/><polygon class="cls-11" points="39.65 251.99 43.56 248.04 115.18 289.35 115.28 289.29 186.8 248.04 190.71 251.99 115.18 295.56 39.65 251.99"/><polygon class="cls-11" points="35.43 256.26 39.34 252.3 115.18 296.05 115.28 295.99 191.01 252.3 194.93 256.26 115.18 302.26 35.43 256.26"/><polygon class="cls-11" points="22.79 269.05 26.7 265.09 115.18 316.13 115.28 316.07 203.66 265.09 207.57 269.05 115.18 322.35 22.79 269.05"/><polygon class="cls-11" points="115.28 322.77 207.87 269.36 211.78 273.31 115.18 329.04 18.57 273.31 22.48 269.36 115.18 322.83 115.28 322.77"/><polygon class="cls-11" points="27 264.79 30.91 260.83 115.18 309.44 115.28 309.38 199.44 260.83 203.35 264.79 115.18 315.65 27 264.79"/><polygon class="cls-11" points="31.21 260.52 35.13 256.56 115.18 302.74 115.28 302.68 195.23 256.56 199.14 260.52 115.18 308.96 31.21 260.52"/><polygon class="cls-11" points="73.37 217.88 77.28 213.92 115.18 235.79 115.28 235.73 153.08 213.92 156.99 217.88 115.18 242 73.37 217.88"/><polygon class="cls-11" points="107.09 183.77 111 179.81 115.18 182.22 115.28 182.16 119.36 179.81 123.27 183.77 115.18 188.43 107.09 183.77"/><polygon class="cls-11" points="94.44 196.56 98.35 192.6 115.18 202.31 115.28 202.25 132 192.6 135.91 196.56 115.18 208.52 94.44 196.56"/><polygon class="cls-11" points="98.66 192.29 102.57 188.34 115.18 195.61 115.28 195.55 127.79 188.34 131.7 192.29 115.18 201.83 98.66 192.29"/><polygon class="cls-11" points="102.87 188.03 106.78 184.07 115.18 188.92 115.28 188.86 123.57 184.07 127.48 188.03 115.18 195.13 102.87 188.03"/><polygon class="cls-11" points="111.3 179.5 115.18 175.58 119.05 179.5 115.18 181.74 111.3 179.5"/><polygon class="cls-11" points="86.01 205.09 89.92 201.13 115.18 215.7 115.28 215.64 140.43 201.13 144.34 205.09 115.18 221.91 86.01 205.09"/><polygon class="cls-11" points="77.58 213.62 81.49 209.66 115.18 229.09 115.28 229.03 148.86 209.66 152.77 213.62 115.18 235.3 77.58 213.62"/><polygon class="cls-11" points="90.23 200.82 94.14 196.87 115.18 209 115.28 208.94 136.22 196.87 140.13 200.82 115.18 215.22 90.23 200.82"/><polygon class="cls-11" points="81.8 209.35 85.71 205.4 115.18 222.4 115.28 222.33 144.65 205.39 148.56 209.35 115.18 228.61 81.8 209.35"/><polygon class="cls-11" points="69.15 222.14 73.06 218.19 115.18 242.48 115.28 242.42 157.29 218.19 161.2 222.14 115.18 248.69 69.15 222.14"/><polygon class="cls-12" points="115.18 322.35 207.57 269.05 207.87 269.36 115.28 322.77 115.18 322.83 22.48 269.36 22.79 269.05 115.18 322.35"/><polygon class="cls-12" points="115.18 316.13 26.7 265.09 27 264.79 115.18 315.65 203.35 264.79 203.66 265.09 115.28 316.07 115.18 316.13"/><polygon class="cls-12" points="115.18 309.44 30.91 260.83 31.21 260.52 115.18 308.96 199.14 260.52 199.44 260.83 115.28 309.38 115.18 309.44"/><polygon class="cls-12" points="115.18 302.74 35.13 256.56 35.43 256.26 115.18 302.26 194.93 256.26 195.23 256.56 115.28 302.68 115.18 302.74"/><polygon class="cls-12" points="115.18 296.05 39.34 252.3 39.65 251.99 115.18 295.56 190.71 251.99 191.01 252.3 115.28 295.99 115.18 296.05"/><polygon class="cls-12" points="115.18 289.35 43.56 248.04 43.86 247.73 115.18 288.87 186.5 247.73 186.8 248.04 115.28 289.29 115.18 289.35"/><polygon class="cls-12" points="115.18 282.66 47.77 243.77 48.08 243.47 115.18 282.17 182.28 243.47 182.58 243.77 115.28 282.6 115.18 282.66"/><polygon class="cls-12" points="115.18 275.96 51.99 239.51 52.29 239.2 115.18 275.48 178.06 239.2 178.37 239.51 115.28 275.9 115.18 275.96"/><polygon class="cls-12" points="115.18 269.26 56.2 235.24 56.51 234.94 115.18 268.78 173.85 234.94 174.15 235.24 115.28 269.2 115.18 269.26"/><polygon class="cls-12" points="115.18 262.57 60.42 230.98 60.72 230.67 115.18 262.09 169.63 230.67 169.94 230.98 115.28 262.51 115.18 262.57"/><polygon class="cls-12" points="115.18 255.87 64.63 226.72 64.94 226.41 115.18 255.39 165.42 226.41 165.72 226.72 115.28 255.81 115.18 255.87"/><polygon class="cls-12" points="115.18 249.18 68.85 222.45 69.15 222.14 115.18 248.69 161.2 222.14 161.51 222.45 115.28 249.12 115.18 249.18"/><polygon class="cls-12" points="115.18 242.48 73.06 218.19 73.37 217.88 115.18 242 156.99 217.88 157.29 218.19 115.28 242.42 115.18 242.48"/><polygon class="cls-12" points="115.18 235.79 77.28 213.92 77.58 213.62 115.18 235.3 152.77 213.62 153.08 213.92 115.28 235.73 115.18 235.79"/><polygon class="cls-12" points="115.18 229.09 81.49 209.66 81.8 209.35 115.18 228.61 148.56 209.35 148.86 209.66 115.28 229.03 115.18 229.09"/><polygon class="cls-12" points="115.18 222.4 85.71 205.4 86.01 205.09 115.18 221.91 144.34 205.09 144.65 205.39 115.28 222.33 115.18 222.4"/><polygon class="cls-12" points="115.18 215.7 89.92 201.13 90.23 200.82 115.18 215.22 140.13 200.82 140.43 201.13 115.28 215.64 115.18 215.7"/><polygon class="cls-12" points="115.18 209 94.14 196.87 94.44 196.56 115.18 208.52 135.91 196.56 136.22 196.87 115.28 208.94 115.18 209"/><polygon class="cls-12" points="115.18 202.31 98.35 192.6 98.66 192.29 115.18 201.83 131.7 192.29 132 192.6 115.28 202.25 115.18 202.31"/><polygon class="cls-12" points="115.18 195.61 102.57 188.34 102.87 188.03 115.18 195.13 127.48 188.03 127.79 188.34 115.28 195.55 115.18 195.61"/><polygon class="cls-12" points="115.18 188.92 106.78 184.07 107.09 183.77 115.18 188.43 123.27 183.77 123.57 184.07 115.28 188.86 115.18 188.92"/><polygon class="cls-12" points="115.18 182.22 111 179.81 111.3 179.5 115.18 181.74 119.05 179.5 119.36 179.81 115.28 182.16 115.18 182.22"/><polygon class="cls-9" points="755.3 328.29 499.83 69.84 499.83 475.66 755.3 328.29"/><polygon class="cls-10" points="244.36 328.29 499.83 69.84 499.83 475.66 244.36 328.29"/><polygon class="cls-11" points="323.55 250.61 333.86 240.18 500.38 336.24 500.65 336.08 666.9 240.18 677.21 250.61 500.38 352.61 323.55 250.61"/><polygon class="cls-11" points="367.98 205.66 378.29 195.23 500.38 265.66 500.65 265.5 622.47 195.23 632.77 205.66 500.38 282.04 367.98 205.66"/><polygon class="cls-11" points="334.66 239.37 344.97 228.94 500.38 318.59 500.65 318.44 655.79 228.94 666.1 239.37 500.38 334.97 334.66 239.37"/><polygon class="cls-11" points="312.44 261.85 322.75 251.42 500.38 353.88 500.65 353.72 678 251.42 688.31 261.85 500.38 370.26 312.44 261.85"/><polygon class="cls-11" points="356.87 216.9 367.18 206.47 500.38 283.31 500.65 283.15 633.58 206.47 643.88 216.9 500.38 299.68 356.87 216.9"/><polygon class="cls-11" points="345.77 228.13 356.07 217.71 500.38 300.95 500.65 300.79 644.68 217.71 654.99 228.13 500.38 317.32 345.77 228.13"/><polygon class="cls-11" points="301.34 273.08 311.64 262.65 500.38 371.53 500.65 371.37 689.11 262.65 699.42 273.08 500.38 387.9 301.34 273.08"/><polygon class="cls-11" points="290.23 284.32 300.54 273.89 500.38 389.17 500.65 389.01 700.22 273.89 710.53 284.32 500.38 405.55 290.23 284.32"/><polygon class="cls-11" points="256.91 318.03 267.21 307.6 500.38 442.1 500.65 441.94 733.54 307.6 743.85 318.03 500.38 458.48 256.91 318.03"/><polygon class="cls-11" points="500.65 459.59 744.65 318.84 754.96 329.27 500.38 476.12 245.8 329.27 256.11 318.84 500.38 459.75 500.65 459.59"/><polygon class="cls-11" points="268.01 306.79 278.32 296.37 500.38 424.46 500.65 424.3 722.43 296.37 732.74 306.79 500.38 440.83 268.01 306.79"/><polygon class="cls-11" points="279.12 295.56 289.43 285.13 500.38 406.82 500.65 406.66 711.33 285.13 721.63 295.56 500.38 423.19 279.12 295.56"/><polygon class="cls-11" points="390.2 183.19 400.5 172.76 500.38 230.37 500.65 230.21 600.25 172.76 610.56 183.19 500.38 246.75 390.2 183.19"/><polygon class="cls-11" points="479.06 93.29 489.36 82.86 500.38 89.22 500.65 89.06 511.39 82.86 521.7 93.29 500.38 105.59 479.06 93.29"/><polygon class="cls-11" points="445.73 127 456.04 116.57 500.38 142.15 500.65 141.99 544.72 116.57 555.02 127 500.38 158.52 445.73 127"/><polygon class="cls-11" points="456.84 115.76 467.15 105.34 500.38 124.5 500.65 124.35 533.61 105.34 543.91 115.76 500.38 140.88 456.84 115.76"/><polygon class="cls-11" points="467.95 104.53 478.26 94.1 500.38 106.86 500.65 106.7 522.5 94.1 532.81 104.53 500.38 123.23 467.95 104.53"/><polygon class="cls-11" points="490.16 82.05 500.38 71.72 510.59 82.05 500.38 87.95 490.16 82.05"/><polygon class="cls-11" points="423.52 149.47 433.83 139.05 500.38 177.44 500.65 177.28 566.93 139.05 577.24 149.47 500.38 193.81 423.52 149.47"/><polygon class="cls-11" points="401.3 171.95 411.61 161.52 500.38 212.73 500.65 212.57 589.14 161.52 599.45 171.95 500.38 229.1 401.3 171.95"/><polygon class="cls-11" points="434.63 138.24 444.93 127.81 500.38 159.79 500.65 159.63 555.82 127.81 566.13 138.24 500.38 176.17 434.63 138.24"/><polygon class="cls-11" points="412.41 160.71 422.72 150.28 500.38 195.08 500.65 194.92 578.04 150.28 588.35 160.71 500.38 211.46 412.41 160.71"/><polygon class="cls-11" points="379.09 194.42 389.4 184 500.38 248.02 500.65 247.86 611.36 184 621.67 194.42 500.38 264.39 379.09 194.42"/><polygon class="cls-12" points="500.38 458.48 743.85 318.03 744.65 318.84 500.65 459.59 500.38 459.75 256.11 318.84 256.91 318.03 500.38 458.48"/><polygon class="cls-12" points="500.38 442.1 267.21 307.6 268.01 306.79 500.38 440.83 732.74 306.79 733.54 307.6 500.65 441.94 500.38 442.1"/><polygon class="cls-12" points="500.38 424.46 278.32 296.37 279.12 295.56 500.38 423.19 721.63 295.56 722.43 296.37 500.65 424.3 500.38 424.46"/><polygon class="cls-12" points="500.38 406.82 289.43 285.13 290.23 284.32 500.38 405.55 710.53 284.32 711.33 285.13 500.65 406.66 500.38 406.82"/><polygon class="cls-12" points="500.38 389.17 300.54 273.89 301.34 273.08 500.38 387.9 699.42 273.08 700.22 273.89 500.65 389.01 500.38 389.17"/><polygon class="cls-12" points="500.38 371.53 311.64 262.65 312.44 261.85 500.38 370.26 688.31 261.85 689.11 262.65 500.65 371.37 500.38 371.53"/><polygon class="cls-12" points="500.38 353.88 322.75 251.42 323.55 250.61 500.38 352.61 677.21 250.61 678 251.42 500.65 353.72 500.38 353.88"/><polygon class="cls-12" points="500.38 336.24 333.86 240.18 334.66 239.37 500.38 334.97 666.1 239.37 666.9 240.18 500.65 336.08 500.38 336.24"/><polygon class="cls-12" points="500.38 318.59 344.97 228.94 345.77 228.13 500.38 317.32 654.99 228.13 655.79 228.94 500.65 318.44 500.38 318.59"/><polygon class="cls-12" points="500.38 300.95 356.07 217.71 356.87 216.9 500.38 299.68 643.88 216.9 644.68 217.71 500.65 300.79 500.38 300.95"/><polygon class="cls-12" points="500.38 283.31 367.18 206.47 367.98 205.66 500.38 282.04 632.77 205.66 633.58 206.47 500.65 283.15 500.38 283.31"/><polygon class="cls-12" points="500.38 265.66 378.29 195.23 379.09 194.42 500.38 264.39 621.67 194.42 622.47 195.23 500.65 265.5 500.38 265.66"/><polygon class="cls-12" points="500.38 248.02 389.4 184 390.2 183.19 500.38 246.75 610.56 183.19 611.36 184 500.65 247.86 500.38 248.02"/><polygon class="cls-12" points="500.38 230.37 400.5 172.76 401.3 171.95 500.38 229.1 599.45 171.95 600.25 172.76 500.65 230.21 500.38 230.37"/><polygon class="cls-12" points="500.38 212.73 411.61 161.52 412.41 160.71 500.38 211.46 588.35 160.71 589.14 161.52 500.65 212.57 500.38 212.73"/><polygon class="cls-12" points="500.38 195.08 422.72 150.28 423.52 149.47 500.38 193.81 577.24 149.47 578.04 150.28 500.65 194.92 500.38 195.08"/><polygon class="cls-12" points="500.38 177.44 433.83 139.05 434.63 138.24 500.38 176.17 566.13 138.24 566.93 139.05 500.65 177.28 500.38 177.44"/><polygon class="cls-12" points="500.38 159.79 444.93 127.81 445.73 127 500.38 158.52 555.02 127 555.82 127.81 500.65 159.63 500.38 159.79"/><polygon class="cls-12" points="500.38 142.15 456.04 116.57 456.84 115.76 500.38 140.88 543.91 115.76 544.72 116.57 500.65 141.99 500.38 142.15"/><polygon class="cls-12" points="500.38 124.5 467.15 105.34 467.95 104.53 500.38 123.23 532.81 104.53 533.61 105.34 500.65 124.35 500.38 124.5"/><polygon class="cls-12" points="500.38 106.86 478.26 94.1 479.06 93.29 500.38 105.59 521.7 93.29 522.5 94.1 500.65 106.7 500.38 106.86"/><polygon class="cls-12" points="500.38 89.22 489.36 82.86 490.16 82.05 500.38 87.95 510.59 82.05 511.39 82.86 500.65 89.06 500.38 89.22"/></g></g></svg>