<svg xmlns="http://www.w3.org/2000/svg" xmlns:xlink="http://www.w3.org/1999/xlink" viewBox="0 0 324 312.33"><defs><style>.cls-1{fill:#6b512c;}.cls-2{fill:#9e7e4a;}.cls-3{fill:#543d1a;}.cls-4{fill:#6aba90;}.cls-5{fill:#27b768;}.cls-6{fill:#0d9b64;}.cls-7,.cls-8,.cls-9{fill:#ffdfa5;}.cls-7{opacity:0.3;}.cls-8{opacity:0.6;}.cls-10{fill:#4c605b;opacity:0.1;}.cls-11{fill:#e9d4bb;}.cls-12{fill:url(#Dégradé_sans_nom_7);}.cls-13,.cls-20{fill:#72938c;}.cls-14{fill:#fff2e3;}.cls-15,.cls-22{fill:#b5c1b9;}.cls-16{fill:url(#Dégradé_sans_nom_2);}.cls-17{fill:url(#Dégradé_sans_nom_8);}.cls-18{fill:#21cdba;}.cls-19{fill:#7ddbcc;}.cls-20,.cls-21,.cls-22{opacity:0.4;}.cls-21{fill:url(#Dégradé_sans_nom_2-2);}</style><linearGradient id="Dégradé_sans_nom_7" x1="34.49" y1="145.96" x2="182.02" y2="145.96" gradientUnits="userSpaceOnUse"><stop offset="0" stop-color="#b5c1b9"/><stop offset="1" stop-color="#72938c"/></linearGradient><linearGradient id="Dégradé_sans_nom_2" x1="47.14" y1="105.89" x2="147.85" y2="105.89" gradientUnits="userSpaceOnUse"><stop offset="0" stop-color="#72938c"/><stop offset="1" stop-color="#b5c1b9"/></linearGradient><linearGradient id="Dégradé_sans_nom_8" x1="161.71" y1="114.94" x2="179.83" y2="114.94" gradientUnits="userSpaceOnUse"><stop offset="0" stop-color="#b5c1b9"/><stop offset="0.87" stop-color="#72938c"/></linearGradient><linearGradient id="Dégradé_sans_nom_2-2" x1="47.14" y1="108.98" x2="147.85" y2="108.98" xlink:href="#Dégradé_sans_nom_2"/></defs><title>jumbotron_punic_portFichier 2</title><g id="Calque_2" data-name="Calque 2"><g id="Calque_3" data-name="Calque 3"><path class="cls-1" d="M.38,104.78,1.2,142l11.85,15.75v17.2l17.32,25L39,227.4l60.61,30,26,30,26,24.95,42.15-7,27.09-19.72,11.66-13.24,23-10,14.55-25,23.44-8.06,5.3-27,13-15,7.57-20,4.66-69.74L60.68,62.44Z"/><path class="cls-2" d="M49.21,191.23,31,185.6c-.91-1.86-1.81-3.72-2.72-5.59l-5.9-4.76,3.13-1.73,3.09,1.33h7.18l-7.18-5.36-9.2-2.38-6.3-14.69-4.29-15V120l-8-15.48-.41.29Q.8,123.37,1.2,142l11.85,15.75v17.2l17.32,25L39,227.4l2.86,1.41q-.49-11.35-1-22.71-2.67-5.49-5.33-11L43,193.75l5.61,3.46H56Z"/><path class="cls-3" d="M287.37,92.78,272.7,107.37l-56.2,47.57-75.29,31.57.56-4.16-66.28-4.73L76.62,180l5.86,5.73,33.9,9.2,13.55,6,4.34-1,17,7.5,1.6,9.33-31.36,6.08-22.92-6.52L112,227.65l21.61,4.66,6.83,4.79-.46.31q1.8,7.82,3.59,15.63L134,263.25q-7,8.87-13.9,17.75l5.52,6.38,26,24.95,42.15-7,27.09-19.72,11.66-13.24,23-10,14.55-25,23.44-8.06,5.3-27,13-15,7.57-20,4.66-69.74Z"/><path class="cls-4" d="M48.11,31c64.2-37.11,167.42-38.32,229.38-2.68s62,96.36.13,134.93S112.5,203,48.24,165.93-16.09,68.11,48.11,31Z"/><path class="cls-5" d="M51.38,51,44.87,62.24a1.34,1.34,0,0,0,.49,1.81l6.51,3.72a1.33,1.33,0,0,0,1.31,0l6.46-3.72a1.32,1.32,0,0,0,.48-1.8L53.66,51A1.32,1.32,0,0,0,51.38,51Z"/><path class="cls-6" d="M53.66,51a1.29,1.29,0,0,0-1.14-.66V68a1.28,1.28,0,0,0,.66-.18l6.46-3.72a1.32,1.32,0,0,0,.48-1.8Z"/><path class="cls-5" d="M51.38,51.08,44.87,62.3a1.34,1.34,0,0,0,.49,1.81l6.51,3.72a1.33,1.33,0,0,0,1.31,0l6.46-3.72a1.32,1.32,0,0,0,.48-1.8L53.66,51.09A1.32,1.32,0,0,0,51.38,51.08Z"/><path class="cls-6" d="M53.66,51.09a1.29,1.29,0,0,0-1.14-.66V68a1.28,1.28,0,0,0,.66-.18l6.46-3.72a1.32,1.32,0,0,0,.48-1.8Z"/><path class="cls-5" d="M51.38,41.56,44.87,52.78a1.33,1.33,0,0,0,.49,1.81l6.51,3.72a1.31,1.31,0,0,0,1.31,0l6.46-3.72a1.32,1.32,0,0,0,.48-1.8L53.66,41.57A1.32,1.32,0,0,0,51.38,41.56Z"/><path class="cls-6" d="M53.66,41.57a1.29,1.29,0,0,0-1.14-.66V58.49a1.28,1.28,0,0,0,.66-.18l6.46-3.72a1.32,1.32,0,0,0,.48-1.8Z"/><path class="cls-5" d="M43.13,46.32,36.62,57.54a1.32,1.32,0,0,0,.49,1.81l6.5,3.72a1.32,1.32,0,0,0,1.32,0l6.45-3.72a1.33,1.33,0,0,0,.49-1.8L45.41,46.33A1.32,1.32,0,0,0,43.13,46.32Z"/><path class="cls-6" d="M45.41,46.33a1.3,1.3,0,0,0-1.14-.66V63.25a1.31,1.31,0,0,0,.66-.18l6.45-3.72a1.33,1.33,0,0,0,.49-1.8Z"/><path class="cls-5" d="M59.69,46.32l-6.5,11.22a1.32,1.32,0,0,0,.48,1.81l6.51,3.72a1.31,1.31,0,0,0,1.31,0L68,59.35a1.31,1.31,0,0,0,.48-1.8L62,46.33A1.33,1.33,0,0,0,59.69,46.32Z"/><path class="cls-6" d="M62,46.33a1.31,1.31,0,0,0-1.14-.66V63.25a1.28,1.28,0,0,0,.65-.18L68,59.35a1.31,1.31,0,0,0,.48-1.8Z"/><path class="cls-5" d="M59.63,46.32l-6.5,11.22a1.32,1.32,0,0,0,.48,1.81l6.51,3.72a1.31,1.31,0,0,0,1.31,0l6.46-3.72a1.31,1.31,0,0,0,.48-1.8L61.92,46.33A1.33,1.33,0,0,0,59.63,46.32Z"/><path class="cls-6" d="M61.92,46.33a1.31,1.31,0,0,0-1.14-.66V63.25a1.28,1.28,0,0,0,.65-.18l6.46-3.72a1.31,1.31,0,0,0,.48-1.8Z"/><path class="cls-5" d="M68,51.08,61.44,62.3a1.33,1.33,0,0,0,.49,1.81l6.5,3.72a1.35,1.35,0,0,0,1.32,0l6.45-3.72a1.33,1.33,0,0,0,.49-1.8L70.23,51.09A1.32,1.32,0,0,0,68,51.08Z"/><path class="cls-6" d="M70.23,51.09a1.3,1.3,0,0,0-1.14-.66V68a1.31,1.31,0,0,0,.66-.18l6.45-3.72a1.33,1.33,0,0,0,.49-1.8Z"/><path class="cls-5" d="M59.63,55.78,53.13,67a1.32,1.32,0,0,0,.48,1.81l6.51,3.72a1.33,1.33,0,0,0,1.31,0l6.46-3.72a1.31,1.31,0,0,0,.48-1.8L61.92,55.79A1.32,1.32,0,0,0,59.63,55.78Z"/><path class="cls-6" d="M61.92,55.79a1.31,1.31,0,0,0-1.14-.66V72.7a1.26,1.26,0,0,0,.65-.17l6.46-3.72a1.31,1.31,0,0,0,.48-1.8Z"/><path class="cls-5" d="M42.64,57l-6.5,11.22a1.31,1.31,0,0,0,.48,1.8l6.51,3.73a1.31,1.31,0,0,0,1.31,0L50.9,70a1.32,1.32,0,0,0,.49-1.8L44.93,57A1.32,1.32,0,0,0,42.64,57Z"/><path class="cls-6" d="M44.93,57a1.31,1.31,0,0,0-1.14-.66V73.91a1.28,1.28,0,0,0,.65-.18L50.9,70a1.32,1.32,0,0,0,.49-1.8Z"/><path class="cls-5" d="M34.39,61.75,27.89,73a1.31,1.31,0,0,0,.48,1.8l6.51,3.73a1.31,1.31,0,0,0,1.31,0l6.46-3.72a1.32,1.32,0,0,0,.48-1.8L36.67,61.75A1.31,1.31,0,0,0,34.39,61.75Z"/><path class="cls-6" d="M36.67,61.75a1.29,1.29,0,0,0-1.14-.66V78.67a1.28,1.28,0,0,0,.66-.18l6.46-3.72a1.32,1.32,0,0,0,.48-1.8Z"/><path class="cls-5" d="M51,61.75,44.45,73a1.31,1.31,0,0,0,.49,1.8l6.51,3.73a1.31,1.31,0,0,0,1.31,0l6.46-3.72A1.32,1.32,0,0,0,59.7,73L53.24,61.75A1.31,1.31,0,0,0,51,61.75Z"/><path class="cls-6" d="M53.24,61.75a1.29,1.29,0,0,0-1.14-.66V78.67a1.28,1.28,0,0,0,.66-.18l6.46-3.72A1.32,1.32,0,0,0,59.7,73Z"/><path class="cls-5" d="M42.64,66.45l-6.5,11.22a1.31,1.31,0,0,0,.48,1.8l6.51,3.72a1.28,1.28,0,0,0,1.31,0l6.46-3.72a1.32,1.32,0,0,0,.49-1.8L44.93,66.45A1.32,1.32,0,0,0,42.64,66.45Z"/><path class="cls-6" d="M44.93,66.45a1.31,1.31,0,0,0-1.14-.66V83.37a1.28,1.28,0,0,0,.65-.18l6.46-3.72a1.32,1.32,0,0,0,.49-1.8Z"/><path class="cls-5" d="M24.87,64.94l-6.5,11.22a1.31,1.31,0,0,0,.48,1.8l6.51,3.73a1.33,1.33,0,0,0,1.31,0L33.13,78a1.31,1.31,0,0,0,.48-1.8L27.15,64.94A1.31,1.31,0,0,0,24.87,64.94Z"/><path class="cls-6" d="M27.15,64.94A1.29,1.29,0,0,0,26,64.28V81.86a1.37,1.37,0,0,0,.65-.17L33.13,78a1.31,1.31,0,0,0,.48-1.8Z"/><path class="cls-5" d="M16.62,69.7,10.11,80.92a1.31,1.31,0,0,0,.49,1.8l6.51,3.73a1.33,1.33,0,0,0,1.31,0l6.46-3.73a1.32,1.32,0,0,0,.48-1.8L18.9,69.7A1.31,1.31,0,0,0,16.62,69.7Z"/><path class="cls-6" d="M18.9,69.7A1.3,1.3,0,0,0,17.76,69V86.62a1.41,1.41,0,0,0,.66-.17l6.46-3.73a1.32,1.32,0,0,0,.48-1.8Z"/><path class="cls-5" d="M33.19,69.7,26.68,80.92a1.31,1.31,0,0,0,.49,1.8l6.5,3.73a1.35,1.35,0,0,0,1.32,0l6.45-3.73a1.32,1.32,0,0,0,.49-1.8L35.47,69.7A1.31,1.31,0,0,0,33.19,69.7Z"/><path class="cls-6" d="M35.47,69.7A1.31,1.31,0,0,0,34.33,69V86.62a1.41,1.41,0,0,0,.66-.17l6.45-3.73a1.32,1.32,0,0,0,.49-1.8Z"/><path class="cls-5" d="M24.87,74.4l-6.5,11.22a1.31,1.31,0,0,0,.48,1.8l6.51,3.73a1.31,1.31,0,0,0,1.31,0l6.46-3.72a1.31,1.31,0,0,0,.48-1.8L27.15,74.4A1.31,1.31,0,0,0,24.87,74.4Z"/><path class="cls-6" d="M27.15,74.4A1.29,1.29,0,0,0,26,73.74V91.32a1.28,1.28,0,0,0,.65-.18l6.46-3.72a1.31,1.31,0,0,0,.48-1.8Z"/><path class="cls-5" d="M42.16,72.89l-6.5,11.22a1.32,1.32,0,0,0,.48,1.81l6.51,3.72a1.33,1.33,0,0,0,1.31,0l6.46-3.73a1.3,1.3,0,0,0,.48-1.79L44.44,72.9A1.31,1.31,0,0,0,42.16,72.89Z"/><path class="cls-6" d="M44.44,72.9a1.32,1.32,0,0,0-1.13-.67V89.81a1.26,1.26,0,0,0,.65-.17l6.46-3.73a1.3,1.3,0,0,0,.48-1.79Z"/><path class="cls-5" d="M33.91,77.65,27.4,88.87a1.31,1.31,0,0,0,.49,1.8L34.4,94.4a1.33,1.33,0,0,0,1.31,0l6.46-3.73a1.31,1.31,0,0,0,.48-1.79L36.19,77.65A1.32,1.32,0,0,0,33.91,77.65Z"/><path class="cls-6" d="M36.19,77.65A1.33,1.33,0,0,0,35.05,77V94.57a1.27,1.27,0,0,0,.66-.17l6.46-3.73a1.31,1.31,0,0,0,.48-1.79Z"/><path class="cls-5" d="M57.65,75.3,51.14,86.52a1.32,1.32,0,0,0,.49,1.81l6.5,3.72a1.35,1.35,0,0,0,1.32,0l6.45-3.73a1.31,1.31,0,0,0,.49-1.79L59.93,75.3A1.32,1.32,0,0,0,57.65,75.3Z"/><path class="cls-6" d="M59.93,75.3a1.36,1.36,0,0,0-1.14-.66V92.22a1.3,1.3,0,0,0,.66-.17l6.45-3.73a1.31,1.31,0,0,0,.49-1.79Z"/><path class="cls-5" d="M49.33,80l-6.5,11.22a1.31,1.31,0,0,0,.48,1.8l6.51,3.73a1.33,1.33,0,0,0,1.31,0L57.59,93a1.3,1.3,0,0,0,.48-1.79L51.61,80A1.32,1.32,0,0,0,49.33,80Z"/><path class="cls-6" d="M51.61,80a1.33,1.33,0,0,0-1.13-.66V96.92a1.37,1.37,0,0,0,.65-.17L57.59,93a1.3,1.3,0,0,0,.48-1.79Z"/><path class="cls-5" d="M27.46,79.28,21,90.5a1.31,1.31,0,0,0,.48,1.8L28,96a1.31,1.31,0,0,0,1.31,0l6.46-3.72a1.31,1.31,0,0,0,.48-1.8L29.74,79.28A1.31,1.31,0,0,0,27.46,79.28Z"/><path class="cls-6" d="M29.74,79.28a1.29,1.29,0,0,0-1.13-.66V96.2a1.28,1.28,0,0,0,.65-.18l6.46-3.72a1.31,1.31,0,0,0,.48-1.8Z"/><path class="cls-5" d="M19.21,84,12.7,95.26a1.31,1.31,0,0,0,.49,1.8l6.51,3.73a1.31,1.31,0,0,0,1.31,0l6.46-3.72a1.32,1.32,0,0,0,.48-1.8L21.49,84A1.31,1.31,0,0,0,19.21,84Z"/><path class="cls-6" d="M21.49,84a1.29,1.29,0,0,0-1.14-.66V101a1.28,1.28,0,0,0,.66-.18l6.46-3.72a1.32,1.32,0,0,0,.48-1.8Z"/><path class="cls-5" d="M35.78,84,29.27,95.26a1.31,1.31,0,0,0,.49,1.8l6.5,3.73a1.32,1.32,0,0,0,1.32,0L44,97.06a1.32,1.32,0,0,0,.49-1.8L38.06,84A1.31,1.31,0,0,0,35.78,84Z"/><path class="cls-6" d="M38.06,84a1.3,1.3,0,0,0-1.14-.66V101a1.31,1.31,0,0,0,.66-.18L44,97.06a1.32,1.32,0,0,0,.49-1.8Z"/><path class="cls-5" d="M27.46,88.74,21,100a1.31,1.31,0,0,0,.48,1.8L28,105.49a1.31,1.31,0,0,0,1.31,0l6.46-3.72a1.31,1.31,0,0,0,.48-1.8L29.74,88.74A1.31,1.31,0,0,0,27.46,88.74Z"/><path class="cls-6" d="M29.74,88.74a1.29,1.29,0,0,0-1.13-.66v17.58a1.28,1.28,0,0,0,.65-.18l6.46-3.72a1.31,1.31,0,0,0,.48-1.8Z"/><path class="cls-5" d="M119.28.66l-6.51,11.22a1.31,1.31,0,0,0,.49,1.8l6.5,3.73a1.32,1.32,0,0,0,1.32,0l6.45-3.72a1.32,1.32,0,0,0,.49-1.8L121.56.66A1.31,1.31,0,0,0,119.28.66Z"/><path class="cls-6" d="M121.56.66A1.3,1.3,0,0,0,120.42,0V17.58a1.31,1.31,0,0,0,.66-.18l6.45-3.72a1.32,1.32,0,0,0,.49-1.8Z"/><path class="cls-5" d="M111,5.36l-6.5,11.22a1.31,1.31,0,0,0,.48,1.8l6.51,3.73a1.31,1.31,0,0,0,1.31,0l6.46-3.72a1.31,1.31,0,0,0,.48-1.8L113.24,5.36A1.31,1.31,0,0,0,111,5.36Z"/><path class="cls-6" d="M113.24,5.36a1.29,1.29,0,0,0-1.13-.66V22.28a1.28,1.28,0,0,0,.65-.18l6.46-3.72a1.31,1.31,0,0,0,.48-1.8Z"/><path class="cls-5" d="M94,6.56l-6.5,11.22a1.31,1.31,0,0,0,.48,1.8l6.51,3.73a1.33,1.33,0,0,0,1.31,0l6.46-3.73a1.3,1.3,0,0,0,.48-1.79L96.26,6.56A1.33,1.33,0,0,0,94,6.56Z"/><path class="cls-6" d="M96.26,6.56a1.36,1.36,0,0,0-1.14-.66V23.48a1.37,1.37,0,0,0,.65-.17l6.46-3.73a1.3,1.3,0,0,0,.48-1.79Z"/><path class="cls-5" d="M85.72,11.32,79.21,22.54a1.32,1.32,0,0,0,.49,1.8l6.51,3.73a1.33,1.33,0,0,0,1.31,0L94,24.34a1.31,1.31,0,0,0,.48-1.79L88,11.32A1.32,1.32,0,0,0,85.72,11.32Z"/><path class="cls-6" d="M88,11.32a1.31,1.31,0,0,0-1.14-.66V28.24a1.38,1.38,0,0,0,.66-.17L94,24.34a1.31,1.31,0,0,0,.48-1.79Z"/><path class="cls-5" d="M102.29,11.32,95.78,22.54a1.31,1.31,0,0,0,.49,1.8l6.5,3.73a1.35,1.35,0,0,0,1.32,0l6.46-3.73a1.31,1.31,0,0,0,.48-1.79l-6.46-11.23A1.32,1.32,0,0,0,102.29,11.32Z"/><path class="cls-6" d="M104.57,11.32a1.32,1.32,0,0,0-1.14-.66V28.24a1.41,1.41,0,0,0,.66-.17l6.46-3.73a1.31,1.31,0,0,0,.48-1.79Z"/><path class="cls-5" d="M94,16l-6.5,11.22A1.31,1.31,0,0,0,88,29l6.51,3.73a1.33,1.33,0,0,0,1.31,0L102.23,29a1.31,1.31,0,0,0,.48-1.8L96.26,16A1.32,1.32,0,0,0,94,16Z"/><path class="cls-6" d="M96.26,16a1.31,1.31,0,0,0-1.14-.66V32.94a1.37,1.37,0,0,0,.65-.17L102.23,29a1.31,1.31,0,0,0,.48-1.8Z"/><path class="cls-5" d="M76.2,14.51,69.7,25.73a1.32,1.32,0,0,0,.48,1.81l6.51,3.72a1.31,1.31,0,0,0,1.31,0l6.46-3.72a1.31,1.31,0,0,0,.48-1.8L78.48,14.52A1.32,1.32,0,0,0,76.2,14.51Z"/><path class="cls-6" d="M78.48,14.52a1.29,1.29,0,0,0-1.13-.66V31.44a1.28,1.28,0,0,0,.65-.18l6.46-3.72a1.31,1.31,0,0,0,.48-1.8Z"/><path class="cls-5" d="M68,19.27,61.44,30.49a1.33,1.33,0,0,0,.49,1.81L68.43,36a1.35,1.35,0,0,0,1.32,0L76.2,32.3a1.33,1.33,0,0,0,.49-1.8L70.23,19.28A1.32,1.32,0,0,0,68,19.27Z"/><path class="cls-6" d="M70.23,19.28a1.3,1.3,0,0,0-1.14-.66V36.2a1.31,1.31,0,0,0,.66-.18L76.2,32.3a1.33,1.33,0,0,0,.49-1.8Z"/><path class="cls-5" d="M84.52,19.27,78,30.49a1.32,1.32,0,0,0,.48,1.81L85,36a1.33,1.33,0,0,0,1.31,0l6.46-3.72a1.33,1.33,0,0,0,.49-1.8L86.8,19.28A1.32,1.32,0,0,0,84.52,19.27Z"/><path class="cls-6" d="M86.8,19.28a1.31,1.31,0,0,0-1.14-.66V36.2a1.25,1.25,0,0,0,.65-.18l6.46-3.72a1.33,1.33,0,0,0,.49-1.8Z"/><path class="cls-5" d="M76.2,24,69.7,35.19A1.32,1.32,0,0,0,70.18,37l6.51,3.72a1.33,1.33,0,0,0,1.31,0L84.46,37a1.31,1.31,0,0,0,.48-1.8L78.48,24A1.31,1.31,0,0,0,76.2,24Z"/><path class="cls-6" d="M78.48,24a1.29,1.29,0,0,0-1.13-.66V40.9a1.38,1.38,0,0,0,.65-.18L84.46,37a1.31,1.31,0,0,0,.48-1.8Z"/><path class="cls-5" d="M93.49,22.47,87,33.69a1.31,1.31,0,0,0,.48,1.8L94,39.21a1.28,1.28,0,0,0,1.31,0l6.46-3.72a1.31,1.31,0,0,0,.48-1.8L95.77,22.47A1.31,1.31,0,0,0,93.49,22.47Z"/><path class="cls-6" d="M95.77,22.47a1.29,1.29,0,0,0-1.13-.66V39.39a1.28,1.28,0,0,0,.65-.18l6.46-3.72a1.31,1.31,0,0,0,.48-1.8Z"/><path class="cls-5" d="M85.24,27.23,78.73,38.44a1.32,1.32,0,0,0,.49,1.81L85.73,44A1.28,1.28,0,0,0,87,44l6.46-3.72a1.32,1.32,0,0,0,.48-1.8L87.52,27.23A1.31,1.31,0,0,0,85.24,27.23Z"/><path class="cls-6" d="M87.52,27.23a1.29,1.29,0,0,0-1.14-.66V44.15A1.31,1.31,0,0,0,87,44l6.46-3.72a1.32,1.32,0,0,0,.48-1.8Z"/><path class="cls-5" d="M103.7,24,97.19,35.17a1.31,1.31,0,0,0,.49,1.8l6.5,3.73a1.35,1.35,0,0,0,1.32,0L112,37a1.32,1.32,0,0,0,.49-1.8L106,24A1.31,1.31,0,0,0,103.7,24Z"/><path class="cls-6" d="M106,24a1.3,1.3,0,0,0-1.14-.66V40.87a1.41,1.41,0,0,0,.66-.17L112,37a1.32,1.32,0,0,0,.49-1.8Z"/><path class="cls-5" d="M95.38,28.65l-6.5,11.22a1.31,1.31,0,0,0,.48,1.8l6.51,3.73a1.33,1.33,0,0,0,1.31,0l6.46-3.73a1.31,1.31,0,0,0,.48-1.8L97.66,28.65A1.31,1.31,0,0,0,95.38,28.65Z"/><path class="cls-6" d="M97.66,28.65A1.29,1.29,0,0,0,96.53,28V45.57a1.37,1.37,0,0,0,.65-.17l6.46-3.73a1.31,1.31,0,0,0,.48-1.8Z"/><path class="cls-5" d="M78.79,28.85l-6.5,11.22a1.32,1.32,0,0,0,.48,1.81l6.51,3.72a1.33,1.33,0,0,0,1.31,0l6.46-3.72a1.31,1.31,0,0,0,.48-1.8L81.07,28.86A1.31,1.31,0,0,0,78.79,28.85Z"/><path class="cls-6" d="M81.07,28.86a1.29,1.29,0,0,0-1.13-.66V45.78a1.38,1.38,0,0,0,.65-.18l6.46-3.72a1.31,1.31,0,0,0,.48-1.8Z"/><path class="cls-5" d="M70.54,33.61,64,44.83a1.33,1.33,0,0,0,.49,1.81L71,50.36a1.33,1.33,0,0,0,1.31,0l6.46-3.73a1.31,1.31,0,0,0,.48-1.79L72.82,33.61A1.32,1.32,0,0,0,70.54,33.61Z"/><path class="cls-6" d="M72.82,33.61A1.33,1.33,0,0,0,71.68,33V50.53a1.3,1.3,0,0,0,.66-.17l6.46-3.73a1.31,1.31,0,0,0,.48-1.79Z"/><path class="cls-5" d="M87.11,33.61,80.6,44.83a1.32,1.32,0,0,0,.49,1.81l6.5,3.72a1.35,1.35,0,0,0,1.32,0l6.45-3.73a1.31,1.31,0,0,0,.49-1.79L89.39,33.61A1.32,1.32,0,0,0,87.11,33.61Z"/><path class="cls-6" d="M89.39,33.61A1.36,1.36,0,0,0,88.25,33V50.53a1.3,1.3,0,0,0,.66-.17l6.45-3.73a1.31,1.31,0,0,0,.49-1.79Z"/><path class="cls-5" d="M78.79,38.31l-6.5,11.22a1.31,1.31,0,0,0,.48,1.8l6.51,3.73a1.33,1.33,0,0,0,1.31,0l6.46-3.73a1.3,1.3,0,0,0,.48-1.79L81.07,38.31A1.32,1.32,0,0,0,78.79,38.31Z"/><path class="cls-6" d="M81.07,38.31a1.33,1.33,0,0,0-1.13-.66V55.23a1.37,1.37,0,0,0,.65-.17l6.46-3.73a1.3,1.3,0,0,0,.48-1.79Z"/><path class="cls-5" d="M59.15,24.39l-6.5,11.22a1.32,1.32,0,0,0,.48,1.81l6.51,3.72a1.31,1.31,0,0,0,1.31,0l6.46-3.72a1.31,1.31,0,0,0,.48-1.8L61.43,24.4A1.32,1.32,0,0,0,59.15,24.39Z"/><path class="cls-6" d="M61.43,24.4a1.29,1.29,0,0,0-1.13-.66V41.32a1.28,1.28,0,0,0,.65-.18l6.46-3.72a1.31,1.31,0,0,0,.48-1.8Z"/><path class="cls-5" d="M175.25,5.36l-6.51,11.22a1.31,1.31,0,0,0,.49,1.8l6.5,3.73a1.32,1.32,0,0,0,1.32,0l6.45-3.72a1.32,1.32,0,0,0,.49-1.8L177.53,5.36A1.31,1.31,0,0,0,175.25,5.36Z"/><path class="cls-6" d="M177.53,5.36a1.31,1.31,0,0,0-1.14-.66V22.28a1.31,1.31,0,0,0,.66-.18l6.45-3.72a1.32,1.32,0,0,0,.49-1.8Z"/><path class="cls-5" d="M160.43,11.62l-6.51,11.22a1.32,1.32,0,0,0,.48,1.81l6.51,3.72a1.33,1.33,0,0,0,1.31,0l6.46-3.73a1.31,1.31,0,0,0,.49-1.79l-6.46-11.23A1.32,1.32,0,0,0,160.43,11.62Z"/><path class="cls-6" d="M162.71,11.62a1.36,1.36,0,0,0-1.14-.66V28.54a1.24,1.24,0,0,0,.65-.17l6.46-3.73a1.31,1.31,0,0,0,.49-1.79Z"/><path class="cls-5" d="M169.1,20.42l-6.5,11.22a1.31,1.31,0,0,0,.48,1.8l6.51,3.73a1.31,1.31,0,0,0,1.31,0l6.46-3.72a1.32,1.32,0,0,0,.48-1.8l-6.46-11.22A1.31,1.31,0,0,0,169.1,20.42Z"/><path class="cls-6" d="M171.38,20.42a1.29,1.29,0,0,0-1.14-.66V37.34a1.28,1.28,0,0,0,.66-.18l6.46-3.72a1.32,1.32,0,0,0,.48-1.8Z"/><path class="cls-5" d="M153.74,28.07l-6.51,11.22a1.31,1.31,0,0,0,.49,1.8l6.5,3.73a1.35,1.35,0,0,0,1.32,0L162,41.09a1.32,1.32,0,0,0,.48-1.8L156,28.07A1.31,1.31,0,0,0,153.74,28.07Z"/><path class="cls-6" d="M156,28.07a1.3,1.3,0,0,0-1.14-.66V45a1.41,1.41,0,0,0,.66-.17L162,41.09a1.32,1.32,0,0,0,.48-1.8Z"/><path class="cls-7" d="M319.25,71.58c-6.75-16.09-20.67-31.13-41.76-43.26C255.3,15.56,227.82,7.52,198.74,4.16c-11.21,19-3.75,40.91,22.35,56C247.89,75.62,286.63,79.36,319.25,71.58Z"/><path class="cls-8" d="M315.43,63.9c-7.6-13.17-20.24-25.4-37.94-35.58-18.66-10.73-41.07-18.13-65-22.2C206.4,22,214,39.37,235.35,51.68,257.26,64.32,287.92,68.35,315.43,63.9Z"/><path class="cls-9" d="M307.51,52.66c-7.47-8.88-17.48-17.12-30-24.34a183.18,183.18,0,0,0-45-17.92c0,10.94,7.25,21.87,21.62,30.17C268.91,49.12,288.35,53.13,307.51,52.66Z"/><path class="cls-10" d="M313.78,61.18a88.64,88.64,0,0,0-17.45-19.71L281.4,35.85l.38,4.1.31,7,4.07,5.51-85.82,50.91-21,1.83-6.56,1.64-2.39,27.22-18.52,18.4-22.81,7.05-44.42-.81-4.37,7.57,26,5.18c8.55,1.77,38.61,6.92,64.2-10.39,7-4.75,23.15-15.66,25.14-33.58a34.5,34.5,0,0,0-.82-12l24,.57Z"/><path class="cls-11" d="M133.23,122.45a8,8,0,0,1-.31,2.2c-.76,2.67-2.92,5.24-6.47,7.29l-1.74,1c-9,5.21-23.82,5.22-32.86,0l-1.79-1c-3.55-2.05-5.71-4.61-6.47-7.28a8,8,0,0,1-.31-2.21h0c0-3.43,2.26-6.86,6.77-9.47l1.81-1c9-5.22,23.81-5.21,32.83,0l1.77,1C131,115.56,133.23,119,133.23,122.45Z"/><path class="cls-12" d="M160.9,156.42l-1.4.81c-28.17,16.29-74.27,16.31-102.46,0l-1.42-.82c-14.09-8.14-21.13-18.86-21.13-29.58v-4.41c0,.73,0,1.47.1,2.2.9,10,7.91,19.8,21,27.38l1.42.82c28.19,16.27,74.29,16.25,102.46,0l1.4-.81c13.12-7.58,20.12-17.41,21-27.39a.38.38,0,0,1,0,.1C182.91,136.14,175.9,147.75,160.9,156.42Z"/><path class="cls-13" d="M133.23,122.45l0,3.89h0v1.1h0c-.24,3.24-2.5,6.45-6.76,8.91l-1.74,1c-9,5.21-23.82,5.22-32.86,0l-1.79-1c-4.52-2.61-6.78-6.05-6.78-9.49v-4.41a8,8,0,0,0,.31,2.21c.76,2.67,2.92,5.23,6.47,7.28l1.79,1c9,5.21,23.82,5.2,32.86,0l1.74-1c3.55-2.05,5.71-4.62,6.47-7.29A8,8,0,0,0,133.23,122.45Z"/><polygon class="cls-14" points="281.43 52.45 280.06 53.24 272.73 40.61 272.73 37.46 274.11 39.82 281.43 52.45"/><polygon class="cls-15" points="255.41 27.44 255.41 30.59 229.45 25.61 229.45 22.46 255.41 27.44"/><path class="cls-15" d="M203.49,107.4v3.15H179.08a33.76,33.76,0,0,0-1.83-3.15Z"/><path class="cls-11" d="M293.4,55l-1.28.75L203.49,107.4H177.25a33.76,33.76,0,0,1,1.83,3.15A26.14,26.14,0,0,1,182,122.43h0l-.07,1.9h0l0,.28c-.9,10-7.9,19.81-21,27.39l-1.4.81c-28.17,16.29-74.27,16.31-102.46,0L55.62,152c-13.12-7.58-20.13-17.4-21-27.38-.07-.73-.1-1.47-.1-2.2v0c0-10.71,7-21.43,21.13-29.55L57,92.05c20.78-12,51.3-15.14,77.2-9.46V67.45L225.1,15l34.73,6.69,4.21.81L262,23.66l-2,1.16-4.53,2.62-26-5L142.81,72.4v10L140,84c.93.26,1.86.53,2.77.81a86.93,86.93,0,0,1,11.91,4.66l-.06,0-3.26,2.85-3.53,3.1L146.8,95l-.54-.25-.55-.24-.55-.25-.55-.23h0l-.54-.22h0l-.55-.23-.57-.22-.57-.23-.57-.21-.57-.22L140,92.25l-.58-.2-.59-.19-1.63-.53-.36-.11h0l-.3-.09-.12,0L136,91h0l-.37-.11h-.07l-.39-.11h0l-.29-.08h0l-.09,0-.14,0-.24-.07h0l-.13,0-.33-.09-.84-.22-.85-.21-.62-.15-.63-.14-.62-.14-.63-.14-1.26-.26-.63-.13-1.27-.23-1.28-.22-.64-.11c-.65-.1-1.29-.2-1.94-.28-.21,0-.43-.06-.65-.09l-.63-.08h0l-.63-.08-.66-.07-.65-.07-.64-.07h0l-.64-.06-.65-.06c-1.1-.1-2.19-.18-3.29-.24l-.52,0-1,0-.5,0-2,0c-1.09,0-2.18,0-3.28,0h-4.41l-.45,0h-1.32l-.56,0h-.07l-.25,0h-.36l-.42,0h-.17l-.13,0a1.84,1.84,0,0,0-.33,0h-.57l-.18,0-.27,0H97l-.43,0h-.17l-.24,0h0l-.2,0h-.16l-.51.06h0l-.46.06h-.2l-.53.07h0l-.2,0-.14,0-.14,0h-.13l-.36,0h0l-.09,0h0l-.11,0-.16,0h0l-.36.06h0l-.45.07-.15,0h-.18l-.08,0-.21,0-.13,0H91l-.22,0h0l-.12,0-.15,0h-.21l-.16,0-.08,0-.15,0-.08,0h0l-.36.06-.09,0h0l-.08,0-.51.09-.13,0-.55.11c-2,.4-3.94.85-5.86,1.37l-.67.19-.68.19-1.17.35-.32.09-.67.22-.32.1-.5.16q-2.78.92-5.42,2l-.62.26-.92.4-.6.27-1.79.85-.59.3c-1,.49-1.92,1-2.85,1.54-12.87,7.42-18.79,17.4-17.74,27.18.89,8.3,6.8,16.47,17.74,22.79,23.8,13.75,62.76,13.77,86.57,0,10.94-6.31,16.85-14.47,17.74-22.78a20,20,0,0,0,.11-2.45v-.36a1.69,1.69,0,0,1,0-.23c0-.07,0-.14,0-.21s0-.09,0-.14,0-.14,0-.21,0-.16,0-.24a.19.19,0,0,0,0-.08c0-.07,0-.14,0-.21v0c0-.09,0-.18,0-.27h0l0-.27a1.11,1.11,0,0,0,0-.19,1,1,0,0,1,0-.17v-.07l0-.17,0-.23a1.43,1.43,0,0,1,0-.22.59.59,0,0,1,0-.13,1.16,1.16,0,0,1,0-.18l-.06-.32-.06-.27a1.55,1.55,0,0,0-.05-.23.75.75,0,0,0,0-.16v-.06c0-.06,0-.13-.05-.19s-.08-.34-.13-.51l-.06-.22-.06-.19c0-.06,0-.12,0-.19a1.42,1.42,0,0,1-.07-.22c0-.07,0-.14-.07-.22s0-.09,0-.13-.07-.23-.11-.34l-.06-.16,0-.08-.06-.16c-.08-.23-.17-.45-.26-.67,0-.06-.05-.12-.08-.19l0-.07-.07-.16-.19-.45-.07-.14a.61.61,0,0,0-.07-.14l-.27-.57-.1-.19c-.05-.1-.1-.2-.16-.3a.54.54,0,0,0-.07-.13,2,2,0,0,0-.13-.25l-.13-.24-.14-.24,0-.07a1.4,1.4,0,0,0-.1-.16,3.79,3.79,0,0,0-.2-.34l-.16-.26-.15-.24,0,0-.14-.21-.25-.38-.12-.18-.17-.24-.39-.54a33.81,33.81,0,0,0-2.81-3.31v0l10.39-4c1,.93,1.83,1.88,2.64,2.84l2.81-1.6h17.37l85.14-49.21,1.37-.79-7.32-12.63-1.38-2.36,8.7-5,1.7,3.2h0Z"/><path class="cls-16" d="M147.85,95.5v4.41c-.27-.14-.55-.27-.84-.4l-.43-.21-.43-.2-.88-.39-.89-.38-.81-.33-.5-.2-.47-.19-.09,0-.34-.14-.08,0-.41-.15-.26-.1-.21-.07-.06,0-.51-.18-.41-.15-.48-.17-.12,0-.73-.24-.24-.08-.19-.06-.18-.06-.37-.12-.25-.08-.37-.12-.36-.11-.27-.08-.36-.11-.36-.1h0l-.27-.08-.33-.1-.42-.12-.26-.07-.16,0-.16,0h0l-.37-.1-.56-.15-.32-.08-.19,0-.62-.15-.21-.05-.24-.06-.59-.14-.24-.05-.25-.06-.06,0-.52-.11-.31-.07c-.54-.11-1.07-.23-1.61-.33l-.57-.11-2.38-.43-.41-.06-.66-.11-.57-.08h0l-1.13-.16-1.19-.15-.43-.06-.33,0-.33,0-.32,0-.35,0-1.4-.14-1-.09-.59,0-.6,0-.56,0-.22,0-.4,0-.6,0-.56,0-1.81-.07-1.19,0-1.79,0h-1.33l-1.47,0-.74,0-.73,0-.65,0h-.16l-.61,0h-.07l-.71,0-1.41.09h-.23l-.47,0H100l-.48,0-.25,0-.37,0-.32,0-.51,0-.16,0-.68.06-.77.09-.62.07-.23,0-.47.05-.16,0-.48.07-.33,0-.59.08-.68.1-.67.1h-.06l-.64.1-.2,0L90.9,93l-.27,0-.36.06-.35.06-.26,0-.41.07-.59.11-.68.14-.55.11-.25,0-.49.11-.19,0L86,94l-.24.06-.77.18-.35.08-.36.09c-.13,0-.25,0-.37.09s-.24.06-.36.09l-.35.08-.38.1-.27.07-.45.12-.67.19-.68.19-.5.15-.2.06-.44.13-.56.17-.24.08-.22.07-.28.08-.89.3-.62.21-.65.23-.28.09-.72.27-.29.1-.31.12-.32.12-.35.14-.28.11-.31.13-.61.24-.33.14-.62.26-.43.19-.49.21-.6.27-.45.21-.45.21-.45.22-.44.21-.59.3-.29.15-.19.1c-.46.24-.92.48-1.37.73l-.3.16-.33.19-.37.21c-10.94,6.31-16.85,14.46-17.74,22.77-1-9.78,4.87-19.76,17.74-27.18.93-.53,1.88-1,2.85-1.54l.59-.3,1.79-.85.6-.27.92-.4.62-.26q2.64-1.11,5.42-2l.5-.16.32-.1.67-.22.32-.09,1.17-.35.68-.19.67-.19C84,90,86,89.53,88,89.13l.55-.11.13,0,.51-.09.08,0h0l.09,0,.36-.06h0l.08,0,.15,0,.08,0,.16,0h.1l.11,0,.15,0,.12,0h0l.22,0h.07l.13,0,.21,0,.08,0h.11l.22,0,.45-.07h0l.36-.06h.06l.26,0h0l.09,0h0l.36,0h.13l.14,0,.14,0,.2,0h0l.53-.07h.2l.23,0,.23,0h0l.51-.06H96l.2,0h0l.24,0h.17l.43,0h.47l.27,0,.18,0h.57a1.84,1.84,0,0,1,.33,0l.13,0h.17l.42,0h.36l.25,0h.07l.56,0h1.32l.45,0H107c1.1,0,2.19,0,3.28,0l2,0,.5,0,1,0,.52,0c1.1.06,2.19.14,3.29.24l.65.06.64.06h0l.64.07.65.07.66.07.63.08h0l.63.08.65.09c.65.08,1.29.18,1.94.28l.64.11,1.28.22,1.27.23.63.13,1.26.26.63.14.62.14.63.14.62.15.85.21.84.22.33.09.13,0h0l.24.07.14,0,.09,0h0l.29.08h0l.39.11h.07L136,91h0l.41.12.12,0,.3.09h0l.36.11,1.63.53.59.19.58.2,1.17.42.57.22.57.21.57.23.57.22.55.23h0l.54.22h0l.55.23.55.25.55.24.54.25Z"/><path class="cls-13" d="M154.7,93.91,151,97.16l-3.15,2.76h0V95.5h0l3.53-3.1,3.26-2.85v4.33Z"/><path class="cls-17" d="M169.31,124.66c-.56-5.21-3.09-10.35-7.6-15v-4.41a33.81,33.81,0,0,1,2.81,3.31l.39.54.17.24.12.18.25.38.14.21,0,0,.15.24.16.26a3.79,3.79,0,0,1,.2.34,1.4,1.4,0,0,1,.1.16l0,.07.14.24.13.24a2,2,0,0,1,.13.25.54.54,0,0,1,.07.13c.06.1.11.2.16.3l.1.19.27.57a.61.61,0,0,1,.07.14l.07.14.19.45.07.16,0,.07c0,.07.05.13.08.19.09.22.18.44.26.67l.06.16,0,.08.06.16c0,.11.08.23.11.34s0,.09,0,.13.05.15.07.22a1.42,1.42,0,0,0,.07.22c0,.07,0,.13,0,.19l.06.19.06.22c.05.17.09.34.13.51s0,.13.05.19v.06a.75.75,0,0,1,0,.16,1.55,1.55,0,0,1,.05.23l.06.27.06.32a1.16,1.16,0,0,0,0,.18.59.59,0,0,0,0,.13,1.43,1.43,0,0,0,0,.22l0,.23,0,.17v.07a1,1,0,0,0,0,.17,1.11,1.11,0,0,1,0,.19l0,.27h0c0,.09,0,.18,0,.27v0c0,.07,0,.14,0,.21a.19.19,0,0,1,0,.08c0,.08,0,.16,0,.24s0,.14,0,.21,0,.09,0,.14,0,.14,0,.21a1.69,1.69,0,0,0,0,.23v.36A20,20,0,0,1,169.31,124.66Z"/><path class="cls-18" d="M281.43,22.46c-11.49-7.85-23.81-5.45-26-5l4.42,4.17,4.21.81v3.15l-8.63,5-26-5L142.81,75.55v9.3a86.93,86.93,0,0,1,11.91,4.66l-.06,0v4.33l0,0L151,97.16l-3.15,2.76-.86-.41-.43-.21-.43-.2-.88-.39-.89-.38-.81-.33-.5-.2-.38-.15-.09,0-.09,0-.34-.14-.08,0-.32-.12-.09,0-.26-.1-.21-.07-.06,0-.33-.12-.18-.06-.41-.15-.36-.12-.12,0-.12,0-.73-.24-.24-.08-.19-.06-.18-.06-.37-.12-.25-.08-.37-.12-.36-.11-.27-.08-.36-.11-.36-.1h0l-.27-.08-.33-.1-.42-.12-.26-.07-.16,0-.16,0h0l-.37-.1-.3-.08-.26-.07-.32-.08-.19,0-.26-.06-.36-.09-.21-.05-.24-.06-.24-.06-.35-.08-.24-.05-.25-.06-.06,0-.21,0-.31-.07-.31-.07c-.54-.11-1.07-.23-1.61-.33l-.57-.11-2.38-.43-.41-.06-.66-.11-.57-.08h0l-1.13-.16-1.19-.15-.43-.06-.33,0-.33,0-.32,0-.35,0-1.4-.14-1-.09-.59,0-.6,0-.56,0-.22,0-.4,0-.6,0-.56,0-1.81-.07-1.19,0-1.79,0h-1.33l-1.47,0-.74,0-.73,0-.65,0h-.16l-.61,0h-.07l-.71,0-1.41.09h-.23l-.47,0H100l-.48,0-.25,0-.37,0-.32,0-.51,0-.16,0-.68.06-.77.09-.62.07-.23,0-.47.05-.16,0-.48.07-.33,0-.59.08-.68.1-.67.1h-.06l-.64.1-.2,0L90.9,93l-.27,0-.36.06-.35.06-.26,0-.41.07-.59.11-.68.14-.55.11-.25,0-.49.11-.19,0L86,94l-.24.06-.77.18-.35.08-.36.09c-.13,0-.25,0-.37.09s-.24.06-.36.09l-.35.08-.38.1-.27.07-.45.12-.67.19-.68.19-.5.15-.2.06-.44.13-.56.17-.24.08-.22.07-.28.08-.89.3-.62.21-.65.23-.28.09-.72.27-.29.1-.31.12-.32.12-.35.14-.28.11-.31.13-.61.24-.33.14-.62.26-.43.19-.49.21-.6.27-.45.21-.45.21-.45.22-.44.21-.59.3-.29.15-.19.1c-.46.24-.92.48-1.37.73l-.3.16-.33.19-.37.21c-10.94,6.31-16.85,14.46-17.74,22.77.89,8.3,6.8,16.47,17.74,22.79,23.8,13.75,62.76,13.77,86.57,0,10.94-6.31,16.85-14.47,17.74-22.78-.56-5.21-3.09-10.35-7.6-15h0v-4.39h0l10.39-4c1,.93,1.83,1.88,2.64,2.84l2.81-1.6h17.37l85.14-49.21-7.33-12.63V37.46l8.7-5,1.7,3.2h0L294.35,40A33.79,33.79,0,0,0,281.43,22.46Zm-148.22,105h0c-.24,3.24-2.5,6.45-6.76,8.91l-1.74,1c-9,5.21-23.82,5.22-32.86,0l-1.79-1c-4.52-2.61-6.78-6.05-6.78-9.49v-4.42c0-3.43,2.26-6.86,6.77-9.47l1.81-1c9-5.22,23.81-5.21,32.83,0l1.77,1c4.52,2.61,6.77,6.06,6.77,9.5l0,3.89h0A8.08,8.08,0,0,1,133.21,127.44Z"/><path class="cls-19" d="M79.69,136.08a.43.43,0,0,1-.22-.06c-4.37-2.85-7.26-6.37-8.34-10.17a12.35,12.35,0,0,1-.48-3.4.41.41,0,0,1,.41-.41.41.41,0,0,1,.41.41,11.45,11.45,0,0,0,.45,3.17c1,3.61,3.79,7,8,9.71a.41.41,0,0,1,.12.57A.39.39,0,0,1,79.69,136.08Z"/><path class="cls-19" d="M108.3,144.33c-1,0-2.11,0-3.18-.08a.4.4,0,0,1-.38-.43.41.41,0,0,1,.43-.39c9.37.49,18.76-1.27,25.76-4.81a.4.4,0,0,1,.55.18.41.41,0,0,1-.18.55,45.83,45.83,0,0,1-12.4,4A59,59,0,0,1,108.3,144.33Z"/><path class="cls-19" d="M144.25,128.11a.47.47,0,0,1-.17,0,.41.41,0,0,1-.2-.55,13,13,0,0,0,.71-1.91,11.38,11.38,0,0,0,.45-3.16,12.35,12.35,0,0,0-1.92-6.51.4.4,0,0,1,.13-.56.42.42,0,0,1,.57.13,13.28,13.28,0,0,1,2,6.94,12.34,12.34,0,0,1-.48,3.39,13.53,13.53,0,0,1-.76,2A.4.4,0,0,1,144.25,128.11Z"/><path class="cls-19" d="M131.09,106.3a.41.41,0,0,1-.19,0,44.15,44.15,0,0,0-11.4-3.82.42.42,0,0,1-.32-.48.4.4,0,0,1,.48-.32,45,45,0,0,1,11.61,3.89.41.41,0,0,1,.18.55A.42.42,0,0,1,131.09,106.3Z"/><path class="cls-19" d="M74.14,114.58a.38.38,0,0,1-.25-.09.4.4,0,0,1-.07-.57A24.3,24.3,0,0,1,80.93,108l2.71-1.57a38,38,0,0,1,4.24-2.09.41.41,0,1,1,.32.76,36.38,36.38,0,0,0-4.15,2l-2.71,1.56a23.89,23.89,0,0,0-6.88,5.74A.39.39,0,0,1,74.14,114.58Z"/><path class="cls-19" d="M108.24,148.37a69.66,69.66,0,0,1-12.4-1.1.41.41,0,0,1-.33-.47.4.4,0,0,1,.47-.33,70.24,70.24,0,0,0,15.33,1,.41.41,0,1,1,0,.82C110.31,148.34,109.27,148.37,108.24,148.37Z"/><path class="cls-19" d="M143.47,137.71a.42.42,0,0,1-.34-.17.4.4,0,0,1,.1-.57c4.28-3.1,7.14-6.81,8.25-10.73a13.54,13.54,0,0,0,.54-3.78,13.84,13.84,0,0,0-.27-2.71.42.42,0,0,1,.32-.48.41.41,0,0,1,.48.32,14.71,14.71,0,0,1,.29,2.87,14.44,14.44,0,0,1-.57,4c-1.16,4.1-4.12,8-8.56,11.16A.46.46,0,0,1,143.47,137.71Z"/><path class="cls-19" d="M137.33,104.26a.36.36,0,0,1-.2-.06,46.23,46.23,0,0,0-8.89-3.89.41.41,0,1,1,.25-.78,47,47,0,0,1,9,4,.42.42,0,0,1,.15.56A.41.41,0,0,1,137.33,104.26Z"/><path class="cls-19" d="M83.39,102.15a.39.39,0,0,1-.37-.25.4.4,0,0,1,.21-.54,60.81,60.81,0,0,1,19.44-4.65,73,73,0,0,1,10.25-.06.41.41,0,0,1,.38.43.41.41,0,0,1-.44.38,72.72,72.72,0,0,0-10.12.07,59.72,59.72,0,0,0-19.18,4.58A.35.35,0,0,1,83.39,102.15Z"/><path class="cls-19" d="M70,135.18a.38.38,0,0,1-.28-.11,20.16,20.16,0,0,1-5-7.22c-.17-.45-.33-.92-.46-1.38a14.51,14.51,0,0,1-.57-4v0a15.71,15.71,0,0,1,2.91-8.92,27.67,27.67,0,0,1,9.27-8.18l.79-.46a.41.41,0,0,1,.41.71l-.79.46a26.87,26.87,0,0,0-9,7.93,14.89,14.89,0,0,0-2.77,8.46v0a14,14,0,0,0,.53,3.79q.2.66.45,1.32a19.26,19.26,0,0,0,4.82,6.92.41.41,0,0,1,0,.58A.42.42,0,0,1,70,135.18Z"/><path class="cls-19" d="M57.18,120.41h-.06a.41.41,0,0,1-.35-.46,18.27,18.27,0,0,1,1.95-5.79,24.22,24.22,0,0,1,4-5.46.41.41,0,1,1,.58.57,19.94,19.94,0,0,0-5.76,10.8A.41.41,0,0,1,57.18,120.41Z"/><path class="cls-19" d="M83.16,148.37a.35.35,0,0,1-.14,0,53.53,53.53,0,0,1-8.64-3.94l-3.67-2.12a34.1,34.1,0,0,1-9.55-7.85.42.42,0,0,1,.06-.58.41.41,0,0,1,.58.06,33.18,33.18,0,0,0,9.31,7.66l3.68,2.12a52.39,52.39,0,0,0,8.51,3.88.41.41,0,0,1-.14.8Z"/><path class="cls-19" d="M123.42,151.05a.41.41,0,0,1-.07-.81,59,59,0,0,0,18.47-6.58l3.58-2.07a39.53,39.53,0,0,0,3.36-2.16.41.41,0,0,1,.48.67c-1.07.76-2.22,1.5-3.43,2.2l-3.58,2.07a60.06,60.06,0,0,1-18.73,6.68Z"/><path class="cls-19" d="M159.08,126.63l-.1,0a.4.4,0,0,1-.3-.49,16.11,16.11,0,0,0,.43-3.65,17.21,17.21,0,0,0-2.8-9.25,5.51,5.51,0,0,1-.53-4.58,5.39,5.39,0,0,1,4.64-3.42.41.41,0,0,1,.44.38.41.41,0,0,1-.37.44,4.55,4.55,0,0,0-3.94,2.88,4.66,4.66,0,0,0,.45,3.86,18,18,0,0,1,2.93,9.69,17.28,17.28,0,0,1-.45,3.84A.42.42,0,0,1,159.08,126.63Z"/><path class="cls-19" d="M81.43,98a.41.41,0,0,1-.15-.79,66.92,66.92,0,0,1,13.4-3.66,80.93,80.93,0,0,1,14.43-1.12.39.39,0,0,1,.4.41.4.4,0,0,1-.41.4h0A73.82,73.82,0,0,0,81.58,98,.4.4,0,0,1,81.43,98Z"/><path class="cls-20" d="M133.23,125.35l0,3.89h0v1.1h0c-.24,3.24-2.5,6.45-6.76,8.91l-1.74,1c-9,5.21-23.82,5.22-32.86,0l-1.79-1c-4.52-2.61-6.78-6.05-6.78-9.49v-4.41a8,8,0,0,0,.31,2.21c.76,2.67,2.92,5.23,6.47,7.28l1.79,1c9,5.21,23.82,5.2,32.86,0l1.74-1c3.55-2.05,5.71-4.62,6.47-7.29A8,8,0,0,0,133.23,125.35Z"/><path class="cls-21" d="M147.85,98.59V103l-.84-.41-.43-.2-.43-.2-.88-.39-.89-.38-.81-.33-.5-.21-.47-.18-.09,0-.34-.13-.08,0-.41-.15-.26-.1-.21-.08-.06,0-.51-.18-.41-.15-.48-.17-.12,0-.73-.25-.24-.08-.19-.06-.18-.06-.37-.11-.25-.08-.37-.12-.36-.11-.27-.08-.36-.11-.36-.1h0l-.27-.08-.33-.09-.42-.12-.26-.07-.16,0-.16-.05h0l-.37-.1-.56-.14-.32-.08-.19,0c-.2,0-.41-.11-.62-.15L132,97.4l-.24-.05-.59-.14-.24-.06-.25-.06h-.06l-.52-.11-.31-.07c-.54-.12-1.07-.23-1.61-.33l-.57-.11c-.79-.16-1.58-.3-2.38-.43l-.41-.07-.66-.1-.57-.09h0l-1.13-.16c-.4,0-.79-.11-1.19-.15l-.43-.06-.33,0-.33,0-.32,0-.35,0-1.4-.14-1-.08-.59,0-.6,0-.56,0-.22,0-.4,0-.6,0-.56,0-1.81-.07-1.19,0-1.79,0h-1.33l-1.47,0-.74,0-.73,0-.65,0h-.16l-.61,0h-.07l-.71,0L101,94.9l-.23,0-.47,0L100,95l-.48,0-.25,0-.37,0-.32,0-.51,0H98l-.68.07-.77.08-.62.08-.23,0-.47.06-.16,0-.48.06-.33,0-.59.08-.68.09-.67.11h-.06l-.64.1-.2,0-.47.08-.27,0-.36.07-.35.06-.26,0-.41.08-.59.11-.68.14-.55.11-.25.05-.49.1-.19,0L86,97l-.24.06-.77.17-.35.08-.36.09-.37.09-.36.09-.35.09-.38.1-.27.07-.45.12-.67.19-.68.19-.5.15-.2.06-.44.13-.56.17-.24.07-.22.07-.28.09-.89.29-.62.22-.65.22-.28.1-.72.27-.29.1-.31.12-.32.12-.35.14-.28.11-.31.12-.61.25-.33.14-.62.26-.43.18-.49.22-.6.27-.45.21-.45.21-.45.22-.44.21-.59.3-.29.14-.19.1-1.37.74-.3.16-.33.19-.37.21c-10.94,6.3-16.85,14.46-17.74,22.76-1-9.77,4.87-19.75,17.74-27.17.93-.54,1.88-1,2.85-1.54l.59-.3,1.79-.85.6-.27.92-.4.62-.27q2.64-1.09,5.42-2l.5-.16.32-.11.67-.21.32-.09L80.77,94l.68-.19.67-.19c1.92-.52,3.88-1,5.86-1.38l.55-.1.13,0,.51-.1h.1l.09,0,.36-.07h0l.08,0,.15,0h.08l.16,0h.1l.11,0,.15,0,.12,0h0l.22,0h.07l.13,0,.21,0,.08,0h.11l.22,0,.45-.07h0l.36,0h.06l.26,0h0l.09,0h0l.36,0h.13l.14,0,.14,0,.2,0h0l.53-.07h.2l.23,0,.23,0h0l.51-.06.1,0H96l.2,0h0l.24,0,.11,0h.06l.43,0h.47l.27,0h.62l.13,0,.33,0h.3l.42,0h.36l.25,0h.07l.56,0h1.32l.45,0h.37l.31,0H107c1.1,0,2.19,0,3.28,0l2,.06.5,0,1,0,.52,0c1.1.06,2.19.14,3.29.24.22,0,.43,0,.65.06l.64.06h0l.64.07.65.07.66.07.63.08h0l.63.09.65.08,1.94.29.64.1,1.28.22,1.27.24.63.13,1.26.26.63.13.62.14.63.15.62.15.85.21.84.22.33.09.13,0h0l.24.07.14,0,.09,0h0l.29.08h0l.39.11h.07l.37.11h0l.41.12.12,0,.3.09h0l0,0,.36.11,1.63.52.59.2.58.2,1.17.42.57.21.57.22.57.22.57.23.55.23h0l.54.23h0l.55.23.55.24.55.25.54.25C147.15,98.25,147.5,98.41,147.85,98.59Z"/><path class="cls-19" d="M147.49,103.57a9.91,9.91,0,0,1-1.94-.2h-.07l-3.69-2.14A55.13,55.13,0,0,0,129.31,96a.42.42,0,0,1-.29-.51.42.42,0,0,1,.51-.28,56,56,0,0,1,12.67,5.26l3.58,2.07a8.74,8.74,0,0,0,3.38,0A9.71,9.71,0,0,0,155,98.65a.41.41,0,0,1,.57-.09.4.4,0,0,1,.09.57,10.57,10.57,0,0,1-6.36,4.26A9.31,9.31,0,0,1,147.49,103.57Z"/><path class="cls-20" d="M154.7,97,151,100.25,147.87,103h0V98.59h0l3.53-3.1,3.26-2.85V97Z"/><path class="cls-13" d="M142.81,82.41v2.44c-.91-.28-1.84-.55-2.77-.81Z"/><polygon class="cls-13" points="229.45 22.46 229.45 25.61 142.81 75.55 142.81 72.4 229.45 22.46"/><polygon class="cls-13" points="293.4 54.97 293.4 58.13 203.49 110.55 203.49 107.4 292.12 55.72 293.4 54.97"/><polygon class="cls-13" points="264.04 22.46 264.04 25.61 255.41 30.59 255.41 27.44 259.94 24.82 261.96 23.66 264.04 22.46"/><polygon class="cls-22" points="255.41 29.96 255.41 33.11 229.45 28.13 229.45 24.98 255.41 29.96"/><polygon class="cls-20" points="229.45 24.98 229.45 28.13 142.81 78.07 142.81 74.92 229.45 24.98"/><polygon class="cls-20" points="264.04 24.98 264.04 28.13 255.41 33.11 255.41 29.96 259.94 27.34 261.96 26.18 264.04 24.98"/><path class="cls-15" d="M90.3,136.47,68.59,149.32l-.32-.15,11.33-6.74L90,136.29l.09.05Z"/><path class="cls-14" d="M90.3,136.1l-.33.19L79.6,142.43l-11.33,6.74h0l-.67-.34-.64-.34-.33-.17-.32-.18L66,148l-.36-.2,11.68-6.7L88,134.94l.29-.17A19.75,19.75,0,0,0,90.06,136Z"/><path class="cls-5" d="M178.86,153.92l-6.51,11.22a1.34,1.34,0,0,0,.49,1.81l6.51,3.72a1.33,1.33,0,0,0,1.31,0l6.46-3.72a1.32,1.32,0,0,0,.48-1.8l-6.46-11.22A1.32,1.32,0,0,0,178.86,153.92Z"/><path class="cls-6" d="M181.14,153.93a1.29,1.29,0,0,0-1.14-.66v17.58a1.28,1.28,0,0,0,.66-.18l6.46-3.72a1.32,1.32,0,0,0,.48-1.8Z"/><path class="cls-5" d="M246.76,113l-6.51,11.22a1.31,1.31,0,0,0,.49,1.8l6.5,3.72a1.3,1.3,0,0,0,1.32,0L255,126a1.32,1.32,0,0,0,.49-1.8L249,113A1.31,1.31,0,0,0,246.76,113Z"/><path class="cls-6" d="M249,113a1.3,1.3,0,0,0-1.14-.66v17.58a1.31,1.31,0,0,0,.66-.18L255,126a1.32,1.32,0,0,0,.49-1.8Z"/><path class="cls-5" d="M238.44,117.71l-6.5,11.22a1.32,1.32,0,0,0,.48,1.81l6.51,3.72a1.28,1.28,0,0,0,1.31,0l6.46-3.72a1.31,1.31,0,0,0,.48-1.8l-6.45-11.22A1.33,1.33,0,0,0,238.44,117.71Z"/><path class="cls-6" d="M240.73,117.72a1.31,1.31,0,0,0-1.14-.66v17.58a1.28,1.28,0,0,0,.65-.18l6.46-3.72a1.31,1.31,0,0,0,.48-1.8Z"/><path class="cls-5" d="M221.45,118.92,215,130.14a1.31,1.31,0,0,0,.48,1.8l6.51,3.73a1.33,1.33,0,0,0,1.31,0l6.46-3.73a1.32,1.32,0,0,0,.49-1.8l-6.46-11.22A1.32,1.32,0,0,0,221.45,118.92Z"/><path class="cls-6" d="M223.74,118.92a1.31,1.31,0,0,0-1.14-.66v17.58a1.37,1.37,0,0,0,.65-.17l6.46-3.73a1.32,1.32,0,0,0,.49-1.8Z"/><path class="cls-5" d="M213.2,123.68l-6.5,11.22a1.31,1.31,0,0,0,.48,1.8l6.51,3.73a1.33,1.33,0,0,0,1.31,0l6.46-3.73a1.32,1.32,0,0,0,.48-1.8l-6.46-11.22A1.31,1.31,0,0,0,213.2,123.68Z"/><path class="cls-6" d="M215.48,123.68a1.29,1.29,0,0,0-1.14-.66V140.6a1.38,1.38,0,0,0,.66-.17l6.46-3.73a1.32,1.32,0,0,0,.48-1.8Z"/><path class="cls-5" d="M229.77,123.68l-6.51,11.22a1.31,1.31,0,0,0,.49,1.8l6.51,3.73a1.33,1.33,0,0,0,1.31,0L238,136.7a1.32,1.32,0,0,0,.48-1.8l-6.46-11.22A1.31,1.31,0,0,0,229.77,123.68Z"/><path class="cls-6" d="M232.05,123.68a1.29,1.29,0,0,0-1.14-.66V140.6a1.38,1.38,0,0,0,.66-.17L238,136.7a1.32,1.32,0,0,0,.48-1.8Z"/><path class="cls-5" d="M262.42,78.37l-6.5,11.22a1.32,1.32,0,0,0,.48,1.81l6.51,3.72a1.28,1.28,0,0,0,1.31,0l6.46-3.72a1.31,1.31,0,0,0,.48-1.8L264.7,78.38A1.32,1.32,0,0,0,262.42,78.37Z"/><path class="cls-6" d="M264.7,78.38a1.29,1.29,0,0,0-1.13-.66V95.3a1.28,1.28,0,0,0,.65-.18l6.46-3.72a1.31,1.31,0,0,0,.48-1.8Z"/><path class="cls-5" d="M257.42,88.07l-6.5,11.22a1.32,1.32,0,0,0,.48,1.81l6.51,3.72a1.31,1.31,0,0,0,1.31,0l6.46-3.72a1.32,1.32,0,0,0,.48-1.8L259.7,88.08A1.32,1.32,0,0,0,257.42,88.07Z"/><path class="cls-6" d="M259.7,88.08a1.29,1.29,0,0,0-1.13-.66V105a1.28,1.28,0,0,0,.65-.18l6.46-3.72a1.32,1.32,0,0,0,.48-1.8Z"/><path class="cls-5" d="M275.19,88.07l-6.5,11.22a1.32,1.32,0,0,0,.48,1.81l6.51,3.72a1.31,1.31,0,0,0,1.31,0l6.46-3.72a1.31,1.31,0,0,0,.48-1.8l-6.45-11.22A1.33,1.33,0,0,0,275.19,88.07Z"/><path class="cls-6" d="M277.48,88.08a1.31,1.31,0,0,0-1.14-.66V105a1.28,1.28,0,0,0,.65-.18l6.46-3.72a1.31,1.31,0,0,0,.48-1.8Z"/><path class="cls-5" d="M203.68,126.87l-6.5,11.22a1.32,1.32,0,0,0,.48,1.81l6.51,3.72a1.33,1.33,0,0,0,1.31,0l6.46-3.72a1.31,1.31,0,0,0,.48-1.8L206,126.88A1.31,1.31,0,0,0,203.68,126.87Z"/><path class="cls-6" d="M206,126.88a1.29,1.29,0,0,0-1.13-.66V143.8a1.38,1.38,0,0,0,.65-.18l6.46-3.72a1.31,1.31,0,0,0,.48-1.8Z"/><path class="cls-5" d="M195.43,131.63l-6.51,11.22a1.33,1.33,0,0,0,.49,1.81l6.51,3.72a1.33,1.33,0,0,0,1.31,0l6.46-3.73a1.31,1.31,0,0,0,.48-1.79l-6.46-11.23A1.32,1.32,0,0,0,195.43,131.63Z"/><path class="cls-6" d="M197.71,131.63a1.35,1.35,0,0,0-1.14-.66v17.58a1.3,1.3,0,0,0,.66-.17l6.46-3.73a1.31,1.31,0,0,0,.48-1.79Z"/><path class="cls-5" d="M212,131.63l-6.51,11.22a1.32,1.32,0,0,0,.49,1.81l6.5,3.72a1.35,1.35,0,0,0,1.32,0l6.45-3.73a1.31,1.31,0,0,0,.49-1.79l-6.46-11.23A1.32,1.32,0,0,0,212,131.63Z"/><path class="cls-6" d="M214.28,131.63a1.36,1.36,0,0,0-1.14-.66v17.58a1.3,1.3,0,0,0,.66-.17l6.45-3.73a1.31,1.31,0,0,0,.49-1.79Z"/><path class="cls-5" d="M203.68,136.33l-6.5,11.22a1.31,1.31,0,0,0,.48,1.8l6.51,3.73a1.33,1.33,0,0,0,1.31,0l6.46-3.73a1.3,1.3,0,0,0,.48-1.79L206,136.33A1.32,1.32,0,0,0,203.68,136.33Z"/><path class="cls-6" d="M206,136.33a1.33,1.33,0,0,0-1.13-.66v17.58a1.37,1.37,0,0,0,.65-.17l6.46-3.73a1.3,1.3,0,0,0,.48-1.79Z"/><path class="cls-5" d="M221,134.82,214.47,146a1.32,1.32,0,0,0,.48,1.81l6.51,3.72a1.28,1.28,0,0,0,1.31,0l6.46-3.72a1.31,1.31,0,0,0,.48-1.8l-6.46-11.22A1.32,1.32,0,0,0,221,134.82Z"/><path class="cls-6" d="M223.25,134.83a1.29,1.29,0,0,0-1.13-.66v17.58a1.28,1.28,0,0,0,.65-.18l6.46-3.72a1.31,1.31,0,0,0,.48-1.8Z"/><path class="cls-5" d="M212.72,139.58l-6.51,11.22a1.33,1.33,0,0,0,.49,1.81l6.51,3.72a1.28,1.28,0,0,0,1.31,0l6.46-3.72a1.32,1.32,0,0,0,.48-1.8L215,139.59A1.32,1.32,0,0,0,212.72,139.58Z"/><path class="cls-6" d="M215,139.59a1.29,1.29,0,0,0-1.14-.66v17.58a1.28,1.28,0,0,0,.66-.18l6.46-3.72a1.32,1.32,0,0,0,.48-1.8Z"/><path class="cls-5" d="M229.29,139.58l-6.51,11.22a1.32,1.32,0,0,0,.49,1.81l6.5,3.72a1.3,1.3,0,0,0,1.32,0l6.45-3.72a1.33,1.33,0,0,0,.49-1.8l-6.46-11.22A1.32,1.32,0,0,0,229.29,139.58Z"/><path class="cls-6" d="M231.57,139.59a1.3,1.3,0,0,0-1.14-.66v17.58a1.31,1.31,0,0,0,.66-.18l6.45-3.72a1.33,1.33,0,0,0,.49-1.8Z"/><path class="cls-5" d="M221,144.28l-6.5,11.22a1.32,1.32,0,0,0,.48,1.81l6.51,3.72a1.31,1.31,0,0,0,1.31,0l6.46-3.72a1.31,1.31,0,0,0,.48-1.8l-6.46-11.22A1.32,1.32,0,0,0,221,144.28Z"/><path class="cls-6" d="M223.25,144.29a1.29,1.29,0,0,0-1.13-.66v17.58a1.28,1.28,0,0,0,.65-.18l6.46-3.72a1.31,1.31,0,0,0,.48-1.8Z"/><path class="cls-5" d="M206.27,141.21l-6.5,11.22a1.31,1.31,0,0,0,.48,1.8l6.51,3.73a1.33,1.33,0,0,0,1.31,0l6.46-3.73a1.3,1.3,0,0,0,.48-1.79l-6.46-11.23A1.32,1.32,0,0,0,206.27,141.21Z"/><path class="cls-6" d="M208.55,141.21a1.33,1.33,0,0,0-1.13-.66v17.58a1.37,1.37,0,0,0,.65-.17l6.46-3.73a1.3,1.3,0,0,0,.48-1.79Z"/><path class="cls-5" d="M198,146l-6.51,11.22A1.31,1.31,0,0,0,192,159l6.51,3.73a1.33,1.33,0,0,0,1.31,0l6.46-3.73a1.32,1.32,0,0,0,.48-1.8L200.3,146A1.31,1.31,0,0,0,198,146Z"/><path class="cls-6" d="M200.3,146a1.29,1.29,0,0,0-1.14-.66v17.58a1.38,1.38,0,0,0,.66-.17l6.46-3.73a1.32,1.32,0,0,0,.48-1.8Z"/><path class="cls-5" d="M214.59,146l-6.51,11.22a1.31,1.31,0,0,0,.49,1.8l6.5,3.73a1.35,1.35,0,0,0,1.32,0l6.45-3.73a1.32,1.32,0,0,0,.49-1.8L216.87,146A1.31,1.31,0,0,0,214.59,146Z"/><path class="cls-6" d="M216.87,146a1.3,1.3,0,0,0-1.14-.66v17.58a1.41,1.41,0,0,0,.66-.17l6.45-3.73a1.32,1.32,0,0,0,.49-1.8Z"/><path class="cls-5" d="M206.27,150.67l-6.5,11.22a1.31,1.31,0,0,0,.48,1.8l6.51,3.73a1.33,1.33,0,0,0,1.31,0l6.46-3.73a1.31,1.31,0,0,0,.48-1.8l-6.46-11.22A1.31,1.31,0,0,0,206.27,150.67Z"/><path class="cls-6" d="M208.55,150.67a1.29,1.29,0,0,0-1.13-.66v17.58a1.37,1.37,0,0,0,.65-.17l6.46-3.73a1.31,1.31,0,0,0,.48-1.8Z"/><path class="cls-5" d="M186.63,136.75,180.13,148a1.32,1.32,0,0,0,.48,1.81l6.51,3.72a1.33,1.33,0,0,0,1.31,0l6.46-3.72a1.31,1.31,0,0,0,.48-1.8l-6.46-11.22A1.32,1.32,0,0,0,186.63,136.75Z"/><path class="cls-6" d="M188.91,136.76a1.29,1.29,0,0,0-1.13-.66v17.58a1.28,1.28,0,0,0,.65-.18l6.46-3.72a1.31,1.31,0,0,0,.48-1.8Z"/><path class="cls-5" d="M228.68,149.28l-6.5,11.22a1.32,1.32,0,0,0,.48,1.81l6.51,3.72a1.31,1.31,0,0,0,1.31,0l6.46-3.72a1.31,1.31,0,0,0,.48-1.8L231,149.29A1.33,1.33,0,0,0,228.68,149.28Z"/><path class="cls-6" d="M231,149.29a1.31,1.31,0,0,0-1.14-.66v17.58a1.28,1.28,0,0,0,.65-.18l6.46-3.72a1.31,1.31,0,0,0,.48-1.8Z"/><path class="cls-5" d="M296.58,108.38l-6.5,11.22a1.31,1.31,0,0,0,.48,1.8l6.51,3.73a1.31,1.31,0,0,0,1.31,0l6.46-3.72a1.32,1.32,0,0,0,.48-1.8l-6.46-11.22A1.31,1.31,0,0,0,296.58,108.38Z"/><path class="cls-6" d="M298.86,108.38a1.29,1.29,0,0,0-1.13-.66V125.3a1.28,1.28,0,0,0,.65-.18l6.46-3.72a1.32,1.32,0,0,0,.48-1.8Z"/><path class="cls-5" d="M288.27,113.08l-6.51,11.22a1.31,1.31,0,0,0,.49,1.8l6.5,3.72a1.3,1.3,0,0,0,1.32,0l6.45-3.72a1.32,1.32,0,0,0,.49-1.8l-6.46-11.22A1.31,1.31,0,0,0,288.27,113.08Z"/><path class="cls-6" d="M290.55,113.08a1.3,1.3,0,0,0-1.14-.66V130a1.31,1.31,0,0,0,.66-.18l6.45-3.72a1.32,1.32,0,0,0,.49-1.8Z"/><path class="cls-5" d="M271.28,114.28l-6.51,11.22a1.31,1.31,0,0,0,.49,1.8l6.5,3.73a1.35,1.35,0,0,0,1.32,0l6.46-3.73a1.31,1.31,0,0,0,.48-1.79l-6.46-11.23A1.32,1.32,0,0,0,271.28,114.28Z"/><path class="cls-6" d="M273.56,114.28a1.35,1.35,0,0,0-1.14-.66V131.2a1.41,1.41,0,0,0,.66-.17l6.46-3.73a1.31,1.31,0,0,0,.48-1.79Z"/><path class="cls-5" d="M263,119l-6.5,11.22a1.31,1.31,0,0,0,.48,1.8l6.51,3.73a1.33,1.33,0,0,0,1.31,0l6.46-3.73a1.32,1.32,0,0,0,.49-1.8L265.31,119A1.32,1.32,0,0,0,263,119Z"/><path class="cls-6" d="M265.31,119a1.31,1.31,0,0,0-1.14-.66V136a1.37,1.37,0,0,0,.65-.17l6.46-3.73a1.32,1.32,0,0,0,.49-1.8Z"/><path class="cls-5" d="M279.59,119l-6.5,11.22a1.31,1.31,0,0,0,.48,1.8l6.51,3.73a1.33,1.33,0,0,0,1.31,0l6.46-3.73a1.31,1.31,0,0,0,.48-1.8L281.87,119A1.31,1.31,0,0,0,279.59,119Z"/><path class="cls-6" d="M281.87,119a1.29,1.29,0,0,0-1.13-.66V136a1.37,1.37,0,0,0,.65-.17l6.46-3.73a1.31,1.31,0,0,0,.48-1.8Z"/><path class="cls-5" d="M271.28,123.74,264.77,135a1.31,1.31,0,0,0,.49,1.8l6.5,3.73a1.35,1.35,0,0,0,1.32,0l6.46-3.73A1.32,1.32,0,0,0,280,135l-6.46-11.22A1.31,1.31,0,0,0,271.28,123.74Z"/><path class="cls-6" d="M273.56,123.74a1.3,1.3,0,0,0-1.14-.66v17.58a1.41,1.41,0,0,0,.66-.17l6.46-3.73A1.32,1.32,0,0,0,280,135Z"/><path class="cls-5" d="M253.51,122.23,247,133.45a1.32,1.32,0,0,0,.48,1.81L254,139a1.31,1.31,0,0,0,1.31,0l6.46-3.72a1.33,1.33,0,0,0,.49-1.8l-6.46-11.22A1.32,1.32,0,0,0,253.51,122.23Z"/><path class="cls-6" d="M255.79,122.24a1.31,1.31,0,0,0-1.14-.66v17.58a1.25,1.25,0,0,0,.65-.18l6.46-3.72a1.33,1.33,0,0,0,.49-1.8Z"/><path class="cls-5" d="M245.25,127l-6.5,11.22a1.32,1.32,0,0,0,.48,1.81l6.51,3.72a1.33,1.33,0,0,0,1.31,0l6.46-3.72a1.31,1.31,0,0,0,.48-1.8L247.53,127A1.32,1.32,0,0,0,245.25,127Z"/><path class="cls-6" d="M247.53,127a1.29,1.29,0,0,0-1.13-.66v17.58a1.28,1.28,0,0,0,.65-.18l6.46-3.72a1.31,1.31,0,0,0,.48-1.8Z"/><path class="cls-5" d="M261.82,127l-6.51,11.22a1.33,1.33,0,0,0,.49,1.81l6.51,3.72a1.33,1.33,0,0,0,1.31,0l6.46-3.72a1.32,1.32,0,0,0,.48-1.8L264.1,127A1.32,1.32,0,0,0,261.82,127Z"/><path class="cls-6" d="M264.1,127a1.29,1.29,0,0,0-1.14-.66v17.58a1.28,1.28,0,0,0,.66-.18l6.46-3.72a1.32,1.32,0,0,0,.48-1.8Z"/><path class="cls-5" d="M253.51,131.69,247,142.91a1.32,1.32,0,0,0,.48,1.81l6.51,3.72a1.33,1.33,0,0,0,1.31,0l6.46-3.72a1.33,1.33,0,0,0,.49-1.8l-6.46-11.22A1.31,1.31,0,0,0,253.51,131.69Z"/><path class="cls-6" d="M255.79,131.7a1.31,1.31,0,0,0-1.14-.66v17.57a1.24,1.24,0,0,0,.65-.17l6.46-3.72a1.33,1.33,0,0,0,.49-1.8Z"/><path class="cls-5" d="M270.8,130.19l-6.51,11.22a1.31,1.31,0,0,0,.49,1.8l6.5,3.72a1.3,1.3,0,0,0,1.32,0l6.45-3.72a1.32,1.32,0,0,0,.49-1.8l-6.46-11.22A1.31,1.31,0,0,0,270.8,130.19Z"/><path class="cls-6" d="M273.08,130.19a1.31,1.31,0,0,0-1.14-.66v17.58a1.31,1.31,0,0,0,.66-.18l6.45-3.72a1.32,1.32,0,0,0,.49-1.8Z"/><path class="cls-5" d="M262.54,134.94,256,146.16a1.32,1.32,0,0,0,.48,1.81l6.51,3.72a1.28,1.28,0,0,0,1.31,0L270.8,148a1.31,1.31,0,0,0,.48-1.8L264.82,135A1.32,1.32,0,0,0,262.54,134.94Z"/><path class="cls-6" d="M264.82,135a1.29,1.29,0,0,0-1.13-.66v17.58a1.28,1.28,0,0,0,.65-.18L270.8,148a1.31,1.31,0,0,0,.48-1.8Z"/><path class="cls-5" d="M279.11,134.94l-6.51,11.22a1.33,1.33,0,0,0,.49,1.81l6.51,3.72a1.28,1.28,0,0,0,1.31,0l6.46-3.72a1.32,1.32,0,0,0,.48-1.8L281.39,135A1.32,1.32,0,0,0,279.11,134.94Z"/><path class="cls-6" d="M281.39,135a1.29,1.29,0,0,0-1.14-.66v17.58a1.28,1.28,0,0,0,.66-.18l6.46-3.72a1.32,1.32,0,0,0,.48-1.8Z"/><path class="cls-5" d="M270.8,139.64l-6.51,11.22a1.31,1.31,0,0,0,.49,1.81l6.5,3.72a1.3,1.3,0,0,0,1.32,0l6.45-3.72a1.33,1.33,0,0,0,.49-1.8l-6.46-11.22A1.32,1.32,0,0,0,270.8,139.64Z"/><path class="cls-6" d="M273.08,139.65a1.31,1.31,0,0,0-1.14-.66v17.58a1.31,1.31,0,0,0,.66-.18l6.45-3.72a1.33,1.33,0,0,0,.49-1.8Z"/><path class="cls-5" d="M256.1,136.57l-6.51,11.22a1.32,1.32,0,0,0,.49,1.81l6.5,3.72a1.35,1.35,0,0,0,1.32,0l6.45-3.73a1.31,1.31,0,0,0,.49-1.79l-6.46-11.22A1.31,1.31,0,0,0,256.1,136.57Z"/><path class="cls-6" d="M258.38,136.58a1.35,1.35,0,0,0-1.14-.67v17.58a1.3,1.3,0,0,0,.66-.17l6.45-3.73a1.31,1.31,0,0,0,.49-1.79Z"/><path class="cls-5" d="M247.84,141.33l-6.5,11.22a1.31,1.31,0,0,0,.48,1.8l6.51,3.73a1.33,1.33,0,0,0,1.31,0l6.46-3.73a1.3,1.3,0,0,0,.48-1.79l-6.46-11.23A1.32,1.32,0,0,0,247.84,141.33Z"/><path class="cls-6" d="M250.12,141.33a1.33,1.33,0,0,0-1.13-.66v17.58a1.26,1.26,0,0,0,.65-.17l6.46-3.73a1.3,1.3,0,0,0,.48-1.79Z"/><path class="cls-5" d="M256.1,146l-6.51,11.22a1.31,1.31,0,0,0,.49,1.8l6.5,3.73a1.35,1.35,0,0,0,1.32,0l6.45-3.73a1.31,1.31,0,0,0,.49-1.79L258.38,146A1.32,1.32,0,0,0,256.1,146Z"/><path class="cls-6" d="M258.38,146a1.34,1.34,0,0,0-1.14-.66V163a1.41,1.41,0,0,0,.66-.17l6.45-3.73a1.31,1.31,0,0,0,.49-1.79Z"/><path class="cls-19" d="M271.63,36.39a.39.39,0,0,1-.27-.11.41.41,0,0,1,0-.58,15.2,15.2,0,0,1,2.86-2.42,14.34,14.34,0,0,1,6-2.25,14.79,14.79,0,0,1,8.36,1.43.41.41,0,0,1,.19.55.41.41,0,0,1-.55.18,13.66,13.66,0,0,0-16.28,3.06A.41.41,0,0,1,271.63,36.39Z"/><path class="cls-19" d="M262.34,31.38a.42.42,0,0,1-.37-.23.41.41,0,0,1,.19-.55,5.68,5.68,0,0,0,3.23-4.94,6,6,0,0,0-2.52-4.87.42.42,0,0,1-.12-.57.41.41,0,0,1,.57-.11,6.85,6.85,0,0,1,2.89,5.58,6.5,6.5,0,0,1-3.69,5.65A.58.58,0,0,1,262.34,31.38Z"/><path class="cls-19" d="M267.5,35.1a.47.47,0,0,1-.22-.07.42.42,0,0,1-.12-.57A19.48,19.48,0,0,1,278,26.35a17.3,17.3,0,0,1,4.72-.58.41.41,0,0,1,0,.82,16.33,16.33,0,0,0-4.48.55,18.61,18.61,0,0,0-10.35,7.77A.42.42,0,0,1,267.5,35.1Z"/><path class="cls-19" d="M264,33.27a.42.42,0,0,1-.36-.2.41.41,0,0,1,.15-.56c1.05-.63,6.33-4,6.6-9.44a9.14,9.14,0,0,0-.36-3,.41.41,0,0,1,.28-.51.41.41,0,0,1,.51.28,10,10,0,0,1,.39,3.28,11.16,11.16,0,0,1-3.31,7.13,17.77,17.77,0,0,1-3.69,3A.42.42,0,0,1,264,33.27Z"/></g></g></svg>