<svg xmlns="http://www.w3.org/2000/svg" xmlns:xlink="http://www.w3.org/1999/xlink" viewBox="0 0 1920 1080"><defs><style>.cls-1{fill:none;}.cls-2{clip-path:url(#clip-path);}.cls-3{fill:url(#Dégradé_sans_nom_19);}.cls-4{fill:#3589bc;opacity:0.6;}.cls-5{fill:url(#Dégradé_sans_nom_9);}.cls-6{fill:#aadef3;opacity:0.3;}.cls-7{fill:url(#Dégradé_sans_nom_9-2);}.cls-8{fill:url(#Dégradé_sans_nom_9-3);}.cls-9{fill:url(#Dégradé_sans_nom_9-4);}.cls-10{fill:#fff;}</style><clipPath id="clip-path" transform="translate(0 -0.5)"><rect class="cls-1" x="0.5" width="1920" height="1080"/></clipPath><linearGradient id="Dégradé_sans_nom_19" x1="210" y1="1290" x2="1710" y2="-210" gradientUnits="userSpaceOnUse"><stop offset="0" stop-color="#389bbc"/><stop offset="1" stop-color="#3819a9"/></linearGradient><linearGradient id="Dégradé_sans_nom_9" x1="120.02" y1="125.6" x2="293.32" y2="125.6" gradientUnits="userSpaceOnUse"><stop offset="0" stop-color="#4d8cc9" stop-opacity="0"/><stop offset="0.21" stop-color="#5c9ad0" stop-opacity="0.08"/><stop offset="0.63" stop-color="#84bde2" stop-opacity="0.3"/><stop offset="1" stop-color="#aadef3" stop-opacity="0.5"/></linearGradient><linearGradient id="Dégradé_sans_nom_9-2" x1="1784.64" y1="986.85" x2="1707.57" y2="909.78" xlink:href="#Dégradé_sans_nom_9"/><linearGradient id="Dégradé_sans_nom_9-3" x1="4429.35" y1="-199.32" x2="4411.67" y2="-217" gradientTransform="translate(-2765.41 1173.47)" xlink:href="#Dégradé_sans_nom_9"/><linearGradient id="Dégradé_sans_nom_9-4" x1="1746.1" y1="978.1" x2="1746.1" y2="921.56" xlink:href="#Dégradé_sans_nom_9"/></defs><title>jumbotron_backgroundFichier 2</title><g id="Calque_2" data-name="Calque 2"><g id="Calque_1-2" data-name="Calque 1"><g class="cls-2"><rect class="cls-3" width="1920" height="1080"/><rect class="cls-4" width="1920" height="1080"/><path class="cls-5" d="M292,114.07A137.47,137.47,0,0,1,268,135.41a202.92,202.92,0,0,1-27.45,16.53,213.18,213.18,0,0,1-29.52,12.17,158.79,158.79,0,0,1-30.85,6.77c-.64.08-1.29.19-1.94.25l-1.94.12-3.89.24a58.54,58.54,0,0,1-7.61,0,36.57,36.57,0,0,1-13.76-3.25,15,15,0,0,1-4.75-3.64,9.65,9.65,0,0,1-2.24-4.79c-.69-3.56.41-8,2.5-12.11a53.92,53.92,0,0,1,8.31-12,67.43,67.43,0,0,1,7.4-7.22l-.26.4c-.45.69-.87,1.43-1.29,2.17s-.8,1.55-1.19,2.32-.75,1.61-1.06,2.51a27.53,27.53,0,0,0-1.54,5.66,21.24,21.24,0,0,0-.08,6.68,18.94,18.94,0,0,0,2.51,7,19.36,19.36,0,0,0,4.85,5.33,22.23,22.23,0,0,0,5.54,3,28.47,28.47,0,0,0,5.37,1.51,42.86,42.86,0,0,0,9.91.6c1.59-.05,3.06-.25,4.55-.41s3-.32,4.43-.61a106.47,106.47,0,0,0,16.9-4.32L215,159l4-1.58,2-.8,2-.88c1.29-.59,2.59-1.16,3.87-1.77a138.51,138.51,0,0,0,28.7-18.29,90.58,90.58,0,0,0,12.3-12.24,70.06,70.06,0,0,0,5.22-7.07,56.88,56.88,0,0,0,4.33-7.92,38.84,38.84,0,0,0,2.82-9.07,26,26,0,0,0-.21-10.27,20.35,20.35,0,0,0-5-9.48,25.3,25.3,0,0,0-8.27-5.83,37.56,37.56,0,0,0-8.92-2.67,55.61,55.61,0,0,0-8.82-.84,69.69,69.69,0,0,0-8.59.36l-4.19.46L234,71.3c-.7.09-1.38.23-2.07.34-22.09,3.67-42.7,12.11-61.74,22.87a206,206,0,0,0-27.15,18.33A140,140,0,0,0,120,136l1.35,1.1a137.94,137.94,0,0,1,23.94-21.34,202.86,202.86,0,0,1,27.45-16.52A211.46,211.46,0,0,1,202.28,87.1a158.71,158.71,0,0,1,30.84-6.78c.65-.08,1.3-.18,1.94-.24L237,80l3.88-.25a57,57,0,0,1,7.62,0A36.1,36.1,0,0,1,262.26,83,14.84,14.84,0,0,1,267,86.62a10.94,10.94,0,0,1,1.47,2.24,11.51,11.51,0,0,1,.78,2.54c.68,3.57-.41,8-2.51,12.12a54.15,54.15,0,0,1-8.3,12A69.46,69.46,0,0,1,251,122.7l.26-.4c.45-.69.87-1.44,1.29-2.18s.81-1.54,1.2-2.31.74-1.62,1.06-2.51a28.28,28.28,0,0,0,1.54-5.67,21.54,21.54,0,0,0,.08-6.68A19,19,0,0,0,254,96a19.22,19.22,0,0,0-4.85-5.33,22.28,22.28,0,0,0-5.54-3.05,28.87,28.87,0,0,0-5.36-1.5,42.37,42.37,0,0,0-9.91-.6c-1.6,0-3.07.24-4.56.41s-3,.31-4.43.61a106.61,106.61,0,0,0-16.89,4.31l-4.06,1.41-4,1.59-2,.8-1.95.88c-1.29.59-2.6,1.15-3.88,1.77a138.73,138.73,0,0,0-28.7,18.28,91.82,91.82,0,0,0-12.3,12.25,70,70,0,0,0-5.21,7.07A56.83,56.83,0,0,0,136,142.8a38.68,38.68,0,0,0-2.81,9.07,25.79,25.79,0,0,0,.2,10.26,21.72,21.72,0,0,0,1.89,5.09,21.34,21.34,0,0,0,3.14,4.39,25.43,25.43,0,0,0,8.27,5.84,37.63,37.63,0,0,0,8.93,2.67,55.37,55.37,0,0,0,8.82.83,67.62,67.62,0,0,0,8.58-.36l4.2-.45,2.09-.23c.69-.09,1.38-.23,2.07-.35,22.09-3.67,42.69-12.11,61.73-22.86a207.16,207.16,0,0,0,27.16-18.34,140,140,0,0,0,23-23.18Zm-74.39,5.42c-.12.27-.26.55-.41.84a18,18,0,0,1-1.87,2.62,31.3,31.3,0,0,1-12,8,20.43,20.43,0,0,1-3.5,1,8,8,0,0,1-3.13.09,1.76,1.76,0,0,1-.87-.39,9.09,9.09,0,0,1,.41-.83,18,18,0,0,1,1.86-2.62,31.44,31.44,0,0,1,12-8.06,20.75,20.75,0,0,1,3.51-1,7.62,7.62,0,0,1,3.13-.09A1.85,1.85,0,0,1,217.57,119.49Z" transform="translate(0 -0.5)"/><path class="cls-6" d="M131.24,353.75l4.69,8.58a1.24,1.24,0,0,0,.5.49l8.58,4.7a1.24,1.24,0,0,1,0,2.17l-8.58,4.69a1.33,1.33,0,0,0-.5.5l-4.69,8.58a1.24,1.24,0,0,1-2.17,0l-4.7-8.58a1.24,1.24,0,0,0-.49-.5l-8.58-4.69a1.24,1.24,0,0,1,0-2.17l8.58-4.7a1.16,1.16,0,0,0,.49-.49l4.7-8.58A1.24,1.24,0,0,1,131.24,353.75Z" transform="translate(0 -0.5)"/><path class="cls-6" d="M1709.24,803.75l4.69,8.58a1.24,1.24,0,0,0,.5.49l8.58,4.7a1.24,1.24,0,0,1,0,2.17l-8.58,4.69a1.33,1.33,0,0,0-.5.5l-4.69,8.58a1.24,1.24,0,0,1-2.17,0l-4.7-8.58a1.24,1.24,0,0,0-.49-.5l-8.58-4.69a1.24,1.24,0,0,1,0-2.17l8.58-4.7a1.16,1.16,0,0,0,.49-.49l4.7-8.58A1.24,1.24,0,0,1,1709.24,803.75Z" transform="translate(0 -0.5)"/><path class="cls-6" d="M692.24,876.75l4.69,8.58a1.24,1.24,0,0,0,.5.49l8.58,4.7a1.24,1.24,0,0,1,0,2.17l-8.58,4.69a1.33,1.33,0,0,0-.5.5l-4.69,8.58a1.24,1.24,0,0,1-2.17,0l-4.7-8.58a1.24,1.24,0,0,0-.49-.5l-8.58-4.69a1.24,1.24,0,0,1,0-2.17l8.58-4.7a1.16,1.16,0,0,0,.49-.49l4.7-8.58A1.24,1.24,0,0,1,692.24,876.75Z" transform="translate(0 -0.5)"/><circle class="cls-7" cx="1746.1" cy="948.32" r="54.5"/><circle class="cls-8" cx="1655.1" cy="965.32" r="12.5"/><path class="cls-9" d="M1804.7,950.18c-1.31-.69-2.69-1.39-4.1-2.08v2.23c1.08.54,2.14,1.08,3.16,1.62,12.89,6.84,19.91,13.48,18.79,17.77s-10.48,6.66-25.07,6.35c-15.45-.33-35.31-3.47-55.91-8.84-45.73-11.9-74.11-28.91-71.92-37.32,1.06-4,9.28-6.39,22.63-6.39,1.74,0,3.57.05,5.48.13.34-.59.43-1.42.86-1.91-16.92-.85-29.25,1.3-30.9,7.67-3.16,12.11,34.81,29.73,73.34,39.76,20.76,5.4,40.78,8.56,56.38,8.9.88,0,1.77,0,2.68,0,10.75,0,22.71-1.49,24.37-7.88C1826.29,963.3,1814.72,955.5,1804.7,950.18Z" transform="translate(0 -0.5)"/><rect class="cls-1" x="1355.73" y="917.51" width="7.69" height="7.69"/><circle class="cls-10" cx="1359.58" cy="921.36" r="3.85"/><rect class="cls-1" x="229.74" y="287.7" width="1.42" height="1.42"/><circle class="cls-10" cx="230.45" cy="288.4" r="0.71"/><rect class="cls-1" x="445.52" y="125.61" width="6.95" height="6.95"/><circle class="cls-10" cx="449" cy="129.09" r="3.48"/><rect class="cls-1" x="219.13" y="485.43" width="2.21" height="2.21"/><circle class="cls-10" cx="220.23" cy="486.53" r="1.11"/><rect class="cls-1" x="1156.9" y="979.96" width="5.82" height="5.82"/><circle class="cls-10" cx="1159.81" cy="982.87" r="2.91"/><rect class="cls-1" x="1831.39" y="535.14" width="4.91" height="4.91"/><circle class="cls-10" cx="1833.85" cy="537.6" r="2.46"/><rect class="cls-1" x="1079.66" y="40.77" width="5.06" height="5.06"/><circle class="cls-10" cx="1082.19" cy="43.3" r="2.53"/><rect class="cls-1" x="46.94" y="707.46" width="7.51" height="7.51"/><circle class="cls-10" cx="50.7" cy="711.21" r="3.76"/><rect class="cls-1" x="53.26" y="997.69" width="7.13" height="7.13"/><circle class="cls-10" cx="56.83" cy="1001.26" r="3.57"/><rect class="cls-1" x="1673.39" y="538.5" width="2.28" height="2.28"/><circle class="cls-10" cx="1674.53" cy="539.64" r="1.14"/><rect class="cls-1" x="1454.01" y="956.4" width="8.02" height="8.02"/><circle class="cls-10" cx="1458.02" cy="960.4" r="4.01"/><rect class="cls-1" x="359.06" y="570.21" width="8.31" height="8.31"/><circle class="cls-10" cx="363.21" cy="574.36" r="4.15"/><rect class="cls-1" x="1548.63" y="37.91" width="2.61" height="2.61"/><circle class="cls-10" cx="1549.94" cy="39.21" r="1.3"/><rect class="cls-1" x="1886.79" y="1027.64" width="4.42" height="4.42"/><circle class="cls-10" cx="1889" cy="1029.85" r="2.21"/><rect class="cls-1" x="1839.28" y="1043.45" width="1.39" height="1.39"/><circle class="cls-10" cx="1839.98" cy="1044.15" r="0.69"/><rect class="cls-1" x="1796.61" y="31.59" width="6.06" height="6.06"/><circle class="cls-10" cx="1799.64" cy="34.62" r="3.03"/><rect class="cls-1" x="1621.61" y="518.38" width="3.71" height="3.71"/><circle class="cls-10" cx="1623.47" cy="520.23" r="1.86"/><rect class="cls-1" x="710.05" y="761.88" width="3.85" height="3.85"/><circle class="cls-10" cx="711.98" cy="763.81" r="1.92"/><rect class="cls-1" x="1139.7" y="837.66" width="5.5" height="5.5"/><circle class="cls-10" cx="1142.45" cy="840.4" r="2.75"/><rect class="cls-1" x="769.7" y="93.87" width="7.11" height="7.11"/><circle class="cls-10" cx="773.26" cy="97.43" r="3.55"/><rect class="cls-1" x="1378.97" y="225.18" width="4.92" height="4.92"/><circle class="cls-10" cx="1381.43" cy="227.64" r="2.46"/></g></g></g></svg>