<svg xmlns="http://www.w3.org/2000/svg" viewBox="0 0 813.49 870.03"><defs><style>.cls-1{fill:#67533a;}.cls-2,.cls-3,.cls-5{fill:#503e25;}.cls-3{opacity:0.9;}.cls-4,.cls-6{fill:#9a8260;}.cls-5{opacity:0.6;}.cls-6{opacity:0.3;}.cls-7{fill:#38ba6d;}.cls-8{fill:#329360;}.cls-9{fill:#ccc3be;}.cls-10{fill:#e0d5ce;}.cls-11{fill:#d3cac5;}.cls-12{fill:#b5aeaa;}.cls-13{fill:#fff5f0;}.cls-14{fill:#4f4d4c;}.cls-14,.cls-15{opacity:0.35;}.cls-15{fill:#0c0c0c;}</style></defs><title>jumbotron_mayaFichier 5</title><g id="Calque_2" data-name="Calque 2"><g id="Calque_1-2" data-name="Calque 1"><path class="cls-1" d="M4.49,290q34,122.49,68,245l221,188,58,106,90,41,192-120,82-172q27.5-30.51,55-61,21.5-117.45,43-234.89Z"/><path class="cls-2" d="M715.49,576l55-59q21.5-117.45,43-234.89L732.49,404Q724,490,715.49,576Z"/><path class="cls-3" d="M608.49,429l107,147,24-242Z"/><polygon class="cls-4" points="72.49 535.03 158.49 397.03 8.76 311.75 72.49 535.03"/><path class="cls-1" d="M133.49,437l85.38,222.52L72.49,535Z"/><polygon class="cls-4" points="218.49 660.03 260.11 482.09 138.51 429.08 133.49 437.03 218.49 660.03"/><polygon class="cls-5" points="293.49 723.03 260.49 478.03 218.49 660.03 293.49 723.03"/><polygon class="cls-2" points="351.49 829.03 443.49 750.03 443.49 870.03 351.49 829.03"/><polygon class="cls-6" points="260.11 482.09 351.49 587.03 503.66 490.96 260.11 482.09"/><polygon class="cls-5" points="443.49 750.03 503.49 491.03 351.49 587.03 351.49 829.03 443.49 750.03"/><polygon class="cls-2" points="630.47 459.23 633.49 750.03 715.49 576.03 630.47 459.23"/><path class="cls-1" d="M443.49,750l117-73q35-109,70-218l-127,32Z"/><polygon class="cls-5" points="633.49 750.03 560.49 677.03 630.49 459.03 633.49 750.03"/><polygon class="cls-2" points="443.49 870.03 560.49 677.03 633.49 750.03 443.49 870.03"/><path class="cls-7" d="M118.91,429.1C-39.54,337.69-39.65,188,118.65,96.45s417.47-91.56,575.92,0,158.57,241.24.27,332.65S277.37,520.51,118.91,429.1Z"/><path class="cls-8" d="M694.84,429.1c-37,21.35-79.44,37.71-124.85,49.08H413.13V115.26H723.81C852.35,207.46,842.72,343.71,694.84,429.1Z"/><polygon class="cls-9" points="776.66 267.78 760.13 239.29 412.59 439.84 65.05 239.29 32 258.1 412.59 478.02 776.66 267.78"/><polygon class="cls-10" points="760.13 239.29 412.59 38.17 65.05 239.29 412.59 439.84 760.13 239.29"/><polygon class="cls-9" points="727.09 239.29 710.57 210.24 412.59 382.3 114.61 210.24 98.09 239.29 412.59 420.47 727.09 239.29"/><polygon class="cls-10" points="710.57 210.24 412.59 38.17 114.61 210.24 412.59 382.3 710.57 210.24"/><polygon class="cls-9" points="677.52 210.24 661 181.75 412.59 324.75 164.18 181.75 147.66 210.24 412.59 363.5 677.52 210.24"/><polygon class="cls-10" points="661 181.75 412.59 38.17 164.18 181.75 412.59 324.75 661 181.75"/><polygon class="cls-9" points="610.86 153.26 627.38 181.75 412.59 305.95 197.23 181.75 213.75 153.26 412.59 267.78 610.86 153.26"/><polygon class="cls-10" points="610.86 153.26 412.02 267.78 213.75 153.26 412.02 38.17 610.86 153.26"/><polygon class="cls-9" points="412.59 229.61 577.82 133.89 577.82 153.26 412.59 248.98 246.79 153.26 246.79 133.89 412.59 229.61"/><polygon class="cls-10" points="511.16 57.54 412.02 0 313.45 57.54 412.59 115.09 511.16 57.54"/><polygon class="cls-9" points="412.59 115.09 511.16 57.54 511.16 134.18 510.67 134.18 412.59 191.43 313.94 134.18 313.45 134.18 313.45 57.54 412.59 115.09"/><path class="cls-11" d="M462.29,200.82l66.07-38.22,49.14,85.54q33.48,57.41,67,114.79l-66.66,38.74q-30.77-54.57-62-108.84Q489.24,246.72,462.29,200.82Z"/><polygon class="cls-11" points="363.02 200.55 247.36 401.67 180.7 363.5 296.93 162.38 363.02 200.55"/><path class="cls-12" d="M567.07,382.83l11,19-.29-.16,0,0-1.21-.7-15.32-8.57-11.76-31.67-16.72-9.35-8.55-33.46-15.95-9.84-8.71-33.34-16.79-9.39-8.08-33.46-12.29-11.68-.28-19.66S541.46,337.93,567.07,382.83Z"/><path class="cls-12" d="M258.62,382.83l-11,19,.29-.16,0,0,1.2-.7,15.24-8.57,11.71-31.67,16.64-9.35q4.26-16.74,8.51-33.46l15.87-9.84,8.66-33.34,16.71-9.39,8-33.46,12.23-11.68q.13-9.84.28-19.66S284.11,337.93,258.62,382.83Z"/><line class="cls-13" x1="528.53" y1="162.66" x2="462.44" y2="200.27"/><line class="cls-13" x1="531.06" y1="167.02" x2="464.96" y2="204.65"/><line class="cls-13" x1="533.59" y1="171.38" x2="467.47" y2="209.03"/><line class="cls-13" x1="536.11" y1="175.74" x2="469.99" y2="213.42"/><line class="cls-13" x1="538.64" y1="180.1" x2="472.5" y2="217.8"/><line class="cls-13" x1="541.17" y1="184.46" x2="475.01" y2="222.19"/><line class="cls-13" x1="543.69" y1="188.82" x2="477.53" y2="226.57"/><line class="cls-13" x1="546.22" y1="193.18" x2="480.04" y2="230.96"/><line class="cls-13" x1="548.75" y1="197.54" x2="482.56" y2="235.34"/><line class="cls-13" x1="551.27" y1="201.9" x2="485.07" y2="239.73"/><line class="cls-13" x1="553.8" y1="206.26" x2="487.59" y2="244.11"/><line class="cls-13" x1="556.33" y1="210.62" x2="490.1" y2="248.5"/><line class="cls-13" x1="558.85" y1="214.98" x2="492.61" y2="252.88"/><line class="cls-13" x1="561.38" y1="219.34" x2="495.13" y2="257.26"/><line class="cls-13" x1="563.91" y1="223.7" x2="497.64" y2="261.65"/><line class="cls-13" x1="566.43" y1="228.06" x2="500.16" y2="266.03"/><line class="cls-13" x1="568.96" y1="232.42" x2="502.67" y2="270.42"/><line class="cls-13" x1="571.49" y1="236.78" x2="505.19" y2="274.8"/><line class="cls-13" x1="574.01" y1="241.14" x2="507.7" y2="279.19"/><line class="cls-13" x1="576.54" y1="245.5" x2="510.21" y2="283.57"/><line class="cls-13" x1="579.07" y1="249.86" x2="512.73" y2="287.96"/><line class="cls-13" x1="581.59" y1="254.22" x2="515.24" y2="292.34"/><line class="cls-13" x1="584.12" y1="258.58" x2="517.76" y2="296.73"/><line class="cls-13" x1="586.65" y1="262.94" x2="520.27" y2="301.11"/><line class="cls-13" x1="589.17" y1="267.3" x2="522.79" y2="305.5"/><line class="cls-13" x1="591.7" y1="271.66" x2="525.3" y2="309.88"/><line class="cls-13" x1="594.23" y1="276.02" x2="527.81" y2="314.26"/><line class="cls-13" x1="596.75" y1="280.38" x2="530.33" y2="318.65"/><line class="cls-13" x1="599.28" y1="284.74" x2="532.84" y2="323.03"/><line class="cls-13" x1="601.81" y1="289.1" x2="535.36" y2="327.42"/><line class="cls-13" x1="604.33" y1="293.46" x2="537.87" y2="331.8"/><line class="cls-13" x1="606.86" y1="297.82" x2="540.39" y2="336.19"/><line class="cls-13" x1="609.39" y1="302.18" x2="542.9" y2="340.57"/><line class="cls-13" x1="611.91" y1="306.54" x2="545.41" y2="344.96"/><line class="cls-13" x1="614.44" y1="310.9" x2="547.93" y2="349.34"/><line class="cls-13" x1="616.97" y1="315.26" x2="550.44" y2="353.73"/><line class="cls-13" x1="619.49" y1="319.61" x2="552.96" y2="358.11"/><line class="cls-13" x1="622.02" y1="323.97" x2="555.47" y2="362.49"/><line class="cls-13" x1="624.55" y1="328.33" x2="557.99" y2="366.88"/><line class="cls-13" x1="627.07" y1="332.69" x2="560.5" y2="371.26"/><line class="cls-13" x1="629.6" y1="337.05" x2="563.02" y2="375.65"/><line class="cls-13" x1="632.13" y1="341.41" x2="565.53" y2="380.03"/><line class="cls-13" x1="634.65" y1="345.77" x2="568.04" y2="384.42"/><line class="cls-13" x1="637.18" y1="350.13" x2="570.56" y2="388.8"/><line class="cls-13" x1="639.71" y1="354.49" x2="573.07" y2="393.19"/><line class="cls-13" x1="642.23" y1="358.85" x2="575.59" y2="397.57"/><line class="cls-13" x1="644.76" y1="363.21" x2="578.1" y2="401.96"/><line class="cls-13" x1="296.65" y1="162.66" x2="362.74" y2="200.27"/><line class="cls-13" x1="294.12" y1="167.02" x2="360.22" y2="204.65"/><line class="cls-13" x1="291.59" y1="171.38" x2="357.71" y2="209.03"/><line class="cls-13" x1="289.07" y1="175.74" x2="355.19" y2="213.42"/><line class="cls-13" x1="286.54" y1="180.1" x2="352.68" y2="217.8"/><line class="cls-13" x1="284.01" y1="184.46" x2="350.17" y2="222.19"/><line class="cls-13" x1="281.49" y1="188.82" x2="347.65" y2="226.57"/><line class="cls-13" x1="278.96" y1="193.18" x2="345.14" y2="230.96"/><line class="cls-13" x1="276.43" y1="197.54" x2="342.62" y2="235.34"/><line class="cls-13" x1="273.91" y1="201.9" x2="340.11" y2="239.73"/><line class="cls-13" x1="271.38" y1="206.26" x2="337.59" y2="244.11"/><line class="cls-13" x1="268.85" y1="210.62" x2="335.08" y2="248.5"/><line class="cls-13" x1="266.33" y1="214.98" x2="332.57" y2="252.88"/><line class="cls-13" x1="263.8" y1="219.34" x2="330.05" y2="257.26"/><line class="cls-13" x1="261.27" y1="223.7" x2="327.54" y2="261.65"/><line class="cls-13" x1="258.75" y1="228.06" x2="325.02" y2="266.03"/><line class="cls-13" x1="256.22" y1="232.42" x2="322.51" y2="270.42"/><line class="cls-13" x1="253.69" y1="236.78" x2="319.99" y2="274.8"/><line class="cls-13" x1="251.17" y1="241.14" x2="317.48" y2="279.19"/><line class="cls-13" x1="248.64" y1="245.5" x2="314.97" y2="283.57"/><line class="cls-13" x1="246.11" y1="249.86" x2="312.45" y2="287.96"/><line class="cls-13" x1="243.59" y1="254.22" x2="309.94" y2="292.34"/><line class="cls-13" x1="241.06" y1="258.58" x2="307.42" y2="296.73"/><line class="cls-13" x1="238.53" y1="262.94" x2="304.91" y2="301.11"/><line class="cls-13" x1="236.01" y1="267.3" x2="302.39" y2="305.5"/><line class="cls-13" x1="233.48" y1="271.66" x2="299.88" y2="309.88"/><line class="cls-13" x1="230.95" y1="276.02" x2="297.37" y2="314.26"/><line class="cls-13" x1="228.43" y1="280.38" x2="294.85" y2="318.65"/><line class="cls-13" x1="225.9" y1="284.74" x2="292.34" y2="323.03"/><line class="cls-13" x1="223.37" y1="289.1" x2="289.82" y2="327.42"/><line class="cls-13" x1="220.85" y1="293.46" x2="287.31" y2="331.8"/><line class="cls-13" x1="218.32" y1="297.82" x2="284.79" y2="336.19"/><line class="cls-13" x1="215.79" y1="302.18" x2="282.28" y2="340.57"/><line class="cls-13" x1="213.27" y1="306.54" x2="279.76" y2="344.96"/><line class="cls-13" x1="210.74" y1="310.9" x2="277.25" y2="349.34"/><line class="cls-13" x1="208.21" y1="315.26" x2="274.74" y2="353.73"/><line class="cls-13" x1="205.69" y1="319.61" x2="272.22" y2="358.11"/><line class="cls-13" x1="203.16" y1="323.97" x2="269.71" y2="362.49"/><line class="cls-13" x1="200.63" y1="328.33" x2="267.19" y2="366.88"/><line class="cls-13" x1="198.11" y1="332.69" x2="264.68" y2="371.26"/><line class="cls-13" x1="195.58" y1="337.05" x2="262.16" y2="375.65"/><line class="cls-13" x1="193.05" y1="341.41" x2="259.65" y2="380.03"/><line class="cls-13" x1="190.53" y1="345.77" x2="257.14" y2="384.42"/><line class="cls-13" x1="188" y1="350.13" x2="254.62" y2="388.8"/><line class="cls-13" x1="185.47" y1="354.49" x2="252.11" y2="393.19"/><line class="cls-13" x1="182.95" y1="358.85" x2="249.59" y2="397.57"/><line class="cls-13" x1="180.42" y1="363.21" x2="247.08" y2="401.96"/><path class="cls-14" d="M412.87,114.8l98.57-57.54v37.6L759.85,239l17.09,28.49L636.26,348.85l8.5,14.36L578.1,402l-16.52-9.69L412.87,477.73V439.56l33.05-18.95-33.05-.42V382l33.05-18.51-33.05-.29V324.47L445.25,306l-32.38-.28-.56-38.17L445.92,249l-33.05-.29V229.32l49.57-29-49.57-9.12"/><polygon class="cls-14" points="491.5 145.9 491.5 88.76 441.93 117.08 441.93 174.25 491.5 145.9"/><path class="cls-15" d="M483,141l.06-47.4-41.08,23.47v47.86Z"/></g></g></svg>