<svg xmlns="http://www.w3.org/2000/svg" xmlns:xlink="http://www.w3.org/1999/xlink" viewBox="0 0 910.76 619.7"><defs><style>.cls-1{fill:none;}.cls-2{fill:url(#Dégradé_sans_nom_233);}.cls-3{fill:#f4dcab;}.cls-4{fill:#e8c391;}.cls-5{fill:#d8b782;}.cls-6{fill:#e8d4b1;}.cls-7{fill:#cca46a;}.cls-8{fill:url(#Dégradé_sans_nom_3);}.cls-9{fill:url(#Dégradé_sans_nom_4);}.cls-10{fill:url(#Dégradé_sans_nom_5);}.cls-11,.cls-15,.cls-17{opacity:0.6;}.cls-11,.cls-15,.cls-16,.cls-17{isolation:isolate;}.cls-11{fill:url(#Dégradé_sans_nom_6);}.cls-12{fill:url(#Dégradé_sans_nom_278);}.cls-13{clip-path:url(#clip-path);}.cls-14{fill:url(#Dégradé_sans_nom_11);}.cls-15{fill:url(#Dégradé_sans_nom_14);}.cls-16{opacity:0.3;fill:url(#Dégradé_sans_nom_14-2);}.cls-17{fill:url(#Dégradé_sans_nom_14-3);}.cls-18{fill:url(#Dégradé_sans_nom_7);}.cls-19{fill:#dbf8f7;}.cls-20{fill:#c3dddb;}.cls-21{fill:url(#Dégradé_sans_nom_12);}.cls-22{fill:url(#Dégradé_sans_nom_12-2);}</style><linearGradient id="Dégradé_sans_nom_233" y1="309.89" x2="902.37" y2="309.89" gradientUnits="userSpaceOnUse"><stop offset="0" stop-color="#2f8bd0"/><stop offset="1" stop-color="#17bcbf"/></linearGradient><linearGradient id="Dégradé_sans_nom_3" x1="216.78" y1="6116.07" x2="89.88" y2="6243.04" gradientTransform="matrix(1, 0, 0, -1, 0, 6339.48)" gradientUnits="userSpaceOnUse"><stop offset="0" stop-color="#7485de"/><stop offset="0.3" stop-color="#6da9dd"/><stop offset="0.77" stop-color="#64dddc"/><stop offset="1" stop-color="#60f1dc"/></linearGradient><linearGradient id="Dégradé_sans_nom_4" x1="153.44" y1="6131.28" x2="153.44" y2="6224.37" gradientTransform="matrix(1, 0, 0, -1, 0, 6339.48)" gradientUnits="userSpaceOnUse"><stop offset="0" stop-color="#80ffe1"/><stop offset="0.27" stop-color="#a5e1e7" stop-opacity="0.73"/><stop offset="1" stop-color="#85a5ff" stop-opacity="0"/></linearGradient><linearGradient id="Dégradé_sans_nom_5" x1="-1499.54" y1="3612.98" x2="-1594.7" y2="3517.82" gradientTransform="matrix(0.92, 0.39, -0.39, 0.92, 3540.54, -2582.34)" gradientUnits="userSpaceOnUse"><stop offset="0" stop-color="#ecb7a0"/><stop offset="0.61" stop-color="#f3df93"/><stop offset="1" stop-color="#f6f38d"/></linearGradient><linearGradient id="Dégradé_sans_nom_6" x1="-159.01" y1="3219.55" x2="-171.91" y2="3171.38" gradientTransform="translate(2613.88 -2487.58) rotate(33.18)" gradientUnits="userSpaceOnUse"><stop offset="0" stop-color="#ecb7a0"/><stop offset="0.32" stop-color="#eca88a"/><stop offset="0.34" stop-color="#ecab8a"/><stop offset="0.78" stop-color="#f3df8c"/><stop offset="1" stop-color="#f6f38d"/></linearGradient><linearGradient id="Dégradé_sans_nom_278" x1="223.14" y1="1225.58" x2="201.01" y2="1204.72" gradientTransform="translate(0 -956)" gradientUnits="userSpaceOnUse"><stop offset="0" stop-color="#8296fa"/><stop offset="0.3" stop-color="#7bbffa"/><stop offset="0.77" stop-color="#71faf8"/><stop offset="1" stop-color="#65fde7"/></linearGradient><clipPath id="clip-path"><path class="cls-1" d="M252.14,109.2c-31.95,21.11-43.38,11.22-72,29-38,23.64-28.4,48.27-69,91-41.41,43.6-65.09,32.43-90,70-22.5,33.94-26.83,80.54-14,118,9.19,26.83,26.37,46.28,98,96,81.15,56.32,121.72,84.48,151,94,94.26,30.65,113.37-20.51,259-12,113.3,6.62,140.76,39.85,213,16,65.79-21.72,103.84-69.36,116-85,12.64-16.24,76.73-102.63,53-192-5.77-21.74-9.4-16-79-123-47.49-73-47.37-78.09-64-92-36.73-30.74-52.95-19-136-57-58.78-26.92-59-36.62-101-49-27.27-8-64-18.42-110-10-12.06,2.21-57.45,11.71-98,47C279.87,75.68,282,89.49,252.14,109.2Z"/></clipPath><linearGradient id="Dégradé_sans_nom_11" x1="-174.18" y1="1830.83" x2="-272.76" y2="1732.25" gradientTransform="translate(719.46 -1542.83) rotate(-10.23)" gradientUnits="userSpaceOnUse"><stop offset="0" stop-color="#7891de"/><stop offset="0.22" stop-color="#72a9d8"/><stop offset="0.74" stop-color="#65ddcb"/><stop offset="1" stop-color="#60f1c6"/></linearGradient><linearGradient id="Dégradé_sans_nom_14" x1="-199.28" y1="1847.49" x2="-248.09" y2="1714.84" gradientTransform="translate(719.46 -1542.83) rotate(-10.23)" gradientUnits="userSpaceOnUse"><stop offset="0" stop-color="#7891de"/><stop offset="0.32" stop-color="#517fde"/><stop offset="0.54" stop-color="#57a9d5"/><stop offset="0.85" stop-color="#5dddca"/><stop offset="1" stop-color="#60f1c6"/></linearGradient><linearGradient id="Dégradé_sans_nom_14-2" x1="-209.85" y1="1818.03" x2="-236.75" y2="1744.9" xlink:href="#Dégradé_sans_nom_14"/><linearGradient id="Dégradé_sans_nom_14-3" x1="-215.24" y1="1812.53" x2="-231.76" y2="1750.87" xlink:href="#Dégradé_sans_nom_14"/><linearGradient id="Dégradé_sans_nom_7" x1="367.19" y1="1022.59" x2="307.71" y2="966.54" gradientTransform="translate(0 -956)" gradientUnits="userSpaceOnUse"><stop offset="0" stop-color="#c29bec"/><stop offset="0.15" stop-color="#c6aae9"/><stop offset="0.72" stop-color="#d4dedf"/><stop offset="1" stop-color="#daf2db"/></linearGradient><linearGradient id="Dégradé_sans_nom_12" x1="423.1" y1="88.77" x2="461.87" y2="88.77" gradientUnits="userSpaceOnUse"><stop offset="0" stop-color="#c1dce3"/><stop offset="0.34" stop-color="#adcbd8"/><stop offset="1" stop-color="#7ba2be"/></linearGradient><linearGradient id="Dégradé_sans_nom_12-2" x1="465.51" y1="79.77" x2="488.94" y2="79.77" xlink:href="#Dégradé_sans_nom_12"/></defs><title>jumbotron_background_pyramids_mediumFichier 4</title><g id="Calque_2" data-name="Calque 2"><g id="Calque_1-2" data-name="Calque 1"><path class="cls-2" d="M252.14,109.2c-31.95,21.11-43.38,11.22-72,29-38,23.64-28.4,48.27-69,91-41.41,43.6-65.09,32.43-90,70-22.5,33.94-26.83,80.54-14,118,9.19,26.83,26.37,46.28,98,96,81.15,56.32,121.72,84.48,151,94,94.26,30.65,113.37-20.51,259-12,113.3,6.62,140.76,39.85,213,16,65.79-21.72,103.84-69.36,116-85,12.64-16.24,76.73-102.63,53-192-5.77-21.74-9.4-16-79-123-47.49-73-47.37-78.09-64-92-36.73-30.74-52.95-19-136-57-58.78-26.92-59-36.62-101-49-27.27-8-64-18.42-110-10-12.06,2.21-57.45,11.71-98,47C279.87,75.68,282,89.49,252.14,109.2Z"/><path class="cls-3" d="M720.14,354.2c-112-3.43-117.89,17.45-247,23-224.78,9.67-298.47-49.69-436,2-12.59,4.74-24.43,9.92-35.51,15.35A131.63,131.63,0,0,0,7.14,417.2c9.19,26.83,26.37,46.28,98,96,81.15,56.32,121.72,84.48,151,94,94.26,30.65,113.37-20.51,259-12,113.3,6.62,140.76,39.85,213,16,65.79-21.72,103.84-69.36,116-85,10.53-13.53,56.74-75.72,58.18-147.77A912.18,912.18,0,0,0,720.14,354.2Z"/><polygon class="cls-4" points="688.43 544.49 601.38 506.59 649.67 487.68 688.43 544.49"/><polygon class="cls-4" points="606.89 497.89 463.83 435.6 543.19 404.53 606.89 497.89"/><polygon class="cls-5" points="507.54 439.38 607.13 338.5 607.13 496.9 507.54 439.38"/><polygon class="cls-6" points="706.73 439.38 607.13 338.5 607.13 496.9 706.73 439.38"/><polygon class="cls-1" points="675.85 409.06 671.83 404.99 606.92 442.48 606.81 442.42 542 404.99 537.98 409.06 606.92 448.88 675.85 409.06"/><polygon class="cls-1" points="658.53 391.51 654.51 387.44 606.92 414.93 606.81 414.87 559.32 387.44 555.3 391.51 606.92 421.33 658.53 391.51"/><polygon class="cls-1" points="671.52 404.67 667.5 400.6 606.92 435.6 606.81 435.53 546.33 400.6 542.31 404.67 606.92 441.99 671.52 404.67"/><polygon class="cls-1" points="680.18 413.44 676.16 409.37 606.92 449.37 606.81 449.31 537.67 409.37 533.65 413.44 606.92 455.76 680.18 413.44"/><polygon class="cls-1" points="662.86 395.9 658.84 391.83 606.92 421.82 606.81 421.76 554.99 391.83 550.97 395.9 606.92 428.21 662.86 395.9"/><polygon class="cls-1" points="667.19 400.29 663.17 396.22 606.92 428.71 606.81 428.65 550.66 396.22 546.64 400.29 606.92 435.1 667.19 400.29"/><polygon class="cls-1" points="684.51 417.83 680.49 413.76 606.92 456.26 606.81 456.2 533.34 413.76 529.32 417.83 606.92 462.65 684.51 417.83"/><polygon class="cls-1" points="688.84 422.22 684.82 418.15 606.92 463.14 606.81 463.08 529.01 418.15 524.99 422.22 606.92 469.54 688.84 422.22"/><polygon class="cls-1" points="701.83 435.38 697.82 431.31 606.92 483.81 606.81 483.74 516.02 431.31 512 435.38 606.92 490.2 701.83 435.38"/><polygon class="cls-1" points="606.81 490.63 511.69 435.69 507.67 439.76 606.92 497.08 706.16 439.76 702.14 435.69 606.92 490.69 606.81 490.63"/><polygon class="cls-1" points="697.5 430.99 693.49 426.92 606.92 476.92 606.81 476.86 520.35 426.92 516.33 430.99 606.92 483.31 697.5 430.99"/><polygon class="cls-1" points="693.17 426.6 689.15 422.53 606.92 470.03 606.81 469.97 524.68 422.53 520.66 426.6 606.92 476.42 693.17 426.6"/><polygon class="cls-1" points="649.87 382.74 645.85 378.67 606.92 401.16 606.81 401.1 567.98 378.67 563.96 382.74 606.92 407.55 649.87 382.74"/><polygon class="cls-1" points="615.23 347.65 611.21 343.58 606.92 346.06 606.81 346 602.62 343.58 598.61 347.65 606.92 352.45 615.23 347.65"/><polygon class="cls-1" points="628.22 360.81 624.2 356.74 606.92 366.72 606.81 366.66 589.63 356.74 585.62 360.81 606.92 373.12 628.22 360.81"/><polygon class="cls-1" points="623.89 356.43 619.87 352.35 606.92 359.84 606.81 359.77 593.96 352.35 589.95 356.43 606.92 366.23 623.89 356.43"/><polygon class="cls-1" points="619.56 352.04 615.54 347.97 606.92 352.95 606.81 352.89 598.29 347.97 594.27 352.04 606.92 359.34 619.56 352.04"/><polygon class="cls-1" points="610.9 343.27 606.92 339.23 602.93 343.27 606.92 345.57 610.9 343.27"/><polygon class="cls-1" points="636.88 369.58 632.86 365.51 606.92 380.5 606.81 380.44 580.97 365.51 576.95 369.58 606.92 386.89 636.88 369.58"/><polygon class="cls-1" points="645.54 378.36 641.52 374.29 606.92 394.27 606.81 394.21 572.31 374.29 568.29 378.36 606.92 400.66 645.54 378.36"/><polygon class="cls-1" points="632.55 365.2 628.53 361.13 606.92 373.61 606.81 373.55 585.3 361.13 581.28 365.2 606.92 380 632.55 365.2"/><polygon class="cls-1" points="641.21 373.97 637.19 369.9 606.92 387.38 606.81 387.32 576.64 369.9 572.62 373.97 606.92 393.78 641.21 373.97"/><polygon class="cls-1" points="654.2 387.13 650.18 383.06 606.92 408.05 606.81 407.99 563.65 383.06 559.63 387.13 606.92 414.44 654.2 387.13"/><polygon class="cls-7" points="606.92 490.2 512 435.38 511.69 435.69 606.81 490.63 606.92 490.69 702.14 435.69 701.83 435.38 606.92 490.2"/><polygon class="cls-7" points="606.92 483.81 697.82 431.31 697.5 430.99 606.92 483.31 516.33 430.99 516.02 431.31 606.81 483.74 606.92 483.81"/><polygon class="cls-7" points="606.92 476.92 693.49 426.92 693.17 426.6 606.92 476.42 520.66 426.6 520.35 426.92 606.81 476.86 606.92 476.92"/><polygon class="cls-7" points="606.92 470.03 689.15 422.53 688.84 422.22 606.92 469.54 524.99 422.22 524.68 422.53 606.81 469.97 606.92 470.03"/><polygon class="cls-7" points="606.92 463.14 684.82 418.15 684.51 417.83 606.92 462.65 529.32 417.83 529.01 418.15 606.81 463.08 606.92 463.14"/><polygon class="cls-7" points="606.92 456.26 680.49 413.76 680.18 413.44 606.92 455.76 533.65 413.44 533.34 413.76 606.81 456.2 606.92 456.26"/><polygon class="cls-7" points="606.92 449.37 676.16 409.37 675.85 409.06 606.92 448.88 537.98 409.06 537.67 409.37 606.81 449.31 606.92 449.37"/><polygon class="cls-7" points="606.92 442.48 671.83 404.99 671.52 404.67 606.92 441.99 542.31 404.67 542 404.99 606.81 442.42 606.92 442.48"/><polygon class="cls-7" points="606.92 435.6 667.5 400.6 667.19 400.29 606.92 435.1 546.64 400.29 546.33 400.6 606.81 435.53 606.92 435.6"/><polygon class="cls-7" points="606.92 428.71 663.17 396.22 662.86 395.9 606.92 428.21 550.97 395.9 550.66 396.22 606.81 428.65 606.92 428.71"/><polygon class="cls-7" points="606.92 421.82 658.84 391.83 658.53 391.51 606.92 421.33 555.3 391.51 554.99 391.83 606.81 421.76 606.92 421.82"/><polygon class="cls-7" points="606.92 414.93 654.51 387.44 654.2 387.13 606.92 414.44 559.63 387.13 559.32 387.44 606.81 414.87 606.92 414.93"/><polygon class="cls-7" points="606.92 408.05 650.18 383.06 649.87 382.74 606.92 407.55 563.96 382.74 563.65 383.06 606.81 407.99 606.92 408.05"/><polygon class="cls-7" points="606.92 401.16 645.85 378.67 645.54 378.36 606.92 400.66 568.29 378.36 567.98 378.67 606.81 401.1 606.92 401.16"/><polygon class="cls-7" points="606.92 394.27 641.52 374.29 641.21 373.97 606.92 393.78 572.62 373.97 572.31 374.29 606.81 394.21 606.92 394.27"/><polygon class="cls-7" points="606.92 387.38 637.19 369.9 636.88 369.58 606.92 386.89 576.95 369.58 576.64 369.9 606.81 387.32 606.92 387.38"/><polygon class="cls-7" points="606.92 380.5 632.86 365.51 632.55 365.2 606.92 380 581.28 365.2 580.97 365.51 606.81 380.44 606.92 380.5"/><polygon class="cls-7" points="606.92 373.61 628.53 361.13 628.22 360.81 606.92 373.12 585.62 360.81 585.3 361.13 606.81 373.55 606.92 373.61"/><polygon class="cls-7" points="606.92 366.72 624.2 356.74 623.89 356.43 606.92 366.23 589.95 356.43 589.63 356.74 606.81 366.66 606.92 366.72"/><polygon class="cls-7" points="606.92 359.84 619.87 352.35 619.56 352.04 606.92 359.34 594.27 352.04 593.96 352.35 606.81 359.77 606.92 359.84"/><polygon class="cls-7" points="606.92 352.95 615.54 347.97 615.23 347.65 606.92 352.45 598.61 347.65 598.29 347.97 606.81 352.89 606.92 352.95"/><polygon class="cls-7" points="606.92 346.06 611.21 343.58 610.9 343.27 606.92 345.57 602.93 343.27 602.62 343.58 606.81 346 606.92 346.06"/><polygon class="cls-4" points="383.77 598.89 162.36 502.48 285.19 454.39 383.77 598.89"/><polygon class="cls-5" points="230 508.33 384.14 352.2 384.14 597.36 230 508.33"/><polygon class="cls-6" points="538.28 508.33 384.14 352.2 384.14 597.36 538.28 508.33"/><polygon class="cls-1" points="490.5 461.41 484.28 455.11 383.81 513.14 383.65 513.04 283.34 455.11 277.12 461.41 383.81 523.03 490.5 461.41"/><polygon class="cls-1" points="463.69 434.25 457.48 427.95 383.81 470.5 383.65 470.4 310.15 427.95 303.93 434.25 383.81 480.39 463.69 434.25"/><polygon class="cls-1" points="483.8 454.62 477.58 448.32 383.81 502.48 383.65 502.38 290.04 448.32 283.82 454.62 383.81 512.37 483.8 454.62"/><polygon class="cls-1" points="497.2 468.19 490.98 461.89 383.81 523.8 383.65 523.7 276.64 461.89 270.42 468.19 383.81 533.69 497.2 468.19"/><polygon class="cls-1" points="470.4 441.04 464.18 434.74 383.81 481.16 383.65 481.06 303.45 434.74 297.23 441.04 383.81 491.05 470.4 441.04"/><polygon class="cls-1" points="477.1 447.83 470.88 441.53 383.81 491.82 383.65 491.72 296.75 441.53 290.53 447.83 383.81 501.71 477.1 447.83"/><polygon class="cls-1" points="503.9 474.98 497.69 468.68 383.81 534.46 383.65 534.36 269.94 468.68 263.72 474.98 383.81 544.35 503.9 474.98"/><polygon class="cls-1" points="510.61 481.77 504.39 475.47 383.81 545.11 383.65 545.02 263.24 475.47 257.02 481.77 383.81 555.01 510.61 481.77"/><polygon class="cls-1" points="530.71 502.14 524.49 495.84 383.81 577.09 383.65 577 243.13 495.84 236.91 502.14 383.81 586.98 530.71 502.14"/><polygon class="cls-1" points="383.65 587.65 236.43 502.63 230.21 508.93 383.81 597.64 537.41 508.93 531.19 502.63 383.81 587.75 383.65 587.65"/><polygon class="cls-1" points="524.01 495.35 517.79 489.05 383.81 566.43 383.65 566.34 249.83 489.05 243.61 495.35 383.81 576.32 524.01 495.35"/><polygon class="cls-1" points="517.31 488.56 511.09 482.26 383.81 555.77 383.65 555.68 256.54 482.26 250.32 488.56 383.81 565.66 517.31 488.56"/><polygon class="cls-1" points="450.29 420.68 444.07 414.38 383.81 449.18 383.65 449.08 323.55 414.38 317.33 420.68 383.81 459.07 450.29 420.68"/><polygon class="cls-1" points="396.68 366.37 390.46 360.07 383.81 363.91 383.65 363.81 377.17 360.07 370.95 366.37 383.81 373.8 396.68 366.37"/><polygon class="cls-1" points="416.78 386.73 410.56 380.43 383.81 395.88 383.65 395.79 357.06 380.43 350.84 386.73 383.81 405.78 416.78 386.73"/><polygon class="cls-1" points="410.08 379.94 403.86 373.65 383.81 385.23 383.65 385.13 363.76 373.65 357.54 379.94 383.81 395.12 410.08 379.94"/><polygon class="cls-1" points="403.38 373.16 397.16 366.86 383.81 374.57 383.65 374.47 370.46 366.86 364.25 373.16 383.81 384.46 403.38 373.16"/><polygon class="cls-1" points="389.98 359.58 383.81 353.34 377.65 359.58 383.81 363.14 389.98 359.58"/><polygon class="cls-1" points="430.19 400.31 423.97 394.01 383.81 417.2 383.65 417.11 343.66 394.01 337.44 400.31 383.81 427.1 430.19 400.31"/><polygon class="cls-1" points="443.59 413.89 437.37 407.59 383.81 438.52 383.65 438.43 330.25 407.59 324.04 413.89 383.81 448.41 443.59 413.89"/><polygon class="cls-1" points="423.48 393.52 417.26 387.22 383.81 406.54 383.65 406.45 350.36 387.22 344.14 393.52 383.81 416.44 423.48 393.52"/><polygon class="cls-1" points="436.89 407.1 430.67 400.8 383.81 427.86 383.65 427.77 336.96 400.8 330.74 407.1 383.81 437.75 436.89 407.1"/><polygon class="cls-1" points="456.99 427.46 450.77 421.16 383.81 459.84 383.65 459.74 316.85 421.16 310.63 427.46 383.81 469.73 456.99 427.46"/><polygon class="cls-7" points="383.81 586.98 236.91 502.14 236.43 502.63 383.65 587.65 383.81 587.75 531.19 502.63 530.71 502.14 383.81 586.98"/><polygon class="cls-7" points="383.81 577.09 524.49 495.84 524.01 495.35 383.81 576.32 243.61 495.35 243.13 495.84 383.65 577 383.81 577.09"/><polygon class="cls-7" points="383.81 566.43 517.79 489.05 517.31 488.56 383.81 565.66 250.32 488.56 249.83 489.05 383.65 566.34 383.81 566.43"/><polygon class="cls-7" points="383.81 555.77 511.09 482.26 510.61 481.77 383.81 555.01 257.02 481.77 256.54 482.26 383.65 555.68 383.81 555.77"/><polygon class="cls-7" points="383.81 545.11 504.39 475.47 503.9 474.98 383.81 544.35 263.72 474.98 263.24 475.47 383.65 545.02 383.81 545.11"/><polygon class="cls-7" points="383.81 534.46 497.69 468.68 497.2 468.19 383.81 533.69 270.42 468.19 269.94 468.68 383.65 534.36 383.81 534.46"/><polygon class="cls-7" points="383.81 523.8 490.98 461.89 490.5 461.41 383.81 523.03 277.12 461.41 276.64 461.89 383.65 523.7 383.81 523.8"/><polygon class="cls-7" points="383.81 513.14 484.28 455.11 483.8 454.62 383.81 512.37 283.82 454.62 283.34 455.11 383.65 513.04 383.81 513.14"/><polygon class="cls-7" points="383.81 502.48 477.58 448.32 477.1 447.83 383.81 501.71 290.53 447.83 290.04 448.32 383.65 502.38 383.81 502.48"/><polygon class="cls-7" points="383.81 491.82 470.88 441.53 470.4 441.04 383.81 491.05 297.23 441.04 296.75 441.53 383.65 491.72 383.81 491.82"/><polygon class="cls-7" points="383.81 481.16 464.18 434.74 463.69 434.25 383.81 480.39 303.93 434.25 303.45 434.74 383.65 481.06 383.81 481.16"/><polygon class="cls-7" points="383.81 470.5 457.48 427.95 456.99 427.46 383.81 469.73 310.63 427.46 310.15 427.95 383.65 470.4 383.81 470.5"/><polygon class="cls-7" points="383.81 459.84 450.77 421.16 450.29 420.68 383.81 459.07 317.33 420.68 316.85 421.16 383.65 459.74 383.81 459.84"/><polygon class="cls-7" points="383.81 449.18 444.07 414.38 443.59 413.89 383.81 448.41 324.04 413.89 323.55 414.38 383.65 449.08 383.81 449.18"/><polygon class="cls-7" points="383.81 438.52 437.37 407.59 436.89 407.1 383.81 437.75 330.74 407.1 330.25 407.59 383.65 438.43 383.81 438.52"/><polygon class="cls-7" points="383.81 427.86 430.67 400.8 430.19 400.31 383.81 427.1 337.44 400.31 336.96 400.8 383.65 427.77 383.81 427.86"/><polygon class="cls-7" points="383.81 417.2 423.97 394.01 423.48 393.52 383.81 416.44 344.14 393.52 343.66 394.01 383.65 417.11 383.81 417.2"/><polygon class="cls-7" points="383.81 406.54 417.26 387.22 416.78 386.73 383.81 405.78 350.84 386.73 350.36 387.22 383.65 406.45 383.81 406.54"/><polygon class="cls-7" points="383.81 395.88 410.56 380.43 410.08 379.94 383.81 395.12 357.54 379.94 357.06 380.43 383.65 395.79 383.81 395.88"/><polygon class="cls-7" points="383.81 385.23 403.86 373.65 403.38 373.16 383.81 384.46 364.25 373.16 363.76 373.65 383.65 385.13 383.81 385.23"/><polygon class="cls-7" points="383.81 374.57 397.16 366.86 396.68 366.37 383.81 373.8 370.95 366.37 370.46 366.86 383.65 374.47 383.81 374.57"/><polygon class="cls-7" points="383.81 363.91 390.46 360.07 389.98 359.58 383.81 363.14 377.65 359.58 377.17 360.07 383.65 363.81 383.81 363.91"/><polygon class="cls-5" points="627.77 509.48 688.43 448.04 688.43 544.51 627.77 509.48"/><polygon class="cls-6" points="749.08 509.48 688.43 448.04 688.43 544.51 749.08 509.48"/><polygon class="cls-1" points="730.28 491.01 727.83 488.53 688.3 511.37 688.23 511.33 648.76 488.53 646.32 491.01 688.3 515.26 730.28 491.01"/><polygon class="cls-1" points="719.73 480.33 717.28 477.85 688.3 494.59 688.23 494.55 659.31 477.85 656.86 480.33 688.3 498.48 719.73 480.33"/><polygon class="cls-1" points="727.64 488.34 725.2 485.86 688.3 507.18 688.23 507.14 651.4 485.86 648.95 488.34 688.3 511.07 727.64 488.34"/><polygon class="cls-1" points="732.92 493.68 730.47 491.2 688.3 515.56 688.23 515.53 646.13 491.2 643.68 493.68 688.3 519.46 732.92 493.68"/><polygon class="cls-1" points="722.37 483 719.92 480.52 688.3 498.79 688.23 498.75 656.67 480.52 654.23 483 688.3 502.68 722.37 483"/><polygon class="cls-1" points="725 485.67 722.56 483.19 688.3 502.98 688.23 502.94 654.04 483.19 651.59 485.67 688.3 506.87 725 485.67"/><polygon class="cls-1" points="735.55 496.36 733.11 493.88 688.3 519.76 688.23 519.72 643.49 493.88 641.04 496.36 688.3 523.65 735.55 496.36"/><polygon class="cls-1" points="738.19 499.03 735.74 496.55 688.3 523.95 688.23 523.91 640.85 496.55 638.4 499.03 688.3 527.85 738.19 499.03"/><polygon class="cls-1" points="746.1 507.04 743.65 504.56 688.3 536.53 688.23 536.5 632.94 504.56 630.49 507.04 688.3 540.43 746.1 507.04"/><polygon class="cls-1" points="688.23 540.69 630.3 507.23 627.86 509.71 688.3 544.62 748.74 509.71 746.29 507.23 688.3 540.73 688.23 540.69"/><polygon class="cls-1" points="743.47 504.37 741.02 501.89 688.3 532.34 688.23 532.3 635.58 501.89 633.13 504.37 688.3 536.23 743.47 504.37"/><polygon class="cls-1" points="740.83 501.7 738.38 499.22 688.3 528.15 688.23 528.11 638.21 499.22 635.77 501.7 688.3 532.04 740.83 501.7"/><polygon class="cls-1" points="714.46 474.99 712.01 472.51 688.3 486.2 688.23 486.17 664.59 472.51 662.14 474.99 688.3 490.1 714.46 474.99"/><polygon class="cls-1" points="693.36 453.62 690.91 451.14 688.3 452.65 688.23 452.61 685.68 451.14 683.24 453.62 688.3 456.54 693.36 453.62"/><polygon class="cls-1" points="701.27 461.63 698.82 459.15 688.3 465.23 688.23 465.19 677.77 459.15 675.32 461.63 688.3 469.12 701.27 461.63"/><polygon class="cls-1" points="698.63 458.96 696.19 456.48 688.3 461.04 688.23 461 680.41 456.48 677.96 458.96 688.3 464.93 698.63 458.96"/><polygon class="cls-1" points="696 456.29 693.55 453.81 688.3 456.84 688.23 456.8 683.04 453.81 680.6 456.29 688.3 460.73 696 456.29"/><polygon class="cls-1" points="690.72 450.94 688.3 448.49 685.87 450.94 688.3 452.35 690.72 450.94"/><polygon class="cls-1" points="706.54 466.97 704.1 464.49 688.3 473.62 688.23 473.58 672.5 464.49 670.05 466.97 688.3 477.51 706.54 466.97"/><polygon class="cls-1" points="711.82 472.31 709.37 469.83 688.3 482.01 688.23 481.97 667.22 469.83 664.77 472.31 688.3 485.9 711.82 472.31"/><polygon class="cls-1" points="703.91 464.3 701.46 461.82 688.3 469.43 688.23 469.39 675.13 461.82 672.69 464.3 688.3 473.32 703.91 464.3"/><polygon class="cls-1" points="709.18 469.64 706.74 467.16 688.3 477.81 688.23 477.78 669.86 467.16 667.41 469.64 688.3 481.71 709.18 469.64"/><polygon class="cls-1" points="717.09 477.66 714.65 475.18 688.3 490.4 688.23 490.36 661.95 475.18 659.5 477.66 688.3 494.29 717.09 477.66"/><polygon class="cls-7" points="688.3 540.43 630.49 507.04 630.3 507.23 688.23 540.69 688.3 540.73 746.29 507.23 746.1 507.04 688.3 540.43"/><polygon class="cls-7" points="688.3 536.53 743.65 504.56 743.47 504.37 688.3 536.23 633.13 504.37 632.94 504.56 688.23 536.5 688.3 536.53"/><polygon class="cls-7" points="688.3 532.34 741.02 501.89 740.83 501.7 688.3 532.04 635.77 501.7 635.58 501.89 688.23 532.3 688.3 532.34"/><polygon class="cls-7" points="688.3 528.15 738.38 499.22 738.19 499.03 688.3 527.85 638.4 499.03 638.21 499.22 688.23 528.11 688.3 528.15"/><polygon class="cls-7" points="688.3 523.95 735.74 496.55 735.55 496.36 688.3 523.65 641.04 496.36 640.85 496.55 688.23 523.91 688.3 523.95"/><polygon class="cls-7" points="688.3 519.76 733.11 493.88 732.92 493.68 688.3 519.46 643.68 493.68 643.49 493.88 688.23 519.72 688.3 519.76"/><polygon class="cls-7" points="688.3 515.56 730.47 491.2 730.28 491.01 688.3 515.26 646.32 491.01 646.13 491.2 688.23 515.53 688.3 515.56"/><polygon class="cls-7" points="688.3 511.37 727.83 488.53 727.64 488.34 688.3 511.07 648.95 488.34 648.76 488.53 688.23 511.33 688.3 511.37"/><polygon class="cls-7" points="688.3 507.18 725.2 485.86 725 485.67 688.3 506.87 651.59 485.67 651.4 485.86 688.23 507.14 688.3 507.18"/><polygon class="cls-7" points="688.3 502.98 722.56 483.19 722.37 483 688.3 502.68 654.23 483 654.04 483.19 688.23 502.94 688.3 502.98"/><polygon class="cls-7" points="688.3 498.79 719.92 480.52 719.73 480.33 688.3 498.48 656.86 480.33 656.67 480.52 688.23 498.75 688.3 498.79"/><polygon class="cls-7" points="688.3 494.59 717.28 477.85 717.09 477.66 688.3 494.29 659.5 477.66 659.31 477.85 688.23 494.55 688.3 494.59"/><polygon class="cls-7" points="688.3 490.4 714.65 475.18 714.46 474.99 688.3 490.1 662.14 474.99 661.95 475.18 688.23 490.36 688.3 490.4"/><polygon class="cls-7" points="688.3 486.2 712.01 472.51 711.82 472.31 688.3 485.9 664.77 472.31 664.59 472.51 688.23 486.17 688.3 486.2"/><polygon class="cls-7" points="688.3 482.01 709.37 469.83 709.18 469.64 688.3 481.71 667.41 469.64 667.22 469.83 688.23 481.97 688.3 482.01"/><polygon class="cls-7" points="688.3 477.81 706.74 467.16 706.54 466.97 688.3 477.51 670.05 466.97 669.86 467.16 688.23 477.78 688.3 477.81"/><polygon class="cls-7" points="688.3 473.62 704.1 464.49 703.91 464.3 688.3 473.32 672.69 464.3 672.5 464.49 688.23 473.58 688.3 473.62"/><polygon class="cls-7" points="688.3 469.43 701.46 461.82 701.27 461.63 688.3 469.12 675.32 461.63 675.13 461.82 688.23 469.39 688.3 469.43"/><polygon class="cls-7" points="688.3 465.23 698.82 459.15 698.63 458.96 688.3 464.93 677.96 458.96 677.77 459.15 688.23 465.19 688.3 465.23"/><polygon class="cls-7" points="688.3 461.04 696.19 456.48 696 456.29 688.3 460.73 680.6 456.29 680.41 456.48 688.23 461 688.3 461.04"/><polygon class="cls-7" points="688.3 456.84 693.55 453.81 693.36 453.62 688.3 456.54 683.24 453.62 683.04 453.81 688.23 456.8 688.3 456.84"/><polygon class="cls-7" points="688.3 452.65 690.91 451.14 690.72 450.94 688.3 452.35 685.87 450.94 685.68 451.14 688.23 452.61 688.3 452.65"/><polygon class="cls-4" points="255.14 451.51 182.04 419.68 222.59 403.8 255.14 451.51"/><polygon class="cls-5" points="204.2 422.11 255.14 370.51 255.14 451.53 204.2 422.11"/><polygon class="cls-6" points="306.08 422.11 255.14 370.51 255.14 451.53 306.08 422.11"/><polygon class="cls-1" points="290.29 406.6 288.24 404.52 255.03 423.69 254.98 423.66 221.83 404.52 219.78 406.6 255.03 426.96 290.29 406.6"/><polygon class="cls-1" points="281.43 397.63 279.38 395.54 255.03 409.6 254.98 409.57 230.69 395.54 228.63 397.63 255.03 412.87 281.43 397.63"/><polygon class="cls-1" points="288.08 404.36 286.02 402.27 255.03 420.17 254.98 420.14 224.05 402.27 221.99 404.36 255.03 423.44 288.08 404.36"/><polygon class="cls-1" points="292.51 408.84 290.45 406.76 255.03 427.22 254.98 427.19 219.62 406.76 217.56 408.84 255.03 430.49 292.51 408.84"/><polygon class="cls-1" points="283.65 399.87 281.59 397.79 255.03 413.13 254.98 413.1 228.47 397.79 226.42 399.87 255.03 416.39 283.65 399.87"/><polygon class="cls-1" points="285.86 402.11 283.81 400.03 255.03 416.65 254.98 416.62 226.26 400.03 224.21 402.11 255.03 419.92 285.86 402.11"/><polygon class="cls-1" points="294.72 411.08 292.67 409 255.03 430.74 254.98 430.71 217.4 409 215.35 411.08 255.03 434.01 294.72 411.08"/><polygon class="cls-1" points="296.94 413.33 294.88 411.25 255.03 434.26 254.98 434.23 215.19 411.25 213.13 413.33 255.03 437.53 296.94 413.33"/><polygon class="cls-1" points="303.58 420.06 301.53 417.98 255.03 444.83 254.98 444.8 208.54 417.98 206.49 420.06 255.03 448.1 303.58 420.06"/><polygon class="cls-1" points="254.98 448.32 206.33 420.22 204.27 422.3 255.03 451.62 305.8 422.3 303.74 420.22 255.03 448.35 254.98 448.32"/><polygon class="cls-1" points="301.37 417.82 299.31 415.73 255.03 441.31 254.98 441.28 210.76 415.73 208.7 417.82 255.03 444.58 301.37 417.82"/><polygon class="cls-1" points="299.15 415.57 297.1 413.49 255.03 437.79 254.98 437.75 212.97 413.49 210.92 415.57 255.03 441.05 299.15 415.57"/><polygon class="cls-1" points="277 393.14 274.95 391.06 255.03 402.56 254.98 402.53 235.12 391.06 233.06 393.14 255.03 405.83 277 393.14"/><polygon class="cls-1" points="259.29 375.19 257.23 373.11 255.03 374.38 254.98 374.35 252.84 373.11 250.78 375.19 255.03 377.65 259.29 375.19"/><polygon class="cls-1" points="265.93 381.92 263.88 379.84 255.03 384.94 254.98 384.91 246.19 379.84 244.14 381.92 255.03 388.21 265.93 381.92"/><polygon class="cls-1" points="263.72 379.68 261.66 377.6 255.03 381.42 254.98 381.39 248.41 377.6 246.35 379.68 255.03 384.69 263.72 379.68"/><polygon class="cls-1" points="261.5 377.43 259.45 375.35 255.03 377.9 254.98 377.87 250.62 375.35 248.57 377.43 255.03 381.17 261.5 377.43"/><polygon class="cls-1" points="257.07 372.95 255.03 370.88 253 372.95 255.03 374.12 257.07 372.95"/><polygon class="cls-1" points="270.36 386.41 268.31 384.32 255.03 391.99 254.98 391.96 241.76 384.32 239.71 386.41 255.03 395.26 270.36 386.41"/><polygon class="cls-1" points="274.79 390.89 272.73 388.81 255.03 399.04 254.98 399 237.34 388.81 235.28 390.89 255.03 402.31 274.79 390.89"/><polygon class="cls-1" points="268.14 384.16 266.09 382.08 255.03 388.47 254.98 388.44 243.98 382.08 241.92 384.16 255.03 391.74 268.14 384.16"/><polygon class="cls-1" points="272.57 388.65 270.52 386.57 255.03 395.51 254.98 395.48 239.55 386.57 237.49 388.65 255.03 398.78 272.57 388.65"/><polygon class="cls-1" points="279.22 395.38 277.16 393.3 255.03 406.08 254.98 406.05 232.91 393.3 230.85 395.38 255.03 409.35 279.22 395.38"/><polygon class="cls-7" points="255.03 448.1 206.49 420.06 206.33 420.22 254.98 448.32 255.03 448.35 303.74 420.22 303.58 420.06 255.03 448.1"/><polygon class="cls-7" points="255.03 444.83 301.53 417.98 301.37 417.82 255.03 444.58 208.7 417.82 208.54 417.98 254.98 444.8 255.03 444.83"/><polygon class="cls-7" points="255.03 441.31 299.31 415.73 299.15 415.57 255.03 441.05 210.92 415.57 210.76 415.73 254.98 441.28 255.03 441.31"/><polygon class="cls-7" points="255.03 437.79 297.1 413.49 296.94 413.33 255.03 437.53 213.13 413.33 212.97 413.49 254.98 437.75 255.03 437.79"/><polygon class="cls-7" points="255.03 434.26 294.88 411.25 294.72 411.08 255.03 434.01 215.35 411.08 215.19 411.25 254.98 434.23 255.03 434.26"/><polygon class="cls-7" points="255.03 430.74 292.67 409 292.51 408.84 255.03 430.49 217.56 408.84 217.4 409 254.98 430.71 255.03 430.74"/><polygon class="cls-7" points="255.03 427.22 290.45 406.76 290.29 406.6 255.03 426.96 219.78 406.6 219.62 406.76 254.98 427.19 255.03 427.22"/><polygon class="cls-7" points="255.03 423.69 288.24 404.52 288.08 404.36 255.03 423.44 221.99 404.36 221.83 404.52 254.98 423.66 255.03 423.69"/><polygon class="cls-7" points="255.03 420.17 286.02 402.27 285.86 402.11 255.03 419.92 224.21 402.11 224.05 402.27 254.98 420.14 255.03 420.17"/><polygon class="cls-7" points="255.03 416.65 283.81 400.03 283.65 399.87 255.03 416.39 226.42 399.87 226.26 400.03 254.98 416.62 255.03 416.65"/><polygon class="cls-7" points="255.03 413.13 281.59 397.79 281.43 397.63 255.03 412.87 228.63 397.63 228.47 397.79 254.98 413.1 255.03 413.13"/><polygon class="cls-7" points="255.03 409.6 279.38 395.54 279.22 395.38 255.03 409.35 230.85 395.38 230.69 395.54 254.98 409.57 255.03 409.6"/><polygon class="cls-7" points="255.03 406.08 277.16 393.3 277 393.14 255.03 405.83 233.06 393.14 232.91 393.3 254.98 406.05 255.03 406.08"/><polygon class="cls-7" points="255.03 402.56 274.95 391.06 274.79 390.89 255.03 402.31 235.28 390.89 235.12 391.06 254.98 402.53 255.03 402.56"/><polygon class="cls-7" points="255.03 399.04 272.73 388.81 272.57 388.65 255.03 398.78 237.49 388.65 237.34 388.81 254.98 399 255.03 399.04"/><polygon class="cls-7" points="255.03 395.51 270.52 386.57 270.36 386.41 255.03 395.26 239.71 386.41 239.55 386.57 254.98 395.48 255.03 395.51"/><polygon class="cls-7" points="255.03 391.99 268.31 384.32 268.14 384.16 255.03 391.74 241.92 384.16 241.76 384.32 254.98 391.96 255.03 391.99"/><polygon class="cls-7" points="255.03 388.47 266.09 382.08 265.93 381.92 255.03 388.21 244.14 381.92 243.98 382.08 254.98 388.44 255.03 388.47"/><polygon class="cls-7" points="255.03 384.94 263.88 379.84 263.72 379.68 255.03 384.69 246.35 379.68 246.19 379.84 254.98 384.91 255.03 384.94"/><polygon class="cls-7" points="255.03 381.42 261.66 377.6 261.5 377.43 255.03 381.17 248.57 377.43 248.41 377.6 254.98 381.39 255.03 381.42"/><polygon class="cls-7" points="255.03 377.9 259.45 375.35 259.29 375.19 255.03 377.65 250.78 375.19 250.62 375.35 254.98 377.87 255.03 377.9"/><polygon class="cls-7" points="255.03 374.38 257.23 373.11 257.07 372.95 255.03 374.12 253 372.95 252.84 373.11 254.98 374.35 255.03 374.38"/><path class="cls-8" d="M153.34,249.7a89.75,89.75,0,1,0-89.8-89.8,89.71,89.71,0,0,0,89.8,89.8Z"/><path class="cls-9" d="M249.94,162.2c-2.2-1.1-4.4-2.3-6.8-3.4v3.7c1.8.9,3.5,1.8,5.2,2.7,21.2,11.2,32.8,22.2,30.9,29.3s-17.3,11-41.3,10.4c-25.5-.5-58.1-5.7-92.1-14.6-75.3-19.6-122-47.6-118.4-61.5,1.7-6.7,15.3-10.5,37.3-10.5,2.9,0,5.9,0,9.1.2.6-1,.7-2.3,1.4-3.1C47.34,114,27,117.5,24.34,128c-5.2,19.9,57.3,49,120.8,65.5,34.2,8.9,67.1,14.1,92.9,14.7h4.4c17.7,0,37.4-2.4,40.1-13C285.44,183.8,266.44,171,249.94,162.2Z"/><circle class="cls-10" cx="726.94" cy="95.1" r="67.3"/><path class="cls-11" d="M812.44,131.3c2.8-6.5-4.6-16.7-18.8-27.6l-.3,2.4c-.1.6-.2,1.1-.3,1.7-.2.8-.3,1.5-.5,2.3,6.2,6.3,9,11.9,7.3,16-4.7,11-41.1,6.1-81.3-11S649.34,75.3,654,64.3c1.7-4,7.7-5.9,16.5-5.9.4-.7.9-1.3,1.3-1.9s.7-.9,1-1.4c.5-.6,1-1.3,1.5-1.9-17.7-2.5-30.1-.8-32.9,5.8-5.5,12.9,28.4,39.5,75.6,59.5S807,144.2,812.44,131.3Z"/><circle class="cls-12" cx="212.44" cy="259.5" r="14.7"/><g class="cls-13"><circle class="cls-14" cx="815.94" cy="250.07" r="69.7"/><path class="cls-15" d="M878.74,219.67a22.88,22.88,0,0,1,1,2.3c14.7,1.8,24.2,5.9,25.3,12.1,2.4,13.4-35.5,31.5-84.8,40.4s-91.1,5.2-93.5-8.2c-1.1-6.2,6.3-13.4,19.5-20.2a21.05,21.05,0,0,1,.2-2.5c-16.8,7.9-26.6,16.4-25.3,23.7,2.6,14.3,47.1,18.2,99.4,8.7s92.7-28.7,90.1-42.9C909.44,225.77,897.24,221.17,878.74,219.67Z"/><path class="cls-16" d="M879.84,221.87c.2.5.5,1.1.7,1.6,12.2,1.9,20,5.7,20.9,11.1,2.3,12.9-34,30.2-81.2,38.7s-87.3,5-89.6-7.9c-1-5.4,5-11.7,15.7-17.7a10.87,10.87,0,0,1,.1-1.8c-13.2,6.8-20.6,14-19.5,20.2,2.4,13.4,44.3,17.1,93.6,8.2s87.2-27,84.8-40.4C904,227.77,894.54,223.67,879.84,221.87Z"/><path class="cls-17" d="M880.44,223.57c.3.7.6,1.5.9,2.3,9,2,14.6,5.2,15.4,9.7,2.2,12.2-32.2,28.6-76.8,36.6s-82.6,4.7-84.8-7.5c-.8-4.5,3.3-9.5,11-14.5v-2.4c-10.8,6-16.7,12.3-15.7,17.7,2.3,12.9,42.5,16.4,89.6,7.9s83.6-25.9,81.2-38.7C900.44,229.27,892.74,225.47,880.44,223.57Z"/><circle class="cls-18" cx="338.44" cy="39.5" r="39.5"/></g><rect class="cls-1" x="411.67" y="286.9" width="9.72" height="9.72"/><path class="cls-19" d="M416.71,287l1.9,2.64.05.05,2.63,1.9a.21.21,0,0,1,0,.36l-2.63,1.91s0,0-.05,0l-1.9,2.63a.22.22,0,0,1-.36,0l-1.91-2.63a.12.12,0,0,0-.05,0l-2.63-1.91a.22.22,0,0,1,0-.36l2.63-1.9.05-.05,1.91-2.64A.23.23,0,0,1,416.71,287Z"/><rect class="cls-1" x="525.18" y="94.36" width="11.46" height="11.46"/><path class="cls-19" d="M531.12,94.47l2.25,3.1.06.06,3.1,2.25a.25.25,0,0,1,0,.42l-3.1,2.25-.06.06-2.25,3.1a.25.25,0,0,1-.42,0l-2.25-3.1-.06-.06-3.1-2.25a.25.25,0,0,1,0-.42l3.1-2.25.06-.06,2.25-3.1A.25.25,0,0,1,531.12,94.47Z"/><rect class="cls-1" x="844.43" y="323.84" width="4.1" height="4.1"/><path class="cls-19" d="M846.56,323.88l.81,1.11,0,0,1.11.81a.09.09,0,0,1,0,.15l-1.11.8,0,0-.81,1.11a.09.09,0,0,1-.15,0l-.81-1.11,0,0-1.11-.8a.09.09,0,0,1,0-.15l1.11-.81,0,0,.81-1.11A.09.09,0,0,1,846.56,323.88Z"/><rect class="cls-1" x="52.78" y="296.2" width="4.42" height="4.42"/><path class="cls-19" d="M55.08,296.25l.86,1.19,0,0,1.2.86a.12.12,0,0,1,0,.17l-1.2.87,0,0-.86,1.2a.12.12,0,0,1-.17,0l-.86-1.2,0,0-1.19-.87a.1.1,0,0,1,0-.17l1.19-.86,0,0,.86-1.19A.1.1,0,0,1,55.08,296.25Z"/><rect class="cls-1" x="281.13" y="115.69" width="1.19" height="1.19"/><circle class="cls-20" cx="281.72" cy="116.29" r="0.59"/><rect class="cls-1" x="398.46" y="166.65" width="3.45" height="3.45"/><circle class="cls-20" cx="400.19" cy="168.37" r="1.72"/><rect class="cls-1" x="479.26" y="52.38" width="1.18" height="1.18"/><circle class="cls-20" cx="479.85" cy="52.97" r="0.59"/><rect class="cls-1" x="626.78" y="189.69" width="2.3" height="2.3"/><circle class="cls-20" cx="627.93" cy="190.84" r="1.15"/><rect class="cls-1" x="710.48" y="183.51" width="2.39" height="2.39"/><circle class="cls-20" cx="711.68" cy="184.71" r="1.2"/><rect class="cls-1" x="639.18" y="279.7" width="2.01" height="2.01"/><circle class="cls-20" cx="640.19" cy="280.71" r="1.01"/><rect class="cls-1" x="513.97" y="214.75" width="1.2" height="1.2"/><circle class="cls-20" cx="514.57" cy="215.35" r="0.6"/><rect class="cls-1" x="313.46" y="281.81" width="3.92" height="3.92"/><circle class="cls-20" cx="315.42" cy="283.77" r="1.96"/><rect class="cls-1" x="158.53" y="330.12" width="3.3" height="3.3"/><circle class="cls-20" cx="160.19" cy="331.77" r="1.65"/><rect class="cls-1" x="26.25" y="344.9" width="2.35" height="2.35"/><circle class="cls-20" cx="27.42" cy="346.07" r="1.17"/><rect class="cls-1" x="175.11" y="290.53" width="2.84" height="2.84"/><circle class="cls-20" cx="176.53" cy="291.94" r="1.42"/><rect class="cls-1" x="423.68" y="46.85" width="2.03" height="2.03"/><circle class="cls-20" cx="424.7" cy="47.86" r="1.01"/><rect class="cls-1" x="870.51" y="357.84" width="3.02" height="3.02"/><circle class="cls-20" cx="872.02" cy="359.35" r="1.51"/><rect class="cls-1" x="765.88" y="163.34" width="1.89" height="1.89"/><circle class="cls-20" cx="766.83" cy="164.29" r="0.94"/><rect class="cls-1" x="328.64" y="347.03" width="2.16" height="2.16"/><circle class="cls-20" cx="329.72" cy="348.11" r="1.08"/><path class="cls-21" d="M423.57,104.93l36.74-34.84a.14.14,0,0,1,.2,0,.14.14,0,0,1,0,.19L425.67,107a1.49,1.49,0,1,1-2.16-2Z"/><path class="cls-22" d="M465.79,89.54,488,68.48a.08.08,0,1,1,.12.12L467.06,90.81a.9.9,0,0,1-1.27,0,.91.91,0,0,1,0-1.28Z"/></g></g></svg>