<svg xmlns="http://www.w3.org/2000/svg" xmlns:xlink="http://www.w3.org/1999/xlink" viewBox="0 0 522.53 649.03"><defs><style>.cls-1{fill:#775638;}.cls-2{fill:#af843f;}.cls-3{fill:#663a24;}.cls-4{fill:#bfd06c;}.cls-5{fill:#776654;}.cls-6{fill:#e7bfcb;}.cls-7{fill:#e7adbe;}.cls-8{fill:#8cc642;}.cls-9{fill:#b8b982;}.cls-10{fill:#d9e0c8;}.cls-11{fill:#d0bc9b;}.cls-12{fill:#a9947c;}.cls-13{fill:#8c8c64;}.cls-14{fill:#9b646a;}.cls-15{fill:#c87e84;}.cls-16{fill:#f7a0a5;}.cls-17{fill:#df97a3;}.cls-18{fill:#bc7981;}.cls-19{fill:#f8a5ac;}.cls-20{fill:#fbacb7;}.cls-21{fill:#72673b;}.cls-22{fill:url(#Dégradé_sans_nom_2);}</style><linearGradient id="Dégradé_sans_nom_2" x1="201.67" y1="333.67" x2="201.67" y2="275.44" gradientUnits="userSpaceOnUse"><stop offset="0" stop-color="#72673b"/><stop offset="1"/></linearGradient></defs><title>jumbotron_pagodaFichier 8</title><g id="Calque_2" data-name="Calque 2"><g id="Calque_1-2" data-name="Calque 1"><path class="cls-1" d="M1.39,327l16.73,94.4,25.16,24.18,11.6,48.48,63.87,38.72s15.87,43,16.85,48.48,35.17,44.45,35.17,44.45L212.91,649l67.41-38.72,48.12-9.64,67.29-38.84,33.46,19.42,83.9-125.91,9.44-159.86Z"/><path class="cls-2" d="M9.74,373l36.59,43.65,5.37,24.18,14,27.47,19.54,30.66L62.08,484.4l-7.2,9.65q-5.81-24.24-11.6-48.48L18.12,421.39Z"/><path class="cls-2" d="M164.13,618l-3.37-36.78-42-48.48s15.87,43,16.85,48.48C136.3,585.19,154.13,606.39,164.13,618Z"/><path class="cls-3" d="M461.34,299.18l-107.5,98s1.47,16.35,3.31,37.28l-263.52-8,58.71,33.9,29.08,16.4,0,9.72s29.55-1.1,31.63,0a43.61,43.61,0,0,0,7,.75l-28.86,8.65-8.31,11.24s-13.8,5.62-13.8,6.35,39.69,4.76,39.69,4.76l35.5-4.8,33.87,9.69,14.66,10.36-6.23,4.17-12.22,47.63-46.4,25L213,649l67.29-38.72,48.12-9.64L355,585.32h0l7.93-4.58,2-1.13h0l30.82-17.78,33.46,19.42,83.9-125.91,9.44-159.86Z"/><path class="cls-4" d="M446.15,416.41c101.78-58.72,101.86-154.87.17-213.68s-268.16-58.81-369.94,0-101.85,155-.16,213.68S344.37,475.12,446.15,416.41Z"/><path class="cls-5" d="M210.78,96.59a1.71,1.71,0,0,0-2.07,1.26,62.85,62.85,0,0,1-29.4,39.65,70.72,70.72,0,0,1-11.24,5.39,58.41,58.41,0,0,1-5.89,1.88l-.74.21-.75.17-1.5.36c-1,.21-2,.41-3,.58a66.78,66.78,0,0,1-18.18.57c-1.49-3.64-2.92-7-3.76-9.87a20.87,20.87,0,0,1-.88-4,12.52,12.52,0,0,1,.11-3.61,15.63,15.63,0,0,1,.49-1.9,14.49,14.49,0,0,1,.7-1.79,12.14,12.14,0,0,1,2.11-3.11,24.41,24.41,0,0,1,3.67-3.12c1.48-1.08,3.22-2.21,5-3.46s3.65-2.61,5.43-4.13a48.9,48.9,0,0,0,12.68-16.5,56.2,56.2,0,0,0,4.2-12.75,79.15,79.15,0,0,0,1.46-12.9c0-2.13.07-4.26-.06-6.37-.06-1.06-.08-2.11-.16-3.16l-.28-3.14-.16-1.56-.21-1.56-.42-3.1c-.33-2.06-.73-4.1-1.08-6.14a1.71,1.71,0,0,0-3.4.32v.09c0,2,.11,4,.11,6.06l-.05,3,0,1.51-.09,1.5-.17,3c-.07,1-.2,2-.29,3-.17,2-.53,3.92-.81,5.87a69.72,69.72,0,0,1-3,11.19,45.32,45.32,0,0,1-5,9.94,38.29,38.29,0,0,1-7,8,43.75,43.75,0,0,1-9,5.75c-1.7.87-3.54,1.73-5.54,2.79a40.13,40.13,0,0,0-6.29,4,29.16,29.16,0,0,0-3.1,2.83,30.15,30.15,0,0,0-2.72,3.35,33.18,33.18,0,0,0-3.81,7.47,30.58,30.58,0,0,0-1.71,8.48,38.89,38.89,0,0,0,.44,8.13c.11.76.25,1.49.39,2.22-1.84-2-3.79-3.87-5.81-5.67l-2-1.72c-.68-.57-1.41-1.09-2.11-1.63-1.38-1.11-2.89-2.06-4.35-3.06a67.16,67.16,0,0,0-9.4-5,95.27,95.27,0,0,0-9.7-3.45c-1.58-.48-3.06-1-4.5-1.47-.7-.27-1.4-.53-2.08-.82l-1-.46c-.16-.08-.33-.14-.49-.23l-.48-.25-.94-.52c-.32-.17-.61-.38-.91-.57s-.61-.38-.91-.59l-.86-.66c-.28-.23-.59-.42-.85-.68l-.82-.74c-.27-.25-.57-.47-.82-.75l-.77-.8a32.28,32.28,0,0,1-5.24-7.37,49.52,49.52,0,0,1-5.1-18h0a1.72,1.72,0,0,0-1.71-1.54,1.73,1.73,0,0,0-1.71,1.73c0,1.69.09,3.37.22,5.06s.33,3.39.63,5.07a47.55,47.55,0,0,0,2.81,10A38.11,38.11,0,0,0,62.11,118L63,119c.27.35.59.67.89,1l.92,1c.3.34.66.63,1,1l1,.94c.35.31.72.59,1.08.88s.72.58,1.1.85l1.15.78.57.39.59.35,1.19.69c.79.44,1.59.84,2.39,1.24,1.59.75,3.18,1.44,4.69,2.07a85.37,85.37,0,0,1,8.53,4,56.56,56.56,0,0,1,7.52,5c1.16,1,2.36,1.9,3.44,3,.55.52,1.12,1,1.65,1.56l1.57,1.62a65,65,0,0,1,5.7,7,69.69,69.69,0,0,1,4.69,7.7,63.8,63.8,0,0,1,3.56,8.14c.25.67.44,1.39.65,2.09l.63,2.1.5,2.13c.16.71.35,1.41.45,2.14l.37,2.15c.07.36.1.72.14,1.08L119,181c.2,1.43.25,2.89.34,4.34,0,.72,0,1.46,0,2.18s0,1.45,0,2.18l-.09,2.18L119.1,194A69.43,69.43,0,0,1,115.18,211c-.1.29-.2.6-.28.91a9.51,9.51,0,0,0-.27,3.12.49.49,0,0,0,0,.11l-.26.63a2.49,2.49,0,0,0-.22.65,2.07,2.07,0,0,0,.61,1.66l1.67,2A23,23,0,0,0,141,227.13a2.5,2.5,0,0,0,1.58-1.26,4.24,4.24,0,0,0,.25-.81l.22-.82c.31-1.09.56-2.2.82-3.31.54-2.21,1-4.46,1.42-6.69.81-4.51,1.42-9.06,1.78-13.65A111.71,111.71,0,0,0,145.92,173c-.19-1.14-.43-2.27-.64-3.4s-.48-2.25-.76-3.37c-.53-2.23-1.14-4.44-1.81-6.61l-.42-1.32a77.08,77.08,0,0,0,16-2.36c1.14-.3,2.28-.62,3.41-1l1.68-.55.84-.28.83-.3a68.41,68.41,0,0,0,6.5-2.7,78.35,78.35,0,0,0,12.05-7.06,72.39,72.39,0,0,0,10.5-9.12A70.9,70.9,0,0,0,202.6,124a68.34,68.34,0,0,0,9.47-25.49A1.72,1.72,0,0,0,210.78,96.59Z"/><circle class="cls-6" cx="62.11" cy="93.74" r="26.02"/><path class="cls-7" d="M43.32,111.74A26,26,0,1,0,80.11,75Z"/><circle class="cls-6" cx="210.81" cy="97.26" r="26.02"/><path class="cls-7" d="M192,115.26a26,26,0,1,0,36.79-36.79Z"/><circle class="cls-6" cx="116.11" cy="80.63" r="35.81"/><path class="cls-7" d="M90.26,105.4a35.8,35.8,0,1,0,50.62-50.62Z"/><circle class="cls-6" cx="155.04" cy="58.13" r="24.85"/><path class="cls-7" d="M137.1,75.32a24.85,24.85,0,1,0,35.14-35.13Z"/><circle class="cls-6" cx="156.02" cy="90.02" r="35.81"/><path class="cls-7" d="M130.17,114.79A35.81,35.81,0,1,0,180.8,64.17Z"/><path class="cls-8" d="M446.32,202.73c-26.31-15.21-56.95-26.49-89.68-33.83L335.7,190l-74.19,202.3h8.31l50.31-29.06,46.53,7.81L482,390.57C546.07,332.23,534.18,253.54,446.32,202.73Z"/><polygon class="cls-9" points="445.98 281.01 261.45 387.5 76.8 281.01 76.8 285.89 76.92 285.89 261.57 392.38 446.1 285.89 446.1 281.01 445.98 281.01"/><polygon class="cls-10" points="395.54 193.81 261.45 116.26 127.24 193.81 261.33 271.24 395.54 193.81"/><polygon class="cls-10" points="445.98 281.13 261.45 174.51 76.8 281.13 143.96 319.86 139.75 322.25 190.11 351.29 194.28 348.88 261.45 387.62 445.98 281.13"/><polygon class="cls-10" points="139.8 324.62 135.6 327.01 185.96 356.06 190.13 353.64 139.8 324.62"/><polygon class="cls-9" points="190.13 351.23 190.13 353.55 139.69 324.61 139.69 322.16 190.13 351.23"/><polygon class="cls-9" points="185.98 356.11 185.98 358.43 135.54 329.49 135.54 327.05 185.98 356.11"/><path class="cls-11" d="M261.33,193.81l-67-38.73v38.73l67.17,38.71,67.05-38.71V155.15Z"/><path class="cls-12" d="M261.27,232.42l.18.1,67-38.67V155.19l-67.11,38.62-.06,0Z"/><polygon class="cls-13" points="261.51 227.82 328.69 188.92 328.44 155.19 395.73 193.87 311.94 242.21 261.51 227.82"/><polygon class="cls-14" points="366.17 191.61 366.05 172.19 362.31 174.34 362.31 193.84 366.17 191.61"/><polygon class="cls-14" points="349.3 201.38 349.18 181.97 345.44 184.11 345.44 203.61 349.3 201.38"/><polygon class="cls-14" points="332.55 211.03 332.43 191.61 328.69 193.75 328.69 213.26 332.55 211.03"/><polygon class="cls-14" points="315.8 220.68 315.68 201.26 311.94 203.4 311.94 222.9 315.8 220.68"/><polygon class="cls-14" points="298.93 230.33 298.81 210.91 295.07 213.05 295.07 232.55 298.93 230.33"/><polygon class="cls-14" points="332.4 172.19 328.5 174.39 328.5 155.1 332.4 157.3 332.4 172.19"/><polygon class="cls-14" points="349.14 181.97 345.23 184.16 345.23 164.87 349.14 167.07 349.14 181.97"/><polygon class="cls-15" points="214.92 220.68 211.01 222.88 211.01 203.58 214.92 205.78 214.92 220.68"/><polygon class="cls-15" points="231.78 230.33 227.87 232.52 227.87 213.23 231.78 215.43 231.78 230.33"/><polygon class="cls-15" points="248.5 240.1 244.6 242.29 244.6 223 248.5 225.2 248.5 240.1"/><path class="cls-15" d="M265.36,249.74l-3.91,2.2V232.65l3.91-2.2Z"/><polygon class="cls-15" points="198.19 211.03 194.28 213.23 194.28 193.93 198.19 196.13 198.19 211.03"/><polygon class="cls-15" points="181.46 201.38 177.55 203.58 177.55 184.28 181.46 186.48 181.46 201.38"/><polygon class="cls-15" points="164.61 191.61 160.7 193.81 160.7 174.51 164.61 176.71 164.61 191.61"/><polygon class="cls-15" points="282.18 240.1 282.06 220.68 278.32 222.82 278.32 242.32 282.18 240.1"/><polygon class="cls-15" points="181.43 181.97 181.3 162.55 177.57 164.69 177.57 184.19 181.43 181.97"/><polygon class="cls-16" points="156.79 191.61 156.91 172.19 160.64 174.34 160.64 193.84 156.79 191.61"/><polygon class="cls-16" points="173.64 201.38 173.77 181.97 177.5 184.11 177.5 203.61 173.64 201.38"/><polygon class="cls-16" points="190.38 211.03 190.5 191.61 194.23 193.75 194.23 213.26 190.38 211.03"/><polygon class="cls-16" points="207.1 220.68 207.23 201.26 210.96 203.4 210.96 222.9 207.1 220.68"/><polygon class="cls-16" points="223.96 230.33 224.08 210.91 227.81 213.05 227.81 232.55 223.96 230.33"/><polygon class="cls-16" points="240.69 240.1 240.81 220.68 244.54 222.82 244.54 242.32 240.69 240.1"/><polygon class="cls-16" points="257.54 249.74 257.67 230.33 261.39 232.47 261.39 251.97 257.54 249.74"/><polygon class="cls-16" points="274.35 240.1 278.27 242.29 278.27 223 274.35 225.2 274.35 240.1"/><polygon class="cls-16" points="190.35 172.19 194.26 174.39 194.26 155.1 190.35 157.3 190.35 172.19"/><polygon class="cls-16" points="173.6 181.97 177.51 184.16 177.51 164.87 173.6 167.07 173.6 181.97"/><polygon class="cls-15" points="341.32 181.97 341.44 162.55 345.17 164.69 345.17 184.19 341.32 181.97"/><polygon class="cls-15" points="307.98 220.68 311.89 222.88 311.89 203.58 307.98 205.78 307.98 220.68"/><polygon class="cls-15" points="291.1 230.33 295.02 232.52 295.02 213.23 291.1 215.43 291.1 230.33"/><polygon class="cls-15" points="324.73 211.03 328.64 213.23 328.64 193.93 324.73 196.13 324.73 211.03"/><polygon class="cls-15" points="341.48 201.38 345.39 203.58 345.39 184.28 341.48 186.48 341.48 201.38"/><polygon class="cls-15" points="358.35 191.61 362.26 193.81 362.26 174.51 358.35 176.71 358.35 191.61"/><path class="cls-17" d="M261.46,111.44,156.52,172l104.94,60.54L366.14,172Zm0,116.37L164.68,172l96.77-55.83L358,172Z"/><polygon class="cls-18" points="286.48 218.05 366.14 171.98 314.56 142.15 312.11 145.45 357.99 171.98 280.36 216.87 286.48 218.05"/><polygon class="cls-9" points="395.54 193.81 261.33 271.24 127.24 193.81 127.24 198.7 261.33 276.12 395.54 198.7 395.67 198.7 395.67 193.81 395.54 193.81"/><polygon class="cls-11" points="378.82 208.34 378.81 281.01 261.33 348.79 143.97 281.01 143.96 208.35 261.33 276.12 378.82 208.34"/><path class="cls-19" d="M211,106.61a151.28,151.28,0,0,1-22.1,16,151.72,151.72,0,0,1-28.21,13.07l100.63,58.13,101-58.13a158.34,158.34,0,0,1-28.57-13.31,156.86,156.86,0,0,1-22-15.76l-50.44,29.07Z"/><path class="cls-11" d="M261.25,106.87,211.35,78v28.83l50,28.81,49.91-28.81V78.09Z"/><path class="cls-20" d="M295,43.72A110,110,0,0,1,261.45,0a111.11,111.11,0,0,1-33.83,43.72A110.5,110.5,0,0,1,186.36,63.6l74.89,43.27L336.42,63.6A109.55,109.55,0,0,1,295,43.72Z"/><path class="cls-21" d="M190.19,351.29v2.32l-4.27,2.44.06,2.38,8.3-4.88v-4.76"/><path class="cls-15" d="M261.51.14V106.72L336.42,63.6A109.55,109.55,0,0,1,295,43.72,110,110,0,0,1,261.51.14Z"/><polygon class="cls-12" points="261.51 135.58 311.25 106.87 311.25 78.09 261.51 106.72 261.51 135.58"/><path class="cls-15" d="M311.77,106.61l-50.44,29.07-.06,0v58.14l.06,0,101-58.13a158.34,158.34,0,0,1-28.57-13.31A156.86,156.86,0,0,1,311.77,106.61Z"/><polygon class="cls-12" points="261.27 276.09 261.27 348.75 261.33 348.79 378.81 281.01 378.82 208.34 261.33 276.12 261.27 276.09"/><polygon class="cls-21" points="261.33 271.24 261.27 271.2 261.27 276.09 261.33 276.12 395.54 198.7 395.67 198.7 395.67 193.81 395.54 193.81 261.33 271.24"/><polygon class="cls-21" points="261.51 387.46 261.51 392.35 261.57 392.38 446.1 285.89 446.1 281.01 445.98 281.01 261.51 387.46"/><polygon class="cls-13" points="379.02 242.32 445.92 280.95 311.89 358.35 261.39 348.73 378.87 280.95 379.02 242.32"/><polygon class="cls-22" points="184.87 304.6 184.82 265.8 218.52 285.34 218.52 324.04 184.87 304.6"/><polygon class="cls-21" points="184.82 304.64 188.36 302.68 188.36 267.86 184.82 265.8 184.82 304.64"/><path class="cls-10" d="M218.52,311.09l-33.7-6.45,4.27,6.47,29.43,12.95Z"/></g></g></svg>