<svg xmlns="http://www.w3.org/2000/svg" viewBox="0 0 1108.3 260.31"><defs><style>.cls-1,.cls-2{fill:#fff;}.cls-2{opacity:0.4;}</style></defs><title>logoFichier 1</title><g id="Calque_2" data-name="Calque 2"><g id="_1.4_halo_logo" data-name="1.4 halo logo"><path class="cls-1" d="M563.19,92.34l16.44.09L554.1,148.26,528.57,92.43l16.36-.09L540.3,88.1h-18l31.81,69.57L585.91,88.1H567.56Z"/><path class="cls-1" d="M554.05,15.73a88.7,88.7,0,1,0,88.7,88.7A88.69,88.69,0,0,0,554.05,15.73Zm0,19.18L569.2,72l-8,7.52h-14.7L538.92,72ZM525.19,167.78,496.74,113.3l6.5-.94q18.79,35.27,37.6,70.54Zm13.21.79-32.39-61-10.54,2.24.72-15.73L508.24,89l43.19,94.19ZM518.7,99.19l0-.3q-3.95-8.08-7.88-16.18l-4.09-8.51,0,0,0,0,41.61-45.8v3.25L529,73.81l16.43,14.5h17.37l16-14.5L559.49,31.65V28.4l42,45.8q-5.34,11.08-10.69,22.17l0,.18L554.1,172.88Zm63.86,68.59L566.72,182.9l38-70.54,6.58.94Q597,140.54,582.56,167.78ZM602,107.59l-32.78,61L556,183.15,599.71,89l12.2,5.14.73,15.73Z"/><polygon class="cls-1" points="94.07 90.65 56.27 90.65 56.27 75.3 47.03 75.3 47.03 90.65 9.03 90.65 9.03 32.34 0 27.74 0 99.77 47.03 99.77 47.03 109.35 0 109.35 0 181.12 9.03 176.81 9.03 118.28 47.03 118.28 47.03 133.83 56.27 133.83 56.27 118.28 94.07 118.28 94.07 176.82 103.3 181.09 103.3 109.35 56.27 109.35 56.27 99.77 103.3 99.77 103.3 27.77 94.07 32.33 94.07 90.65"/><path class="cls-1" d="M404.44,116.42a41.94,41.94,0,0,0,11.5-9.92,44.8,44.8,0,0,0,7.4-13.59,49.32,49.32,0,0,0,2.61-16,44.82,44.82,0,0,0-3.13-16.27,46.84,46.84,0,0,0-8.75-14.3,45.09,45.09,0,0,0-13.46-10.2,37.85,37.85,0,0,0-17.11-3.95H323.08V176.69H333V122H380.9l35.56,54.68h11.48l-36.16-55.78A36.33,36.33,0,0,0,404.44,116.42Zm3.21-14.67a31.42,31.42,0,0,1-10,8,27.93,27.93,0,0,1-13,3H333V41.38H383.3A28.37,28.37,0,0,1,396,44.33a35.49,35.49,0,0,1,10.49,7.86,38.29,38.29,0,0,1,7.11,11.36,35.19,35.19,0,0,1,2.62,13.34A41.12,41.12,0,0,1,414,90.21,37.25,37.25,0,0,1,407.65,101.75Z"/><path class="cls-1" d="M779.59,53.31a58.59,58.59,0,0,0-20.72-15.57C750.59,34,740.81,32,729.83,32H683.5V176.84h46.33a69.85,69.85,0,0,0,27.45-5.21,59.1,59.1,0,0,0,20.92-14.74A65.94,65.94,0,0,0,791.47,134a90.5,90.5,0,0,0,4.64-29.77A92.61,92.61,0,0,0,792,76.29,66.76,66.76,0,0,0,779.59,53.31Zm7,50.92A85.55,85.55,0,0,1,783,129.5a57,57,0,0,1-10.77,20.1,50,50,0,0,1-17.73,13.23c-7,3.17-15.32,4.78-24.64,4.78H693V41.25h36.81a59.89,59.89,0,0,1,24.26,4.68,50.37,50.37,0,0,1,17.83,13,56.42,56.42,0,0,1,11,19.9A83.12,83.12,0,0,1,786.59,104.23Z"/><polygon class="cls-1" points="1066.25 100.09 1066.25 27.67 1057.39 31.95 1057.39 100.09 1048.09 100.09 1048.09 31.97 1039.43 27.64 1039.43 100.09 997.19 100.09 997.19 109.03 1039.43 109.03 1039.43 181.22 1048.09 177.18 1048.09 109.03 1057.39 109.03 1057.39 177.19 1066.25 181.19 1066.25 109.03 1108.3 109.03 1108.3 100.09 1066.25 100.09"/><path class="cls-1" d="M173.13,167.52v-60h75.16V98.27H173.13V48.68l-9.92-9.93v138l107-.17-8.47-9Z"/><path class="cls-1" d="M270.17,32.13l-99.69.08,9.2,9.19,82-.24Z"/><path class="cls-1" d="M948.94,75.36A68.66,68.66,0,0,0,936,51.64a53.74,53.74,0,0,0-21.64-16.07,56.14,56.14,0,0,0-39.72,0A53.51,53.51,0,0,0,853.1,51.64a68.69,68.69,0,0,0-12.86,23.72,94.89,94.89,0,0,0-4.3,28.83,93.16,93.16,0,0,0,4.81,30.73,68.16,68.16,0,0,0,13.8,23.63,54.05,54.05,0,0,0,21.75,15.21,51.9,51.9,0,0,0,18.38,3.16,52.56,52.56,0,0,0,18-3.16,50.61,50.61,0,0,0,9.21-4.48l-5.79-7.71a42.28,42.28,0,0,1-6.36,3.1,41.15,41.15,0,0,1-30.55,0A45.32,45.32,0,0,1,860.79,151a58.58,58.58,0,0,1-11.2-20.75,87.82,87.82,0,0,1-3.76-26.08A85.25,85.25,0,0,1,849.69,78a58.16,58.16,0,0,1,11.39-20.54A45.48,45.48,0,0,1,879.62,44a41.35,41.35,0,0,1,29.76,0A45.67,45.67,0,0,1,928,57.48,58,58,0,0,1,939.44,78a85,85,0,0,1,3.88,26.17,87.17,87.17,0,0,1-3.78,26.08A58.52,58.52,0,0,1,928.29,151a57.68,57.68,0,0,1-4.37,4.64l5.82,7.73c2-1.83,3.62-3.54,4.82-4.84a68.13,68.13,0,0,0,13.86-23.63,92.63,92.63,0,0,0,4.84-30.73A94.9,94.9,0,0,0,948.94,75.36Z"/><path class="cls-1" d="M355.49,237.52a8.47,8.47,0,0,0-3.13-2.16,11.55,11.55,0,0,0-4.46-.82c-2.45,0-4.23.47-5.35,1.39a4.65,4.65,0,0,0-1.68,3.77,4.19,4.19,0,0,0,.45,2.06,4,4,0,0,0,1.38,1.39,9.6,9.6,0,0,0,2.41,1c1,.29,2.13.58,3.46.86a37.81,37.81,0,0,1,4,1.06,11.86,11.86,0,0,1,3,1.46,6.14,6.14,0,0,1,1.91,2.13,6.68,6.68,0,0,1,.67,3.13,7,7,0,0,1-.75,3.33,6.54,6.54,0,0,1-2.07,2.34,9.17,9.17,0,0,1-3.17,1.39,16.83,16.83,0,0,1-4,.45,16.55,16.55,0,0,1-11.15-4l1.37-2.23a10.71,10.71,0,0,0,1.78,1.49,12.63,12.63,0,0,0,2.31,1.23,14.14,14.14,0,0,0,2.72.82,15,15,0,0,0,3.05.3,9.52,9.52,0,0,0,5.18-1.2,4,4,0,0,0,1.85-3.61,4.15,4.15,0,0,0-.52-2.17,4.59,4.59,0,0,0-1.59-1.53,11.09,11.09,0,0,0-2.62-1.11c-1-.32-2.25-.63-3.63-.94s-2.74-.69-3.84-1.06a10,10,0,0,1-2.77-1.37,5.15,5.15,0,0,1-1.7-2,6.34,6.34,0,0,1-.57-2.83,7.88,7.88,0,0,1,.72-3.43,6.84,6.84,0,0,1,2.06-2.5,9.76,9.76,0,0,1,3.12-1.52,14.22,14.22,0,0,1,4-.53,13.66,13.66,0,0,1,4.95.84,13.26,13.26,0,0,1,3.93,2.37Z"/><path class="cls-1" d="M441.15,234.74h-9.89v25.34h-2.73V234.74h-9.9v-2.42h22.52Z"/><path class="cls-1" d="M515.21,257.81a8.73,8.73,0,0,0,4.36-1,7.83,7.83,0,0,0,2.77-2.62,10.55,10.55,0,0,0,1.45-3.69,21.88,21.88,0,0,0,.41-4.19v-14h2.74v14a22,22,0,0,1-.63,5.34,12.87,12.87,0,0,1-2,4.44,10.09,10.09,0,0,1-3.62,3.05,11.94,11.94,0,0,1-5.43,1.13,11.79,11.79,0,0,1-5.54-1.19,10.15,10.15,0,0,1-3.61-3.15,12.59,12.59,0,0,1-2-4.46,22.49,22.49,0,0,1-.58-5.16v-14h2.69v14a21.37,21.37,0,0,0,.43,4.26,10.76,10.76,0,0,0,1.47,3.68,7.78,7.78,0,0,0,2.76,2.58A8.6,8.6,0,0,0,515.21,257.81Z"/><path class="cls-1" d="M592.11,260.08V232.32h9.43a14.26,14.26,0,0,1,5.8,1.09,11.82,11.82,0,0,1,4.15,3,12.64,12.64,0,0,1,2.5,4.4,16.89,16.89,0,0,1,.84,5.38,16.38,16.38,0,0,1-.94,5.72,12.31,12.31,0,0,1-2.68,4.38,12.06,12.06,0,0,1-4.18,2.82,14.51,14.51,0,0,1-5.49,1Zm20-13.92a14.36,14.36,0,0,0-.7-4.6,10.33,10.33,0,0,0-2-3.61,9.13,9.13,0,0,0-3.31-2.37,11.27,11.27,0,0,0-4.49-.84h-6.69v22.91h6.69a11,11,0,0,0,4.55-.88,9.31,9.31,0,0,0,3.31-2.42,10.64,10.64,0,0,0,2-3.64A14.71,14.71,0,0,0,612.09,246.16Z"/><path class="cls-1" d="M678.72,260.08V232.32h2.73v27.76Z"/><path class="cls-1" d="M758.24,260.27a11.78,11.78,0,0,1-5.29-1.19,13.18,13.18,0,0,1-4.13-3.17,14.31,14.31,0,0,1-2.66-4.52,15,15,0,0,1-.94-5.19,14.75,14.75,0,0,1,3.76-9.82,13.35,13.35,0,0,1,4.14-3.11,11.68,11.68,0,0,1,5.16-1.15,11.46,11.46,0,0,1,5.3,1.23,13.42,13.42,0,0,1,4.11,3.23,15.08,15.08,0,0,1,2.64,4.51,14.77,14.77,0,0,1,.93,5.14,14.48,14.48,0,0,1-1,5.32,14.66,14.66,0,0,1-2.74,4.48,13.28,13.28,0,0,1-4.13,3.09A11.68,11.68,0,0,1,758.24,260.27ZM748,246.2a13,13,0,0,0,.74,4.35,11.94,11.94,0,0,0,2.11,3.72,10.54,10.54,0,0,0,3.25,2.58,9.06,9.06,0,0,0,4.18,1,9,9,0,0,0,4.27-1,10.46,10.46,0,0,0,3.24-2.66,12.09,12.09,0,0,0,2-3.71,12.65,12.65,0,0,0,0-8.58,11.59,11.59,0,0,0-2.13-3.7,10.47,10.47,0,0,0-3.24-2.56,9.51,9.51,0,0,0-8.41,0,9.92,9.92,0,0,0-3.24,2.64,12.33,12.33,0,0,0-2.06,3.71A12.79,12.79,0,0,0,748,246.2Z"/><circle class="cls-2" cx="554.2" cy="104.5" r="104.5"/></g></g></svg>