<svg xmlns="http://www.w3.org/2000/svg" viewBox="0 0 1726.32 394"><defs><style>.cls-1{fill:rgb(12, 29, 72);}</style></defs><title>logo_2Fichier 1</title><g id="Calque_2" data-name="Calque 2"><g id="Calque_1-2" data-name="Calque 1"><path class="cls-1" d="M430.85,301.27a19.84,19.84,0,0,0-7.31-5,26.7,26.7,0,0,0-10.42-1.92q-8.6,0-12.52,3.25a10.8,10.8,0,0,0-3.94,8.82,9.75,9.75,0,0,0,1.06,4.8,9.2,9.2,0,0,0,3.24,3.24,22.91,22.91,0,0,0,5.62,2.38c2.29.67,5,1.34,8.09,2a86.29,86.29,0,0,1,9.37,2.47,26.81,26.81,0,0,1,7.08,3.42,14.24,14.24,0,0,1,4.48,5,15.46,15.46,0,0,1,1.56,7.32,16.43,16.43,0,0,1-1.74,7.77,15.51,15.51,0,0,1-4.84,5.48,21.7,21.7,0,0,1-7.41,3.25,40.1,40.1,0,0,1-9.41,1.05,38.67,38.67,0,0,1-26.05-9.42l3.2-5.21a25,25,0,0,0,4.16,3.48,30.21,30.21,0,0,0,5.39,2.87,33.27,33.27,0,0,0,6.35,1.92,35.56,35.56,0,0,0,7.13.69q7.77,0,12.11-2.79a9.36,9.36,0,0,0,4.34-8.45,9.78,9.78,0,0,0-1.23-5.08,10.65,10.65,0,0,0-3.7-3.56,26.5,26.5,0,0,0-6.13-2.61q-3.66-1.09-8.5-2.19c-3.41-.79-6.4-1.61-8.95-2.47a23.67,23.67,0,0,1-6.49-3.2,12.38,12.38,0,0,1-4-4.61,14.87,14.87,0,0,1-1.33-6.63,18.38,18.38,0,0,1,1.69-8,15.86,15.86,0,0,1,4.8-5.85,22.69,22.69,0,0,1,7.32-3.56,33.1,33.1,0,0,1,9.32-1.24,31.84,31.84,0,0,1,11.56,2,31,31,0,0,1,9.19,5.53Z"/><path class="cls-1" d="M631.12,294.78H608V354h-6.4V294.78H578.47v-5.67h52.65Z"/><path class="cls-1" d="M804.23,348.71a20.27,20.27,0,0,0,10.19-2.33,18.38,18.38,0,0,0,6.49-6.13,24.71,24.71,0,0,0,3.39-8.64,50.12,50.12,0,0,0,1-9.78V289.11h6.39v32.72a51.42,51.42,0,0,1-1.46,12.48,29.37,29.37,0,0,1-4.71,10.37,23.16,23.16,0,0,1-8.45,7.13,27.74,27.74,0,0,1-12.71,2.65,27.32,27.32,0,0,1-12.93-2.78,23.62,23.62,0,0,1-8.45-7.36,29.66,29.66,0,0,1-4.57-10.42A52.37,52.37,0,0,1,777,321.83V289.11h6.3v32.72a48.94,48.94,0,0,0,1,10,25.12,25.12,0,0,0,3.42,8.59,18.32,18.32,0,0,0,6.45,6A20,20,0,0,0,804.23,348.71Z"/><path class="cls-1" d="M984,354v-64.9h22a33.49,33.49,0,0,1,13.57,2.56,27.6,27.6,0,0,1,9.69,6.95,29.22,29.22,0,0,1,5.85,10.28,39.5,39.5,0,0,1,2,12.57,38.54,38.54,0,0,1-2.2,13.39,29.12,29.12,0,0,1-6.26,10.24,28.08,28.08,0,0,1-9.78,6.58,33.8,33.8,0,0,1-12.84,2.33Zm46.71-32.54a33.42,33.42,0,0,0-1.65-10.74,24.1,24.1,0,0,0-4.8-8.46,21.51,21.51,0,0,0-7.72-5.53,26.59,26.59,0,0,0-10.51-2H990.42v53.56h15.63a25.81,25.81,0,0,0,10.65-2.06,21.54,21.54,0,0,0,7.72-5.66,24.7,24.7,0,0,0,4.71-8.5A34,34,0,0,0,1030.73,321.47Z"/><path class="cls-1" d="M1186.48,354v-64.9h6.4V354Z"/><path class="cls-1" d="M1372.39,354.46a27.45,27.45,0,0,1-12.38-2.78,30.73,30.73,0,0,1-9.64-7.41,33.36,33.36,0,0,1-6.22-10.55,34.88,34.88,0,0,1-2.19-12.16,33.59,33.59,0,0,1,2.33-12.43,34.26,34.26,0,0,1,6.44-10.51,31.1,31.1,0,0,1,9.69-7.27,27.33,27.33,0,0,1,12.07-2.7,26.9,26.9,0,0,1,12.38,2.88,31.08,31.08,0,0,1,9.6,7.55,34.7,34.7,0,0,1,6.17,10.55,34.28,34.28,0,0,1,2.19,12,33.79,33.79,0,0,1-2.33,12.43,34.19,34.19,0,0,1-6.4,10.47,31,31,0,0,1-9.64,7.22A27.33,27.33,0,0,1,1372.39,354.46Zm-24-32.9a30.13,30.13,0,0,0,1.73,10.19,27.53,27.53,0,0,0,4.94,8.68,24.23,24.23,0,0,0,7.58,6,21.26,21.26,0,0,0,9.78,2.24,20.89,20.89,0,0,0,10-2.38,24.26,24.26,0,0,0,7.58-6.22,28.48,28.48,0,0,0,4.8-8.68,29.86,29.86,0,0,0-.09-20.06,28,28,0,0,0-5-8.64,24.57,24.57,0,0,0-7.59-6,21,21,0,0,0-9.69-2.23,21.31,21.31,0,0,0-10,2.32,24,24,0,0,0-7.58,6.17,28.43,28.43,0,0,0-4.8,8.69A29.69,29.69,0,0,0,1348.36,321.56Z"/><polygon class="cls-1" points="502.36 116.24 456.29 116.24 456.29 97.52 445.03 97.52 445.03 116.24 398.72 116.24 398.72 45.17 387.71 39.56 387.71 127.35 445.03 127.35 445.03 139.03 387.71 139.03 387.71 226.5 398.72 221.24 398.72 149.91 445.03 149.91 445.03 168.86 456.29 168.86 456.29 149.91 502.36 149.91 502.36 221.25 513.61 226.47 513.61 139.03 456.29 139.03 456.29 127.35 513.61 127.35 513.61 39.6 502.36 45.16 502.36 116.24"/><path class="cls-1" d="M880.62,147.64a51.12,51.12,0,0,0,14-12.08,54.56,54.56,0,0,0,9-16.57,60,60,0,0,0,3.17-19.52A54.43,54.43,0,0,0,903,79.64a56.85,56.85,0,0,0-10.66-17.43A54.91,54.91,0,0,0,876,49.78,46.2,46.2,0,0,0,855.11,45H781.46V221.09h12.1V154.45h58.38l43.34,66.64h14l-44.07-68A44.09,44.09,0,0,0,880.62,147.64Zm3.91-17.88a38.32,38.32,0,0,1-12.13,9.78,34.08,34.08,0,0,1-15.82,3.69h-63v-87h61.3a34.66,34.66,0,0,1,15.47,3.59,43.32,43.32,0,0,1,12.79,9.58,46.53,46.53,0,0,1,8.66,13.85A42.88,42.88,0,0,1,895,99.47a50.06,50.06,0,0,1-2.74,16.23A45.26,45.26,0,0,1,884.53,129.76Z"/><path class="cls-1" d="M1297.34,70.73a71.21,71.21,0,0,0-25.26-19c-10.09-4.63-22-7-35.39-7h-56.46v176.5h56.46a85.25,85.25,0,0,0,33.46-6.35,72.08,72.08,0,0,0,25.5-18,80.55,80.55,0,0,0,16.17-27.89,110.54,110.54,0,0,0,5.65-36.29,113.21,113.21,0,0,0-5-34A81.44,81.44,0,0,0,1297.34,70.73Zm8.53,62.06a104.39,104.39,0,0,1-4.41,30.79,69.4,69.4,0,0,1-13.13,24.5,60.94,60.94,0,0,1-21.61,16.13c-8.56,3.86-18.67,5.82-30,5.82h-44.86V56h44.86c11,0,21,1.92,29.57,5.71A61.5,61.5,0,0,1,1288,77.63a68.73,68.73,0,0,1,13.35,24.26A101.31,101.31,0,0,1,1305.87,132.79Z"/><polygon class="cls-1" points="1675.07 127.74 1675.07 39.48 1664.28 44.7 1664.28 127.74 1652.94 127.74 1652.94 44.72 1642.38 39.44 1642.38 127.74 1590.9 127.74 1590.9 138.64 1642.38 138.64 1642.38 226.62 1652.94 221.7 1652.94 138.64 1664.28 138.64 1664.28 221.71 1675.07 226.59 1675.07 138.64 1726.32 138.64 1726.32 127.74 1675.07 127.74"/><path class="cls-1" d="M598.72,209.92V136.75h91.6V125.52h-91.6V65.09L586.62,53V221.14l130.36-.2-10.32-11Z"/><path class="cls-1" d="M717,44.92,595.49,45l11.2,11.21,100-.3Z"/><path class="cls-1" d="M1042.74,56.88a77,77,0,1,1-77,77,77.13,77.13,0,0,1,77-77m0-11.92a89,89,0,1,0,89,89,89,89,0,0,0-89-89Z"/><path class="cls-1" d="M1455.45,56.88a77,77,0,1,1-77,77,77.13,77.13,0,0,1,77-77m0-11.92a89,89,0,1,0,89,89,89,89,0,0,0-89-89Z"/><path class="cls-1" d="M187.73,110.92l-20.41,19.15H129.9l-19.27-19.15,38.55-94.37Zm82.2,5.68L242.72,173l-.08.47L149.27,367.84,59.14,180.22l-.1-.77Q49,158.86,39,138.28L28.56,116.59l-.09.12,0-.11L134.34,0V8.26L85.24,115.6l41.83,36.91h44.22l40.8-36.91L163,8.26V0Q216.45,58.3,269.93,116.6ZM230.26,152H183.54q-5.55,5.4-11.12,10.78l41.85.23-65,142.15L84.27,163l41.66-.23L114.13,152H68.28l81,177.13ZM154.1,394,265.41,154.17l31,13.11,1.86,40-27.16-5.7L187.68,356.87Zm27.3-.64,40.32-38.5L295,216.14l-16.75-2.39Q229.84,303.56,181.4,393.36Zm-38.93.64-110-239.83L1.84,167.28,0,207.32l26.84-5.7L109.3,356.87Q125.89,375.43,142.47,394ZM19.78,213.75,3.24,216.14Q39.45,285.5,75.67,354.86l39.83,38.5Q67.65,303.56,19.78,213.75Z"/></g></g></svg>