<?xml version="1.0" encoding="utf-8"?>
<!-- Generator: Adobe Illustrator 23.0.6, SVG Export Plug-In . SVG Version: 6.00 Build 0)  -->
<svg version="1.1" id="Calque_1" xmlns="http://www.w3.org/2000/svg" xmlns:xlink="http://www.w3.org/1999/xlink" x="0px" y="0px"
	 viewBox="0 0 304 40" style="enable-background:new 0 0 304 40;" xml:space="preserve">
<style type="text/css">
	.st0{opacity:0.1;}
	.st1{clip-path:url(#SVGID_2_);}
	.st2{fill:none;}
	.st3{fill:#DBF8F7;}
	.st4{fill:#C3DDDB;}
</style>
<title>navbar_decorationFichier 1</title>
<g class="st0">
	<g id="Calque_1-2">
		<g>
			<defs>
				<rect id="SVGID_1_" width="304" height="40"/>
			</defs>
			<clipPath id="SVGID_2_">
				<use xlink:href="#SVGID_1_"  style="overflow:visible;"/>
			</clipPath>
			<g class="st1">
				<rect x="226.2" y="10.1" class="st2" width="3.4" height="3.4"/>
				<path class="st3" d="M228,10.2l0.7,0.9l0,0l0.9,0.7c0,0,0,0.1,0,0.1c0,0,0,0,0,0l-0.9,0.7l0,0l-0.7,0.9c0,0-0.1,0-0.1,0
					c0,0,0,0,0,0l-0.7-0.9l0,0l-0.9-0.7c0,0,0-0.1,0-0.1c0,0,0,0,0,0l0.9-0.7l0,0l0.7-0.9C227.9,10.1,228,10.1,228,10.2
					C228,10.1,228,10.1,228,10.2z"/>
				<rect x="280.1" y="17" class="st2" width="5.8" height="5.8"/>
				<path class="st3" d="M283,17.1l1.1,1.6l0,0l1.6,1.1c0.1,0,0.1,0.1,0,0.2c0,0,0,0,0,0l-1.6,1.1l0,0l-1.1,1.6c0,0.1-0.1,0.1-0.2,0
					c0,0,0,0,0,0l-1.1-1.6l0,0l-1.6-1.1c-0.1,0-0.1-0.1,0-0.2c0,0,0,0,0,0l1.6-1.1l0,0l1.1-1.6C282.8,17,282.9,17,283,17.1
					C283,17,283,17,283,17.1z"/>
				<rect x="66.6" y="23.2" class="st2" width="5.9" height="5.9"/>
				<path class="st3" d="M69.6,23.2l1.2,1.6l0,0l1.6,1.2c0.1,0,0.1,0.1,0,0.2c0,0,0,0,0,0l-1.6,1.2l0,0L69.6,29c0,0.1-0.1,0.1-0.2,0
					c0,0,0,0,0,0l-1.2-1.6l0,0l-1.6-1.2c-0.1,0-0.1-0.1,0-0.2c0,0,0,0,0,0l1.6-1.2l0,0l1.2-1.6C69.4,23.2,69.5,23.2,69.6,23.2
					C69.6,23.2,69.6,23.2,69.6,23.2z"/>
				<rect x="205.9" y="12.6" class="st2" width="3.9" height="3.8"/>
				<path class="st3" d="M207.9,12.6l0.8,1l0,0l1,0.8c0,0,0.1,0.1,0,0.1c0,0,0,0,0,0l-1,0.8l0,0l-0.8,1c0,0-0.1,0.1-0.1,0
					c0,0,0,0,0,0l-0.8-1l0,0l-1-0.8c0,0-0.1-0.1,0-0.1c0,0,0,0,0,0l1-0.8l0,0l0.8-1C207.7,12.6,207.8,12.6,207.9,12.6
					C207.8,12.6,207.8,12.6,207.9,12.6z"/>
				<rect x="235.6" y="32.7" class="st2" width="0.8" height="0.8"/>
				<circle class="st4" cx="236" cy="33.1" r="0.4"/>
				<rect x="183.5" y="12.8" class="st2" width="1.6" height="1.6"/>
				<circle class="st4" cx="184.3" cy="13.6" r="0.8"/>
				<rect x="199.1" y="29.1" class="st2" width="1.2" height="1.2"/>
				<circle class="st4" cx="199.7" cy="29.7" r="0.6"/>
				<rect x="258.5" y="22.1" class="st2" width="1.8" height="1.8"/>
				<circle class="st4" cx="259.5" cy="23" r="0.9"/>
				<rect x="101.4" y="7.9" class="st2" width="2" height="2"/>
				<circle class="st4" cx="102.4" cy="8.9" r="1"/>
				<rect x="25.1" y="18.9" class="st2" width="1.6" height="1.6"/>
				<circle class="st4" cx="25.9" cy="19.7" r="0.8"/>
				<rect x="40.8" y="31.2" class="st2" width="1.1" height="1.1"/>
				<circle class="st4" cx="41.3" cy="31.7" r="0.6"/>
				<rect x="140.1" y="5" class="st2" width="1.2" height="1.2"/>
				<circle class="st4" cx="140.7" cy="5.6" r="0.6"/>
			</g>
		</g>
	</g>
</g>
</svg>
