<?xml version="1.0" encoding="utf-8"?>
<!-- Generator: Adobe Illustrator 23.0.6, SVG Export Plug-In . SVG Version: 6.00 Build 0)  -->
<svg version="1.1" id="Calque_1" xmlns="http://www.w3.org/2000/svg" xmlns:xlink="http://www.w3.org/1999/xlink" x="0px" y="0px"
	 viewBox="0 0 225.3 316.1" style="enable-background:new 0 0 225.3 316.1;" xml:space="preserve">
<style type="text/css">
	.st0{fill:url(#SVGID_1_);}
	.st1{opacity:0.6;fill:url(#SVGID_2_);enable-background:new    ;}
	.st2{opacity:0.3;fill:url(#SVGID_3_);enable-background:new    ;}
	.st3{opacity:0.6;fill:url(#SVGID_4_);enable-background:new    ;}
	.st4{fill:url(#SVGID_5_);}
	.st5{clip-path:url(#SVGID_7_);fill:url(#SVGID_8_);}
	.st6{clip-path:url(#SVGID_7_);fill:#F4DCAB;}
	.st7{clip-path:url(#SVGID_7_);}
	.st8{fill:#E8C391;}
	.st9{fill:#D8B782;}
	.st10{fill:#E8D4B1;}
	.st11{fill:none;}
	.st12{fill:#CCA46A;}
	.st13{clip-path:url(#SVGID_10_);fill:url(#SVGID_11_);}
	.st14{opacity:0.6;clip-path:url(#SVGID_10_);fill:url(#SVGID_12_);enable-background:new    ;}
	.st15{opacity:0.3;clip-path:url(#SVGID_10_);fill:url(#SVGID_13_);enable-background:new    ;}
	.st16{opacity:0.6;clip-path:url(#SVGID_10_);fill:url(#SVGID_14_);enable-background:new    ;}
	.st17{clip-path:url(#SVGID_10_);fill:url(#SVGID_15_);}
	.st18{fill:#DBF8F7;}
	.st19{fill:#C3DDDB;}
	.st20{clip-path:url(#SVGID_7_);fill:url(#SVGID_16_);}
	.st21{clip-path:url(#SVGID_7_);fill:url(#SVGID_17_);}
	.st22{opacity:0;}
	.st23{fill:#F8EEDC;}
	.st24{fill:#D5E5EF;}
	.st25{fill:url(#SVGID_18_);}
</style>
<title>our_game_top_rightFichier 2</title>
<g>
	
		<linearGradient id="SVGID_1_" gradientUnits="userSpaceOnUse" x1="-1271.6322" y1="-121.8568" x2="-1403.8831" y2="10.4002" gradientTransform="matrix(0.9841 -0.1776 -0.1776 -0.9841 1475.8318 -219.5425)">
		<stop  offset="0" style="stop-color:#7386DE"/>
		<stop  offset="0.31" style="stop-color:#6CBCE5"/>
		<stop  offset="0.77" style="stop-color:#63EEE7"/>
		<stop  offset="1" style="stop-color:#60F1D8"/>
	</linearGradient>
	<circle class="st0" cx="169.2" cy="72.9" r="93.5"/>
	
		<linearGradient id="SVGID_2_" gradientUnits="userSpaceOnUse" x1="-1305.0157" y1="-143.9888" x2="-1370.4199" y2="33.7675" gradientTransform="matrix(0.9841 -0.1776 -0.1776 -0.9841 1475.8318 -219.5425)">
		<stop  offset="0" style="stop-color:#7386DE"/>
		<stop  offset="0.32" style="stop-color:#5573DE"/>
		<stop  offset="0.61" style="stop-color:#58C2E7"/>
		<stop  offset="0.87" style="stop-color:#5EEEE6"/>
		<stop  offset="1" style="stop-color:#60F1D8"/>
	</linearGradient>
	<path class="st1" d="M253.4,32.1c0.5,1,1,1.9,1.5,3.1c19.7,2.4,32.4,7.9,34,16.1c3.2,18.1-47.6,42.2-113.5,54.2
		S53.2,112.4,49.9,94.3c-1.5-8.4,8.5-17.9,26.1-27.1c0-1.1,0.2-2.3,0.3-3.4C53.8,74.3,40.7,85.8,42.5,95.6
		c3.5,19.2,63,24.3,133.2,11.8S299.8,69,296.4,49.8C294.5,40.3,278.1,34.2,253.4,32.1z"/>
	
		<linearGradient id="SVGID_3_" gradientUnits="userSpaceOnUse" x1="-1319.5723" y1="-104.7738" x2="-1355.6326" y2="-6.7745" gradientTransform="matrix(0.9841 -0.1776 -0.1776 -0.9841 1475.8318 -219.5425)">
		<stop  offset="0" style="stop-color:#7386DE"/>
		<stop  offset="0.32" style="stop-color:#5573DE"/>
		<stop  offset="0.61" style="stop-color:#58C2E7"/>
		<stop  offset="0.87" style="stop-color:#5EEEE6"/>
		<stop  offset="1" style="stop-color:#60F1D8"/>
	</linearGradient>
	<path class="st2" d="M254.9,35.2c0.3,0.8,0.6,1.5,1,2.1c16.3,2.6,26.8,7.6,28.1,14.8c3.1,17.3-45.6,40.5-108.8,51.9
		S58,110.8,54.9,93.5c-1.5-7.3,6.4-15.6,21-23.7c0-0.8,0-1.6,0.2-2.4c-17.7,9.2-27.6,18.7-26.1,27.1c3.2,18.1,59.3,22.9,125.4,11.1
		S292.3,69.5,289,51.4C287.3,43.1,274.5,37.6,254.9,35.2z"/>
	
		<linearGradient id="SVGID_4_" gradientUnits="userSpaceOnUse" x1="-1326.6147" y1="-97.3138" x2="-1348.7701" y2="-14.631" gradientTransform="matrix(0.9841 -0.1776 -0.1776 -0.9841 1475.8318 -219.5425)">
		<stop  offset="0" style="stop-color:#7386DE"/>
		<stop  offset="0.32" style="stop-color:#5573DE"/>
		<stop  offset="0.61" style="stop-color:#58C2E7"/>
		<stop  offset="0.87" style="stop-color:#5EEEE6"/>
		<stop  offset="1" style="stop-color:#60F1D8"/>
	</linearGradient>
	<path class="st3" d="M255.7,37.4c0.5,1,0.8,1.9,1.1,3.1c12.1,2.6,19.5,6.9,20.6,12.9c2.9,16.3-43.2,38.4-103,49S64,108.8,61.1,92.4
		c-1.1-6,4.4-12.7,14.8-19.3c0-1.1,0-2.1,0-3.2c-14.3,8.1-22.4,16.4-21.1,23.7c3.1,17.3,56.9,21.9,120.1,10.5s112-34.7,108.8-51.8
		C282.4,45,272.1,39.8,255.7,37.4z"/>
</g>
<linearGradient id="SVGID_5_" gradientUnits="userSpaceOnUse" x1="811.3829" y1="160.7962" x2="1094.9688" y2="84.8096">
	<stop  offset="2.663895e-07" style="stop-color:#00112D"/>
	<stop  offset="1" style="stop-color:#1788BF"/>
</linearGradient>
<rect x="821.1" y="48.5" class="st4" width="264.1" height="148.6"/>
<g>
	<defs>
		<path id="SVGID_6_" d="M1026.9-524.4l-29.9,28h-54.8l-28.2-28l56.4-138.2L1026.9-524.4z M1147.2-516.1
			c-13.3,27.5-26.6,55.1-39.8,82.6c0,0.2-0.1,0.5-0.1,0.7L970.6-148.2l-132-274.7c0-0.4-0.1-0.8-0.1-1.1
			c-9.8-20.1-19.6-40.2-29.4-60.3l-15.3-31.7l-0.1,0.2c0-0.1-0.1-0.1-0.1-0.2C845.3-573,897-629.9,948.7-686.8v12.1l-71.9,157.2
			c20.4,18,40.8,36,61.2,54c21.6,0,43.2,0,64.7,0c19.9-18,39.8-36,59.7-54l-71.9-157.2v-12.1C1042.8-629.9,1095-573,1147.2-516.1z
			 M1089.1-464.3h-68.4c-5.4,5.3-10.9,10.5-16.3,15.8c20.4,0.1,40.8,0.2,61.3,0.3L970.6-240l-95.2-208.1c20.3-0.1,40.7-0.2,61-0.3
			c-5.8-5.3-11.5-10.5-17.3-15.8H852l118.6,259.3L1089.1-464.3z M977.6-109.9l163-351.1l45.4,19.2l2.7,58.6l-39.8-8.3l-122.2,227.3
			C1010.4-146.2,994-128,977.6-109.9z M1017.6-110.9c19.7-18.8,39.4-37.6,59-56.4c35.8-67.7,71.6-135.4,107.3-203.1
			c-8.2-1.2-16.4-2.3-24.5-3.5C1112.2-286.2,1064.9-198.5,1017.6-110.9z M960.6-109.9l-161-351.1l-44.9,19.2l-2.7,58.6l39.3-8.3
			L912-164.3C928.2-146.2,944.4-128,960.6-109.9z M781-373.8c-8.1,1.2-16.2,2.3-24.2,3.5c35.4,67.7,70.7,135.4,106.1,203.1
			c19.4,18.8,38.9,37.6,58.3,56.4C874.4-198.5,827.7-286.2,781-373.8z"/>
	</defs>
	<clipPath id="SVGID_7_">
		<use xlink:href="#SVGID_6_"  style="overflow:visible;"/>
	</clipPath>
	<linearGradient id="SVGID_8_" gradientUnits="userSpaceOnUse" x1="526.6212" y1="-387.5582" x2="1428.9873" y2="-387.5582">
		<stop  offset="4.102398e-07" style="stop-color:#2249C4"/>
		<stop  offset="1" style="stop-color:#0C79B4"/>
	</linearGradient>
	<path class="st5" d="M778.8-588.2c-32,21.1-43.4,11.2-72,29c-38,23.6-28.4,48.3-69,91c-41.4,43.6-65.1,32.4-90,70
		c-22.5,33.9-26.8,80.5-14,118c9.2,26.8,26.4,46.3,98,96c81.1,56.3,121.7,84.5,151,94c94.3,30.6,113.4-20.5,259-12
		c113.3,6.6,140.8,39.9,213,16c65.8-21.7,103.8-69.4,116-85c12.6-16.2,76.7-102.6,53-192c-5.8-21.7-9.4-16-79-123
		c-47.5-73-47.4-78.1-64-92c-36.7-30.7-53-19-136-57c-58.8-26.9-59-36.6-101-49c-27.3-8-64-18.4-110-10c-12.1,2.2-57.5,11.7-98,47
		C806.5-621.8,808.6-608,778.8-588.2z"/>
	<path class="st6" d="M1246.8-343.2c-112-3.4-117.9,17.4-247,23c-224.8,9.7-298.5-49.7-436,2c-12.6,4.7-24.4,9.9-35.5,15.4
		c1.2,7.8,3,15.4,5.5,22.6c9.2,26.8,26.4,46.3,98,96c81.1,56.3,121.7,84.5,151,94c94.3,30.6,113.4-20.5,259-12
		c113.3,6.6,140.8,39.9,213,16c65.8-21.7,103.8-69.4,116-85c10.5-13.5,56.7-75.7,58.2-147.8C1377.1-331.3,1315.7-341.1,1246.8-343.2
		z"/>
	<g class="st7">
		<polygon class="st8" points="1219,-162 1132,-199.9 1180.3,-218.8 		"/>
		<polygon class="st8" points="1137.5,-208.6 994.5,-270.8 1073.8,-301.9 		"/>
		<g>
			<polygon class="st9" points="1038.2,-267.1 1137.8,-367.9 1137.8,-209.5 			"/>
			<polygon class="st10" points="1237.3,-267.1 1137.8,-367.9 1137.8,-209.5 			"/>
			<g>
				<polygon class="st11" points="1206.5,-297.4 1202.5,-301.5 1137.5,-264 1137.4,-264 1072.6,-301.5 1068.6,-297.4 1137.5,-257.6 
									"/>
				<polygon class="st11" points="1189.2,-314.9 1185.1,-319 1137.5,-291.5 1137.4,-291.6 1089.9,-319 1085.9,-314.9 1137.5,-285.1 
									"/>
				<polygon class="st11" points="1202.1,-301.8 1198.1,-305.8 1137.5,-270.8 1137.4,-270.9 1077,-305.8 1072.9,-301.8 
					1137.5,-264.5 				"/>
				<polygon class="st11" points="1210.8,-293 1206.8,-297.1 1137.5,-257.1 1137.4,-257.1 1068.3,-297.1 1064.3,-293 1137.5,-250.7 
									"/>
				<polygon class="st11" points="1193.5,-310.5 1189.5,-314.6 1137.5,-284.6 1137.4,-284.7 1085.6,-314.6 1081.6,-310.5 
					1137.5,-278.2 				"/>
				<polygon class="st11" points="1197.8,-306.2 1193.8,-310.2 1137.5,-277.7 1137.4,-277.8 1081.3,-310.2 1077.3,-306.2 
					1137.5,-271.3 				"/>
				<polygon class="st11" points="1215.1,-288.6 1211.1,-292.7 1137.5,-250.2 1137.4,-250.2 1064,-292.7 1059.9,-288.6 
					1137.5,-243.8 				"/>
				<polygon class="st11" points="1219.5,-284.2 1215.4,-288.3 1137.5,-243.3 1137.4,-243.4 1059.6,-288.3 1055.6,-284.2 
					1137.5,-236.9 				"/>
				<polygon class="st11" points="1232.5,-271.1 1228.4,-275.1 1137.5,-222.6 1137.4,-222.7 1046.6,-275.1 1042.6,-271.1 
					1137.5,-216.2 				"/>
				<polygon class="st11" points="1137.4,-215.8 1042.3,-270.8 1038.3,-266.7 1137.5,-209.4 1236.8,-266.7 1232.8,-270.8 
					1137.5,-215.8 				"/>
				<polygon class="st11" points="1228.1,-275.5 1224.1,-279.5 1137.5,-229.5 1137.4,-229.6 1051,-279.5 1047,-275.5 1137.5,-223.1 
									"/>
				<polygon class="st11" points="1223.8,-279.8 1219.8,-283.9 1137.5,-236.4 1137.4,-236.5 1055.3,-283.9 1051.3,-279.8 
					1137.5,-230 				"/>
				<polygon class="st11" points="1180.5,-323.7 1176.5,-327.8 1137.5,-305.3 1137.4,-305.3 1098.6,-327.8 1094.6,-323.7 
					1137.5,-298.9 				"/>
				<polygon class="st11" points="1145.9,-358.8 1141.8,-362.9 1137.5,-360.4 1137.4,-360.4 1133.2,-362.9 1129.2,-358.8 
					1137.5,-354 				"/>
				<polygon class="st11" points="1158.8,-345.6 1154.8,-349.7 1137.5,-339.7 1137.4,-339.8 1120.3,-349.7 1116.2,-345.6 
					1137.5,-333.3 				"/>
				<polygon class="st11" points="1154.5,-350 1150.5,-354.1 1137.5,-346.6 1137.4,-346.7 1124.6,-354.1 1120.6,-350 1137.5,-340.2 
									"/>
				<polygon class="st11" points="1150.2,-354.4 1146.2,-358.5 1137.5,-353.5 1137.4,-353.6 1128.9,-358.5 1124.9,-354.4 
					1137.5,-347.1 				"/>
				<polygon class="st11" points="1141.5,-363.2 1137.5,-367.2 1133.6,-363.2 1137.5,-360.9 				"/>
				<polygon class="st11" points="1167.5,-336.9 1163.5,-340.9 1137.5,-325.9 1137.4,-326 1111.6,-340.9 1107.6,-336.9 
					1137.5,-319.6 				"/>
				<polygon class="st11" points="1176.2,-328.1 1172.1,-332.2 1137.5,-312.2 1137.4,-312.2 1102.9,-332.2 1098.9,-328.1 
					1137.5,-305.8 				"/>
				<polygon class="st11" points="1163.2,-341.2 1159.2,-345.3 1137.5,-332.8 1137.4,-332.9 1115.9,-345.3 1111.9,-341.2 
					1137.5,-326.4 				"/>
				<polygon class="st11" points="1171.8,-332.5 1167.8,-336.5 1137.5,-319.1 1137.4,-319.1 1107.3,-336.5 1103.2,-332.5 
					1137.5,-312.7 				"/>
				<polygon class="st11" points="1184.8,-319.3 1180.8,-323.4 1137.5,-298.4 1137.4,-298.5 1094.3,-323.4 1090.3,-319.3 
					1137.5,-292 				"/>
				<polygon class="st12" points="1137.5,-216.2 1042.6,-271.1 1042.3,-270.8 1137.4,-215.8 1137.5,-215.8 1232.8,-270.8 
					1232.5,-271.1 				"/>
				<polygon class="st12" points="1137.5,-222.6 1228.4,-275.1 1228.1,-275.5 1137.5,-223.1 1047,-275.5 1046.6,-275.1 
					1137.4,-222.7 				"/>
				<polygon class="st12" points="1137.5,-229.5 1224.1,-279.5 1223.8,-279.8 1137.5,-230 1051.3,-279.8 1051,-279.5 1137.4,-229.6 
									"/>
				<polygon class="st12" points="1137.5,-236.4 1219.8,-283.9 1219.5,-284.2 1137.5,-236.9 1055.6,-284.2 1055.3,-283.9 
					1137.4,-236.5 				"/>
				<polygon class="st12" points="1137.5,-243.3 1215.4,-288.3 1215.1,-288.6 1137.5,-243.8 1059.9,-288.6 1059.6,-288.3 
					1137.4,-243.4 				"/>
				<polygon class="st12" points="1137.5,-250.2 1211.1,-292.7 1210.8,-293 1137.5,-250.7 1064.3,-293 1064,-292.7 1137.4,-250.2 
									"/>
				<polygon class="st12" points="1137.5,-257.1 1206.8,-297.1 1206.5,-297.4 1137.5,-257.6 1068.6,-297.4 1068.3,-297.1 
					1137.4,-257.1 				"/>
				<polygon class="st12" points="1137.5,-264 1202.5,-301.5 1202.1,-301.8 1137.5,-264.5 1072.9,-301.8 1072.6,-301.5 1137.4,-264 
									"/>
				<polygon class="st12" points="1137.5,-270.8 1198.1,-305.8 1197.8,-306.2 1137.5,-271.3 1077.3,-306.2 1077,-305.8 
					1137.4,-270.9 				"/>
				<polygon class="st12" points="1137.5,-277.7 1193.8,-310.2 1193.5,-310.5 1137.5,-278.2 1081.6,-310.5 1081.3,-310.2 
					1137.4,-277.8 				"/>
				<polygon class="st12" points="1137.5,-284.6 1189.5,-314.6 1189.2,-314.9 1137.5,-285.1 1085.9,-314.9 1085.6,-314.6 
					1137.4,-284.7 				"/>
				<polygon class="st12" points="1137.5,-291.5 1185.1,-319 1184.8,-319.3 1137.5,-292 1090.3,-319.3 1089.9,-319 1137.4,-291.6 
									"/>
				<polygon class="st12" points="1137.5,-298.4 1180.8,-323.4 1180.5,-323.7 1137.5,-298.9 1094.6,-323.7 1094.3,-323.4 
					1137.4,-298.5 				"/>
				<polygon class="st12" points="1137.5,-305.3 1176.5,-327.8 1176.2,-328.1 1137.5,-305.8 1098.9,-328.1 1098.6,-327.8 
					1137.4,-305.3 				"/>
				<polygon class="st12" points="1137.5,-312.2 1172.1,-332.2 1171.8,-332.5 1137.5,-312.7 1103.2,-332.5 1102.9,-332.2 
					1137.4,-312.2 				"/>
				<polygon class="st12" points="1137.5,-319.1 1167.8,-336.5 1167.5,-336.9 1137.5,-319.6 1107.6,-336.9 1107.3,-336.5 
					1137.4,-319.1 				"/>
				<polygon class="st12" points="1137.5,-325.9 1163.5,-340.9 1163.2,-341.2 1137.5,-326.4 1111.9,-341.2 1111.6,-340.9 
					1137.4,-326 				"/>
				<polygon class="st12" points="1137.5,-332.8 1159.2,-345.3 1158.8,-345.6 1137.5,-333.3 1116.2,-345.6 1115.9,-345.3 
					1137.4,-332.9 				"/>
				<polygon class="st12" points="1137.5,-339.7 1154.8,-349.7 1154.5,-350 1137.5,-340.2 1120.6,-350 1120.3,-349.7 1137.4,-339.8 
									"/>
				<polygon class="st12" points="1137.5,-346.6 1150.5,-354.1 1150.2,-354.4 1137.5,-347.1 1124.9,-354.4 1124.6,-354.1 
					1137.4,-346.7 				"/>
				<polygon class="st12" points="1137.5,-353.5 1146.2,-358.5 1145.9,-358.8 1137.5,-354 1129.2,-358.8 1128.9,-358.5 
					1137.4,-353.6 				"/>
				<polygon class="st12" points="1137.5,-360.4 1141.8,-362.9 1141.5,-363.2 1137.5,-360.9 1133.6,-363.2 1133.2,-362.9 
					1137.4,-360.4 				"/>
			</g>
		</g>
		<polygon class="st8" points="914.4,-107.6 693,-204 815.8,-252.1 		"/>
		<g>
			<polygon class="st9" points="760.6,-198.1 914.8,-354.2 914.8,-109.1 			"/>
			<polygon class="st10" points="1068.9,-198.1 914.8,-354.2 914.8,-109.1 			"/>
			<g>
				<polygon class="st11" points="1021.1,-245 1014.9,-251.3 914.4,-193.3 914.3,-193.4 814,-251.3 807.7,-245 914.4,-183.4 				"/>
				<polygon class="st11" points="994.3,-272.2 988.1,-278.5 914.4,-235.9 914.3,-236 840.8,-278.5 834.6,-272.2 914.4,-226.1 				
					"/>
				<polygon class="st11" points="1014.4,-251.8 1008.2,-258.1 914.4,-204 914.3,-204.1 820.7,-258.1 814.4,-251.8 914.4,-194.1 
									"/>
				<polygon class="st11" points="1027.8,-238.3 1021.6,-244.6 914.4,-182.6 914.3,-182.7 807.3,-244.6 801,-238.3 914.4,-172.8 
									"/>
				<polygon class="st11" points="1001,-265.4 994.8,-271.7 914.4,-225.3 914.3,-225.4 834.1,-271.7 827.8,-265.4 914.4,-215.4 				
					"/>
				<polygon class="st11" points="1007.7,-258.6 1001.5,-264.9 914.4,-214.6 914.3,-214.7 827.4,-264.9 821.1,-258.6 914.4,-204.7 
									"/>
				<polygon class="st11" points="1034.5,-231.5 1028.3,-237.8 914.4,-172 914.3,-172.1 800.6,-237.8 794.3,-231.5 914.4,-162.1 
									"/>
				<polygon class="st11" points="1041.2,-224.7 1035,-231 914.4,-161.3 914.3,-161.4 793.9,-231 787.6,-224.7 914.4,-151.4 				"/>
				<polygon class="st11" points="1061.3,-204.3 1055.1,-210.6 914.4,-129.4 914.3,-129.4 773.8,-210.6 767.5,-204.3 914.4,-119.5 
									"/>
				<polygon class="st11" points="914.3,-118.8 767.1,-203.8 760.8,-197.5 914.4,-108.8 1068,-197.5 1061.8,-203.8 914.4,-118.7 
									"/>
				<polygon class="st11" points="1054.6,-211.1 1048.4,-217.4 914.4,-140 914.3,-140.1 780.5,-217.4 774.2,-211.1 914.4,-130.1 
									"/>
				<polygon class="st11" points="1047.9,-217.9 1041.7,-224.2 914.4,-150.7 914.3,-150.8 787.2,-224.2 780.9,-217.9 914.4,-140.8 
									"/>
				<polygon class="st11" points="980.9,-285.8 974.7,-292.1 914.4,-257.3 914.3,-257.4 854.2,-292.1 848,-285.8 914.4,-247.4 				
					"/>
				<polygon class="st11" points="927.3,-340.1 921.1,-346.4 914.4,-342.5 914.3,-342.6 907.8,-346.4 901.6,-340.1 914.4,-332.6 
									"/>
				<polygon class="st11" points="947.4,-319.7 941.2,-326 914.4,-310.6 914.3,-310.7 887.7,-326 881.5,-319.7 914.4,-300.7 				"/>
				<polygon class="st11" points="940.7,-326.5 934.5,-332.8 914.4,-321.2 914.3,-321.3 894.4,-332.8 888.2,-326.5 914.4,-311.3 
									"/>
				<polygon class="st11" points="934,-333.3 927.8,-339.6 914.4,-331.9 914.3,-332 901.1,-339.6 894.9,-333.3 914.4,-322 				"/>
				<polygon class="st11" points="920.6,-346.9 914.4,-353.1 908.3,-346.9 914.4,-343.3 				"/>
				<polygon class="st11" points="960.8,-306.1 954.6,-312.4 914.4,-289.2 914.3,-289.3 874.3,-312.4 868.1,-306.1 914.4,-279.3 
									"/>
				<polygon class="st11" points="974.2,-292.6 968,-298.9 914.4,-267.9 914.3,-268 860.9,-298.9 854.7,-292.6 914.4,-258 				"/>
				<polygon class="st11" points="954.1,-312.9 947.9,-319.2 914.4,-299.9 914.3,-300 881,-319.2 874.8,-312.9 914.4,-290 				"/>
				<polygon class="st11" points="967.5,-299.3 961.3,-305.6 914.4,-278.6 914.3,-278.7 867.6,-305.6 861.4,-299.3 914.4,-268.7 
									"/>
				<polygon class="st11" points="987.6,-279 981.4,-285.3 914.4,-246.6 914.3,-246.7 847.5,-285.3 841.3,-279 914.4,-236.7 				"/>
				<polygon class="st12" points="914.4,-119.5 767.5,-204.3 767.1,-203.8 914.3,-118.8 914.4,-118.7 1061.8,-203.8 1061.3,-204.3 
									"/>
				<polygon class="st12" points="914.4,-129.4 1055.1,-210.6 1054.6,-211.1 914.4,-130.1 774.2,-211.1 773.8,-210.6 914.3,-129.4 
									"/>
				<polygon class="st12" points="914.4,-140 1048.4,-217.4 1047.9,-217.9 914.4,-140.8 780.9,-217.9 780.5,-217.4 914.3,-140.1 
									"/>
				<polygon class="st12" points="914.4,-150.7 1041.7,-224.2 1041.2,-224.7 914.4,-151.4 787.6,-224.7 787.2,-224.2 914.3,-150.8 
									"/>
				<polygon class="st12" points="914.4,-161.3 1035,-231 1034.5,-231.5 914.4,-162.1 794.3,-231.5 793.9,-231 914.3,-161.4 				"/>
				<polygon class="st12" points="914.4,-172 1028.3,-237.8 1027.8,-238.3 914.4,-172.8 801,-238.3 800.6,-237.8 914.3,-172.1 				
					"/>
				<polygon class="st12" points="914.4,-182.6 1021.6,-244.6 1021.1,-245 914.4,-183.4 807.7,-245 807.3,-244.6 914.3,-182.7 				
					"/>
				<polygon class="st12" points="914.4,-193.3 1014.9,-251.3 1014.4,-251.8 914.4,-194.1 814.4,-251.8 814,-251.3 914.3,-193.4 
									"/>
				<polygon class="st12" points="914.4,-204 1008.2,-258.1 1007.7,-258.6 914.4,-204.7 821.1,-258.6 820.7,-258.1 914.3,-204.1 
									"/>
				<polygon class="st12" points="914.4,-214.6 1001.5,-264.9 1001,-265.4 914.4,-215.4 827.8,-265.4 827.4,-264.9 914.3,-214.7 
									"/>
				<polygon class="st12" points="914.4,-225.3 994.8,-271.7 994.3,-272.2 914.4,-226.1 834.6,-272.2 834.1,-271.7 914.3,-225.4 
									"/>
				<polygon class="st12" points="914.4,-235.9 988.1,-278.5 987.6,-279 914.4,-236.7 841.3,-279 840.8,-278.5 914.3,-236 				"/>
				<polygon class="st12" points="914.4,-246.6 981.4,-285.3 980.9,-285.8 914.4,-247.4 848,-285.8 847.5,-285.3 914.3,-246.7 				
					"/>
				<polygon class="st12" points="914.4,-257.3 974.7,-292.1 974.2,-292.6 914.4,-258 854.7,-292.6 854.2,-292.1 914.3,-257.4 				
					"/>
				<polygon class="st12" points="914.4,-267.9 968,-298.9 967.5,-299.3 914.4,-268.7 861.4,-299.3 860.9,-298.9 914.3,-268 				"/>
				<polygon class="st12" points="914.4,-278.6 961.3,-305.6 960.8,-306.1 914.4,-279.3 868.1,-306.1 867.6,-305.6 914.3,-278.7 
									"/>
				<polygon class="st12" points="914.4,-289.2 954.6,-312.4 954.1,-312.9 914.4,-290 874.8,-312.9 874.3,-312.4 914.3,-289.3 				
					"/>
				<polygon class="st12" points="914.4,-299.9 947.9,-319.2 947.4,-319.7 914.4,-300.7 881.5,-319.7 881,-319.2 914.3,-300 				"/>
				<polygon class="st12" points="914.4,-310.6 941.2,-326 940.7,-326.5 914.4,-311.3 888.2,-326.5 887.7,-326 914.3,-310.7 				"/>
				<polygon class="st12" points="914.4,-321.2 934.5,-332.8 934,-333.3 914.4,-322 894.9,-333.3 894.4,-332.8 914.3,-321.3 				"/>
				<polygon class="st12" points="914.4,-331.9 927.8,-339.6 927.3,-340.1 914.4,-332.6 901.6,-340.1 901.1,-339.6 914.3,-332 				
					"/>
				<polygon class="st12" points="914.4,-342.5 921.1,-346.4 920.6,-346.9 914.4,-343.3 908.3,-346.9 907.8,-346.4 914.3,-342.6 
									"/>
			</g>
		</g>
		<g>
			<polygon class="st9" points="1158.4,-197 1219,-258.4 1219,-161.9 			"/>
			<polygon class="st10" points="1279.7,-197 1219,-258.4 1219,-161.9 			"/>
			<g>
				<polygon class="st11" points="1260.9,-215.4 1258.5,-217.9 1218.9,-195.1 1218.9,-195.1 1179.4,-217.9 1176.9,-215.4 
					1218.9,-191.2 				"/>
				<polygon class="st11" points="1250.4,-226.1 1247.9,-228.6 1218.9,-211.9 1218.9,-211.9 1189.9,-228.6 1187.5,-226.1 
					1218.9,-208 				"/>
				<polygon class="st11" points="1258.3,-218.1 1255.8,-220.6 1218.9,-199.3 1218.9,-199.3 1182,-220.6 1179.6,-218.1 
					1218.9,-195.4 				"/>
				<polygon class="st11" points="1263.5,-212.8 1261.1,-215.2 1218.9,-190.9 1218.9,-190.9 1176.7,-215.2 1174.3,-212.8 
					1218.9,-187 				"/>
				<polygon class="st11" points="1253,-223.4 1250.5,-225.9 1218.9,-207.7 1218.9,-207.7 1187.3,-225.9 1184.8,-223.4 
					1218.9,-203.8 				"/>
				<polygon class="st11" points="1255.6,-220.8 1253.2,-223.3 1218.9,-203.5 1218.9,-203.5 1184.7,-223.3 1182.2,-220.8 
					1218.9,-199.6 				"/>
				<polygon class="st11" points="1266.2,-210.1 1263.7,-212.6 1218.9,-186.7 1218.9,-186.7 1174.1,-212.6 1171.7,-210.1 
					1218.9,-182.8 				"/>
				<polygon class="st11" points="1268.8,-207.4 1266.4,-209.9 1218.9,-182.5 1218.9,-182.5 1171.5,-209.9 1169,-207.4 
					1218.9,-178.6 				"/>
				<polygon class="st11" points="1276.7,-199.4 1274.3,-201.9 1218.9,-169.9 1218.9,-169.9 1163.6,-201.9 1161.1,-199.4 
					1218.9,-166 				"/>
				<polygon class="st11" points="1218.9,-165.8 1160.9,-199.2 1158.5,-196.7 1218.9,-161.8 1279.4,-196.7 1276.9,-199.2 
					1218.9,-165.7 				"/>
				<polygon class="st11" points="1274.1,-202.1 1271.6,-204.6 1218.9,-174.1 1218.9,-174.1 1166.2,-204.6 1163.8,-202.1 
					1218.9,-170.2 				"/>
				<polygon class="st11" points="1271.4,-204.7 1269,-207.2 1218.9,-178.3 1218.9,-178.3 1168.8,-207.2 1166.4,-204.7 
					1218.9,-174.4 				"/>
				<polygon class="st11" points="1245.1,-231.5 1242.6,-233.9 1218.9,-220.2 1218.9,-220.3 1195.2,-233.9 1192.8,-231.5 
					1218.9,-216.4 				"/>
				<polygon class="st11" points="1224,-252.8 1221.5,-255.3 1218.9,-253.8 1218.9,-253.8 1216.3,-255.3 1213.9,-252.8 
					1218.9,-249.9 				"/>
				<polygon class="st11" points="1231.9,-244.8 1229.4,-247.3 1218.9,-241.2 1218.9,-241.3 1208.4,-247.3 1205.9,-244.8 
					1218.9,-237.3 				"/>
				<polygon class="st11" points="1229.3,-247.5 1226.8,-250 1218.9,-245.4 1218.9,-245.4 1211,-250 1208.6,-247.5 1218.9,-241.5 
									"/>
				<polygon class="st11" points="1226.6,-250.2 1224.2,-252.6 1218.9,-249.6 1218.9,-249.6 1213.7,-252.6 1211.2,-250.2 
					1218.9,-245.7 				"/>
				<polygon class="st11" points="1221.3,-255.5 1218.9,-258 1216.5,-255.5 1218.9,-254.1 				"/>
				<polygon class="st11" points="1237.2,-239.5 1234.7,-242 1218.9,-232.8 1218.9,-232.9 1203.1,-242 1200.7,-239.5 1218.9,-228.9 
									"/>
				<polygon class="st11" points="1242.4,-234.1 1240,-236.6 1218.9,-224.4 1218.9,-224.5 1197.8,-236.6 1195.4,-234.1 
					1218.9,-220.5 				"/>
				<polygon class="st11" points="1234.5,-242.1 1232.1,-244.6 1218.9,-237 1218.9,-237.1 1205.8,-244.6 1203.3,-242.1 
					1218.9,-233.1 				"/>
				<polygon class="st11" points="1239.8,-236.8 1237.4,-239.3 1218.9,-228.6 1218.9,-228.7 1200.5,-239.3 1198,-236.8 
					1218.9,-224.7 				"/>
				<polygon class="st11" points="1247.7,-228.8 1245.3,-231.3 1218.9,-216 1218.9,-216.1 1192.6,-231.3 1190.1,-228.8 
					1218.9,-212.2 				"/>
				<polygon class="st12" points="1218.9,-166 1161.1,-199.4 1160.9,-199.2 1218.9,-165.8 1218.9,-165.7 1276.9,-199.2 
					1276.7,-199.4 				"/>
				<polygon class="st12" points="1218.9,-169.9 1274.3,-201.9 1274.1,-202.1 1218.9,-170.2 1163.8,-202.1 1163.6,-201.9 
					1218.9,-169.9 				"/>
				<polygon class="st12" points="1218.9,-174.1 1271.6,-204.6 1271.4,-204.7 1218.9,-174.4 1166.4,-204.7 1166.2,-204.6 
					1218.9,-174.1 				"/>
				<polygon class="st12" points="1218.9,-178.3 1269,-207.2 1268.8,-207.4 1218.9,-178.6 1169,-207.4 1168.8,-207.2 1218.9,-178.3 
									"/>
				<polygon class="st12" points="1218.9,-182.5 1266.4,-209.9 1266.2,-210.1 1218.9,-182.8 1171.7,-210.1 1171.5,-209.9 
					1218.9,-182.5 				"/>
				<polygon class="st12" points="1218.9,-186.7 1263.7,-212.6 1263.5,-212.8 1218.9,-187 1174.3,-212.8 1174.1,-212.6 
					1218.9,-186.7 				"/>
				<polygon class="st12" points="1218.9,-190.9 1261.1,-215.2 1260.9,-215.4 1218.9,-191.2 1176.9,-215.4 1176.7,-215.2 
					1218.9,-190.9 				"/>
				<polygon class="st12" points="1218.9,-195.1 1258.5,-217.9 1258.3,-218.1 1218.9,-195.4 1179.6,-218.1 1179.4,-217.9 
					1218.9,-195.1 				"/>
				<polygon class="st12" points="1218.9,-199.3 1255.8,-220.6 1255.6,-220.8 1218.9,-199.6 1182.2,-220.8 1182,-220.6 
					1218.9,-199.3 				"/>
				<polygon class="st12" points="1218.9,-203.5 1253.2,-223.3 1253,-223.4 1218.9,-203.8 1184.8,-223.4 1184.7,-223.3 
					1218.9,-203.5 				"/>
				<polygon class="st12" points="1218.9,-207.7 1250.5,-225.9 1250.4,-226.1 1218.9,-208 1187.5,-226.1 1187.3,-225.9 
					1218.9,-207.7 				"/>
				<polygon class="st12" points="1218.9,-211.9 1247.9,-228.6 1247.7,-228.8 1218.9,-212.2 1190.1,-228.8 1189.9,-228.6 
					1218.9,-211.9 				"/>
				<polygon class="st12" points="1218.9,-216 1245.3,-231.3 1245.1,-231.5 1218.9,-216.4 1192.8,-231.5 1192.6,-231.3 
					1218.9,-216.1 				"/>
				<polygon class="st12" points="1218.9,-220.2 1242.6,-233.9 1242.4,-234.1 1218.9,-220.5 1195.4,-234.1 1195.2,-233.9 
					1218.9,-220.3 				"/>
				<polygon class="st12" points="1218.9,-224.4 1240,-236.6 1239.8,-236.8 1218.9,-224.7 1198,-236.8 1197.8,-236.6 1218.9,-224.5 
									"/>
				<polygon class="st12" points="1218.9,-228.6 1237.4,-239.3 1237.2,-239.5 1218.9,-228.9 1200.7,-239.5 1200.5,-239.3 
					1218.9,-228.7 				"/>
				<polygon class="st12" points="1218.9,-232.8 1234.7,-242 1234.5,-242.1 1218.9,-233.1 1203.3,-242.1 1203.1,-242 1218.9,-232.9 
									"/>
				<polygon class="st12" points="1218.9,-237 1232.1,-244.6 1231.9,-244.8 1218.9,-237.3 1205.9,-244.8 1205.8,-244.6 
					1218.9,-237.1 				"/>
				<polygon class="st12" points="1218.9,-241.2 1229.4,-247.3 1229.3,-247.5 1218.9,-241.5 1208.6,-247.5 1208.4,-247.3 
					1218.9,-241.3 				"/>
				<polygon class="st12" points="1218.9,-245.4 1226.8,-250 1226.6,-250.2 1218.9,-245.7 1211.2,-250.2 1211,-250 1218.9,-245.4 
									"/>
				<polygon class="st12" points="1218.9,-249.6 1224.2,-252.6 1224,-252.8 1218.9,-249.9 1213.9,-252.8 1213.7,-252.6 
					1218.9,-249.6 				"/>
				<polygon class="st12" points="1218.9,-253.8 1221.5,-255.3 1221.3,-255.5 1218.9,-254.1 1216.5,-255.5 1216.3,-255.3 
					1218.9,-253.8 				"/>
			</g>
		</g>
		<polygon class="st8" points="785.8,-254.9 712.7,-286.8 753.2,-302.6 		"/>
		<g>
			<polygon class="st9" points="734.8,-284.3 785.8,-335.9 785.8,-254.9 			"/>
			<polygon class="st10" points="836.7,-284.3 785.8,-335.9 785.8,-254.9 			"/>
			<g>
				<polygon class="st11" points="820.9,-299.8 818.9,-301.9 785.7,-282.8 785.6,-282.8 752.5,-301.9 750.4,-299.8 785.7,-279.5 
									"/>
				<polygon class="st11" points="812.1,-308.8 810,-310.9 785.7,-296.8 785.6,-296.9 761.3,-310.9 759.3,-308.8 785.7,-293.6 				
					"/>
				<polygon class="st11" points="818.7,-302.1 816.6,-304.2 785.7,-286.3 785.6,-286.3 754.7,-304.2 752.6,-302.1 785.7,-283 				
					"/>
				<polygon class="st11" points="823.1,-297.6 821.1,-299.7 785.7,-279.2 785.6,-279.3 750.2,-299.7 748.2,-297.6 785.7,-276 				
					"/>
				<polygon class="st11" points="814.3,-306.6 812.2,-308.7 785.7,-293.3 785.6,-293.4 759.1,-308.7 757,-306.6 785.7,-290 				"/>
				<polygon class="st11" points="816.5,-304.3 814.4,-306.4 785.7,-289.8 785.6,-289.8 756.9,-306.4 754.8,-304.3 785.7,-286.5 
									"/>
				<polygon class="st11" points="825.3,-295.4 823.3,-297.4 785.7,-275.7 785.6,-275.7 748,-297.4 746,-295.4 785.7,-272.4 				"/>
				<polygon class="st11" points="827.6,-293.1 825.5,-295.2 785.7,-272.2 785.6,-272.2 745.8,-295.2 743.8,-293.1 785.7,-268.9 
									"/>
				<polygon class="st11" points="834.2,-286.4 832.1,-288.5 785.7,-261.6 785.6,-261.6 739.2,-288.5 737.1,-286.4 785.7,-258.3 
									"/>
				<polygon class="st11" points="785.6,-258.1 736.9,-286.2 734.9,-284.1 785.7,-254.8 836.4,-284.1 834.4,-286.2 785.7,-258.1 
									"/>
				<polygon class="st11" points="832,-288.6 829.9,-290.7 785.7,-265.1 785.6,-265.2 741.4,-290.7 739.3,-288.6 785.7,-261.9 				
					"/>
				<polygon class="st11" points="829.8,-290.9 827.7,-293 785.7,-268.7 785.6,-268.7 743.6,-293 741.5,-290.9 785.7,-265.4 				"/>
				<polygon class="st11" points="807.6,-313.3 805.6,-315.4 785.7,-303.9 785.6,-303.9 765.7,-315.4 763.7,-313.3 785.7,-300.6 
									"/>
				<polygon class="st11" points="789.9,-331.3 787.9,-333.3 785.7,-332.1 785.6,-332.1 783.5,-333.3 781.4,-331.3 785.7,-328.8 
									"/>
				<polygon class="st11" points="796.6,-324.5 794.5,-326.6 785.7,-321.5 785.6,-321.5 776.8,-326.6 774.8,-324.5 785.7,-318.2 
									"/>
				<polygon class="st11" points="794.3,-326.8 792.3,-328.9 785.7,-325 785.6,-325.1 779,-328.9 777,-326.8 785.7,-321.8 				"/>
				<polygon class="st11" points="792.1,-329 790.1,-331.1 785.7,-328.5 785.6,-328.6 781.2,-331.1 779.2,-329 785.7,-325.3 				"/>
				<polygon class="st11" points="787.7,-333.5 785.7,-335.6 783.6,-333.5 785.7,-332.3 				"/>
				<polygon class="st11" points="801,-320 798.9,-322.1 785.7,-314.5 785.6,-314.5 772.4,-322.1 770.3,-320 785.7,-311.2 				"/>
				<polygon class="st11" points="805.4,-315.6 803.4,-317.6 785.7,-307.4 785.6,-307.4 768,-317.6 765.9,-315.6 785.7,-304.1 				
					"/>
				<polygon class="st11" points="798.8,-322.3 796.7,-324.4 785.7,-318 785.6,-318 774.6,-324.4 772.5,-322.3 785.7,-314.7 				"/>
				<polygon class="st11" points="803.2,-317.8 801.1,-319.9 785.7,-310.9 785.6,-311 770.2,-319.9 768.1,-317.8 785.7,-307.7 				
					"/>
				<polygon class="st11" points="809.8,-311.1 807.8,-313.1 785.7,-300.4 785.6,-300.4 763.5,-313.1 761.5,-311.1 785.7,-297.1 
									"/>
				<polygon class="st12" points="785.7,-258.3 737.1,-286.4 736.9,-286.2 785.6,-258.1 785.7,-258.1 834.4,-286.2 834.2,-286.4 
									"/>
				<polygon class="st12" points="785.7,-261.6 832.1,-288.5 832,-288.6 785.7,-261.9 739.3,-288.6 739.2,-288.5 785.6,-261.6 				
					"/>
				<polygon class="st12" points="785.7,-265.1 829.9,-290.7 829.8,-290.9 785.7,-265.4 741.5,-290.9 741.4,-290.7 785.6,-265.2 
									"/>
				<polygon class="st12" points="785.7,-268.7 827.7,-293 827.6,-293.1 785.7,-268.9 743.8,-293.1 743.6,-293 785.6,-268.7 				"/>
				<polygon class="st12" points="785.7,-272.2 825.5,-295.2 825.3,-295.4 785.7,-272.4 746,-295.4 745.8,-295.2 785.6,-272.2 				
					"/>
				<polygon class="st12" points="785.7,-275.7 823.3,-297.4 823.1,-297.6 785.7,-276 748.2,-297.6 748,-297.4 785.6,-275.7 				"/>
				<polygon class="st12" points="785.7,-279.2 821.1,-299.7 820.9,-299.8 785.7,-279.5 750.4,-299.8 750.2,-299.7 785.6,-279.3 
									"/>
				<polygon class="st12" points="785.7,-282.8 818.9,-301.9 818.7,-302.1 785.7,-283 752.6,-302.1 752.5,-301.9 785.6,-282.8 				
					"/>
				<polygon class="st12" points="785.7,-286.3 816.6,-304.2 816.5,-304.3 785.7,-286.5 754.8,-304.3 754.7,-304.2 785.6,-286.3 
									"/>
				<polygon class="st12" points="785.7,-289.8 814.4,-306.4 814.3,-306.6 785.7,-290 757,-306.6 756.9,-306.4 785.6,-289.8 				"/>
				<polygon class="st12" points="785.7,-293.3 812.2,-308.7 812.1,-308.8 785.7,-293.6 759.3,-308.8 759.1,-308.7 785.6,-293.4 
									"/>
				<polygon class="st12" points="785.7,-296.8 810,-310.9 809.8,-311.1 785.7,-297.1 761.5,-311.1 761.3,-310.9 785.6,-296.9 				
					"/>
				<polygon class="st12" points="785.7,-300.4 807.8,-313.1 807.6,-313.3 785.7,-300.6 763.7,-313.3 763.5,-313.1 785.6,-300.4 
									"/>
				<polygon class="st12" points="785.7,-303.9 805.6,-315.4 805.4,-315.6 785.7,-304.1 765.9,-315.6 765.7,-315.4 785.6,-303.9 
									"/>
				<polygon class="st12" points="785.7,-307.4 803.4,-317.6 803.2,-317.8 785.7,-307.7 768.1,-317.8 768,-317.6 785.6,-307.4 				
					"/>
				<polygon class="st12" points="785.7,-310.9 801.1,-319.9 801,-320 785.7,-311.2 770.3,-320 770.2,-319.9 785.6,-311 				"/>
				<polygon class="st12" points="785.7,-314.5 798.9,-322.1 798.8,-322.3 785.7,-314.7 772.5,-322.3 772.4,-322.1 785.6,-314.5 
									"/>
				<polygon class="st12" points="785.7,-318 796.7,-324.4 796.6,-324.5 785.7,-318.2 774.8,-324.5 774.6,-324.4 785.6,-318 				"/>
				<polygon class="st12" points="785.7,-321.5 794.5,-326.6 794.3,-326.8 785.7,-321.8 777,-326.8 776.8,-326.6 785.6,-321.5 				
					"/>
				<polygon class="st12" points="785.7,-325 792.3,-328.9 792.1,-329 785.7,-325.3 779.2,-329 779,-328.9 785.6,-325.1 				"/>
				<polygon class="st12" points="785.7,-328.5 790.1,-331.1 789.9,-331.3 785.7,-328.8 781.4,-331.3 781.2,-331.1 785.6,-328.6 
									"/>
				<polygon class="st12" points="785.7,-332.1 787.9,-333.3 787.7,-333.5 785.7,-332.3 783.6,-333.5 783.5,-333.3 785.6,-332.1 
									"/>
			</g>
		</g>
	</g>
	<g class="st7">
		<defs>
			<path id="SVGID_9_" d="M778.8-588.2c-32,21.1-43.4,11.2-72,29c-38,23.6-28.4,48.3-69,91c-41.4,43.6-65.1,32.4-90,70
				c-22.5,33.9-26.8,80.5-14,118c9.2,26.8,26.4,46.3,98,96c81.1,56.3,121.7,84.5,151,94c94.3,30.6,113.4-20.5,259-12
				c113.3,6.6,140.8,39.9,213,16c65.8-21.7,103.8-69.4,116-85c12.6-16.2,76.7-102.6,53-192c-5.8-21.7-9.4-16-79-123
				c-47.5-73-47.4-78.1-64-92c-36.7-30.7-53-19-136-57c-58.8-26.9-59-36.6-101-49c-27.3-8-64-18.4-110-10c-12.1,2.2-57.5,11.7-98,47
				C806.5-621.8,808.6-608,778.8-588.2z"/>
		</defs>
		<clipPath id="SVGID_10_">
			<use xlink:href="#SVGID_9_"  style="overflow:visible;"/>
		</clipPath>
		
			<linearGradient id="SVGID_11_" gradientUnits="userSpaceOnUse" x1="-262.3099" y1="2032.11" x2="-360.8946" y2="1933.5352" gradientTransform="matrix(0.9841 -0.1776 0.1776 0.9841 1109.0638 -2454.0081)">
			<stop  offset="0" style="stop-color:#7891DE"/>
			<stop  offset="0.22" style="stop-color:#72A9D8"/>
			<stop  offset="0.74" style="stop-color:#65DDCB"/>
			<stop  offset="1" style="stop-color:#60F1C6"/>
		</linearGradient>
		<circle class="st13" cx="1154.6" cy="-447.4" r="69.7"/>
		
			<linearGradient id="SVGID_12_" gradientUnits="userSpaceOnUse" x1="-287.4145" y1="2048.7739" x2="-336.2245" y2="1916.124" gradientTransform="matrix(0.9841 -0.1776 0.1776 0.9841 1109.0638 -2454.0081)">
			<stop  offset="0" style="stop-color:#7891DE"/>
			<stop  offset="0.32" style="stop-color:#517FDE"/>
			<stop  offset="0.54" style="stop-color:#57A9D5"/>
			<stop  offset="0.85" style="stop-color:#5DDDCA"/>
			<stop  offset="1" style="stop-color:#60F1C6"/>
		</linearGradient>
		<path class="st14" d="M1217.4-477.8c0.4,0.8,0.7,1.5,1,2.3c14.7,1.8,24.2,5.9,25.3,12.1c2.4,13.4-35.5,31.5-84.8,40.4
			c-49.3,8.9-91.1,5.2-93.5-8.2c-1.1-6.2,6.3-13.4,19.5-20.2c0-0.8,0.1-1.7,0.2-2.5c-16.8,7.9-26.6,16.4-25.3,23.7
			c2.6,14.3,47.1,18.2,99.4,8.7s92.7-28.7,90.1-42.9C1248.1-471.7,1235.9-476.3,1217.4-477.8z"/>
		
			<linearGradient id="SVGID_13_" gradientUnits="userSpaceOnUse" x1="-297.9791" y1="2019.312" x2="-324.8805" y2="1946.1815" gradientTransform="matrix(0.9841 -0.1776 0.1776 0.9841 1109.0638 -2454.0081)">
			<stop  offset="0" style="stop-color:#7891DE"/>
			<stop  offset="0.32" style="stop-color:#517FDE"/>
			<stop  offset="0.54" style="stop-color:#57A9D5"/>
			<stop  offset="0.85" style="stop-color:#5DDDCA"/>
			<stop  offset="1" style="stop-color:#60F1C6"/>
		</linearGradient>
		<path class="st15" d="M1218.5-475.6c0.2,0.5,0.5,1.1,0.7,1.6c12.2,1.9,20,5.7,20.9,11.1c2.3,12.9-34,30.2-81.2,38.7
			c-47.2,8.5-87.3,5-89.6-7.9c-1-5.4,5-11.7,15.7-17.7c0-0.6,0-1.2,0.1-1.8c-13.2,6.8-20.6,14-19.5,20.2
			c2.4,13.4,44.3,17.1,93.6,8.2c49.3-8.9,87.2-27,84.8-40.4C1242.7-469.7,1233.2-473.8,1218.5-475.6z"/>
		
			<linearGradient id="SVGID_14_" gradientUnits="userSpaceOnUse" x1="-303.3722" y1="2013.8115" x2="-319.8897" y2="1952.1581" gradientTransform="matrix(0.9841 -0.1776 0.1776 0.9841 1109.0638 -2454.0081)">
			<stop  offset="0" style="stop-color:#7891DE"/>
			<stop  offset="0.32" style="stop-color:#517FDE"/>
			<stop  offset="0.54" style="stop-color:#57A9D5"/>
			<stop  offset="0.85" style="stop-color:#5DDDCA"/>
			<stop  offset="1" style="stop-color:#60F1C6"/>
		</linearGradient>
		<path class="st16" d="M1219.1-473.9c0.3,0.7,0.6,1.5,0.9,2.3c9,2,14.6,5.2,15.4,9.7c2.2,12.2-32.2,28.6-76.8,36.6
			s-82.6,4.7-84.8-7.5c-0.8-4.5,3.3-9.5,11-14.5c0-0.8,0-1.6,0-2.4c-10.8,6-16.7,12.3-15.7,17.7c2.3,12.9,42.5,16.4,89.6,7.9
			c47.1-8.5,83.6-25.9,81.2-38.7C1239.1-468.2,1231.4-472,1219.1-473.9z"/>
		
			<linearGradient id="SVGID_15_" gradientUnits="userSpaceOnUse" x1="876.8129" y1="393.1444" x2="817.3329" y2="337.0945" gradientTransform="matrix(1 0 0 1 0 -956)">
			<stop  offset="0" style="stop-color:#C29BEC"/>
			<stop  offset="0.15" style="stop-color:#C6AAE9"/>
			<stop  offset="0.72" style="stop-color:#D4DEDF"/>
			<stop  offset="1" style="stop-color:#DAF2DB"/>
		</linearGradient>
		<circle class="st17" cx="848.1" cy="-589.9" r="39.5"/>
	</g>
	<g class="st7">
		<g>
			<g>
				<rect x="938.3" y="-410.5" class="st11" width="9.7" height="9.7"/>
				<path class="st18" d="M943.3-410.5l1.9,2.6c0,0,0,0,0,0l2.6,1.9c0.1,0.1,0.1,0.3,0,0.4l-2.6,1.9c0,0,0,0,0,0l-1.9,2.6
					c-0.1,0.1-0.3,0.1-0.4,0l-1.9-2.6c0,0,0,0,0,0l-2.6-1.9c-0.1-0.1-0.1-0.3,0-0.4l2.6-1.9c0,0,0,0,0,0l1.9-2.6
					C943.1-410.6,943.2-410.6,943.3-410.5z"/>
			</g>
		</g>
	</g>
	<g class="st7">
		<g>
			<g>
				<rect x="1051.8" y="-603.1" class="st11" width="11.5" height="11.5"/>
				<path class="st18" d="M1057.7-603l2.2,3.1c0,0,0,0,0.1,0.1l3.1,2.2c0.1,0.1,0.1,0.3,0,0.4l-3.1,2.2c0,0,0,0-0.1,0.1l-2.2,3.1
					c-0.1,0.1-0.3,0.1-0.4,0l-2.2-3.1c0,0,0,0-0.1-0.1l-3.1-2.2c-0.1-0.1-0.1-0.3,0-0.4l3.1-2.2c0,0,0,0,0.1-0.1l2.2-3.1
					C1057.4-603.1,1057.6-603.1,1057.7-603z"/>
			</g>
		</g>
	</g>
	<g class="st7">
		<g>
			<g>
				<rect x="925.1" y="-530.8" class="st11" width="3.4" height="3.4"/>
				<circle class="st19" cx="926.8" cy="-529.1" r="1.7"/>
			</g>
		</g>
	</g>
	<g class="st7">
		<g>
			<g>
				<rect x="1005.9" y="-645.1" class="st11" width="1.2" height="1.2"/>
				<circle class="st19" cx="1006.5" cy="-644.5" r="0.6"/>
			</g>
		</g>
	</g>
	<g class="st7">
		<g>
			<g>
				<rect x="1040.6" y="-482.7" class="st11" width="1.2" height="1.2"/>
				<circle class="st19" cx="1041.2" cy="-482.1" r="0.6"/>
			</g>
		</g>
	</g>
	<g class="st7">
		<g>
			<g>
				<rect x="840.1" y="-415.6" class="st11" width="3.9" height="3.9"/>
				<circle class="st19" cx="842" cy="-413.7" r="2"/>
			</g>
		</g>
	</g>
	<g class="st7">
		<g>
			<g>
				<rect x="950.3" y="-650.6" class="st11" width="2" height="2"/>
				<circle class="st19" cx="951.3" cy="-649.6" r="1"/>
			</g>
		</g>
	</g>
	<g class="st7">
		<g>
			<g>
				<rect x="855.3" y="-350.4" class="st11" width="2.2" height="2.2"/>
				<circle class="st19" cx="856.3" cy="-349.3" r="1.1"/>
			</g>
		</g>
	</g>
	<linearGradient id="SVGID_16_" gradientUnits="userSpaceOnUse" x1="949.723" y1="-608.6705" x2="988.4913" y2="-608.6705">
		<stop  offset="8.204796e-07" style="stop-color:#C1DCE3"/>
		<stop  offset="0.3372" style="stop-color:#ADCBD8"/>
		<stop  offset="1" style="stop-color:#7BA2BE"/>
	</linearGradient>
	<path class="st20" d="M950.2-592.5l36.7-34.8c0.1-0.1,0.1-0.1,0.2,0c0.1,0.1,0.1,0.1,0,0.2l-34.8,36.7c-0.6,0.6-1.5,0.6-2.1,0.1
		C949.6-590.9,949.6-591.9,950.2-592.5C950.1-592.5,950.2-592.5,950.2-592.5z"/>
	<linearGradient id="SVGID_17_" gradientUnits="userSpaceOnUse" x1="982.1273" y1="-607.6705" x2="1005.5644" y2="-607.6705">
		<stop  offset="8.204796e-07" style="stop-color:#C1DCE3"/>
		<stop  offset="0.3372" style="stop-color:#ADCBD8"/>
		<stop  offset="1" style="stop-color:#7BA2BE"/>
	</linearGradient>
	<path class="st21" d="M982.4-597.9l22.2-21.1c0,0,0.1,0,0.1,0c0,0,0,0.1,0,0.1l-21.1,22.2c-0.3,0.4-0.9,0.4-1.3,0
		C982-596.9,982-597.5,982.4-597.9C982.4-597.9,982.4-597.9,982.4-597.9z"/>
</g>
<g class="st22">
	<g>
		<g>
			<rect x="68.8" y="12.9" class="st11" width="4.2" height="4.2"/>
			<path class="st23" d="M71,12.9l0.8,1.1c0,0,0,0,0,0l1.1,0.8c0.1,0,0.1,0.1,0,0.2l-1.1,0.8c0,0,0,0,0,0L71,17.1
				c0,0.1-0.1,0.1-0.2,0L70,16c0,0,0,0,0,0l-1.1-0.8c-0.1,0-0.1-0.1,0-0.2l1.1-0.8c0,0,0,0,0,0l0.8-1.1C70.9,12.9,71,12.9,71,12.9z"
				/>
		</g>
	</g>
</g>
<g class="st22">
	<g>
		<g>
			<rect x="207.9" y="182.4" class="st11" width="9.6" height="9.6"/>
			<path class="st23" d="M212.8,182.5l1.9,2.6c0,0,0,0,0,0l2.6,1.9c0.1,0.1,0.1,0.3,0,0.4l-2.6,1.9c0,0,0,0,0,0l-1.9,2.6
				c-0.1,0.1-0.3,0.1-0.4,0l-1.9-2.6c0,0,0,0,0,0l-2.6-1.9c-0.1-0.1-0.1-0.3,0-0.4l2.6-1.9c0,0,0,0,0,0l1.9-2.6
				C212.6,182.4,212.7,182.4,212.8,182.5z"/>
		</g>
	</g>
</g>
<g class="st22">
	<g>
		<g>
			<rect x="97.9" y="227.1" class="st11" width="9.4" height="9.4"/>
			<path class="st23" d="M102.8,227.2l1.8,2.5c0,0,0,0,0,0l2.5,1.8c0.1,0.1,0.1,0.3,0,0.3l-2.5,1.8c0,0,0,0,0,0l-1.8,2.5
				c-0.1,0.1-0.3,0.1-0.3,0l-1.8-2.5c0,0,0,0,0,0L98,232c-0.1-0.1-0.1-0.3,0-0.3l2.5-1.8c0,0,0,0,0,0l1.8-2.5
				C102.5,227.1,102.7,227.1,102.8,227.2z"/>
		</g>
	</g>
</g>
<g class="st22">
	<g>
		<g>
			<rect x="19.6" y="62.9" class="st11" width="10.8" height="10.8"/>
			<path class="st23" d="M25.2,63l2.1,2.9c0,0,0,0,0.1,0.1l2.9,2.1c0.1,0.1,0.1,0.3,0,0.4l-2.9,2.1c0,0,0,0-0.1,0.1l-2.1,2.9
				c-0.1,0.1-0.3,0.1-0.4,0l-2.1-2.9c0,0,0,0-0.1-0.1l-2.9-2.1c-0.1-0.1-0.1-0.3,0-0.4l2.9-2.1c0,0,0,0,0.1-0.1l2.1-2.9
				C24.9,62.8,25.1,62.8,25.2,63z"/>
		</g>
	</g>
</g>
<g class="st22">
	<g>
		<g>
			<rect x="64.1" y="158.6" class="st11" width="1.5" height="1.5"/>
			<circle class="st24" cx="64.8" cy="159.4" r="0.8"/>
		</g>
	</g>
</g>
<g class="st22">
	<g>
		<g>
			<rect x="165.6" y="223.4" class="st11" width="2.6" height="2.6"/>
			<circle class="st24" cx="167" cy="224.7" r="1.3"/>
		</g>
	</g>
</g>
<g class="st22">
	<g>
		<g>
			<rect x="45.3" y="242" class="st11" width="2.3" height="2.3"/>
			<circle class="st24" cx="46.4" cy="243.1" r="1.1"/>
		</g>
	</g>
</g>
<g class="st22">
	<g>
		<g>
			<rect x="54.8" y="28.9" class="st11" width="3.6" height="3.6"/>
			<circle class="st24" cx="56.7" cy="30.7" r="1.8"/>
		</g>
	</g>
</g>
<g class="st22">
	<g>
		<g>
			<rect x="10.9" y="154.5" class="st11" width="1.7" height="1.7"/>
			<circle class="st24" cx="11.7" cy="155.3" r="0.8"/>
		</g>
	</g>
</g>
<g class="st22">
	<g>
		<g>
			<rect x="184.1" y="307.2" class="st11" width="2.5" height="2.5"/>
			<circle class="st24" cx="185.3" cy="308.5" r="1.3"/>
		</g>
	</g>
</g>
<linearGradient id="SVGID_18_" gradientUnits="userSpaceOnUse" x1="96.3508" y1="1163.1725" x2="74.2152" y2="1142.3134" gradientTransform="matrix(1 0 0 1 0 -956)">
	<stop  offset="0" style="stop-color:#8296FA"/>
	<stop  offset="0.3" style="stop-color:#7BBFFA"/>
	<stop  offset="0.77" style="stop-color:#71FAF8"/>
	<stop  offset="1" style="stop-color:#65FDE7"/>
</linearGradient>
<circle class="st25" cx="85.7" cy="197.1" r="14.7"/>
</svg>
