<?xml version="1.0" encoding="utf-8"?>
<!-- Generator: Adobe Illustrator 23.0.6, SVG Export Plug-In . SVG Version: 6.00 Build 0)  -->
<svg version="1.1" id="Calque_1" xmlns="http://www.w3.org/2000/svg" xmlns:xlink="http://www.w3.org/1999/xlink" x="0px" y="0px"
	 viewBox="0 0 155.4 179.9" style="enable-background:new 0 0 155.4 179.9;" xml:space="preserve">
<style type="text/css">
	.st0{opacity:0;fill:url(#SVGID_1_);}
	.st1{opacity:0;fill:url(#SVGID_2_);}
	.st2{fill:url(#SVGID_3_);}
	.st3{opacity:0.6;fill:url(#SVGID_4_);enable-background:new    ;}
	.st4{opacity:0;}
	.st5{fill:none;}
	.st6{fill:#F8EEDC;}
	.st7{fill:#D5E5EF;}
</style>
<title>our_game_bottom_leftFichier 1</title>
<linearGradient id="SVGID_1_" gradientUnits="userSpaceOnUse" x1="110.0279" y1="-819.8267" x2="65.3059" y2="-864.5735" gradientTransform="matrix(1 0 0 1 0 897.0801)">
	<stop  offset="0" style="stop-color:#7485DE"/>
	<stop  offset="0.3" style="stop-color:#6DA9DD"/>
	<stop  offset="0.77" style="stop-color:#64DDDC"/>
	<stop  offset="1" style="stop-color:#60F1DC"/>
</linearGradient>
<path class="st0" d="M87.7,86.5c17.5,0,31.6-14.2,31.6-31.6s-14.2-31.6-31.6-31.6C70.2,23.3,56,37.4,56,54.9
	C56.1,72.4,70.2,86.5,87.7,86.5L87.7,86.5z"/>
<linearGradient id="SVGID_2_" gradientUnits="userSpaceOnUse" x1="87.7051" y1="-825.1874" x2="87.7051" y2="-857.995" gradientTransform="matrix(1 0 0 1 0 897.0801)">
	<stop  offset="0" style="stop-color:#80FFE1"/>
	<stop  offset="0.27" style="stop-color:#A5E1E7;stop-opacity:0.73"/>
	<stop  offset="1" style="stop-color:#85A5FF;stop-opacity:0"/>
</linearGradient>
<path class="st1" d="M121.7,55.7c-0.8-0.4-1.6-0.8-2.4-1.2v1.3c0.6,0.3,1.2,0.6,1.8,1c7.5,3.9,11.6,7.8,10.9,10.3
	c-0.7,2.5-6.1,3.9-14.6,3.7c-9-0.2-20.5-2-32.5-5.1c-26.5-6.9-43-16.8-41.7-21.7c0.6-2.4,5.4-3.7,13.1-3.7c1,0,2.1,0,3.2,0.1
	c0.2-0.4,0.2-0.8,0.5-1.1c-9.8-0.5-17,0.7-17.9,4.4c-1.8,7,20.2,17.3,42.6,23.1c12.1,3.1,23.6,5,32.7,5.2c0.5,0,1,0,1.6,0
	c6.2,0,13.2-0.8,14.1-4.6C134.2,63.3,127.5,58.8,121.7,55.7z"/>
<linearGradient id="SVGID_3_" gradientUnits="userSpaceOnUse" x1="-1522.6841" y1="-1926.0903" x2="-1588.834" y2="-1859.9404" gradientTransform="matrix(0.9448 -0.3252 -0.3252 -0.9448 879.0868 -2144.6741)">
	<stop  offset="0" style="stop-color:#ECB7A0"/>
	<stop  offset="0.61" style="stop-color:#F3DF93"/>
	<stop  offset="1" style="stop-color:#F6F38D"/>
</linearGradient>
<circle class="st2" cx="25.2" cy="150.1" r="46.8"/>
<linearGradient id="SVGID_4_" gradientUnits="userSpaceOnUse" x1="51.8109" y1="-924.933" x2="42.8447" y2="-891.4522" gradientTransform="matrix(0.9883 -0.1528 -0.1528 -0.9883 -159.8693 -739.333)">
	<stop  offset="0" style="stop-color:#ECB7A0"/>
	<stop  offset="0.32" style="stop-color:#ECA88A"/>
	<stop  offset="0.34" style="stop-color:#ECAB8A"/>
	<stop  offset="0.78" style="stop-color:#F3DF8C"/>
	<stop  offset="1" style="stop-color:#F6F38D"/>
</linearGradient>
<path class="st3" d="M86.3,129.1c-1.6-4.7-10.1-6.5-22.5-5.5c0.3,0.5,0.6,0.9,1,1.4c0.2,0.4,0.4,0.7,0.6,1c0.3,0.5,0.5,0.9,0.8,1.4
	c6.1,0.4,10.2,2,11.2,4.9c2.7,7.9-18.4,22.3-47.1,32.1s-54.3,11.6-57,3.7c-1-2.9,1.2-6.6,5.8-10.7c-0.1-0.5-0.1-1.1-0.2-1.6
	c-0.1-0.4-0.1-0.8-0.1-1.2c0-0.5-0.1-1.1-0.1-1.7c-10.3,6.9-15.9,13.6-14.3,18.3c3.2,9.2,33,7.2,66.7-4.4
	C64.7,155.2,89.5,138.3,86.3,129.1z"/>
<g class="st4">
	<g>
		<g>
			<rect x="208.1" y="14.2" class="st5" width="4.2" height="4.2"/>
			<path class="st6" d="M210.3,14.2l0.8,1.1c0,0,0,0,0,0l1.1,0.8c0.1,0,0.1,0.1,0,0.2l-1.1,0.8c0,0,0,0,0,0l-0.8,1.1
				c0,0.1-0.1,0.1-0.2,0l-0.8-1.1c0,0,0,0,0,0l-1.1-0.8c-0.1,0-0.1-0.1,0-0.2l1.1-0.8c0,0,0,0,0,0l0.8-1.1
				C210.2,14.2,210.3,14.2,210.3,14.2z"/>
		</g>
	</g>
</g>
<g class="st4">
	<g>
		<g>
			<rect x="195" y="31.1" class="st5" width="1.8" height="1.8"/>
			<circle class="st7" cx="195.9" cy="32" r="0.9"/>
		</g>
	</g>
</g>
<g class="st4">
	<g>
		<g>
			<rect x="20.4" y="26.6" class="st5" width="7.7" height="7.7"/>
			<path class="st6" d="M24.4,26.6l1.5,2.1c0,0,0,0,0,0l2.1,1.5c0.1,0.1,0.1,0.2,0,0.3l-2.1,1.5c0,0,0,0,0,0l-1.5,2.1
				c-0.1,0.1-0.2,0.1-0.3,0l-1.5-2.1c0,0,0,0,0,0l-2.1-1.5c-0.1-0.1-0.1-0.2,0-0.3l2.1-1.5c0,0,0,0,0,0l1.5-2.1
				C24.2,26.5,24.3,26.5,24.4,26.6z"/>
		</g>
	</g>
</g>
<g class="st4">
	<g>
		<g>
			<rect x="127.9" y="146.4" class="st5" width="3.2" height="3.2"/>
			<path class="st6" d="M129.5,146.5l0.6,0.9c0,0,0,0,0,0l0.9,0.6c0,0,0,0.1,0,0.1l-0.9,0.6c0,0,0,0,0,0l-0.6,0.9c0,0-0.1,0-0.1,0
				l-0.6-0.9c0,0,0,0,0,0l-0.9-0.6c0,0,0-0.1,0-0.1l0.9-0.6c0,0,0,0,0,0l0.6-0.9C129.4,146.4,129.5,146.4,129.5,146.5z"/>
		</g>
	</g>
</g>
<g class="st4">
	<g>
		<g>
			<rect x="31.7" y="64.2" class="st5" width="5.6" height="5.6"/>
			<path class="st6" d="M34.6,64.2l1.1,1.5c0,0,0,0,0,0l1.5,1.1c0.1,0.1,0.1,0.2,0,0.2l-1.5,1.1c0,0,0,0,0,0l-1.1,1.5
				c-0.1,0.1-0.2,0.1-0.2,0l-1.1-1.5c0,0,0,0,0,0l-1.5-1.1c-0.1-0.1-0.1-0.2,0-0.2l1.5-1.1c0,0,0,0,0,0l1.1-1.5
				C34.4,64.2,34.5,64.2,34.6,64.2z"/>
		</g>
	</g>
</g>
<g class="st4">
	<g>
		<g>
			<rect x="138.3" y="3.3" class="st5" width="5.7" height="5.7"/>
			<path class="st6" d="M141.3,3.3l1.1,1.5c0,0,0,0,0,0L144,6c0.1,0.1,0.1,0.2,0,0.2l-1.5,1.1c0,0,0,0,0,0l-1.1,1.5
				c-0.1,0.1-0.2,0.1-0.2,0L140,7.4c0,0,0,0,0,0l-1.5-1.1c-0.1-0.1-0.1-0.2,0-0.2l1.5-1.1c0,0,0,0,0,0l1.1-1.5
				C141.1,3.2,141.2,3.2,141.3,3.3z"/>
		</g>
	</g>
</g>
<g class="st4">
	<g>
		<g>
			<rect x="142.2" y="121.9" class="st5" width="0.9" height="0.9"/>
			<circle class="st7" cx="142.7" cy="122.4" r="0.5"/>
		</g>
	</g>
</g>
<g class="st4">
	<g>
		<g>
			<rect x="66" y="97.8" class="st5" width="1.2" height="1.2"/>
			<circle class="st7" cx="66.6" cy="98.4" r="0.6"/>
		</g>
	</g>
</g>
<g class="st4">
	<g>
		<g>
			<rect x="23.6" y="84.5" class="st5" width="1.2" height="1.2"/>
			<circle class="st7" cx="24.2" cy="85.1" r="0.6"/>
		</g>
	</g>
</g>
<g class="st4">
	<g>
		<g>
			<rect x="60.3" y="14" class="st5" width="1.4" height="1.4"/>
			<circle class="st7" cx="61" cy="14.6" r="0.7"/>
		</g>
	</g>
</g>
<g class="st4">
	<g>
		<g>
			<rect x="140.3" y="33.7" class="st5" width="1.8" height="1.8"/>
			<circle class="st7" cx="141.2" cy="34.6" r="0.9"/>
		</g>
	</g>
</g>
<g class="st4">
	<g>
		<g>
			<rect x="90.9" y="168.1" class="st5" width="0.4" height="0.4"/>
			<circle class="st7" cx="91.1" cy="168.3" r="0.2"/>
		</g>
	</g>
</g>
</svg>
