<?xml version="1.0" encoding="utf-8"?>
<!-- Generator: Adobe Illustrator 23.0.6, SVG Export Plug-In . SVG Version: 6.00 Build 0)  -->
<svg version="1.1" id="Calque_1" xmlns="http://www.w3.org/2000/svg" xmlns:xlink="http://www.w3.org/1999/xlink" x="0px" y="0px"
	 viewBox="0 0 935.8 412.9" style="enable-background:new 0 0 935.8 412.9;" xml:space="preserve">
<style type="text/css">
	.st0{opacity:0.6;}
	.st1{fill:url(#SVGID_1_);}
	.st2{fill:none;}
	.st3{fill:#E1DCFF;}
	.st4{opacity:0.8;fill:url(#SVGID_2_);enable-background:new    ;}
	.st5{opacity:0.8;fill:url(#SVGID_3_);enable-background:new    ;}
</style>
<title>random barely visible rift6Fichier 2</title>
<g>
	<g id="Calque_1-2">
		<g class="st0">
			
				<linearGradient id="SVGID_1_" gradientUnits="userSpaceOnUse" x1="0" y1="207.5481" x2="935.7726" y2="207.5481" gradientTransform="matrix(1 0 0 -1 0 414)">
				<stop  offset="0" style="stop-color:#76ABD6"/>
				<stop  offset="0.14" style="stop-color:#5F9EDD;stop-opacity:0.89"/>
				<stop  offset="1" style="stop-color:#00112D"/>
			</linearGradient>
			<path class="st1" d="M935.8,0c-1.9,0.3-3.7,0.6-5.5,1c-63.7,12.1-90.8,48.6-186.8,76.5c-97,28.2-125.9-12.4-217,5.5
				c-92.3,18.1-101.3,78.5-210,136.2c-68.4,36.3-101.3,24.1-148.3,39.2c-17.4,5.6-28.6,12.2-45.9,22c0,0-80.7,45.2-117.5,114.6
				c-6.4,12.1-4.8,15.5-3.8,16.7c3.4,3.7,14.3-1.1,18.2-2.8c32.3-14.1,66.5-23.2,100.2-33.3c129.2-38.8,167.8,7.4,299.4-19.3
				c102.9-20.9,91.5-48.1,166.9-51.5c111.7-4.9,119.3,55.6,226.5,45c34.9-3.5,72.7-13.7,123.6-13L935.8,0z"/>
			<rect x="176.6" y="314.7" class="st2" width="1" height="1"/>
			<circle class="st3" cx="177.1" cy="315.2" r="0.5"/>
			<rect x="502" y="190.8" class="st2" width="4.1" height="4.1"/>
			<circle class="st3" cx="504.1" cy="192.9" r="2.1"/>
			<rect x="796.2" y="237.4" class="st2" width="3.4" height="3.4"/>
			<circle class="st3" cx="797.9" cy="239.2" r="1.7"/>
			<rect x="921.6" y="129.5" class="st2" width="1.3" height="1.3"/>
			<circle class="st3" cx="922.2" cy="130.1" r="0.6"/>
			<rect x="688.5" y="141.1" class="st2" width="3.8" height="3.8"/>
			<circle class="st3" cx="690.4" cy="143" r="1.9"/>
			<rect x="923.4" y="131.4" class="st2" width="2.7" height="2.7"/>
			<circle class="st3" cx="924.8" cy="132.8" r="1.3"/>
			<rect x="975.1" y="60.7" class="st2" width="1" height="1"/>
			<circle class="st3" cx="975.6" cy="61.2" r="0.5"/>
			<rect x="897.9" y="252.7" class="st2" width="1.3" height="1.3"/>
			<circle class="st3" cx="898.5" cy="253.3" r="0.6"/>
			<rect x="801.9" y="174.4" class="st2" width="3.8" height="3.8"/>
			<circle class="st3" cx="803.8" cy="176.3" r="1.9"/>
			<rect x="704.1" y="249.7" class="st2" width="1.2" height="1.2"/>
			<circle class="st3" cx="704.7" cy="250.3" r="0.6"/>
			<rect x="610.8" y="223.3" class="st2" width="1.7" height="1.7"/>
			<circle class="st3" cx="611.6" cy="224.1" r="0.8"/>
			<rect x="114.2" y="339.9" class="st2" width="1" height="1"/>
			<circle class="st3" cx="114.7" cy="340.4" r="0.5"/>
			<rect x="270.2" y="297.1" class="st2" width="1.4" height="1.4"/>
			<circle class="st3" cx="270.9" cy="297.8" r="0.7"/>
			<rect x="722.1" y="230.9" class="st2" width="3.6" height="3.6"/>
			<circle class="st3" cx="723.9" cy="232.7" r="1.8"/>
			<rect x="825.4" y="301.4" class="st2" width="4" height="4"/>
			<circle class="st3" cx="827.4" cy="303.4" r="2"/>
			<rect x="922.2" y="266" class="st2" width="1.7" height="1.7"/>
			<circle class="st3" cx="923" cy="266.8" r="0.8"/>
			<rect x="867.5" y="80.6" class="st2" width="3.5" height="3.5"/>
			<circle class="st3" cx="869.2" cy="82.3" r="1.7"/>
			
				<linearGradient id="SVGID_2_" gradientUnits="userSpaceOnUse" x1="635.3071" y1="483.0206" x2="680.4971" y2="483.0206" gradientTransform="matrix(0.9436 0.331 0.331 -0.9436 -171.1245 375.5341)">
				<stop  offset="0" style="stop-color:#8FDBF5"/>
				<stop  offset="2.000000e-02" style="stop-color:#91DCF5;stop-opacity:0.99"/>
				<stop  offset="0.69" style="stop-color:#E0F5FC;stop-opacity:0.71"/>
				<stop  offset="1" style="stop-color:#FFFFFF;stop-opacity:0.6"/>
			</linearGradient>
			<path class="st4" d="M582.5,148l53.8-24.1c0.1,0,0.2,0,0.2,0.1c0,0.1,0,0.2-0.1,0.2c0,0,0,0,0,0l-52.5,27c-0.9,0.4-1.9,0-2.3-0.9
				C581.4,149.5,581.7,148.5,582.5,148L582.5,148z"/>
			
				<linearGradient id="SVGID_3_" gradientUnits="userSpaceOnUse" x1="322.4871" y1="212.7082" x2="358.3371" y2="212.7082" gradientTransform="matrix(0.9436 0.331 0.331 -0.9436 -171.1245 375.5341)">
				<stop  offset="0" style="stop-color:#8FDBF5"/>
				<stop  offset="2.000000e-02" style="stop-color:#91DCF5;stop-opacity:0.99"/>
				<stop  offset="0.69" style="stop-color:#E0F5FC;stop-opacity:0.71"/>
				<stop  offset="1" style="stop-color:#FFFFFF;stop-opacity:0.6"/>
			</linearGradient>
			<path class="st5" d="M199,295.9l42.7-19.1c0.1,0,0.1,0,0.2,0.1c0,0.1,0,0.1-0.1,0.2l-41.6,21.4c-0.7,0.2-1.5-0.2-1.7-0.9
				C198.3,296.9,198.5,296.2,199,295.9L199,295.9z"/>
			<rect x="388.6" y="297.7" class="st2" width="1.9" height="1.9"/>
			<circle class="st3" cx="389.5" cy="298.7" r="0.9"/>
			<rect x="499.7" y="298.5" class="st2" width="3.4" height="3.4"/>
			<circle class="st3" cx="501.4" cy="300.2" r="1.7"/>
			<rect x="403" y="218.7" class="st2" width="3.7" height="3.7"/>
			<circle class="st3" cx="404.9" cy="220.5" r="1.8"/>
			<rect x="499.3" y="154.1" class="st2" width="1" height="1.1"/>
			<circle class="st3" cx="499.8" cy="154.7" r="0.5"/>
			<rect x="140.5" y="354.5" class="st2" width="1.7" height="1.7"/>
			<circle class="st3" cx="141.4" cy="355.4" r="0.9"/>
			<rect x="735.4" y="304.4" class="st2" width="0.7" height="0.7"/>
			<circle class="st3" cx="735.8" cy="304.8" r="0.4"/>
			<rect x="796.6" y="103.7" class="st2" width="0.8" height="0.8"/>
			<circle class="st3" cx="797" cy="104.1" r="0.4"/>
			<rect x="748" y="108.7" class="st2" width="3" height="3"/>
			<circle class="st3" cx="749.5" cy="110.2" r="1.5"/>
			<rect x="757.1" y="307.8" class="st2" width="3.3" height="3.3"/>
			<circle class="st3" cx="758.7" cy="309.4" r="1.6"/>
			<rect x="568.2" y="282.8" class="st2" width="4.2" height="4.2"/>
			<circle class="st3" cx="570.3" cy="284.9" r="2.1"/>
			<rect x="528.2" y="135.6" class="st2" width="1.4" height="1.4"/>
			<circle class="st3" cx="528.9" cy="136.3" r="0.7"/>
			<rect x="476.4" y="243.1" class="st2" width="4" height="4"/>
			<circle class="st3" cx="478.4" cy="245.1" r="2"/>
			<rect x="298.7" y="325.8" class="st2" width="0.8" height="0.8"/>
			<circle class="st3" cx="299.2" cy="326.2" r="0.4"/>
			<rect x="341.6" y="260" class="st2" width="3.9" height="3.9"/>
			<circle class="st3" cx="343.6" cy="261.9" r="2"/>
			<rect x="313" y="338.6" class="st2" width="2.9" height="2.9"/>
			<circle class="st3" cx="314.5" cy="340" r="1.4"/>
		</g>
	</g>
</g>
</svg>
