<?xml version="1.0" encoding="utf-8"?>
<!-- Generator: Adobe Illustrator 23.0.6, SVG Export Plug-In . SVG Version: 6.00 Build 0)  -->
<svg version="1.1" id="Calque_1" xmlns="http://www.w3.org/2000/svg" xmlns:xlink="http://www.w3.org/1999/xlink" x="0px" y="0px"
	 viewBox="0 0 814.3 711.6" style="enable-background:new 0 0 814.3 711.6;" xml:space="preserve">
<style type="text/css">
	.st0{clip-path:url(#SVGID_2_);}
	.st1{fill:url(#SVGID_3_);}
	.st2{opacity:0.8;fill:url(#SVGID_4_);enable-background:new    ;}
	.st3{fill:none;}
	.st4{fill:#C7FFEE;}
	.st5{fill:#FFF9C2;}
	.st6{fill:#FFFFFF;}
	.st7{clip-path:url(#SVGID_6_);}
	.st8{fill:url(#SVGID_7_);}
	.st9{fill:url(#SVGID_8_);}
	.st10{fill:url(#SVGID_9_);}
	.st11{opacity:0.6;fill:url(#SVGID_10_);enable-background:new    ;}
	.st12{fill:url(#SVGID_11_);}
	.st13{fill:#E4F2BB;}
	.st14{opacity:0.8;fill:#747E6D;enable-background:new    ;}
	.st15{fill:#E3EAE7;}
	.st16{fill:#96A18E;}
	.st17{fill:#AEB9AB;}
	.st18{fill:#747E6D;}
	.st19{fill:#CBD4CC;}
	.st20{fill:url(#SVGID_12_);}
	.st21{fill:url(#SVGID_13_);}
	.st22{fill:url(#SVGID_14_);}
	.st23{fill:url(#SVGID_15_);}
	.st24{opacity:0.6;fill:url(#SVGID_16_);enable-background:new    ;}
	.st25{opacity:0.3;fill:url(#SVGID_17_);enable-background:new    ;}
	.st26{opacity:0.6;fill:url(#SVGID_18_);enable-background:new    ;}
</style>
<title>random barely visible rift4Fichier 2</title>
<g>
	<defs>
		<rect id="SVGID_1_" width="814.3" height="711.6"/>
	</defs>
	<clipPath id="SVGID_2_">
		<use xlink:href="#SVGID_1_"  style="overflow:visible;"/>
	</clipPath>
	<g class="st0">
		<g id="Calque_1-2">
			
				<linearGradient id="SVGID_3_" gradientUnits="userSpaceOnUse" x1="1591.4802" y1="636.45" x2="2405.7317" y2="636.45" gradientTransform="matrix(-1 0 0 1 2405.7803 -116)">
				<stop  offset="6.766293e-07" style="stop-color:#00112D"/>
				<stop  offset="0.57" style="stop-color:#19A3BA;stop-opacity:0.62"/>
				<stop  offset="0.86" style="stop-color:#18B6BE;stop-opacity:0.89"/>
				<stop  offset="1" style="stop-color:#17BCBF"/>
			</linearGradient>
			<path class="st1" d="M0.1,707.3c0-0.8,0-1.7,0-2.5c-1.3-24.4,22.1-92.6,67.2-149.3c56.4-70.9,95.2-48.5,163-122
				c83.5-90.4,71.9-150.4,153-198c80.1-47,120.8-18.3,203-77c81.4-58.1,94.9-101.4,151-134C755.1,14.2,780,3.9,814.3,0v1040.9
				c-22.9-10-46.5-18.2-70.7-24.4c-97.8-25.7-125.5,15.6-217.1,0.2c-92.8-15.7-103.3-76-213.5-130.9
				c-89.5-44.6-117.8-9.9-195.8-56.2C49.8,789.6,1.4,728,0.1,708.8c0-0.2,0-0.3,0-0.4s0-0.3,0-0.5s0-0.1,0-0.1S0.1,707.5,0.1,707.3z
				"/>
			
				<linearGradient id="SVGID_4_" gradientUnits="userSpaceOnUse" x1="684.4331" y1="245.7226" x2="721.3232" y2="245.7226" gradientTransform="matrix(1 0 0 1 0 -116)">
				<stop  offset="0" style="stop-color:#8FDBF5"/>
				<stop  offset="2.000000e-02" style="stop-color:#91DCF5;stop-opacity:0.99"/>
				<stop  offset="0.69" style="stop-color:#E0F5FC;stop-opacity:0.71"/>
				<stop  offset="1" style="stop-color:#FFFFFF;stop-opacity:0.6"/>
			</linearGradient>
			<path class="st2" d="M685,145.1l35-33.2c0-0.1,0.1-0.1,0.2,0l0,0c0,0.1,0,0.1,0,0.2l-33.1,35c-0.5,0.6-1.4,0.7-2,0.2
				s-0.7-1.4-0.2-2C684.8,145.2,684.8,145.2,685,145.1C685,145.2,685,145.1,685,145.1z"/>
			<rect x="357.7" y="405.6" class="st3" width="3.5" height="3.5"/>
			<circle class="st4" cx="359.5" cy="407.3" r="1.7"/>
			<rect x="477.3" y="304.9" class="st3" width="3.3" height="3.3"/>
			<circle class="st4" cx="479" cy="306.5" r="1.6"/>
			<rect x="91" y="590.3" class="st3" width="0.8" height="0.8"/>
			<circle class="st4" cx="91.5" cy="590.7" r="0.4"/>
			<rect x="302.1" y="622.9" class="st3" width="2.9" height="2.9"/>
			<circle class="st4" cx="303.6" cy="624.4" r="1.5"/>
			<rect x="396.7" y="612.7" class="st3" width="2" height="2"/>
			<circle class="st4" cx="397.8" cy="613.7" r="1"/>
			<rect x="546.7" y="356.6" class="st3" width="4" height="4"/>
			<circle class="st4" cx="548.7" cy="358.6" r="2"/>
			<rect x="805.5" y="152.1" class="st3" width="1" height="1"/>
			<circle class="st4" cx="806" cy="152.6" r="0.5"/>
			<rect x="659.7" y="121.3" class="st3" width="4.4" height="4.4"/>
			<circle class="st4" cx="662" cy="123.5" r="2.2"/>
			<rect x="795" y="366.7" class="st3" width="3.7" height="3.7"/>
			<circle class="st5" cx="796.8" cy="368.6" r="1.9"/>
			<rect x="720.5" y="311.5" class="st3" width="0.9" height="0.9"/>
			<circle class="st5" cx="721" cy="311.9" r="0.5"/>
			<rect x="108.3" y="570.9" class="st3" width="4.4" height="4.4"/>
			<circle class="st5" cx="110.5" cy="573.1" r="2.2"/>
			<rect x="768.5" y="161" class="st3" width="3" height="3"/>
			<circle class="st5" cx="770" cy="162.5" r="1.5"/>
			<rect x="612.8" y="248.9" class="st3" width="2" height="2"/>
			<circle class="st5" cx="613.8" cy="249.9" r="1"/>
			<rect x="350.6" y="292.3" class="st3" width="1" height="1"/>
			<circle class="st5" cx="351" cy="292.8" r="0.5"/>
			<rect x="366.5" y="313.5" class="st3" width="4.4" height="4.4"/>
			<circle class="st6" cx="368.7" cy="315.7" r="2.2"/>
			<rect x="571.7" y="293.6" class="st3" width="1.4" height="1.4"/>
			<circle class="st6" cx="572.5" cy="294.3" r="0.7"/>
			<rect x="743.5" y="116.1" class="st3" width="4" height="4"/>
			<circle class="st6" cx="745.5" cy="118.1" r="2"/>
			<rect x="544.8" y="265.2" class="st3" width="6.1" height="6.1"/>
			<circle class="st6" cx="548" cy="268.2" r="3.1"/>
			<rect x="415.2" y="278.8" class="st3" width="3.5" height="3.5"/>
			<circle class="st6" cx="417" cy="280.5" r="1.7"/>
			<rect x="384.5" y="579.6" class="st3" width="5.4" height="5.4"/>
			<circle class="st6" cx="387" cy="582.3" r="2.7"/>
			<rect x="299.1" y="581.6" class="st3" width="4.4" height="4.3"/>
			<circle class="st6" cx="301.2" cy="583.8" r="2.2"/>
			<rect x="771.6" y="387.8" class="st3" width="3" height="3"/>
			<circle class="st6" cx="773.1" cy="389.3" r="1.5"/>
			<rect x="695.1" y="403.1" class="st3" width="3.3" height="3.3"/>
			<circle class="st6" cx="696.8" cy="404.7" r="1.7"/>
			<rect x="583" y="481" class="st3" width="3.5" height="3.5"/>
			<circle class="st6" cx="584.7" cy="482.7" r="1.7"/>
			<rect x="448.5" y="435.3" class="st3" width="2.9" height="2.9"/>
			<circle class="st6" cx="450" cy="436.8" r="1.4"/>
			<rect x="347.6" y="334.5" class="st3" width="2.2" height="2.2"/>
			<circle class="st6" cx="348.7" cy="335.6" r="1.1"/>
			<rect x="612" y="208.3" class="st3" width="3.4" height="3.4"/>
			<circle class="st6" cx="613.8" cy="210" r="1.7"/>
			<rect x="680" y="300.7" class="st3" width="2.5" height="2.5"/>
			<circle class="st6" cx="681.2" cy="301.9" r="1.3"/>
			<rect x="694.5" y="254" class="st3" width="4" height="4"/>
			<circle class="st6" cx="696.5" cy="256" r="2"/>
			<rect x="219.5" y="589.3" class="st3" width="4.4" height="4.4"/>
			<circle class="st6" cx="221.6" cy="591.5" r="2.2"/>
			<rect x="317.5" y="354.9" class="st3" width="1.3" height="1.3"/>
			<circle class="st6" cx="318.1" cy="355.6" r="0.6"/>
			<g>
				<g>
					<g>
						<g>
							<g>
								<g>
									<defs>
										<path id="SVGID_5_" d="M0.1,707.3c0-0.8,0-1.7,0-2.5c-1.3-24.4,22.1-92.6,67.2-149.3c56.4-70.9,95.2-48.5,163-122
											c83.5-90.4,71.9-150.4,153-198c80.1-47,120.8-18.3,203-77c81.4-58.1,94.9-101.4,151-134C755.1,14.2,780,3.9,814.3,0
											v1040.9c-22.9-10-46.5-18.2-70.7-24.4c-97.8-25.7-125.5,15.6-217.1,0.2c-92.8-15.7-103.3-76-213.5-130.9
											c-89.5-44.6-117.8-9.9-195.8-56.2C49.8,789.6,1.4,728,0.1,708.8c0-0.2,0-0.3,0-0.4s0-0.3,0-0.5s0-0.1,0-0.1
											S0.1,707.5,0.1,707.3z"/>
									</defs>
									<clipPath id="SVGID_6_">
										<use xlink:href="#SVGID_5_"  style="overflow:visible;"/>
									</clipPath>
									<g class="st7">
										
											<linearGradient id="SVGID_7_" gradientUnits="userSpaceOnUse" x1="293.9387" y1="1406.3688" x2="167.0364" y2="1533.3414" gradientTransform="matrix(1 0 0 -1 0 1939.0801)">
											<stop  offset="0" style="stop-color:#7485DE"/>
											<stop  offset="0.3" style="stop-color:#6DA9DD"/>
											<stop  offset="0.77" style="stop-color:#64DDDC"/>
											<stop  offset="1" style="stop-color:#60F1DC"/>
										</linearGradient>
										<path class="st8" d="M230.5,559c49.6,0,89.7-40.2,89.7-89.8s-40.2-89.7-89.8-89.7c-49.5,0-89.7,40.2-89.7,89.7
											C140.8,518.8,181,559,230.5,559L230.5,559z"/>
										
											<linearGradient id="SVGID_8_" gradientUnits="userSpaceOnUse" x1="230.596" y1="1421.5801" x2="230.596" y2="1514.6742" gradientTransform="matrix(1 0 0 -1 0 1939.0801)">
											<stop  offset="0" style="stop-color:#80FFE1"/>
											<stop  offset="0.27" style="stop-color:#A5E1E7;stop-opacity:0.73"/>
											<stop  offset="1" style="stop-color:#85A5FF;stop-opacity:0"/>
										</linearGradient>
										<path class="st9" d="M327.1,471.5c-2.2-1.1-4.4-2.3-6.8-3.4v3.7c1.8,0.9,3.5,1.8,5.2,2.7c21.2,11.2,32.8,22.2,30.9,29.3
											c-1.9,7.1-17.3,11-41.3,10.4c-25.5-0.5-58.1-5.7-92.1-14.6C147.7,480,101,452,104.6,438.1c1.7-6.7,15.3-10.5,37.3-10.5
											c2.9,0,5.9,0,9.1,0.2c0.6-1,0.7-2.3,1.4-3.1c-27.9-1.4-48.2,2.1-50.9,12.6c-5.2,19.9,57.3,49,120.8,65.5
											c34.2,8.9,67.1,14.1,92.9,14.7c1.4,0,2.9,0,4.4,0c17.7,0,37.4-2.4,40.1-13C362.6,493.1,343.6,480.3,327.1,471.5z"/>
										
											<linearGradient id="SVGID_9_" gradientUnits="userSpaceOnUse" x1="-1011.9679" y1="946.8345" x2="-1107.1281" y2="851.6746" gradientTransform="matrix(0.92 0.39 -0.39 0.92 2150.3303 -156.3407)">
											<stop  offset="0" style="stop-color:#ECB7A0"/>
											<stop  offset="0.61" style="stop-color:#F3DF93"/>
											<stop  offset="1" style="stop-color:#F6F38D"/>
										</linearGradient>
										<circle class="st10" cx="825.1" cy="258.4" r="67.3"/>
										
											<linearGradient id="SVGID_10_" gradientUnits="userSpaceOnUse" x1="235.8154" y1="-347.4124" x2="222.917" y2="-395.5764" gradientTransform="matrix(0.837 0.5473 -0.5473 0.837 429.3698 445.1758)">
											<stop  offset="0" style="stop-color:#ECB7A0"/>
											<stop  offset="0.32" style="stop-color:#ECA88A"/>
											<stop  offset="0.34" style="stop-color:#ECAB8A"/>
											<stop  offset="0.78" style="stop-color:#F3DF8C"/>
											<stop  offset="1" style="stop-color:#F6F38D"/>
										</linearGradient>
										<path class="st11" d="M910.6,294.6c2.8-6.5-4.6-16.7-18.8-27.6c-0.1,0.8-0.2,1.6-0.3,2.4c-0.1,0.6-0.2,1.1-0.3,1.7
											c-0.2,0.8-0.3,1.5-0.5,2.3c6.2,6.3,9,11.9,7.3,16c-4.7,11-41.1,6.1-81.3-11s-69.2-39.8-64.5-50.8c1.7-4,7.7-5.9,16.5-5.9
											c0.4-0.7,0.9-1.3,1.3-1.9c0.3-0.5,0.7-0.9,1-1.4c0.5-0.6,1-1.3,1.5-1.9c-17.7-2.5-30.1-0.8-32.9,5.8
											c-5.5,12.9,28.4,39.5,75.6,59.5S905.2,307.5,910.6,294.6z"/>
										
											<linearGradient id="SVGID_11_" gradientUnits="userSpaceOnUse" x1="174.3474" y1="791.8896" x2="114.8674" y2="735.8396" gradientTransform="matrix(1 0 0 1 0 -116)">
											<stop  offset="0" style="stop-color:#C29BEC"/>
											<stop  offset="0.15" style="stop-color:#C6AAE9"/>
											<stop  offset="0.72" style="stop-color:#D4DEDF"/>
											<stop  offset="1" style="stop-color:#DAF2DB"/>
										</linearGradient>
										<circle class="st12" cx="145.6" cy="648.8" r="39.5"/>
									</g>
								</g>
							</g>
						</g>
					</g>
				</g>
			</g>
			<path class="st13" d="M814.3,1040.9V478c-41.2-4.3-131.7-7.2-208,43.5c-37.2,24.7-38.3,40.4-87,71c-17.6,11.1-83.3,53.7-178,61
				c-66.7,5.2-79.3-13.2-156-5c-59.2,6.3-116.5,23.9-169,52c-5.6,3-11,6-16.2,9.1c2.6,20,50.6,80.5,117,119.9
				c78,46.3,106.3,11.6,195.8,56.2c110.2,54.9,120.8,115.2,213.5,130.9c91.6,15.5,119.4-25.8,217.1-0.2
				C767.8,1022.7,791.5,1030.9,814.3,1040.9z"/>
			<g>
				<path class="st14" d="M815,559.1v51.5l0,0v65.3l-0.9-0.5H651.9l-0.1-111.8l0,0h155.6L815,559.1z"/>
				<polygon class="st15" points="651.8,257.3 505.2,342 651.8,426.7 798.7,342 				"/>
				<polygon class="st16" points="651.9,290.5 709.4,290.5 681.2,274.2 				"/>
				<polygon class="st17" points="651.8,392.8 651.8,345.8 651.5,291.3 651.8,291.2 739.9,342 				"/>
				<polygon class="st16" points="651.8,291.2 694.1,360.8 651.8,336.4 				"/>
				<polygon class="st17" points="651.7,392.8 563.9,342 651.5,291.3 				"/>
				<polygon class="st17" points="651.8,345.8 651.8,392.8 651.8,392.8 651.7,392.8 651.5,291.3 651.5,291.3 				"/>
				<polygon class="st17" points="651.8,345.8 651.8,392.8 651.8,392.8 651.7,392.8 651.5,291.3 651.5,291.3 				"/>
				<polygon class="st18" points="602.9,364.6 651.8,336.4 700.7,364.6 651.8,392.8 				"/>
				<polygon class="st15" points="563.9,308.1 534.5,325 505.2,308.1 534.5,291.1 				"/>
				<polygon class="st17" points="563.9,308.1 563.9,342 534.5,358.9 534.5,325 				"/>
				<polygon class="st15" points="681.2,240.3 651.8,257.3 622.4,240.3 622.4,240.3 651.8,223.3 681.1,240.3 				"/>
				<polygon class="st17" points="681.2,274.2 681.1,274.2 681.2,274.2 651.8,291.2 651.8,257.3 681.2,240.3 681.1,240.3 
					681.2,240.3 				"/>
				<polygon class="st19" points="651.8,257.3 651.8,291.2 622.4,274.2 622.4,274.2 622.4,240.3 				"/>
				
					<linearGradient id="SVGID_12_" gradientUnits="userSpaceOnUse" x1="308.5365" y1="434.2508" x2="316.6917" y2="434.2508" gradientTransform="matrix(1 0 0 1 338.9 -116)">
					<stop  offset="0.3" style="stop-color:#F1F8FD"/>
					<stop  offset="0.97" style="stop-color:#DDEBF0"/>
					<stop  offset="1" style="stop-color:#DCEAEF"/>
				</linearGradient>
				<path class="st20" d="M647.4,318.3c0,32.9,0.9,60.5,2.1,61.1c1.3,0.7,2.8,0.7,4.1,0c1.1-0.7,2.1-28.1,2.1-61.1s-1-60.5-2.1-61.1
					c-1.3-0.7-2.8-0.7-4.1,0C648.3,257.8,647.4,285.3,647.4,318.3z"/>
				
					<linearGradient id="SVGID_13_" gradientUnits="userSpaceOnUse" x1="307.2841" y1="384.6447" x2="392.47" y2="384.6447" gradientTransform="matrix(1 0 0 1 338.9 -116)">
					<stop  offset="0.3" style="stop-color:#49BFAA"/>
					<stop  offset="0.66" style="stop-color:#54ABAE"/>
					<stop  offset="1" style="stop-color:#6194B2"/>
				</linearGradient>
				<path class="st21" d="M706.3,251.9c-8,3.3-10.6,7.5-18.9,10.4c-7.6,2.6-19.7,3.9-24.7,3.7c0,0-5.6-0.3-7.5,2.1
					c-0.1,0.1-0.2,0.3-0.4,0.4l-0.2,0.1c-1.7,1.3-4.5,1-6.3,0.3l-0.7-0.4c-0.5-0.2-0.7-0.4-0.7-0.4c-1.1,0.1,0.1,13.1-0.5,16.6
					c-0.1,0.8-0.1,1.7,0.3,2.5c0.2,0.3,0.4,0.6,0.7,0.7c0.4,0.1,0.7,0.2,1.1,0.2c1.3,0.4,2.4,0.7,3,0.7c1.3,0.1,2.4-0.2,3.4-1
					c0.4-0.3,0.7-0.6,1-1c1.8-2,5.6-3.9,6.4-4.2c4.2-2,6.1-0.6,9.1-1.1c1-0.2,1.9-0.5,2.7-1c5.8-2.7,12.7-3.5,19.7-7.3
					c6.6-3.6,7-5.7,15.5-12.3c6.8-5.2,14.2-9.5,22.2-12.7C720.8,247.6,712.6,249.4,706.3,251.9z"/>
				<polygon class="st15" points="798.7,308.1 769.2,325.1 739.9,308.1 769.4,291.2 				"/>
				<polygon class="st19" points="769.2,325.1 769.2,359 739.9,342 739.9,308.1 				"/>
				<polygon class="st17" points="769.2,325.1 769.2,358.9 681.2,409.7 681.2,375.8 681.1,375.8 681.2,375.9 651.8,392.8 
					651.8,426.7 651.8,472 798.7,387.2 798.7,342 798.7,308.1 				"/>
				<polygon class="st19" points="622.4,375.8 622.4,409.7 622.4,409.8 534.5,358.9 534.5,358.9 534.5,325 534.5,325 505.2,308.1 
					505.2,342 505.2,387.2 651.8,472 651.8,428.1 651.8,426.7 651.8,392.8 				"/>
				<polygon class="st17" points="749,619.2 749,415.9 651.9,472.1 651.9,675.3 				"/>
				<polygon class="st19" points="554.7,619.2 554.6,415.9 651.8,472.1 651.9,675.3 				"/>
				<polygon class="st18" points="695.2,469.6 695.2,514.7 714.8,503.4 714.8,458.2 				"/>
				<polygon class="st18" points="608.4,469.6 608.4,514.7 588.9,503.4 588.9,458.2 				"/>
				<polygon class="st16" points="705.2,497.7 714.8,503.4 714.8,458.2 705.2,463.8 				"/>
				<polygon class="st16" points="695.2,503.4 705.2,497.7 714.8,503.4 695.2,514.7 				"/>
				<polygon class="st17" points="598.7,497.7 588.9,503.4 588.9,458.2 598.7,463.8 				"/>
				<polygon class="st15" points="608.4,503.4 598.7,497.7 588.9,503.4 608.4,514.7 				"/>
				<path class="st18" d="M612.6,607.5l-19.3,11.3v-45.1l19.3,11.2C612.6,592.4,612.6,599.9,612.6,607.5z"/>
				<path class="st17" d="M593.3,618.8l-3,1.8l-6.8,3.9V568l9.8,5.7V618.8L593.3,618.8z"/>
				<polygon class="st17" points="612.8,641.5 612.8,652.8 593.2,664 593.2,661.2 598.1,658.3 598.2,658.4 598.2,655.6 598.2,655.5 
					602.4,653.1 602.5,653.1 603,652.8 603,652.7 603,652.7 603,649.9 608,647.1 608,644.2 				"/>
				<polygon class="st17" points="612.8,641.5 612.8,652.8 593.2,664 593.2,661.2 598.1,658.3 598.2,658.4 598.2,655.6 598.2,655.5 
					602.4,653.1 602.5,653.1 603,652.8 603,652.7 603,652.7 603,649.9 608,647.1 608,644.2 				"/>
				<path class="st15" d="M612.8,641.5l-4.9,2.8l-29.2-16.9l0,0l4.9-2.8l0,0l0,0L612.8,641.5z"/>
				<polygon class="st15" points="608,647.1 603,649.9 573.8,633 578.7,630.1 				"/>
				<polygon class="st15" points="603,652.7 603,652.7 602.5,653.1 602.4,653.1 598.1,655.5 568.9,638.6 568.9,641.5 598.1,658.3 
					593.2,661.2 564,644.3 564,644.2 568.9,641.4 568.9,638.6 573.8,635.8 				"/>
				<polygon class="st19" points="608,644.2 608,647.1 578.7,630.1 578.7,630.1 578.7,627.3 				"/>
				<polygon class="st19" points="603,649.9 603,649.9 603,649.9 603,652.7 573.8,635.8 573.8,635.8 573.8,633 573.8,633 				"/>
				<polygon class="st19" points="598.1,655.5 598.1,655.5 598.1,658.3 598.1,658.3 568.9,641.5 568.9,638.6 				"/>
				<path class="st19" d="M593.2,661.2v2.8L564,647.1l0,0l0,0l0,0l0,0v-2.7L593.2,661.2z"/>
				<polygon class="st16" points="749,415.8 749,427.1 651.8,483.1 651.8,472 				"/>
				<polygon class="st17" points="651.8,472 651.8,483.1 651.8,483.1 554.6,427 554.7,415.8 				"/>
				<polygon class="st15" points="681.2,375.9 651.8,392.8 622.4,375.8 622.4,375.8 622.5,375.8 651.8,359 681.1,375.8 				"/>
				<path class="st15" d="M612.8,641.5l-29.2-17l6.8-3.9l3-1.7l0,0l19.3-11.3C612.6,618.9,612.8,630.1,612.8,641.5z"/>
				
					<linearGradient id="SVGID_14_" gradientUnits="userSpaceOnUse" x1="251.4574" y1="735.6753" x2="254.4923" y2="735.6753" gradientTransform="matrix(1 0 0 1 338.9 -116)">
					<stop  offset="0.3" style="stop-color:#49BFAA"/>
					<stop  offset="0.66" style="stop-color:#54ABAE"/>
					<stop  offset="1" style="stop-color:#6194B2"/>
				</linearGradient>
				<polygon class="st22" points="593.3,618.8 593.3,618.8 590.3,620.6 				"/>
				<polygon class="st14" points="593.2,664 597.7,665.1 601.7,662.8 605.9,663.8 609.7,661.4 613.9,662.6 617.6,660.5 621.7,661.6 
					624.8,659.6 612.8,641.5 612.8,652.8 				"/>
				<polygon class="st16" points="534.5,359 593.2,359 563.9,342 				"/>
				<polygon class="st16" points="681.2,393.1 710,393.2 681.2,409.8 				"/>
			</g>
			
				<linearGradient id="SVGID_15_" gradientUnits="userSpaceOnUse" x1="-877.1082" y1="1661.1718" x2="-975.6929" y2="1562.5969" gradientTransform="matrix(0.9841 -0.1776 0.1776 0.9841 1111.6001 -1562.1841)">
				<stop  offset="0" style="stop-color:#7891DE"/>
				<stop  offset="0.22" style="stop-color:#72A9D8"/>
				<stop  offset="0.74" style="stop-color:#65DDCB"/>
				<stop  offset="1" style="stop-color:#60F1C6"/>
			</linearGradient>
			<circle class="st23" cx="486.2" cy="188.6" r="69.7"/>
			
				<linearGradient id="SVGID_16_" gradientUnits="userSpaceOnUse" x1="-902.2128" y1="1677.8357" x2="-951.0228" y2="1545.1858" gradientTransform="matrix(0.9841 -0.1776 0.1776 0.9841 1111.6001 -1562.1841)">
				<stop  offset="0" style="stop-color:#7891DE"/>
				<stop  offset="0.32" style="stop-color:#517FDE"/>
				<stop  offset="0.54" style="stop-color:#57A9D5"/>
				<stop  offset="0.85" style="stop-color:#5DDDCA"/>
				<stop  offset="1" style="stop-color:#60F1C6"/>
			</linearGradient>
			<path class="st24" d="M549,158.2c0.4,0.8,0.7,1.5,1,2.3c14.7,1.8,24.2,5.9,25.3,12.1c2.4,13.4-35.5,31.5-84.8,40.4
				s-91.1,5.2-93.5-8.2c-1.1-6.2,6.3-13.4,19.5-20.2c0-0.8,0.1-1.7,0.2-2.5c-16.8,7.9-26.6,16.4-25.3,23.7
				c2.6,14.3,47.1,18.2,99.4,8.7s92.7-28.7,90.1-42.9C579.7,164.3,567.5,159.7,549,158.2z"/>
			
				<linearGradient id="SVGID_17_" gradientUnits="userSpaceOnUse" x1="-912.7774" y1="1648.3738" x2="-939.6788" y2="1575.2432" gradientTransform="matrix(0.9841 -0.1776 0.1776 0.9841 1111.6001 -1562.1841)">
				<stop  offset="0" style="stop-color:#7891DE"/>
				<stop  offset="0.32" style="stop-color:#517FDE"/>
				<stop  offset="0.54" style="stop-color:#57A9D5"/>
				<stop  offset="0.85" style="stop-color:#5DDDCA"/>
				<stop  offset="1" style="stop-color:#60F1C6"/>
			</linearGradient>
			<path class="st25" d="M550.1,160.4c0.2,0.5,0.5,1.1,0.7,1.6c12.2,1.9,20,5.7,20.9,11.1c2.3,12.9-34,30.2-81.2,38.7
				s-87.3,5-89.6-7.9c-1-5.4,5-11.7,15.7-17.7c0-0.6,0-1.2,0.1-1.8c-13.2,6.8-20.6,14-19.5,20.2c2.4,13.4,44.3,17.1,93.6,8.2
				s87.2-27,84.8-40.4C574.3,166.3,564.8,162.2,550.1,160.4z"/>
			
				<linearGradient id="SVGID_18_" gradientUnits="userSpaceOnUse" x1="-918.1705" y1="1642.8733" x2="-934.688" y2="1581.2198" gradientTransform="matrix(0.9841 -0.1776 0.1776 0.9841 1111.6001 -1562.1841)">
				<stop  offset="0" style="stop-color:#7891DE"/>
				<stop  offset="0.32" style="stop-color:#517FDE"/>
				<stop  offset="0.54" style="stop-color:#57A9D5"/>
				<stop  offset="0.85" style="stop-color:#5DDDCA"/>
				<stop  offset="1" style="stop-color:#60F1C6"/>
			</linearGradient>
			<path class="st26" d="M550.7,162.1c0.3,0.7,0.6,1.5,0.9,2.3c9,2,14.6,5.2,15.4,9.7c2.2,12.2-32.2,28.6-76.8,36.6
				s-82.6,4.7-84.8-7.5c-0.8-4.5,3.3-9.5,11-14.5c0-0.8,0-1.6,0-2.4c-10.8,6-16.7,12.3-15.7,17.7c2.3,12.9,42.5,16.4,89.6,7.9
				s83.6-25.9,81.2-38.7C570.7,167.8,563,164,550.7,162.1z"/>
			<rect x="757.2" y="64.5" class="st3" width="5.1" height="5.1"/>
			<circle class="st6" cx="759.8" cy="67.1" r="2.6"/>
			<rect x="452.8" y="361.6" class="st3" width="3.3" height="3.3"/>
			<circle class="st6" cx="454.5" cy="363.2" r="1.7"/>
			<rect x="27.2" y="659" class="st3" width="2.8" height="2.8"/>
			<circle class="st6" cx="28.6" cy="660.4" r="1.4"/>
			<rect x="394.8" y="369" class="st3" width="2.8" height="2.8"/>
			<circle class="st6" cx="396.2" cy="370.4" r="1.4"/>
			<rect x="52.3" y="653.5" class="st3" width="1.6" height="1.6"/>
			<circle class="st6" cx="53.1" cy="654.3" r="0.8"/>
		</g>
	</g>
</g>
</svg>
