<?xml version="1.0" encoding="utf-8"?>
<!-- Generator: Adobe Illustrator 23.0.6, SVG Export Plug-In . SVG Version: 6.00 Build 0)  -->
<svg version="1.1" id="Calque_1" xmlns="http://www.w3.org/2000/svg" xmlns:xlink="http://www.w3.org/1999/xlink" x="0px" y="0px"
	 viewBox="0 0 1125.3 918" style="enable-background:new 0 0 1125.3 918;" xml:space="preserve">
<style type="text/css">
	.st0{fill:url(#SVGID_1_);}
	.st1{fill:url(#SVGID_2_);}
	.st2{opacity:0.3;fill:#FFFFFF;enable-background:new    ;}
	.st3{fill:url(#SVGID_3_);}
	.st4{fill:none;}
	.st5{fill:#C8F6FC;}
	.st6{fill:#BDD0FF;}
	.st7{fill:url(#SVGID_4_);}
	.st8{opacity:0.3;fill:#FFFFFF;}
	.st9{fill:url(#SVGID_5_);}
	.st10{fill:url(#SVGID_6_);}
	.st11{fill:url(#SVGID_7_);}
	.st12{fill:#FFFFFF;}
	.st13{fill:#078E8E;}
	.st14{fill:#F4DAD0;}
</style>
<title>random barely visible rift2Fichier 10</title>
<g>
	<g id="Calque_1-2">
		
			<linearGradient id="SVGID_1_" gradientUnits="userSpaceOnUse" x1="1907.6233" y1="1020.1725" x2="2498.6572" y2="1611.2164" gradientTransform="matrix(1 0 0 1 0 -160)">
			<stop  offset="0" style="stop-color:#1D38B2;stop-opacity:0"/>
			<stop  offset="0.16" style="stop-color:#1C4BB4;stop-opacity:0.18"/>
			<stop  offset="0.57" style="stop-color:#196FBA;stop-opacity:0.62"/>
			<stop  offset="0.86" style="stop-color:#1882BE;stop-opacity:0.89"/>
			<stop  offset="1" style="stop-color:#1788BF"/>
		</linearGradient>
		<path class="st0" d="M2534.7,497.2c-35.1,44.2-73.2,133.7-191,183c-124.1,51.9-203.2,3.3-323,77c-7.2,4.3-14.2,9.2-20.7,14.5
			c-63.6,52.7-100.9,104.9-112.3,122.5c-90.2,139.1-181.1,132.9-240,272c-34.1,80.4-25.6,134.2-85,192c-32,31.1-67,47.3-91,56
			l1063,1V497.2z"/>
		
			<linearGradient id="SVGID_2_" gradientUnits="userSpaceOnUse" x1="1705.4618" y1="1134.7625" x2="2226.0618" y2="1134.7625" gradientTransform="matrix(1 0 0 1 0 -160)">
			<stop  offset="0" style="stop-color:#0080C3;stop-opacity:0"/>
			<stop  offset="0.2" style="stop-color:#0086CC;stop-opacity:8.000000e-02"/>
			<stop  offset="0.61" style="stop-color:#0097E5;stop-opacity:0.28"/>
			<stop  offset="1" style="stop-color:#FFFFFF;stop-opacity:0.5"/>
		</linearGradient>
		<path class="st1" d="M2222.2,940c-21.2,24.3-45.8,45.5-72,64.1c-26.2,18.7-53.7,35.3-82.5,49.7c-28.6,14.4-58.3,26.6-88.7,36.6
			c-30.4,9.7-61.5,16.9-92.7,20.4c-2,0.2-3.9,0.5-5.8,0.7l-5.9,0.4l-11.7,0.8c-7.6,0.5-15.3,0.5-22.9,0c-14.9-1-29.6-3.8-41.4-9.8
			c-5.5-2.6-10.3-6.4-14.3-10.9c-3.5-4.1-5.9-9.1-6.7-14.4c-2-10.7,1.2-23.9,7.5-36.4c6.3-12.5,15-24.8,25-35.9
			c6.8-7.8,14.3-15,22.2-21.7c-0.3,0.4-0.5,0.8-0.8,1.2c-1.4,2.1-2.6,4.3-3.9,6.5c-1.3,2.2-2.4,4.6-3.6,7c-1.1,2.5-2.2,4.9-3.2,7.5
			c-2.1,5.5-3.7,11.2-4.6,17c-1.1,6.6-1.2,13.4-0.2,20.1c1.1,7.4,3.7,14.6,7.6,21c3.8,6.2,8.8,11.6,14.6,16
			c5.1,3.8,10.7,6.9,16.6,9.2c5.2,2,10.6,3.5,16.1,4.5c9.8,1.8,19.8,2.4,29.8,1.8c4.8-0.2,9.2-0.7,13.7-1.2s9-1,13.3-1.8
			c17.6-2.7,34.4-7.6,50.8-13l12.2-4.2l12-4.8l6-2.4l5.8-2.6c3.9-1.8,7.8-3.5,11.7-5.3c30.7-14.9,59.9-32.8,86.3-55
			c13.2-11.1,25.8-23,37-36.8c5.7-6.7,10.9-13.8,15.7-21.3c5-7.6,9.3-15.5,13-23.8c3.9-8.7,6.8-17.9,8.5-27.3
			c1.9-10.2,1.6-20.7-0.6-30.9c-2.4-10.7-7.6-20.5-15.1-28.5c-7-7.5-15.5-13.4-24.8-17.5c-8.6-3.8-17.6-6.5-26.8-8
			c-8.8-1.5-17.6-2.4-26.5-2.5c-8.6-0.2-17.2,0.2-25.8,1.1l-12.6,1.4l-6.3,0.7c-2.1,0.3-4.1,0.7-6.2,1
			c-66.4,11-128.3,36.4-185.6,68.7c-28.6,16.2-55.9,34.6-81.6,55.1c-25.6,20.7-49.3,43.7-69.3,69.7l4.1,3.3
			c21.2-24.3,45.8-45.5,71.9-64.1c26.2-18.7,53.7-35.3,82.5-49.7c28.6-14.4,58.3-26.6,88.7-36.6c30.4-9.7,61.5-16.9,92.7-20.4
			c2-0.2,3.9-0.5,5.8-0.7l5.8-0.4l11.7-0.8c7.6-0.5,15.3-0.5,22.9,0c14.9,1,29.6,3.8,41.3,9.8c5.5,2.7,10.3,6.4,14.3,11
			c1.7,2.1,3.2,4.3,4.4,6.8c1.1,2.4,1.9,5,2.4,7.6c2,10.7-1.3,23.9-7.5,36.4s-15,24.8-25,35.9c-6.9,7.8-14.3,15.1-22.2,21.7
			c0.3-0.4,0.5-0.8,0.8-1.2c1.3-2.1,2.6-4.3,3.9-6.5s2.4-4.6,3.6-7c1.1-2.5,2.2-4.9,3.2-7.5c2.1-5.5,3.7-11.2,4.6-17
			c1.1-6.6,1.2-13.4,0.2-20.1c-1.1-7.4-3.7-14.6-7.6-21c-3.8-6.2-8.8-11.6-14.6-16c-5.1-3.8-10.7-6.9-16.7-9.2
			c-5.2-2-10.6-3.5-16.1-4.5c-9.8-1.8-19.8-2.4-29.8-1.8c-4.8,0.2-9.2,0.7-13.7,1.2s-9,1-13.3,1.8c-17.6,2.7-34.4,7.6-50.8,13
			l-12.2,4.2l-12,4.8l-6,2.4l-5.8,2.6c-3.9,1.8-7.8,3.5-11.7,5.3c-30.7,14.9-59.9,32.8-86.3,55c-13.1,11.1-25.8,23-37,36.8
			c-5.7,6.7-10.9,13.8-15.7,21.3c-5,7.6-9.3,15.5-13,23.8c-3.9,8.7-6.8,17.9-8.5,27.3c-1.9,10.2-1.6,20.7,0.6,30.8
			c2.4,10.7,7.6,20.5,15.1,28.5c7,7.5,15.5,13.4,24.9,17.5c8.6,3.8,17.6,6.5,26.8,8c8.8,1.5,17.6,2.4,26.5,2.5
			c8.6,0.2,17.2-0.2,25.8-1.1l12.6-1.4l6.3-0.7c2.1-0.3,4.1-0.7,6.2-1c66.4-11,128.3-36.4,185.6-68.7c28.6-16.2,55.9-34.6,81.6-55.1
			c25.5-20.6,49.2-43.7,69.3-69.7L2222.2,940z M1998.6,956.2c-0.4,0.8-0.8,1.7-1.2,2.5c-1.6,2.8-3.5,5.4-5.6,7.9
			c-9.1,10.3-22.4,19-36.1,24.2c-3.4,1.3-6.9,2.3-10.5,3c-3.1,0.7-6.3,0.8-9.4,0.3c-1-0.2-1.9-0.6-2.6-1.2c0.4-0.8,0.8-1.7,1.2-2.5
			c1.6-2.8,3.5-5.4,5.6-7.9c9.1-10.3,22.3-19,36.1-24.2c3.4-1.3,6.9-2.3,10.5-3c3.1-0.7,6.3-0.8,9.4-0.3
			C1996.9,955.2,1997.8,955.6,1998.6,956.2z"/>
		<path class="st2" d="M1722.4,1315.7l4.7,8.6c0.1,0.2,0.3,0.4,0.5,0.5l8.6,4.7c0.6,0.3,0.8,1.1,0.5,1.7c-0.1,0.2-0.3,0.4-0.5,0.5
			l-8.6,4.7c-0.2,0.1-0.4,0.3-0.5,0.5l-4.7,8.6c-0.3,0.6-1.1,0.8-1.7,0.5c-0.2-0.1-0.4-0.3-0.5-0.5l-4.7-8.6
			c-0.1-0.2-0.3-0.4-0.5-0.5l-8.6-4.7c-0.6-0.3-0.8-1.1-0.5-1.7c0.1-0.2,0.3-0.4,0.5-0.5l8.6-4.7c0.2-0.1,0.4-0.3,0.5-0.5l4.7-8.6
			c0.3-0.6,1.1-0.8,1.7-0.5C1722.1,1315.4,1722.3,1315.5,1722.4,1315.7z"/>
		<path class="st2" d="M1942.4,610.7l4.7,8.6c0.1,0.2,0.3,0.4,0.5,0.5l8.6,4.7c0.6,0.3,0.8,1.1,0.5,1.7c-0.1,0.2-0.3,0.4-0.5,0.5
			l-8.6,4.7c-0.2,0.1-0.4,0.3-0.5,0.5l-4.7,8.6c-0.3,0.6-1.1,0.8-1.7,0.5c-0.2-0.1-0.4-0.3-0.5-0.5l-4.7-8.6
			c-0.1-0.2-0.3-0.4-0.5-0.5l-8.6-4.7c-0.6-0.3-0.8-1.1-0.5-1.7c0.1-0.2,0.3-0.4,0.5-0.5l8.6-4.7c0.2-0.1,0.4-0.3,0.5-0.5l4.7-8.6
			c0.3-0.6,1.1-0.8,1.7-0.5C1942.1,610.4,1942.3,610.5,1942.4,610.7z"/>
		<path class="st2" d="M1901.4,777.7l4.7,8.6c0.1,0.2,0.3,0.4,0.5,0.5l8.6,4.7c0.6,0.3,0.8,1.1,0.5,1.7c-0.1,0.2-0.3,0.4-0.5,0.5
			l-8.6,4.7c-0.2,0.1-0.4,0.3-0.5,0.5l-4.7,8.6c-0.3,0.6-1.1,0.8-1.7,0.5c-0.2-0.1-0.4-0.3-0.5-0.5l-4.7-8.6
			c-0.1-0.2-0.3-0.4-0.5-0.5l-8.6-4.7c-0.6-0.3-0.8-1.1-0.5-1.7c0.1-0.2,0.3-0.4,0.5-0.5l8.6-4.7c0.2-0.1,0.4-0.3,0.5-0.5l4.7-8.6
			c0.3-0.6,1.1-0.8,1.7-0.5C1901.1,777.4,1901.3,777.5,1901.4,777.7z"/>
		<path class="st2" d="M2424.4,1128.7l4.7,8.6c0.1,0.2,0.3,0.4,0.5,0.5l8.6,4.7c0.6,0.3,0.8,1.1,0.5,1.7c-0.1,0.2-0.3,0.4-0.5,0.5
			l-8.6,4.7c-0.2,0.1-0.4,0.3-0.5,0.5l-4.7,8.6c-0.3,0.6-1.1,0.8-1.7,0.5c-0.2-0.1-0.4-0.3-0.5-0.5l-4.7-8.6
			c-0.1-0.2-0.3-0.4-0.5-0.5l-8.6-4.7c-0.6-0.3-0.8-1.1-0.5-1.7c0.1-0.2,0.3-0.4,0.5-0.5l8.6-4.7c0.2-0.1,0.4-0.3,0.5-0.5l4.7-8.6
			c0.3-0.6,1.1-0.8,1.7-0.5C2424.1,1128.4,2424.3,1128.5,2424.4,1128.7z"/>
		
			<linearGradient id="SVGID_3_" gradientUnits="userSpaceOnUse" x1="4441.7778" y1="215.9485" x2="4382.2393" y2="156.4102" gradientTransform="matrix(1 0 0 1 -2765.4099 1013.97)">
			<stop  offset="0" style="stop-color:#1788BF;stop-opacity:0.5"/>
			<stop  offset="0.27" style="stop-color:#2397CD;stop-opacity:0.5"/>
			<stop  offset="0.82" style="stop-color:#44B8F2;stop-opacity:0.5"/>
			<stop  offset="1" style="stop-color:#FFFFFF;stop-opacity:0.5"/>
		</linearGradient>
		<circle class="st3" cx="1646.7" cy="1200.2" r="42.1"/>
		<rect x="2236.1" y="747.1" class="st4" width="7.8" height="7.8"/>
		<circle class="st5" cx="2240" cy="751" r="3.9"/>
		<rect x="2314.4" y="1140" class="st4" width="6.3" height="6.3"/>
		<circle class="st5" cx="2317.6" cy="1143.2" r="3.2"/>
		<rect x="2009.8" y="1235.7" class="st4" width="2.8" height="2.8"/>
		<circle class="st5" cx="2011.2" cy="1237.1" r="1.4"/>
		<rect x="2314.2" y="1327.7" class="st4" width="6.8" height="6.8"/>
		<circle class="st5" cx="2317.6" cy="1331.1" r="3.4"/>
		<rect x="2401.4" y="928.8" class="st4" width="3.9" height="3.9"/>
		<circle class="st5" cx="2403.4" cy="930.7" r="1.9"/>
		<rect x="1945" y="1252.6" class="st4" width="1.7" height="1.7"/>
		<circle class="st5" cx="1945.9" cy="1253.5" r="0.9"/>
		<rect x="1882.3" y="1312.4" class="st4" width="4.6" height="4.6"/>
		<circle class="st5" cx="1884.6" cy="1314.7" r="2.3"/>
		<rect x="2150.7" y="1127.4" class="st4" width="7" height="7"/>
		<circle class="st5" cx="2154.2" cy="1130.9" r="3.5"/>
		<rect x="1788.3" y="744.6" class="st4" width="4.6" height="4.6"/>
		<circle class="st5" cx="1790.6" cy="746.9" r="2.3"/>
		<rect x="1680.7" y="894.3" class="st4" width="7.4" height="7.4"/>
		<circle class="st5" cx="1684.4" cy="898.1" r="3.7"/>
		<rect x="1581" y="1223.6" class="st4" width="2.5" height="2.5"/>
		<circle class="st5" cx="1582.3" cy="1224.9" r="1.3"/>
		<rect x="1409.4" y="1129.6" class="st4" width="2.6" height="2.6"/>
		<circle class="st6" cx="1410.7" cy="1130.9" r="1.3"/>
		<rect x="1749.5" y="1147" class="st4" width="8.7" height="8.7"/>
		<circle class="st6" cx="1753.9" cy="1151.3" r="4.4"/>
		<rect x="1937.9" y="1159.7" class="st4" width="7.7" height="7.7"/>
		<circle class="st6" cx="1941.8" cy="1163.6" r="3.9"/>
		<rect x="2369.5" y="831.5" class="st4" width="2.5" height="2.5"/>
		<circle class="st6" cx="2370.7" cy="832.7" r="1.2"/>
		<rect x="2363.5" y="576.3" class="st4" width="6.3" height="6.3"/>
		<circle class="st6" cx="2366.6" cy="579.4" r="3.1"/>
		<rect x="1987.7" y="670.2" class="st4" width="6.3" height="6.3"/>
		<circle class="st6" cx="1990.8" cy="673.4" r="3.1"/>
		<rect x="2404.4" y="1209.5" class="st4" width="6.1" height="6.1"/>
		<circle class="st6" cx="2407.5" cy="1212.6" r="3.1"/>
		<rect x="1480.4" y="1351.7" class="st4" width="7.7" height="7.7"/>
		<circle class="st6" cx="1484.2" cy="1355.6" r="3.8"/>
	</g>
</g>
<linearGradient id="SVGID_4_" gradientUnits="userSpaceOnUse" x1="178.7427" y1="457.1251" x2="739.1553" y2="457.1251" gradientTransform="matrix(-1 0 0 1 1304.0427 0)">
	<stop  offset="0" style="stop-color:#1788BF"/>
	<stop  offset="0.14" style="stop-color:#1882BE;stop-opacity:0.89"/>
	<stop  offset="0.43" style="stop-color:#196FBA;stop-opacity:0.62"/>
	<stop  offset="0.84" style="stop-color:#1C4BB4;stop-opacity:0.18"/>
	<stop  offset="1" style="stop-color:#1D38B2;stop-opacity:0"/>
</linearGradient>
<path class="st7" d="M589,316.7c36.3-72.4,99.2-93.9,145.1-164.7c6.9-10.6,29.4-42.3,67.9-74.2c3.6-2.9,7.4-5.6,12.5-8.8
	c55-33.9,129.6-38.1,195.3-46.6c26.6-3.5,66.5-9.8,115.5-22.5c0,155.5,0,311,0,466.5c0,0,0,0,0,0c0,149.2,0,298.5,0,447.7
	c-49.2-17.3-89.9-22.5-117.9-24.2c-67.9-4-139.3,8.9-192.9-25.7c-5.6-3.6-12.2-8.5-12.5-8.8c-39.1-29.1-59.7-61.5-67.9-74.1
	C663.2,672.1,626.7,659,596.2,576.8C582.2,539,537.7,419,589,316.7z"/>
<path class="st8" d="M915.1,258.5l-2.8,5.2c-0.1,0.1-0.2,0.2-0.3,0.3l-5.2,2.8c-0.5,0.3-0.5,1,0,1.3l5.2,2.8
	c0.1,0.1,0.2,0.2,0.3,0.3l2.8,5.2c0.3,0.5,1,0.5,1.3,0l2.8-5.2c0.1-0.1,0.2-0.2,0.3-0.3l5.2-2.8c0.5-0.3,0.5-1,0-1.3l-5.2-2.8
	c-0.1-0.1-0.2-0.2-0.3-0.3l-2.8-5.2C916.1,258,915.4,258,915.1,258.5z"/>
<path class="st8" d="M690.2,609.2l-2.8,5.2c-0.1,0.1-0.2,0.2-0.3,0.3l-5.2,2.8c-0.5,0.3-0.5,1,0,1.3l5.2,2.8
	c0.1,0.1,0.2,0.2,0.3,0.3l2.8,5.2c0.3,0.5,1,0.5,1.3,0l2.8-5.2c0.1-0.1,0.2-0.2,0.3-0.3l5.2-2.8c0.5-0.3,0.5-1,0-1.3l-5.2-2.8
	c-0.1-0.1-0.2-0.2-0.3-0.3l-2.8-5.2C691.2,608.7,690.4,608.7,690.2,609.2z"/>
<path class="st8" d="M993.7,736.2l-2.8,5.2c-0.1,0.1-0.2,0.2-0.3,0.3l-5.2,2.8c-0.5,0.3-0.5,1,0,1.3l5.2,2.8
	c0.1,0.1,0.2,0.2,0.3,0.3l2.8,5.2c0.3,0.5,1,0.5,1.3,0l2.8-5.2c0.1-0.1,0.2-0.2,0.3-0.3l5.2-2.8c0.5-0.3,0.5-1,0-1.3l-5.2-2.8
	c-0.1-0.1-0.2-0.2-0.3-0.3l-2.8-5.2C994.7,735.7,994,735.7,993.7,736.2z"/>
<path class="st8" d="M850.4,803.3l-2.8,5.2c-0.1,0.1-0.2,0.2-0.3,0.3l-5.2,2.8c-0.5,0.3-0.5,1,0,1.3l5.2,2.8
	c0.1,0.1,0.2,0.2,0.3,0.3l2.8,5.2c0.3,0.5,1,0.5,1.3,0l2.8-5.2c0.1-0.1,0.2-0.2,0.3-0.3l5.2-2.8c0.5-0.3,0.5-1,0-1.3l-5.2-2.8
	c-0.1-0.1-0.2-0.2-0.3-0.3l-2.8-5.2C851.4,802.8,850.7,802.8,850.4,803.3z"/>
<path class="st8" d="M1017.3,429.6l-2.8,5.2c-0.1,0.1-0.2,0.2-0.3,0.3l-5.2,2.8c-0.5,0.3-0.5,1,0,1.3l5.2,2.8
	c0.1,0.1,0.2,0.2,0.3,0.3l2.8,5.2c0.3,0.5,1,0.5,1.3,0l2.8-5.2c0.1-0.1,0.2-0.2,0.3-0.3l5.2-2.8c0.5-0.3,0.5-1,0-1.3l-5.2-2.8
	c-0.1-0.1-0.2-0.2-0.3-0.3l-2.8-5.2C1018.3,429.1,1017.6,429.1,1017.3,429.6z"/>
<g>
	
		<linearGradient id="SVGID_5_" gradientUnits="userSpaceOnUse" x1="816.9366" y1="524.0219" x2="660.3203" y2="367.4055" gradientTransform="matrix(-1 0 0 1 1304.0427 0)">
		<stop  offset="5.434346e-07" style="stop-color:#4A62CD"/>
		<stop  offset="0.4228" style="stop-color:#53A2CF"/>
		<stop  offset="0.8109" style="stop-color:#5AD6D0"/>
		<stop  offset="1" style="stop-color:#5DEAD1"/>
	</linearGradient>
	<circle class="st9" cx="565.4" cy="445.7" r="110.7"/>
	
		<linearGradient id="SVGID_6_" gradientUnits="userSpaceOnUse" x1="3337.0852" y1="-675.7555" x2="3301.1641" y2="-711.6767" gradientTransform="matrix(-1 0 0 1 4069.4517 1173.9739)">
		<stop  offset="5.434346e-07" style="stop-color:#4A62CD"/>
		<stop  offset="0.4228" style="stop-color:#53A2CF"/>
		<stop  offset="0.8109" style="stop-color:#5AD6D0"/>
		<stop  offset="1" style="stop-color:#5DEAD1"/>
	</linearGradient>
	<circle class="st10" cx="750.3" cy="480.3" r="25.4"/>
	
		<linearGradient id="SVGID_7_" gradientUnits="userSpaceOnUse" x1="738.6315" y1="505.2174" x2="738.6315" y2="390.329" gradientTransform="matrix(-1 0 0 1 1304.0427 0)">
		<stop  offset="5.434346e-07" style="stop-color:#4A62CD"/>
		<stop  offset="0.4228" style="stop-color:#53A2CF"/>
		<stop  offset="0.8109" style="stop-color:#5AD6D0"/>
		<stop  offset="1" style="stop-color:#5DEAD1"/>
	</linearGradient>
	<path class="st11" d="M446.3,448.5c2.7-1.4,5.5-2.8,8.3-4.2c0,1.4,0,3.1,0,4.5c-2.2,1.1-4.3,2.2-6.4,3.3
		c-26.2,13.9-40.5,27.4-38.2,36.1c2.3,8.7,21.3,13.5,50.9,12.9c31.4-0.7,71.7-7.1,113.6-18c92.9-24.2,150.6-58.7,146.1-75.8
		c-2.1-8.2-18.8-13-46-13c-3.5,0-7.3,0.1-11.1,0.2c-0.7-1.2-0.9-2.9-1.7-3.9c34.4-1.7,59.4,2.6,62.8,15.6
		c6.4,24.6-70.7,60.4-149,80.8c-42.2,11-82.9,17.4-114.6,18.1c-1.8,0-3.6,0.1-5.4,0.1c-21.8,0-46.1-3-49.5-16
		C402.5,475.1,426,459.3,446.3,448.5z"/>
</g>
<g>
	<g>
		<g>
			<rect x="854.7" y="364.8" class="st4" width="5.3" height="5.3"/>
			<circle class="st12" cx="857.4" cy="367.4" r="2.6"/>
		</g>
	</g>
</g>
<g>
	<g>
		<g>
			<rect x="864.3" y="572.6" class="st4" width="8.3" height="8.3"/>
			<circle class="st13" cx="868.5" cy="576.8" r="4.2"/>
		</g>
	</g>
</g>
<g>
	<g>
		<g>
			<rect x="604.8" y="665.1" class="st4" width="8.7" height="8.7"/>
			<circle class="st13" cx="609.1" cy="669.4" r="4.4"/>
		</g>
	</g>
</g>
<g>
	<g>
		<g>
			<rect x="465.6" y="655.6" class="st4" width="5.4" height="5.4"/>
			<circle class="st13" cx="468.3" cy="658.3" r="2.7"/>
		</g>
	</g>
</g>
<g>
	<g>
		<g>
			<rect x="655.9" y="249.3" class="st4" width="6.6" height="6.6"/>
			<circle class="st13" cx="659.1" cy="252.6" r="3.3"/>
		</g>
	</g>
</g>
<g>
	<g>
		<g>
			<rect x="965.5" y="497.8" class="st4" width="2.3" height="2.3"/>
			<circle class="st13" cx="966.7" cy="499" r="1.2"/>
		</g>
	</g>
</g>
<g>
	<g>
		<g>
			<rect x="1010.2" y="499.9" class="st4" width="5.6" height="5.6"/>
			<circle class="st13" cx="1013" cy="502.7" r="2.8"/>
		</g>
	</g>
</g>
<g>
	<g>
		<g>
			<rect x="1021.5" y="338.9" class="st4" width="1.5" height="1.5"/>
			<circle class="st13" cx="1022.2" cy="339.7" r="0.7"/>
		</g>
	</g>
</g>
<g>
	<g>
		<g>
			<rect x="651.9" y="589.9" class="st4" width="3.4" height="3.4"/>
			<circle class="st14" cx="653.6" cy="591.6" r="1.7"/>
		</g>
	</g>
</g>
<g>
	<g>
		<g>
			<rect x="448.5" y="575.4" class="st4" width="6.4" height="6.4"/>
			<circle class="st14" cx="451.7" cy="578.6" r="3.2"/>
		</g>
	</g>
</g>
<g>
	<g>
		<g>
			<rect x="736.2" y="268.5" class="st4" width="1.6" height="1.6"/>
			<circle class="st14" cx="737" cy="269.3" r="0.8"/>
		</g>
	</g>
</g>
<g>
	<g>
		<g>
			<rect x="913.7" y="483" class="st4" width="2.3" height="2.3"/>
			<circle class="st14" cx="914.8" cy="484.2" r="1.1"/>
		</g>
	</g>
</g>
<g>
	<g>
		<g>
			<rect x="939.4" y="462.5" class="st4" width="6.4" height="6.4"/>
			<circle class="st14" cx="942.6" cy="465.6" r="3.2"/>
		</g>
	</g>
</g>
<g>
	<g>
		<g>
			<rect x="850.4" y="677.3" class="st4" width="2.8" height="2.8"/>
			<circle class="st14" cx="851.8" cy="678.7" r="1.4"/>
		</g>
	</g>
</g>
<g>
	<g>
		<g>
			<rect x="806.2" y="483" class="st4" width="6.1" height="6.1"/>
			<circle class="st14" cx="809.2" cy="486" r="3"/>
		</g>
	</g>
</g>
<g>
	<g>
		<g>
			<rect x="335.1" y="343.5" class="st4" width="3.4" height="3.4"/>
			<circle class="st14" cx="336.8" cy="345.2" r="1.7"/>
		</g>
	</g>
</g>
<g>
	<g>
		<g>
			<rect x="641.6" y="294.4" class="st4" width="5.4" height="5.4"/>
			<circle class="st14" cx="644.3" cy="297" r="2.7"/>
		</g>
	</g>
</g>
<g>
	<g>
		<g>
			<rect x="992.9" y="301" class="st4" width="3.1" height="3.1"/>
			<circle class="st14" cx="994.5" cy="302.6" r="1.6"/>
		</g>
	</g>
</g>
<g>
	<g>
		<g>
			<rect x="809.2" y="295.2" class="st4" width="7.5" height="7.5"/>
			<circle class="st14" cx="812.9" cy="298.9" r="3.7"/>
		</g>
	</g>
</g>
<g>
	<g>
		<g>
			<rect x="984.5" y="570.6" class="st4" width="5" height="5"/>
			<circle class="st14" cx="987.1" cy="573.1" r="2.5"/>
		</g>
	</g>
</g>
<g>
	<g>
		<g>
			<rect x="1026.8" y="780.2" class="st4" width="4.5" height="4.5"/>
			<circle class="st14" cx="1029.1" cy="782.5" r="2.2"/>
		</g>
	</g>
</g>
<g>
	<g>
		<g>
			<rect x="920.8" y="816.9" class="st4" width="9" height="9"/>
			<circle class="st14" cx="925.3" cy="821.4" r="4.5"/>
		</g>
	</g>
</g>
<g>
	<g>
		<g>
			<rect x="1038.9" y="95.7" class="st4" width="6.2" height="6.2"/>
			<circle class="st14" cx="1042" cy="98.9" r="3.1"/>
		</g>
	</g>
</g>
<g>
	<g>
		<g>
			<rect x="857.9" y="140.7" class="st4" width="5.2" height="5.2"/>
			<circle class="st14" cx="860.5" cy="143.3" r="2.6"/>
		</g>
	</g>
</g>
<g>
	<g>
		<g>
			<rect x="937.7" y="196.5" class="st4" width="4.8" height="4.8"/>
			<circle class="st14" cx="940.1" cy="198.9" r="2.4"/>
		</g>
	</g>
</g>
</svg>
