<?xml version="1.0" encoding="utf-8"?>
<!-- Generator: Adobe Illustrator 23.0.6, SVG Export Plug-In . SVG Version: 6.00 Build 0)  -->
<svg version="1.1" id="Calque_1" xmlns="http://www.w3.org/2000/svg" xmlns:xlink="http://www.w3.org/1999/xlink" x="0px" y="0px"
	 viewBox="0 0 814.5 1040.9" style="enable-background:new 0 0 814.5 1040.9;" xml:space="preserve">
<style type="text/css">
	.st0{fill:url(#SVGID_1_);}
	.st1{fill:#A8BD3E;}
	.st2{fill:#68753F;}
	.st3{fill:#939894;}
	.st4{fill:#A4A9A3;}
	.st5{fill:#62C5C0;}
	.st6{fill:url(#SVGID_2_);}
	.st7{fill:url(#SVGID_3_);}
	.st8{fill:url(#SVGID_4_);}
	.st9{fill:url(#SVGID_5_);}
	.st10{fill:#5D5666;}
	.st11{fill:#47B6B0;}
	.st12{fill:url(#SVGID_6_);}
	.st13{opacity:0.6;fill:url(#SVGID_7_);enable-background:new    ;}
	.st14{opacity:0.3;fill:url(#SVGID_8_);enable-background:new    ;}
	.st15{opacity:0.6;fill:url(#SVGID_9_);enable-background:new    ;}
	.st16{clip-path:url(#SVGID_11_);}
	.st17{fill:url(#SVGID_12_);}
	.st18{fill:url(#SVGID_13_);}
	.st19{fill:url(#SVGID_14_);}
	.st20{fill:url(#SVGID_15_);}
	.st21{fill:url(#SVGID_16_);}
	.st22{fill:none;}
	.st23{fill:#DBF8F7;}
	.st24{fill:#C3DDDB;}
</style>
<title>random barely visible rift7Fichier 3</title>
<g>
	<g id="Calque_1-2">
		
			<linearGradient id="SVGID_1_" gradientUnits="userSpaceOnUse" x1="4884.6558" y1="481.55" x2="5698.9072" y2="481.55" gradientTransform="matrix(-1 0 0 -1 5698.9072 1002)">
			<stop  offset="0" style="stop-color:#00112D"/>
			<stop  offset="1" style="stop-color:#6D8ACC"/>
		</linearGradient>
		<path class="st0" d="M0.1,707.3c0-0.8,0-1.7,0-2.5c-1.3-24.4,22.1-92.6,67.2-149.3c56.4-70.9,95.2-48.5,163-122
			c83.4-90.4,71.9-150.4,153-198c80.1-47,120.8-18.3,203-77c81.4-58.1,94.9-101.4,151-134c17.8-10.3,42.6-20.6,77-24.5v1040.9
			c-22.9-10-46.5-18.2-70.7-24.4c-97.8-25.7-125.5,15.6-217.1,0.2c-92.8-15.7-103.3-76-213.5-130.9c-89.6-44.6-117.8-9.9-195.8-56.2
			C49.9,789.6,1.5,728.1,0.1,708.9c0-0.2,0-0.3,0-0.4v-0.6C0.1,707.6,0.1,707.5,0.1,707.3z"/>
		<path class="st1" d="M814.4,1040.9V478c-41.2-4.3-131.8-7.2-208,43.5c-37.2,24.7-38.3,40.4-87,71c-17.6,11.1-83.4,53.7-178,61
			c-66.7,5.2-79.3-13.2-156-5c-59.2,6.3-116.5,23.9-169,52c-5.6,3-11,6.1-16.2,9.1c2.5,20,50.6,80.5,117,119.9
			c78,46.3,106.3,11.6,195.8,56.2c110.2,54.9,120.8,115.2,213.5,130.9c91.6,15.5,119.4-25.8,217.2-0.2
			C767.8,1022.7,791.5,1030.9,814.4,1040.9z"/>
		<path class="st2" d="M568.6,935.6L515,904.7h52.3v-35.9H452.8l-55.3-31.9h85.2v-35.8H335.2l-13.8-8l71.7-127.5L814.5,910v91.2
			H682.9l-58.8-33.9h57.8v-31.8L568.6,935.6L568.6,935.6z"/>
		<path class="st3" d="M248.1,484v67.2c16.3,1.5,32.2,21.8,29.1,48.1c-0.1,1.1-0.2,2.3-0.2,3.4v164.7l57.8,33.4V646.2
			c0-2.5,0.3-5.1,1-7.5c2-7.8,7.3-14.4,14.5-18c4.1-2.2,8.8-3.1,13.4-2.8c16.3,1.5,32.2,21.8,29.1,48.1c-0.1,1.1-0.2,2.3-0.2,3.4
			v164.7l58.8,34V712.9c-0.1-10.8,5.9-20.6,15.5-25.5c4.1-2.2,8.8-3.1,13.4-2.8c16.3,1.5,32.2,21.8,29.1,48.1
			c-0.1,1.1-0.2,2.3-0.2,3.4v165.3l57.8,33.4V780.7c0-2.5,0.3-5.1,1-7.5c2-7.8,7.3-14.4,14.5-18c4.1-2.2,8.8-3.1,13.4-2.8
			c16.3,1.5,32.2,21.8,29.1,48.1c-0.1,1.1-0.2,2.3-0.2,3.4V968l28.9,16.9l28.9,16.7V846.9c0-2.5,0.3-5.1,1-7.5
			c2-7.8,7.3-14.4,14.5-18c1.5-0.8,3.1-1.4,4.8-1.9c2.8-0.8,5.7-1.1,8.6-0.9v-67.2l-37.6-21.7l-19.3-11.1l-94.8-54.8l-22.6-13l0,0
			l-94.8-54.7l-20.8-12l-94.8-54.8L248.1,484L248.1,484z"/>
		<path class="st4" d="M248.1,483.9l78.4,45.3l94.8,54.8l20.7,12l94.7,54.7l0,0l22.6,13l94.8,54.8l19.3,11.1l37.6,21.7v-0.5l6.1-3.5
			L306.7,508.5L261.2,482l-4.8-2.8l-0.4,0.2C253.4,480.9,250.8,482.5,248.1,483.9z"/>
		<path class="st5" d="M256.4,479.2l4.8,2.8l45.6,26.5l410.4,238.9l0.8,0.5l0,0v7l45.4-25.8v-7.3l-0.8-0.5L306.8,456l-4.7-2.7
			l-0.3,0.2C286.7,462,271.6,470.6,256.4,479.2z"/>
		<path class="st4" d="M302.1,453.3l4.7,2.7l455.9,265.2l6.3-3.6l-462.2-267l0,0C305.2,451.5,303.7,452.4,302.1,453.3z"/>
		<path class="st4" d="M306.8,450.1v0.5l462.3,267l-6.3,3.6l0.8,0.5l6.4-3.7v-0.5L307,450.1L306.8,450.1z"/>
		
			<linearGradient id="SVGID_2_" gradientUnits="userSpaceOnUse" x1="359.3735" y1="291.9592" x2="344.2636" y2="348.3292" gradientTransform="matrix(1 0 0 -1 0 1002)">
			<stop  offset="0" style="stop-color:#726C7A"/>
			<stop  offset="0.48" style="stop-color:#6D6775"/>
		</linearGradient>
		<path class="st6" d="M334.7,646.2v154.4l0.7,0.4l57-32.9v-98.7c0-1.1,0.1-2.3,0.2-3.4c3.1-26.3-12.8-46.6-29.1-48.1
			c-4.6-0.3-9.3,0.6-13.4,2.8c-7.2,3.6-12.5,10.2-14.5,18C335,641.1,334.7,643.7,334.7,646.2z"/>
		
			<linearGradient id="SVGID_3_" gradientUnits="userSpaceOnUse" x1="478.021" y1="217.1346" x2="462.9109" y2="273.5146" gradientTransform="matrix(1 0 0 -1 0 1002)">
			<stop  offset="0" style="stop-color:#726C7A"/>
			<stop  offset="0.48" style="stop-color:#6D6775"/>
		</linearGradient>
		<path class="st7" d="M451.2,712.9V868l0.4,0.2l57.4-33.3V736c0-1.1,0.1-2.3,0.2-3.4c3.1-26.3-12.8-46.6-29.1-48.1
			c-4.6-0.3-9.3,0.6-13.4,2.8C457.1,692.3,451.1,702.2,451.2,712.9z"/>
		
			<linearGradient id="SVGID_4_" gradientUnits="userSpaceOnUse" x1="593.446" y1="149.8318" x2="578.3462" y2="206.2119" gradientTransform="matrix(1 0 0 -1 0 1002)">
			<stop  offset="0" style="stop-color:#726C7A"/>
			<stop  offset="0.48" style="stop-color:#6D6775"/>
		</linearGradient>
		<path class="st8" d="M566.7,934.8v0.2l0.3,0.2l57.4-33.2v-98.2c0-1.1,0.1-2.3,0.2-3.4c3.1-26.3-12.8-46.6-29.1-48.1
			c-4.6-0.3-9.3,0.6-13.4,2.8c-7.2,3.6-12.5,10.2-14.5,18c-0.7,2.5-1,5-1,7.5L566.7,934.8z"/>
		
			<linearGradient id="SVGID_5_" gradientUnits="userSpaceOnUse" x1="715.584" y1="94.0262" x2="699.4241" y2="154.3462" gradientTransform="matrix(1 0 0 -1 0 1002)">
			<stop  offset="0" style="stop-color:#726C7A"/>
			<stop  offset="0.48" style="stop-color:#6D6775"/>
		</linearGradient>
		<path class="st9" d="M682.3,846.9v154.7l58.8-33.9V813c0-5,1.3-9.9,3.7-14.2l-33.6,18.8v1c-2.9-0.3-5.8,0.1-8.6,0.9
			c-1.7,0.5-3.3,1.1-4.8,1.9c-7.2,3.6-12.5,10.2-14.5,18C682.6,841.8,682.2,844.3,682.3,846.9z"/>
		<path class="st10" d="M711.1,751.8v65.7l33.6-18.8l0,0l25.2-14.1V718l-6.4,3.7v7.3l-45.4,25.8v-7l0,0L711.1,751.8z"/>
		<path class="st4" d="M711.1,751.4v0.5l6.9-4l-0.8-0.5l-6.1,3.5L711.1,751.4L711.1,751.4z"/>
		<path class="st11" d="M763.4,721.5v173.3c0,3.2-1.7,6.1-4.5,7.7l-9.9,5.6c-2.8,1.6-4.5,4.5-4.5,7.7v18.7c0,3.1-1.7,6-4.4,7.6
			l-9.1,5.4c-4.2,2.5-9.7,1.1-12.2-3.1c-0.8-1.4-1.2-2.9-1.2-4.5V747.4L763.4,721.5z"/>
		<path class="st11" d="M750.6,915l2.6-1.4c0.7-0.4,1.6-0.1,2,0.6c0.1,0.2,0.2,0.5,0.2,0.7v9.3c0,0.5-0.3,1-0.8,1.3l-2.6,1.4
			c-0.7,0.4-1.6,0.1-2-0.6c-0.1-0.2-0.2-0.5-0.2-0.7v-9.3C749.8,915.7,750.1,915.3,750.6,915z"/>
		<path class="st11" d="M758.3,923.9l2.6-1.4c0.7-0.4,1.6-0.1,2,0.6c0.1,0.2,0.2,0.4,0.2,0.7v9.3c0,0.5-0.3,1-0.8,1.3l-2.6,1.4
			c-0.7,0.4-1.6,0.1-2-0.6c-0.1-0.2-0.2-0.5-0.2-0.7v-9.2C757.5,924.7,757.8,924.2,758.3,923.9z"/>
		<path class="st11" d="M729.5,953.1l2.6-1.4c0.7-0.4,1.6-0.1,1.9,0.6c0.1,0.2,0.2,0.4,0.2,0.7v9.1c0,0.5-0.3,1-0.8,1.3l-2.6,1.4
			c-0.7,0.4-1.6,0.1-1.9-0.6c-0.1-0.2-0.2-0.4-0.2-0.7v-9.1C728.7,953.8,729,953.3,729.5,953.1z"/>
		
			<linearGradient id="SVGID_6_" gradientUnits="userSpaceOnUse" x1="-1184.0398" y1="752.7402" x2="-1288.62" y2="648.1603" gradientTransform="matrix(0.97 0.22 -0.22 0.97 1691.3906 -108.4252)">
			<stop  offset="0" style="stop-color:#ADAFD4"/>
			<stop  offset="0.31" style="stop-color:#B1C3DC"/>
			<stop  offset="0.77" style="stop-color:#B7DDE6"/>
			<stop  offset="1" style="stop-color:#BAE6EA"/>
		</linearGradient>
		<circle class="st12" cx="335" cy="294.1" r="73.9"/>
		
			<linearGradient id="SVGID_7_" gradientUnits="userSpaceOnUse" x1="-1213.5417" y1="769.3043" x2="-1265.2816" y2="628.6942" gradientTransform="matrix(0.97 0.22 -0.22 0.97 1691.3906 -108.4252)">
			<stop  offset="0" style="stop-color:#ADAFD4"/>
			<stop  offset="0.32" style="stop-color:#969BCD"/>
			<stop  offset="0.61" style="stop-color:#A8C1DA"/>
			<stop  offset="0.87" style="stop-color:#B5DCE5"/>
			<stop  offset="1" style="stop-color:#BAE6EA"/>
		</linearGradient>
		<path class="st13" d="M408.9,290.6c0,0.9,0.1,1.8,0.1,2.6c13.6,7.9,21.2,15.8,19.7,22.3c-3.2,14.1-47.8,15.9-99.5,4
			s-91-32.9-87.7-47c1.5-6.5,11.8-10.4,27.4-11.5c0.4-0.8,0.8-1.6,1.2-2.4c-19.7,0.7-32.8,4.9-34.5,12.5c-3.4,15,38.3,37.3,93.2,50
			s102.2,10.7,105.7-4.3C436.2,309.4,426.3,299.8,408.9,290.6z"/>
		
			<linearGradient id="SVGID_8_" gradientUnits="userSpaceOnUse" x1="-1224.9734" y1="738.1971" x2="-1253.4833" y2="660.7071" gradientTransform="matrix(0.97 0.22 -0.22 0.97 1691.3906 -108.4252)">
			<stop  offset="0" style="stop-color:#ADAFD4"/>
			<stop  offset="0.32" style="stop-color:#969BCD"/>
			<stop  offset="0.61" style="stop-color:#A8C1DA"/>
			<stop  offset="0.87" style="stop-color:#B5DCE5"/>
			<stop  offset="1" style="stop-color:#BAE6EA"/>
		</linearGradient>
		<path class="st14" d="M409,293.3v1.9c11.1,6.9,17.1,13.8,15.8,19.6c-3.1,13.5-45.8,15.2-95.3,3.9s-87.2-31.6-84.1-45.1
			c1.3-5.7,9.7-9.3,22.7-10.7c0.3-0.6,0.5-1.1,0.8-1.7c-15.7,1.1-25.9,5-27.4,11.5c-3.2,14.1,36,35.1,87.7,47s96.2,10.1,99.5-4
			C430.1,309.1,422.6,301.2,409,293.3z"/>
		
			<linearGradient id="SVGID_9_" gradientUnits="userSpaceOnUse" x1="-1230.7804" y1="731.7535" x2="-1248.3005" y2="666.3535" gradientTransform="matrix(0.97 0.22 -0.22 0.97 1691.3906 -108.4252)">
			<stop  offset="0" style="stop-color:#ADAFD4"/>
			<stop  offset="0.32" style="stop-color:#969BCD"/>
			<stop  offset="0.61" style="stop-color:#A8C1DA"/>
			<stop  offset="0.87" style="stop-color:#B5DCE5"/>
			<stop  offset="1" style="stop-color:#BAE6EA"/>
		</linearGradient>
		<path class="st15" d="M409,295.2c0,0.9,0,1.7-0.1,2.6c7.9,5.7,12,11.2,11,15.9c-2.9,12.8-43.3,14.4-90.1,3.6
			c-46.9-10.8-82.5-29.9-79.5-42.6c1.1-4.7,7.2-7.9,16.8-9.5c0.3-0.8,0.7-1.6,1.1-2.4c-13,1.4-21.4,5-22.7,10.7
			c-3.1,13.5,34.5,33.7,84.1,45.1c49.5,11.4,92.2,9.7,95.3-3.8C426.1,309,420.1,302.1,409,295.2z"/>
		<g>
			<g>
				<g>
					<defs>
						<path id="SVGID_10_" d="M0.1,707.3c0-0.8,0-1.7,0-2.5c-1.3-24.4,22.1-92.6,67.2-149.3c56.4-70.9,95.2-48.5,163-122
							c83.4-90.4,71.9-150.4,153-198c80.1-47,120.8-18.3,203-77c81.4-58.1,94.9-101.4,151-134c17.8-10.3,42.6-20.6,77-24.5v1040.9
							c-22.9-10-46.5-18.2-70.7-24.4c-97.8-25.7-125.5,15.6-217.1,0.2c-92.8-15.7-103.3-76-213.5-130.9
							c-89.6-44.6-117.8-9.9-195.8-56.2C49.9,789.6,1.5,728.1,0.1,708.9c0-0.2,0-0.3,0-0.4v-0.6C0.1,707.6,0.1,707.5,0.1,707.3z"/>
					</defs>
					<clipPath id="SVGID_11_">
						<use xlink:href="#SVGID_10_"  style="overflow:visible;"/>
					</clipPath>
					<g class="st16">
						
							<linearGradient id="SVGID_12_" gradientUnits="userSpaceOnUse" x1="3226.9846" y1="1833.1207" x2="3167.905" y2="1892.2006" gradientTransform="matrix(0.94 0.33 0.33 -0.94 -2963.8584 804.5021)">
							<stop  offset="0" style="stop-color:#C1DCE3"/>
							<stop  offset="0.34" style="stop-color:#ADCBD8"/>
							<stop  offset="1" style="stop-color:#7BA2BE"/>
						</linearGradient>
						<circle class="st17" cx="658.6" cy="113.2" r="41.8"/>
						
							<linearGradient id="SVGID_13_" gradientUnits="userSpaceOnUse" x1="486.8426" y1="1080.4181" x2="397.5758" y2="1169.6949" gradientTransform="matrix(0.86 -0.51 -0.51 -0.86 315.8833 1737.6122)">
							<stop  offset="0" style="stop-color:#B9E3E3"/>
							<stop  offset="0.32" style="stop-color:#A5D5D9"/>
							<stop  offset="0.98" style="stop-color:#71AFBF"/>
							<stop  offset="1" style="stop-color:#6FAEBE"/>
						</linearGradient>
						<circle class="st18" cx="122.7" cy="544.6" r="63.1"/>
						
							<linearGradient id="SVGID_14_" gradientUnits="userSpaceOnUse" x1="442.239" y1="1090.7286" x2="442.239" y2="1156.2086" gradientTransform="matrix(0.86 -0.51 -0.51 -0.86 315.8833 1737.6122)">
							<stop  offset="0" style="stop-color:#B9E3E3"/>
							<stop  offset="0.32" style="stop-color:#A5D5D9"/>
							<stop  offset="0.98" style="stop-color:#71AFBF"/>
							<stop  offset="1" style="stop-color:#6FAEBE"/>
						</linearGradient>
						<path class="st19" d="M181.8,511.2c-1.7,0.1-3.5,0.2-5.3,0.4l1.3,2.2c1.4-0.1,2.8-0.2,4.1-0.3c16.9-0.8,27.8,1.6,29.2,6.5
							s-6.5,12.8-21.2,21.2c-15.6,8.8-37.2,17.5-60.9,24.4c-52.6,15.3-90.9,15.2-93.7,5.5c-1.4-4.7,5.4-11.8,18.7-19.8
							c1.7-1,3.6-2.1,5.5-3.1c-0.2-0.8-0.3-1.6-0.3-2.4c-17.3,9.2-28.3,18.6-26.2,26c4,13.9,52.3,8.9,96.5-4
							c23.9-6.9,45.6-15.7,61.4-24.6l2.7-1.5c10.7-6.4,21.7-15,19.6-22.3C211.1,511.5,194.9,510.6,181.8,511.2z"/>
					</g>
				</g>
			</g>
		</g>
		
			<linearGradient id="SVGID_15_" gradientUnits="userSpaceOnUse" x1="476.3181" y1="739.6125" x2="513.2083" y2="739.6125" gradientTransform="matrix(1 0 0 -1 0 1002)">
			<stop  offset="0" style="stop-color:#C1DCE3"/>
			<stop  offset="0.34" style="stop-color:#ADCBD8"/>
			<stop  offset="1" style="stop-color:#7BA2BE"/>
		</linearGradient>
		<path class="st20" d="M476.8,277.7l35-33.1c0.1-0.1,0.1-0.1,0.2,0l0,0c0,0.1,0,0.1,0,0.2l-33.1,35c-0.6,0.6-1.5,0.6-2,0
			S476.2,278.3,476.8,277.7L476.8,277.7z"/>
		
			<linearGradient id="SVGID_16_" gradientUnits="userSpaceOnUse" x1="740.3014" y1="831.6125" x2="777.1915" y2="831.6125" gradientTransform="matrix(1 0 0 -1 0 1002)">
			<stop  offset="0" style="stop-color:#C1DCE3"/>
			<stop  offset="0.34" style="stop-color:#ADCBD8"/>
			<stop  offset="1" style="stop-color:#7BA2BE"/>
		</linearGradient>
		<path class="st21" d="M740.8,185.7l35-33.1c0.1-0.1,0.1-0.1,0.2,0l0,0c0,0.1,0,0.1,0,0.2l-33.2,35c-0.6,0.6-1.5,0.6-2,0
			C740.2,187.2,740.2,186.3,740.8,185.7L740.8,185.7L740.8,185.7z"/>
		<rect x="678.2" y="220.2" class="st22" width="19.4" height="19.4"/>
		<path class="st23" d="M688.2,220.4l3.8,5.3l0.1,0.1l5.3,3.8c0.2,0.1,0.2,0.4,0.1,0.6l-0.1,0.1l-5.3,3.8l-0.1,0.1l-3.8,5.3
			c-0.1,0.2-0.4,0.2-0.6,0.1l-0.1-0.1l-3.8-5.3l-0.1-0.1l-5.3-3.8c-0.2-0.1-0.2-0.4-0.1-0.6l0.1-0.1l5.3-3.8l0.1-0.1l3.8-5.3
			c0.1-0.2,0.4-0.2,0.6-0.1C688.2,220.4,688.2,220.4,688.2,220.4z"/>
		<rect x="492.4" y="399.5" class="st22" width="17.3" height="17.3"/>
		<path class="st23" d="M501.3,399.7l3.4,4.7l0.1,0.1l4.7,3.4c0.2,0.1,0.2,0.4,0.1,0.5l-0.1,0.1l-4.7,3.4l-0.1,0.1l-3.4,4.7
			c-0.1,0.2-0.4,0.2-0.5,0.1l-0.1-0.1l-3.4-4.6l-0.1-0.1l-4.7-3.4c-0.2-0.1-0.2-0.4-0.1-0.5l0.1-0.1l4.7-3.4l0.1-0.1l3.4-4.7
			c0.1-0.2,0.3-0.2,0.5-0.1C501.2,399.6,501.3,399.7,501.3,399.7z"/>
		<rect x="187.7" y="571.3" class="st22" width="13.8" height="13.8"/>
		<path class="st23" d="M194.9,571.5l2.7,3.7l0.1,0.1l3.7,2.7c0.1,0.1,0.2,0.3,0.1,0.4c0,0,0,0.1-0.1,0.1l-3.7,2.7l-0.1,0.1
			l-2.7,3.7c-0.1,0.1-0.3,0.2-0.4,0.1c0,0,0,0-0.1-0.1l-2.7-3.7l-0.1-0.1l-3.7-2.7c-0.1-0.1-0.2-0.3-0.1-0.4c0,0,0,0,0.1-0.1
			l3.7-2.7l0.1-0.1l2.7-3.7C194.4,571.3,194.6,571.3,194.9,571.5C194.8,571.4,194.8,571.5,194.9,571.5z"/>
		<rect x="39" y="617.6" class="st22" width="7.9" height="7.9"/>
		<path class="st23" d="M43.1,617.7l1.6,2.2l0,0l2.1,1.6c0.1,0.1,0.1,0.2,0,0.3l0,0l-2.1,1.6l0,0l-1.6,2.2c-0.1,0.1-0.2,0.1-0.3,0
			l0,0l-1.6-2.2l0,0l-2.1-1.6c-0.1-0.1-0.1-0.2,0-0.3l0,0l2.2-1.6l0,0l1.6-2.2C42.8,617.6,42.9,617.6,43.1,617.7
			C43,617.7,43.1,617.7,43.1,617.7z"/>
		<rect x="763.4" y="352.8" class="st22" width="10.3" height="10.3"/>
		<path class="st23" d="M768.7,352.9l2,2.8v0.1l2.8,2c0.1,0.1,0.1,0.2,0.1,0.3c0,0,0,0-0.1,0.1l-2.8,2v0.1l-2,2.8
			c-0.1,0.1-0.2,0.1-0.3,0.1c0,0,0,0-0.1-0.1l-2-2.8l-0.1-0.1l-2.8-2c-0.1-0.1-0.1-0.2-0.1-0.3c0,0,0,0,0.1-0.1l2.8-2l0.1-0.1l2-2.8
			C768.4,352.8,768.6,352.7,768.7,352.9C768.7,352.8,768.7,352.8,768.7,352.9z"/>
		<rect x="631.3" y="357.5" class="st22" width="4.9" height="4.9"/>
		<circle class="st24" cx="633.7" cy="359.9" r="2.5"/>
		<rect x="561.8" y="199.3" class="st22" width="1.2" height="1.2"/>
		<circle class="st24" cx="562.4" cy="199.9" r="0.6"/>
		<rect x="561.5" y="275.6" class="st22" width="3.3" height="3.3"/>
		<circle class="st24" cx="563.1" cy="277.2" r="1.6"/>
		<rect x="459.6" y="313.7" class="st22" width="2" height="2"/>
		<circle class="st24" cx="460.6" cy="314.7" r="1"/>
		<rect x="428.8" y="374.4" class="st22" width="4.4" height="4.4"/>
		<circle class="st24" cx="431" cy="376.6" r="2.2"/>
		<rect x="787.3" y="224.9" class="st22" width="1.8" height="1.8"/>
		<circle class="st24" cx="788.1" cy="225.8" r="0.9"/>
		<rect x="782.3" y="109.7" class="st22" width="2.1" height="2.1"/>
		<circle class="st24" cx="783.4" cy="110.8" r="1"/>
		<rect x="595.2" y="463.9" class="st22" width="2.6" height="2.6"/>
		<circle class="st24" cx="596.5" cy="465.1" r="1.3"/>
		<rect x="483.1" y="473.3" class="st22" width="2.1" height="2.1"/>
		<circle class="st24" cx="484.1" cy="474.3" r="1"/>
		<rect x="499.1" y="538.3" class="st22" width="0.7" height="0.7"/>
		<circle class="st24" cx="499.4" cy="538.7" r="0.3"/>
		<rect x="756.7" y="436.5" class="st22" width="4.3" height="4.3"/>
		<circle class="st24" cx="758.9" cy="438.6" r="2.1"/>
		<rect x="367.3" y="428" class="st22" width="2.8" height="2.8"/>
		<circle class="st24" cx="368.7" cy="429.4" r="1.4"/>
		<rect x="285.7" y="409.7" class="st22" width="2.6" height="2.6"/>
		<circle class="st24" cx="287" cy="411" r="1.3"/>
		<rect x="206.3" y="480.4" class="st22" width="4.3" height="4.3"/>
		<circle class="st24" cx="208.4" cy="482.5" r="2.1"/>
		<rect x="264" y="434" class="st22" width="1" height="1"/>
		<circle class="st24" cx="264.6" cy="434.5" r="0.5"/>
		<rect x="232.9" y="610.1" class="st22" width="4.2" height="4.2"/>
		<circle class="st24" cx="234.9" cy="612.2" r="2.1"/>
		<rect x="139.3" y="631" class="st22" width="3.4" height="3.4"/>
		<circle class="st24" cx="141" cy="632.6" r="1.7"/>
		<rect x="73.1" y="654.6" class="st22" width="1" height="1"/>
		<circle class="st24" cx="73.6" cy="655.1" r="0.5"/>
		<rect x="73.8" y="617.6" class="st22" width="1.5" height="1.5"/>
		<circle class="st24" cx="74.6" cy="618.3" r="0.8"/>
		<rect x="55.6" y="594.2" class="st22" width="1.3" height="1.3"/>
		<circle class="st24" cx="56.2" cy="594.8" r="0.6"/>
		<rect x="21.4" y="670.4" class="st22" width="4.2" height="4.2"/>
		<circle class="st24" cx="23.5" cy="672.5" r="2.1"/>
		<rect x="254.9" y="584.2" class="st22" width="2.9" height="2.9"/>
		<circle class="st24" cx="256.4" cy="585.7" r="1.5"/>
		<rect x="770.7" y="28.6" class="st22" width="2.9" height="2.9"/>
		<circle class="st24" cx="772.1" cy="30.1" r="1.5"/>
	</g>
</g>
</svg>
