<?xml version="1.0" encoding="utf-8"?>
<!-- Generator: Adobe Illustrator 23.0.6, SVG Export Plug-In . SVG Version: 6.00 Build 0)  -->
<svg version="1.1" id="Calque_1" xmlns="http://www.w3.org/2000/svg" xmlns:xlink="http://www.w3.org/1999/xlink" x="0px" y="0px"
	 viewBox="0 0 1247.8 918" style="enable-background:new 0 0 1247.8 918;" xml:space="preserve">
<style type="text/css">
	.st0{fill:url(#SVGID_1_);}
	.st1{opacity:0.3;fill:#FFFFFF;enable-background:new    ;}
	.st2{fill:url(#SVGID_2_);}
	.st3{fill:url(#SVGID_3_);}
	.st4{fill:url(#SVGID_4_);}
	.st5{fill:none;}
	.st6{fill:#FFFFFF;}
	.st7{fill:#A3EBFF;}
	.st8{fill:#E7ECF4;}
</style>
<title>random barely visible riftFichier 9</title>
<g>
	<g id="Calque_1-2">
		
			<linearGradient id="SVGID_1_" gradientUnits="userSpaceOnUse" x1="36" y1="956" x2="627.0619" y2="364.9381" gradientTransform="matrix(1 0 0 -1 0 920)">
			<stop  offset="0" style="stop-color:#435BB2"/>
			<stop  offset="0.11" style="stop-color:#4162B1;stop-opacity:0.88"/>
			<stop  offset="0.54" style="stop-color:#397DAD;stop-opacity:0.41"/>
			<stop  offset="0.85" style="stop-color:#3695BA;stop-opacity:0.11"/>
			<stop  offset="1" style="stop-color:#369FBF;stop-opacity:0"/>
		</linearGradient>
		<path class="st0" d="M0,918c35.1-44.2,73.2-133.7,191-183c124.1-51.9,203.2-3.3,323-77c7.2-4.3,14.2-9.2,20.7-14.5
			c63.7-52.7,100.9-105,112.3-122.5c90.3-139.1,181.1-132.9,240-272c34.1-80.4,25.6-134.2,85-192c32-31.1,67-47.3,91-56L0,0V918z"/>
		<path class="st1" d="M289.6,76l4.7,8.6c0.1,0.2,0.3,0.4,0.5,0.5l8.6,4.7c0.6,0.3,0.8,1.1,0.5,1.7c-0.1,0.2-0.3,0.4-0.5,0.5
			l-8.6,4.7c-0.2,0.1-0.4,0.3-0.5,0.5l-4.7,8.6c-0.3,0.6-1.1,0.8-1.7,0.5c-0.2-0.1-0.4-0.3-0.5-0.5l-4.7-8.6
			c-0.1-0.2-0.3-0.4-0.5-0.5l-8.6-4.6c-0.6-0.3-0.8-1.1-0.5-1.7c0.1-0.2,0.3-0.4,0.5-0.5l8.6-4.7c0.2-0.1,0.4-0.3,0.5-0.5l4.7-8.6
			c0.3-0.6,1.1-0.8,1.7-0.5C289.4,75.6,289.5,75.8,289.6,76z"/>
		<path class="st1" d="M661.7,656l4.7,8.6c0.1,0.2,0.3,0.4,0.5,0.5l8.6,4.7c0.6,0.3,0.8,1.1,0.5,1.7c-0.1,0.2-0.3,0.4-0.5,0.5
			l-8.6,4.7c-0.2,0.1-0.4,0.3-0.5,0.5l-4.7,8.6c-0.3,0.6-1.1,0.8-1.7,0.5c-0.2-0.1-0.4-0.3-0.5-0.5l-4.7-8.6
			c-0.1-0.2-0.3-0.4-0.5-0.5l-8.6-4.7c-0.6-0.3-0.8-1.1-0.5-1.7c0.1-0.2,0.3-0.4,0.5-0.5l8.6-4.7c0.2-0.1,0.4-0.3,0.5-0.5l4.7-8.6
			c0.3-0.6,1.1-0.8,1.7-0.5C661.4,655.6,661.5,655.8,661.7,656z"/>
		<path class="st1" d="M120.7,359l4.7,8.6c0.1,0.2,0.3,0.4,0.5,0.5l8.6,4.7c0.6,0.3,0.8,1.1,0.5,1.7c-0.1,0.2-0.3,0.4-0.5,0.5
			l-8.6,4.7c-0.2,0.1-0.4,0.3-0.5,0.5l-4.7,8.6c-0.3,0.6-1.1,0.8-1.7,0.5c-0.2-0.1-0.4-0.3-0.5-0.5l-4.7-8.6
			c-0.1-0.2-0.3-0.4-0.5-0.5l-8.6-4.7c-0.6-0.3-0.8-1.1-0.5-1.7c0.1-0.2,0.3-0.4,0.5-0.5l8.6-4.7c0.2-0.1,0.4-0.3,0.5-0.5l4.7-8.6
			c0.3-0.6,1.1-0.8,1.7-0.5C120.4,358.6,120.5,358.8,120.7,359z"/>
		
			<linearGradient id="SVGID_2_" gradientUnits="userSpaceOnUse" x1="997.4541" y1="404.8809" x2="738.4459" y2="663.8991" gradientTransform="matrix(1 0 0 -1 0 920)">
			<stop  offset="0" style="stop-color:#369FBF;stop-opacity:0.5"/>
			<stop  offset="0.27" style="stop-color:#4CAFCD;stop-opacity:0.5"/>
			<stop  offset="0.82" style="stop-color:#8BDCF2;stop-opacity:0.5"/>
			<stop  offset="1" style="stop-color:#FFFFFF;stop-opacity:0.5"/>
		</linearGradient>
		<circle class="st2" cx="868" cy="385.6" r="183.1"/>
		
			<linearGradient id="SVGID_3_" gradientUnits="userSpaceOnUse" x1="3357.2554" y1="1621.5244" x2="3297.8445" y2="1680.9355" gradientTransform="matrix(1 0 0 -1 -2765.4099 2093.97)">
			<stop  offset="0" style="stop-color:#369FBF;stop-opacity:0.5"/>
			<stop  offset="0.27" style="stop-color:#4CAFCD;stop-opacity:0.5"/>
			<stop  offset="0.82" style="stop-color:#8BDCF2;stop-opacity:0.5"/>
			<stop  offset="1" style="stop-color:#FFFFFF;stop-opacity:0.5"/>
		</linearGradient>
		<circle class="st3" cx="562.1" cy="442.7" r="42"/>
		
			<linearGradient id="SVGID_4_" gradientUnits="userSpaceOnUse" x1="867.9241" y1="436" x2="867.9241" y2="625.9838" gradientTransform="matrix(1 0 0 -1 0 920)">
			<stop  offset="0" style="stop-color:#369FBF;stop-opacity:0.5"/>
			<stop  offset="0.27" style="stop-color:#4CAFCD;stop-opacity:0.5"/>
			<stop  offset="0.82" style="stop-color:#8BDCF2;stop-opacity:0.5"/>
			<stop  offset="1" style="stop-color:#FFFFFF;stop-opacity:0.5"/>
		</linearGradient>
		<path class="st4" d="M1064.9,390.2c-4.4-2.4-9-4.7-13.8-7v7.5c3.6,1.8,7.2,3.6,10.6,5.4c43.3,23,66.9,45.3,63.2,59.7
			s-35.2,22.4-84.3,21.3c-51.9-1.1-118.7-11.7-187.9-29.7c-153.7-40-249-97.2-241.7-125.4c3.5-13.6,31.2-21.5,76-21.5
			c5.9,0,12,0.1,18.4,0.4c1.1-2,1.4-4.8,2.9-6.4c-56.8-2.9-98.3,4.4-103.8,25.8C593.9,361.1,721.5,420.3,851,454
			c69.7,18.1,137,28.8,189.5,29.9c3,0.1,6,0.1,9,0.1c36.1,0,76.3-5,81.9-26.5C1137.4,434.3,1098.6,408.1,1064.9,390.2z"/>
		<rect x="382.5" y="253.5" class="st5" width="5.3" height="5.3"/>
		<circle class="st6" cx="385.1" cy="256.2" r="2.6"/>
		<rect x="362.5" y="598.2" class="st5" width="8.3" height="8.3"/>
		<circle class="st7" cx="366.7" cy="602.4" r="4.2"/>
		<rect x="791.3" y="751.2" class="st5" width="8.7" height="8.7"/>
		<circle class="st7" cx="795.7" cy="755.6" r="4.3"/>
		<rect x="1025.8" y="734.5" class="st5" width="5.4" height="5.4"/>
		<circle class="st7" cx="1028.5" cy="737.2" r="2.7"/>
		<rect x="709.6" y="62.9" class="st5" width="6.6" height="6.6"/>
		<circle class="st7" cx="712.9" cy="66.2" r="3.3"/>
		<rect x="203.2" y="472.5" class="st5" width="2.3" height="2.3"/>
		<circle class="st7" cx="204.3" cy="473.7" r="1.1"/>
		<rect x="124.9" y="477" class="st5" width="5.6" height="5.6"/>
		<circle class="st7" cx="127.7" cy="479.8" r="2.8"/>
		<rect x="111.7" y="209.5" class="st5" width="1.5" height="1.5"/>
		<circle class="st7" cx="112.4" cy="210.2" r="0.7"/>
		<rect x="720.4" y="625.2" class="st5" width="3.4" height="3.4"/>
		<circle class="st8" cx="722.1" cy="626.9" r="1.7"/>
		<rect x="1052.9" y="602.3" class="st5" width="6.4" height="6.4"/>
		<circle class="st8" cx="1056.1" cy="605.4" r="3.2"/>
		<rect x="583.5" y="93" class="st5" width="1.6" height="1.6"/>
		<circle class="st8" cx="584.3" cy="93.8" r="0.8"/>
		<rect x="289" y="448.1" class="st5" width="2.3" height="2.3"/>
		<circle class="st8" cx="290.1" cy="449.2" r="1.1"/>
		<rect x="241" y="415.4" class="st5" width="6.4" height="6.4"/>
		<circle class="st8" cx="244.2" cy="418.5" r="3.2"/>
		<rect x="392.9" y="769.5" class="st5" width="2.8" height="2.8"/>
		<circle class="st8" cx="394.3" cy="770.9" r="1.4"/>
		<rect x="461.7" y="449.2" class="st5" width="6.1" height="6.1"/>
		<circle class="st8" cx="464.8" cy="452.3" r="3"/>
		<rect x="1244.3" y="217.7" class="st5" width="3.4" height="3.4"/>
		<circle class="st8" cx="1246" cy="219.4" r="1.7"/>
		<rect x="734.8" y="137.1" class="st5" width="5.4" height="5.4"/>
		<circle class="st8" cx="737.5" cy="139.7" r="2.7"/>
		<rect x="156.8" y="147.4" class="st5" width="3.1" height="3.1"/>
		<circle class="st8" cx="158.4" cy="148.9" r="1.6"/>
		<rect x="454.9" y="139.1" class="st5" width="7.5" height="7.5"/>
		<circle class="st8" cx="458.6" cy="142.8" r="3.7"/>
		<rect x="168.1" y="593.7" class="st5" width="5" height="5"/>
		<circle class="st8" cx="170.6" cy="596.3" r="2.5"/>
	</g>
</g>
</svg>
