<?xml version="1.0" encoding="utf-8"?>
<!-- Generator: Adobe Illustrator 23.0.6, SVG Export Plug-In . SVG Version: 6.00 Build 0)  -->
<svg version="1.1" id="Calque_1" xmlns="http://www.w3.org/2000/svg" xmlns:xlink="http://www.w3.org/1999/xlink" x="0px" y="0px"
	 viewBox="0 0 874.4 932.9" style="enable-background:new 0 0 874.4 932.9;" xml:space="preserve">
<style type="text/css">
	.st0{fill:#90C43D;}
	.st1{fill:url(#SVGID_1_);}
	.st2{fill:url(#SVGID_2_);}
	.st3{clip-path:url(#SVGID_4_);}
	.st4{fill:url(#SVGID_5_);}
	.st5{opacity:0.6;fill:url(#SVGID_6_);enable-background:new    ;}
	.st6{opacity:0.3;fill:url(#SVGID_7_);enable-background:new    ;}
	.st7{opacity:0.6;fill:url(#SVGID_8_);enable-background:new    ;}
	.st8{fill:none;}
	.st9{fill:#D1E8F2;}
	.st10{fill:#D6D0EF;}
	.st11{fill:#DAC7FF;}
	.st12{fill:#CAFBFF;}
	.st13{fill:#57FFEF;}
	.st14{opacity:0.8;fill:url(#SVGID_9_);enable-background:new    ;}
	.st15{opacity:0.8;fill:url(#SVGID_10_);enable-background:new    ;}
	.st16{fill:url(#SVGID_11_);}
	.st17{fill:#488E2E;}
	.st18{fill:#5E401B;}
	.st19{fill:#FFEFD4;}
	.st20{fill:#30200E;}
	.st21{fill:url(#SVGID_12_);}
	.st22{fill:none;stroke:#10BF7C;stroke-miterlimit:10;}
	.st23{fill:#00D3D3;}
	.st24{fill:#EA4262;}
	.st25{fill:url(#SVGID_13_);}
	.st26{fill:url(#SVGID_14_);}
	.st27{fill:url(#SVGID_15_);}
	.st28{fill:#634029;}
	.st29{fill:url(#SVGID_16_);}
	.st30{fill:url(#SVGID_17_);}
	.st31{fill:url(#SVGID_18_);}
	.st32{fill:url(#SVGID_19_);}
	.st33{fill:url(#SVGID_20_);}
	.st34{fill:url(#SVGID_21_);}
	.st35{fill:url(#SVGID_22_);}
	.st36{fill:url(#SVGID_23_);}
	.st37{fill:url(#SVGID_24_);}
	.st38{fill:url(#SVGID_25_);}
	.st39{fill:url(#SVGID_26_);}
	.st40{fill:url(#SVGID_27_);}
	.st41{fill:#56301D;}
	.st42{fill:#279D63;}
	.st43{fill:#1E8153;}
	.st44{fill:#208A59;}
	.st45{fill:#13633E;}
	.st46{fill:#1D8354;}
	.st47{fill:#165133;}
	.st48{fill:url(#SVGID_28_);}
	.st49{opacity:0.6;fill:url(#SVGID_29_);enable-background:new    ;}
</style>
<title>random barely visible rift3Fichier 1</title>
<g>
	<g id="Calque_1-2">
		<path class="st0" d="M868.3,705c0.5,4.6-0.1,7.8-1.9,9.2c-0.3,0.3-0.7,0.5-1.1,0.6c-0.1,0.1-0.2,0.2-0.3,0.2
			c-2.1,1.3-5.3,0.2-9.3-2.7c-15.9-8.7-45.8-37.1-83.6-64.6C663,568.3,611.3,599.2,496,530.4c-90.1-53.7-70.3-75.7-140.4-103.8
			c-103.8-41.6-131,13.1-228.6-32.5c-34.9-16.3-70.5-41.5-127-57.8v596.6c45-26.3,83.4-35.5,110-39c61.9-8.1,93.5,5,188,1
			c96.4-4,110.4-41.7,229-72c96-24.6,132.4,8,228-20c0,0,79.3-7,107-46c3.7-5.3,6.6-11.2,8.4-17.4c4.5-17.5-1.5-35.8-2-35.7
			C868.3,703.9,868.3,704.1,868.3,705z"/>
		
			<linearGradient id="SVGID_1_" gradientUnits="userSpaceOnUse" x1="380.242" y1="-589.395" x2="526.902" y2="-1015.665" gradientTransform="matrix(1 0 0 1 0 1100)">
			<stop  offset="0" style="stop-color:#168519;stop-opacity:0"/>
			<stop  offset="0.16" style="stop-color:#188715;stop-opacity:0.18"/>
			<stop  offset="0.57" style="stop-color:#248B13;stop-opacity:0.62"/>
			<stop  offset="0.86" style="stop-color:#2A8E12;stop-opacity:0.89"/>
			<stop  offset="1" style="stop-color:#2B8F11"/>
		</linearGradient>
		<path class="st1" d="M214,476c82.2-44,124.2-25.9,137-19c27.3,14.8,32.2,40.1,61,78c30.3,39.9,67.9,68.8,107,90"/>
		
			<linearGradient id="SVGID_2_" gradientUnits="userSpaceOnUse" x1="0" y1="-735.4737" x2="874.3942" y2="-735.4737" gradientTransform="matrix(1 0 0 1 0 1100)">
			<stop  offset="2.663895e-07" style="stop-color:#00112D"/>
			<stop  offset="1" style="stop-color:#1788BF"/>
		</linearGradient>
		<path class="st2" d="M127,394.1c97.7,45.6,124.9-9.1,228.6,32.5c70,28.1,50.3,50,140.5,103.8c115.3,68.8,167,37.9,276.1,117.3
			c37.8,27.5,67.6,55.9,83.5,64.6c3,1.9,5.8,4.1,8.3,6.7c5.3,5.6,6.5,10.2,8,10c2.5-0.4,2.8-14.4,2-25c-2.9-37.5-25-92.1-73-147
			c-13.1-15-21.5-24.9-36-35.9c-39.3-29.7-74.5-29.2-127-86.1c-83.5-90.4-71.9-150.4-153-198c-80.1-47-120.8-18.3-203-77
			c-81.4-58.1-94.9-101.4-151-134C105,10.9,63.8-4.2,0,1v335.4C56.5,352.6,92.1,377.8,127,394.1z"/>
		<g>
			<g>
				<g>
					<g>
						<defs>
							<path id="SVGID_3_" d="M127,394.1c97.7,45.6,124.9-9.1,228.6,32.5c70,28.1,50.3,50,140.5,103.8
								c115.3,68.8,167,37.9,276.1,117.3c37.8,27.5,67.6,55.9,83.5,64.6c4,2.9,7.1,3.9,9.3,2.7c0.1-0.1,0.2-0.1,0.3-0.2
								c0.4-0.1,0.8-0.4,1.1-0.6c1.8-1.5,2.3-4.6,1.9-9.2c0.3-25.5-23-92.3-67.3-148c-56.4-70.9-95.2-48.5-163-122
								c-83.5-90.4-71.9-150.4-153-198c-80.1-47-120.8-18.3-203-77c-81.4-58.1-94.9-101.4-151-134C105,10.9,63.8-4.2,0,1v335.4
								C56.5,352.6,92.1,377.8,127,394.1z"/>
						</defs>
						<clipPath id="SVGID_4_">
							<use xlink:href="#SVGID_3_"  style="overflow:visible;"/>
						</clipPath>
						<g class="st3">
							
								<linearGradient id="SVGID_5_" gradientUnits="userSpaceOnUse" x1="-705.6154" y1="246.9572" x2="-918.6105" y2="33.952" gradientTransform="matrix(0.9841 -0.1776 0.1776 0.9841 1342.1555 -29.5062)">
								<stop  offset="0" style="stop-color:#7377DE"/>
								<stop  offset="0.31" style="stop-color:#6C9EE5"/>
								<stop  offset="0.77" style="stop-color:#63D2EE"/>
								<stop  offset="1" style="stop-color:#60E6F1"/>
							</linearGradient>
							<circle class="st4" cx="567.9" cy="252.9" r="150.6"/>
							
								<linearGradient id="SVGID_6_" gradientUnits="userSpaceOnUse" x1="-759.7429" y1="282.7958" x2="-865.1331" y2="-3.6342" gradientTransform="matrix(0.9841 -0.1776 0.1776 0.9841 1342.1555 -29.5062)">
								<stop  offset="0" style="stop-color:#7377DE"/>
								<stop  offset="0.32" style="stop-color:#515DDE"/>
								<stop  offset="0.61" style="stop-color:#589EE7"/>
								<stop  offset="0.87" style="stop-color:#5ED2EE"/>
								<stop  offset="1" style="stop-color:#60E6F1"/>
							</linearGradient>
							<path class="st5" d="M703.5,187.2c0.8,1.6,1.5,3.2,2.3,4.9c31.8,3.8,52.3,12.7,54.7,26.1c5.2,29-76.7,68.1-183,87.3
								s-196.9,11.2-202.1-17.8c-2.4-13.4,13.7-28.9,42.1-43.6c0.1-1.8,0.2-3.6,0.4-5.4c-36.3,17-57.4,35.4-54.6,51.1
								c5.6,30.9,101.7,39.3,214.7,18.9s200-61.9,194.5-92.7C769.7,200.4,743.4,190.5,703.5,187.2z"/>
							
								<linearGradient id="SVGID_7_" gradientUnits="userSpaceOnUse" x1="-782.8747" y1="219.487" x2="-840.9811" y2="61.5745" gradientTransform="matrix(0.9841 -0.1776 0.1776 0.9841 1342.1555 -29.5062)">
								<stop  offset="0" style="stop-color:#7377DE"/>
								<stop  offset="0.32" style="stop-color:#515DDE"/>
								<stop  offset="0.61" style="stop-color:#589EE7"/>
								<stop  offset="0.87" style="stop-color:#5ED2EE"/>
								<stop  offset="1" style="stop-color:#60E6F1"/>
							</linearGradient>
							<path class="st6" d="M705.8,192.1c0.5,1.2,1,2.3,1.5,3.5c26.3,4.1,43.1,12.2,45.2,24c5,27.8-73.5,65.2-175.4,83.6
								s-188.6,10.8-193.6-17c-2.1-11.8,10.7-25.3,34-38.3c0-1.3,0.1-2.5,0.2-3.8c-28.5,14.7-44.5,30.2-42.1,43.6
								c5.2,29,95.7,37,202,17.8s188.3-58.3,183.1-87.3C758,204.8,737.5,196,705.8,192.1z"/>
							
								<linearGradient id="SVGID_8_" gradientUnits="userSpaceOnUse" x1="-794.2146" y1="207.4526" x2="-829.915" y2="74.2204" gradientTransform="matrix(0.9841 -0.1776 0.1776 0.9841 1342.1555 -29.5062)">
								<stop  offset="0" style="stop-color:#7377DE"/>
								<stop  offset="0.32" style="stop-color:#515DDE"/>
								<stop  offset="0.61" style="stop-color:#589EE7"/>
								<stop  offset="0.87" style="stop-color:#5ED2EE"/>
								<stop  offset="1" style="stop-color:#60E6F1"/>
							</linearGradient>
							<path class="st7" d="M707.3,195.6c0.7,1.6,1.3,3.2,1.9,4.9c19.4,4.2,31.5,11.3,33.3,20.9c4.7,26.3-69.5,61.7-165.9,79.1
								s-178.4,10.2-183.1-16.1c-1.7-9.6,7.1-20.5,23.8-31.2c0-1.8,0-3.5,0.1-5.2c-23.2,13-36.1,26.5-34,38.3
								c5,27.8,91.7,35.4,193.6,17s180.5-55.8,175.4-83.5C750.3,207.9,733.6,199.7,707.3,195.6z"/>
						</g>
					</g>
				</g>
			</g>
		</g>
		<rect x="94.4" y="168.5" class="st8" width="2" height="2"/>
		<circle class="st9" cx="95.4" cy="169.5" r="1"/>
		<rect x="234" y="226.9" class="st8" width="1.6" height="1.6"/>
		<circle class="st9" cx="234.8" cy="227.7" r="0.8"/>
		<rect x="364" y="366.9" class="st8" width="3.5" height="3.5"/>
		<circle class="st9" cx="365.8" cy="368.7" r="1.7"/>
		<rect x="612.8" y="496.2" class="st8" width="2.3" height="2.3"/>
		<circle class="st9" cx="613.9" cy="497.4" r="1.2"/>
		<rect x="58.2" y="264.9" class="st8" width="2.3" height="2.3"/>
		<circle class="st9" cx="59.4" cy="266" r="1.2"/>
		<rect x="289.9" y="375.5" class="st8" width="1.7" height="1.7"/>
		<circle class="st9" cx="290.7" cy="376.3" r="0.8"/>
		<rect x="750.5" y="561.2" class="st8" width="2.5" height="2.5"/>
		<circle class="st9" cx="751.8" cy="562.5" r="1.3"/>
		<rect x="826.9" y="646.7" class="st8" width="1.5" height="1.5"/>
		<circle class="st9" cx="827.6" cy="647.5" r="0.8"/>
		<rect x="479.1" y="496.6" class="st8" width="3" height="3"/>
		<circle class="st9" cx="480.7" cy="498.1" r="1.5"/>
		<rect x="43.8" y="28.4" class="st8" width="2" height="2"/>
		<circle class="st9" cx="44.8" cy="29.3" r="1"/>
		<rect x="200" y="130.2" class="st8" width="3.6" height="3.6"/>
		<circle class="st9" cx="201.9" cy="132" r="1.8"/>
		<rect x="128.7" y="239.6" class="st8" width="2.4" height="2.4"/>
		<circle class="st10" cx="129.9" cy="240.8" r="1.2"/>
		<rect x="311.8" y="295.2" class="st8" width="1.1" height="1.1"/>
		<circle class="st10" cx="312.3" cy="295.8" r="0.5"/>
		<rect x="444.2" y="430.2" class="st8" width="4" height="4"/>
		<circle class="st10" cx="446.2" cy="432.2" r="2"/>
		<rect x="557" y="458.8" class="st8" width="2" height="2"/>
		<circle class="st10" cx="558" cy="459.8" r="1"/>
		<rect x="653.9" y="513.4" class="st8" width="1.4" height="1.4"/>
		<circle class="st10" cx="654.6" cy="514.1" r="0.7"/>
		<rect x="678.6" y="572.7" class="st8" width="2.5" height="2.5"/>
		<circle class="st10" cx="679.8" cy="574" r="1.2"/>
		<rect x="179.4" y="288.8" class="st8" width="3.5" height="3.5"/>
		<circle class="st11" cx="181.2" cy="290.6" r="1.8"/>
		<rect x="281.1" y="328.4" class="st8" width="2.3" height="2.3"/>
		<circle class="st11" cx="282.3" cy="329.6" r="1.2"/>
		<rect x="107.6" y="52.3" class="st8" width="1.6" height="1.6"/>
		<circle class="st11" cx="108.4" cy="53.1" r="0.8"/>
		<rect x="260" y="210.8" class="st8" width="3.3" height="3.3"/>
		<circle class="st12" cx="261.6" cy="212.4" r="1.6"/>
		<rect x="315.8" y="229.1" class="st8" width="1.9" height="1.9"/>
		<circle class="st12" cx="316.7" cy="230" r="1"/>
		<rect x="597.5" y="535.4" class="st8" width="3.7" height="3.7"/>
		<circle class="st12" cx="599.4" cy="537.2" r="1.8"/>
		<rect x="49.6" y="84.7" class="st8" width="1.1" height="1.1"/>
		<circle class="st12" cx="50.2" cy="85.3" r="0.6"/>
		<rect x="45.2" y="208.9" class="st8" width="4" height="4"/>
		<circle class="st12" cx="47.1" cy="210.9" r="2"/>
		<rect x="340" y="381.2" class="st8" width="1" height="1"/>
		<circle class="st13" cx="340.5" cy="381.7" r="0.5"/>
		<rect x="151.6" y="146.1" class="st8" width="0.8" height="0.8"/>
		<circle class="st13" cx="152.1" cy="146.6" r="0.4"/>
		<rect x="100.9" y="118.4" class="st8" width="4.2" height="4.2"/>
		<circle class="st13" cx="103" cy="120.5" r="2.1"/>
		<rect x="472.8" y="397.6" class="st8" width="3.5" height="3.5"/>
		<circle class="st13" cx="474.5" cy="399.3" r="1.7"/>
		
			<linearGradient id="SVGID_9_" gradientUnits="userSpaceOnUse" x1="135.09" y1="-991.5594" x2="171.23" y2="-991.5594" gradientTransform="matrix(1 0 0 1 0 1100)">
			<stop  offset="0" style="stop-color:#8FDBF5"/>
			<stop  offset="2.000000e-02" style="stop-color:#91DCF5;stop-opacity:0.99"/>
			<stop  offset="0.69" style="stop-color:#E0F5FC;stop-opacity:0.71"/>
			<stop  offset="1" style="stop-color:#FFFFFF;stop-opacity:0.6"/>
		</linearGradient>
		<path class="st14" d="M135.5,123.5L169.7,91c0.1-0.1,0.1-0.1,0.2,0s0.1,0.1,0,0.2l-32.5,34.3c-0.6,0.5-1.4,0.5-2-0.1
			C135.1,124.9,135.1,124.1,135.5,123.5L135.5,123.5z"/>
		
			<linearGradient id="SVGID_10_" gradientUnits="userSpaceOnUse" x1="511.1" y1="-590.5036" x2="534.8199" y2="-590.5036" gradientTransform="matrix(1 0 0 1 0 1100)">
			<stop  offset="0" style="stop-color:#8FDBF5"/>
			<stop  offset="2.000000e-02" style="stop-color:#91DCF5;stop-opacity:0.99"/>
			<stop  offset="0.69" style="stop-color:#E0F5FC;stop-opacity:0.71"/>
			<stop  offset="1" style="stop-color:#FFFFFF;stop-opacity:0.6"/>
		</linearGradient>
		<path class="st15" d="M511.4,519.3l22.5-21.3h0.1l0,0v0.1l-21.3,22.5c-0.3,0.4-0.9,0.4-1.3,0C511,520.3,511,519.7,511.4,519.3
			L511.4,519.3z"/>
		
			<linearGradient id="SVGID_11_" gradientUnits="userSpaceOnUse" x1="748.3837" y1="-561.2072" x2="689.6137" y2="-616.5872" gradientTransform="matrix(1 0 0 1 0 1100)">
			<stop  offset="0" style="stop-color:#A19BEC"/>
			<stop  offset="0.15" style="stop-color:#ABAAEB"/>
			<stop  offset="0.72" style="stop-color:#CDDEE7"/>
			<stop  offset="1" style="stop-color:#DAF2E5"/>
		</linearGradient>
		<circle class="st16" cx="720" cy="512" r="39"/>
		<path class="st17" d="M701.5,622v-0.7l10.8-5.4l-0.6-1.1l-9.2,4.6l2.2-3.5l-1.1-0.7l-2.1,3.3l0.3-8.1h-1.3l-0.3,10.1l-1,0.5
			c-0.6-0.2-1-0.4-1.2-0.5c-5.8-1.9-12-1.7-17.6,0.6l-78.8,37l69.1,31.3c5.5-7.2,37.3-49.3,38.1-57.2c0.1-0.9,0-1.8-0.2-2.7
			C707.8,625.9,704.3,623.4,701.5,622z"/>
		<path class="st18" d="M662.6,698.1c-1.7,1.3-3.5,2.5-5.4,3.6c-22.4,12.9-59,12.9-81.4,0c-1.9-1.1-3.7-2.3-5.4-3.6
			c16-14.4,28.5-32.4,36.2-52.6c6.6-0.7,13.3-0.7,19.9,0c3.5,9.1,8,17.8,13.3,26C646.2,681.4,653.9,690.3,662.6,698.1z"/>
		<path class="st19" d="M662.4,698.3c-1.9-3.9-4.1-8.1-6.7-12.4c-3.9-6.4-8.3-12.5-13.1-18.2c-18.9,19.5-44.9,30.6-72.1,30.6
			c1.7,1.2,3.4,2.4,5.2,3.5c22.4,12.9,59,12.9,81.4,0C659,700.7,660.7,699.5,662.4,698.3z"/>
		<rect x="601.6" y="589.8" class="st20" width="29.7" height="68.3"/>
		<path class="st19" d="M628.1,584.2c-3.6,1.9-7.5,2.8-11.6,2.8l0,0c-4.1,0.1-8.1-0.9-11.7-2.8c-3.8-2.2-5.3-5.2-4.6-8.1
			c0.5-2,2-3.8,4.6-5.3c6.4-3.7,16.9-3.7,23.3,0c2.6,1.5,4.1,3.4,4.6,5.3C633.5,579,631.9,582,628.1,584.2z"/>
		<path class="st18" d="M627,583.6c-3.2,1.7-6.8,2.6-10.4,2.5l0,0c-3.7,0.1-7.3-0.8-10.6-2.5c-3.4-2-4.8-4.7-4.2-7.3
			c0.7-2.1,2.2-3.8,4.2-4.8c5.8-3.3,15.3-3.3,21,0c2,1,3.5,2.7,4.2,4.8C631.8,578.9,630.4,581.6,627,583.6z"/>
		
			<linearGradient id="SVGID_12_" gradientUnits="userSpaceOnUse" x1="616.5" y1="-508.2757" x2="616.5" y2="-537.8857" gradientTransform="matrix(1 0 0 1 0 1100)">
			<stop  offset="0" style="stop-color:#5E401B"/>
			<stop  offset="1" style="stop-color:#FFEFD4"/>
		</linearGradient>
		<path class="st21" d="M627,583.6c-3.2,1.7-6.8,2.6-10.4,2.5l0,0c-3.7,0.1-7.3-0.8-10.6-2.5c-3.4-2-4.8-4.7-4.2-7.3
			c0.7-2.1,2.2-3.8,4.2-4.8c5.8-3.3,15.3-3.3,21,0c2,1,3.5,2.7,4.2,4.8C631.8,578.9,630.4,581.6,627,583.6z"/>
		<path class="st22" d="M569.2,651.8l-1,2.4C568.4,653.4,568.8,652.6,569.2,651.8z"/>
		<path class="st22" d="M664.7,654.1c-0.3-0.7-0.6-1.5-0.9-2.2C664.2,652.6,664.5,653.4,664.7,654.1z"/>
		<path class="st22" d="M595.7,587.2l-0.7,1.7C595.1,588.3,595.4,587.7,595.7,587.2z"/>
		<path class="st22" d="M638,588.9l-0.7-1.7C637.6,587.8,637.8,588.3,638,588.9z"/>
		<path class="st22" d="M616.5,569v0.9l-0.3-0.6l-0.1-0.3L616.5,569L616.5,569z"/>
		<path class="st23" d="M616.5,594.1c-0.1,2.9-0.2,6-0.5,9.4c-5.2,0-10.4-1.2-15-3.7c-5-2.9-7.1-6.9-6.1-10.7l0.1-0.3l0.7-1.7
			l4.5-11.1c-0.5,2,0.1,4.1,1.5,5.6c0.9,1,1.9,1.9,3.1,2.5c3.6,1.9,7.6,2.9,11.7,2.8C616.5,589.1,616.5,591.5,616.5,594.1z"/>
		<path class="st19" d="M616.1,603.5c-0.8,9.4-2.4,18.8-4.9,27.9c-1.3,4.8-2.8,9.5-4.6,14.1c-3.5,9.1-8,17.8-13.4,26
			c-2.4,3.7-4.9,7.1-7.5,10.3c-1.4-0.7-2.8-1.4-4.1-2.1c-11.4-6.6-16-15.6-13.8-24.2c0.1-0.4,0.2-0.8,0.4-1.3l1-2.4l25.8-62.9
			l-0.1,0.3c-1,3.8,1.1,7.8,6.1,10.7C605.7,602.3,610.8,603.6,616.1,603.5z"/>
		<path class="st24" d="M585.7,681.8c-4.7,5.8-9.8,11.3-15.4,16.3c-8.2-6.4-12-14.1-11.3-21.7c0.5-4.3,2.1-8.3,4.8-11.7l4.3-10.6
			c-0.1,0.4-0.3,0.8-0.4,1.3c-2.2,8.6,2.5,17.6,13.8,24.2C583,680.5,584.3,681.2,585.7,681.8z"/>
		<line class="st22" x1="600.3" y1="575.9" x2="600.2" y2="576.1"/>
		
			<linearGradient id="SVGID_13_" gradientUnits="userSpaceOnUse" x1="638.2847" y1="-510.0536" x2="616.576" y2="-510.0536" gradientTransform="matrix(1 0 0 1 0 1100)">
			<stop  offset="0" style="stop-color:#007793"/>
			<stop  offset="1" style="stop-color:#00D3D3"/>
		</linearGradient>
		<path class="st25" d="M631.9,599.9c-4.6,2.4-9.7,3.7-14.9,3.7c-0.2-3-0.4-6.2-0.4-9.4c0.1-2.6,0-5,0-7.1c4,0.1,8-0.9,11.6-2.8
			c1.2-0.7,2.2-1.5,3.1-2.5c1.4-1.5,2-3.6,1.5-5.6c1.5,3.7,3,7.4,4.5,11.1l0.7,1.7c0,0.1,0.1,0.2,0.1,0.3
			C639,593,637,597,631.9,599.9z"/>
		
			<linearGradient id="SVGID_14_" gradientUnits="userSpaceOnUse" x1="665.6934" y1="-464.6536" x2="617.0291" y2="-464.6536" gradientTransform="matrix(1 0 0 1 0 1100)">
			<stop  offset="0" style="stop-color:#C4B494"/>
			<stop  offset="1" style="stop-color:#FFEFD4"/>
		</linearGradient>
		<path class="st26" d="M651.3,679.7c-1.3,0.8-2.7,1.5-4.1,2.1c-2.5-3.1-5-6.5-7.4-10.3c-5.3-8.2-9.8-16.9-13.3-26
			c-1.8-4.6-3.3-9.3-4.6-14.1c-2.5-9.1-4.1-18.5-4.8-27.9c5.2,0,10.3-1.2,14.9-3.7c5-2.9,7.1-6.9,6.1-10.7c0-0.1,0-0.2-0.1-0.3
			l25.9,63c0.3,0.7,0.6,1.5,0.9,2.2c0.2,0.5,0.3,0.9,0.4,1.4C667.3,664.1,662.7,673.1,651.3,679.7z"/>
		
			<linearGradient id="SVGID_15_" gradientUnits="userSpaceOnUse" x1="673.9816" y1="-423.8536" x2="647.2" y2="-423.8536" gradientTransform="matrix(1 0 0 1 0 1100)">
			<stop  offset="0" style="stop-color:#9C4262"/>
			<stop  offset="1" style="stop-color:#EA4262"/>
		</linearGradient>
		<path class="st27" d="M662.6,698.1c-5.6-5-10.7-10.5-15.4-16.3c1.4-0.7,2.8-1.4,4.1-2.1c11.4-6.6,16-15.6,13.8-24.2
			c-0.1-0.5-0.2-0.9-0.4-1.4l4.4,10.7l0,0c2.7,3.4,4.3,7.4,4.8,11.6l0,0C674.6,684.1,670.8,691.8,662.6,698.1z"/>
		<path class="st22" d="M632.7,576.1l-0.1-0.3"/>
		<path class="st22" d="M662.6,698.1L662.6,698.1"/>
		<path class="st22" d="M616.5,587L616.5,587"/>
		<path class="st22" d="M570.3,698.1L570.3,698.1"/>
		<path class="st22" d="M616.5,587L616.5,587"/>
		
			<rect x="595.7" y="563" transform="matrix(0.3796 -0.9251 0.9251 0.3796 -138.9423 921.9973)" class="st28" width="44.6" height="3.1"/>
		
			<rect x="612.7" y="542.4" transform="matrix(0.9226 -0.3857 0.3857 0.9226 -170.3088 280.6165)" class="st28" width="3.1" height="44.7"/>
		<rect x="614.9" y="539" class="st28" width="3.1" height="47.1"/>
		<path class="st17" d="M534.5,692v-0.7l10.8-5.4l-0.6-1.1l-9.2,4.6l2.2-3.5l-1.1-0.7l-2.1,3.3l0.3-8.1h-1.3l-0.3,10.1l-1,0.5
			c-0.6-0.2-1-0.4-1.2-0.5c-5.8-1.9-12-1.7-17.6,0.6l-78.8,37l69.1,31.3c5.5-7.2,37.3-49.3,38.1-57.2c0.1-0.9,0-1.8-0.2-2.7
			C540.8,695.9,537.3,693.4,534.5,692z"/>
		<path class="st18" d="M495.6,768.1c-1.7,1.3-3.5,2.5-5.4,3.6c-22.4,12.9-59,12.9-81.4,0c-1.9-1.1-3.7-2.3-5.4-3.6
			c16-14.4,28.5-32.4,36.2-52.6c6.6-0.7,13.3-0.7,19.9,0c3.5,9.1,8,17.8,13.3,26C479.2,751.4,486.9,760.3,495.6,768.1z"/>
		<path class="st19" d="M495.4,768.3c-1.9-3.9-4.1-8.1-6.7-12.4c-3.9-6.4-8.3-12.5-13.1-18.2c-18.9,19.5-44.9,30.6-72.1,30.6
			c1.7,1.2,3.4,2.4,5.2,3.5c22.4,12.9,59,12.9,81.4,0C492,770.7,493.7,769.5,495.4,768.3z"/>
		<rect x="434.6" y="659.8" class="st20" width="29.7" height="68.3"/>
		<path class="st19" d="M461.1,654.2c-3.6,1.9-7.5,2.8-11.6,2.8l0,0c-4.1,0.1-8.1-0.9-11.7-2.8c-3.8-2.2-5.4-5.2-4.6-8.1
			c0.5-2,2-3.8,4.6-5.3c6.4-3.7,16.9-3.7,23.3,0c2.6,1.5,4.1,3.4,4.6,5.3C466.5,649,464.9,652,461.1,654.2z"/>
		<path class="st18" d="M460,653.6c-3.2,1.7-6.8,2.6-10.4,2.5l0,0c-3.7,0.1-7.3-0.8-10.6-2.5c-3.4-2-4.8-4.7-4.2-7.3
			c0.7-2.1,2.2-3.8,4.2-4.8c5.8-3.3,15.3-3.3,21,0c2,1,3.5,2.7,4.2,4.8C464.8,648.9,463.4,651.6,460,653.6z"/>
		
			<linearGradient id="SVGID_16_" gradientUnits="userSpaceOnUse" x1="449.5" y1="-438.2757" x2="449.5" y2="-467.8857" gradientTransform="matrix(1 0 0 1 0 1100)">
			<stop  offset="0" style="stop-color:#5E401B"/>
			<stop  offset="1" style="stop-color:#FFEFD4"/>
		</linearGradient>
		<path class="st29" d="M460,653.6c-3.2,1.7-6.8,2.6-10.4,2.5l0,0c-3.7,0.1-7.3-0.8-10.6-2.5c-3.4-2-4.8-4.7-4.2-7.3
			c0.7-2.1,2.2-3.8,4.2-4.8c5.8-3.3,15.3-3.3,21,0c2,1,3.5,2.7,4.2,4.8C464.8,648.9,463.4,651.6,460,653.6z"/>
		<path class="st22" d="M402.2,721.8l-1,2.4C401.4,723.4,401.8,722.6,402.2,721.8z"/>
		<path class="st22" d="M497.7,724.1c-0.3-0.7-0.6-1.5-0.9-2.2C497.2,722.6,497.5,723.4,497.7,724.1z"/>
		<path class="st22" d="M428.7,657.2l-0.7,1.7C428.1,658.3,428.4,657.7,428.7,657.2z"/>
		<path class="st22" d="M471,658.9l-0.7-1.7C470.6,657.8,470.8,658.3,471,658.9z"/>
		<path class="st22" d="M449.5,639v0.9l-0.3-0.6l-0.1-0.3L449.5,639L449.5,639z"/>
		<path class="st23" d="M449.5,664.1c-0.1,2.9-0.2,6-0.5,9.4c-5.2,0-10.4-1.2-15-3.7c-5-2.9-7.1-6.9-6.1-10.7l0.1-0.3l0.7-1.7
			l4.5-11.1c-0.5,2,0.1,4.1,1.5,5.6c0.9,1,1.9,1.9,3.1,2.5c3.6,1.9,7.6,2.9,11.7,2.8C449.5,659.1,449.5,661.5,449.5,664.1z"/>
		<path class="st19" d="M449.1,673.5c-0.8,9.4-2.4,18.8-4.9,27.9c-1.3,4.8-2.8,9.5-4.6,14.1c-3.5,9.1-8,17.8-13.4,26
			c-2.4,3.7-4.9,7.1-7.5,10.3c-1.4-0.7-2.8-1.4-4.1-2.1c-11.4-6.6-16-15.6-13.9-24.2c0.1-0.4,0.2-0.8,0.4-1.3l1-2.4l25.8-62.9
			l-0.1,0.3c-1,3.8,1.1,7.8,6.1,10.7C438.7,672.3,443.8,673.6,449.1,673.5z"/>
		<path class="st24" d="M418.7,751.8c-4.7,5.8-9.8,11.3-15.4,16.3c-8.2-6.4-12-14.1-11.3-21.7c0.5-4.3,2.1-8.3,4.8-11.7l4.3-10.6
			c-0.1,0.4-0.3,0.8-0.4,1.3c-2.1,8.6,2.5,17.6,13.9,24.2C416,750.5,417.3,751.2,418.7,751.8z"/>
		<line class="st22" x1="433.3" y1="645.9" x2="433.2" y2="646.1"/>
		
			<linearGradient id="SVGID_17_" gradientUnits="userSpaceOnUse" x1="471.2848" y1="-440.0536" x2="449.576" y2="-440.0536" gradientTransform="matrix(1 0 0 1 0 1100)">
			<stop  offset="0" style="stop-color:#007793"/>
			<stop  offset="1" style="stop-color:#00D3D3"/>
		</linearGradient>
		<path class="st30" d="M464.9,669.9c-4.6,2.4-9.7,3.7-14.9,3.7c-0.2-3-0.4-6.2-0.4-9.4c0.1-2.6,0-5,0-7.1c4,0.1,8-0.9,11.6-2.8
			c1.2-0.7,2.2-1.5,3.1-2.5c1.4-1.5,2-3.6,1.5-5.6c1.5,3.7,3,7.4,4.5,11.1l0.7,1.7c0,0.1,0.1,0.2,0.1,0.3
			C472,663,470,667,464.9,669.9z"/>
		
			<linearGradient id="SVGID_18_" gradientUnits="userSpaceOnUse" x1="498.6933" y1="-394.6536" x2="450.0292" y2="-394.6536" gradientTransform="matrix(1 0 0 1 0 1100)">
			<stop  offset="0" style="stop-color:#C4B494"/>
			<stop  offset="1" style="stop-color:#FFEFD4"/>
		</linearGradient>
		<path class="st31" d="M484.3,749.7c-1.3,0.8-2.7,1.5-4.1,2.1c-2.5-3.1-5-6.5-7.4-10.3c-5.3-8.2-9.8-16.9-13.3-26
			c-1.8-4.6-3.3-9.3-4.6-14.1c-2.5-9.1-4.1-18.5-4.8-27.9c5.2,0,10.3-1.2,14.9-3.7c5-2.9,7.1-6.9,6.1-10.7c0-0.1,0-0.2-0.1-0.3
			l25.9,63c0.3,0.7,0.6,1.5,0.9,2.2c0.2,0.5,0.3,0.9,0.4,1.4C500.3,734.1,495.7,743.1,484.3,749.7z"/>
		
			<linearGradient id="SVGID_19_" gradientUnits="userSpaceOnUse" x1="506.9822" y1="-353.8536" x2="480.19" y2="-353.8536" gradientTransform="matrix(1 0 0 1 0 1100)">
			<stop  offset="0" style="stop-color:#9C4262"/>
			<stop  offset="1" style="stop-color:#EA4262"/>
		</linearGradient>
		<path class="st32" d="M495.6,768.1c-5.6-5-10.7-10.5-15.4-16.3c1.4-0.7,2.8-1.4,4.1-2.1c11.4-6.6,16-15.6,13.9-24.2
			c-0.1-0.5-0.2-0.9-0.4-1.4l4.4,10.7l0,0c2.7,3.4,4.3,7.4,4.8,11.6l0,0C507.6,754.1,503.8,761.8,495.6,768.1z"/>
		<path class="st22" d="M465.7,646.1l-0.1-0.3"/>
		<path class="st22" d="M495.6,768.1L495.6,768.1"/>
		<path class="st22" d="M449.5,657L449.5,657"/>
		<path class="st22" d="M403.3,768.1L403.3,768.1"/>
		<path class="st22" d="M449.5,657L449.5,657"/>
		
			<rect x="428.7" y="633" transform="matrix(0.3796 -0.9251 0.9251 0.3796 -307.2773 810.9395)" class="st28" width="44.6" height="3.1"/>
		
			<rect x="445.7" y="612.4" transform="matrix(0.9226 -0.3857 0.3857 0.9226 -210.23 221.6217)" class="st28" width="3.1" height="44.7"/>
		<rect x="447.9" y="609" class="st28" width="3.1" height="47.1"/>
		<path class="st17" d="M223.5,574v-0.7l10.8-5.4l-0.6-1.1l-9.2,4.6l2.1-3.5l-1.1-0.7l-2.1,3.3l0.3-8.1h-1.3l-0.3,10.1l-1,0.5
			c-0.6-0.2-1-0.4-1.2-0.5c-5.8-1.9-12-1.7-17.6,0.6l-78.8,37l69.1,31.3c5.5-7.2,37.3-49.3,38.1-57.2c0.1-0.9,0-1.8-0.1-2.7
			C229.8,577.9,226.3,575.4,223.5,574z"/>
		<path class="st18" d="M184.6,650.1c-1.7,1.3-3.5,2.5-5.4,3.6c-22.4,12.9-59,12.9-81.4,0c-1.9-1.1-3.7-2.3-5.4-3.6
			c8.7-7.9,16.4-16.8,22.8-26.6c5.4-8.2,9.9-16.9,13.4-26c6.6-0.7,13.3-0.7,19.9,0c3.5,9.1,8,17.8,13.3,26
			C168.2,633.4,175.9,642.3,184.6,650.1z"/>
		<path class="st19" d="M184.4,650.3c-1.9-3.9-4.1-8.1-6.7-12.4c-3.9-6.4-8.3-12.5-13.1-18.2c-18.9,19.5-44.9,30.6-72.1,30.6
			c1.7,1.2,3.4,2.4,5.2,3.4c22.4,12.9,59,12.9,81.4,0C181,652.7,182.7,651.5,184.4,650.3z"/>
		<rect x="123.6" y="541.8" class="st20" width="29.7" height="68.3"/>
		<path class="st19" d="M150.1,536.2c-3.6,1.9-7.5,2.8-11.6,2.8l0,0c-4.1,0.1-8.1-0.9-11.7-2.8c-3.8-2.2-5.3-5.2-4.6-8.1
			c0.5-2,2-3.8,4.6-5.3c6.4-3.7,16.9-3.7,23.3,0c2.6,1.5,4.1,3.4,4.6,5.3C155.5,531,153.9,534,150.1,536.2z"/>
		<path class="st18" d="M149,535.6c-3.2,1.7-6.8,2.6-10.4,2.5l0,0c-3.7,0.1-7.3-0.8-10.6-2.5c-3.4-2-4.8-4.7-4.2-7.3
			c0.7-2.1,2.2-3.8,4.2-4.8c5.8-3.3,15.3-3.3,21,0c2,1,3.5,2.7,4.2,4.8C153.8,530.9,152.4,533.6,149,535.6z"/>
		
			<linearGradient id="SVGID_20_" gradientUnits="userSpaceOnUse" x1="138.5" y1="-556.2757" x2="138.5" y2="-585.8857" gradientTransform="matrix(1 0 0 1 0 1100)">
			<stop  offset="0" style="stop-color:#5E401B"/>
			<stop  offset="1" style="stop-color:#FFEFD4"/>
		</linearGradient>
		<path class="st33" d="M149,535.6c-3.2,1.7-6.8,2.6-10.4,2.5l0,0c-3.7,0.1-7.3-0.8-10.6-2.5c-3.4-2-4.8-4.7-4.2-7.3
			c0.7-2.1,2.2-3.8,4.2-4.8c5.8-3.3,15.3-3.3,21,0c2,1,3.5,2.7,4.2,4.8C153.8,530.9,152.4,533.6,149,535.6z"/>
		<path class="st22" d="M91.2,603.8l-1,2.4C90.4,605.4,90.8,604.6,91.2,603.8z"/>
		<path class="st22" d="M186.7,606.1c-0.3-0.7-0.6-1.5-0.9-2.2C186.2,604.6,186.5,605.4,186.7,606.1z"/>
		<path class="st22" d="M117.7,539.2l-0.7,1.7C117.1,540.3,117.4,539.7,117.7,539.2z"/>
		<path class="st22" d="M160,540.9l-0.7-1.7C159.6,539.8,159.8,540.3,160,540.9z"/>
		<path class="st22" d="M138.5,521v0.9l-0.3-0.6l-0.1-0.3L138.5,521L138.5,521z"/>
		<path class="st23" d="M138.6,546.1c-0.1,2.9-0.2,6-0.5,9.4c-5.2,0-10.4-1.2-15-3.7c-5.1-2.9-7.1-6.9-6.1-10.7l0.1-0.3l0.7-1.7
			l4.5-11.1c-0.5,2,0.1,4.1,1.5,5.6c0.9,1,1.9,1.9,3.1,2.5c3.6,1.9,7.6,2.9,11.7,2.8C138.5,541.1,138.5,543.5,138.6,546.1z"/>
		<path class="st19" d="M138.1,555.5c-0.8,9.4-2.4,18.8-4.9,27.9c-1.3,4.8-2.8,9.5-4.6,14.1c-3.5,9.1-8,17.8-13.4,26
			c-2.4,3.7-4.9,7.1-7.5,10.3c-1.4-0.7-2.8-1.4-4.1-2.1c-11.4-6.6-16-15.6-13.8-24.2c0.1-0.4,0.2-0.8,0.4-1.3l1-2.4l25.8-62.9
			l-0.1,0.3c-1,3.8,1.1,7.8,6.1,10.7C127.7,554.3,132.8,555.6,138.1,555.5z"/>
		<path class="st24" d="M107.7,633.8c-4.7,5.8-9.8,11.3-15.4,16.3c-8.2-6.4-12-14.1-11.3-21.7c0.5-4.3,2.1-8.3,4.8-11.7l4.3-10.6
			c-0.1,0.4-0.3,0.8-0.4,1.3c-2.2,8.6,2.5,17.6,13.8,24.2C105,632.5,106.3,633.2,107.7,633.8z"/>
		<line class="st22" x1="122.3" y1="527.9" x2="122.2" y2="528.1"/>
		
			<linearGradient id="SVGID_21_" gradientUnits="userSpaceOnUse" x1="160.2848" y1="-558.0536" x2="138.57" y2="-558.0536" gradientTransform="matrix(1 0 0 1 0 1100)">
			<stop  offset="0" style="stop-color:#007793"/>
			<stop  offset="1" style="stop-color:#00D3D3"/>
		</linearGradient>
		<path class="st34" d="M153.9,551.9c-4.6,2.4-9.7,3.7-14.9,3.7c-0.2-3-0.4-6.2-0.4-9.4c0.1-2.6,0-5,0-7.1c4,0.1,8-0.9,11.6-2.8
			c1.2-0.7,2.2-1.5,3.1-2.5c1.4-1.5,2-3.6,1.5-5.6c1.5,3.7,3,7.4,4.6,11.1l0.7,1.7c0,0.1,0.1,0.2,0.1,0.3
			C161,545,159,549,153.9,551.9z"/>
		
			<linearGradient id="SVGID_22_" gradientUnits="userSpaceOnUse" x1="187.6933" y1="-512.6536" x2="139.0293" y2="-512.6536" gradientTransform="matrix(1 0 0 1 0 1100)">
			<stop  offset="0" style="stop-color:#C4B494"/>
			<stop  offset="1" style="stop-color:#FFEFD4"/>
		</linearGradient>
		<path class="st35" d="M173.3,631.7c-1.3,0.8-2.7,1.5-4.1,2.1c-2.5-3.1-5-6.5-7.4-10.3c-5.3-8.2-9.8-16.9-13.3-26
			c-1.8-4.6-3.3-9.3-4.6-14.1c-2.5-9.1-4.1-18.5-4.8-27.9c5.2,0,10.3-1.2,14.9-3.7c5-2.9,7.1-6.9,6.1-10.7c0-0.1,0-0.2-0.1-0.3
			l25.9,63c0.3,0.7,0.6,1.5,0.9,2.2c0.2,0.5,0.3,0.9,0.4,1.4C189.3,616.1,184.7,625.1,173.3,631.7z"/>
		
			<linearGradient id="SVGID_23_" gradientUnits="userSpaceOnUse" x1="195.9822" y1="-471.8536" x2="169.19" y2="-471.8536" gradientTransform="matrix(1 0 0 1 0 1100)">
			<stop  offset="0" style="stop-color:#9C4262"/>
			<stop  offset="1" style="stop-color:#EA4262"/>
		</linearGradient>
		<path class="st36" d="M184.6,650.1c-5.6-5-10.7-10.5-15.4-16.3c1.4-0.7,2.8-1.4,4.1-2.1c11.4-6.6,16-15.6,13.9-24.2
			c-0.1-0.5-0.2-0.9-0.4-1.4l4.4,10.7l0,0c2.7,3.4,4.3,7.4,4.8,11.6l0,0C196.6,636.1,192.8,643.8,184.6,650.1z"/>
		<path class="st22" d="M154.7,528.1l-0.1-0.3"/>
		<path class="st22" d="M184.6,650.1L184.6,650.1"/>
		<path class="st22" d="M138.6,539L138.6,539"/>
		<path class="st22" d="M92.3,650.1L92.3,650.1"/>
		<path class="st22" d="M138.6,539L138.6,539"/>
		
			<rect x="117.8" y="515" transform="matrix(0.3796 -0.9251 0.9251 0.3796 -391.0319 450.068)" class="st28" width="44.6" height="3.1"/>
		
			<rect x="134.7" y="494.3" transform="matrix(0.9226 -0.3857 0.3857 0.9226 -188.7427 92.5328)" class="st28" width="3.1" height="44.7"/>
		<rect x="136.9" y="491" class="st28" width="3.1" height="47.1"/>
		<path class="st17" d="M311.5,703v-0.7l10.8-5.4l-0.6-1.1l-9.2,4.6l2.1-3.5l-1.1-0.7l-2.1,3.3l0.3-8.1h-1.3l-0.3,10.1l-1,0.5
			c-0.6-0.2-1-0.4-1.2-0.5c-5.8-1.9-12-1.7-17.6,0.6l-78.8,37l69.1,31.3c5.5-7.2,37.3-49.3,38.1-57.2c0.1-0.9,0-1.8-0.1-2.7
			C317.8,706.9,314.3,704.4,311.5,703z"/>
		<path class="st18" d="M272.6,779.1c-1.7,1.3-3.5,2.5-5.4,3.6c-22.4,12.9-59.1,12.9-81.4,0c-1.9-1.1-3.7-2.3-5.4-3.6
			c8.7-7.9,16.4-16.8,22.9-26.6c5.4-8.2,9.9-16.9,13.4-26c6.6-0.7,13.3-0.7,19.9,0c3.5,9.1,8,17.8,13.3,26
			C256.2,762.4,263.9,771.3,272.6,779.1z"/>
		<path class="st19" d="M272.4,779.3c-1.9-3.9-4.1-8.1-6.7-12.4c-3.9-6.4-8.3-12.5-13.1-18.2c-18.9,19.5-44.9,30.6-72.1,30.6
			c1.7,1.2,3.4,2.4,5.2,3.5c22.4,12.9,59,12.9,81.4,0C269,781.7,270.7,780.5,272.4,779.3z"/>
		<rect x="211.6" y="670.8" class="st20" width="29.7" height="68.3"/>
		<path class="st19" d="M238.1,665.2c-3.6,1.9-7.5,2.8-11.6,2.8l0,0c-4.1,0.1-8.1-0.9-11.7-2.8c-3.8-2.2-5.4-5.2-4.6-8.1
			c0.5-2,2-3.8,4.6-5.3c6.4-3.7,16.9-3.7,23.3,0c2.6,1.5,4.1,3.4,4.6,5.3C243.5,660,241.9,663,238.1,665.2z"/>
		<path class="st18" d="M237,664.6c-3.2,1.7-6.8,2.6-10.4,2.5l0,0c-3.7,0.1-7.3-0.8-10.6-2.5c-3.4-2-4.8-4.7-4.2-7.3
			c0.7-2.1,2.2-3.8,4.2-4.8c5.8-3.3,15.3-3.3,21,0c2,1,3.5,2.7,4.2,4.8C241.8,659.9,240.4,662.6,237,664.6z"/>
		
			<linearGradient id="SVGID_24_" gradientUnits="userSpaceOnUse" x1="226.5" y1="-427.2757" x2="226.5" y2="-456.8857" gradientTransform="matrix(1 0 0 1 0 1100)">
			<stop  offset="0" style="stop-color:#5E401B"/>
			<stop  offset="1" style="stop-color:#FFEFD4"/>
		</linearGradient>
		<path class="st37" d="M237,664.6c-3.2,1.7-6.8,2.6-10.4,2.5l0,0c-3.7,0.1-7.3-0.8-10.6-2.5c-3.4-2-4.8-4.7-4.2-7.3
			c0.7-2.1,2.2-3.8,4.2-4.8c5.8-3.3,15.3-3.3,21,0c2,1,3.5,2.7,4.2,4.8C241.8,659.9,240.4,662.6,237,664.6z"/>
		<path class="st22" d="M179.2,732.8l-1,2.4C178.4,734.4,178.8,733.6,179.2,732.8z"/>
		<path class="st22" d="M274.7,735.1c-0.3-0.7-0.6-1.5-0.9-2.2C274.2,733.6,274.5,734.4,274.7,735.1z"/>
		<path class="st22" d="M205.7,668.2l-0.7,1.7C205.1,669.3,205.4,668.7,205.7,668.2z"/>
		<path class="st22" d="M248,669.9l-0.7-1.7C247.6,668.8,247.8,669.3,248,669.9z"/>
		<path class="st22" d="M226.5,650v0.9l-0.3-0.6l-0.1-0.3L226.5,650L226.5,650z"/>
		<path class="st23" d="M226.6,675.1c-0.1,2.9-0.2,6-0.5,9.4c-5.2,0-10.4-1.2-15-3.7c-5-2.9-7.1-6.9-6.1-10.7l0.1-0.3l0.7-1.7
			l4.5-11.1c-0.5,2,0.1,4.1,1.5,5.6c0.9,1,1.9,1.9,3.1,2.5c3.6,1.9,7.6,2.9,11.7,2.8C226.5,670.1,226.5,672.5,226.6,675.1z"/>
		<path class="st19" d="M226.1,684.5c-0.8,9.4-2.4,18.8-4.9,27.9c-1.3,4.8-2.8,9.5-4.6,14.1c-3.5,9.1-8,17.8-13.4,26
			c-2.4,3.7-4.9,7.1-7.5,10.3c-1.4-0.7-2.8-1.4-4.1-2.1c-11.4-6.6-16-15.6-13.9-24.2c0.1-0.4,0.2-0.8,0.4-1.3l1-2.4l25.8-62.9
			l-0.1,0.3c-1,3.8,1.1,7.8,6.1,10.7C215.7,683.3,220.8,684.6,226.1,684.5z"/>
		<path class="st24" d="M195.7,762.8c-4.7,5.8-9.8,11.3-15.4,16.3c-8.2-6.4-12-14.1-11.3-21.7c0.5-4.3,2.1-8.3,4.8-11.7l4.3-10.6
			c-0.1,0.4-0.3,0.8-0.4,1.3c-2.1,8.6,2.5,17.6,13.9,24.2C193,761.5,194.3,762.2,195.7,762.8z"/>
		<line class="st22" x1="210.3" y1="656.9" x2="210.2" y2="657.1"/>
		
			<linearGradient id="SVGID_25_" gradientUnits="userSpaceOnUse" x1="248.2848" y1="-429.0536" x2="226.57" y2="-429.0536" gradientTransform="matrix(1 0 0 1 0 1100)">
			<stop  offset="0" style="stop-color:#007793"/>
			<stop  offset="1" style="stop-color:#00D3D3"/>
		</linearGradient>
		<path class="st38" d="M241.9,680.9c-4.6,2.4-9.7,3.7-14.9,3.7c-0.2-3-0.4-6.2-0.4-9.4c0.1-2.6,0-5,0-7.1c4,0.1,8-0.9,11.6-2.8
			c1.2-0.7,2.2-1.5,3.1-2.5c1.4-1.5,2-3.6,1.5-5.6c1.5,3.7,3,7.4,4.6,11.1l0.7,1.7c0,0.1,0.1,0.2,0.1,0.3
			C249,674,247,678,241.9,680.9z"/>
		
			<linearGradient id="SVGID_26_" gradientUnits="userSpaceOnUse" x1="275.6932" y1="-383.6536" x2="227.0291" y2="-383.6536" gradientTransform="matrix(1 0 0 1 0 1100)">
			<stop  offset="0" style="stop-color:#C4B494"/>
			<stop  offset="1" style="stop-color:#FFEFD4"/>
		</linearGradient>
		<path class="st39" d="M261.3,760.7c-1.3,0.8-2.7,1.5-4.1,2.1c-2.5-3.1-5-6.5-7.4-10.3c-5.3-8.2-9.8-16.9-13.3-26
			c-1.8-4.6-3.3-9.3-4.6-14.1c-2.5-9.1-4.1-18.5-4.8-27.9c5.2,0,10.3-1.2,14.9-3.7c5-2.9,7.1-6.9,6.1-10.7c0-0.1,0-0.2-0.1-0.3
			l25.9,63c0.3,0.7,0.6,1.5,0.9,2.2c0.2,0.5,0.3,0.9,0.4,1.4C277.3,745.1,272.7,754.1,261.3,760.7z"/>
		
			<linearGradient id="SVGID_27_" gradientUnits="userSpaceOnUse" x1="283.9822" y1="-342.8536" x2="257.19" y2="-342.8536" gradientTransform="matrix(1 0 0 1 0 1100)">
			<stop  offset="0" style="stop-color:#9C4262"/>
			<stop  offset="1" style="stop-color:#EA4262"/>
		</linearGradient>
		<path class="st40" d="M272.6,779.1c-5.6-5-10.7-10.5-15.4-16.3c1.4-0.7,2.8-1.4,4.1-2.1c11.4-6.6,16-15.6,13.9-24.2
			c-0.1-0.5-0.2-0.9-0.4-1.4l4.4,10.7l0,0c2.7,3.4,4.3,7.4,4.8,11.6l0,0C284.6,765.1,280.8,772.8,272.6,779.1z"/>
		<path class="st22" d="M242.7,657.1l-0.1-0.3"/>
		<path class="st22" d="M272.6,779.1L272.6,779.1"/>
		<path class="st22" d="M226.6,668L226.6,668"/>
		<path class="st22" d="M180.3,779.1L180.3,779.1"/>
		<path class="st22" d="M226.6,668L226.6,668"/>
		
			<rect x="205.8" y="644" transform="matrix(0.3796 -0.9251 0.9251 0.3796 -455.7788 611.4935)" class="st28" width="44.6" height="3.1"/>
		
			<rect x="222.7" y="623.3" transform="matrix(0.9226 -0.3857 0.3857 0.9226 -231.6883 136.4561)" class="st28" width="3.1" height="44.7"/>
		<rect x="224.9" y="620" class="st28" width="3.1" height="47.1"/>
		<path class="st17" d="M358,545.6L346.8,570l-6.1-0.9l-2.8,6.1l-6.1-0.9l-2.8,6.1l-21-3.2l-8.4,4.9c-0.5,0.2-1,0.3-1.5,0.1
			c-0.7-0.1-1.3-0.3-1.9-0.7c-0.5-0.2-0.9-0.6-1.2-1.1c-0.2-0.3-0.1-0.7,0.2-0.9c0,0,0.1,0,0.1-0.1l8.4-4.8l-5.6-12.1l10.5-1.6
			l-1.6-3.5l10.5-1.6l-1.6-3.5L358,545.6z"/>
		<path class="st41" d="M294.5,564.7v16c0,0.6,0.4,1.1,0.9,1.4c1.4,0.7,3,0.7,4.4,0c0.5-0.2,0.9-0.7,0.9-1.3l0,0v-16.1H294.5z"/>
		<path class="st42" d="M297.7,520.2L275.8,558l21.8,12.7l21.9-12.7L297.7,520.2z"/>
		<path class="st43" d="M297.6,520.3v50.3l21.9-12.7l-21.8-37.8L297.6,520.3z"/>
		<path class="st44" d="M297.7,507.6l-21.9,37.8l21.8,12.7l21.9-12.7L297.7,507.6z"/>
		<path class="st45" d="M297.6,507.7V558l21.9-12.7l-21.8-37.8L297.6,507.7z"/>
		<path class="st46" d="M297.7,495l-21.9,37.8l21.8,12.7l21.9-12.7L297.7,495z"/>
		<path class="st47" d="M297.6,495.2v50.3l21.9-12.7L297.7,495L297.6,495.2z"/>
		<path class="st17" d="M125,449.6L113.8,474l-6.1-0.9l-2.8,6.1l-6.1-0.9l-2.8,6.1l-21-3.2l-8.4,4.9c-0.5,0.2-1,0.3-1.5,0.1
			c-0.7-0.1-1.3-0.3-1.9-0.7c-0.5-0.2-0.9-0.6-1.2-1.1c-0.2-0.3-0.1-0.7,0.2-0.9c0,0,0.1,0,0.1-0.1l8.4-4.8l-5.6-12.1l10.5-1.6
			l-1.6-3.5l10.5-1.6l-1.6-3.5L125,449.6z"/>
		<path class="st41" d="M61.5,468.7v16c0,0.6,0.4,1.1,0.9,1.4c1.4,0.7,3,0.7,4.4,0c0.5-0.2,0.9-0.7,0.9-1.3l0,0v-16.1H61.5z"/>
		<path class="st42" d="M64.7,424.2L42.8,462l21.8,12.7L86.5,462L64.7,424.2z"/>
		<path class="st43" d="M64.6,424.3v50.3l21.9-12.7l-21.8-37.8L64.6,424.3z"/>
		<path class="st44" d="M64.7,411.6l-21.9,37.8l21.8,12.7l21.9-12.7L64.7,411.6z"/>
		<path class="st45" d="M64.6,411.7V462l21.9-12.7l-21.8-37.8L64.6,411.7z"/>
		<path class="st46" d="M64.7,399l-21.9,37.8l21.8,12.7l21.9-12.7L64.7,399z"/>
		<path class="st47" d="M64.6,399.2v50.3l21.9-12.7L64.7,399L64.6,399.2z"/>
		<path class="st17" d="M500,557.6L488.8,582l-6.1-0.9l-2.8,6.1l-6.1-0.9l-2.8,6.1l-21-3.2l-8.4,4.9c-0.5,0.2-1,0.3-1.5,0.1
			c-0.7-0.1-1.3-0.3-1.9-0.7c-0.5-0.2-0.9-0.6-1.2-1.1c-0.2-0.3-0.1-0.7,0.2-0.9c0,0,0.1,0,0.1-0.1l8.4-4.8l-5.6-12.1l10.5-1.6
			l-1.6-3.5l10.5-1.6l-1.6-3.5L500,557.6z"/>
		<path class="st41" d="M436.5,576.7v16c0,0.6,0.4,1.1,0.9,1.4c1.4,0.7,3,0.7,4.4,0c0.5-0.2,0.9-0.7,0.9-1.3l0,0v-16.1H436.5z"/>
		<path class="st42" d="M439.7,532.2L417.8,570l21.8,12.7l21.9-12.7L439.7,532.2z"/>
		<path class="st43" d="M439.6,532.3v50.3l21.9-12.7l-21.8-37.8L439.6,532.3z"/>
		<path class="st44" d="M439.7,519.6l-21.9,37.8l21.8,12.7l21.9-12.7L439.7,519.6z"/>
		<path class="st45" d="M439.6,519.7V570l21.9-12.7l-21.8-37.8L439.6,519.7z"/>
		<path class="st46" d="M439.7,507l-21.9,37.8l21.8,12.7l21.9-12.7L439.7,507z"/>
		<path class="st47" d="M439.6,507.2v50.3l21.9-12.7L439.7,507L439.6,507.2z"/>
		<path class="st17" d="M144,808.6L132.8,833l-6.1-0.9l-2.8,6.1l-6.1-0.9l-2.8,6.1l-21-3.2l-8.4,4.9c-0.5,0.2-1,0.3-1.5,0.1
			c-0.7-0.1-1.3-0.3-1.9-0.7c-0.5-0.2-0.9-0.6-1.2-1.1c-0.2-0.3-0.1-0.7,0.2-0.9c0,0,0.1,0,0.1-0.1l8.3-4.8L84,825.5l10.5-1.6
			l-1.6-3.5l10.5-1.6l-1.6-3.5L144,808.6z"/>
		<path class="st41" d="M80.5,827.7v16c0,0.6,0.4,1.1,0.9,1.4c1.4,0.7,3,0.7,4.4,0c0.5-0.2,0.9-0.7,0.9-1.3l0,0v-16L80.5,827.7z"/>
		<path class="st42" d="M83.7,783.2L61.8,821l21.8,12.7l21.9-12.7L83.7,783.2z"/>
		<path class="st43" d="M83.6,783.3v50.3l21.9-12.7l-21.8-37.8L83.6,783.3z"/>
		<path class="st44" d="M83.7,770.6l-21.9,37.8l21.8,12.7l21.9-12.7L83.7,770.6z"/>
		<path class="st45" d="M83.6,770.7V821l21.9-12.7l-21.8-37.8L83.6,770.7z"/>
		<path class="st46" d="M83.7,758l-21.9,37.8l21.8,12.7l21.9-12.7L83.7,758z"/>
		<path class="st47" d="M83.6,758.2v50.3l21.9-12.7L83.7,758L83.6,758.2z"/>
		<path class="st17" d="M386,777.6L374.8,802l-6.1-0.9l-2.8,6.1l-6.1-0.9l-2.8,6.1l-21-3.2l-8.4,4.9c-0.5,0.2-1,0.3-1.5,0.1
			c-0.7-0.1-1.3-0.3-1.9-0.7c-0.5-0.2-0.9-0.6-1.2-1.1c-0.2-0.3-0.1-0.7,0.2-0.9c0,0,0.1,0,0.1-0.1l8.4-4.8l-5.6-12.1l10.5-1.6
			l-1.6-3.5l10.5-1.6l-1.6-3.5L386,777.6z"/>
		<path class="st41" d="M322.5,796.7v16c0,0.6,0.4,1.1,0.9,1.4c1.4,0.7,3,0.7,4.4,0c0.5-0.2,0.9-0.7,0.9-1.3l0,0v-16.1H322.5z"/>
		<path class="st42" d="M325.7,752.2L303.8,790l21.8,12.7l21.9-12.7L325.7,752.2z"/>
		<path class="st43" d="M325.6,752.3v50.3l21.9-12.7l-21.8-37.8L325.6,752.3z"/>
		<path class="st44" d="M325.7,739.6l-21.9,37.8l21.8,12.7l21.9-12.7L325.7,739.6z"/>
		<path class="st45" d="M325.6,739.7V790l21.9-12.7l-21.8-37.8L325.6,739.7z"/>
		<path class="st46" d="M325.7,727l-21.9,37.8l21.8,12.7l21.9-12.7L325.7,727z"/>
		<path class="st47" d="M325.6,727.2v50.3l21.9-12.7L325.7,727L325.6,727.2z"/>
		<path class="st17" d="M819,733.6L807.8,758l-6.1-0.9l-2.8,6.1l-6.1-0.9l-2.8,6.1l-21-3.2l-8.4,4.9c-0.5,0.2-1,0.3-1.5,0.1
			c-0.7-0.1-1.3-0.3-1.9-0.7c-0.5-0.2-0.9-0.6-1.2-1.1c-0.2-0.3-0.1-0.7,0.2-0.9c0,0,0.1,0,0.1-0.1l8.3-4.8l-5.6-12.1l10.5-1.6
			l-1.6-3.5l10.5-1.6l-1.6-3.5L819,733.6z"/>
		<path class="st41" d="M755.5,752.7v16c0,0.6,0.4,1.1,0.9,1.4c1.4,0.7,3,0.7,4.4,0c0.5-0.2,0.9-0.7,0.9-1.3l0,0v-16.1H755.5z"/>
		<path class="st42" d="M758.7,708.2L736.8,746l21.8,12.7l21.9-12.7L758.7,708.2z"/>
		<path class="st43" d="M758.6,708.3v50.3l21.9-12.7l-21.8-37.8L758.6,708.3z"/>
		<path class="st44" d="M758.7,695.6l-21.9,37.8l21.8,12.7l21.9-12.7L758.7,695.6z"/>
		<path class="st45" d="M758.6,695.7V746l21.9-12.7l-21.8-37.8L758.6,695.7z"/>
		<path class="st46" d="M758.7,683l-21.9,37.8l21.8,12.7l21.9-12.7L758.7,683z"/>
		<path class="st47" d="M758.6,683.2v50.3l21.9-12.7L758.7,683L758.6,683.2z"/>
		
			<linearGradient id="SVGID_28_" gradientUnits="userSpaceOnUse" x1="-1289.2275" y1="194.7961" x2="-1384.3667" y2="99.6672" gradientTransform="matrix(1 -3.000000e-02 3.000000e-02 1 1509.9474 127.1099)">
			<stop  offset="0" style="stop-color:#9BA0EC"/>
			<stop  offset="0.65" style="stop-color:#91D0F3"/>
			<stop  offset="1" style="stop-color:#8DE4F6"/>
		</linearGradient>
		<circle class="st48" cx="176.4" cy="313.3" r="67.3"/>
		
			<linearGradient id="SVGID_29_" gradientUnits="userSpaceOnUse" x1="58.7" y1="-721.3372" x2="45.8002" y2="-769.4587" gradientTransform="matrix(0.9889 0.1488 -0.1488 0.9889 14.022 1044.1364)">
			<stop  offset="0" style="stop-color:#9BA0EC"/>
			<stop  offset="0.32" style="stop-color:#7F89EC"/>
			<stop  offset="0.44" style="stop-color:#829CEE"/>
			<stop  offset="0.82" style="stop-color:#8AD0F4"/>
			<stop  offset="1" style="stop-color:#8DE4F6"/>
		</linearGradient>
		<path class="st49" d="M269.3,310.6c-0.2-7.1-11.1-13.2-28.6-17.3c0.2,0.8,0.5,1.5,0.7,2.3c0.1,0.5,0.3,1.1,0.4,1.7
			c0.2,0.8,0.4,1.5,0.5,2.3c8.3,3.2,13.2,7.1,13.3,11.5c0.4,11.9-34.8,22.6-78.5,23.9s-79.4-7.4-79.8-19.3
			c-0.1-4.4,4.5-8.6,12.6-12.2c0.1-0.8,0.2-1.5,0.4-2.3l0.3-1.7c0.2-0.8,0.3-1.6,0.5-2.3C94,302.3,83.4,309,83.6,316.1
			c0.4,14,42.3,24.1,93.6,22.6S269.7,324.6,269.3,310.6z"/>
	</g>
</g>
</svg>
