<?xml version="1.0" encoding="utf-8"?>
<!-- Generator: Adobe Illustrator 23.0.6, SVG Export Plug-In . SVG Version: 6.00 Build 0)  -->
<svg version="1.1" id="Calque_1" xmlns="http://www.w3.org/2000/svg" xmlns:xlink="http://www.w3.org/1999/xlink" x="0px" y="0px"
	 viewBox="0 0 594 895.9" style="enable-background:new 0 0 594 895.9;" xml:space="preserve">
<style type="text/css">
	.st0{fill:url(#SVGID_1_);}
	.st1{clip-path:url(#SVGID_3_);}
	.st2{fill:url(#SVGID_4_);}
	.st3{fill:url(#SVGID_5_);}
	.st4{fill:url(#SVGID_6_);}
	.st5{opacity:0.6;fill:url(#SVGID_7_);enable-background:new    ;}
	.st6{opacity:0.3;fill:url(#SVGID_8_);enable-background:new    ;}
	.st7{opacity:0.6;fill:url(#SVGID_9_);enable-background:new    ;}
	.st8{fill:#F4DCAB;}
	.st9{fill:#E8C391;}
	.st10{fill:url(#SVGID_10_);}
	.st11{fill:#D8B782;}
	.st12{fill:#E8D4B1;}
	.st13{fill:none;}
	.st14{fill:#CCA46A;}
	.st15{fill:#E1DCFF;}
	.st16{opacity:0.8;fill:url(#SVGID_11_);enable-background:new    ;}
	.st17{opacity:0.8;fill:url(#SVGID_12_);enable-background:new    ;}
</style>
<title>random barely visible rift5Fichier 1</title>
<g>
	<g id="Calque_1-2">
		
			<linearGradient id="SVGID_1_" gradientUnits="userSpaceOnUse" x1="-1314.02" y1="-129.2898" x2="-719.9916" y2="-129.2898" gradientTransform="matrix(1 0 0 -1 1314.02 318.64)">
			<stop  offset="5.381067e-07" style="stop-color:#00112D"/>
			<stop  offset="0.86" style="stop-color:#5F9EDD;stop-opacity:0.89"/>
			<stop  offset="1" style="stop-color:#76ABD6"/>
		</linearGradient>
		<path class="st0" d="M594,435.1c0.7-15.4-20-62.9-55.9-100.3c-43.4-45.3-68.7-27.4-120.2-73.8c-63.3-57-59.2-99.2-118.2-126.8
			c-58.3-27.3-84.4-4.9-144.9-40.2C95,59.1,82.9,30.1,42.1,11.2C28.8,5.1,14.6,1.3,0,0v895.6c40.1,2,66.5-7.9,83.5-17.8
			c38.8-22.5,48.2-52.5,104.6-92.7c57-40.6,85.1-20.8,140.6-53.3c56.2-32.9,48.2-74.5,105.9-137c47-50.8,73.8-35.4,112.9-84.4
			c31.2-39.3,47.3-55.5,46.5-72.4c0-0.6,0-1.1,0-1.7C594,435.9,594,435.5,594,435.1z"/>
		<g>
			<g>
				<g>
					<g>
						<g>
							<g>
								<defs>
									<path id="SVGID_2_" d="M594,435.1c0.7-15.4-20-62.9-55.9-100.3c-43.4-45.3-68.7-27.4-120.2-73.8
										c-63.3-57-59.2-99.2-118.2-126.8c-58.3-27.3-84.4-4.9-144.9-40.2C95,59.1,82.9,30.1,42.1,11.2C28.8,5.1,14.6,1.3,0,0v895.6
										c40.1,2,66.5-7.9,83.5-17.8c38.8-22.5,48.2-52.5,104.6-92.7c57-40.6,85.1-20.8,140.6-53.3c56.2-32.9,48.2-74.5,105.9-137
										c47-50.8,73.8-35.4,112.9-84.4c31.2-39.3,47.3-55.5,46.5-72.4c0-0.6,0-1.1,0-1.7C594,435.9,594,435.5,594,435.1z"/>
								</defs>
								<clipPath id="SVGID_3_">
									<use xlink:href="#SVGID_2_"  style="overflow:visible;"/>
								</clipPath>
								<g class="st1">
									
										<linearGradient id="SVGID_4_" gradientUnits="userSpaceOnUse" x1="-1105.8969" y1="-339.7768" x2="-1261.7432" y2="-495.6232" gradientTransform="matrix(1 0 0 1 1314.02 554)">
										<stop  offset="0" style="stop-color:#BBC1EA"/>
										<stop  offset="0.12" style="stop-color:#B5BBE7;stop-opacity:0.91"/>
										<stop  offset="0.36" style="stop-color:#A5AAE1;stop-opacity:0.69"/>
										<stop  offset="0.7" style="stop-color:#8C8FD7;stop-opacity:0.33"/>
										<stop  offset="1" style="stop-color:#7476CD;stop-opacity:0"/>
									</linearGradient>
									<circle class="st2" cx="130.2" cy="136.3" r="110.2"/>
									
										<linearGradient id="SVGID_5_" gradientUnits="userSpaceOnUse" x1="-1183.9125" y1="-358.5" x2="-1183.9125" y2="-472.7542" gradientTransform="matrix(1 0 0 1 1314.02 554)">
										<stop  offset="0" style="stop-color:#BBC1EA"/>
										<stop  offset="0.12" style="stop-color:#B5BBE7;stop-opacity:0.91"/>
										<stop  offset="0.36" style="stop-color:#A5AAE1;stop-opacity:0.69"/>
										<stop  offset="0.7" style="stop-color:#8C8FD7;stop-opacity:0.33"/>
										<stop  offset="1" style="stop-color:#7476CD;stop-opacity:0"/>
									</linearGradient>
									<path class="st3" d="M248.6,139c-2.7-1.4-5.4-2.8-8.3-4.2v4.5c2.2,1.1,4.3,2.2,6.4,3.3c26,13.8,40.2,27.2,38,35.9
										S263.5,192,234,191.4c-31.2-0.7-71.4-7-113-17.9C28.5,149.4-28.8,115.1-24.4,98.1c2.1-8.2,18.8-12.9,45.7-12.9
										c3.5,0,7.2,0.1,11.1,0.3c0.7-1.2,0.9-2.9,1.7-3.9C-0.1,79.9-25,84.2-28.4,97.1c-6.4,24.5,70.4,60.1,148.3,80.4
										c42,10.9,82.4,17.3,114,18c1.8,0,3.6,0,5.4,0c21.7,0,45.9-3,49.3-15.9C292.3,165.5,268.9,149.8,248.6,139z"/>
									
										<linearGradient id="SVGID_6_" gradientUnits="userSpaceOnUse" x1="-2741.5994" y1="727.5676" x2="-2811.1851" y2="657.9819" gradientTransform="matrix(0.9841 -0.1776 0.1776 0.9841 2629.9109 -813.0469)">
										<stop  offset="0" style="stop-color:#DF827D"/>
										<stop  offset="0.27" style="stop-color:#E48474"/>
										<stop  offset="1" style="stop-color:#EE8960"/>
									</linearGradient>
									<circle class="st4" cx="20.7" cy="361.8" r="49.2"/>
									
										<linearGradient id="SVGID_7_" gradientUnits="userSpaceOnUse" x1="-2759.3738" y1="739.2123" x2="-2793.7739" y2="645.7022" gradientTransform="matrix(0.9841 -0.1776 0.1776 0.9841 2629.9109 -813.0469)">
										<stop  offset="0" style="stop-color:#DF827D"/>
										<stop  offset="0.32" style="stop-color:#DC4544"/>
										<stop  offset="0.76" style="stop-color:#E97558"/>
										<stop  offset="1" style="stop-color:#EE8960"/>
									</linearGradient>
									<path class="st5" d="M64.9,340.3c0.3,0.5,0.5,1.1,0.7,1.6c10.4,1.3,17.1,4.1,17.9,8.5c1.7,9.5-25,22.2-59.8,28.5
										s-64.2,3.7-66-5.8c-0.8-4.4,4.5-9.4,13.8-14.2c0-0.6,0.1-1.2,0.1-1.8c-11.8,5.6-18.7,11.6-17.8,16.7
										c1.8,10.1,33.2,12.8,70.1,6.2s65.3-20.2,63.5-30.3C86.5,344.6,78,341.4,64.9,340.3z"/>
									
										<linearGradient id="SVGID_8_" gradientUnits="userSpaceOnUse" x1="-2766.8137" y1="718.4387" x2="-2785.7771" y2="666.9095" gradientTransform="matrix(0.9841 -0.1776 0.1776 0.9841 2629.9109 -813.0469)">
										<stop  offset="0" style="stop-color:#DF827D"/>
										<stop  offset="0.32" style="stop-color:#DC4544"/>
										<stop  offset="0.76" style="stop-color:#E97558"/>
										<stop  offset="1" style="stop-color:#EE8960"/>
									</linearGradient>
									<path class="st6" d="M65.7,341.9c0.2,0.4,0.3,0.8,0.5,1.1c8.6,1.3,14.1,4,14.8,7.8c1.6,9.1-24,21.3-57.3,27.3
										s-61.6,3.5-63.2-5.5c-0.7-3.8,3.5-8.3,11.1-12.5c0-0.4,0-0.8,0.1-1.3c-9.3,4.8-14.6,9.9-13.8,14.2
										c1.7,9.5,31.2,12.1,66,5.8c34.7-6.3,61.5-19,59.8-28.5C82.7,346,76.1,343.1,65.7,341.9z"/>
									
										<linearGradient id="SVGID_9_" gradientUnits="userSpaceOnUse" x1="-2770.5493" y1="714.5377" x2="-2782.1992" y2="671.0464" gradientTransform="matrix(0.9841 -0.1776 0.1776 0.9841 2629.9109 -813.0469)">
										<stop  offset="0" style="stop-color:#DF827D"/>
										<stop  offset="0.32" style="stop-color:#DC4544"/>
										<stop  offset="0.76" style="stop-color:#E97558"/>
										<stop  offset="1" style="stop-color:#EE8960"/>
									</linearGradient>
									<path class="st7" d="M66.2,343c0.2,0.5,0.4,1.1,0.6,1.6c6.3,1.4,10.3,3.7,10.9,6.8c1.5,8.6-22.7,20.1-54.2,25.8
										s-58.2,3.3-59.8-5.3c-0.6-3.1,2.3-6.7,7.8-10.2c0-0.6,0-1.1,0-1.7c-7.6,4.3-11.8,8.7-11.1,12.5c1.6,9.1,29.9,11.6,63.2,5.5
										c33.3-6,58.9-18.1,57.3-27.2C80.2,347,74.8,344.4,66.2,343z"/>
								</g>
							</g>
						</g>
					</g>
				</g>
			</g>
		</g>
		<path class="st8" d="M547.4,510.4C578,472,594.1,457,594,439.2c-41.3-22.2-77.3-31.8-105-36.2c-86.4-13.9-108.5,19.4-236,11
			c-60.5-4-68.4-12.3-170-21c-34-2.9-61.2-5.2-83-6v508.6c40.1,2,66.5-7.9,83.5-17.8c38.8-22.5,48.2-52.5,104.6-92.7
			c57-40.6,85.1-20.8,140.6-53.3c56.2-32.9,48.2-74.5,105.9-137C481.5,544,508.4,559.4,547.4,510.4z"/>
		<polygon class="st9" points="89,510.5 0,545.4 0,577.5 191.7,661 		"/>
		
			<linearGradient id="SVGID_10_" gradientUnits="userSpaceOnUse" x1="1833.5607" y1="-1505.1946" x2="1783.276" y2="-1555.4888" gradientTransform="matrix(1 0 0 1 -1451.39 1727.97)">
			<stop  offset="0" style="stop-color:#BBC1EA"/>
			<stop  offset="0.32" style="stop-color:#A8ADE2"/>
			<stop  offset="0.97" style="stop-color:#7779CE"/>
			<stop  offset="1" style="stop-color:#7476CD"/>
		</linearGradient>
		<circle class="st10" cx="357" cy="197.6" r="35.6"/>
		<polygon class="st9" points="432.4,568.4 345.3,530.5 393.6,511.6 		"/>
		<polygon class="st9" points="350.8,521.8 207.8,459.5 287.1,428.5 		"/>
		<polygon class="st11" points="251.5,463.3 351.1,362.4 351.1,520.8 		"/>
		<polygon class="st12" points="450.7,463.3 351.1,362.4 351.1,520.8 		"/>
		<polygon class="st13" points="419.8,433 415.8,428.9 350.8,466.4 350.7,466.4 285.9,428.9 281.9,433 350.8,472.8 		"/>
		<polygon class="st13" points="402.5,415.5 398.4,411.4 350.8,438.9 350.7,438.8 303.3,411.4 299.2,415.5 350.8,445.3 		"/>
		<polygon class="st13" points="415.5,428.6 411.4,424.5 350.8,459.5 350.7,459.5 290.3,424.5 286.2,428.6 350.8,465.9 		"/>
		<polygon class="st13" points="424.1,437.4 420.1,433.3 350.8,473.3 350.7,473.2 281.6,433.3 277.6,437.4 350.8,479.7 		"/>
		<polygon class="st13" points="406.8,419.8 402.8,415.8 350.8,445.8 350.7,445.7 298.9,415.8 294.9,419.8 350.8,452.1 		"/>
		<polygon class="st13" points="411.1,424.2 407.1,420.1 350.8,452.6 350.7,452.6 294.6,420.1 290.6,424.2 350.8,459 		"/>
		<polygon class="st13" points="428.4,441.8 424.4,437.7 350.8,480.2 350.7,480.1 277.3,437.7 273.3,441.8 350.8,486.6 		"/>
		<polygon class="st13" points="432.8,446.1 428.8,442.1 350.8,487.1 350.7,487 272.9,442.1 268.9,446.1 350.8,493.5 		"/>
		<polygon class="st13" points="445.8,459.3 441.7,455.2 350.8,507.7 350.7,507.7 259.9,455.2 255.9,459.3 350.8,514.1 		"/>
		<polygon class="st13" points="350.7,514.6 255.6,459.6 251.6,463.7 350.8,521 450.1,463.7 446.1,459.6 350.8,514.6 		"/>
		<polygon class="st13" points="441.4,454.9 437.4,450.9 350.8,500.8 350.7,500.8 264.3,450.9 260.3,454.9 350.8,507.2 		"/>
		<polygon class="st13" points="437.1,450.5 433.1,446.5 350.8,494 350.7,493.9 268.6,446.5 264.6,450.5 350.8,500.4 		"/>
		<polygon class="st13" points="393.8,406.7 389.8,402.6 350.8,425.1 350.7,425 311.9,402.6 307.9,406.7 350.8,431.5 		"/>
		<polygon class="st13" points="359.2,371.6 355.1,367.5 350.8,370 350.7,369.9 346.6,367.5 342.5,371.6 350.8,376.4 		"/>
		<polygon class="st13" points="372.1,384.7 368.1,380.7 350.8,390.7 350.7,390.6 333.6,380.7 329.5,384.7 350.8,397 		"/>
		<polygon class="st13" points="367.8,380.4 363.8,376.3 350.8,383.8 350.7,383.7 337.9,376.3 333.9,380.4 350.8,390.2 		"/>
		<polygon class="st13" points="363.5,376 359.5,371.9 350.8,376.9 350.7,376.8 342.2,371.9 338.2,376 350.8,383.3 		"/>
		<polygon class="st13" points="354.8,367.2 350.8,363.2 346.9,367.2 350.8,369.5 		"/>
		<polygon class="st13" points="380.8,393.5 376.8,389.4 350.8,404.4 350.7,404.4 324.9,389.4 320.9,393.5 350.8,410.8 		"/>
		<polygon class="st13" points="389.5,402.3 385.5,398.2 350.8,418.2 350.7,418.1 316.2,398.2 312.2,402.3 350.8,424.6 		"/>
		<polygon class="st13" points="376.5,389.1 372.5,385.1 350.8,397.5 350.7,397.5 329.2,385.1 325.2,389.1 350.8,403.9 		"/>
		<polygon class="st13" points="385.1,397.9 381.1,393.8 350.8,411.3 350.7,411.3 320.6,393.8 316.6,397.9 350.8,417.7 		"/>
		<polygon class="st13" points="398.1,411.1 394.1,407 350.8,432 350.7,431.9 307.6,407 303.6,411.1 350.8,438.4 		"/>
		<polygon class="st14" points="350.8,514.1 255.9,459.3 255.6,459.6 350.7,514.6 350.8,514.6 446.1,459.6 445.8,459.3 		"/>
		<polygon class="st14" points="350.8,507.7 441.7,455.2 441.4,454.9 350.8,507.2 260.3,454.9 259.9,455.2 350.7,507.7 		"/>
		<polygon class="st14" points="350.8,500.8 437.4,450.9 437.1,450.5 350.8,500.4 264.6,450.5 264.3,450.9 350.7,500.8 		"/>
		<polygon class="st14" points="350.8,494 433.1,446.5 432.8,446.1 350.8,493.5 268.9,446.1 268.6,446.5 350.7,493.9 		"/>
		<polygon class="st14" points="350.8,487.1 428.8,442.1 428.4,441.8 350.8,486.6 273.3,441.8 272.9,442.1 350.7,487 		"/>
		<polygon class="st14" points="350.8,480.2 424.4,437.7 424.1,437.4 350.8,479.7 277.6,437.4 277.3,437.7 350.7,480.1 		"/>
		<polygon class="st14" points="350.8,473.3 420.1,433.3 419.8,433 350.8,472.8 281.9,433 281.6,433.3 350.7,473.2 		"/>
		<polygon class="st14" points="350.8,466.4 415.8,428.9 415.5,428.6 350.8,465.9 286.2,428.6 285.9,428.9 350.7,466.4 		"/>
		<polygon class="st14" points="350.8,459.5 411.4,424.5 411.1,424.2 350.8,459 290.6,424.2 290.3,424.5 350.7,459.5 		"/>
		<polygon class="st14" points="350.8,452.6 407.1,420.1 406.8,419.8 350.8,452.1 294.9,419.8 294.6,420.1 350.7,452.6 		"/>
		<polygon class="st14" points="350.8,445.8 402.8,415.8 402.5,415.5 350.8,445.3 299.2,415.5 298.9,415.8 350.7,445.7 		"/>
		<polygon class="st14" points="350.8,438.9 398.4,411.4 398.1,411.1 350.8,438.4 303.6,411.1 303.3,411.4 350.7,438.8 		"/>
		<polygon class="st14" points="350.8,432 394.1,407 393.8,406.7 350.8,431.5 307.9,406.7 307.6,407 350.7,431.9 		"/>
		<polygon class="st14" points="350.8,425.1 389.8,402.6 389.5,402.3 350.8,424.6 312.2,402.3 311.9,402.6 350.7,425 		"/>
		<polygon class="st14" points="350.8,418.2 385.5,398.2 385.1,397.9 350.8,417.7 316.6,397.9 316.2,398.2 350.7,418.1 		"/>
		<polygon class="st14" points="350.8,411.3 381.1,393.8 380.8,393.5 350.8,410.8 320.9,393.5 320.6,393.8 350.7,411.3 		"/>
		<polygon class="st14" points="350.8,404.4 376.8,389.4 376.5,389.1 350.8,403.9 325.2,389.1 324.9,389.4 350.7,404.4 		"/>
		<polygon class="st14" points="350.8,397.5 372.5,385.1 372.1,384.7 350.8,397 329.5,384.7 329.2,385.1 350.7,397.5 		"/>
		<polygon class="st14" points="350.8,390.7 368.1,380.7 367.8,380.4 350.8,390.2 333.9,380.4 333.6,380.7 350.7,390.6 		"/>
		<polygon class="st14" points="350.8,383.8 363.8,376.3 363.5,376 350.8,383.3 338.2,376 337.9,376.3 350.7,383.7 		"/>
		<polygon class="st14" points="350.8,376.9 359.5,371.9 359.2,371.6 350.8,376.4 342.5,371.6 342.2,371.9 350.7,376.8 		"/>
		<polygon class="st14" points="350.8,370 355.1,367.5 354.8,367.2 350.8,369.5 346.9,367.2 346.6,367.5 350.7,369.9 		"/>
		<polygon class="st11" points="371.7,533.4 432.4,472 432.4,568.4 		"/>
		<polygon class="st12" points="493,533.4 432.4,472 432.4,568.4 		"/>
		<polygon class="st13" points="474.2,515 471.8,512.5 432.2,535.3 432.2,535.3 392.7,512.5 390.2,515 432.2,539.2 		"/>
		<polygon class="st13" points="463.7,504.3 461.2,501.8 432.2,518.5 432.2,518.5 403.2,501.8 400.8,504.3 432.2,522.4 		"/>
		<polygon class="st13" points="471.6,512.3 469.1,509.8 432.2,531.1 432.2,531.1 395.3,509.8 392.9,512.3 432.2,535 		"/>
		<polygon class="st13" points="476.8,517.6 474.4,515.1 432.2,539.5 432.2,539.5 390.1,515.1 387.6,517.6 432.2,543.4 		"/>
		<polygon class="st13" points="466.3,506.9 463.9,504.5 432.2,522.7 432.2,522.7 400.6,504.5 398.2,506.9 432.2,526.6 		"/>
		<polygon class="st13" points="468.9,509.6 466.5,507.1 432.2,526.9 432.2,526.9 398,507.1 395.5,509.6 432.2,530.8 		"/>
		<polygon class="st13" points="479.5,520.3 477,517.8 432.2,543.7 432.2,543.7 387.4,517.8 385,520.3 432.2,547.6 		"/>
		<polygon class="st13" points="482.1,523 479.7,520.5 432.2,547.9 432.2,547.8 384.8,520.5 382.3,523 432.2,551.8 		"/>
		<polygon class="st13" points="490,531 487.6,528.5 432.2,560.5 432.2,560.4 376.9,528.5 374.4,531 432.2,564.4 		"/>
		<polygon class="st13" points="432.2,564.6 374.2,531.2 371.8,533.6 432.2,568.5 492.7,533.6 490.2,531.2 432.2,564.7 		"/>
		<polygon class="st13" points="487.4,528.3 484.9,525.8 432.2,556.3 432.2,556.2 379.5,525.8 377.1,528.3 432.2,560.2 		"/>
		<polygon class="st13" points="484.8,525.6 482.3,523.2 432.2,552.1 432.2,552 382.1,523.2 379.7,525.6 432.2,556 		"/>
		<polygon class="st13" points="458.4,498.9 455.9,496.4 432.2,510.1 432.2,510.1 408.5,496.4 406.1,498.9 432.2,514 		"/>
		<polygon class="st13" points="437.3,477.5 434.8,475.1 432.2,476.6 432.2,476.5 429.6,475.1 427.2,477.5 432.2,480.5 		"/>
		<polygon class="st13" points="445.2,485.6 442.8,483.1 432.2,489.2 432.2,489.1 421.7,483.1 419.3,485.6 432.2,493 		"/>
		<polygon class="st13" points="442.6,482.9 440.1,480.4 432.2,485 432.2,484.9 424.3,480.4 421.9,482.9 432.2,488.9 		"/>
		<polygon class="st13" points="439.9,480.2 437.5,477.7 432.2,480.8 432.2,480.7 427,477.7 424.5,480.2 432.2,484.7 		"/>
		<polygon class="st13" points="434.7,474.9 432.2,472.4 429.8,474.9 432.2,476.3 		"/>
		<polygon class="st13" points="450.5,490.9 448,488.4 432.2,497.5 432.2,497.5 416.4,488.4 414,490.9 432.2,501.4 		"/>
		<polygon class="st13" points="455.7,496.3 453.3,493.8 432.2,505.9 432.2,505.9 411.2,493.8 408.7,496.3 432.2,509.8 		"/>
		<polygon class="st13" points="447.8,488.2 445.4,485.8 432.2,493.4 432.2,493.3 419.1,485.8 416.6,488.2 432.2,497.3 		"/>
		<polygon class="st13" points="453.1,493.6 450.7,491.1 432.2,501.8 432.2,501.7 413.8,491.1 411.3,493.6 432.2,505.6 		"/>
		<polygon class="st13" points="461,501.6 458.6,499.1 432.2,514.3 432.2,514.3 405.9,499.1 403.4,501.6 432.2,518.2 		"/>
		<polygon class="st14" points="432.2,564.4 374.4,531 374.2,531.2 432.2,564.6 432.2,564.7 490.2,531.2 490,531 		"/>
		<polygon class="st14" points="432.2,560.5 487.6,528.5 487.4,528.3 432.2,560.2 377.1,528.3 376.9,528.5 432.2,560.4 		"/>
		<polygon class="st14" points="432.2,556.3 484.9,525.8 484.8,525.6 432.2,556 379.7,525.6 379.5,525.8 432.2,556.2 		"/>
		<polygon class="st14" points="432.2,552.1 482.3,523.2 482.1,523 432.2,551.8 382.3,523 382.1,523.2 432.2,552 		"/>
		<polygon class="st14" points="432.2,547.9 479.7,520.5 479.5,520.3 432.2,547.6 385,520.3 384.8,520.5 432.2,547.8 		"/>
		<polygon class="st14" points="432.2,543.7 477,517.8 476.8,517.6 432.2,543.4 387.6,517.6 387.4,517.8 		"/>
		<polygon class="st14" points="432.2,539.5 474.4,515.1 474.2,515 432.2,539.2 390.2,515 390.1,515.1 		"/>
		<polygon class="st14" points="432.2,535.3 471.8,512.5 471.6,512.3 432.2,535 392.9,512.3 392.7,512.5 		"/>
		<polygon class="st14" points="432.2,531.1 469.1,509.8 468.9,509.6 432.2,530.8 395.5,509.6 395.3,509.8 		"/>
		<polygon class="st14" points="432.2,526.9 466.5,507.1 466.3,506.9 432.2,526.6 398.2,506.9 398,507.1 		"/>
		<polygon class="st14" points="432.2,522.7 463.9,504.5 463.7,504.3 432.2,522.4 400.8,504.3 400.6,504.5 		"/>
		<polygon class="st14" points="432.2,518.5 461.2,501.8 461,501.6 432.2,518.2 403.4,501.6 403.2,501.8 		"/>
		<polygon class="st14" points="432.2,514.3 458.6,499.1 458.4,498.9 432.2,514 406.1,498.9 405.9,499.1 		"/>
		<polygon class="st14" points="432.2,510.1 455.9,496.4 455.7,496.3 432.2,509.8 408.7,496.3 408.5,496.4 		"/>
		<polygon class="st14" points="432.2,505.9 453.3,493.8 453.1,493.6 432.2,505.6 411.3,493.6 411.2,493.8 		"/>
		<polygon class="st14" points="432.2,501.8 450.7,491.1 450.5,490.9 432.2,501.4 414,490.9 413.8,491.1 432.2,501.7 		"/>
		<polygon class="st14" points="432.2,497.5 448,488.4 447.8,488.2 432.2,497.3 416.6,488.2 416.4,488.4 		"/>
		<polygon class="st14" points="432.2,493.4 445.4,485.8 445.2,485.6 432.2,493 419.3,485.6 419.1,485.8 432.2,493.3 		"/>
		<polygon class="st14" points="432.2,489.2 442.8,483.1 442.6,482.9 432.2,488.9 421.9,482.9 421.7,483.1 432.2,489.1 		"/>
		<polygon class="st14" points="432.2,485 440.1,480.4 439.9,480.2 432.2,484.7 424.5,480.2 424.3,480.4 432.2,484.9 		"/>
		<polygon class="st14" points="432.2,480.8 437.5,477.7 437.3,477.5 432.2,480.5 427.2,477.5 427,477.7 432.2,480.7 		"/>
		<polygon class="st14" points="432.2,476.6 434.8,475.1 434.7,474.9 432.2,476.3 429.8,474.9 429.6,475.1 432.2,476.5 		"/>
		<polygon class="st9" points="115.8,733.8 16.7,690.7 71.7,669.1 		"/>
		<polygon class="st11" points="46.8,694 115.8,624 115.8,733.9 		"/>
		<polygon class="st12" points="184.9,694 115.8,624 115.8,733.9 		"/>
		<polygon class="st13" points="163.5,672.9 160.7,670.1 115.7,696.1 115.6,696.1 70.7,670.1 67.9,672.9 115.7,700.5 		"/>
		<polygon class="st13" points="151.5,660.8 148.7,657.9 115.7,677 115.6,677 82.7,657.9 79.9,660.8 115.7,681.4 		"/>
		<polygon class="st13" points="160.5,669.9 157.7,667.1 115.7,691.3 115.6,691.3 73.7,667.1 70.9,669.9 115.7,695.8 		"/>
		<polygon class="st13" points="166.5,676 163.7,673.2 115.7,700.9 115.6,700.8 67.7,673.2 64.9,676 115.7,705.3 		"/>
		<polygon class="st13" points="154.5,663.8 151.7,661 115.7,681.8 115.6,681.7 79.7,661 76.9,663.8 115.7,686.2 		"/>
		<polygon class="st13" points="157.5,666.8 154.7,664 115.7,686.6 115.6,686.5 76.7,664 73.9,666.8 115.7,691 		"/>
		<polygon class="st13" points="169.5,679 166.7,676.2 115.7,705.7 115.6,705.6 64.7,676.2 61.9,679 115.7,710.1 		"/>
		<polygon class="st13" points="172.5,682.1 169.8,679.2 115.7,710.5 115.6,710.4 61.6,679.2 58.9,682.1 115.7,714.9 		"/>
		<polygon class="st13" points="181.6,691.2 178.8,688.4 115.7,724.8 115.6,724.7 52.6,688.4 49.8,691.2 115.7,729.2 		"/>
		<polygon class="st13" points="115.6,729.5 49.6,691.4 46.8,694.2 115.7,734 184.6,694.2 181.8,691.4 115.7,729.6 		"/>
		<polygon class="st13" points="178.5,688.1 175.8,685.3 115.7,720 115.6,720 55.6,685.3 52.9,688.1 115.7,724.4 		"/>
		<polygon class="st13" points="175.5,685.1 172.8,682.3 115.7,715.2 115.6,715.2 58.6,682.3 55.9,685.1 115.7,719.7 		"/>
		<polygon class="st13" points="145.5,654.7 142.7,651.8 115.7,667.5 115.6,667.4 88.7,651.8 85.9,654.7 115.7,671.9 		"/>
		<polygon class="st13" points="121.5,630.3 118.7,627.5 115.7,629.2 115.6,629.2 112.7,627.5 109.9,630.3 115.7,633.7 		"/>
		<polygon class="st13" points="130.5,639.5 127.7,636.6 115.7,643.6 115.6,643.5 103.7,636.6 100.9,639.5 115.7,648 		"/>
		<polygon class="st13" points="127.5,636.4 124.7,633.6 115.7,638.8 115.6,638.7 106.7,633.6 103.9,636.4 115.7,643.2 		"/>
		<polygon class="st13" points="124.5,633.4 121.7,630.5 115.7,634 115.6,634 109.7,630.5 106.9,633.4 115.7,638.4 		"/>
		<polygon class="st13" points="118.5,627.3 115.7,624.5 112.9,627.3 115.7,628.9 		"/>
		<polygon class="st13" points="136.5,645.5 133.7,642.7 115.7,653.1 115.6,653.1 97.7,642.7 94.9,645.5 115.7,657.5 		"/>
		<polygon class="st13" points="142.5,651.6 139.7,648.8 115.7,662.7 115.6,662.6 91.7,648.8 88.9,651.6 115.7,667.1 		"/>
		<polygon class="st13" points="133.5,642.5 130.7,639.7 115.7,648.3 115.6,648.3 100.7,639.7 97.9,642.5 115.7,652.8 		"/>
		<polygon class="st13" points="139.5,648.6 136.7,645.8 115.7,657.9 115.6,657.8 94.7,645.8 91.9,648.6 115.7,662.3 		"/>
		<polygon class="st13" points="148.5,657.7 145.7,654.9 115.7,672.2 115.6,672.2 85.7,654.9 82.9,657.7 115.7,676.7 		"/>
		<polygon class="st14" points="115.7,729.2 49.8,691.2 49.6,691.4 115.6,729.5 115.7,729.6 181.8,691.4 181.6,691.2 		"/>
		<polygon class="st14" points="115.7,724.8 178.8,688.4 178.5,688.1 115.7,724.4 52.9,688.1 52.6,688.4 115.6,724.7 		"/>
		<polygon class="st14" points="115.7,720 175.8,685.3 175.5,685.1 115.7,719.7 55.9,685.1 55.6,685.3 115.6,720 		"/>
		<polygon class="st14" points="115.7,715.2 172.8,682.3 172.5,682.1 115.7,714.9 58.9,682.1 58.6,682.3 115.6,715.2 		"/>
		<polygon class="st14" points="115.7,710.5 169.8,679.2 169.5,679 115.7,710.1 61.9,679 61.6,679.2 115.6,710.4 		"/>
		<polygon class="st14" points="115.7,705.7 166.7,676.2 166.5,676 115.7,705.3 64.9,676 64.7,676.2 115.6,705.6 		"/>
		<polygon class="st14" points="115.7,700.9 163.7,673.2 163.5,672.9 115.7,700.5 67.9,672.9 67.7,673.2 115.6,700.8 		"/>
		<polygon class="st14" points="115.7,696.1 160.7,670.1 160.5,669.9 115.7,695.8 70.9,669.9 70.7,670.1 115.6,696.1 		"/>
		<polygon class="st14" points="115.7,691.3 157.7,667.1 157.5,666.8 115.7,691 73.9,666.8 73.7,667.1 115.6,691.3 		"/>
		<polygon class="st14" points="115.7,686.6 154.7,664 154.5,663.8 115.7,686.2 76.9,663.8 76.7,664 115.6,686.5 		"/>
		<polygon class="st14" points="115.7,681.8 151.7,661 151.5,660.8 115.7,681.4 79.9,660.8 79.7,661 115.6,681.7 		"/>
		<polygon class="st14" points="115.7,677 148.7,657.9 148.5,657.7 115.7,676.7 82.9,657.7 82.7,657.9 115.6,677 		"/>
		<polygon class="st14" points="115.7,672.2 145.7,654.9 145.5,654.7 115.7,671.9 85.9,654.7 85.7,654.9 115.6,672.2 		"/>
		<polygon class="st14" points="115.7,667.5 142.7,651.8 142.5,651.6 115.7,667.1 88.9,651.6 88.7,651.8 115.6,667.4 		"/>
		<polygon class="st14" points="115.7,662.7 139.7,648.8 139.5,648.6 115.7,662.3 91.9,648.6 91.7,648.8 115.6,662.6 		"/>
		<polygon class="st14" points="115.7,657.9 136.7,645.8 136.5,645.5 115.7,657.5 94.9,645.5 94.7,645.8 115.6,657.8 		"/>
		<polygon class="st14" points="115.7,653.1 133.7,642.7 133.5,642.5 115.7,652.8 97.9,642.5 97.7,642.7 115.6,653.1 		"/>
		<polygon class="st14" points="115.7,648.3 130.7,639.7 130.5,639.5 115.7,648 100.9,639.5 100.7,639.7 115.6,648.3 		"/>
		<polygon class="st14" points="115.7,643.6 127.7,636.6 127.5,636.4 115.7,643.2 103.9,636.4 103.7,636.6 115.6,643.5 		"/>
		<polygon class="st14" points="115.7,638.8 124.7,633.6 124.5,633.4 115.7,638.4 106.9,633.4 106.7,633.6 115.6,638.7 		"/>
		<polygon class="st14" points="115.7,634 121.7,630.5 121.5,630.3 115.7,633.7 109.9,630.3 109.7,630.5 115.6,634 		"/>
		<polygon class="st14" points="115.7,629.2 118.7,627.5 118.5,627.3 115.7,628.9 112.9,627.3 112.7,627.5 115.6,629.2 		"/>
		<polygon class="st11" points="31.7,568.1 191.6,406.2 191.6,660.4 		"/>
		<polygon class="st12" points="351.4,568.1 191.6,406.2 191.6,660.4 		"/>
		<polygon class="st13" points="301.9,519.4 295.4,512.9 191.2,573.1 191.1,573 87,512.9 80.6,519.4 191.2,583.3 		"/>
		<polygon class="st13" points="274.1,491.3 267.6,484.7 191.2,528.8 191.1,528.8 114.8,484.7 108.4,491.3 191.2,539.1 		"/>
		<polygon class="st13" points="294.9,512.4 288.5,505.8 191.2,562 191.1,561.9 94,505.8 87.5,512.4 191.2,572.3 		"/>
		<polygon class="st13" points="308.8,526.5 302.4,519.9 191.2,584.1 191.1,584 80.1,519.9 73.6,526.5 191.2,594.4 		"/>
		<polygon class="st13" points="281,498.3 274.6,491.8 191.2,539.9 191.1,539.8 107.9,491.8 101.4,498.3 191.2,550.2 		"/>
		<polygon class="st13" points="288,505.3 281.5,498.8 191.2,551 191.1,550.9 100.9,498.8 94.5,505.3 191.2,561.2 		"/>
		<polygon class="st13" points="315.8,533.5 309.3,527 191.2,595.2 191.1,595.1 73.1,527 66.7,533.5 191.2,605.4 		"/>
		<polygon class="st13" points="322.7,540.5 316.3,534 191.2,606.2 191.1,606.1 66.2,534 59.7,540.5 191.2,616.5 		"/>
		<polygon class="st13" points="343.6,561.7 337.1,555.1 191.2,639.4 191.1,639.3 45.3,555.1 38.9,561.7 191.2,649.6 		"/>
		<polygon class="st13" points="191.1,650.3 38.4,562.2 31.9,568.7 191.2,660.7 350.5,568.7 344.1,562.2 191.2,650.4 		"/>
		<polygon class="st13" points="336.6,554.6 330.2,548.1 191.2,628.3 191.1,628.2 52.3,548.1 45.8,554.6 191.2,638.6 		"/>
		<polygon class="st13" points="329.7,547.6 323.2,541 191.2,617.3 191.1,617.2 59.2,541 52.8,547.6 191.2,627.5 		"/>
		<polygon class="st13" points="260.2,477.2 253.7,470.6 191.2,506.7 191.1,506.6 128.7,470.6 122.3,477.2 191.2,517 		"/>
		<polygon class="st13" points="204.6,420.9 198.1,414.3 191.2,418.3 191.1,418.2 184.3,414.3 177.9,420.9 191.2,428.6 		"/>
		<polygon class="st13" points="225.4,442 219,435.5 191.2,451.5 191.1,451.4 163.5,435.5 157,442 191.2,461.7 		"/>
		<polygon class="st13" points="218.5,435 212,428.4 191.2,440.4 191.1,440.3 170.4,428.4 164,435 191.2,450.7 		"/>
		<polygon class="st13" points="211.5,427.9 205.1,421.4 191.2,429.4 191.1,429.3 177.4,421.4 170.9,427.9 191.2,439.6 		"/>
		<polygon class="st13" points="197.6,413.8 191.2,407.4 184.8,413.8 191.2,417.5 		"/>
		<polygon class="st13" points="239.3,456.1 232.9,449.5 191.2,473.6 191.1,473.5 149.6,449.5 143.1,456.1 191.2,483.8 		"/>
		<polygon class="st13" points="253.2,470.1 246.8,463.6 191.2,495.7 191.1,495.6 135.7,463.6 129.2,470.1 191.2,506 		"/>
		<polygon class="st13" points="232.4,449 225.9,442.5 191.2,462.5 191.1,462.4 156.5,442.5 150.1,449 191.2,472.8 		"/>
		<polygon class="st13" points="246.3,463.1 239.8,456.6 191.2,484.6 191.1,484.5 142.6,456.6 136.2,463.1 191.2,494.9 		"/>
		<polygon class="st13" points="267.1,484.2 260.7,477.7 191.2,517.8 191.1,517.7 121.8,477.7 115.3,484.2 191.2,528 		"/>
		<polygon class="st14" points="191.2,649.6 38.9,561.7 38.4,562.2 191.1,650.3 191.2,650.4 344.1,562.2 343.6,561.7 		"/>
		<polygon class="st14" points="191.2,639.4 337.1,555.1 336.6,554.6 191.2,638.6 45.8,554.6 45.3,555.1 191.1,639.3 		"/>
		<polygon class="st14" points="191.2,628.3 330.2,548.1 329.7,547.6 191.2,627.5 52.8,547.6 52.3,548.1 191.1,628.2 		"/>
		<polygon class="st14" points="191.2,617.3 323.2,541 322.7,540.5 191.2,616.5 59.7,540.5 59.2,541 191.1,617.2 		"/>
		<polygon class="st14" points="191.2,606.2 316.3,534 315.8,533.5 191.2,605.4 66.7,533.5 66.2,534 191.1,606.1 		"/>
		<polygon class="st14" points="191.2,595.2 309.3,527 308.8,526.5 191.2,594.4 73.6,526.5 73.1,527 191.1,595.1 		"/>
		<polygon class="st14" points="191.2,584.1 302.4,519.9 301.9,519.4 191.2,583.3 80.6,519.4 80.1,519.9 191.1,584 		"/>
		<polygon class="st14" points="191.2,573.1 295.4,512.9 294.9,512.4 191.2,572.3 87.5,512.4 87,512.9 191.1,573 		"/>
		<polygon class="st14" points="191.2,562 288.5,505.8 288,505.3 191.2,561.2 94.5,505.3 94,505.8 191.1,561.9 		"/>
		<polygon class="st14" points="191.2,551 281.5,498.8 281,498.3 191.2,550.2 101.4,498.3 100.9,498.8 191.1,550.9 		"/>
		<polygon class="st14" points="191.2,539.9 274.6,491.8 274.1,491.3 191.2,539.1 108.4,491.3 107.9,491.8 191.1,539.8 		"/>
		<polygon class="st14" points="191.2,528.8 267.6,484.7 267.1,484.2 191.2,528 115.3,484.2 114.8,484.7 191.1,528.8 		"/>
		<polygon class="st14" points="191.2,517.8 260.7,477.7 260.2,477.2 191.2,517 122.3,477.2 121.8,477.7 191.1,517.7 		"/>
		<polygon class="st14" points="191.2,506.7 253.7,470.6 253.2,470.1 191.2,506 129.2,470.1 128.7,470.6 191.1,506.6 		"/>
		<polygon class="st14" points="191.2,495.7 246.8,463.6 246.3,463.1 191.2,494.9 136.2,463.1 135.7,463.6 191.1,495.6 		"/>
		<polygon class="st14" points="191.2,484.6 239.8,456.6 239.3,456.1 191.2,483.8 143.1,456.1 142.6,456.6 191.1,484.5 		"/>
		<polygon class="st14" points="191.2,473.6 232.9,449.5 232.4,449 191.2,472.8 150.1,449 149.6,449.5 191.1,473.5 		"/>
		<polygon class="st14" points="191.2,462.5 225.9,442.5 225.4,442 191.2,461.7 157,442 156.5,442.5 191.1,462.4 		"/>
		<polygon class="st14" points="191.2,451.5 219,435.5 218.5,435 191.2,450.7 164,435 163.5,435.5 191.1,451.4 		"/>
		<polygon class="st14" points="191.2,440.4 212,428.4 211.5,427.9 191.2,439.6 170.9,427.9 170.4,428.4 191.1,440.3 		"/>
		<polygon class="st14" points="191.2,429.4 205.1,421.4 204.6,420.9 191.2,428.6 177.9,420.9 177.4,421.4 191.1,429.3 		"/>
		<polygon class="st14" points="191.2,418.3 198.1,414.3 197.6,413.8 191.2,417.5 184.8,413.8 184.3,414.3 191.1,418.2 		"/>
		<rect x="87" y="287.7" class="st13" width="2.9" height="2.9"/>
		<circle class="st15" cx="88.5" cy="289.1" r="1.4"/>
		<rect x="290.2" y="222.2" class="st13" width="1" height="1"/>
		<circle class="st15" cx="290.7" cy="222.7" r="0.5"/>
		<rect x="225.2" y="222.6" class="st13" width="2.4" height="2.4"/>
		<circle class="st15" cx="226.4" cy="223.8" r="1.2"/>
		<rect x="394.4" y="306.3" class="st13" width="2.6" height="2.6"/>
		<circle class="st15" cx="395.7" cy="307.6" r="1.3"/>
		<rect x="515.2" y="385" class="st13" width="2.3" height="2.3"/>
		<circle class="st15" cx="516.4" cy="386.1" r="1.1"/>
		<rect x="193.1" y="313.1" class="st13" width="3.2" height="3.2"/>
		<circle class="st15" cx="194.7" cy="314.7" r="1.6"/>
		<rect x="274.1" y="341" class="st13" width="2.5" height="2.5"/>
		<circle class="st15" cx="275.4" cy="342.2" r="1.2"/>
		<rect x="452.9" y="366.5" class="st13" width="2.5" height="2.5"/>
		<circle class="st15" cx="454.1" cy="367.8" r="1.3"/>
		<rect x="520.2" y="344.9" class="st13" width="0.7" height="0.7"/>
		<circle class="st15" cx="520.5" cy="345.3" r="0.4"/>
		<rect x="293.2" y="155.9" class="st13" width="3.1" height="3.1"/>
		<circle class="st15" cx="294.8" cy="157.4" r="1.5"/>
		<rect x="136.7" y="299.5" class="st13" width="1.7" height="1.7"/>
		<circle class="st15" cx="137.5" cy="300.4" r="0.9"/>
		<rect x="10.2" y="211.9" class="st13" width="1.3" height="1.3"/>
		<circle class="st15" cx="10.9" cy="212.5" r="0.6"/>
		<rect x="22.9" y="24.4" class="st13" width="6.6" height="6.6"/>
		<circle class="st15" cx="26.2" cy="27.7" r="3.3"/>
		<rect x="227.1" y="387.9" class="st13" width="2.6" height="2.6"/>
		<circle class="st15" cx="228.4" cy="389.2" r="1.3"/>
		
			<linearGradient id="SVGID_11_" gradientUnits="userSpaceOnUse" x1="-895.0072" y1="-218.8125" x2="-858.1171" y2="-218.8125" gradientTransform="matrix(1 0 0 1 1314.02 554)">
			<stop  offset="0" style="stop-color:#8FDBF5"/>
			<stop  offset="2.000000e-02" style="stop-color:#91DCF5;stop-opacity:0.99"/>
			<stop  offset="0.69" style="stop-color:#E0F5FC;stop-opacity:0.71"/>
			<stop  offset="1" style="stop-color:#FFFFFF;stop-opacity:0.6"/>
		</linearGradient>
		<path class="st16" d="M419.5,350.5l35-33.1c0.1-0.1,0.1-0.1,0.2,0s0.1,0.1,0,0.2l-33.1,35c-0.6,0.6-1.5,0.6-2,0
			S418.9,351.1,419.5,350.5L419.5,350.5z"/>
		
			<linearGradient id="SVGID_12_" gradientUnits="userSpaceOnUse" x1="-863.9838" y1="-232.8" x2="-839.5239" y2="-232.8" gradientTransform="matrix(1 0 0 1 1314.02 554)">
			<stop  offset="0" style="stop-color:#8FDBF5"/>
			<stop  offset="2.000000e-02" style="stop-color:#91DCF5;stop-opacity:0.99"/>
			<stop  offset="0.69" style="stop-color:#E0F5FC;stop-opacity:0.71"/>
			<stop  offset="1" style="stop-color:#FFFFFF;stop-opacity:0.6"/>
		</linearGradient>
		<path class="st17" d="M450.3,331.4l23.2-22h0.1l0,0v0.1l-22,23.2c-0.4,0.4-1,0.4-1.3,0C450,332.3,449.9,331.7,450.3,331.4
			L450.3,331.4L450.3,331.4z"/>
	</g>
</g>
</svg>
