<svg xmlns="http://www.w3.org/2000/svg" xmlns:xlink="http://www.w3.org/1999/xlink" viewBox="0 0 314 314"><defs><style>.cls-1{fill:#b4c7f1;}.cls-2{fill:#658bef;}.cls-3{fill:url(#Dégradé_sans_nom_11);}.cls-4{opacity:0.8;}.cls-5{fill:#daedff;}.cls-6{fill:#e1f2ff;}</style><linearGradient id="Dégradé_sans_nom_11" x1="157" y1="293" x2="157" y2="21" gradientUnits="userSpaceOnUse"><stop offset="0" stop-color="#e1f2ff" stop-opacity="0"/><stop offset="1" stop-color="#b4c7f1"/></linearGradient></defs><title>roles_tankFichier 1</title><g id="Calque_2" data-name="Calque 2"><g id="Calque_1-2" data-name="Calque 1"><path class="cls-1" d="M157,0A157,157,0,1,0,314,157,157,157,0,0,0,157,0Zm0,293A136,136,0,1,1,293,157,136,136,0,0,1,157,293Z"/><path class="cls-2" d="M157,0A157,157,0,1,0,314,157,157,157,0,0,0,157,0Zm0,293A136,136,0,1,1,293,157,136,136,0,0,1,157,293Z"/><path class="cls-3" d="M157,27a130,130,0,0,1,91.92,221.92A130,130,0,1,1,65.08,65.08,129.12,129.12,0,0,1,157,27m0-6A136,136,0,1,0,293,157,136,136,0,0,0,157,21Z"/><circle class="cls-2" cx="259" cy="259" r="55"/><g class="cls-4"><path class="cls-5" d="M295.45,240c0,27.5-14.37,51.37-35.43,63.31C239,291.35,224.59,267.48,224.59,240c0-2.27.1-4.5.29-6.71a218,218,0,0,1,70.27,0C295.35,235.48,295.45,237.71,295.45,240Z"/><path class="cls-5" d="M295.45,240c0,27.5-14.37,51.37-35.43,63.31C239,291.35,224.59,267.48,224.59,240c0-2.27.1-4.5.29-6.71a218,218,0,0,1,70.27,0C295.35,235.48,295.45,237.71,295.45,240Z"/></g><path class="cls-6" d="M259.54,230.42a217.49,217.49,0,0,0-34.66,2.85c-.19,2.21-.29,4.44-.29,6.71,0,27.29,14.15,51,35,63Z"/></g></g></svg>