<?xml version="1.0" encoding="utf-8"?>
<!-- Generator: Adobe Illustrator 23.0.6, SVG Export Plug-In . SVG Version: 6.00 Build 0)  -->
<svg version="1.1" id="Calque_1" xmlns="http://www.w3.org/2000/svg" xmlns:xlink="http://www.w3.org/1999/xlink" x="0px" y="0px"
	 viewBox="0 0 314 314" style="enable-background:new 0 0 314 314;" xml:space="preserve">
<style type="text/css">
	.st0{fill:#A6F1D1;}
	.st1{fill:#47B9C1;}
	.st2{fill:url(#SVGID_1_);}
	.st3{fill:#EDF6FF;}
</style>
<title>roles_meleeFichier 2</title>
<g>
	<g id="Calque_1-2">
		<path class="st0" d="M157,0C70.3,0,0,70.3,0,157s70.3,157,157,157s157-70.3,157-157S243.7,0,157,0z M157,293
			c-75.1,0-136-60.9-136-136S81.9,21,157,21s136,60.9,136,136S232.1,293,157,293z"/>
		<path class="st1" d="M157,0C70.3,0,0,70.3,0,157s70.3,157,157,157s157-70.3,157-157S243.7,0,157,0z M157,293
			c-75.1,0-136-60.9-136-136S81.9,21,157,21s136,60.9,136,136S232.1,293,157,293z"/>
		
			<linearGradient id="SVGID_1_" gradientUnits="userSpaceOnUse" x1="157" y1="23" x2="157" y2="295" gradientTransform="matrix(1 0 0 -1 0 316)">
			<stop  offset="0" style="stop-color:#D6F2FF;stop-opacity:0"/>
			<stop  offset="1" style="stop-color:#D6F2FF"/>
		</linearGradient>
		<path class="st2" d="M157,27c71.8,0,130,58.2,130,130c0,34.5-13.7,67.5-38.1,91.9c-50.3,51.2-132.6,52-183.8,1.7
			S13.1,118,63.4,66.8c0.6-0.6,1.1-1.1,1.7-1.7C89.4,40.6,122.5,26.9,157,27 M157,21C81.9,21,21,81.9,21,157s60.9,136,136,136
			s136-60.9,136-136S232.1,21,157,21z"/>
		<circle class="st1" cx="259" cy="259" r="55"/>
		<polygon class="st3" points="281.1,269.2 281,262 274.1,269 238.3,233.3 238.3,233.3 228.5,230.6 231.1,240.4 231.1,240.5 
			266.9,276.2 259.9,283.2 267.1,283.3 272.2,278.2 282.2,288.2 283.7,291.2 288.4,290.5 289.1,285.9 286.1,284.3 276.1,274.3 		"/>
		<polygon class="st3" points="267.7,258.4 285.7,240.5 285.7,240.4 288.4,230.6 278.5,233.3 278.5,233.3 260.6,251.3 		"/>
		<polygon class="st3" points="256.3,269.9 249.1,262.7 242.8,269 235.8,262 235.7,269.2 240.8,274.3 230.8,284.3 227.8,285.9 
			228.5,290.5 233.2,291.2 234.7,288.2 244.7,278.2 249.8,283.3 257,283.2 250,276.2 		"/>
	</g>
</g>
</svg>
