<svg xmlns="http://www.w3.org/2000/svg" xmlns:xlink="http://www.w3.org/1999/xlink" viewBox="0 0 314 314"><defs><style>.cls-1{fill:#b4c7f1;}.cls-2{fill:#49bfaa;}.cls-3{fill:url(#Dégradé_sans_nom_791);}.cls-4{fill:#d4fff2;}</style><linearGradient id="Dégradé_sans_nom_791" x1="157" y1="293" x2="157" y2="21" gradientUnits="userSpaceOnUse"><stop offset="0" stop-color="#bff7e7" stop-opacity="0"/><stop offset="1" stop-color="#bff7e7"/></linearGradient></defs><title>roles_supportFichier 4</title><g id="Calque_2" data-name="Calque 2"><g id="Calque_1-2" data-name="Calque 1"><path class="cls-1" d="M157,0A157,157,0,1,0,314,157,157,157,0,0,0,157,0Zm0,293A136,136,0,1,1,293,157,136,136,0,0,1,157,293Z"/><path class="cls-2" d="M157,0A157,157,0,1,0,314,157,157,157,0,0,0,157,0Zm0,293A136,136,0,1,1,293,157,136,136,0,0,1,157,293Z"/><path class="cls-3" d="M157,27a130,130,0,0,1,91.92,221.92A130,130,0,1,1,65.08,65.08,129.12,129.12,0,0,1,157,27m0-6A136,136,0,1,0,293,157,136,136,0,0,0,157,21Z"/><circle class="cls-2" cx="259" cy="259" r="55"/><polygon class="cls-4" points="265.78 231.96 251.67 231.96 251.67 252.49 231.14 252.49 231.14 266.6 251.67 266.6 251.67 287.13 265.78 287.13 265.78 266.6 286.31 266.6 286.31 252.49 265.78 252.49 265.78 231.96"/><path class="cls-4" d="M230.55,287.72a39.78,39.78,0,0,1-8.1-13.15,39.27,39.27,0,0,1-2.42-15,.43.43,0,0,0,0-.16,2.3,2.3,0,1,0-4.59.16,43,43,0,0,0,3.83,16.35,42.36,42.36,0,0,0,9.66,13.45,41.82,41.82,0,0,0,13.89,8.6,41.34,41.34,0,0,0,15.91,2.6,40.5,40.5,0,0,1-28.18-12.82Z"/><path class="cls-4" d="M298.19,243.2a42.52,42.52,0,0,0-9.66-13.45,42,42,0,0,0-13.9-8.61,41.5,41.5,0,0,0-15.9-2.59,40.74,40.74,0,0,1,15.46,3.66,40.16,40.16,0,0,1,12.71,9.16,39.62,39.62,0,0,1,8.1,13.15,39.05,39.05,0,0,1,2.42,15v.17a2.3,2.3,0,1,0,4.6-.17A43.2,43.2,0,0,0,298.19,243.2Z"/></g></g></svg>