<svg xmlns="http://www.w3.org/2000/svg" xmlns:xlink="http://www.w3.org/1999/xlink" viewBox="0 0 314 314"><defs><style>.cls-1{fill:#b4c7f1;}.cls-2{fill:#7066ed;}.cls-3{fill:url(#Dégradé_sans_nom_10);}.cls-4{fill:#ecedff;}.cls-5{fill:#aaaeff;}</style><linearGradient id="Dégradé_sans_nom_10" x1="157" y1="293" x2="157" y2="21" gradientUnits="userSpaceOnUse"><stop offset="0" stop-color="#aaaeff" stop-opacity="0"/><stop offset="1" stop-color="#aaaeff"/></linearGradient></defs><title>roles_mageFichier 3</title><g id="Calque_2" data-name="Calque 2"><g id="Calque_1-2" data-name="Calque 1"><path class="cls-1" d="M157,0A157,157,0,1,0,314,157,157,157,0,0,0,157,0Zm0,293A136,136,0,1,1,293,157,136,136,0,0,1,157,293Z"/><path class="cls-2" d="M157,0A157,157,0,1,0,314,157,157,157,0,0,0,157,0Zm0,293A136,136,0,1,1,293,157,136,136,0,0,1,157,293Z"/><path class="cls-3" d="M157,27a130,130,0,0,1,91.92,221.92A130,130,0,1,1,65.08,65.08,129.12,129.12,0,0,1,157,27m0-6A136,136,0,1,0,293,157,136,136,0,0,0,157,21Z"/><circle class="cls-2" cx="259" cy="259" r="55"/><polygon class="cls-4" points="266.76 258.92 262.63 258.92 262.63 243.03 250.25 243.03 250.25 223 254.38 223 254.38 238.89 266.76 238.89 266.76 258.92"/><rect class="cls-4" x="258.51" y="225.76" width="4.13" height="8.29"/><polygon class="cls-4" points="266.07 265.14 250.25 265.14 250.25 245.11 254.38 245.11 254.38 260.99 266.07 260.99 266.07 265.14"/><path class="cls-4" d="M301.14,266.62c-2.83.56-6.8,1.35-11.55,2.32-11.75,2.39-12.84,2.71-14.46,3.38-3.72,1.55-10.25,4.32-14,11.26a23,23,0,0,0-2.41,7"/><path class="cls-4" d="M216.15,266.62,227.7,269c11.74,2.39,12.83,2.7,14.45,3.38,3.73,1.55,10.26,4.31,14,11.26a22.47,22.47,0,0,1,2.4,7"/><polygon class="cls-5" points="306 267.34 304.19 264.19 258.68 290.57 258.69 290.6 258.58 290.6 258.6 290.57 213.09 264.19 211.28 267.34 255.54 293 255.54 294 261.74 294 261.74 293 306 267.34"/></g></g></svg>