<svg xmlns="http://www.w3.org/2000/svg" viewBox="0 0 1834.45 453.13"><defs><style>.cls-1{fill:#4b63ab;}.cls-2{fill:#cdaa7c;}.cls-3{fill:#b1b923;}</style></defs><title>sanofi_afrique</title><g id="Calque_2" data-name="Calque 2"><g id="Calque_1-2" data-name="Calque 1"><path class="cls-1" d="M1514.92,346.3c4.62,1.38,9,2.92,13.62,4,15.81,3.61,31.74,3.73,47.77,2.1a122.34,122.34,0,0,0,43.8-12.51c16.35-8.34,29.32-20.52,40.16-35.16,11-14.91,19.17-31.42,26.79-48.23,8-17.54,15.13-35.43,24-52.55,7-13.63,15.17-26.53,26-37.5a85.71,85.71,0,0,1,49.21-24.85c12.71-1.95,25.43-1.64,38.17-.14a3.38,3.38,0,0,1,3.35,3A202.94,202.94,0,0,1,1834,183a195.89,195.89,0,0,1-85.54,174.68,191.46,191.46,0,0,1-89.09,32.54,194.35,194.35,0,0,1-102.61-16.8,198,198,0,0,1-40.3-24.92C1515.87,348,1515,347.61,1514.92,346.3Z"/><path class="cls-1" d="M642.75,261.71v-3.26q0-92.8.07-185.61V71.73c0-3.83.18-4,4.15-4,4.35,0,8.7,0,13.06,0h15.83c4.81,0,4.82,0,4.82,4.72l0,135.32q0,44.88,0,89.75c0,11.59-4.88,20.43-15.48,25.52-11.14,5.36-24.49,2.18-31.39-8.06-7.55-11.2-14.42-22.86-21.44-34.42q-32.56-53.67-65-107.42c-8.28-13.71-16.47-27.48-24.71-41.22-.45-.76-.66-1.73-1.68-2.13-.63.94-.32,2-.32,2.95,0,36,.18,72.06-.14,108.08-.24,26.21-.22,52.41-.24,78.61,0,2.9-1,3.61-3.72,3.57-9.91-.12-19.82,0-29.73-.05-4.08,0-4.09,0-4.09-4.2l0-209.51c0-6.21-.23-12.43.09-18.62.53-10.44,5.71-18.19,15.17-22.46,9.62-4.35,19-3.23,27.43,3.34,3,2.31,5,5.47,6.92,8.63q33.07,54,65.72,108.3,21.69,36.22,43.57,72.34C641.83,261.13,641.91,261.65,642.75,261.71Z"/><path class="cls-1" d="M1001.42,195.86c.4,69.89-56.53,129.57-129.61,129.58-73.39,0-130.19-59.33-130.11-129.46C741.79,124,797.8,65.79,871.6,65.69,946,65.59,1001.6,124.64,1001.42,195.86Zm-37.95.74a95,95,0,0,0-2-20.44C955,145.71,938.55,122.78,910,109.29a90.09,90.09,0,0,0-49.79-8c-24.38,2.86-44.19,14.42-59.37,33.5-13.63,17.13-20.39,37-21.08,58.86a94.76,94.76,0,0,0,5.9,35.94,90.57,90.57,0,0,0,27.27,39.23c18.66,15.51,40.26,22.68,64.59,21.14s44.93-11.55,61.4-29.58S962.91,220.81,963.47,196.6Z"/><path class="cls-1" d="M220.18,322.94H204.34c-4,0-4.14-.13-2.76-3.78q8.56-22.61,17.16-45.19,28.08-74,56.15-148.06c5.52-14.55,10.94-29.13,16.64-43.6,7.24-18.37,30.11-22.37,43.38-7.72A25.83,25.83,0,0,1,339.67,83q21.1,55.58,42.19,111.16l46.41,122.34c.3.77.59,1.55.88,2.34,1.48,4.09,1.48,4.09-2.73,4.09-10.56,0-21.12-.07-31.68.06-2.53,0-3.76-.76-4.65-3.2-7.94-21.95-16-43.83-24-65.76-.76-2.08-1.76-2.87-4-2.86q-46.54.09-93.08,0c-3.26,0-3.77,1.92-4.56,4.1-7.92,21.55-15.88,43.1-23.72,64.68-.84,2.31-2,3.15-4.43,3.07C230.92,322.83,225.55,322.94,220.18,322.94Zm95.34-207c-.54,1.26-.79,1.75-1,2.26Q297,166.36,279.46,214.5c-1.14,3.12-1.11,3.15,2.29,3.15l67.49,0c3.35,0,3.4-.09,2.25-3.24Q337.36,175.7,323.24,137C320.77,130.19,318.27,123.44,315.52,116Z"/><path class="cls-1" d="M146.84,133.93c-5.28,0-10.56,0-15.84,0-1.57,0-2.63-.31-2.87-2.17C125,108,101.67,93.14,77.82,98.12c-11.76,2.45-21.48,8-27.37,18.93-6.88,12.76-5.87,31,10.23,41.91,7.89,5.37,16.95,7.79,25.72,10.94,16.38,5.88,33,11,48.71,18.7,20.15,9.87,31.77,26.35,34.65,48.16,3.68,27.82-5.35,51.53-26.83,69.94-14.17,12.15-30.91,18.22-49.47,19.62-21.63,1.63-41.71-3-59.56-15.38C12.77,296.31,1.64,275.79,0,250.13c-.11-1.79.79-2.31,2.31-2.31l9.72,0c7.13,0,14.26,0,21.39,0,2,0,3,.69,3.33,2.78a62.26,62.26,0,0,0,5,16.43c6.88,14.36,18,23.32,33.79,25.93,17.06,2.82,32.67-.33,45.74-12.3,7.51-6.87,11.29-15.63,11.94-25.79.74-11.57-2.61-21.56-11.16-29.6-6-5.65-13.34-8.95-21-11.57-11.82-4-23.72-7.87-35.54-11.92-8.32-2.85-16.64-5.83-24.28-10.24-17.8-10.29-28.76-25.44-30.87-46.1-2.28-22.33,4.34-42,19.94-58.21C42.34,74.7,57.6,68.08,74.63,65.44c13.6-2.11,27-1.44,39.94,3.52,26.82,10.29,44.35,28.79,50,57.53.21,1.08.26,2.2.4,3.3.49,3.9,1.06,4.17-4,4.15C156.28,133.92,151.56,133.93,146.84,133.93Z"/><path class="cls-2" d="M1824.59,135.13c-4.63-5.78-9.08-11.57-14.11-16.87-14.06-14.8-30.68-24.47-51.47-26.15-16.57-1.33-32.38,2.29-48.11,6.69-16.4,4.59-32.5,10.23-49.16,13.88-15.12,3.31-30.32,4.84-45.7,1.74-23.84-4.82-43.12-21.39-46.93-46.2-2.6-17,2.06-32.13,13.71-44.87C1595.24,9.77,1611.27,3.25,1629.1,1c26.9-3.38,52.7,2,77.86,11.06a188.11,188.11,0,0,1,62.17,37.47,195.06,195.06,0,0,1,48.39,66.4A137.3,137.3,0,0,1,1824.59,135.13Z"/><path class="cls-1" d="M1063.43,205.1c0-37.23.15-74.46-.08-111.69-.08-12.86,9.35-22.85,19.7-24.91a32.36,32.36,0,0,1,6.36-.39c15.47,0,30.94.18,46.4-.06,22.87-.34,45.74-.31,68.61-.32,4.31,0,4.32,0,4.32,4.27q0,13.48,0,27c0,3.62-.09,3.72-3.76,3.72h-98.35c-.92,0-1.86.06-2.78,0-2.09-.16-3.16.62-3,2.85.09,1,0,2,0,3.06V180c0,5.35-.37,4.87,5,4.88h98.63c4.19,0,4.19,0,4.2,4.09q0,13.34,0,26.67c0,3.77,0,3.83-3.92,3.83q-49.74,0-99.47,0c-4.44,0-4.45,0-4.45,4.37v94.74c0,4.38,0,4.38-4.48,4.38h-28.89c-4.08,0-4.09,0-4.09-4.21Z"/><path class="cls-3" d="M1443.11,196.42a128.8,128.8,0,0,1,1-21.33c.11-.76-.33-1.93.68-2.17s1.35.85,1.83,1.48a158.55,158.55,0,0,0,16,18.07,151.12,151.12,0,0,0,45.06,30c12,5.33,24.64,9.13,37,13.67,9.81,3.61,19.63,7.19,28,13.89,22.37,18,24.26,52.31,3.9,72.63-10.07,10.05-22.33,14.83-36.44,15.3-19.31.63-35.5-6.65-49.7-19.24-10.91-9.66-18.94-21.51-25.76-34.19-12.41-23.07-19.09-47.85-21-73.95-.18-2.49-.4-5-.49-7.47S1443.11,198.08,1443.11,196.42Z"/><path class="cls-1" d="M1313.7,195.38V318.47c0,4.48,0,4.48-4.41,4.48h-29.18c-4.26,0-4.27,0-4.27-4.34V94.38q0-11.25,0-22.5c0-4,.13-4.15,4.27-4.15H1309c4.68,0,4.69,0,4.69,4.85Z"/><path class="cls-1" d="M843.16,367.33h7.08l35.4,85.2h-8.88l-11-26.64H827.44l-10.92,26.64h-9Zm20.64,52-17.16-42.12-17.4,42.12Z"/><path class="cls-1" d="M897.88,452.53v-85.2H953.8v7.44H906.28v31.32h40.08v7H906.28v39.48Z"/><path class="cls-1" d="M968.56,452.53v-85.2h36a22.12,22.12,0,0,1,10.14,2.34,26.72,26.72,0,0,1,8,6.12,28.06,28.06,0,0,1,5.22,8.58,26.71,26.71,0,0,1,1.86,9.72,28.83,28.83,0,0,1-1.38,8.94,27.64,27.64,0,0,1-3.84,7.68,23.23,23.23,0,0,1-5.94,5.76,21,21,0,0,1-7.8,3.18l20.88,32.88h-9.48l-20-31.44H977v31.44Zm8.4-38.88h27.84a14.26,14.26,0,0,0,6.78-1.62,16.17,16.17,0,0,0,5.22-4.38,21.31,21.31,0,0,0,3.36-6.24,22.3,22.3,0,0,0,1.2-7.32,20.14,20.14,0,0,0-1.38-7.38,20.37,20.37,0,0,0-3.72-6.18,17.75,17.75,0,0,0-5.52-4.2,14.94,14.94,0,0,0-6.66-1.56H977Z"/><path class="cls-1" d="M1046.92,452.53v-85.2h8.4v85.2Z"/><path class="cls-1" d="M1134.28,445a40,40,0,0,1-10.74,6,37.43,37.43,0,0,1-28.8-1.56,41.64,41.64,0,0,1-12.66-9.72,43.46,43.46,0,0,1-8.16-13.8,45.74,45.74,0,0,1-2.88-16,44.29,44.29,0,0,1,3.06-16.32,45,45,0,0,1,8.46-13.8,40.9,40.9,0,0,1,12.72-9.54,35.9,35.9,0,0,1,15.84-3.54,35.14,35.14,0,0,1,16.26,3.78,40.84,40.84,0,0,1,12.6,9.9,45.76,45.76,0,0,1,8.1,13.86,44.92,44.92,0,0,1,2.88,15.78,44.71,44.71,0,0,1-12,30.6L1149,452.53h-8.28Zm-23.28.6a27.72,27.72,0,0,0,10-1.74,32.23,32.23,0,0,0,8.4-4.74l-10.68-12.72H1127l6.84,8.16a37.16,37.16,0,0,0,6.48-11.46,39.21,39.21,0,0,0-.06-26.52,36.58,36.58,0,0,0-6.54-11.34,33,33,0,0,0-10-7.92,27.12,27.12,0,0,0-12.72-3,27.9,27.9,0,0,0-13.08,3.06,31.18,31.18,0,0,0-10,8.1,37.55,37.55,0,0,0-6.3,11.46,39.84,39.84,0,0,0,.06,26.4,36.4,36.4,0,0,0,6.48,11.4,31.85,31.85,0,0,0,10,7.92A27.83,27.83,0,0,0,1111,445.57Z"/><path class="cls-1" d="M1201.12,445.57q8,0,13.38-3.06a24.19,24.19,0,0,0,8.52-8,32.64,32.64,0,0,0,4.44-11.34,65.91,65.91,0,0,0,1.26-12.84v-43h8.4v43a67.83,67.83,0,0,1-1.92,16.38,38.92,38.92,0,0,1-6.18,13.62,30.57,30.57,0,0,1-11.1,9.36q-6.84,3.48-16.68,3.48-10.08,0-17-3.66a31,31,0,0,1-11.1-9.66,39.18,39.18,0,0,1-6-13.68,69.19,69.19,0,0,1-1.8-15.84v-43h8.28v43a64.2,64.2,0,0,0,1.32,13.08,32.87,32.87,0,0,0,4.5,11.28,24,24,0,0,0,8.46,7.92Q1193.2,445.57,1201.12,445.57Z"/><path class="cls-1" d="M1314.4,445.09v7.44h-57.24v-85.2h56.16v7.44h-47.76v30.72h41.64v7.08h-41.64v32.52Z"/></g></g></svg>