<svg xmlns="http://www.w3.org/2000/svg" viewBox="0 0 760 36.17"><defs><style>.cls-1{fill:#e1e1d9;}</style></defs><title>separatorFichier 1</title><g id="Calque_2" data-name="Calque 2"><g id="Calque_1-2" data-name="Calque 1"><rect class="cls-1" x="367.21" y="5.3" width="25.58" height="25.58" transform="translate(98.51 274) rotate(-45)"/><path class="cls-1" d="M760,18.77l-20.5.67L719,20l-41,1.15-41,1L596,23c-13.67.25-27.33.73-41,1.14s-27.33.4-41,.06-27.33-.93-41-1.76-27.33-1.91-41-3.64v-1.2c13.67-1.73,27.33-2.77,41-3.64s27.33-1.41,41-1.76,27.33-.33,41,.06,27.33.88,41,1.14l41,.81,41,1,41,1.15,20.5.58,20.5.67Z"/><path class="cls-1" d="M0,17.57l20.5-.67L41,16.32l41-1.15,41-1,41-.81c13.67-.26,27.33-.74,41-1.14s27.33-.41,41-.06,27.33.92,41,1.76,27.33,1.91,41,3.64v1.2c-13.67,1.73-27.33,2.76-41,3.64s-27.33,1.41-41,1.76-27.33.32-41-.06-27.33-.89-41-1.14l-41-.81-41-1L41,20l-20.5-.58L0,18.77Z"/></g></g></svg>