<svg width="421" height="443" viewBox="0 0 421 443" fill="none" xmlns="http://www.w3.org/2000/svg">
<path d="M113.794 153.439C134.574 118.368 170.629 107.967 196.916 73.6575C200.864 68.5009 213.748 53.1776 235.81 37.737C237.854 36.3014 240.07 35.0122 242.98 33.4887C274.497 17.0813 317.201 15.0597 354.848 10.8992C370.053 9.19987 392.946 6.12348 421 0C421 75.3569 421 150.684 421 226.041C421 298.351 421 370.69 421 443C392.808 434.621 369.499 432.072 353.463 431.28C314.534 429.347 273.666 435.587 242.98 418.828C239.759 417.07 235.984 414.697 235.81 414.58C213.402 400.487 201.592 384.783 196.916 378.689C156.29 325.658 135.406 319.3 117.95 279.512C109.915 261.171 84.3893 203.012 113.794 153.439Z" fill="url(#paint0_linear)"/>
<path opacity="0.3" d="M308.89 115.148L307.375 117.922C307.342 117.986 307.278 118.051 307.214 118.083L304.441 119.599C304.15 119.76 304.15 120.147 304.441 120.309L307.214 121.824C307.278 121.857 307.342 121.921 307.375 121.986L308.89 124.759C309.051 125.05 309.438 125.05 309.6 124.759L311.115 121.986C311.147 121.921 311.212 121.857 311.276 121.824L314.049 120.309C314.339 120.147 314.339 119.76 314.049 119.599L311.276 118.083C311.212 118.051 311.147 117.986 311.115 117.922L309.6 115.148C309.471 114.89 309.051 114.89 308.89 115.148Z" fill="white"/>
<path opacity="0.3" d="M188.945 302.216L187.43 304.989C187.398 305.054 187.333 305.118 187.269 305.151L184.496 306.667C184.206 306.828 184.206 307.215 184.496 307.376L187.269 308.892C187.333 308.924 187.398 308.989 187.43 309.053L188.945 311.827C189.107 312.117 189.493 312.117 189.655 311.827L191.17 309.053C191.202 308.989 191.267 308.924 191.331 308.892L194.104 307.376C194.394 307.215 194.394 306.828 194.104 306.667L191.331 305.151C191.267 305.118 191.202 305.054 191.17 304.989L189.655 302.216C189.526 301.958 189.107 301.958 188.945 302.216Z" fill="white"/>
<path opacity="0.3" d="M350.806 369.947L349.291 372.721C349.259 372.785 349.194 372.85 349.13 372.882L346.357 374.398C346.067 374.559 346.067 374.946 346.357 375.107L349.13 376.623C349.194 376.656 349.259 376.72 349.291 376.785L350.806 379.558C350.968 379.849 351.355 379.849 351.516 379.558L353.031 376.785C353.063 376.72 353.128 376.656 353.192 376.623L355.965 375.107C356.256 374.946 356.256 374.559 355.965 374.398L353.192 372.882C353.128 372.85 353.063 372.785 353.031 372.721L351.516 369.947C351.387 369.689 350.968 369.689 350.806 369.947Z" fill="white"/>
<path opacity="0.3" d="M274.39 405.748L272.875 408.521C272.842 408.586 272.778 408.65 272.713 408.683L269.94 410.199C269.65 410.36 269.65 410.747 269.94 410.908L272.713 412.424C272.778 412.456 272.842 412.521 272.875 412.585L274.39 415.359C274.551 415.649 274.938 415.649 275.099 415.359L276.615 412.585C276.647 412.521 276.712 412.456 276.776 412.424L279.549 410.908C279.839 410.747 279.839 410.36 279.549 410.199L276.776 408.683C276.712 408.65 276.647 408.586 276.615 408.521L275.099 405.748C274.97 405.49 274.551 405.49 274.39 405.748Z" fill="white"/>
<path opacity="0.3" d="M363.381 206.424L361.866 209.198C361.834 209.262 361.769 209.327 361.705 209.359L358.932 210.875C358.642 211.036 358.642 211.423 358.932 211.584L361.705 213.1C361.769 213.133 361.834 213.197 361.866 213.262L363.381 216.035C363.543 216.326 363.93 216.326 364.091 216.035L365.606 213.262C365.638 213.197 365.703 213.133 365.767 213.1L368.54 211.584C368.83 211.423 368.83 211.036 368.54 210.875L365.767 209.359C365.703 209.327 365.638 209.262 365.606 209.198L364.091 206.424C363.962 206.166 363.543 206.166 363.381 206.424Z" fill="white"/>
<path d="M122.46 274.091C89.8365 274.091 63.3902 247.637 63.3902 215.004C63.3902 182.37 89.8365 155.916 122.46 155.916C155.083 155.916 181.529 182.37 181.529 215.004C181.529 247.637 155.083 274.091 122.46 274.091Z" fill="url(#paint1_linear)"/>
<path d="M221.06 246.999C213.581 246.999 207.517 240.934 207.517 233.453C207.517 225.971 213.581 219.906 221.06 219.906C228.539 219.906 234.602 225.971 234.602 233.453C234.602 240.934 228.539 246.999 221.06 246.999Z" fill="url(#paint2_linear)"/>
<path d="M58.9406 216.487C60.3593 215.745 61.8425 214.971 63.3902 214.23C63.3902 214.971 63.3902 215.874 63.3902 216.649C62.2294 217.229 61.0687 217.81 59.9724 218.39C46.0111 225.808 38.4016 233.001 39.6269 237.645C40.8521 242.29 50.9765 244.87 66.808 244.515C83.5422 244.16 105.081 240.742 127.393 234.936C176.919 222.067 207.646 203.651 205.293 194.523C204.164 190.137 195.233 187.589 180.788 187.589C178.885 187.589 176.919 187.621 174.855 187.718C174.5 187.073 174.404 186.169 173.92 185.653C192.234 184.75 205.615 187.073 207.388 193.975C210.806 207.102 169.664 226.195 127.909 237.065C105.435 242.935 83.7356 246.354 66.808 246.708C65.8407 246.741 64.8734 246.741 63.9061 246.741C52.2663 246.741 39.3045 245.128 37.4988 238.194C35.5642 230.711 48.0746 222.261 58.9406 216.487Z" fill="url(#paint3_linear)"/>
<path d="M278.13 174.108C277.667 174.108 277.292 173.732 277.292 173.269C277.292 172.806 277.667 172.43 278.13 172.43C278.593 172.43 278.969 172.806 278.969 173.269C278.969 173.732 278.593 174.108 278.13 174.108Z" fill="white"/>
<path d="M284.063 286.283C283.315 286.283 282.709 285.677 282.709 284.928C282.709 284.18 283.315 283.574 284.063 283.574C284.811 283.574 285.417 284.18 285.417 284.928C285.417 285.677 284.811 286.283 284.063 286.283Z" fill="#078E8E"/>
<path d="M145.739 335.759C144.956 335.759 144.321 335.123 144.321 334.34C144.321 333.556 144.956 332.92 145.739 332.92C146.523 332.92 147.158 333.556 147.158 334.34C147.158 335.123 146.523 335.759 145.739 335.759Z" fill="#078E8E"/>
<path d="M70.6772 329.276C70.1964 329.276 69.8066 328.886 69.8066 328.405C69.8066 327.924 70.1964 327.534 70.6772 327.534C71.158 327.534 71.5477 327.924 71.5477 328.405C71.5477 328.886 71.158 329.276 70.6772 329.276Z" fill="#078E8E"/>
<path d="M172.437 113.052C171.849 113.052 171.373 112.575 171.373 111.987C171.373 111.399 171.849 110.923 172.437 110.923C173.025 110.923 173.501 111.399 173.501 111.987C173.501 112.575 173.025 113.052 172.437 113.052Z" fill="#078E8E"/>
<path d="M336.426 243.805C336.212 243.805 336.039 243.632 336.039 243.418C336.039 243.205 336.212 243.031 336.426 243.031C336.64 243.031 336.813 243.205 336.813 243.418C336.813 243.632 336.64 243.805 336.426 243.805Z" fill="#078E8E"/>
<path d="M361.124 246.289C360.626 246.289 360.221 245.884 360.221 245.386C360.221 244.887 360.626 244.483 361.124 244.483C361.623 244.483 362.027 244.887 362.027 245.386C362.027 245.884 361.623 246.289 361.124 246.289Z" fill="#078E8E"/>
<path d="M366.058 158.657C365.933 158.657 365.832 158.556 365.832 158.432C365.832 158.307 365.933 158.206 366.058 158.206C366.182 158.206 366.283 158.307 366.283 158.432C366.283 158.556 366.182 158.657 366.058 158.657Z" fill="#078E8E"/>
<path d="M169.47 293.378C169.168 293.378 168.922 293.133 168.922 292.83C168.922 292.527 169.168 292.281 169.47 292.281C169.773 292.281 170.019 292.527 170.019 292.83C170.019 293.133 169.773 293.378 169.47 293.378Z" fill="#F4DAD0"/>
<path d="M61.778 286.96C61.2082 286.96 60.7462 286.498 60.7462 285.928C60.7462 285.358 61.2082 284.896 61.778 284.896C62.3479 284.896 62.8098 285.358 62.8098 285.928C62.8098 286.498 62.3479 286.96 61.778 286.96Z" fill="#F4DAD0"/>
<path d="M213.902 121.147C213.759 121.147 213.644 121.031 213.644 120.889C213.644 120.746 213.759 120.631 213.902 120.631C214.044 120.631 214.16 120.746 214.16 120.889C214.16 121.031 214.044 121.147 213.902 121.147Z" fill="#F4DAD0"/>
<path d="M308.761 235.871C308.565 235.871 308.407 235.712 308.407 235.516C308.407 235.32 308.565 235.161 308.761 235.161C308.957 235.161 309.116 235.32 309.116 235.516C309.116 235.712 308.957 235.871 308.761 235.871Z" fill="#F4DAD0"/>
<path d="M323.561 226.679C322.991 226.679 322.529 226.217 322.529 225.647C322.529 225.077 322.991 224.615 323.561 224.615C324.131 224.615 324.593 225.077 324.593 225.647C324.593 226.217 324.131 226.679 323.561 226.679Z" fill="#F4DAD0"/>
<path d="M275.164 339.726C274.915 339.726 274.712 339.524 274.712 339.274C274.712 339.025 274.915 338.823 275.164 338.823C275.413 338.823 275.615 339.025 275.615 339.274C275.615 339.524 275.413 339.726 275.164 339.726Z" fill="#F4DAD0"/>
<path d="M252.432 237.484C251.898 237.484 251.465 237.051 251.465 236.517C251.465 235.982 251.898 235.549 252.432 235.549C252.966 235.549 253.399 235.982 253.399 236.517C253.399 237.051 252.966 237.484 252.432 237.484Z" fill="#F4DAD0"/>
<path d="M0.548079 161.947C0.245357 161.947 -3.27826e-05 161.701 -3.27826e-05 161.399C-3.27826e-05 161.096 0.245357 160.85 0.548079 160.85C0.850802 160.85 1.09619 161.096 1.09619 161.399C1.09619 161.701 0.850802 161.947 0.548079 161.947Z" fill="#F4DAD0"/>
<path d="M164.537 136.596C164.056 136.596 163.667 136.206 163.667 135.725C163.667 135.244 164.056 134.854 164.537 134.854C165.018 134.854 165.408 135.244 165.408 135.725C165.408 136.206 165.018 136.596 164.537 136.596Z" fill="#F4DAD0"/>
<path d="M351.226 139.177C350.941 139.177 350.71 138.946 350.71 138.661C350.71 138.376 350.941 138.145 351.226 138.145C351.51 138.145 351.741 138.376 351.741 138.661C351.741 138.946 351.51 139.177 351.226 139.177Z" fill="#F4DAD0"/>
<path d="M254.431 137.886C253.773 137.886 253.238 137.352 253.238 136.693C253.238 136.034 253.773 135.5 254.431 135.5C255.09 135.5 255.624 136.034 255.624 136.693C255.624 137.352 255.09 137.886 254.431 137.886Z" fill="#F4DAD0"/>
<path d="M347.292 283.767C346.847 283.767 346.486 283.406 346.486 282.96C346.486 282.515 346.847 282.154 347.292 282.154C347.737 282.154 348.098 282.515 348.098 282.96C348.098 283.406 347.737 283.767 347.292 283.767Z" fill="#F4DAD0"/>
<path d="M369.668 395.363C369.276 395.363 368.959 395.045 368.959 394.653C368.959 394.261 369.276 393.944 369.668 393.944C370.06 393.944 370.378 394.261 370.378 394.653C370.378 395.045 370.06 395.363 369.668 395.363Z" fill="#F4DAD0"/>
<path d="M314.372 416.843C313.57 416.843 312.921 416.193 312.921 415.391C312.921 414.59 313.57 413.94 314.372 413.94C315.173 413.94 315.823 414.59 315.823 415.391C315.823 416.193 315.173 416.843 314.372 416.843Z" fill="#F4DAD0"/>
<path d="M376.601 30.9997C376.049 30.9997 375.602 30.552 375.602 29.9998C375.602 29.4476 376.049 29 376.601 29C377.153 29 377.601 29.4476 377.601 29.9998C377.601 30.552 377.153 30.9997 376.601 30.9997Z" fill="#F4DAD0"/>
<path d="M279.775 54.5446C279.312 54.5446 278.936 54.1691 278.936 53.706C278.936 53.2429 279.312 52.8674 279.775 52.8674C280.238 52.8674 280.613 53.2429 280.613 53.706C280.613 54.1691 280.238 54.5446 279.775 54.5446Z" fill="#F4DAD0"/>
<path d="M322.271 84.1526C321.844 84.1526 321.497 83.8061 321.497 83.3786C321.497 82.9511 321.844 82.6045 322.271 82.6045C322.699 82.6045 323.045 82.9511 323.045 83.3786C323.045 83.8061 322.699 84.1526 322.271 84.1526Z" fill="#F4DAD0"/>
<defs>
<linearGradient id="paint0_linear" x1="421" y1="221.5" x2="100.003" y2="221.5" gradientUnits="userSpaceOnUse">
<stop stop-color="#0C1D48"/>
<stop offset="1" stop-color="#0C1D48"/>
</linearGradient>
<linearGradient id="paint1_linear" x1="80.6873" y1="256.782" x2="164.227" y2="173.268" gradientUnits="userSpaceOnUse">
<stop offset="5.43435e-07" stop-color="#4A62CD"/>
<stop offset="0.4228" stop-color="#53A2CF"/>
<stop offset="0.8109" stop-color="#5AD6D0"/>
<stop offset="1" stop-color="#5DEAD1"/>
</linearGradient>
<linearGradient id="paint2_linear" x1="211.471" y1="243.019" x2="230.631" y2="223.864" gradientUnits="userSpaceOnUse">
<stop offset="5.43435e-07" stop-color="#4A62CD"/>
<stop offset="0.4228" stop-color="#53A2CF"/>
<stop offset="0.8109" stop-color="#5AD6D0"/>
<stop offset="1" stop-color="#5DEAD1"/>
</linearGradient>
<linearGradient id="paint3_linear" x1="122.443" y1="246.752" x2="122.443" y2="185.47" gradientUnits="userSpaceOnUse">
<stop offset="5.43435e-07" stop-color="#4A62CD"/>
<stop offset="0.4228" stop-color="#53A2CF"/>
<stop offset="0.8109" stop-color="#5AD6D0"/>
<stop offset="1" stop-color="#5DEAD1"/>
</linearGradient>
</defs>
</svg>
