<svg width="827" height="217" viewBox="0 0 827 217" fill="none" xmlns="http://www.w3.org/2000/svg">
<path d="M817.69 158.369C812.758 157.136 807.879 156.064 803 155.1C798.122 154.135 793.243 153.224 788.364 152.366C778.607 150.651 768.903 149.204 759.199 147.864C754.321 147.168 749.496 146.578 744.671 145.989L730.142 144.22L715.613 142.451L708.375 141.594L701.138 140.629C662.483 135.645 624.044 130.125 585.818 123.962C547.593 117.745 509.528 110.831 471.839 102.739L464.762 101.238L457.686 99.6839C452.968 98.612 448.304 97.5937 443.586 96.4683C438.868 95.3964 434.204 94.3245 429.486 93.1991C424.768 92.0736 420.104 90.9481 415.386 89.7691L408.309 88.0005L401.179 86.1783C396.353 84.9457 391.528 83.6594 386.703 82.3732C377.053 79.8007 367.403 77.2282 357.806 74.4949C319.259 63.8298 280.873 52.0393 242.273 40.9454C203.726 29.798 164.964 19.6152 125.935 12.5945C116.177 10.8259 106.366 9.21808 96.5552 7.82465C86.7442 6.43122 76.9332 5.25216 67.0686 4.18029C57.204 3.16202 47.393 2.35811 37.4748 1.6614C32.5425 1.33984 27.6102 1.07187 22.6779 0.803902C17.7456 0.535935 12.7597 0.375154 7.82735 0.214374L0.428896 0H0V195C35.1695 200.574 70.4552 193.553 106 195C144.869 196.608 184.05 192.561 223.294 191.222C262.538 189.935 301.889 188.595 340.972 189.292C345.851 189.346 350.73 189.507 355.608 189.614C360.487 189.775 365.366 189.882 370.244 190.096C375.123 190.31 380.002 190.525 384.827 190.793L392.225 191.222L399.677 191.704C409.649 192.347 419.675 193.044 429.647 193.687C434.632 194.008 439.672 194.276 444.658 194.544L452.164 194.973L459.669 195.348C469.695 195.884 479.72 196.313 489.692 196.742L504.703 197.278L512.209 197.546L519.715 197.76L534.726 198.135C539.712 198.242 544.752 198.296 549.737 198.403C554.723 198.457 559.709 198.617 564.749 198.617L579.707 198.725C619.647 198.885 659.535 197.814 699.315 195.348L706.767 194.919L714.219 194.384L729.123 193.258C734.109 192.883 739.041 192.561 743.974 192.079C748.906 191.65 753.892 191.114 758.824 190.525C768.742 189.346 778.607 187.952 788.472 186.184C793.404 185.326 798.336 184.308 803.269 183.236C808.201 182.164 813.08 180.985 818.012 179.592C821.657 178.573 824.66 175.626 825.678 171.714C827.126 165.818 823.587 159.869 817.69 158.369Z" fill="url(#paint0_linear)"/>
<path d="M257.07 106.383C268.435 119.406 281.624 130.768 295.617 140.736C309.609 150.812 324.46 159.655 339.846 167.372C355.233 175.09 371.156 181.682 387.4 186.988C403.698 192.186 420.372 196.045 437.099 197.921C438.117 198.028 439.189 198.242 440.208 198.296L443.318 198.51L449.59 198.885C453.772 199.207 457.846 199.1 461.867 198.885C469.856 198.349 477.736 196.849 484.009 193.633C487.119 192.025 489.746 190.042 491.676 187.791C492.694 186.666 493.338 185.433 494.035 184.147C494.571 182.807 495.053 181.521 495.321 180.074C496.393 174.339 494.678 167.265 491.3 160.566C487.976 153.867 483.259 147.275 477.897 141.326C474.305 137.199 470.231 133.34 465.995 129.696C466.156 129.91 466.264 130.125 466.424 130.339C467.175 131.465 467.818 132.644 468.515 133.823C469.212 135.002 469.802 136.288 470.445 137.574C471.035 138.914 471.625 140.2 472.161 141.594C473.233 144.327 474.091 147.436 474.627 150.705C475.163 153.974 475.324 157.618 474.734 161.477C474.145 165.282 472.804 169.248 470.66 172.732C468.569 176.215 465.781 179.109 462.832 181.307C459.884 183.504 456.828 185.112 453.933 186.237C450.984 187.363 448.089 188.167 445.301 188.649C439.672 189.721 434.418 189.828 429.325 189.614C426.751 189.506 424.393 189.238 421.98 188.971C419.567 188.703 417.155 188.435 414.85 188.006C405.414 186.559 396.407 183.933 387.615 181.039L381.074 178.788L374.641 176.215L371.424 174.929L368.314 173.536C366.224 172.571 364.133 171.66 362.042 170.695C345.583 162.71 329.928 153.116 315.775 141.219C308.698 135.27 301.943 128.892 295.938 121.496C292.882 117.906 290.148 114.1 287.521 110.081C284.894 106.115 282.589 101.827 280.552 97.3256C278.568 92.7702 276.906 87.9468 275.995 82.6946C275.083 77.496 274.976 71.8151 276.316 66.1342C276.906 63.2938 278.032 60.5605 279.372 57.9344C280.82 55.3619 282.482 52.8966 284.465 50.8601C288.379 46.6262 293.043 43.5714 297.761 41.4812C302.533 39.3375 307.358 38.0512 312.129 37.1938C316.901 36.3898 321.672 35.9075 326.336 35.8539C331 35.8003 335.665 35.9075 340.168 36.4434L346.923 37.1938L350.301 37.5689C351.427 37.7297 352.499 37.9441 353.625 38.1048C389.223 44.0001 422.409 57.6129 453.075 74.9236C468.408 83.6593 483.098 93.4669 496.822 104.454C510.493 115.494 523.199 127.874 533.922 141.808L531.724 143.577C520.358 130.554 507.169 119.192 493.177 109.223C479.184 99.1478 464.334 90.3049 448.947 82.5874C433.56 74.87 417.637 68.278 401.393 62.9722C385.095 57.7736 368.422 53.9149 351.695 52.0391C350.676 51.932 349.604 51.7176 348.585 51.664L345.476 51.4496L339.364 51.0209C335.182 50.6993 331.108 50.8065 327.087 51.0209C319.099 51.5568 311.218 53.0574 304.945 56.273C301.836 57.8808 299.209 59.8638 297.279 62.1147C296.26 63.2402 295.617 64.4728 294.92 65.7591C294.383 67.0989 293.901 68.3852 293.633 69.8322C292.561 75.5667 294.276 82.641 297.654 89.3402C300.978 96.0394 305.696 102.631 311.057 108.58C314.649 112.707 318.723 116.566 322.959 120.21C322.798 119.996 322.691 119.781 322.53 119.567C321.779 118.441 321.136 117.262 320.439 116.083C319.742 114.904 319.152 113.618 318.509 112.332C317.919 110.992 317.329 109.706 316.793 108.312C315.721 105.579 314.863 102.471 314.327 99.2014C313.791 95.9322 313.63 92.2878 314.22 88.4291C314.81 84.624 316.15 80.6581 318.294 77.1745C320.385 73.6909 323.173 70.7969 326.122 68.5995C329.07 66.3486 332.126 64.7944 335.021 63.6689C337.97 62.5435 340.865 61.7396 343.653 61.2572C349.282 60.1854 354.536 60.0782 359.629 60.2925C362.203 60.3997 364.562 60.6677 366.974 60.9357C369.387 61.2036 371.799 61.4716 374.105 61.9003C383.54 63.3474 392.547 65.9734 401.339 68.8675L407.88 71.1184L414.314 73.6909L417.53 74.9771L420.64 76.3706C422.731 77.3353 424.821 78.2464 426.912 79.211C443.371 87.1965 459.026 96.7897 473.179 108.687C480.256 114.636 487.011 121.014 493.016 128.41C496.072 132.001 498.806 135.806 501.433 139.825C504.06 143.791 506.365 148.079 508.403 152.581C510.386 157.136 512.048 161.959 512.96 167.212C513.871 172.41 513.978 178.091 512.638 183.772C512.048 186.612 510.922 189.346 509.582 191.972C508.135 194.544 506.473 197.01 504.489 199.046C500.575 203.28 495.911 206.335 491.193 208.425C486.422 210.569 481.597 211.855 476.825 212.712C472.054 213.516 467.282 213.999 462.618 214.052C457.954 214.106 453.289 213.999 448.786 213.463L442.031 212.712L438.653 212.337C437.528 212.176 436.455 211.962 435.329 211.801C399.731 205.906 366.545 192.293 335.879 174.983C320.546 166.247 305.856 156.439 292.132 145.453C278.461 134.412 265.755 122.032 255.032 108.098L257.07 106.383ZM376.946 115.119C377.16 115.547 377.375 116.03 377.589 116.459C378.447 117.959 379.412 119.299 380.592 120.692C385.47 126.213 392.601 130.875 399.945 133.662C401.822 134.359 403.698 134.948 405.575 135.27C407.398 135.645 409.274 135.752 410.614 135.431C411.258 135.323 411.687 135.055 412.008 134.787C411.794 134.359 411.579 133.876 411.365 133.448C410.507 131.947 409.542 130.607 408.363 129.214C403.484 123.694 396.353 119.031 389.009 116.244C387.132 115.547 385.256 114.958 383.379 114.636C381.557 114.261 379.68 114.154 378.34 114.476C377.697 114.636 377.268 114.851 376.946 115.119Z" fill="url(#paint1_linear)"/>
<path opacity="0.3" d="M102.56 44.6433L100.04 49.2524C99.9864 49.3596 99.8792 49.4668 99.7719 49.5203L95.1613 52.0392C94.6788 52.3072 94.6788 52.9503 95.1613 53.2183L99.7719 55.7372C99.8792 55.7908 99.9864 55.898 100.04 56.0052L102.56 60.6142C102.828 61.0965 103.471 61.0965 103.739 60.6142L106.259 56.0052C106.313 55.898 106.42 55.7908 106.527 55.7372L111.138 53.2183C111.62 52.9503 111.62 52.3072 111.138 52.0392L106.527 49.5203C106.42 49.4668 106.313 49.3596 106.259 49.2524L103.739 44.6433C103.471 44.2146 102.828 44.2146 102.56 44.6433Z" fill="white"/>
<path opacity="0.3" d="M429.057 19.4544L426.537 24.0634C426.483 24.1706 426.376 24.2778 426.269 24.3314L421.658 26.8503C421.176 27.1182 421.176 27.7614 421.658 28.0293L426.269 30.5482C426.376 30.6018 426.483 30.709 426.537 30.8162L429.057 35.4252C429.325 35.9076 429.968 35.9076 430.236 35.4252L432.756 30.8162C432.81 30.709 432.917 30.6018 433.024 30.5482L437.635 28.0293C438.117 27.7614 438.117 27.1182 437.635 26.8503L433.024 24.3314C432.917 24.2778 432.81 24.1706 432.756 24.0634L430.236 19.4544C429.968 19.0256 429.271 19.0256 429.057 19.4544Z" fill="white"/>
<path opacity="0.3" d="M151.76 155.322L149.241 159.931C149.187 160.038 149.08 160.145 148.973 160.199L144.362 162.717C143.879 162.985 143.879 163.629 144.362 163.897L148.973 166.415C149.08 166.469 149.187 166.576 149.241 166.683L151.76 171.292C152.028 171.775 152.672 171.775 152.94 171.292L155.46 166.683C155.513 166.576 155.62 166.469 155.728 166.415L160.338 163.897C160.821 163.629 160.821 162.985 160.338 162.717L155.728 160.199C155.62 160.145 155.513 160.038 155.46 159.931L152.94 155.322C152.672 154.893 151.975 154.893 151.76 155.322Z" fill="white"/>
<path opacity="0.3" d="M30.1116 177.212L28.4518 180.257C28.4165 180.327 28.3459 180.398 28.2753 180.434L25.2384 182.097C24.9205 182.274 24.9205 182.699 25.2384 182.876L28.2753 184.54C28.3459 184.575 28.4165 184.646 28.4518 184.717L30.1116 187.761C30.2881 188.08 30.7119 188.08 30.8884 187.761L32.5482 184.717C32.5835 184.646 32.6541 184.575 32.7247 184.54L35.7616 182.876C36.0795 182.699 36.0795 182.274 35.7616 182.097L32.7247 180.434C32.6541 180.398 32.5835 180.327 32.5482 180.257L30.8884 177.212C30.7119 176.929 30.2528 176.929 30.1116 177.212Z" fill="white"/>
<path d="M19.7828 145.024C25.0829 145.024 29.3794 140.729 29.3794 135.431C29.3794 130.132 25.0829 125.837 19.7828 125.837C14.4828 125.837 10.1863 130.132 10.1863 135.431C10.1863 140.729 14.4828 145.024 19.7828 145.024Z" fill="url(#paint2_linear)"/>
<path d="M666.88 162.174C672.18 162.174 676.476 157.879 676.476 152.581C676.476 147.282 672.18 142.987 666.88 142.987C661.58 142.987 657.283 147.282 657.283 152.581C657.283 157.879 661.58 162.174 666.88 162.174Z" fill="url(#paint3_linear)"/>
<path d="M184.908 66.3486C192.636 66.3486 198.901 60.086 198.901 52.3607C198.901 44.6354 192.636 38.3728 184.908 38.3728C177.18 38.3728 170.915 44.6354 170.915 52.3607C170.915 60.086 177.18 66.3486 184.908 66.3486Z" fill="url(#paint4_linear)"/>
<path d="M205.924 217C206.871 217 207.639 216.232 207.639 215.285C207.639 214.338 206.871 213.57 205.924 213.57C204.976 213.57 204.208 214.338 204.208 215.285C204.208 216.232 204.976 217 205.924 217Z" fill="#F4DAD0"/>
<path d="M293.526 210.622C294.562 210.622 295.402 209.783 295.402 208.747C295.402 207.711 294.562 206.871 293.526 206.871C292.489 206.871 291.649 207.711 291.649 208.747C291.649 209.783 292.489 210.622 293.526 210.622Z" fill="#F4DAD0"/>
<path d="M488.405 4.18039C489.086 4.18039 489.638 3.62851 489.638 2.94774C489.638 2.26696 489.086 1.71509 488.405 1.71509C487.724 1.71509 487.172 2.26696 487.172 2.94774C487.172 3.62851 487.724 4.18039 488.405 4.18039Z" fill="#F4DAD0"/>
<path d="M545.341 85.9105C546.437 85.9105 547.325 85.0227 547.325 83.9275C547.325 82.8324 546.437 81.9446 545.341 81.9446C544.246 81.9446 543.358 82.8324 543.358 83.9275C543.358 85.0227 544.246 85.9105 545.341 85.9105Z" fill="#F4DAD0"/>
<path d="M62.4044 83.1772C63.6776 83.1772 64.7097 82.1454 64.7097 80.8726C64.7097 79.5999 63.6776 78.5681 62.4044 78.5681C61.1312 78.5681 60.0991 79.5999 60.0991 80.8726C60.0991 82.1454 61.1312 83.1772 62.4044 83.1772Z" fill="#F4DAD0"/>
<path d="M128.079 143.844C128.405 143.844 128.669 143.58 128.669 143.255C128.669 142.929 128.405 142.665 128.079 142.665C127.753 142.665 127.489 142.929 127.489 143.255C127.489 143.58 127.753 143.844 128.079 143.844Z" fill="#F4DAD0"/>
<path d="M190.483 84.8385C191.786 84.8385 192.842 83.7828 192.842 82.4804C192.842 81.1781 191.786 80.1223 190.483 80.1223C189.181 80.1223 188.125 81.1781 188.125 82.4804C188.125 83.7828 189.181 84.8385 190.483 84.8385Z" fill="#F4DAD0"/>
<path d="M128.079 140.201C129.115 140.201 129.956 139.361 129.956 138.325C129.956 137.289 129.115 136.449 128.079 136.449C127.043 136.449 126.203 137.289 126.203 138.325C126.203 139.361 127.043 140.201 128.079 140.201Z" fill="#F4DAD0"/>
<path d="M162.605 92.556C163.641 92.556 164.482 91.7162 164.482 90.6802C164.482 89.6443 163.641 88.8044 162.605 88.8044C161.569 88.8044 160.729 89.6443 160.729 90.6802C160.729 91.7162 161.569 92.556 162.605 92.556Z" fill="#F4DAD0"/>
<path d="M111.674 20.7406C112.029 20.7406 112.317 20.4527 112.317 20.0975C112.317 19.7423 112.029 19.4543 111.674 19.4543C111.318 19.4543 111.03 19.7423 111.03 20.0975C111.03 20.4527 111.318 20.7406 111.674 20.7406Z" fill="#F4DAD0"/>
<path d="M589.678 161.906C590.921 161.906 591.929 160.898 591.929 159.655C591.929 158.412 590.921 157.404 589.678 157.404C588.434 157.404 587.426 158.412 587.426 159.655C587.426 160.898 588.434 161.906 589.678 161.906Z" fill="#F4DAD0"/>
<path d="M709.555 190.203C710.088 190.203 710.52 189.771 710.52 189.239C710.52 188.706 710.088 188.274 709.555 188.274C709.022 188.274 708.59 188.706 708.59 189.239C708.59 189.771 709.022 190.203 709.555 190.203Z" fill="#F4DAD0"/>
<path d="M753.892 176.43C754.987 176.43 755.876 175.542 755.876 174.447C755.876 173.352 754.987 172.464 753.892 172.464C752.796 172.464 751.908 173.352 751.908 174.447C751.908 175.542 752.796 176.43 753.892 176.43Z" fill="#F4DAD0"/>
<path d="M195.416 162.817C196.245 162.817 196.917 162.145 196.917 161.317C196.917 160.488 196.245 159.816 195.416 159.816C194.587 159.816 193.915 160.488 193.915 161.317C193.915 162.145 194.587 162.817 195.416 162.817Z" fill="#F4DAD0"/>
<path d="M68.945 144.434C69.5964 144.434 70.1245 143.906 70.1245 143.255C70.1245 142.604 69.5964 142.076 68.945 142.076C68.2936 142.076 67.7656 142.604 67.7656 143.255C67.7656 143.906 68.2936 144.434 68.945 144.434Z" fill="#F4DAD0"/>
<path d="M303.819 79.3184C304.796 79.3184 305.588 78.5266 305.588 77.5498C305.588 76.5731 304.796 75.7812 303.819 75.7812C302.842 75.7812 302.05 76.5731 302.05 77.5498C302.05 78.5266 302.842 79.3184 303.819 79.3184Z" fill="#F4DAD0"/>
<path d="M262.752 101.828C263.463 101.828 264.039 101.252 264.039 100.541C264.039 99.831 263.463 99.2551 262.752 99.2551C262.042 99.2551 261.466 99.831 261.466 100.541C261.466 101.252 262.042 101.828 262.752 101.828Z" fill="#F4DAD0"/>
<path d="M525.611 157.029C526.885 157.029 527.917 155.997 527.917 154.724C527.917 153.452 526.885 152.42 525.611 152.42C524.338 152.42 523.306 153.452 523.306 154.724C523.306 155.997 524.338 157.029 525.611 157.029Z" fill="#F4DAD0"/>
<path d="M231.55 152.795C232.29 152.795 232.89 152.195 232.89 151.455C232.89 150.715 232.29 150.115 231.55 150.115C230.81 150.115 230.21 150.715 230.21 151.455C230.21 152.195 230.81 152.795 231.55 152.795Z" fill="#F4DAD0"/>
<path d="M49.2688 23.9027C49.5649 23.9027 49.805 23.6627 49.805 23.3667C49.805 23.0708 49.5649 22.8308 49.2688 22.8308C48.9728 22.8308 48.7327 23.0708 48.7327 23.3667C48.7327 23.6627 48.9728 23.9027 49.2688 23.9027Z" fill="#F4DAD0"/>
<path d="M19.6756 81.2477C20.8008 81.2477 21.7129 80.3359 21.7129 79.2111C21.7129 78.0864 20.8008 77.1746 19.6756 77.1746C18.5505 77.1746 17.6384 78.0864 17.6384 79.2111C17.6384 80.3359 18.5505 81.2477 19.6756 81.2477Z" fill="#F4DAD0"/>
<path d="M615.358 211.051C631.495 211.051 644.577 197.974 644.577 181.843C644.577 165.711 631.495 152.634 615.358 152.634C599.222 152.634 586.14 165.711 586.14 181.843C586.14 197.974 599.222 211.051 615.358 211.051Z" fill="url(#paint5_linear)"/>
<path d="M646.775 182.593C646.078 182.218 645.328 181.843 644.577 181.468C644.577 181.843 644.577 182.271 644.577 182.647C645.167 182.915 645.703 183.236 646.293 183.504C653.209 187.148 656.961 190.739 656.372 193.044C655.782 195.348 650.742 196.635 642.915 196.474C634.605 196.313 623.99 194.598 612.946 191.758C588.445 185.38 573.219 176.269 574.399 171.767C574.989 169.57 579.385 168.337 586.515 168.337C587.427 168.337 588.445 168.337 589.464 168.391C589.625 168.069 589.678 167.64 589.946 167.372C580.886 166.944 574.292 168.069 573.38 171.499C571.665 177.984 592.037 187.416 612.678 192.829C623.829 195.723 634.552 197.438 642.915 197.599C643.398 197.599 643.88 197.599 644.363 197.599C650.153 197.599 656.533 196.795 657.444 193.365C658.355 189.614 652.19 185.433 646.775 182.593Z" fill="url(#paint6_linear)"/>
<defs>
<linearGradient id="paint0_linear" x1="120.002" y1="-119.96" x2="1049.36" y2="283.321" gradientUnits="userSpaceOnUse">
<stop stop-color="#0C1D48"/>
<stop offset="1" stop-color="#6E158D"/>
</linearGradient>
<linearGradient id="paint1_linear" x1="534.131" y1="124.969" x2="254.914" y2="124.969" gradientUnits="userSpaceOnUse">
<stop stop-color="#C6D0FF"/>
<stop offset="0.3388" stop-color="#DCBAEF"/>
<stop offset="1" stop-color="#FEABCD"/>
</linearGradient>
<linearGradient id="paint2_linear" x1="13.1042" y1="142.239" x2="26.6937" y2="128.648" gradientUnits="userSpaceOnUse">
<stop stop-color="#8BD4FF" stop-opacity="0"/>
<stop offset="0.4856" stop-color="#75EBF0" stop-opacity="0.4856"/>
<stop offset="1" stop-color="#61FFE3"/>
</linearGradient>
<linearGradient id="paint3_linear" x1="660.174" y1="159.389" x2="673.763" y2="145.798" gradientUnits="userSpaceOnUse">
<stop stop-color="#FF7BAC" stop-opacity="0"/>
<stop offset="0.2306" stop-color="#E67EBC" stop-opacity="0.2306"/>
<stop offset="0.7188" stop-color="#A585E5" stop-opacity="0.7188"/>
<stop offset="1" stop-color="#7D8AFF"/>
</linearGradient>
<linearGradient id="paint4_linear" x1="175.142" y1="62.2491" x2="194.891" y2="42.4974" gradientUnits="userSpaceOnUse">
<stop stop-color="#FF7BAC" stop-opacity="0.5"/>
<stop offset="0.2354" stop-color="#E68EBD" stop-opacity="0.6177"/>
<stop offset="0.734" stop-color="#A5BFE7" stop-opacity="0.867"/>
<stop offset="1" stop-color="#80DBFF"/>
</linearGradient>
<linearGradient id="paint5_linear" x1="636.044" y1="202.523" x2="594.737" y2="161.202" gradientUnits="userSpaceOnUse">
<stop stop-color="#7D8AFF"/>
<stop offset="0.2812" stop-color="#A585E5"/>
<stop offset="0.7694" stop-color="#E67EBC"/>
<stop offset="1" stop-color="#FF7BAC"/>
</linearGradient>
<linearGradient id="paint6_linear" x1="615.384" y1="197.563" x2="615.384" y2="167.262" gradientUnits="userSpaceOnUse">
<stop stop-color="#80DBFF"/>
<stop offset="0.266" stop-color="#A5BFE7" stop-opacity="0.734"/>
<stop offset="0.7646" stop-color="#E68EBD" stop-opacity="0.2354"/>
<stop offset="1" stop-color="#FF7BAC" stop-opacity="0"/>
</linearGradient>
</defs>
</svg>
