<?xml version="1.0" encoding="utf-8"?>
<!-- Generator: Adobe Illustrator 23.0.6, SVG Export Plug-In . SVG Version: 6.00 Build 0)  -->
<svg version="1.1" id="ac9d9db3-c976-41a1-a1c2-ce888a7912c8"
	 xmlns="http://www.w3.org/2000/svg" xmlns:xlink="http://www.w3.org/1999/xlink" x="0px" y="0px" viewBox="0 0 860 860"
	 style="enable-background:new 0 0 860 860;" xml:space="preserve">
<style type="text/css">
	.st0{fill:#E6E6E6;}
	.st1{fill:#CBCBCB;}
	.st2{fill:#E5E5E5;}
	.st3{opacity:0.2;enable-background:new    ;}
	.st4{fill:#3F3D56;}
	.st5{fill:#FF6583;}
	.st6{fill:#50BFB0;}
	.st7{fill:#F1F1F1;}
	.st8{fill:#FFB7B7;}
	.st9{fill:#2F2E41;}
</style>
<g>
	<path id="efdf5e1f-6b90-40c1-9274-afa2b16f39be" class="st0" d="M540.4,751.4c0,0-12.8-31.4,25.5-54.9L540.4,751.4z"/>
	<path id="af7fe47f-56e6-4bb6-aa0f-d6efaf86a160" class="st0" d="M524.7,750.8c0,0-3.9-22.4-34-22.2L524.7,750.8z"/>
	<path id="a08d42bc-6ae2-46d7-9736-aba59e52cc48" class="st0" d="M812.3,751.4c0,0-16.8-41.5,33.7-72.6L812.3,751.4z"/>
	<path id="bafd7749-4c33-42a1-9524-e744b9f16454" class="st0" d="M791.6,750.6c0,0-5.1-29.6-44.9-29.3"/>
	<polygon class="st1" points="497.2,286.6 480.6,277.7 481.8,277.1 498.4,285.9 	"/>
	<polygon class="st1" points="482.7,286.6 481.4,285.9 498.1,277.1 499.3,277.7 	"/>
	<rect x="359.9" y="217.4" transform="matrix(0.456 -0.89 0.89 0.456 0.4216 440.7892)" class="st1" width="1.8" height="5.3"/>
	<path class="st1" d="M456.3,270l-9.4-4.8l0.8-1.6l9.4,4.8L456.3,270z M437.6,260.4l-9.4-4.8l0.8-1.6l9.4,4.8L437.6,260.4z
		 M418.9,250.8l-9.4-4.8l0.8-1.6l9.4,4.8L418.9,250.8z M400.2,241.2l-9.4-4.8l0.8-1.6l9.4,4.8L400.2,241.2z M381.5,231.6l-9.4-4.8
		l0.8-1.6l9.4,4.8L381.5,231.6z"/>
	<rect x="467.5" y="272.6" transform="matrix(0.456 -0.89 0.89 0.456 9.8822 566.5546)" class="st1" width="1.8" height="5.3"/>
	<path class="st2" d="M111.6,335.9c0,0.5,0,1.1-0.1,1.6c-0.2,3.1-1,6.2-2.3,9c0,0,0,0,0,0.1c-0.1,0.1-0.1,0.3-0.2,0.4
		c-0.4,0.8-0.8,1.6-1.3,2.3c-4.5,7-12.1,11.3-20.4,11.5l0.2,14.2l3.2-1.7l0.6,1.1l-3.8,2l0.5,26.3l0,0.4l-2.5,0.6l0-0.4l0.8-42.4
		c-6.6-0.1-13-2.9-17.6-7.7c-0.2-0.2-0.3-0.3-0.5-0.5l0,0c-1.9-2.1-3.4-4.4-4.5-7c0,0,0.1,0.1,0.1,0.1c-5.2-12.2,0-26.2,11.8-32.1
		c0.1,0,0.2-0.1,0.3-0.1c11.7-5.6,25.7-1.4,32.3,9.8c0.2,0.3,0.3,0.5,0.4,0.8C110.5,327.7,111.6,331.8,111.6,335.9z"/>
	<circle class="st2" cx="108.2" cy="314" r="32.7"/>
	<path class="st3" d="M84.1,292.1c-7.1,16.6,0.6,35.8,17.2,42.9c12.9,5.5,27.9,2.2,37.2-8.3c-7.1,16.6-26.3,24.3-42.9,17.2
		C79,336.8,71.3,317.6,78.4,301C79.8,297.8,81.7,294.8,84.1,292.1z"/>
	<polygon class="st4" points="110,405 106.6,404 106.6,403.7 107.6,349.3 107.7,346.6 107.7,346.6 107.9,337.1 108.1,323.3 
		108.1,323.3 108.3,314 108.4,314 108.6,324.1 108.8,337.2 109,346.6 109,346.6 109,347 109,347 109.3,365.2 109.3,367 110,404.6 	
		"/>
	
		<rect x="108.1" y="364.3" transform="matrix(0.8849 -0.4659 0.4659 0.8849 -157.2985 93.8279)" class="st4" width="6.1" height="1.6"/>
	<path d="M531.8,208.2c-41.2-2.4-82.6-1.8-123.8,1.9c-19.8,1.8-40,3.7-59.4,8.1c-15.7,3.5-33.9,9.4-43.6,23.1
		c-4.1,5.6-5.4,12.8-3.5,19.5c2.3,7.8,8.1,14.3,14.3,19.4c14.2,11.7,31.8,18.6,47.6,27.9c28.7,17,55,40,71.9,69.1
		c7.4,12.8,14.5,29.9,6.2,44c-8.1,13.8-26.2,18.6-40.9,20.9c-18.5,2.8-37.5,2.1-56.1,0.5c-20.4-1.9-40.6-4.9-60.7-8.9
		c-39.3-7.5-78.2-17.1-118-21.5c-20-2.3-40.1-2.9-60.2-1.7c-18.1,1.2-36.4,4.1-53.4,10.6c-13.1,5-27.1,12.7-34.2,25.4
		c-6.8,12.2-4.2,26.4,3.3,37.7c9,13.6,22.9,22.9,37.4,29.7c16.5,7.8,34.2,12.8,51.9,17.1c9,2.2,18,4.1,27,6.1
		c1.9,0.4,2.7-2.5,0.8-2.9c-18.2-3.9-36.4-7.9-54.2-13.6c-16.4-5.3-33.2-12-46.7-23.1c-10.9-8.9-21.2-22-20.6-36.9
		c0.6-15,13.2-25.4,25.5-31.9c15.4-8,32.9-12,50-14c19.6-2.2,39.4-2.5,59.1-0.8c39.7,3,78.6,12.1,117.5,20
		c37.8,7.7,76.9,14.8,115.6,12.8c15.4-0.8,31.8-3,45.4-10.7c6.2-3.6,11.8-8.6,15-15.1c2.8-6.2,3.7-13.1,2.6-19.8
		c-2.2-14.8-11-28.5-19.7-40.2c-9.6-12.8-20.7-24.3-33.1-34.3c-13.6-11-28.3-20.5-43.8-28.6c-8.2-4.3-16.6-8.5-24.4-13.5
		c-7.5-4.8-15-10.6-19.6-18.4c-4-6.8-4.7-14.5-0.6-21.3c4.2-6.9,11.4-11.8,18.5-15.3c17.1-8.5,37.1-10.8,55.8-13.1
		c40.3-5,80.9-7,121.5-6.1c9.9,0.2,19.7,0.6,29.6,1.2C533.7,211.3,533.7,208.3,531.8,208.2L531.8,208.2z"/>
	<path class="st4" d="M505.6,112.1l6.2-5c-4.8-0.5-6.8,2.1-7.6,4.2c-3.8-1.6-7.9,0.5-7.9,0.5l12.5,4.5
		C508.1,114.6,507,113.1,505.6,112.1z"/>
	<path class="st4" d="M475.4,127.8l6.2-5c-4.8-0.5-6.8,2.1-7.6,4.2c-3.8-1.6-7.9,0.5-7.9,0.5l12.5,4.5
		C477.9,130.4,476.8,128.9,475.4,127.8z"/>
	<path class="st4" d="M505.6,152.8l6.2-5c-4.8-0.5-6.8,2.1-7.6,4.2c-3.8-1.6-7.9,0.5-7.9,0.5l12.5,4.5
		C508.1,155.3,507,153.9,505.6,152.8z"/>
	<g id="e2dfab6d-8627-4cc0-b13e-69de57259a01">
		<circle id="bedd3b2f-f695-46eb-9812-80ad4d1341b6" class="st5" cx="412.2" cy="141.4" r="18.8"/>
		<path id="efdddea5-7f44-48b8-bec9-83339a7f085f" class="st6" d="M471.1,199.2H379c-0.1,0-0.2,0-0.3,0l43.5-75.4
			c0.8-1.5,2.7-2,4.2-1.2c0.5,0.3,0.9,0.7,1.2,1.2l29.2,50.6l1.4,2.4L471.1,199.2z"/>
		<path id="f8d22fd6-a75d-4da9-80c1-fba8d7f50740" class="st6" d="M522.3,199.2h-79.6l15.4-22.4l1.1-1.6l20.1-29.2
			c1.4-1.8,4-2,5.7-0.7c0.1,0.1,0.2,0.2,0.3,0.3c0.1,0.1,0.2,0.2,0.3,0.4L522.3,199.2z"/>
	</g>
	<path class="st7" d="M391,372.2c8.7,4.4,14,10.1,14,16.4c0,13.6-24.6,24.6-55,24.6c-13.2,0-25.3-2.1-34.8-5.6
		c10.1,5,24.7,8.2,41,8.2c30.4,0,55-11,55-24.6C411.2,383.6,403.3,376.8,391,372.2z"/>
	<path class="st7" d="M410.4,381.6c9.8,4.9,15.8,11.4,15.8,18.6c0,15.4-27.8,27.8-62.1,27.8c-14.9,0-28.6-2.4-39.3-6.3
		c11.4,5.7,27.9,9.3,46.2,9.3c34.3,0,62.1-12.5,62.1-27.8C433.2,394.4,424.3,386.7,410.4,381.6z"/>
	<path class="st7" d="M383.5,376.4c6.1,3.1,9.9,7.1,9.9,11.6c0,9.6-17.4,17.4-38.8,17.4c-8.3,0.1-16.6-1.2-24.5-3.9
		c7.1,3.5,17.4,5.8,28.9,5.8c21.4,0,38.8-7.8,38.8-17.4C397.8,384.4,392.2,379.5,383.5,376.4z"/>
	<path class="st4" d="M297.1,374.6c0,0,1.4,19.7,40.1,19.7s50.3-19.7,50.3-19.7H297.1z"/>
	<path class="st4" d="M352.1,322.8c-5.6-4.2-12.6-6.2-19.6-5.4c14.6,3.5,23.7,18.3,20.1,32.9c-2.7,11.1-12,19.4-23.4,20.7
		c14.6,3.5,29.4-5.5,32.9-20.1C364.7,340.4,360.8,329.3,352.1,322.8L352.1,322.8z"/>
	<rect x="336.8" y="313.9" class="st4" width="2.6" height="62.9"/>
	<path class="st1" d="M513,267.2L513,267.2l0-1.6l8.3-12l-8.3,10.9l0,0.3l-0.3-12.3l7.1-12.5l-7.2,10.3l0.1-25.4l0-0.1l0,0.1
		l-0.5,20l-6.5-8.1l6.5,9.9l-0.1,11l-6-10.7l6,12.3l-0.1,6.1l-0.2,16.9l0,1.3c0.6,0,1.1,0,1.6,0l-0.4-16.2L513,267.2z"/>
	<path class="st1" d="M473.4,272.4L473.4,272.4l0-1.6l8.3-12l-8.3,10.9l0,0.3l-0.3-12.3l7.1-12.5l-7.2,10.3l0.1-25.4l0-0.1l0,0.1
		l-0.5,20l-6.5-8.1l6.5,9.9l-0.1,11l-6-10.7l6,12.3l-0.1,6.1l-0.2,16.9l0,1.3c0.6,0,1.1,0,1.6,0l-0.4-16.2L473.4,272.4z"/>
	<path class="st1" d="M492.7,255.7L492.7,255.7l0-1.6l8.3-12l-8.3,10.9l0,0.3l-0.3-12.3l7.1-12.5l-7.2,10.3l0.1-25.4l0-0.1l0,0.1
		l-0.5,20l-6.5-8.1l6.5,9.9l-0.1,11l-6-10.7l6,12.3l-0.1,6.1l-0.2,16.9l0,1.3c0.6,0,1.1,0,1.6,0l-0.4-16.2L492.7,255.7z"/>
	<circle class="st6" cx="165.6" cy="537.4" r="10.6"/>
	<polygon class="st8" points="729.4,732.4 719.6,736.1 700.9,700.1 715.4,694.7 	"/>
	<path class="st9" d="M735.4,741l-31.5,11.7l-0.1-0.4c-2.5-6.8,0.9-14.3,7.7-16.8l0,0l19.3-7.2L735.4,741z"/>
	<polygon class="st8" points="633.1,742.6 622.7,742.6 617.8,702.3 633.1,702.3 	"/>
	<path class="st9" d="M635,752.7l-33.6,0v-0.4c0-7.2,5.9-13.1,13.1-13.1h0l20.5,0L635,752.7z"/>
	<path class="st9" d="M680.9,463.5l-3.4-6.8l-28.9,14.5l0.9,6l-5.5,7.2c0,0-9.4,5.1-7.7,22.1l1.7,16.2l2.1,20.8L625.2,595l-7.7,68.1
		l-5.5,54.9l26.8-1.3l24.7-89.3l43.4,96.2l29.8-7.7l-40.8-95.3l-5.1-40c0,0,3.4-21.3-12.8-35.7l2.6-7.7v-9.4l8.5-45L680.9,463.5z"/>
	
		<rect x="638.3" y="593.6" transform="matrix(0.2715 -0.9624 0.9624 0.2715 -81.6312 1080.4017)" class="st3" width="69" height="1"/>
	<rect x="638.4" y="543.5" class="st4" width="41.7" height="4.3"/>
	<ellipse class="st4" cx="638.4" cy="546" rx="1.7" ry="4.3"/>
	<circle class="st8" cx="657.2" cy="432.6" r="22.7"/>
	<circle class="st9" cx="691.9" cy="404.4" r="20.1"/>
	<path class="st9" d="M717.3,402.3c3.2,10.6-2.9,21.8-13.5,25c-10.6,3.2-21.8-2.9-25-13.5c-0.3-1.1-0.5-2.1-0.7-3.2
		c3.2,10.6,14.3,16.7,25,13.5C712.6,421.2,718.6,412,717.3,402.3z"/>
	<path class="st9" d="M638.1,426.3c-1.5,13,7.9,24.8,20.9,26.2c13,1.5,24.8-7.9,26.2-20.9c1.5-13-7.9-24.8-20.9-26.2
		c-4.1-0.5-8.3,0.2-12.1,1.8c-4-3.2-8.9-2.2-12.9,1.2c-4.5,3.8-5.9,6.4-9.4,12.7C633.4,421.6,634.6,425.8,638.1,426.3z"/>
	<path class="st6" d="M721.4,494.5c-0.3,6.7-0.8,20-0.8,20.6c0,0.7-10,21.5-14.4,30.4v0c-0.3,0.6-0.6,1.2-0.8,1.7
		c-0.7,1.4-2.1,2.3-3.7,2.3l-18.9-0.3c-2.2,0-3.9-1.8-4-3.9l-2.1-83.3c0-1.1,0.9-2.1,2-2.1c0,0,0,0,0.1,0h24.4c2.1,0,4,1.2,4.9,3.1
		l11.7,24.2C721,489.5,721.5,492,721.4,494.5L721.4,494.5z"/>
	<path class="st6" d="M678.6,539.6c-4.9-2.9-9.2-6.6-12.9-10.9c-8.6-9.7-13.9-21.9-15-34.9c-1-11.1,1.2-19.3,6.5-24.5
		c6.7-6.6,15.9-5.6,16.3-5.6l0.4,0l6.2,5.3l-1.8,2.1l-5.6-4.7c-1.7-0.1-8.6-0.1-13.7,4.9c-4.7,4.6-6.6,12.1-5.7,22.3
		c1,12.3,6,24,14.2,33.2c3.5,4.1,7.7,7.6,12.3,10.4L678.6,539.6z"/>
	
		<rect x="680.5" y="511.3" transform="matrix(0.9796 -0.2012 0.2012 0.9796 -88.6959 150.7575)" class="st4" width="33.8" height="0.9"/>
	
		<rect x="692.2" y="459.8" transform="matrix(0.9992 -4.078488e-02 4.078488e-02 0.9992 -19.252 28.6524)" class="st4" width="0.9" height="52.7"/>
	<path class="st4" d="M721.4,494.5c-0.3,6.7-0.8,20-0.8,20.6c0,0.7-10,21.5-14.4,30.4l8.1-46.9c0.6-3.7,3.2-6.7,6.7-8
		C721.4,491.9,721.5,493.2,721.4,494.5z"/>
	<path class="st8" d="M671.8,592.8c2.7-3.5,2.1-8.5-1.4-11.2c-0.4-0.3-0.8-0.5-1.2-0.8l1.6-18.2l-10.8-3.7l-2,25.7
		c-1.8,4.1,0,8.8,4.1,10.6C665.6,596.8,669.6,595.7,671.8,592.8L671.8,592.8z"/>
	<path class="st1" d="M673.2,575.2l-19.1-0.7l0.8-92.2c0-5.4,3.4-10.1,8.4-11.8c2.3-0.8,4.8-0.8,7.1,0c5.4,1.8,8.9,7.1,8.4,12.7
		L673.2,575.2z"/>
	<path class="st1" d="M841,753H460c-0.6,0-1-0.4-1-1s0.4-1,1-1h381c0.6,0,1,0.4,1,1S841.5,753,841,753z"/>
</g>
</svg>
