<?xml version="1.0" encoding="utf-8"?>
<!-- Generator: Adobe Illustrator 23.0.6, SVG Export Plug-In . SVG Version: 6.00 Build 0)  -->
<svg version="1.1" id="ef672dd0-2e16-4c9d-8107-606b55e40777"
	 xmlns="http://www.w3.org/2000/svg" xmlns:xlink="http://www.w3.org/1999/xlink" x="0px" y="0px" viewBox="0 0 1035.4 767.6"
	 style="enable-background:new 0 0 1035.4 767.6;" xml:space="preserve">
<style type="text/css">
	.st0{opacity:5.000000e-02;fill:#55D0BC;enable-background:new    ;}
	.st1{fill:#50BFB0;}
	.st2{fill:#F2F2F2;}
	.st3{fill:#C7CBD5;}
	.st4{fill:#2F2E41;}
	.st5{fill:#A0616A;}
	.st6{fill:#E6E6E6;}
	.st7{fill:#3F3D56;}
	.st8{fill:#FFB8B8;}
	.st9{fill:#CCCCCC;}
</style>
<path class="st0" d="M194.3,61.3c-6,1.8-12.3,4.2-16,9.4c-4,5.4-4.4,12.7-4.6,19.4c-1,58.7,6.3,122.1-24.3,172
	c-14.8,24.2-37.2,42.4-55.8,63.8c-18.5,21.4-33.8,49-29.5,77.1c5.3,34.4,37,56.6,56.9,84.8c13,18.5,21.2,40,33.1,59.2
	c11.9,19.2,29.2,36.9,51.3,40.4c31.8,5,60.8-20.1,92.9-23.1c32.8-3.1,63.2,17.5,86.9,40.8c23.7,23.2,44.6,50.5,73.5,66.6
	c31.9,17.8,69.8,19.9,104.1,32.2c31.2,11.3,58.9,30.8,89.7,43.2c30.8,12.3,68.2,15.9,95.3-3.5c35.4-25.5,38.7-77.5,63.5-113.7
	c23.1-33.6,62.8-50.8,91.4-79.6c51.6-51.8,59.9-138.9,28.4-205.1c-31.5-66.2-96.8-111.5-166.8-129.2c-31.6-8-64.7-11.1-94.3-24.5
	C590.6,155.3,552.2,54,470.2,24.7C418.1,6.1,363.6,22.2,315,44C272.8,62.9,237.4,48.4,194.3,61.3z"/>
<circle class="st1" cx="528.3" cy="688" r="56.4"/>
<circle class="st2" cx="638.7" cy="170.2" r="29.4"/>
<circle class="st2" cx="503.8" cy="494.1" r="29.4"/>
<circle class="st2" cx="714.8" cy="555.4" r="29.4"/>
<g>
	<path class="st3" d="M865.5,741.2c31.6-9.5,65.1-19.4,90.2-41.9c22.4-20.1,37.5-50.9,28.2-81.1c-9.3-30.1-37-50.3-65.6-60.3
		c-16.2-5.7-33.2-8.8-50.2-11.3c-18.4-2.7-37-4.9-55.5-7c-75-8.6-150.3-13.8-225.8-15.7c-37.3-0.9-74.6-0.9-111.8-0.4
		c-33.3,0.5-68.4,0.5-99.3-13.7c-24-11-45.8-31-52.5-57.3c-7.7-30.4,6.5-61.3,27-83.3c10.8-11.6,23.4-21.4,36.4-30.3
		c14.1-9.7,28.7-18.8,43.6-27.2c29.4-16.6,60-30.8,91.7-42.3c15.6-5.7,31.5-10.6,47.5-15.1c13.5-3.8,27.1-7.6,40.1-12.9
		c25.3-10.1,49.3-27.1,55.7-55.1c6.1-26.5-4.2-55.3-22.2-74.9c-20.8-22.8-52.2-32.8-82.3-34.4c-33.8-1.8-66.8,6.6-98.5,17.4
		c-33.9,11.4-67,24.6-101.6,33.9c-34.3,9.2-69.2,15.7-104.5,19.4c-17.3,1.8-35.1,3.9-52.5,2.5c-14.6-1.2-29.1-5.5-39.8-15.8
		c-9.2-8.9-14.7-21-12.8-33.9c0.3-2.3,3.9-1.3,3.5,1c-2.3,15.7,8.3,30.1,21.5,37.5c15.2,8.5,33.6,8.5,50.5,7.6
		c36.6-2.2,72.9-7.5,108.6-15.7c35.1-8,68.9-19.5,102.7-31.7c32.1-11.6,64.9-23,99.2-25.5c29.7-2.2,61,2.1,87,17.7
		c22.8,13.7,39.5,36.5,44.9,62.6c5.2,25.6-2,51.3-21.3,69.1c-20,18.5-47.5,26.4-73.1,33.6c-32.5,9.2-64.2,20-95,34
		c-31.2,14.1-61,30.9-89.3,50.2c-27.3,18.7-54.2,42.1-62.9,75.4c-4,15.5-3.3,31.9,3.4,46.6c6,13,15.8,24,27.3,32.4
		c27.4,20.2,61.9,24.3,95,24.7c37.2,0.5,74.3-0.8,111.5-0.2c75.7,1.2,151.3,5.9,226.8,13.8c18.9,2,37.8,4.2,56.6,6.6
		c17,2.2,34,4.3,50.6,8.2c29.6,6.9,58.5,20.1,76.9,45.2c8.2,10.9,13.2,23.8,14.7,37.4c1.3,14.1-2.2,28.3-8.6,40.9
		c-14.2,27.8-40.7,45.5-68.8,57.2c-15.1,6.2-30.7,11-46.3,15.6C864.2,745.5,863.2,741.9,865.5,741.2L865.5,741.2z"/>
	<circle class="st3" cx="153.5" cy="100.8" r="29.4"/>
	<circle class="st3" cx="357.8" cy="156.7" r="29.4"/>
	<circle class="st3" cx="530.8" cy="45" r="29.4"/>
	<circle class="st3" cx="492.7" cy="315" r="29.4"/>
	
		<ellipse transform="matrix(0.1602 -0.9871 0.9871 0.1602 -121.7209 626.7274)" class="st3" cx="307.5" cy="384.9" rx="29.4" ry="29.4"/>
	<circle class="st3" cx="961.4" cy="542" r="29.4"/>
</g>
<path class="st1" d="M522.3,99c-88.2,0.6-160.4,72.3-161.7,160.5c0,0.8,0,6.5,0,14c0,22.9,18.5,41.4,41.4,41.4h0
	c22.9,0,41.4-18.6,41.4-41.4c0,0,0,0,0,0c0-5.1,0-8.6,0-8.8c0-43.4,35.1-78.5,78.5-78.5c43.4,0,78.5,35.1,78.5,78.5
	c0,26.8-13.6,51.7-36.2,66.1l0,0c0,0-58.9,37.9-76.9,90l0,0c-3.2,10.7-4.8,21.7-4.8,32.8c0,4.6,0.3,44.6,0.8,77
	c0.4,23.3,19.4,42,42.7,42h0c23.6,0,42.7-19.1,42.7-42.7c0-0.1,0-0.2,0-0.3c-0.2-29.7-0.3-64.3-0.3-66.9c0-32,30.8-63.8,56.2-84.6
	c29.2-23.9,50.1-56.5,58.6-93.2c1.9-7.6,2.9-15.3,3.1-23.1c0-90-72.9-162.9-162.9-162.9C523.1,99,522.7,99,522.3,99z"/>
<path class="st3" d="M1019.6,745.9H14.8c-0.8,0-1.4-0.6-1.4-1.4c0-0.8,0.6-1.4,1.4-1.4h1004.8c0.8,0,1.4,0.6,1.4,1.4
	C1021,745.3,1020.4,745.9,1019.6,745.9z"/>
<circle class="st4" cx="770.1" cy="313.7" r="36.8"/>
<polygon class="st5" points="702.1,729.8 687,729.8 679.9,671.8 702.1,671.8 "/>
<path class="st4" d="M676.3,725.5h29l0,0v18.3l0,0H658l0,0l0,0C658,733.7,666.2,725.5,676.3,725.5z"/>
<polygon class="st5" points="818.6,729.8 803.6,729.8 796.4,671.8 818.6,671.8 "/>
<path class="st4" d="M792.9,725.5h29l0,0v18.3l0,0h-47.3l0,0l0,0C774.6,733.7,782.8,725.5,792.9,725.5z"/>
<circle class="st5" cx="764.5" cy="320.6" r="30.1"/>
<path class="st4" d="M782.5,448l13.5-31c6.7-14.9,3.3-32.4-8.5-43.7c-1.2-1.2-2.4-2.3-3.8-3.3c-6.7-5.2-14.9-8-23.3-8.1
	c-5.7,0-11.3,1.3-16.4,3.7c-0.4,0.2-0.9,0.4-1.3,0.6c-0.8,0.4-1.7,0.8-2.5,1.3c-10.7,6.2-17.9,17-19.3,29.3l-6,49.9
	c-1.5,3.9-54.9,145.3-36.2,253.2c0.4,2.4,2.3,4.2,4.7,4.5l18.9,2.6c2.9,0.4,5.6-1.5,6.1-4.3l31.8-151.4c0.5-2.3,2.8-3.8,5.1-3.3
	c1.6,0.3,2.8,1.5,3.3,3l44.9,159.2c0.7,2.4,2.8,4,5.3,4c0.4,0,0.7,0,1.1-0.1l23.1-4.5c2.8-0.5,4.7-3.1,4.5-5.9
	C824,665.8,805.9,476,782.5,448z"/>
<path class="st5" d="M647.4,345.7c-0.8,6.8,4.1,12.9,10.8,13.7c0.7,0.1,1.4,0.1,2.2,0.1l16.8,40.5L690,381l-18-35.5
	c-0.9-6.8-7.1-11.6-13.9-10.7C652.5,335.5,648,340,647.4,345.7L647.4,345.7z"/>
<path class="st5" d="M762.8,488.7c6.8-0.8,11.6-6.9,10.8-13.7c-0.1-0.7-0.2-1.4-0.4-2.1l35.4-25.8l-21.3-8l-30.4,25.7
	c-6.4,2.4-9.6,9.6-7.2,16C751.7,486.2,757.1,489.4,762.8,488.7L762.8,488.7z"/>
<path class="st4" d="M705.1,426.9c-1.4,0-2.7-0.1-4-0.4c-6.5-1.2-12-5.7-14.7-11.8l-23.6-28.8c-1.9-2.4-1.6-5.8,0.8-7.8
	c0.2-0.2,0.4-0.3,0.6-0.4l16.8-10.4c2.6-1.6,6-0.8,7.6,1.8c0,0,0,0,0,0l16.6,27.4L737,373c5.8-3.1,13-0.8,16.1,5
	c2.4,4.7,1.5,10.4-2.2,14.1l-31.8,29C715.4,424.8,710.3,426.9,705.1,426.9z"/>
<path class="st4" d="M791.1,470.2c0,0-0.1,0-0.1,0c-1.6,0-3-0.7-4.1-1.9L772,450.8c-2-2.3-1.7-5.8,0.6-7.8c0.2-0.1,0.3-0.3,0.5-0.4
	l28-18.6l-25.3-30.4c-3.4-5.6-1.6-13,4.1-16.4c4.5-2.7,10.3-2.1,14.2,1.4l30.8,30.1c8.3,7.6,8.8,20.4,1.3,28.6
	c-1.7,1.8-3.6,3.3-5.8,4.4l-25.2,26.7C794.1,469.6,792.6,470.2,791.1,470.2z"/>
<path class="st6" d="M756.8,406c-0.2,0-0.5,0-0.7,0c-2.1-0.3-3.9-1.7-4.6-3.8l-11.2-34.4c-0.6-1.8,0.3-3.7,2-4.6l0.4-0.2
	c0.3-0.2,0.7-0.3,1-0.5c5.2-2.4,10.9-3.7,16.7-3.7c7.5,0,14.8,2.2,21.1,6.3c1.7,1.2,2.2,3.5,1.1,5.3l-21,33
	C760.5,405.1,758.7,406,756.8,406z"/>
<circle class="st4" cx="799.1" cy="285.2" r="12"/>
<path class="st4" d="M757.8,272L757.8,272c-17.6,0-31.9,14.3-31.9,31.9v13.5h16.6l7.9-13.5l2.4,13.5h50.4l-13.5-13.5
	C789.7,286.3,775.4,272,757.8,272z"/>
<path class="st4" d="M805.3,277c2.7-8.6,11.3-14,20.2-12.8c7.7,1.3,13.7,7.5,17.4,14.3s5.3,14.6,7.7,22c2.4,7.4,5.9,14.8,12,19.6
	c6.1,4.8,15.6,6.1,21.6,1.2c-1.8,13.5-14.2,23-27.7,21.2c-7.7-1-14.4-5.6-18.2-12.4c-3.2-5.7-4-12.3-4.9-18.7
	c-0.9-6.4-2.2-13.1-6-18.3s-10.9-8.7-16.9-6.3L805.3,277z"/>
<path class="st7" d="M413.7,295.4L413.7,295.4c-22.9,0-41.4-18.5-41.4-41.4c0-7.5,0-13.2,0-14c0.3-25.7,6.8-50.9,18.8-73.5
	c-19.8,27.1-30.6,59.6-31.1,93.1c0,0.8,0,6.5,0,14c0,22.9,18.5,41.4,41.4,41.4l0,0c18.5,0,34.8-12.3,39.9-30.2
	C433.7,291.6,423.8,295.4,413.7,295.4z"/>
<path class="st7" d="M525.1,186.3c43.3,2.1,76.8,38.9,74.7,82.2c-0.5,9.5-2.6,18.8-6.4,27.5c28.1-33,24.1-82.6-8.9-110.7
	c-33-28.1-82.6-24.1-110.7,8.9c-5,5.9-9.1,12.5-12.2,19.6C477.3,195.2,500.8,185.1,525.1,186.3z"/>
<path class="st7" d="M537.8,553L537.8,553c-23.3,0-42.3-18.7-42.7-42c-0.5-32.5-0.8-72.5-0.8-77c0-11.1,1.6-22.2,4.8-32.8l0,0
	c1.9-5.4,4.1-10.6,6.7-15.6c-8.1,10.7-14.5,22.6-19,35.2l0,0c-3.2,10.7-4.8,21.7-4.8,32.8c0,4.6,0.3,44.6,0.8,77
	c0.4,23.3,19.4,42,42.7,42l0,0c19,0,35.7-12.5,41-30.7C558.7,549.1,548.4,553.1,537.8,553z"/>
<polygon class="st8" points="154.3,730.4 169.3,730.4 176.5,672.4 154.3,672.4 "/>
<path class="st4" d="M198.3,744.4l-47.3,0l0,0l0-18.3l0,0l29,0C190.1,726.1,198.3,734.3,198.3,744.4L198.3,744.4L198.3,744.4z"/>
<polygon class="st8" points="100.3,730.4 115.3,730.4 122.5,672.4 100.3,672.4 "/>
<path class="st4" d="M144.3,744.4l-47.3,0l0,0l0-18.3l0,0l29,0C136.1,726.1,144.3,734.3,144.3,744.4L144.3,744.4L144.3,744.4z"/>
<path class="st4" d="M113.4,712.6l-14.7-0.8c-3.2-0.2-5.6-2.9-5.4-6c0,0,0,0,0-0.1l17.6-194.4l80.9,21.8l7.8-2.1l-24.4,172.1
	c-0.4,2.7-2.7,4.7-5.3,4.8l-15.8,0.7c-3.2,0.2-5.9-2.2-6-5.4c0-0.2,0-0.3,0-0.5l2.9-103.3c0-1.1-0.8-1.9-1.9-2
	c-0.9,0-1.7,0.6-1.9,1.5l-27.7,109c-0.5,2.7-2.9,4.6-5.6,4.6C113.6,712.6,113.5,712.6,113.4,712.6z"/>
<circle class="st8" cx="157" cy="322" r="30.1"/>
<path class="st9" d="M106.8,410.6l3.3,71.5l1.2,26c0.1,2.3,1.6,4.3,3.8,5.1l77.7,28.2c0.6,0.2,1.3,0.3,2,0.3c3.1,0,5.7-2.5,5.7-5.7
	c0-0.1,0-0.1,0-0.2l-3.2-128.5c-0.4-21.8-16.3-40.1-37.7-43.8c-0.8-0.1-1.5-0.2-2.3-0.3c-13.1-1.6-26.2,2.6-35.8,11.6
	C111.5,383.9,106.1,397,106.8,410.6L106.8,410.6z"/>
<path class="st8" d="M229.9,527.1c-6.5-2-10.2-8.9-8.1-15.5c0.4-1.1,0.9-2.2,1.5-3.2l-26.4-35l22.7-1.4l21.5,33.5
	c5.4,4.2,6.4,12,2.2,17.4C240.3,527,234.9,528.6,229.9,527.1z"/>
<path class="st9" d="M211.4,502.1c-1.4-0.6-2.5-1.7-3.1-3.1l-39.7-94.6c-3.3-7.8,0.4-16.8,8.2-20c7.8-3.3,16.8,0.4,20,8.2
	c0,0,0,0,0,0l39.7,94.6c1.2,2.9-0.2,6.3-3.1,7.5l-17.6,7.4C214.4,502.6,212.8,502.6,211.4,502.1L211.4,502.1z"/>
<path class="st7" d="M147.3,498.7l38.1-73c1.5-2.9,5.1-4.1,8.1-2.5l55.4,28.9c2.9,1.5,4.1,5.1,2.5,8.1l-38.1,73
	c-1.5,2.9-5.1,4.1-8.1,2.5l-55.4-28.9C146.9,505.3,145.7,501.6,147.3,498.7z"/>
<path class="st8" d="M172.8,465.4c-2.4-6.4-9.5-9.6-15.9-7.2c-1.1,0.4-2.2,1-3.1,1.7l-36.5-24.2l-0.1,22.8l34.7,19.5
	c4.5,5.2,12.3,5.7,17.5,1.2C173.3,475.7,174.7,470.2,172.8,465.4L172.8,465.4z"/>
<path class="st9" d="M126.7,470.5l-29.9-23.7c-11-3.7-17-15.6-13.3-26.7c0.8-2.4,2.1-4.7,3.7-6.6l27.1-35.5
	c4.3-5.3,12.1-6.1,17.4-1.7c4.2,3.5,5.7,9.3,3.6,14.4l-21.5,35.1l31.5,15c2.9,1.4,4.1,4.8,2.7,7.6c-0.1,0.2-0.2,0.4-0.3,0.6
	L135.1,469c-0.9,1.4-2.3,2.3-3.9,2.6c0,0-0.1,0-0.1,0C129.5,471.9,127.9,471.5,126.7,470.5z"/>
<path class="st4" d="M134.2,342.2c-0.5-1.4,0.3-2.9,1.6-3.3c0.2-0.1,0.4-0.1,0.6-0.1c1.6,0.1,3.2,0.8,4.3,2.1
	c1.1,1.3,2.4,2.3,3.8,3.2c1.5,0.7,3.4,0.6,4.3-0.8c0.8-1.3,0.2-3.1-0.2-4.6c-1.2-3.9-1.9-7.9-2-12c-0.1-4.5,0.5-9.3,3-12.8
	c3.2-4.6,9-6.3,14.5-6.2c5.5,0.1,10.9,1.8,16.3,2.9c1.9,0.4,4.1,0.6,5.3-0.9c1.3-1.5,0.8-4.1,0.3-6.1c-1.5-5.4-3-11-6.5-15.4
	c-3.7-4.5-9-7.5-14.8-8.3c-5.6-0.7-11.2,0-16.5,1.9c-8.6,2.7-16.2,8-21.7,15.1c-5.7,7.6-8.2,17.1-6.8,26.5
	c1.3,8.2,5.6,15.6,12.1,20.7L134.2,342.2z"/>
<path class="st7" d="M515.9,730.6c-28.6-12.4-41.7-45.7-29.2-74.3c2.1-4.8,4.9-9.4,8.3-13.4c-25.2,18.4-30.7,53.7-12.3,78.9
	c18.4,25.2,53.7,30.7,78.9,12.3c3.8-2.8,7.2-6,10.2-9.6C555.5,736.3,534.3,738.7,515.9,730.6z"/>
</svg>
