<?xml version="1.0" encoding="utf-8"?>
<!-- Generator: Adobe Illustrator 23.0.6, SVG Export Plug-In . SVG Version: 6.00 Build 0)  -->
<svg version="1.1" id="b1ff9bb2-7f4f-4418-907c-98d09956747d"
	 xmlns="http://www.w3.org/2000/svg" xmlns:xlink="http://www.w3.org/1999/xlink" x="0px" y="0px" viewBox="0 0 852.9 615.8"
	 style="enable-background:new 0 0 852.9 615.8;" xml:space="preserve">
<style type="text/css">
	.st0{fill:#FFFFFF;}
	.st1{fill:#F2F2F2;}
	.st2{fill:#3F3D56;}
	.st3{fill:#50BFB0;}
	.st4{fill:#A0616A;}
	.st5{fill:#2F2E41;}
</style>
<title>circles</title>
<path class="st0" d="M769.7,216.6h-0.9c-20.3,0-36.7-16.4-36.7-36.7v-12.5H622.9v-1.8h111v14.3c0,18.9,15.1,34.4,34,34.9v-49.2h26
	c7.4,0,13.4-6,13.4-13.4v-137c0-7.4-6-13.4-13.4-13.4H451.9c-7.4,0-13.4,6-13.4,13.4v99.4h-1.8V15.2c0-8.4,6.8-15.2,15.2-15.2h341.9
	c8.4,0,15.2,6.8,15.2,15.2v137c0,8.4-6.8,15.2-15.2,15.2h-24.2V216.6z"/>
<path class="st0" d="M737.5,45.2c-0.2-6-5.2-10.7-11.2-10.8H519.5c-6.2,0-11.2,5-11.2,11.2s5,11.2,11.2,11.2h206.8
	c6.2,0,11.2-5,11.2-11.2C737.5,45.5,737.5,45.4,737.5,45.2z"/>
<path class="st0" d="M737.5,82.8c-0.2-6-5.2-10.7-11.2-10.8H519.5c-6.2,0-11.2,5-11.2,11.2c0,6.2,5,11.2,11.2,11.2h206.8
	c6.2,0,11.2-5,11.2-11.2C737.5,83.1,737.5,83,737.5,82.8z"/>
<path class="st0" d="M737.5,120.4c-0.2-6-5.2-10.7-11.2-10.8H519.5c-3.3,0-6.5,1.5-8.6,4c-0.5,0.6-0.9,1.2-1.2,1.8h98.9
	c7.4,0,13.4,6,13.4,13.4v3.1h104.3c6.2,0,11.2-5,11.2-11.2C737.5,120.7,737.5,120.5,737.5,120.4z"/>
<path class="st1" d="M21.9,612.9c0.5,0.4,1,0.8,1.5,1.2h123c0.9-0.4,1.8-0.8,2.7-1.2c13-5.7,25.1-13.2,35.9-22.3
	c7.2-6.1,13.8-12.3,18.6-18.2c6.7-8.2,12.8-17.1,15.7-27.3c2.9-10.2,2-21.9-4.4-30.3c-2-2.6-4.4-4.8-7.2-6.6
	c-0.5-0.3-0.9-0.6-1.4-0.8c-7.9-4.3-17.2-5.4-25.9-3.1c-12.3,3.2-22.6,12.1-29.9,22.5c-7.3,10.4-12,22.4-16.7,34.2
	c-4.7-21.1-19.1-40-38.5-49.7c-19.4-9.6-43.5-9.5-62.5,0.9c-6,3.3-11.4,7.5-16,12.6c-0.5,0.5-0.9,1-1.3,1.5
	C6.3,537,0.5,550.7,0,564.8C-0.4,583.4,7.7,601.1,21.9,612.9z"/>
<path class="st0" d="M141.5,614h1.7c0-0.4,0.1-0.8,0.1-1.2c0.6-7.6,1.9-15.1,3.8-22.5c4.4-16.8,11.9-32.6,22.2-46.6
	c10.2-14.1,23.1-26,38-35.1c0.2-0.1,0.4-0.3,0.4-0.6c0.1-0.5-0.2-0.9-0.7-1c-0.2,0-0.4,0-0.6,0.1c0,0-0.1,0-0.1,0.1
	c-8.4,5.1-16.2,11.2-23.3,18c-12.6,12.3-22.8,26.9-30,43c-6.3,14.1-10.2,29.2-11.5,44.6C141.5,613.3,141.5,613.7,141.5,614z"/>
<path class="st0" d="M15.5,526.2C15.6,526.2,15.6,526.3,15.5,526.2c1.3,0.2,2.6,0.5,3.8,0.7c10.4,2.1,20.5,5.2,30.3,9.2
	c9.8,4,19.2,8.8,28.1,14.5c8.9,5.6,17.4,12.1,25.2,19.2c7.8,7.1,15,14.9,21.4,23.3c4.8,6.3,9.2,12.9,13.1,19.7
	c0.2,0.4,0.4,0.8,0.6,1.2h2c-0.2-0.4-0.4-0.8-0.6-1.2c-4.7-8.4-10.2-16.4-16.2-24c-6.7-8.3-14.1-16-22.2-23
	c-8-7-16.6-13.2-25.7-18.7c-9.1-5.5-18.7-10.2-28.7-14c-9.7-3.7-19.7-6.5-29.8-8.4c-0.3-0.1-0.6-0.1-0.8-0.2
	C15,524.4,14.5,526,15.5,526.2z"/>
<path class="st0" d="M50.1,586.8c12.1-1.7,24.4-1.4,36.4,0.8c12,2.2,23.6,6.2,34.3,12c6,3.2,11.8,7,17.1,11.3
	c0.9,0.7-0.4,1.9-1.2,1.2c-9.4-7.5-19.9-13.4-31.2-17.5c-11.2-4.1-22.9-6.5-34.8-7.1c-6.7-0.3-13.5,0-20.2,0.9
	c-0.5,0.1-0.9-0.2-1.1-0.6C49.4,587.4,49.7,586.9,50.1,586.8L50.1,586.8z"/>
<path class="st2" d="M607.7,115.5H265.8c-8.4,0-15.2,6.8-15.2,15.2v137c0,8.4,6.8,15.2,15.2,15.2h24.2v49.2h0.9
	c20.3,0,36.7-16.4,36.7-36.7v-12.5h280.2c8.4,0,15.2-6.8,15.2-15.2v-137C622.9,122.3,616.1,115.5,607.7,115.5z M621.1,267.6
	c0,7.4-6,13.4-13.4,13.4h-282v14.3c0,18.9-15.1,34.4-34,34.9v-49.2h-26c-7.4,0-13.4-6-13.4-13.4v-137c0-7.4,6-13.4,13.4-13.4h341.9
	c7.4,0,13.4,6,13.4,13.4V267.6z"/>
<path class="st3" d="M540.1,149.9H333.3c-6,0-10.9,4.7-11.2,10.8c0,0.1,0,0.3,0,0.4c0,6.2,5,11.2,11.2,11.2h206.8
	c6.2,0,11.2-5,11.2-11.2C551.3,154.9,546.3,149.9,540.1,149.9z"/>
<path class="st3" d="M540.1,187.5H333.3c-6,0-10.9,4.7-11.2,10.8c0,0.1,0,0.3,0,0.4c0,6.2,5,11.2,11.2,11.2h206.8
	c6.2,0,11.2-5,11.2-11.2C551.3,192.5,546.3,187.5,540.1,187.5z"/>
<path class="st3" d="M540.1,225.1H333.3c-6,0-10.9,4.7-11.2,10.8c0,0.1,0,0.3,0,0.4c0,6.2,5,11.2,11.2,11.2h206.8
	c6.2,0,11.2-5,11.2-11.2C551.3,230.1,546.3,225.1,540.1,225.1z"/>
<path class="st4" d="M211.1,423.1c-0.4,0-0.8,0-1.2-0.1c-5.4-0.7-9.2-5.6-8.6-11c0-0.4,0.1-0.7,0.2-1.1c0.1-0.3,0.2-0.6,0.3-0.9
	L172,371.8c-2.7-3.5-2.8-8.3-0.2-11.9l10.5-14.5l13.7,10.5l-5.5,9.4l21.8,38.1c0.4,0,0.9,0.1,1.3,0.2c5.3,1.3,8.5,6.6,7.3,11.9
	C219.6,420,215.7,423.1,211.1,423.1z"/>
<polygon class="st4" points="262.8,604.3 273.8,604.3 279,562 262.8,562 "/>
<path class="st5" d="M295,614.5l-34.5,0l0,0l0-13.3l0,0l21.2,0C289,601.2,295,607.1,295,614.5L295,614.5L295,614.5z"/>
<polygon class="st4" points="172.4,604.3 183.4,604.3 188.6,562 172.4,562 "/>
<path class="st5" d="M204.6,614.5l-34.5,0l0,0l0-13.3l0,0l21.2,0C198.6,601.2,204.6,607.1,204.6,614.5L204.6,614.5L204.6,614.5z"/>
<path class="st3" d="M179.2,347.4l24.6,9.4l6-16.7c1.6-4.6-0.2-9.7-4.5-12.1l0,0c-4.3-2.4-9.7-1.4-12.8,2.5L179.2,347.4z"/>
<path class="st5" d="M260.9,570.1c-2,0-3.8-1.4-4.3-3.3c-12.3-47-24.8-70.6-38.1-97.8c-0.9-1.8-3-2.5-4.8-1.6
	c-1,0.5-1.8,1.5-1.9,2.7l-16.6,95.8c-0.3,2.2-2.3,3.8-4.5,3.8L166,569c-1.2,0-2.4-0.5-3.2-1.4c-0.9-0.9-1.3-2.1-1.2-3.3
	c11.1-73.5,19.9-140.1,36.8-160.4c0.5-0.4,1-0.8,1.6-1.1l-0.5-0.1c-0.1,0-0.5-0.1-0.5-0.5l0-0.4l0.4-0.1c0.6,0,1.2,0.1,1.8,0.3
	l38.5,5.9c2.2,0.3,3.8,2.3,3.8,4.5c2.1,9.8,5.3,24.6,5.6,25.3c20.6,39.1,28.5,69.9,36.8,122.4c0.4,2.3-1.1,4.5-3.4,5l-20.7,4.7
	C261.5,570.1,261.2,570.1,260.9,570.1z"/>
<path class="st3" d="M239.3,414.5c-0.3,0-0.7,0-1-0.1l-37.9-9c-1.2-0.3-2.2-1-2.8-2.1c-0.6-1.1-0.8-2.4-0.4-3.6
	c4.1-14.2-1.3-31.8-7.7-48.6c-1.7-10.1,3.5-20.2,12.7-24.7l0.1,0l19.9,1c6.6,1.7,12.1,6.4,14.8,12.7c7.7,18,9.9,41,6.7,70.5
	C243.4,412.7,241.5,414.5,239.3,414.5L239.3,414.5z"/>
<path class="st4" d="M244.4,373.5c-2,0-4-0.6-5.7-1.8L224,361.2l10.5-13.7l9.5,5.4l38-21.9c0-0.4,0.1-0.9,0.2-1.3
	c1.2-5.3,6.5-8.6,11.8-7.3c5.3,1.2,8.6,6.5,7.3,11.8c-1.2,5.3-6.5,8.6-11.8,7.3c-0.3-0.1-0.6-0.2-0.9-0.3l-38.2,30.1
	C248.7,372.7,246.5,373.5,244.4,373.5z"/>
<path class="st3" d="M219.3,365.5l21.8-14.8l-10.2-14.5c-2.8-4-8.1-5.4-12.5-3.3l0,0c-4.4,2.1-6.7,7.2-5.3,11.9L219.3,365.5z"/>
<circle class="st4" cx="208.9" cy="296.9" r="22"/>
<path class="st5" d="M210.9,319.4c-3.3,0-5.8-3.5-5.7-6.8c0.1-3.3,2.4-6.2,5-8.1c2.7-1.9,5.8-3.1,8.8-4.6c3-1.4,5.9-3.2,7.8-6
	c2.3-3.6,2.6-8.1,0.9-12.1c-1.7-3.9-4.6-7.1-8.4-9.2c-11.4-6.7-26.1-3.5-33.7,7.4l-3.8,10.3c-3.8,4.6-4.4,11.5-2.1,17
	c2.4,5.5,7.4,9.7,13.1,11.6c5.8,1.8,11.9,2,17.8,0.5"/>
<path class="st5" d="M187.1,286.4c-5.1-7.8-15.5-10-23.3-5c-1.8,1.2-3.4,2.7-4.7,4.5c-2.6,3.8-3.6,8.5-5.4,12.8
	c-3.3,7.6-9.3,13.8-16.8,17.3c6.6,1.2,13.2-2.2,18.5-6.3c5.3-4.1,9.9-9.2,15.8-12.3c4.7-2.5,9.9-3.7,15.1-3.5"/>
<path class="st2" d="M362.2,615.8h-341c-0.5,0-0.9-0.4-0.9-0.9c0-0.5,0.4-0.9,0.9-0.9h341c0.5,0,0.9,0.4,0.9,0.9
	C363.1,615.4,362.7,615.8,362.2,615.8z"/>
<circle class="st0" cx="800.1" cy="274.8" r="52.8"/>
<path class="st2" d="M805.2,312.4c-2.2-0.1-4.8-0.1-6.9-1.6c-1.2-0.9-2-2.4-2.1-4c-0.1-1.1,0.4-2.2,1.2-2.9c1.2-0.9,2.9-1.2,4.3-0.6
	l-1.8-12.8l1.3-0.2l2.1,15.1l-1.1-0.5c-1.2-0.6-3-0.9-4,0c-0.5,0.5-0.8,1.2-0.7,1.9c0.1,1.2,0.6,2.2,1.5,2.9
	c1.6,1.2,3.7,1.3,6.2,1.4L805.2,312.4z"/>
<rect x="786.6" y="291.6" class="st2" width="7" height="1.3"/>
<rect x="808.7" y="291.6" class="st2" width="7" height="1.3"/>
<path class="st2" d="M774.4,273.6c-5.6-0.6-10-6.1-10.5-11.5c-0.6-6.5,3.2-12.7,8.4-16.4c5.5-3.8,12.2-5.4,18.8-5.8
	c12.8-0.6,25.4,3.5,35.4,11.7c4.9,4.1,9.5,9.3,11.3,15.6c1.5,5.5,0.3,11.7-4.1,15.5c-2.2,1.9-5.1,2.8-8,2.5
	c-3.4-0.4-6.6-2.1-9.3-4.1c-5.3-3.9-9.7-9.2-16.1-11.2c-4.7-1.5-10.9-0.2-13.8,4.1c-0.7,1-1.1,2.1-1.2,3.3c-0.1,0.5,0.2,1,0.7,1.2
	c0.5,0.1,1.1-0.2,1.2-0.7c0.8-5.4,7.4-7.4,12-6.2c6.8,1.8,11.3,7.8,16.9,11.7c2.9,2.1,6.3,3.5,9.8,3.9c3.1,0.2,6.2-0.7,8.6-2.6
	c4.8-3.8,6.6-10.2,5.5-16c-1.2-6.7-5.7-12.5-10.7-17c-10.1-9-23.2-13.8-36.7-13.5c-6.9,0.2-14.1,1.6-20,5.2
	c-5.7,3.5-10.2,9.4-10.8,16.3c-0.5,6,2.7,12.3,8.3,15c1.3,0.6,2.7,1,4.2,1.2C775.7,275.7,775.7,273.7,774.4,273.6L774.4,273.6z"/>
</svg>
