<?xml version="1.0" encoding="utf-8"?>
<!-- Generator: Adobe Illustrator 23.0.6, SVG Export Plug-In . SVG Version: 6.00 Build 0)  -->
<svg version="1.1" id="b9c085e1-b209-40d5-b9c5-2decca8817ec"
	 xmlns="http://www.w3.org/2000/svg" xmlns:xlink="http://www.w3.org/1999/xlink" x="0px" y="0px" viewBox="0 0 1037.9 772.3"
	 style="enable-background:new 0 0 1037.9 772.3;" xml:space="preserve">
<style type="text/css">
	.st0{opacity:0.1;fill:#55D0BC;enable-background:new    ;}
	.st1{fill:#3F3D56;}
	.st2{fill:#57B894;}
	.st3{opacity:0.1;enable-background:new    ;}
	.st4{fill:#F2F2F2;}
	.st5{fill:#55D0BC;}
	.st6{fill:none;stroke:#F2F2F2;stroke-width:2;stroke-miterlimit:10;}
	.st7{opacity:0.3;fill:#55D0BC;enable-background:new    ;}
	.st8{fill:#192534;}
	.st9{fill:#A0616A;}
	.st10{opacity:0.1;fill:none;stroke:#000000;stroke-miterlimit:10;enable-background:new    ;}
	.st11{fill:#FFC1C7;}
	.st12{opacity:5.000000e-02;enable-background:new    ;}
	.st13{fill:#FBBEBE;}
	.st14{fill:url(#SVGID_1_);}
	.st15{fill:#575A89;}
	.st16{fill:#CBCEDA;}
	.st17{opacity:0.1;}
	.st18{fill:none;stroke:#3F3D56;stroke-width:4;stroke-miterlimit:10;}
	.st19{fill:#656380;}
	.st20{opacity:0.2;enable-background:new    ;}
</style>
<path class="st0" d="M16.2,362.2c-3.2,6-6.2,12.7-5.1,19.5c1.1,7.2,6.3,13.1,11.4,18.4c44.2,45.8,98.5,88.8,113.2,150.5
	c7.2,29.9,4,61,6.2,91.7c2.2,30.6,11.6,63.5,36.5,81.7c30.4,22.3,71.8,15,108.6,21.4c24.1,4.2,46.9,14.4,70.8,20
	c23.9,5.6,50.7,5.9,70.3-8.4c28.2-20.5,31.2-62.1,53.5-89c22.8-27.5,61.9-35,97.9-35.4c36-0.4,72.9,4.5,107.4-5.3
	c38.1-10.8,68.8-38.3,104.5-55.1c32.6-15.3,68.8-21.5,101.9-35.7s64.5-40.1,70.4-75.8c7.6-46.7-29.8-89.1-38.5-135.9
	c-8.1-43.5,9.2-87.1,9.1-131.1c-0.2-79.3-60.6-152.4-135.5-179S639.1,3.4,571.8,43.5c-30.3,18.1-58.1,41.1-91.1,53.5
	c-88.5,33.4-195.6-14.8-280.9,25.6c-54.3,25.7-83.7,79.8-104.3,133.8C77.7,303.3,39.4,319.3,16.2,362.2z"/>
<title>online friends</title>
<ellipse class="st1" cx="518.7" cy="555.8" rx="517.7" ry="18.5"/>
<path class="st1" d="M922.5,452.5c1.9-3.4,2.9-7.2,2.9-11c0-10-6.2-18.1-13.8-18.1s-13.8,8.1-13.8,18.1c0,3.9,1,7.7,2.9,11
	c-3.8,6.9-3.8,15.2,0,22.1c-3.8,6.9-3.8,15.2,0,22.1c-3.8,6.9-3.8,15.2,0,22.1c-1.9,3.4-2.9,7.2-2.9,11c0,10,6.2,18.1,13.8,18.1
	s13.8-8.1,13.8-18.1c0-3.9-1-7.7-2.9-11c3.8-6.9,3.8-15.2,0-22.1c3.8-6.9,3.8-15.2,0-22.1C926.3,467.7,926.3,459.3,922.5,452.5z"/>
<ellipse class="st1" cx="911.5" cy="419.4" rx="13.8" ry="18.1"/>
<ellipse class="st1" cx="911.5" cy="397.3" rx="13.8" ry="18.1"/>
<path class="st2" d="M859.9,246.3c-1.9-2.4-3.6-4.9-5.1-7.6l36.2-5.9l-39.2,0.3c-7.6-16.5-8.1-35.5-1.3-52.3l52.6,27.3l-48.5-35.6
	c18.2-31.6,58.6-42.4,90.2-24.2s42.4,58.6,24.2,90.2c-1.6,2.7-3.4,5.4-5.3,7.8c2.9,3.7,5.5,7.8,7.5,12.1l-47,24.4l50.1-16.8
	c7.2,21.1,3.1,44.5-10.7,62c22.6,28.7,17.6,70.2-11.1,92.8c-28.7,22.6-70.2,17.6-92.8-11.1c-18.9-24-18.9-57.7,0-81.7
	C841.1,304,841.1,270.3,859.9,246.3L859.9,246.3z"/>
<path class="st3" d="M977.9,287.2c0,14.8-5,29.2-14.1,40.8c22.6,28.7,17.6,70.2-11.1,92.8c-28.7,22.6-70.2,17.6-92.8-11.1
	c-18.9-24-18.9-57.7,0-81.7C851.1,316.8,977.9,279.8,977.9,287.2z"/>
<path class="st4" d="M169.8,145.6h697.8c9.9,0,18,8,18,18v365.2c0,9.9-8,18-18,18H169.8c-9.9,0-18-8-18-18V163.6
	C151.9,153.6,159.9,145.6,169.8,145.6z"/>
<path class="st5" d="M152.3,165.4h235.8l0,0v381.8l0,0H170.3c-9.9,0-18-8-18-18l0,0V165.4L152.3,165.4z"/>
<path class="st1" d="M885.6,163.6v10.2H151.9v-10.2c0-9.9,8-18,18-18c0,0,0,0,0,0h697.8C877.5,145.6,885.5,153.6,885.6,163.6
	C885.6,163.6,885.6,163.6,885.6,163.6z"/>
<circle class="st5" cx="170.8" cy="160.1" r="5.3"/>
<circle class="st5" cx="184" cy="160.1" r="5.3"/>
<circle class="st5" cx="197.2" cy="160.1" r="5.3"/>
<path class="st6" d="M296.6,338.7"/>
<path class="st6" d="M284.3,337.8"/>
<path class="st7" d="M539.2,221.4h303.1c0.6,0,1.1,0.5,1.1,1.1v7.5c0,0.6-0.5,1.1-1.1,1.1H539.2c-0.6,0-1.1-0.5-1.1-1.1v-7.5
	C538.1,221.9,538.6,221.4,539.2,221.4z"/>
<path class="st5" d="M775.8,239.8h62c0.6,0,1.1,0.5,1.1,1.1v19.8c0,0.6-0.5,1.1-1.1,1.1h-62c-0.6,0-1.1-0.5-1.1-1.1v-19.8
	C774.7,240.3,775.2,239.8,775.8,239.8z"/>
<path class="st7" d="M539.2,339h303.1c0.6,0,1.1,0.5,1.1,1.1v7.5c0,0.6-0.5,1.1-1.1,1.1H539.2c-0.6,0-1.1-0.5-1.1-1.1v-7.5
	C538.1,339.5,538.6,339,539.2,339z"/>
<path class="st5" d="M775.8,357.5h62c0.6,0,1.1,0.5,1.1,1.1v19.8c0,0.6-0.5,1.1-1.1,1.1h-62c-0.6,0-1.1-0.5-1.1-1.1v-19.8
	C774.7,358,775.2,357.5,775.8,357.5z"/>
<path class="st7" d="M539.2,458.7h303.1c0.6,0,1.1,0.5,1.1,1.1v7.5c0,0.6-0.5,1.1-1.1,1.1H539.2c-0.6,0-1.1-0.5-1.1-1.1v-7.5
	C538.1,459.2,538.6,458.7,539.2,458.7z"/>
<path class="st5" d="M775.8,477.2h62c0.6,0,1.1,0.5,1.1,1.1v19.8c0,0.6-0.5,1.1-1.1,1.1h-62c-0.6,0-1.1-0.5-1.1-1.1v-19.8
	C774.7,477.6,775.2,477.2,775.8,477.2z"/>
<ellipse transform="matrix(0.1891 -0.982 0.982 0.1891 29.8022 754.6254)" class="st1" cx="471.8" cy="359.3" rx="43.6" ry="43.6"/>
<path class="st8" d="M510.3,382.2c0,0.1-0.1,0.2-0.2,0.3c-0.5,0.8-1,1.5-1.5,2.3c-4.8,6.7-11.5,11.9-19.1,14.9
	c-0.8,0.3-1.5,0.6-2.3,0.9c-0.7-0.6-1.4-1.2-2-1.9c-1.8-2.1-3-4.6-3.5-7.3c-1.2,0.2-2.3,0.3-3.5,0.3c-0.1,0-0.2,0-0.4,0
	c-9.1-0.2-16.8-6.8-20.3-16.3l-0.1-0.4c-2.1-6.2-2.4-12.8-0.7-19.1l0,0c0-0.2,0.1-0.4,0.2-0.6c3-10.2,10.8-17.7,20.2-18.2
	c0.3,0,0.6,0,0.9,0s0.5,0,0.7,0h0.4c11.8,0.4,21.3,11.9,21.8,26.2c4.9,3.2,7.5,9,6.7,14.9C508.5,379.3,509.5,380.7,510.3,382.2z"/>
<path class="st3" d="M510.1,382.5c-0.5,0.8-1,1.5-1.5,2.3c-0.6-1.1-1.4-2.2-2.3-3.1c0.1-0.7,0.2-1.5,0.2-2.2c0-5.1-2.6-9.9-6.9-12.7
	c-0.5-14.6-10.4-26.3-22.6-26.3c-8.7,0-16.2,5.9-20,14.6c-0.1,0.2-0.2,0.4-0.3,0.7l0,0c-0.3,0.8-0.6,1.5-0.9,2.3
	c0.3-1.6,0.7-3.2,1.3-4.7l0.1-0.1c3.4-9.3,11-16,19.8-16.4c0.3,0,0.6,0,0.9,0s0.5,0,0.7,0h0.4c11.7,0.7,21,12.1,21.4,26.2
	c4.9,3.2,7.6,9,6.7,14.9C508.4,379.4,509.4,380.9,510.1,382.5z"/>
<path class="st9" d="M464.2,370c0.1,0.9,0,1.8-0.3,2.6c-0.5,1.2-1.8,2.3-1.4,3.5c0.4,0.8,1.1,1.4,1.9,1.5c3.8,1.3,7.9,0.5,11.9,0.7
	c1.3,0.1,2.7,0.2,4,0.1c1.3,0,2.7-0.5,3.7-1.3c-2.1-1-4.1-2.2-5.9-3.7c-0.4-0.3-0.8-0.7-1.2-1.1c-0.7-1.2-1.1-2.6-1-4
	c0-1.4,0-2.8,0-4.2c-2.9,0-5.7,0-8.6,0c-0.9,0-3.7-0.2-4,0.8c-0.2,0.5,0.5,1.9,0.6,2.5C464,368.3,464.1,369.2,464.2,370z"/>
<path class="st3" d="M464.2,370c0.1,0.9,0,1.8-0.3,2.6c-0.5,1.2-1.8,2.3-1.4,3.5c0.4,0.8,1.1,1.4,1.9,1.5c3.8,1.3,7.9,0.5,11.9,0.7
	c1.3,0.1,2.7,0.2,4,0.1c1.3,0,2.7-0.5,3.7-1.3c-2.1-1-4.1-2.2-5.9-3.7c-0.4-0.3-0.8-0.7-1.2-1.1c-0.7-1.2-1.1-2.6-1-4
	c0-1.4,0-2.8,0-4.2c-2.9,0-5.7,0-8.6,0c-0.9,0-3.7-0.2-4,0.8c-0.2,0.5,0.5,1.9,0.6,2.5C464,368.3,464.1,369.2,464.2,370z"/>
<circle class="st9" cx="470.1" cy="358.7" r="10.1"/>
<path class="st5" d="M489.2,388c0,0.3-0.1,0.6-0.1,0.9c-0.3,1.6-0.8,3.2-1.4,4.8c-0.4,1.1-0.8,2.1-1.3,3.1c-0.4,0.7-0.9,1.3-1.3,2
	l-0.6,0.9c-0.4,0.6-0.7,1.3-0.9,2c-1.7,0.4-3.4,0.7-5.2,0.9c-1.7,0.2-3.4,0.3-5.1,0.3c-9.2,0-19.1-2.4-26.1-7.3c0,0,1-0.7,0.9-0.9
	c0-0.4,0-0.8,0-1.2c0-1,0.2-2.1,0.5-3.1c0.3-0.9,0.8-1.8,1.5-2.5c0.9-0.9,2.1-1.4,3-2.3c1.2-1.2,2.1-2.6,2.5-4.3l0,0
	c0.2-0.7,0.4-1.5,0.5-2.2c0.1-1,0.4-1.9,0.8-2.9c0.1-0.1,0.1-0.2,0.2-0.3c0.1-0.2,0.3-0.4,0.5-0.6c0.9-0.9,1.9-1.6,3.1-2.1
	c1-0.5,2.3-0.9,3-0.1v0.1c0.2,0.5,0.4,1,0.6,1.5c0.5,1.1,2,1.2,3.2,1.2c4.3-0.1,8.6-0.4,12.8-1.1l2.1-0.3c1.5-0.2,2.5,1.1,3.4,2.3
	C487.7,380.3,489.6,384.1,489.2,388z"/>
<path class="st10" d="M458.4,388.7c-0.9,0.2-1.5,1.2-1.9,2c-0.8,1.4-1.2,3.1-1,4.7c0,0.6,0,1.3,0.2,1.9c0.2,0.6,0.6,1.2,1.1,1.5"/>
<ellipse transform="matrix(0.2477 -0.9688 0.9688 0.2477 15.1248 722.2932)" class="st8" cx="472.6" cy="351.4" rx="5.6" ry="11.3"/>
<path class="st3" d="M471.8,354.7c-5.4-1.4-9.4-4.4-9.7-7.2c-0.2,0.3-0.4,0.7-0.5,1.1c-0.8,3,3.5,6.7,9.6,8.2s11.6,0.4,12.3-2.6
	c0.1-0.3,0.1-0.7,0.1-1C482,355.3,477.1,356,471.8,354.7z"/>
<path class="st9" d="M489.5,395.2c0,1.5,0,3.1-0.1,4.6c-0.8,0.3-1.5,0.6-2.3,0.9c-1.2,0.4-2.3,0.7-3.5,1c-1.7,0.4-3.4,0.7-5.2,0.9
	c-0.3-3.6-1-7.2-0.7-10.8l0,0c0.3-2.8,1.3-5.5,2.8-7.9c0.6-1,1.5-1.9,2.6-2.5c1.1-0.6,2.4-0.5,3.4,0.3c0.6,0.6,1,1.4,1.2,2.2
	c0.6,1.7,1.1,3.3,1.4,5.1c0,0.2,0.1,0.4,0.1,0.6C489.5,391.3,489.6,393.3,489.5,395.2z"/>
<path class="st1" d="M515.4,478.9c0,7.3-1.8,14.5-5.3,20.9c-0.4,0.7-0.8,1.4-1.2,2.1c0,0.1-0.1,0.2-0.2,0.3c-0.5,0.8-1,1.5-1.5,2.3
	c-3.3,4.6-7.6,8.6-12.4,11.5l-0.3,0.2c-1.6,1-3.3,1.8-5,2.6c-0.5,0.2-1,0.4-1.5,0.6c-0.5,0.2-1,0.4-1.4,0.5
	c-0.2,0.1-0.5,0.2-0.8,0.3l0,0c0,0-0.1,0-0.1,0c-0.5,0.2-1.1,0.4-1.6,0.5l-0.4,0.1c-0.5,0.1-1,0.3-1.5,0.4c-1.7,0.4-3.4,0.7-5.2,0.9
	l0,0c-1.7,0.2-3.4,0.3-5.1,0.3c-0.2,0-0.4,0-0.5,0c-2.4,0-4.7-0.2-7-0.7l-0.4-0.1c-0.4-0.1-0.9-0.2-1.3-0.3l0,0l-0.8-0.2
	c-0.9-0.2-1.7-0.4-2.6-0.7c-1.7-0.5-3.4-1.1-5-1.9l-0.2-0.1c-2.4-1.1-4.7-2.4-6.9-3.9c-0.2-0.1-0.4-0.2-0.5-0.4
	c-19.6-14-24.1-41.2-10.2-60.7c14-19.6,41.2-24.1,60.7-10.2C508.6,451.6,515.5,464.8,515.4,478.9L515.4,478.9z"/>
<path class="st8" d="M482.3,468.4c-0.2,5.1-4.5,9.1-9.6,8.8c-4.8-0.2-8.6-4-8.8-8.8c0-0.1,0-0.3,0-0.4c0-5.1,4.1-9.2,9.2-9.2
	c5.1,0,9.2,4.1,9.2,9.2C482.3,468.1,482.3,468.3,482.3,468.4z"/>
<path class="st3" d="M482.3,468.4c-0.2,5.1-4.5,9.1-9.6,8.8c-4.8-0.2-8.6-4-8.8-8.8c0-0.1,0-0.3,0-0.4c5.4-4.4,13.1-4.4,18.5,0
	C482.3,468.1,482.3,468.3,482.3,468.4z"/>
<circle class="st8" cx="473.1" cy="480.1" r="14.6"/>
<path class="st8" d="M464.3,466.4c0-4.6,3.4-8.5,8-9.2c-5.1-0.7-9.7,2.9-10.4,7.9c-0.7,5.1,2.9,9.7,7.9,10.4c0.8,0.1,1.7,0.1,2.5,0
	C467.7,474.9,464.3,471,464.3,466.4z"/>
<path class="st8" d="M456.6,486c-3.5-3.1-4.1-8.2-1.6-12.1c-0.3,0.3-0.6,0.6-0.9,0.9c-3.5,3.7-3.2,9.6,0.5,13.1
	c3.7,3.5,9.6,3.2,13.1-0.5c0.1-0.1,0.2-0.2,0.3-0.3c0.3-0.3,0.5-0.6,0.7-1C465.3,489.1,460.1,489.1,456.6,486z"/>
<path class="st11" d="M465.5,498.6c-0.8,0.1-1.5,0.4-2.2,0.8c-1.2,0.9-1.2,2.6-0.8,4.1c0.8,3.3,2.9,6.4,5.9,7.8c1.9,0.7,4,1,6,0.9
	c2.2,0,4.7-0.3,6.1-2c0.6-0.9,1-2,1.2-3c0.7-2.6,1.4-5.4,1.1-8.1c-1.3,0.1-2.8,0.2-3.9-0.7c-1.1-0.8-1.3-2.5-1.8-3.8
	c-0.1-0.2-0.2-0.4-0.3-0.5c-0.2-0.1-0.4-0.1-0.6-0.1c-1.4,0.1-2.8,0-4.2-0.2c-0.9-0.1-3-1-3.7-0.3c-0.5,0.6-0.2,2.2-0.5,3
	C467.4,497.4,466.5,498.2,465.5,498.6z"/>
<path class="st12" d="M465.5,498.6c-0.8,0.1-1.5,0.4-2.2,0.8c-1.2,0.9-1.2,2.6-0.8,4.1c0.8,3.3,2.9,6.4,5.9,7.8c1.9,0.7,4,1,6,0.9
	c2.2,0,4.7-0.3,6.1-2c0.6-0.9,1-2,1.2-3c0.7-2.6,1.4-5.4,1.1-8.1c-1.3,0.1-2.8,0.2-3.9-0.7c-1.1-0.8-1.3-2.5-1.8-3.8
	c-0.1-0.2-0.2-0.4-0.3-0.5c-0.2-0.1-0.4-0.1-0.6-0.1c-1.4,0.1-2.8,0-4.2-0.2c-0.9-0.1-3-1-3.7-0.3c-0.5,0.6-0.2,2.2-0.5,3
	C467.4,497.4,466.5,498.2,465.5,498.6z"/>
<circle class="st11" cx="472.9" cy="487.1" r="10.2"/>
<path class="st5" d="M495.3,509.2c-0.1,0.1-0.1,0.2-0.2,0.3l-0.4,0.6c-2.2,2.6-3.9,5.5-5.2,8.7c-0.5,0.2-1,0.4-1.5,0.6
	c-0.5,0.2-1,0.4-1.4,0.5c-0.2,0.1-0.5,0.2-0.8,0.3l0,0c0,0-0.1,0-0.1,0c-0.5,0.2-1.1,0.4-1.6,0.5l-0.4,0.1c-0.5,0.1-1,0.3-1.5,0.4
	c-1.7,0.4-3.4,0.7-5.2,0.9l0,0c-1.7,0.2-3.4,0.3-5.1,0.3c-0.2,0-0.4,0-0.5,0c-2.4,0-4.7-0.2-7-0.7l-0.4-0.1
	c-0.4-0.1-0.9-0.2-1.3-0.3l0,0l-0.8-0.2c-0.9-0.2-1.7-0.4-2.6-0.7c0.2-1.5,0.9-2.8,1.9-4c-2-2.4-5.2-3.3-7.3-5.5
	c-0.2-0.2-0.4-0.4-0.5-0.7c-0.1-0.2-0.2-0.3-0.3-0.5c-0.1-0.1-0.1-0.3-0.1-0.5c-0.1-0.3-0.1-0.7-0.1-1c-0.1-2.5,0.1-5.3,2-6.9
	c1-0.7,2-1.1,3.1-1.4c2-0.6,3.9-1.4,5.7-2.3c0.2,0.4,0.3,0.8,0.3,1.2c0.2,1,0.2,2.1,0.4,3.1c0.5,1.8,1.6,3.4,3.1,4.4
	c1.6,1,3.3,1.7,5.2,1.9c1.8,0.3,3.3-0.7,5-1.3c0.8-0.2,1.5-0.6,2-1.2c0.8-0.9,1.2-2,1.2-3.2c0-1.2-0.1-2.3-0.1-3.5
	c0-0.1,0-0.2,0-0.4c0-0.6,0.4-1.2,1-1.4c0.3,0,0.7,0,1,0.2l3.3,1.3c1.4,0.5,2.8,1.1,4.1,1.9C493.1,502.7,494.9,505.8,495.3,509.2z"
	/>
<path class="st3" d="M464.2,521.8l-0.4-0.1c-0.4-0.1-0.9-0.2-1.3-0.3l0,0l-0.8-0.2c-0.9-0.2-1.7-0.4-2.6-0.7c-1.7-0.5-3.4-1.1-5-1.9
	c-0.8-2.7-1.1-5.5-0.9-8.3c0.1-1.2,0.4-2.4,0.7-3.5c1.8,1.8,5,0.8,7.1,2.2c0.6,0.4,1,0.9,1.4,1.5c0.6,1.1,1,2.3,1.2,3.6
	c0.1,0.7,0.3,1.4,0.4,2.1c0,0.1,0,0.2,0,0.3c0,0.1,0,0.2,0,0.3c0.1,0.5,0.1,1,0.2,1.5C464.2,519.6,464.2,520.7,464.2,521.8z"/>
<path class="st5" d="M463.8,521.7c-0.4-0.1-0.9-0.2-1.3-0.3l0,0l-0.8-0.2c-0.9-0.2-1.7-0.4-2.6-0.7c-1.7-0.5-3.4-1.1-5-1.9l-0.2-0.1
	c-1-3-1.4-6.1-1.1-9.2c0.1-1.1,0.4-2.2,0.7-3.3c1.8,1.8,5,0.8,7.1,2.2c0.8,0.6,1.4,1.4,1.8,2.3c0.3,0.9,0.6,1.8,0.8,2.8
	c0.2,1,0.4,2.1,0.5,3.1c0,0.1,0,0.3,0,0.4c0,0.1,0,0.2,0,0.3s0,0.2,0,0.4C463.8,519,463.8,520.4,463.8,521.7z"/>
<path class="st3" d="M494.4,516.2c-1.6,1-3.3,1.8-5,2.6c-0.5,0.2-1,0.4-1.5,0.6c-0.5,0.2-1,0.4-1.4,0.5c-0.2,0.1-0.5,0.2-0.8,0.3
	l0,0c0,0-0.1,0-0.1,0c-0.5,0.2-1.1,0.4-1.6,0.5l-0.4,0.1c0-0.8,0-1.6,0.1-2.4c0.1-0.6,0.1-1.2,0.2-1.9c0-0.1,0-0.2,0-0.3
	c0-0.1,0-0.1,0-0.2c0.1-0.6,0.2-1.2,0.3-1.8c0.2-1.3,0.6-2.5,1.2-3.6c0.3-0.6,0.8-1.1,1.4-1.5c2.1-1.4,5.3-0.4,7-2.2
	c0.3,1,0.6,2.1,0.7,3.1C494.8,512.1,494.7,514.2,494.4,516.2z"/>
<path class="st5" d="M494.6,516l-0.3,0.2c-1.6,1-3.3,1.8-5,2.6c-0.5,0.2-1,0.4-1.5,0.6c-0.5,0.2-1,0.4-1.4,0.5
	c-0.2,0.1-0.5,0.2-0.8,0.3l0,0c0,0-0.1,0-0.1,0c-0.5,0.2-1.1,0.4-1.6,0.5c0-1,0-2.1,0.1-3.1c0-0.3,0-0.5,0.1-0.8c0-0.1,0-0.2,0-0.4
	s0-0.2,0-0.3c0.1-1,0.3-1.9,0.5-2.8c0.2-1,0.4-1.9,0.8-2.8c0.3-0.9,1-1.7,1.8-2.3c2.1-1.4,5.3-0.4,7-2.2c0.4,1.1,0.6,2.3,0.7,3.4
	C495.2,511.7,495.1,513.9,494.6,516z"/>
<ellipse class="st8" cx="472.7" cy="477.5" rx="12.2" ry="8.2"/>
<path class="st12" d="M462.5,520.2c0,0.2,0,0.4,0,0.6c0,0.2,0,0.4,0,0.6c0,0,0,0,0,0.1l0,0l-0.8-0.2c0-0.2,0-0.3,0-0.5
	c0-1.7,0.7-3.2,2-4.3c0.1-0.1,0.2-0.2,0.3-0.2c0.5-0.4,1-0.7,1.6-0.9c0.5-0.2,1.1-0.3,1.7-0.3c0.1,0,0.2,0,0.2,0c0.1,0,0.3,0,0.4,0
	h-0.3c-1.3,0.1-2.6,0.8-3.5,1.8c-0.1,0.1-0.2,0.2-0.3,0.3C463,518.1,462.6,519.1,462.5,520.2z"/>
<path class="st5" d="M471.5,520.8c0,0.6-0.1,1.1-0.2,1.6c-2.4,0-4.7-0.2-7-0.7l-0.4-0.1c-0.4-0.1-0.9-0.2-1.3-0.3l0,0v-0.1
	c0-0.2,0-0.4,0-0.6s0-0.4,0-0.6c0.1-1.2,0.5-2.3,1.2-3.3c0.1-0.1,0.2-0.2,0.3-0.3c0.4-0.5,0.9-0.9,1.5-1.2c0.5-0.2,1-0.3,1.5-0.3
	c0.1,0,0.1,0,0.2,0c0.1,0,0.2,0,0.4,0C469.7,515.5,471.5,517.9,471.5,520.8z"/>
<path class="st12" d="M486.5,519.9c-0.2,0.1-0.5,0.2-0.8,0.3l0,0c-0.1-1.3-0.7-2.4-1.6-3.3l-0.3-0.3c-0.9-0.8-2-1.3-3.1-1.4h-0.3
	c0.1,0,0.3,0,0.4,0c0.1,0,0.2,0,0.2,0c0.6,0,1.1,0.1,1.7,0.3c0.4,0.1,0.8,0.3,1.2,0.6c0.1,0.1,0.2,0.1,0.3,0.2
	C485.5,517.1,486.3,518.4,486.5,519.9z"/>
<path class="st5" d="M485.7,520.2L485.7,520.2C485.7,520.2,485.7,520.2,485.7,520.2c-0.6,0.2-1.2,0.4-1.7,0.5l-0.4,0.1
	c-0.5,0.1-1,0.3-1.5,0.4c-1.7,0.4-3.4,0.7-5.2,0.9l0,0c-0.1-0.4-0.1-0.9-0.1-1.3c0-2.9,1.8-5.3,4-5.7c0.1,0,0.2,0,0.4,0
	c0.1,0,0.1,0,0.2,0c0.5,0,1,0.1,1.5,0.3c0.4,0.2,0.8,0.5,1.2,0.8c0.1,0.1,0.2,0.2,0.3,0.2C485.1,517.5,485.6,518.8,485.7,520.2z"/>
<path class="st3" d="M472.7,484.9c-6.6,0-11.9-3.4-12.2-7.8c0,0.1,0,0.3,0,0.4c0,4.5,5.5,8.2,12.3,8.2s12.2-3.7,12.2-8.2
	c0-0.1,0-0.3,0-0.4C484.6,481.5,479.3,484.9,472.7,484.9z"/>
<path class="st1" d="M428.2,241.6c0,7.3,1.8,14.5,5.3,20.8c0.4,0.7,0.8,1.4,1.2,2.1c0.1,0.1,0.1,0.2,0.2,0.3c0.5,0.8,1,1.5,1.6,2.3
	c1.8,2.5,3.9,4.9,6.3,6.9c0.4,0.4,0.9,0.8,1.4,1.2c1.5,1.3,3.1,2.4,4.8,3.4l0.3,0.2c1.6,1,3.3,1.8,5,2.6l1.5,0.6
	c0.5,0.2,0.9,0.4,1.4,0.6c0.2,0.1,0.5,0.2,0.8,0.3l0,0l0,0h0.1c0.5,0.2,1.1,0.4,1.6,0.5l0.4,0.1c0.5,0.1,1,0.3,1.5,0.4
	c0.7,0.2,1.3,0.3,2,0.4c1,0.2,2.1,0.4,3.1,0.5l0,0c1.7,0.2,3.4,0.3,5.1,0.3h0.5c2.4,0,4.7-0.2,7-0.7c0.1,0,0.3,0,0.4-0.1
	c0.4-0.1,0.9-0.2,1.3-0.3l0,0c0.3-0.1,0.5-0.1,0.8-0.2c0.9-0.2,1.8-0.4,2.6-0.7c0.5-0.2,1-0.3,1.5-0.5c1-0.4,2.1-0.7,3-1.2
	c0.2-0.1,0.3-0.1,0.4-0.2l0.2-0.1c1.3-0.6,2.6-1.2,3.8-2c1-0.6,2.1-1.2,3.1-1.9h0.1c0.2-0.1,0.3-0.2,0.5-0.3
	c19.6-13.9,24.2-41.1,10.2-60.7c-13.9-19.6-41.1-24.2-60.7-10.2C435.1,214.3,428.2,227.5,428.2,241.6z"/>
<path class="st5" d="M481.5,258.9c0.6,0.6,1.1,1.3,1.3,2.2c-1.3,0.3-2.6-0.3-3.7-0.9c-3.7-1.7-7.5-3-11.5-3.7
	c-0.3,0-0.6-0.1-0.9-0.3c-0.4-0.6-0.4-1.3,0.1-1.8c0.4-0.5,1.3-0.4,1.9-0.4C473.4,253.6,478.1,255.4,481.5,258.9L481.5,258.9z"/>
<path class="st13" d="M468.6,255.4c-0.5,1.3-1.6,2.4-2.9,2.9c-0.7,0.3-1.5,0.3-2.2,0.5c-0.7,0.2-1.4,0.7-1.7,1.3
	c-0.1,0.3-0.1,0.6-0.1,1c-0.1,3-0.2,6.2,1,9c1,2.4,3,4.3,4.9,6.1c2.2,2.1,4.6,4.3,7.5,5.2c1.7,0.6,3.7,0.6,5.1-0.5
	c0.6-0.5,1-1,1.4-1.7c1-1.3,1.8-2.7,2.5-4.2c1.2-3.1,0.8-6.6,0.4-9.9c0-0.2-0.1-0.4-0.2-0.5c-0.2-0.1-0.4-0.2-0.6-0.1
	c-1.5,0.2-3-0.7-3.7-2.1c-0.2-0.6-0.3-1.3-0.2-1.9l0.1-3.8c0-0.4,0-0.8-0.1-1.2c-0.3-0.6-0.9-1.1-1.6-1.4c-2.1-1-4.2-1.9-6.4-2.5
	c-1-0.3-1.7-0.8-2.1,0.3C469.1,253,469.1,254.3,468.6,255.4z"/>
<path class="st3" d="M468.6,255.4c-0.5,1.3-1.6,2.4-2.9,2.9c-0.7,0.3-1.5,0.3-2.2,0.5c-0.7,0.2-1.4,0.7-1.7,1.3
	c-0.1,0.3-0.1,0.6-0.1,1c-0.1,3-0.2,6.2,1,9c1,2.4,3,4.3,4.9,6.1c2.2,2.1,4.6,4.3,7.5,5.2c1.7,0.6,3.7,0.6,5.1-0.5
	c0.6-0.5,1-1,1.4-1.7c1-1.3,1.8-2.7,2.5-4.2c1.2-3.1,0.8-6.6,0.4-9.9c0-0.2-0.1-0.4-0.2-0.5c-0.2-0.1-0.4-0.2-0.6-0.1
	c-1.5,0.2-3-0.7-3.7-2.1c-0.2-0.6-0.3-1.3-0.2-1.9l0.1-3.8c0-0.4,0-0.8-0.1-1.2c-0.3-0.6-0.9-1.1-1.6-1.4c-2.1-1-4.2-1.9-6.4-2.5
	c-1-0.3-1.7-0.8-2.1,0.3C469.1,253,469.1,254.3,468.6,255.4z"/>
<circle class="st13" cx="478.8" cy="246.9" r="11.5"/>
<path class="st4" d="M463.5,284.4c1,0.2,2.1,0.4,3.1,0.5l0,0c1.7,0.2,3.4,0.3,5.1,0.3h0.5c2.4,0,4.7-0.2,7-0.7c0.1,0,0.3,0,0.4-0.1
	c0.4-0.1,0.9-0.2,1.3-0.3l0,0c0.3-0.1,0.5-0.1,0.8-0.2c0.9-0.2,1.8-0.4,2.6-0.7c0.5-0.2,1-0.3,1.5-0.5c1-0.4,2.1-0.7,3-1.2
	c-0.3-0.8-0.5-1.6-0.6-2.4c-0.3-1.7-0.4-3.5-0.3-5.2c0-1.4,0.1-2.8,0-4.2c0-1.1-0.1-2.3-0.5-3.3c-0.4-1.1-1.1-2-2.1-2.5
	c-1.3-0.6-3.3-0.9-4.6-0.2c-0.1,0.1-0.3,0.2-0.4,0.3c-0.3,0.2-0.5,0.5-0.6,0.9c-0.4,1.1-0.9,2.1-1.3,3.2c-0.3,0.7-0.6,1.4-1,2.1
	c-1.3,1.8-3.6,2.5-5.7,1.9c-0.1,0-0.3-0.1-0.4-0.1c-1.8-0.7-3.4-2.3-5.2-1.8c-1,0.3-1.9,1-2.3,2c0,0.1,0,0.1-0.1,0.2
	c-0.4,0.9-0.6,1.9-0.6,2.9C463,278.2,463.1,281.3,463.5,284.4z"/>
<path class="st5" d="M442.8,274.1c0.4,0.4,0.9,0.8,1.4,1.2c1.5,1.3,3.1,2.4,4.8,3.4l0.3,0.2c1.6,1,3.3,1.8,5,2.6l1.5,0.6
	c0.5,0.2,0.9,0.4,1.4,0.6c0.2,0.1,0.5,0.2,0.8,0.3l0,0l0,0h0.1c0.5,0.2,1.1,0.4,1.6,0.5l0.4,0.1c0.5,0.1,1,0.3,1.5,0.4
	c0.7,0.2,1.3,0.3,2,0.4c1,0.2,2.1,0.4,3.1,0.5l0,0c1.7,0.2,3.4,0.3,5.1,0.3h0.5c2.4,0,4.7-0.2,7-0.7c0.1,0,0.3,0,0.4-0.1
	c0.4-0.1,0.9-0.2,1.3-0.3l0,0c0.3-0.1,0.5-0.1,0.8-0.2c0.9-0.2,1.8-0.4,2.6-0.7c0.5-0.2,1-0.3,1.5-0.5c1-0.4,2.1-0.7,3-1.2
	c0.2-0.1,0.3-0.1,0.4-0.2l0.2-0.1c1.3-0.6,2.6-1.2,3.8-2c0.9-2.3,1.6-4.7,2.2-7c0,0,0-0.1,0-0.1c-1.4-2.4-2.6-5-3.9-7.4
	c-0.8-1.9-2.5-3.2-4.5-3.4c-1-0.3-1.9-0.5-2.9-0.5c-0.6-0.1-1.1-0.2-1.7-0.3c-1.1-0.3-2.4-0.5-2.8,0l0,0c0,0-0.1,0.1-0.1,0.1
	c-0.2,0.6-0.1,1.2,0.2,1.8c0.2,0.6,0.4,1.1,0.6,1.6c0.1,0.2,0.1,0.5,0.1,0.7c0,1,0,2.1-0.1,3.1c-0.2,1.5-1.1,2.8-1.5,4.3
	c-0.2,0.7-0.3,1.4-0.4,2.1c-0.2,1.6-0.7,3.1-1.2,4.6c-0.1,0.3-0.3,0.6-0.4,0.9c-0.7,0.9-1.9,0.5-3.1,0.4c-0.8-0.7-0.8-2-0.9-3
	c-0.2-1.8-0.8-3.5-1.6-5.1l-0.3-0.6c-0.9-1.8-1.8-3.6-2.6-5.5c-1.1-2.3-2.2-4.9-1.3-7.2c0.3-0.7,0.7-1.3,1-2c0-0.1,0.1-0.2,0.1-0.3
	c0.1-0.3,0.1-0.5,0.1-0.8c0.1-0.5-0.1-1-0.4-1.4c0-0.1-0.1-0.1-0.2-0.2c0,0-0.1-0.1-0.1-0.1c-0.6-0.3-1.3-0.4-1.9-0.1
	c-0.3,0.1-0.7,0.3-1,0.4c-1.7,1-3.4,2.1-5,3.2c-0.5,0.3-0.8,0.7-1,1.2c0,0.3-0.1,0.7-0.2,1c-0.2,0.6-1,0.8-1.6,1
	c-5.4,1.2-10,4.6-12.8,9.4c-0.5,0.8-0.8,1.6-1.1,2.4C443,272.9,442.9,273.5,442.8,274.1z"/>
<path class="st8" d="M483.9,240.4c-1.6,1.6-4,1.7-6.3,1.6l0.1-0.9l-3.1,1.1c0.8-0.6,1.5-1.3,2-2.2c-0.4-0.3-1-0.4-1.5-0.1
	c-0.5,0.3-0.9,0.7-1.1,1.1c-1.8,2.7-2.2,6.1-1.1,9.1c-0.6,0.3-1.4,0.3-2-0.1c-0.6-0.4-1-1-1.3-1.6c-0.2-0.4-0.4-0.9-0.8-1
	c-0.4-0.1-0.8,0.1-1,0.4c-0.2,0.3-0.3,0.7-0.2,1.1c0.1,0.9,0.7,1.8,0.9,2.6c0.2,0.9,1.5,1.6,0.8,2.2c-0.8,0.3-1.6,0.5-2.5,0.6
	c-0.3-0.1-0.6-0.4-0.7-0.7c-0.7-1.5-0.4-3.3-0.9-4.9c-0.4-1.3-1-2.5-1.8-3.6c-0.2-0.3-0.4-0.6-0.7-0.9c-0.3-0.2-0.5-0.5-0.7-0.8
	c-0.1-0.3,0.1-0.8,0.4-0.7c-0.5-0.5-1.1-1-1.8-1.4c0.6-0.8,1.2-1.6,1.8-2.4c0.2-0.3,0.4-0.6,0.3-0.9c-0.1-0.1-0.2-0.3-0.4-0.3
	l-1.6-1.1c0-0.7,1.5-0.5,1.7-1.2c0.1-0.2,0.1-0.4,0-0.6l-0.5-2l2.1,0.9c0.2,0.1,0.5,0.2,0.8,0.2c0.5-0.1,0.8-0.7,0.9-1.3
	c-0.1-0.6,0-1.1,0.2-1.6c0.9,0,1.9,0,2.8,0c0.1-0.5-0.1-0.9-0.3-1.3l6.9-0.4c1.2-0.1,2.4-0.1,3.5,0.2c0.4,0.2,0.8,0.3,1.2,0.3
	c0.4,0,0.8-0.4,0.7-0.8c1,0.6,2,1.3,2.8,2.2c0.2,0.3,0.5,0.5,0.8,0.7c0.3,0.2,0.7,0.1,1-0.1c0.2-0.2,0.3-0.6,0.6-0.6
	c0.3,0,0.3,0.1,0.4,0.3c0.4,0.5,0.7,1.1,1,1.7c0.5-0.1,1-0.2,1.5-0.4c-0.4,0.5-0.5,1.2-0.3,1.8c0.2,0.6,0.7,1.1,0.9,1.7
	c0.3,0.6,0.5,1.3,0.6,1.9c0.1,0.8,0.1,1.9-0.6,2.3c-0.7,0.2-1.5,0.1-2-0.5C485.5,238.8,485.2,239.1,483.9,240.4z"/>
<path class="st5" d="M444.2,275.3c1.5,1.3,3.1,2.4,4.8,3.4l0.3,0.2c1.6,1,3.3,1.8,5,2.6l1.5,0.6c0.5,0.2,0.9,0.4,1.4,0.6
	c0.2,0.1,0.5,0.2,0.8,0.3l0,0l0,0c-0.3-0.9-0.5-1.8-0.8-2.6c-0.7-2.4-2-4.5-3.8-6.2c-1.5-1.5-3.9-3.7-6.2-2.4
	c-0.7,0.5-1.3,1-1.8,1.7c-0.4,0.5-0.8,1-1.1,1.6C444.3,275,444.2,275.1,444.2,275.3z"/>
<path class="st5" d="M486,282.8c1-0.4,2.1-0.7,3-1.2c0.2-0.1,0.3-0.1,0.4-0.2l0.2-0.1c1.3-0.6,2.6-1.2,3.8-2c1-0.6,2.1-1.2,3.1-1.9
	h0.1c-0.1-1-0.1-2,0-2.9c0.1-0.3,0-0.7-0.1-1c-0.1-0.3-0.3-0.5-0.5-0.7c-0.1-0.1-0.2-0.3-0.4-0.4c-1-1.1-1.8-2.3-3.5-2.1
	c-1.7,0.2-3.2,1.7-3.9,3.3c-0.1,0.2-0.1,0.3-0.2,0.5c-0.5,1.5-0.9,3.1-1.1,4.7c-0.2,1-0.5,1.9-0.7,2.9
	C486.2,282,486.1,282.4,486,282.8z"/>
<linearGradient id="SVGID_1_" gradientUnits="userSpaceOnUse" x1="-390.0411" y1="-249.0586" x2="-390.0411" y2="-248.8475" gradientTransform="matrix(-1 0 0 -1 -102.5143 293.121)">
	<stop  offset="0" style="stop-color:#808080;stop-opacity:0.25"/>
	<stop  offset="0.54" style="stop-color:#808080;stop-opacity:0.12"/>
	<stop  offset="1" style="stop-color:#808080;stop-opacity:0.1"/>
</linearGradient>
<path class="st14" d="M287.7,542L287.7,542l-0.4,0.2L287.7,542z"/>
<path class="st15" d="M233.7,494.5c-3.4,9.8,0.6,25.7,2.4,32.7c1.2,5.1,2,10.3,2.4,15.6c4.1,0.7,8.4,0.6,12.5-0.3l-3-14.6
	c2.1-8.6,0-31.7,0-31.7s4.8-8.9,5.3-22.5c0.4-13.4,3.7-17.7,3.8-17.9l0,0c6.8,3.5,15.4,41.5,15.4,41.5c-0.7,9.2,0.1,23.4,3,31
	c1.7,4.9,2.4,10,2.1,15.2c1.1,0.8,2.5,1.1,3.9,0.7c4-0.7,8.9-4.1,8.9-4.1s-1.6-41.3-2.7-42.9s0-10.5,0-10.5l-1.8-14.5
	c0,0,0.3-24.5-2.4-28.8c-2.3-3.7-2.9-10.1-3-11.8c0-0.3,0-0.4,0-0.4l-4.1-4.9c0,0-39.7-3-42.7,0c-0.7,0.7-1.2,2.4-1.5,4.5
	c-0.8,6.4,0.1,16.9,0.1,16.9s1.2,7.8,2.9,15.7c1,4.8,1,9.7,0,14.5C235.8,483.5,235.3,489.1,233.7,494.5z"/>
<path class="st16" d="M236.1,556.6c1.8,2.3,12.2,1.3,14,0.6c1.1-0.4,1-2.5,0.7-4.6c-0.2-1.3-0.5-2.7-0.6-3.7
	c-0.3-2.6,0.9-7.7,0.9-7.7s-2.3,2.5-2.9,0c-0.3-1-1-1.7-2-1.9c-1.2-0.4-2.5-0.3-3.7,0.2c-1.8,0.8-4.9,2.5-4.4,4.8
	c0.8,3.3-2,7.9-2,7.9C235.1,553.5,235.1,555.4,236.1,556.6L236.1,556.6z"/>
<path class="st3" d="M236.1,556.6c1.8,2.3,12.2,1.3,14,0.6c1.1-0.4,1-2.5,0.7-4.6c-1.1,0.5-3,1-6.2,0.7c-0.7-0.1-1.5-0.1-2.2-0.1
	c-2.3,0.1-4.5,0.1-6.8-0.1C235.1,554.3,235.3,555.6,236.1,556.6z"/>
<path class="st3" d="M272.5,497.3c-0.7,9.2,0.1,23.4,3,31c1.7,4.9,2.4,10,2.1,15.2c1.1,0.8,2.5,1.1,3.9,0.7
	c-0.9-6-4.5-31.7-6.8-52.1c-1.7-14.1-6.9-27.5-15.1-39.1l-2.5,2.7C263.8,459.3,272.5,497.3,272.5,497.3z"/>
<path class="st13" d="M240.4,348.3l1.8,8.5l8.5,14.2l10.5-4.5c0,0,14.2-14.9,5.3-17c-1.1-0.2-2.1-0.7-3-1.3
	c-1.6-1.2-2.4-3.1-2.3-5.1c0.1-2.1,0.6-4.2,1.5-6.1l-18.3-5.7c0.7,2.4,1.2,4.9,1.3,7.4c0.1,5-1.7,7.4-3.2,8.6
	C241.7,347.8,241.1,348.1,240.4,348.3z"/>
<path class="st3" d="M244.2,331.3c0.7,2.4,1.2,4.9,1.3,7.4c0.3,0.4,0.7,0.8,1.1,1.1c2.7,2.6,6.2,4,9.9,4c1.5,0,3-0.2,4.5-0.7
	c0.1-2.1,0.6-4.2,1.5-6.1L244.2,331.3z"/>
<path class="st13" d="M242.1,329c0,8,6.5,14.5,14.5,14.5c8,0,14.5-6.5,14.5-14.5s-6.5-14.5-14.5-14.5c0,0,0,0,0,0
	c-7.9,0-14.4,6.4-14.4,14.3C242.1,328.9,242.1,328.9,242.1,329z"/>
<path class="st3" d="M240.4,348.3l1.8,8.5l8.5,14.2l10.5-4.5c0,0,14.2-14.9,5.3-17c-1.1-0.2-2.1-0.7-3-1.3c1.6,4.4-5,13.7-5,13.7
	c-0.8,1.1-2.6,0.4-2.6,0.4c-4.3-0.7-12.2-13-13.5-15C241.8,347.8,241.1,348.1,240.4,348.3z"/>
<path class="st3" d="M232.2,430.7c2.5,0.6,16.4,3.7,21.7,2.9c5.8-0.9,17.1-1.4,17.1-1.4s7.2,0.4,9.4-0.6c0-0.3,0-0.4,0-0.4l-4.1-4.9
	c0,0-39.7-3-42.7,0C232.9,427,232.5,428.7,232.2,430.7z"/>
<path class="st1" d="M258.3,362.4c0,0,7.5-10.4,4.7-14.4l12.6,5.2c0,0,7.6-0.9,10.3,10.4c0.4,1.9,0.6,3.8,0.5,5.8
	c-0.1,3,0.6,6,2.1,8.6c3.1,6.2,2.4,20.6-4,22c-6.4,1.4-8.6,0.7-8.6,0.7s0.9,25.9,4.5,28.9s-9.4,2.3-9.4,2.3s-11.3,0.6-17.1,1.4
	c-5.8,0.9-22.1-3-22.1-3s2.4-10.9,3.3-17.9c0.8-6.9,2.8-21.7,2.8-21.7l-14.5-19.6c0,0-2.6-11.8,6.4-17.1c8.9-5.2,12.3-6.5,12.3-6.5
	s9,14.6,13.7,15.3C255.8,362.8,257.5,363.5,258.3,362.4z"/>
<path class="st3" d="M274.9,366.5c0,0,0.1,4.7-0.7,6.5c-0.9,1.8-4,12-4,12h7.1c0,0-3.8-4.1-3.5-6.1
	C274.1,377,274.9,366.5,274.9,366.5z"/>
<path class="st13" d="M253.9,401.8c0,0,15.7-3.8,17.1-7.1c1.5-3.3,5.5-10.6,5.5-10.6l-1.7-2.2l-7.6,6c0,0-9.1,7.2-13.3,7.9
	C249.7,396.5,253.9,401.8,253.9,401.8z"/>
<path class="st12" d="M253.9,401.8c0,0,15.7-3.8,17.1-7.1c1.5-3.3,5.5-10.6,5.5-10.6l-1.7-2.2l-7.6,6c0,0-9.1,7.2-13.3,7.9
	C249.7,396.5,253.9,401.8,253.9,401.8z"/>
<path class="st13" d="M240.4,383.3v8.5h1.4c6.7,0,13.4,1.7,19.3,5l2.6,1.4l0.7,0.4l4.4-9.9l-4.1-3.7h-0.2c-1,0.1-5.4,0.5-7.2-0.2
	c-1.8-0.6-3.9-2.5-9.1-1.2c-2.5,0.7-4.7,3.5-7.2,2.6L240.4,383.3z"/>
<path class="st3" d="M226.7,367.9l-2.8,3.2v7.8c0,0,2.4,24.4,10.1,27.1c7.7,2.7,21.3-1.6,21.3-1.6s3.5-9.4,1.9-9.9s-14.6-4-14.6-4
	s0.2-14.3-2.6-18.5c0,0,1.8-13.3-4.5-13.6C229,358,226.7,367.9,226.7,367.9z"/>
<path class="st1" d="M226.3,367.9l-2.8,3.2v7.8c0,0,2.4,24.4,10.1,27.1c7.7,2.7,21.3-1.6,21.3-1.6s3.5-9.4,1.9-9.9
	c-1.6-0.6-14.6-4-14.6-4s0.2-14.3-2.6-18.5c0,0,1.8-13.3-4.5-13.6S226.3,367.9,226.3,367.9z"/>
<path class="st3" d="M246.1,335.1c-0.1-0.9,0-1.9,0.3-2.8c0.4-0.9,1.3-1.4,2.2-1.3c1.2,0.3,1.8,1.9,2.9,2.2c1.1,0.2,2.1-0.3,2.6-1.3
	c0.4-1,0.6-2,0.5-3.1c0-1.2,0-2.4,0-3.5s0-2.7,0.8-3.7c1-1.3,3.3-1.8,4.9-1.8c1,0,2,0.4,2.8,1.1c0.8,0.8,1.8,1.1,2.9,1
	c1-0.1,1.8-0.8,2-1.8c0,0,0,0,0,0c-4.8-6.4-13.9-7.6-20.3-2.8c-6.4,4.8-7.6,13.9-2.8,20.3c0.5,0.6,1,1.2,1.5,1.7
	C246.3,338,246.2,336.6,246.1,335.1z"/>
<path class="st1" d="M266,321.7c1-0.2,1.8-0.8,2-1.8c0.1-0.5,0.1-1,0.2-1.4c0.3-1.1,1.5-1.7,2.3-2.5c1.6-1.7,1.5-4.5,0.4-6.5
	c-0.9-1.6-2.6-3-4.5-2.7c-1.1,0.2-2.1,1-3.3,1.1c-1.1-0.1-2.2-0.4-3.2-1c-2.5-1.1-5.2-1.4-7.8-0.7c-0.8,0.2-1.5,0.5-2.2,1.1
	c-0.4,0.5-0.8,1.1-1.1,1.6c-1.3,1.7-3.7,2-5.8,2.4c-2.1,0.4-4.5,1.2-5.2,3.2c-0.5,1.3,0,2.8,0.2,4.2c0.1,0.3,0.1,0.6-0.1,0.9
	c-0.3,0.5-1.2,0.3-1.8,0.4c-1.2,0.2-1.5,1.8-1.5,3c-0.1,1.4-0.1,2.8-0.1,4.2c-0.2,1.3,0.3,2.6,1.3,3.5l4.7,5.6
	c2.1,2.5,4.3,5.4,3.9,8.6c1,0.4,2.1-0.4,2.5-1.4c0.2-1.1,0.2-2.2-0.2-3.2c-0.4-1.8-0.6-3.7-0.7-5.5c-0.1-0.9,0-1.9,0.3-2.8
	c0.4-0.9,1.3-1.4,2.2-1.3c1.2,0.3,1.8,1.9,2.9,2.2c1.1,0.2,2.1-0.3,2.6-1.3c0.4-1,0.6-2,0.5-3.1V325c0-1.3,0-2.6,0.8-3.7
	c1-1.3,3.3-1.8,4.9-1.8c1,0,2,0.4,2.8,1.1C263.9,321.4,265,321.8,266,321.7z"/>
<path class="st3" d="M262.8,366.1l-4.4,18.2C258.4,384.4,254.8,384.3,262.8,366.1z"/>
<path class="st3" d="M247.6,363.1c0,0,5.8,9.5,3.5,19.4l-1.1,0.1C250,382.5,252,378,247.6,363.1z"/>
<path class="st3" d="M243.9,416.9c0,0-7.1-2.4-7.7,3.1C236.3,420,237.6,416.3,243.9,416.9z"/>
<path class="st3" d="M264.5,385.5c0,0,1.4,9.9-1.1,13.9c4,1.4,8.3,2,12.5,1.7l0.9-15.6H264.5z"/>
<path class="st3" d="M263.6,398.2l0.7,0.4l4.4-9.9l-4.1-3.7h-0.2l0,0C264.4,385.5,265.5,394,263.6,398.2z"/>
<path class="st1" d="M264.5,385c0,0,1.4,9.9-1.1,13.9c4,1.4,8.3,2,12.5,1.7l5-15.6H264.5z"/>
<path class="st16" d="M276.8,550.6c0.2,1.5,1.3,2.6,2.8,2.8c3.8,0.6,13.1,2,15.5,3.2c3,1.4,14.7,0.4,15.3-1c0.2-0.6,0.1-1.2-0.2-1.7
	c-0.4-0.9-1.1-1.6-1.9-2c-0.3-0.2-0.6-0.3-0.9-0.4c-2.2-0.7-6.4-2.3-7.5-3.9c0,0-5.2-4.6-6.7-7c-0.6-1-1.6-1.6-2.7-1.7
	c-1.2-0.1-2.6,0.6-3.2,3.3c0,0-6.8,3.9-8.6,0.5c0,0-0.3,5.2-1.4,6.7l0,0C276.8,549.6,276.7,550.1,276.8,550.6z"/>
<path class="st3" d="M276.8,550.6c0.2,1.5,1.3,2.6,2.8,2.8c3.8,0.6,13.1,2,15.5,3.2c3,1.4,14.7,0.4,15.3-1c0.2-0.6,0.1-1.2-0.2-1.7
	c-0.4-0.9-1.1-1.6-1.9-2c-1.9,1.3-6.2,2.5-15.5,1.1c-8.9-1.4-13.4-2.8-15.5-3.7l0,0C276.8,549.6,276.7,550.1,276.8,550.6z"/>
<g class="st17">
	<path d="M238.1,318.8C238.1,318.8,238.1,318.8,238.1,318.8c-0.3-1.1-0.4-2.2-0.4-3.3c0.1,0.9,0.2,1.8,0.4,2.6
		C238.1,318.4,238.2,318.6,238.1,318.8z"/>
	<path d="M246.4,332.1c-0.2,0.5-0.3,1.1-0.4,1.6c-0.1-0.8,0.1-1.5,0.4-2.3c0.4-0.9,1.3-1.4,2.2-1.3c1.2,0.3,1.8,1.9,2.9,2.2
		c1.1,0.2,2.1-0.3,2.6-1.3c0.4-1,0.6-2,0.5-3.1c0-1.2,0-2.4,0-3.5s0-2.7,0.8-3.7c1-1.3,3.3-1.8,4.9-1.8c1,0,2,0.4,2.8,1.1
		c0.8,0.8,1.8,1.1,2.9,1c1-0.1,1.8-0.8,2-1.8c0.1-0.5,0.1-1,0.2-1.4c0.3-1.1,1.5-1.7,2.3-2.5c0.7-0.8,1.2-1.9,1.2-3
		c0.1,1.3-0.3,2.6-1.2,3.6c-0.8,0.9-2,1.4-2.3,2.5c-0.1,0.5-0.1,0.9-0.2,1.4c-0.3,0.9-1.1,1.6-2,1.8c-1.1,0.1-2.2-0.3-2.9-1
		c-0.8-0.7-1.7-1.1-2.8-1.1c-1.5-0.1-3.9,0.5-4.9,1.8c-0.8,1-0.8,2.4-0.8,3.7c0,1.3,0,2.4,0,3.5c0.1,1.1-0.1,2.1-0.5,3.1
		c-0.4,1-1.5,1.5-2.6,1.3c-1.2-0.4-1.7-2-2.9-2.2C247.7,330.6,246.8,331.2,246.4,332.1z"/>
	<path d="M234.8,328.2c0.3,0.7,0.7,1.4,1.2,2l4.7,5.6c2,2.4,4.1,5.1,3.9,8.1c-0.1-2.8-2.1-5.3-3.9-7.5l-4.7-5.6
		c-1-0.9-1.5-2.2-1.3-3.5C234.6,327.6,234.7,327.9,234.8,328.2z"/>
	<path d="M247,342.9c0.1-0.2,0.1-0.5,0.1-0.8c0,0.5,0,0.9-0.1,1.4c-0.3,1-1.5,1.9-2.5,1.4c0-0.2,0-0.4,0-0.6
		C245.6,344.6,246.7,344,247,342.9z"/>
</g>
<path class="st3" d="M294.1,541.7c0,0-1.5,2.6-6.8,0.3"/>
<path class="st3" d="M248.7,542.3c0,0-4.6,5.5-10.5,1.8"/>
<path class="st3" d="M235.2,477.9c0,0,3.3,2,3.4,3.2c0.1,1.2-1.7-0.9-1.7-0.9L235.2,477.9z"/>
<path class="st3" d="M233.9,493.5c1.1,0.9,2.6,1.5,4,1.6c2.4,0.1,2.2,3.3,0.6,2.3C236.9,496.3,235.4,495,233.9,493.5z"/>
<path class="st3" d="M233.3,495.6c0,0,1.6,7.7,2.9,6.2"/>
<path class="st18" d="M74.3,543.9c2.6-4.8-0.4-10.8-3.8-15.1c-3.4-4.3-7.6-8.8-7.5-14.3c0.1-7.9,8.5-12.6,15.2-16.8
	c5-3.1,9.6-6.8,13.7-11c1.7-1.6,3.1-3.5,4.2-5.6c1.4-3.1,1.3-6.6,1.3-10c-0.3-11.3-0.9-22.6-1.7-33.9"/>
<path class="st2" d="M108.5,436.6c-0.2-4.2-2.5-8-6.2-10.1l-2.8,5.5l0.1-6.6c-6.5-1.9-13.4,1.8-15.3,8.4c-1.9,6.5,1.8,13.4,8.4,15.3
	c6.5,1.9,13.4-1.8,15.3-8.4C108.4,439.3,108.6,437.9,108.5,436.6L108.5,436.6z"/>
<path class="st2" d="M86.5,520.1c-3.1,6-10.5,8.4-16.6,5.3c-6-3.1-8.4-10.5-5.3-16.6c3.1-6,10.5-8.4,16.6-5.3
	c2.7,1.4,4.8,3.8,5.9,6.7l-7.7,6.3l8.5-2C87.8,516.5,87.4,518.4,86.5,520.1z"/>
<path class="st2" d="M80.4,496.2c-6.8,0.5-12.7-4.6-13.2-11.4c-0.4-5.9,3.5-11.3,9.2-12.8l-0.1,5.1l2.8-5.5l0,0
	c6.8-0.3,12.6,4.9,12.9,11.7c0,0,0,0,0,0.1c0.1,1.4-0.1,2.9-0.5,4.2C90,492.4,85.6,495.9,80.4,496.2z"/>
<path class="st2" d="M110.4,476.2c-6.8,0.3-12.5-5-12.8-11.8c-0.3-6.8,5-12.5,11.8-12.8c2.2-0.1,4.4,0.4,6.4,1.5l-2.2,6l4.5-4.3
	c2.4,2.2,3.8,5.3,4,8.5c0.1,1.1,0,2.3-0.3,3.4C120.5,472.1,115.9,475.9,110.4,476.2z"/>
<path class="st3" d="M106.8,439.9c-2.9,0.3-5.6,1.2-8.5,1.4c-2.9,0.2-6-0.5-7.8-2.7c-1-1.2-1.5-2.7-2.3-4c-0.8-1.2-1.9-2.2-3.1-2.9
	c-2.9,6.1-0.3,13.5,5.8,16.4c6.1,2.9,13.5,0.3,16.4-5.8c0.4-0.8,0.7-1.6,0.9-2.4C107.8,439.8,107.3,439.8,106.8,439.9z"/>
<path class="st3" d="M110.4,476.2c-6.8,0.3-12.6-4.9-12.9-11.7c-0.1-2,0.3-4.1,1.2-5.9c1,0.7,1.8,1.5,2.5,2.5
	c0.9,1.3,1.4,2.9,2.4,4.1c1.9,2.3,5.2,3,8.2,2.9s5.9-1,8.8-1.3c0.4,0,0.8-0.1,1.2-0.1C120.5,472.1,115.8,475.9,110.4,476.2z"/>
<path class="st3" d="M80.4,496.2c-6.8,0.3-12.6-4.9-12.9-11.7c-0.1-2,0.3-3.9,1.1-5.7c1,0.7,1.9,1.5,2.6,2.5c1,1.4,1.6,2.9,2.7,4.2
	c2.1,2.3,5.6,3.1,8.7,3.1c3.1-0.1,6-0.8,9-1C90.1,492.4,85.6,495.9,80.4,496.2z"/>
<path class="st3" d="M86.5,520.1c-2.8,6.2-10.1,9-16.3,6.2c-6.2-2.8-9-10.1-6.2-16.3c1,0.7,1.9,1.5,2.7,2.4c1.2,1.4,2,3.1,3.3,4.4
	c2.5,2.5,6.6,3.5,10.2,3.6C82.3,520.5,84.4,520.4,86.5,520.1z"/>
<path class="st19" d="M55.6,538.3c0,0,9.7-0.3,12.7-2.4c2.9-2.1,15-4.6,15.7-1.2c0.8,3.4,14.6,16.7,3.6,16.8s-25.6-1.8-28.5-3.5
	C56.2,546.2,55.6,538.3,55.6,538.3z"/>
<path class="st20" d="M87.9,550.3c-11,0.1-25.6-1.7-28.5-3.5c-2.2-1.4-3.1-6.2-3.4-8.5h-0.3c0,0,0.6,7.9,3.5,9.7
	c2.9,1.8,17.5,3.6,28.5,3.5c3.2,0,4.3-1.2,4.2-2.8C91.5,549.7,90.3,550.3,87.9,550.3z"/>
</svg>
