<?xml version="1.0" encoding="utf-8"?>
<!-- Generator: Adobe Illustrator 23.0.6, SVG Export Plug-In . SVG Version: 6.00 Build 0)  -->
<svg version="1.1" id="Calque_1" xmlns="http://www.w3.org/2000/svg" xmlns:xlink="http://www.w3.org/1999/xlink" x="0px" y="0px"
	 viewBox="0 0 861.2 861.2" style="enable-background:new 0 0 861.2 861.2;" xml:space="preserve">
<style type="text/css">
	.st0{opacity:0.1;fill:#50BFB0;enable-background:new    ;}
	.st1{fill:url(#SVGID_1_);}
	.st2{fill:#D38884;}
	.st3{fill:#444053;}
	.st4{fill:#B07473;}
	.st5{opacity:0.1;enable-background:new    ;}
	.st6{fill:#50BFB0;}
	.st7{fill:#67647E;}
	.st8{fill:#585268;}
	.st9{fill:#E1E7EF;}
	.st10{fill:url(#SVGID_2_);}
	.st11{fill:#A27772;}
	.st12{fill:#CC818C;}
	.st13{opacity:0.1;}
	.st14{fill:#F6F8FB;}
	.st15{fill:url(#SVGID_3_);}
	.st16{fill:#65617D;}
	.st17{fill:#FBBEBE;}
	.st18{opacity:5.000000e-02;enable-background:new    ;}
	.st19{fill:#7C5C5C;}
	.st20{fill:url(#SVGID_4_);}
	.st21{fill:#FDC2CC;}
	.st22{fill:#D39999;}
	.st23{fill:#7E5659;}
	.st24{fill:#865A61;}
	.st25{opacity:5.000000e-02;}
	.st26{fill:url(#SVGID_5_);}
	.st27{opacity:0.5;fill:#FFFFFF;enable-background:new    ;}
	.st28{fill:#3F2B3B;}
	.st29{fill:none;stroke:#3F2B3B;stroke-width:0.7426;stroke-miterlimit:10;}
	.st30{fill:#A8A8A8;}
	.st31{opacity:0.2;enable-background:new    ;}
</style>
<title>team spirit</title>
<g>
	<path class="st0" d="M17.3,413.3c13.4,52.1,41.7,97.1,86.4,119c93,45.4,302.6,22,459-4.9c80.9-13.9,152-52.2,203.7-106.2
		L17.3,413.3z"/>
	<path class="st0" d="M837.7,168.1h-85.8c-4.1,0-7.4-3-7.4-6.8c0-3.7,3.3-6.8,7.4-6.8h14.9c-4.1,0-7.4-3-7.4-6.8
		c0-3.7,3.3-6.8,7.4-6.8h-10.6c-4.1,0-7.4-3-7.4-6.8c0-3.7,3.3-6.8,7.4-6.8h44.8c-9.9-4.2-21.5-7.2-34.9-8.8
		c-122.2-14.3-165.8-4.8-181.2,4.9c-19.2,12.3-40.5,20.8-62.8,25.1c-75.4,14.2-216.3,31.2-344.1-5.5c-63.5-18.2-110.7,12.6-139,64.1
		h813.7c-1.1-15-4.2-28.8-10.1-40.9C841.1,167.5,839.4,168.1,837.7,168.1z"/>
	<path class="st0" d="M10,304.5c-3.3,30.3-2.2,60.9,3.3,90.9L767,420.5c20.8-21.7,38.4-46.2,52.4-72.8L10,304.5z M308.1,369.4h-14.9
		c4.1,0,7.4,3,7.4,6.8c0,3.7-3.3,6.8-7.4,6.8h-85.8c-4.1,0-7.4-3-7.4-6.8c0-3.7,3.3-6.8,7.4-6.8h14.9c-4.1,0-7.4-3-7.4-6.8
		c0-3.7,3.3-6.8,7.4-6.8h-10.6c-4.1,0-7.4-3-7.4-6.8c0-3.7,3.3-6.8,7.4-6.8h85.8c4.1,0,7.4,3,7.4,6.8c0,3.7-3.3,6.8-7.4,6.8h10.6
		c4.1,0,7.4,3,7.4,6.8C315.5,366.3,312.2,369.4,308.1,369.4z"/>
	<path class="st0" d="M852.6,207.8L29.8,226c-10,23.5-16.7,50-19.7,77.5h828.1c5.4-16.1,9.4-32.6,12-49.4
		C852.6,237.9,853.6,222.3,852.6,207.8z M177.2,267.6h-14.9c4.1,0,7.4,3,7.4,6.8c0,3.7-3.3,6.8-7.4,6.8H76.5c-4.1,0-7.4-3-7.4-6.8
		c0-3.7,3.3-6.8,7.4-6.8h14.9c-4.1,0-7.4-3-7.4-6.8s3.3-6.8,7.4-6.8H80.7c-4.1,0-7.4-3-7.4-6.8s3.3-6.8,7.4-6.8h85.8
		c4.1,0,7.4,3,7.4,6.8s-3.3,6.8-7.4,6.8h10.6c4.1,0,7.4,3,7.4,6.8S181.3,267.6,177.2,267.6z"/>
	<ellipse class="st0" cx="501.5" cy="668.3" rx="55.9" ry="12.5"/>
	<ellipse class="st0" cx="631.3" cy="708.1" rx="100.8" ry="8.3"/>
	<ellipse class="st0" cx="226.7" cy="695.6" rx="100.8" ry="12.5"/>
	<ellipse class="st0" cx="380.3" cy="632.8" rx="75.8" ry="12.5"/>
	<ellipse class="st0" cx="401.5" cy="737.3" rx="60.7" ry="12.5"/>
	
		<linearGradient id="SVGID_1_" gradientUnits="userSpaceOnUse" x1="396.9909" y1="204.0029" x2="396.9909" y2="642.9842" gradientTransform="matrix(1 0 0 -1 -31.16 842.86)">
		<stop  offset="0" style="stop-color:#808080;stop-opacity:0.25"/>
		<stop  offset="0.54" style="stop-color:#808080;stop-opacity:0.12"/>
		<stop  offset="1" style="stop-color:#808080;stop-opacity:0.1"/>
	</linearGradient>
	<path class="st1" d="M437,334.4c-1.6-10.8-11.4-36-11.4-36l0,0c-0.2-0.7-0.4-1.5-0.6-2.2c-7-23.9-16.6-26-16.6-26l-34.5-7.4
		c0.3,0.2,0.5,0.4,0.7,0.7c-0.2,0-0.4,0-0.5,0.1c-1.6-1.9-2.6-4.1-3-6.5c-0.1-0.4-0.1-0.7-0.2-1.1c9.6-9.4,9.8-24.7,0.4-34.3
		c-0.8-0.8-1.6-1.5-2.4-2.2c-0.4-0.3-0.7-0.6-1.1-0.8c1.6-1.7,1.7-4.1,0.5-6.5c-2.7-5.6-8.6-9.2-14.7-11c-4.6-1.3-9.7-1.8-14.3-0.3
		c-2.6,0.8-5,2.2-7.5,3.5c-4.6,2.3-9.7,4.1-13.1,7.9c-0.8,0.9-1.5,2-1.3,3.2c0.2,0.9,0.9,1.5,1.3,2.3c1,1.7,0.7,3.9,0.1,5.7
		c-0.7,1.9-1.7,3.6-2.1,5.5s-0.3,4.2,1.2,5.5c0.7,0.5,1.4,1,2.2,1.5c0.8,0.7,1.5,1.4,2.1,2.3c1.4,1.8,2.7,3.7,4.1,5.5
		c1.9,2.4,3.6,5,5.1,7.8c1,2,1.8,4.1,3.2,5.9c0.4,0.5,0.9,1,1.4,1.4l-0.4-0.2c1.2,1.2,2.8,1.9,4.5,1.8l0,0c0.1,0,0.1,0,0.2,0
		c0.3,0,0.6-0.1,0.8-0.3c0,0.3,0,0.5,0,0.7c0.1,2.7,0.1,5.5-0.1,8.1l-0.3-0.2c-1-0.5-2.1-0.4-3,0.3l-31.8,25.5c0,0-6.9,9.4-5.9,25.8
		l-5.6,24.5c0,0-7,20.7-1.6,35.6c5.4,14.8,8.5,23.3,8.5,23.3s2.1,16.8,5.4,18.2s4.6,2.1,4.6,2.1l0.6,4l0,0c0,0,0.2,0.4,0.6,1.1
		c2.3,4.1,11,18.4,16,16.9c0.6,3.9,0.9,7.8,0.8,11.8l5,33.5c0,0,3.5,9.1,3.3,13.9s4.1,11.6,4.1,11.6c-2.6,4.7-3.4,10.3-2.1,15.6
		c2,8.9,4.6,50,4.6,50l3.7,10l-0.1,11.7c-0.3,1.9-1.1,3.7-2.3,5.2c-2.4,2.6-2.2,5.6-8,9.2c-5.8,3.6-9.5,4.9-9.5,9.7
		c0,0.7-0.1,1.3-0.2,2c-0.5,3.5-1.6,5.4,9.1,6.4c12.5,1.2,20.9-7,20.9-7s1.8-3.3,10.5-4.7c0,0,3-0.2,3.1-2.8c0.1-0.9,0-2.6,0-4.5
		c-0.1-3.6-0.5-7.9-1-8.1c-0.6-0.3-1.6-3.9-1.9-5.2h2.4c0,0,2.2-16.8,0-27.7c-2.2-10.9-0.2-18.6-0.2-18.6l-0.4-28.8
		c0,0-3-3.2-0.6-8.8c2.3-5.6,0-33.3,0-33.3s0.9-10,3.3-12.3c2.5-2.3,0.1-14.6,0-15.2l4.4,14.7c0,0,1.9,29.2,6,34.5l1.2,13.2
		c0,0,8.3,12.2,6.7,18.7c-1.6,6.6,1.7,30.3,1.7,30.3v24.2c0,0-3.8,9.7,1.5,13.2l2.2-0.1c-0.7,0.7-1.3,1.7-2.2,2.6
		c-1,1-1.6,5-1.9,8.3c-0.3,2.9-0.4,5.3-0.4,5.3s2.2,3.6,6.4,3.8c4.2,0.2,18,10.8,18,10.8s13.7,0,17.2-0.7l0.2-0.1
		c1.1-0.4,2.1-1.1,2.7-2.2c0.7-1.2,0.9-2.6,0.6-4c-0.4-2.1-2.1-4.4-5.8-6.3c-9.1-4.8-10.5-9.3-10.5-9.3l-6-9h0.9c0,0-0.5-9.5,6-20.2
		l-0.4-47.1c0,0,2.7-16.2-1.9-25c0,0-0.4-9.3,2.7-12.2s-4.1-31.8-4.1-31.8s-1.5-15.5-3.2-29.7l0,0c7.2,6.9,14.7-17.8,16-22.2h0.2
		l-0.1-0.3c0.1-0.2,0.1-0.3,0.1-0.3l0,0c0,0-1.6-5.7-0.4-4.5c1.2,1.2,4.1-3.2,4.1-3.2s-0.4-23.6,4.6-35.5
		C444.3,363.4,437,334.4,437,334.4z M415.5,349.4L415.5,349.4c0.8,14.3-0.1,45.1-0.1,45.1s-1,3.9-2.1,8.6l-0.7-29.2l0,0l-0.7-27.5
		L415.5,349.4z M323.3,339.5c0,0,3.6,45.5,0,52.1c-1,1.9-1.9,5.2-2.6,9c-1.2-3.2-3.8-10.6-2.8-14.5c1.2-5.1-2.4-18.4-2.4-18.7
		c0-0.3-0.3-7.4,2.2-12.9c2.5-5.4,0.9-7.8,0.9-7.8S320.7,337.8,323.3,339.5z"/>
	<path class="st2" d="M332.2,442c-3.2,13.9-15.8-7.1-18.7-12.2c-0.4-0.7-0.6-1-0.6-1l1.4-6.4l7.2-3c1.1,0.6,2.2,1.3,3.2,2.1
		C328.7,424.6,334.6,431.2,332.2,442z"/>
	<path class="st2" d="M430,419.2c0,0,0,0.1-0.1,0.3c0,0.1-0.1,0.2-0.1,0.3c-1.2,4.4-8.6,28.9-15.7,22c-7.8-7.4-4-24.6-4-24.6h0.1
		l16.3-1.7l3.2,3.3l0,0L430,419.2z"/>
	<path class="st3" d="M420.5,539.8l0.4,46.8c-6.4,10.6-5.9,20.1-5.9,20.1l-21.1,0.8c-5.2-3.5-1.5-13.1-1.5-13.1v-24.1
		c0,0-3.3-23.5-1.7-30.1c1.6-6.5-6.6-18.6-6.6-18.6l-1.2-13.1c-4-5.3-5.9-34.2-5.9-34.2l-4.3-14.6c0.1,0.6,2.3,12.9,0,15.1
		c-2.3,2.3-3.3,12.2-3.3,12.2s2.3,27.5,0,33.1c-2.3,5.6,0.6,8.7,0.6,8.7l0.4,28.6c0,0-2,7.7,0.2,18.5c2.2,10.8,0,27.5,0,27.5h-22.7
		l0.1-11.7l-3.7-9.9c0,0-2.5-40.8-4.5-49.6c-1.2-5.2-0.5-10.7,2.1-15.4c0,0-4.2-6.7-4-11.5s-3.2-13.8-3.2-13.8l-4.9-33.2
		c0.1-6.4-0.7-12.8-2.4-18.9c-2.8-9.5-7-21.9-7-21.9l4.7,0.4l23.9,2.1c0,0,58.2-3.9,60.8-0.7c0.5,1.1,0.9,2.2,1.1,3.4
		c2.6,11.7,6.1,48.5,6.1,48.5s7,28.7,4,31.5c-3,2.8-2.7,12.1-2.7,12.1C423.2,523.6,420.5,539.8,420.5,539.8z"/>
	<path class="st4" d="M371.3,621c-0.2,2.6-3.1,2.8-3.1,2.8c-8.5,1.3-10.3,4.6-10.3,4.6s-8.2,8.1-20.5,6.9c-10.5-1-9.5-2.9-8.9-6.3
		c0.1-0.6,0.2-1.3,0.2-1.9c0-4.7,3.6-6.1,9.3-9.7c5.7-3.6,5.5-6.5,7.9-9.1c2.4-2.6,2.6-7.6,2.6-7.6c2.7-4.7,9.5,0.7,9.5,0.7
		c0.3,1.6,10.4,1.4,10.4,1.4s1.3,5.4,2,5.7c0.5,0.2,0.8,4.4,0.9,8C371.4,618.4,371.4,620.1,371.3,621z"/>
	<path class="st5" d="M371.3,621c-0.2,2.6-3.1,2.8-3.1,2.8c-8.5,1.3-10.3,4.6-10.3,4.6s-8.2,8.1-20.5,6.9c-10.5-1-9.5-2.9-8.9-6.3
		c4.7,1.2,13.6,2.8,18.8-0.1c7.3-3.9,12.5-6.7,12.5-6.7l11.5-5.8C371.4,618.4,371.4,620.1,371.3,621z"/>
	<path class="st4" d="M435.5,635c-0.6,1-1.5,1.8-2.6,2.2l-0.2,0.1c-3.5,0.7-16.9,0.7-16.9,0.7s-13.6-10.5-17.7-10.7
		s-6.3-3.8-6.3-3.8s0.1-2.4,0.3-5.3c0.3-3.4,0.9-7.3,1.9-8.3c1.8-1.9,2.2-4.5,6.3-2.8c0,0,5.8-10.3,12.7-2.3l7.1,10.8
		c0,0,1.3,4.5,10.3,9.3c3.6,1.9,5.2,4.2,5.7,6.3C436.4,632.5,436.2,633.9,435.5,635z"/>
	<path class="st5" d="M435.5,635c-0.8,0.7-1.7,1.4-2.6,2.2l-0.2,0.1c-3.5,0.7-16.9,0.7-16.9,0.7s-13.6-10.5-17.7-10.7
		s-6.3-3.8-6.3-3.8s0.1-2.4,0.3-5.3c4.2,1.2,10.5,3.5,12.2,5.8c2.6,3.6,10.5,8.7,10.5,8.7s14.7-1.4,21.3-1.6
		C436.4,632.5,436.2,633.9,435.5,635z"/>
	<path class="st2" d="M378.2,268.4l-19.4,20.5c0,0-23.5-1.7-19.4-8.7c2.1-3.5,2.4-10.9,2.2-17.4c-0.2-6.2-0.8-11.5-0.8-11.5
		s32.9-16.4,30.4-1.1c-0.5,2.9-0.6,5.8-0.1,8.7C372.6,266.7,378.2,268.4,378.2,268.4z"/>
	<path class="st5" d="M371.2,250.2c-0.5,2.9-0.6,5.8-0.1,8.7c-4.6,4.6-10.8,7.2-17.2,7.2c-4.5,0-9.3-3.7-12.9-5.8
		c-0.2-6.2-0.2-9-0.2-9S373.8,234.9,371.2,250.2z"/>
	<path class="st2" d="M378.2,240.6c0,13.4-10.9,24.3-24.3,24.3c-13.4,0-24.3-10.9-24.3-24.3c0-13.4,10.9-24.3,24.3-24.3
		c5.5,0,10.8,1.9,15.2,5.3C374.8,226.3,378.2,233.2,378.2,240.6z"/>
	<path class="st5" d="M411.2,422.8c-6,14.4-44.9,14.7-44.9,14.7v-15.7l-2.4-0.2c1,4.5-1.4,15.4-1.4,15.4
		c-30.7,4.3-38.2-13.2-38.2-13.2l1.1-6l23.9,2.1c0,0,58.2-3.9,60.8-0.7C410.7,420.5,411,421.6,411.2,422.8z"/>
	<path class="st6" d="M366.3,435.6v-15.7l-2.4-0.1c1,4.5-1.4,15.4-1.4,15.4c-23.1,3.3-33.1-5.8-36.6-10.6c-0.6-0.8-1.2-1.7-1.6-2.6
		l9.4-52.8l2.2-77.7l3.4-13.6l0.8-6.5v-0.1h0.1l2.4,1l14.3,6.2l16.3-12.3l0.2-0.2l0.8-0.6l1.3,1.1l3.3,2.7l10.7,69.2
		c0,0,18.6,53.3,22,74.8c0.1,0.9,0.3,1.7,0.3,2.4C414.2,435.2,366.3,435.6,366.3,435.6z"/>
	<circle class="st7" cx="358.6" cy="280" r="1.4"/>
	<circle class="st7" cx="359.2" cy="292.6" r="1.4"/>
	<circle class="st7" cx="360.6" cy="313" r="1.4"/>
	<circle class="st7" cx="362.9" cy="335" r="1.4"/>
	<circle class="st7" cx="364.2" cy="355.7" r="1.4"/>
	<circle class="st7" cx="365.6" cy="377.7" r="1.4"/>
	<circle class="st7" cx="365.1" cy="399.4" r="1.4"/>
	<path class="st5" d="M341,376.9c0,0-1.5,20.2-4.4,26.1s-4.1,22.4-4.1,22.4l-6.6-0.7c-0.6-0.8-1.2-1.7-1.6-2.6l9.4-52.8l2.2-77.7
		l3.4-13.6l0.8-6.5l0.1,0c0.7-0.4,1.6-0.3,2.3,0l0.3,0.2c-0.1,0.3-0.2,0.5-0.3,0.8c-2.6,8-3.5,22.9-3.5,22.9s3.7,27.1,4.1,39.7
		C343.5,347.5,341,376.9,341,376.9z"/>
	<path class="st5" d="M324.8,421.5c-0.1,0.2-0.2,0.3-0.3,0.5c-2.6,4.3-9,7.1-11,7.8c-0.4-0.7-0.6-1-0.6-1l1.4-6.4l7.2-3
		C322.7,420,323.8,420.7,324.8,421.5z"/>
	<path class="st7" d="M307.3,318.3l-6,3.6l-5.5,24.3c0,0-6.8,20.6-1.6,35.3c5.3,14.7,8.3,23.1,8.3,23.1s2.1,16.7,5.3,18.1
		c3.2,1.4,4.5,2.1,4.5,2.1l0.6,4c0,0,8.6-2.9,11.6-8c3-5.1-2.2-17.8-2.2-17.8s-4.5-10.8-3.4-15.9c1.2-5-2.3-18.3-2.3-18.6
		s-0.3-7.4,2.2-12.8c2.5-5.4,0.8-7.7,0.8-7.7l-1.6-15.4L307.3,318.3z"/>
	<path class="st5" d="M411.7,418.3c0,0-15.9,6-20.9,0.7c-5-5.2-4.5-29.8-4.5-29.8s-4.8-45.4-7.9-52.9c-3.1-7.5-1.5-61.3-1.5-61.3
		s-2-7-3.8-8.8c-0.1-0.1-0.2-0.2-0.4-0.3l0.6,0.1l2.2,0.5l3.3,2.7l10.7,69.2c0,0,18.6,53.3,22,74.8L411.7,418.3z"/>
	<path class="st5" d="M430,419.8h-0.2c-2,0.3-19.6,2.4-19.7-1.3c0-0.4,0-0.8,0.1-1.3l16.3-1.7l3.2,3.3l0,0c0.1,0.2,0.1,0.4,0.1,0.5
		L430,419.8z"/>
	<path class="st7" d="M413.1,294l11.6,6c0,0,9.7,25,11.2,35.7c0,0,7.2,28.7,2.2,40.5c-4.9,11.8-4.5,35.2-4.5,35.2s-2.8,4.3-4,3.2
		c-1.2-1.2,0.4,4.5,0.4,4.5s-19.8,2.6-19.9-1.3c-0.1-3.9,4.5-22.5,4.5-22.5s1.3-44.2-0.5-51.2S413.1,294,413.1,294z"/>
	<path class="st5" d="M378.5,341.1c0,0-6.5,16-8.6,17c-2.1,1.1,0.4,5.3,0.4,5.3S382.2,346.8,378.5,341.1z"/>
	<path class="st5" d="M374.6,285.1c0.1-0.3-7.8,7.7-9.9,8.9S372.4,294,374.6,285.1z"/>
	<path class="st5" d="M352.8,339.9c0,0-12,7.7-10.4,10.8C343.9,353.7,352.8,339.9,352.8,339.9z"/>
	<path class="st5" d="M374.5,452.9c0,0,10.2,6.6,26.1,8.2L374.5,452.9z"/>
	<path class="st5" d="M350,468.7c0,0,9.5,11.9,13.8,12.2C368.1,481.2,350,468.7,350,468.7z"/>
	<path class="st5" d="M363.3,515.3c-0.4,0.2-5.4,10.7-10.4,11C347.8,526.6,363.3,515.3,363.3,515.3z"/>
	<path class="st5" d="M407.1,538.3c0,0,9.4-2.1,11.5,4.6C418.5,542.9,417.9,540.8,407.1,538.3z"/>
	<path class="st5" d="M400.8,576.7c0,0,11.4-2.3,13.8,0.8S400.8,576.7,400.8,576.7z"/>
	<path class="st5" d="M368.7,582.1c0,0.1-11.6,2.3-11.1,3.8s12.3,1.3,12.8-1.1C370.6,583.6,369.9,582.4,368.7,582.1
		C368.7,582.1,368.7,582.1,368.7,582.1z"/>
	<path class="st5" d="M397,592.1c0,0,19-2.3,17.8,1.7C413.6,597.7,397,592.1,397,592.1z"/>
	<path class="st5" d="M297.6,358.1c0.1,0.3,12.5,2,14.2,6c0,0-12.2-5.7-14.1-5.7"/>
	<path class="st5" d="M315,390.6c0,0-10.3,3.3-9.6,8.2C306.2,403.7,304.4,396.5,315,390.6z"/>
	<path class="st5" d="M310.2,415.6c0,0,3.8-5.1,7.3-4.2C321.1,412.4,310.2,415.6,310.2,415.6z"/>
	<path class="st5" d="M369,221.6c-0.4,0.4-0.8,0.7-1.2,0.9c-3,1.7-3.8,4.4-5.2,7.5c-1.3,2.8-2.8,5.8-5.4,7.4
		c-3.4,2.1-7.9,1.3-11.5,3.1c-3.2,1.7-5.1,5.2-4.8,8.8c0.2,1.4,0.6,2.7,1,4c0.8,2.8,1.2,5.8,1.1,8.7c0,0.1,0,0.2,0,0.3
		c-12-6-16.9-20.6-10.9-32.6c6-12,20.6-16.9,32.6-10.9C366.3,219.7,367.7,220.6,369,221.6L369,221.6z"/>
	<path class="st8" d="M368.4,214.3c-2.7-5.6-8.5-9.1-14.4-10.9c-4.6-1.3-9.5-1.7-14-0.3c-2.6,0.8-4.9,2.2-7.3,3.4
		c-4.5,2.3-9.4,4.1-12.8,7.8c-0.8,0.9-1.5,2-1.3,3.1c0.2,0.9,0.8,1.5,1.3,2.3c1,1.7,0.7,3.9,0.1,5.7c-0.7,1.9-1.6,3.6-2.1,5.5
		c-0.5,1.9-0.3,4.1,1.1,5.5c0.6,0.6,1.4,1,2.1,1.5c0.8,0.7,1.4,1.4,2,2.3l4,5.5c1.9,2.4,3.6,5,5,7.7c1,2,1.8,4.1,3.1,5.9
		c1.3,1.8,3.4,3.2,5.6,3c0.3,0,0.7-0.1,0.9-0.4c0.1-0.2,0.1-0.4,0.1-0.6c0.1-2.9-0.3-5.9-1.1-8.7c-0.4-1.3-0.8-2.7-1-4
		c-0.3-3.6,1.5-7.1,4.8-8.8c3.6-1.8,8.1-1,11.5-3.1c2.7-1.6,4.1-4.6,5.4-7.4c1.4-3.1,2.2-5.7,5.2-7.5
		C369.6,220.2,369.9,217.3,368.4,214.3z"/>
	<path class="st5" d="M357.5,611.1c0,0,3.7,4.7,2.7,7.4C359.3,621.2,357.5,611.1,357.5,611.1z"/>
	<path class="st5" d="M407.8,622.9c0,0,0.8-6.3,4.1-6.4c3.3-0.1,3.5-0.3,6,0.6c2.5,1,4.9,2.5,4.1,2.7s-4.3-3.6-8-1.7
		C411.7,619.5,409.6,621.1,407.8,622.9z"/>
	<path class="st5" d="M346.5,286.4l10.4-7.3c0,0-15.2-9-17-7.7c-1.8,1.3-3.1,12.6-3.1,12.6L346.5,286.4z"/>
	<path class="st9" d="M346.4,286l10.4-7.4c0,0-15.2-9-17-7.7c-1.8,1.3-3.1,13.2-3.1,13.2L346.4,286z"/>
	<path class="st6" d="M346.4,286l10.4-7.4c0,0-15.2-9-17-7.7c-1.8,1.3-3.1,13.2-3.1,13.2L346.4,286z"/>
	<path class="st7" d="M341.5,270.9l-0.3-0.2c-0.9-0.5-2.1-0.4-2.9,0.3l-31.2,25.3c0,0-6.8,9.4-5.8,25.6l18.4,26.1
		c0,0,2.1-8.8,4.6-7.1c0,0,3.6,45.2,0,51.7s-5.1,30.9-5.1,30.9l12.1,1.4c0,0,1.3-16.5,4.1-22.4s4.4-26.1,4.4-26.1s2.6-29.4,2.1-42
		c-0.4-12.6-4.1-39.7-4.1-39.7S338.8,278.7,341.5,270.9z"/>
	<path class="st5" d="M372.6,281.8l-13-4.8c0,0,16.5-18.1,18.6-8L372.6,281.8z"/>
	<path class="st9" d="M372.6,281.2l-13-4.8c0,0,16.5-18.1,18.6-8L372.6,281.2z"/>
	<path class="st6" d="M372.6,281.2l-13-4.8c0,0,16.5-18.1,18.6-8L372.6,281.2z"/>
	<path class="st5" d="M372.2,265.8c0.2,0,0.4,0,0.5,0.1L372.2,265.8z"/>
	<path class="st7" d="M373.4,264.6l34.4,7.4c0,0,9.5,2.1,16.3,25.9c6.8,23.7-9.4,52.8-9.4,52.8l-3.6-3L413,417c0,0-15.9,6-20.9,0.7
		c-5-5.2-4.5-29.9-4.5-29.9s-4.8-45.4-7.9-52.9c-3.1-7.5-1.5-61.3-1.5-61.3S375.3,264.2,373.4,264.6z"/>
	<path class="st5" d="M404.9,308.8c-0.5,0.4-1,21.4,1.1,37.4c1.3,9.7,3.3,19.3,5.9,28.8l-3.1-64C408.7,311,406.3,307.4,404.9,308.8z
		"/>
	<path class="st5" d="M400.7,290.7c0.8,0.5,4.5,9.2,2.8,12.8S400.7,290.7,400.7,290.7z"/>
	<path class="st5" d="M368.2,214.3c-1.7-3.3-4.3-6.1-7.6-7.9c2.4,1.7,4.4,4,5.7,6.7c1.5,3,1,5.9-1.8,7.6s-3.8,4.4-5.2,7.5
		c-1.3,2.8-2.8,5.8-5.4,7.4c-3.4,2.1-7.9,1.3-11.5,3.1c-3.2,1.7-5.1,5.2-4.8,8.8c0.2,1.4,0.6,2.7,1,4c0.8,2.8,1.2,5.8,1.1,8.7
		c0,0.2,0,0.4-0.1,0.6c-0.2,0.3-0.5,0.4-0.9,0.4c-0.9,0.1-1.8-0.1-2.6-0.5c1.2,1.2,2.8,1.8,4.5,1.7c0.5,0.1,0.9-0.3,1-0.7
		c0-0.1,0-0.2,0-0.2c0.1-3-0.3-5.9-1.1-8.7c-0.5-1.3-0.8-2.7-1-4c-0.3-3.6,1.5-7.1,4.8-8.8c3.6-1.8,8.1-1,11.5-3.1
		c2.7-1.6,4.1-4.6,5.4-7.4c1.4-3.1,2.2-5.7,5.2-7.5C369.3,220.2,369.7,217.3,368.2,214.3z"/>
	
		<linearGradient id="SVGID_2_" gradientUnits="userSpaceOnUse" x1="538.5708" y1="165.7784" x2="538.5708" y2="619.366" gradientTransform="matrix(1 0 0 -1 -31.16 842.86)">
		<stop  offset="0" style="stop-color:#808080;stop-opacity:0.25"/>
		<stop  offset="0.54" style="stop-color:#808080;stop-opacity:0.12"/>
		<stop  offset="1" style="stop-color:#808080;stop-opacity:0.1"/>
	</linearGradient>
	<path class="st10" d="M579.8,307.6c-10.2-0.2-19.3-7.4-24.4-16.3c-1.3-2.1-2.2-4.5-2.5-7c0-0.6,0.1-1.1,0.3-1.7
		c0.3-0.8,0.6-1.7,0.7-2.5c0-0.3,0-0.7,0-1c0,0,0,0,0-0.1c0.2-1.9-0.9-3.7-2.2-5c-1.4-1.3-3.1-2.2-4.5-3.5c-4.4-3.9-5.7-10.1-5.8-16
		v-0.3c0.1-2.5,0.3-5.1,0.2-7.6c0-1.4,0-2.9-0.2-4.3c-0.4-3.6-1.8-7.2-4.6-9.5c-7.3-5.9-19.6,0.2-27.2-5.4c-1.8-1.4-3.3-3.4-5.6-3.9
		c-1.7-0.4-3.4,0.1-5.1,0.7c-5.6,1.8-11.8,4.3-14,9.7c-1.2,3.1-0.9,6.6-2,9.8c-0.7,2.1-2.2,3.9-3.2,5.9c-0.8,1.5-1.3,3.2-1.2,4.9
		c-0.1,0.9,0,1.8,0.4,2.6c0.4,1,1,1.9,1.8,2.6c-0.3,0.6-0.7,1.2-1.1,1.7c-1.4,1.7-3.6,3-5.1,4.7c-2.7,3.2-2.6,7.5-1.3,11.3
		c1.4,3.7,3.8,7.2,5.5,10.8c0.7,1.6,1.3,3.3,0.6,4.9c-0.5,1.1-1.6,1.9-2.5,2.9c-1.2,1.4-2,3.1-2.2,5c-16.7,3.8-16.7,17.3-16.7,17.3
		l0,0l-9,22.7c0,0-1.4,3.8-3.1,8.9L435,348l7.4,12.4c-1.4,5.1-2.4,9.8-2.1,12.1c0,0-3.3,15.6,2.6,18.3l13,5.9
		c0.6,0.3,1.2,0.6,1.8,0.8l0.5,0.2c0.4,0.2,0.8,0.2,1.2,0h0h0.1c0.3,0,0.5,0,0.7-0.1c0.3-0.2,0.5-0.4,0.7-0.7c0,0,0,0,0-0.1l3.9-1.1
		l3.3,3.9c1.5,1,3,2,4.4,2.8l-5.1,50.8c0,0-0.8,67.6-3.3,83c-0.9,5.7-0.9,9.6-0.6,12.2l-0.1,0.2c0.6,4.3,2.2,5.2,2.2,5.2v-0.1
		c0,0,0.1,0,0.1,0.1c0.8-2,1.6-3.9,2.7-5.7c0,0.4,0,0.7,0,1.1c-0.1,5.7-0.2,13.8-0.8,19c-1,8.9,2.6,38.3,2.6,38.3l1.2,26.7
		c0.2,4.5-0.9,9-3,13c-3,5.3-6.8,12.9-7,16.2c0,0.2,0,0.4,0,0.5l0,0l-6.4,7.7c0,0-2.5,3.8,3.1,5.4c3,0.8,8.2,0,12.4-1
		c3.8-0.9,6.4-4.2,6.4-8.1c1.1-3.7,2.8-7.1,5.3-10.1l1,6.2l7,1.7l0.9-16.9c0.4-0.9,0.5-2,0.5-3l0,0c1.4-12-3.3-10.9-3.3-10.9
		c0.1,0.1,0.2,0.3,0.2,0.4l-0.2-0.4l0,0c-2.8-5.6-1.5-14.9-1.5-14.9s3.7-26.7,5-33.8c0.9-5,0.5-21.3,0.2-30.4c0-0.4,0-0.7,0-1.1
		c10.9-0.1,24.2-0.5,33.5-1.4v1.1l-1.7,63.2c-0.1,4-0.9,8-2.4,11.7c0,0.1-0.1,0.1-0.1,0.2c-2,5.3-3.2,10.9-3.4,16.6l-0.8,20.1v0.6
		l0,0c-1.4,0.5-3.6,2.1-3.7,6.6c-0.1,6.6,11.5,4.4,11.5,4.4c11.6,0,11.7-12.1,11.7-12.1s0.4-11.1,0.9-18.5s-1.8-5.8-1.8-5.8
		l-0.2,21.1c0,0.1,0,0.1,0,0.2v-18.5l0.2-2.7v-0.1l0,0v-0.6l1.5-21.8c0,0,10.7-36.3,12.4-43.2c1.2-4.9,0.7-19.8,0.3-28.1
		c0-0.4,0-0.7-0.1-1.1c3.3-0.3,6.3-0.3,7.4-0.3h0.5c0,0-0.5-58.3-1.9-80.2c-1.4-22-3.6-42-9.1-48.1c-3.3-3.7-8-14.9-11.1-23.3
		c6.6,2.9,13.5,5.1,20.5,6.7c17.5,3.7,15.1-11.5,15.1-11.5l-1.8-28.8h0.1c-0.1-7.5-0.7-15.1-1.9-22.5c-0.9-5.7-2.3-11.6-4.5-16.3
		c1.9-0.7,3.8-1.5,5.6-2.4c4.8-2.1,10.1-5.1,10.8-10.2h-0.2C579.7,308.4,579.7,308,579.8,307.6z M471.2,349.2L471.2,349.2
		c0,3-0.1,8.1-0.3,13.8l-5.6-7.4l5.6-9L471.2,349.2z M548,375.5l-9.3-3c1.6-2.6,3.6-4.9,5.7-7.1l0.8-0.7l-0.3,0.1l0.4-0.4l0.3-0.1
		l-0.4,0.4l0.5-0.1c0.6,2.3,1.6,4.5,3.2,6.3C552.3,374.6,548,375.5,548,375.5L548,375.5z"/>
	<polygon class="st11" points="491.7,642.8 490.6,663.4 483.7,661.7 482.3,653.1 	"/>
	<polygon class="st5" points="491.7,642.8 490.6,663.4 483.7,661.7 482.3,653.1 	"/>
	<path class="st12" d="M517.1,666.1l10.5,2.2l7.8-6.9v-19.5l0.2-2.7v-0.1l0,0v-0.6l1.5-21.6c0,0,10.6-36,12.2-42.9
		c1.2-4.9,0.7-19.7,0.3-27.9c-0.2-3.3-0.3-5.6-0.3-5.6L526,535l-0.5,17.9l-1.7,62.7c-0.1,4-0.9,7.9-2.4,11.7l-0.1,0.2
		c-2,5.3-3.2,10.8-3.4,16.4l-0.8,19.9v0.5L517.1,666.1z"/>
	<path class="st5" d="M535.6,638.6v0.5l0,0V638.6L535.6,638.6z"/>
	<path class="st5" d="M517.1,666.1l10.5,2.2l7.8-6.9v-1.7c-0.1,0.7-0.5,1.4-1.1,1.8l-0.1,0.1c-3.6,1.9-7.7,2.7-11.8,2.3l-4.1-0.3
		c-0.4,0-0.7,0.1-1.1,0.3v0.5L517.1,666.1z"/>
	<path class="st4" d="M534.2,662.1l0.1-0.1c0.7-0.4,1.1-1.1,1.1-1.9l0.2-20.9c0,0,2.3-1.6,1.7,5.7s-0.9,18.4-0.9,18.4
		s-0.1,12-11.5,12c0,0-11.5,2.2-11.4-4.4s4.7-6.8,4.7-6.8l4.1,0.4C526.5,664.9,530.6,664,534.2,662.1z"/>
	<path class="st12" d="M462.2,661.7c0.3,4.7,14.2,2,14.2,2l9.4-18.2c0,0,7.8-6,3.9-11.3c-0.2-0.3-0.4-0.6-0.6-0.9c0,0,0,0,0,0l0,0
		c-0.1-0.1-0.2-0.3-0.2-0.4l0,0c-2.8-5.6-1.4-14.7-1.4-14.7s3.6-26.6,4.9-33.6c0.9-4.9,0.5-21.2,0.2-30.2c-0.1-3.8-0.2-6.3-0.2-6.3
		l-23.1-6.2c0,0,0,2.9,0,6.9c-0.1,5.7-0.2,13.7-0.8,18.8c-1,8.8,2.5,38,2.5,38l1.2,26.6c0.2,4.5-0.8,9-3,12.9
		c-2.9,5.3-6.7,12.8-6.9,16.1C462.2,661.3,462.2,661.5,462.2,661.7z"/>
	<path class="st5" d="M462.2,661.7c0.3,4.7,14.2,2,14.2,2l9.4-18.2c0,0,7.8-6,3.9-11.3c-0.2-0.3-0.4-0.6-0.6-0.9
		c-0.1,2.8-3.1,9.7-3.1,9.7s-7.7,15.5-10.2,19c-2.5,3.5-13.1-0.7-13.5-0.8C462.2,661.3,462.2,661.5,462.2,661.7z"/>
	<path class="st4" d="M488.8,632.8c0,0,4.6-1.1,3.2,10.8l0,0c0.1,2.8-1.3,5.4-3.6,6.8c-3.3,2.1-8.3,6.5-10.9,15.1l0,0
		c0,3.8-2.6,7.1-6.3,8c-4.1,1-9.3,1.8-12.3,1c-5.5-1.5-3.1-5.4-3.1-5.4l6.4-7.6c0,0,11.1,4.4,13.5,0.8s10.2-19,10.2-19
		S490.1,633.8,488.8,632.8z"/>
	<path class="st5" d="M526,537.2l-0.5,17.9c6.2-0.6,10.6-1.4,11.4-2.6c1.6-2.5,7.6-3.6,12.7-4c-0.2-3.3-0.3-5.6-0.3-5.6L526,537.2z"
		/>
	<path class="st5" d="M469.2,550.9c0.6-1.2,1.5-2.3,2.5-3.1c2.5-1.4,2.2,8.7,2.2,8.7s8.2,0.1,18.6-0.1c-0.1-3.8-0.2-6.3-0.2-6.3
		l-23.1-6.2C469.2,544,469.2,546.9,469.2,550.9z"/>
	<path class="st3" d="M466.5,553.3c0,0,2.7-7.4,5.2-8.7c2.5-1.3,2.2,8.7,2.2,8.7s60,0.5,63-4.1s20.5-4.4,20.5-4.4
		s-0.5-57.8-1.9-79.7c-1.4-21.8-3.5-41.7-9-47.7c-3.5-3.9-8.5-16.4-11.7-24.8c-1.7-4.6-2.8-7.9-2.8-7.9l-57.3,3.3l-0.5,4.6
		l-6.1,60.8c0,0-0.8,67.1-3.3,82.4C462.5,551.1,466.5,553.3,466.5,553.3z"/>
	<g class="st13">
		<path d="M532.3,549.2c3-4.6,20.5-4.4,20.5-4.4s-0.5-57.8-1.9-79.7c-1.4-21.8-3.5-41.7-9-47.7c-3.5-3.9-8.5-16.4-11.7-24.8
			c-1.4-3.8-2.4-6.8-2.7-7.7l4.5-0.3c0,0,1.1,3.3,2.8,7.9c3.1,8.4,8.1,20.9,11.6,24.8c5.5,6,7.6,25.9,9,47.7
			c1.4,21.8,1.9,79.7,1.9,79.7s-17.5-0.3-20.5,4.4c-2.6,4-46.7,4.1-59.5,4.1C493.7,553.2,529.9,552.8,532.3,549.2z"/>
		<path d="M467.1,544.5c1.1-0.6,1.7,1.1,1.9,3.2c-1,1.8-1.9,3.7-2.6,5.6c0,0-1.6-0.9-2.2-5.2C465.1,546.5,466.1,545.1,467.1,544.5z"
			/>
	</g>
	<path class="st8" d="M484.2,244.7c-4,5.4,0,13.1-4.2,18.3c-1.4,1.7-3.6,3-5,4.7c-2.7,3.2-2.6,7.5-1.3,11.2
		c1.3,3.7,3.7,7.1,5.4,10.7c0.7,1.6,1.3,3.3,0.5,4.9c-0.5,1.1-1.6,1.9-2.4,2.8c-2.7,3.1-2.8,7.3-1.3,10.9c1.5,3.6,4.3,6.7,7,9.7
		c1.1,1.2,2.5,2.5,4.3,2.5c1-0.1,1.9-0.4,2.7-0.9c13.1-6.7,18.6-22.5,12.5-35.9c-2.3-5.5-6.1-10.8-6.2-16.6c0-4.6,2.4-9,2.8-13.6
		c0.5-5.6-2.8-14.5-9.6-16.9C490,240.1,486.2,242,484.2,244.7z"/>
	<path class="st5" d="M484.2,244.7c-4,5.4,0,13.1-4.2,18.3c-1.4,1.7-3.6,3-5,4.7c-2.7,3.2-2.6,7.5-1.3,11.2
		c1.3,3.7,3.7,7.1,5.4,10.7c0.7,1.6,1.3,3.3,0.5,4.9c-0.5,1.1-1.6,1.9-2.4,2.8c-2.7,3.1-2.8,7.3-1.3,10.9c1.5,3.6,4.3,6.7,7,9.7
		c1.1,1.2,2.5,2.5,4.3,2.5c1-0.1,1.9-0.4,2.7-0.9c13.1-6.7,18.6-22.5,12.5-35.9c-2.3-5.5-6.1-10.8-6.2-16.6c0-4.6,2.4-9,2.8-13.6
		c0.5-5.6-2.8-14.5-9.6-16.9C490,240.1,486.2,242,484.2,244.7z"/>
	<path class="st5" d="M528.2,441.4c-7.9,0.4-15.4,3.8-22.4,7.7s-13.7,8.2-21.2,11"/>
	<path class="st5" d="M523.3,460.1c-7.9,0.7-15.2,4.3-20.6,10c-1.9,2-3.6,4.3-5.6,6.3c-3.1,3-6.9,5.2-11,6.3"/>
	<path class="st5" d="M524.9,474.3c-6.3,1.8-12.1,5.2-16.6,10c-1.2,1.3-2.3,2.7-3.5,4c-6.6,7.1-15.9,10.8-24.8,14.3"/>
	<path class="st12" d="M524.2,276.9c0.2,6.3,0.7,12.7,1.6,19c0.7,4.5,1.8,8.5,3.3,10.2c4.4,5.2-21.3,12.1-21.3,12.1l-15.1-11.7
		c0,0,12-11,6.4-21.8C493.5,273.9,524.2,276.9,524.2,276.9z"/>
	<path class="st5" d="M474.3,392.6h60.6c-1.7-4.6-2.8-7.9-2.8-7.9l-57.3,3.3L474.3,392.6z"/>
	<path class="st6" d="M470.4,391.5h64.7c-1.8-6.5,0-12.5,2.6-17.2c1.8-3.2,4.1-6.2,6.8-8.8l0.4-0.4l22.6-5l1.2-0.3
		c0,0,0.2-41.1-14.4-46.7s-23.3-13.3-23.3-13.3l-20,6.2l-14.7-7.4c-4.7,5.1-17.3,3.1-17.3,3.1c-20.5,2.4-20.5,17.8-20.5,17.8
		s12,28,12.9,28C472.4,347.5,470.4,391.5,470.4,391.5z"/>
	<path class="st5" d="M492.7,365.4c0,0-13.2-2.9-17.7-8"/>
	<path class="st5" d="M559.3,350L544,362.6c0.1,1,0.3,2,0.5,3l0.4-0.4l22.6-5L559.3,350z"/>
	<path class="st5" d="M517.8,387.1c0,0,3.3,1.9,8.5,4.4h8.8c-1.8-6.5,0-12.5,2.6-17.2l-15.5-5C527.5,374.2,517.8,387.1,517.8,387.1z
		"/>
	<path class="st6" d="M467.6,314.6l-9.1,4.9l-8.9,22.6c0,0-9.3,24.7-8.4,31.3c0,0-3.3,15.5,2.5,18.2l15.1,6.9c0.7,0.3,1.5,0,1.9-0.7
		c0.2-0.4,0.2-0.8,0-1.2c-2.2-4.1-4.5-10.5-0.7-14l-4.4-9.1l15.8-25.8l5.3-8.9L467.6,314.6z"/>
	<path class="st5" d="M487.8,360.2c0.8,3.2,3.4,8.2,12.2,10l9.7,7.9l10.3,4.7l4.2,1.9l1.8-12.8l-4-2.2l-4.7-2.6
		c0,0-10.6-19.2-27.4-11.1C488.2,356.7,487.4,358.5,487.8,360.2z"/>
	<path class="st12" d="M488.4,359.1c0.8,3.2,3.4,8.2,12.2,10l9.7,7.9l10.3,4.7l4.2,1.9l1.8-12.8l-4-2.2l-4.7-2.5
		c0,0-10.6-19.2-27.4-11.1C488.8,355.6,488,357.4,488.4,359.1z"/>
	<circle class="st5" cx="507.3" cy="270.1" r="23.5"/>
	<circle class="st12" cx="507.3" cy="269.6" r="23.5"/>
	<path class="st5" d="M521.8,319.7l-7.1-13.7c0,0,10.3-4.2,11.1-9s9.9,5.7,7.9,9.1S521.8,319.7,521.8,319.7z"/>
	<path class="st6" d="M521.8,318.6l-7.1-13.7c0,0,10.3-4.2,11.1-9s9.9,5.7,7.9,9.1S521.8,318.6,521.8,318.6z"/>
	<path class="st14" d="M464.1,354l39,52.4c0,0-14.4,7.8-34.2-6.2l-8.5-10.2L436,348.9L464.1,354z"/>
	<path class="st12" d="M456.4,382.5l3.5-0.1c0,0,21.7-21,27-10.4c5.3,10.6-13.5,20.6-13.5,20.6l-5.7,3.1l-7.5,2.2l-4.8-6.4
		L456.4,382.5z"/>
	<path class="st5" d="M461.7,393.9c0.3,1.2,0.6,2.5,0.1,3.7c-0.1,0.3-0.4,0.5-0.6,0.7c-0.2,0.1-0.5,0.1-0.7,0.1
		c-1.9-0.2-3.6-1-4.9-2.4c-1.2-1.4-2.3-2.9-3.2-4.6c-1-1.7-2-3.5-1.6-5.5c0.4-2.1,2.2-3.5,4-4.7c3.6-2.4,3.7,0.4,4.5,3.5
		S460.8,390.8,461.7,393.9z"/>
	<path class="st6" d="M461.1,393.9c0.3,1.2,0.6,2.5,0.1,3.7c-0.1,0.3-0.4,0.5-0.6,0.7c-0.2,0.1-0.5,0.1-0.7,0.1
		c-1.9-0.2-3.6-1-4.9-2.4c-1.2-1.4-2.3-2.9-3.2-4.6c-1-1.7-2-3.5-1.6-5.5c0.4-2.1,2.2-3.5,4-4.7c3.6-2.4,3.7,0.4,4.5,3.5
		S460.3,390.8,461.1,393.9z"/>
	<polygon class="st5" points="471.4,347.5 473.3,344.4 471.7,350.1 	"/>
	<path class="st5" d="M520.6,381.7l4.2,1.9l1.8-12.8l-4-2.2C525.3,371.7,522.9,377.6,520.6,381.7z"/>
	<path class="st5" d="M537.4,366.8c0,0-13.5,0.8-19.2-2.9"/>
	<g class="st13">
		<path d="M535.7,375.4c1.8-3.2,4.1-6.2,6.8-8.8c0.6-0.4,1.3-0.8,2-1.1l21-4.3l1.2-0.3c0,0,0.2-41.1-14.4-46.7
			c-8.2-3.1-15.8-7.4-22.7-12.8l1.6-0.5c0,0,8.7,7.6,23.3,13.3c14.6,5.6,14.4,46.7,14.4,46.7h-2.2l-21.5,4.1c0,0-0.9,0.9-1.2,1.2
			c-2.7,2.7-5,5.8-6.9,9.1c-2.8,5.3-3.5,11.5-1.8,17.3h-2.2C531.3,386.1,533.1,380.1,535.7,375.4z"/>
		<path d="M478.2,302.9c0.3-0.1,0.7-0.1,1-0.1c1.5,0.2,3,0.3,4.5,0.4C481.9,303.1,480,303.1,478.2,302.9z"/>
		<path d="M509.1,307.1l-13.3-6.7c0.3-0.2,0.5-0.5,0.7-0.7l13.9,7L509.1,307.1z"/>
	</g>
	<path class="st6" d="M559.8,348.9l8.9,10.9l1.8,29.6c0,0,2.4,15.1-14.9,11.5S518.4,386,518.4,386s9.7-12.9,4.4-17.8l24.7,8
		c0,0,4.2-0.9,0.9-4.5c-3.3-3.6-3.9-10.2-3.9-10.2L559.8,348.9z"/>
	<path class="st5" d="M563.8,380.2l4.9,5.6C566.2,385.1,564.3,382.9,563.8,380.2z"/>
	<polygon class="st5" points="555.5,379.3 563.1,389.1 559.3,390 	"/>
	<path class="st5" d="M479.3,258.8c-0.8-2.1-0.2-4.5,0.8-6.4c1-1.9,2.4-3.8,3.2-5.9c1.1-3.1,0.8-6.6,2-9.7c2.2-5.4,8.3-7.8,13.8-9.7
		c1.6-0.5,3.4-1.1,5-0.7c2.2,0.5,3.7,2.5,5.5,3.9c7.5,5.6,19.6-0.6,26.8,5.3c2.8,2.2,4.1,5.9,4.5,9.4c0.4,3.5,0,7.1,0,10.7
		c-0.1,6.3,1.1,13.1,5.7,17.2c1.4,1.2,3.1,2.2,4.5,3.5c1.4,1.3,2.5,3.1,2.2,5c-0.2,0.9-0.4,1.7-0.7,2.5c-0.9,3.3,0.5,6.7,2.2,9.7
		c5,8.7,14,15.9,24,16.1c-0.7,5.1-5.9,8-10.7,10.1c-5.9,2.7-12.3,5.3-18.8,4.9c-6.5-0.3-13.4-4.5-14.5-11c-0.4-2.2-0.3-4.9-2.2-6.1
		c-1.2-0.7-2.7-0.5-3.9-1.1c-1.8-0.7-2.7-2.8-3.3-4.6c-1.2-3.8-1.9-7.8-1.9-11.9c-0.1-4.8,0.5-10-2.2-13.9c-2.5-3.6-7-5.5-9.9-8.8
		c-2.7-3.1-5.6-6.8-10-7.4C495.4,259.3,482.9,267.6,479.3,258.8z"/>
	<path class="st8" d="M479.3,257.7c-0.8-2.1-0.2-4.5,0.8-6.4c1-1.9,2.4-3.8,3.2-5.9c1.1-3.1,0.8-6.6,2-9.7c2.2-5.4,8.3-7.8,13.8-9.7
		c1.6-0.5,3.4-1.1,5-0.7c2.2,0.5,3.7,2.5,5.5,3.9c7.5,5.6,19.6-0.6,26.8,5.3c2.8,2.2,4.1,5.9,4.5,9.4c0.4,3.5,0,7.1,0,10.7
		c-0.1,6.3,1.1,13.1,5.7,17.2c1.4,1.2,3.1,2.2,4.5,3.5c1.4,1.3,2.5,3.1,2.2,5c-0.2,0.9-0.4,1.7-0.7,2.5c-0.9,3.3,0.5,6.7,2.2,9.7
		c5.1,8.7,13.9,15.9,24,16.1c-0.7,5.1-5.9,8-10.7,10.1c-5.9,2.7-12.3,5.3-18.8,4.9c-6.5-0.3-13.4-4.5-14.5-11
		c-0.4-2.2-0.3-4.9-2.2-6.1c-1.2-0.7-2.7-0.5-3.9-1.1c-1.8-0.7-2.7-2.8-3.3-4.6c-1.2-3.8-1.9-7.8-1.9-11.9c-0.1-4.8,0.5-10-2.2-13.9
		c-2.5-3.6-7-5.5-9.9-8.8c-2.7-3.1-5.6-6.8-10-7.4C495.4,258.2,482.9,266.5,479.3,257.7z"/>
	<path class="st5" d="M495.9,318l13.4-10.9c0,0-9.2-5-10.3-9.2c-1.1-4.3-8.5,2-7.7,5.8C492.1,307.5,495.9,318,495.9,318z"/>
	<path class="st6" d="M496.5,316.3l13.4-10.9c0,0-9.2-5-10.3-9.2c-1.1-4.3-8.5,2-7.7,5.8S496.5,316.3,496.5,316.3z"/>
	<circle class="st5" cx="510.4" cy="314.6" r="1.1"/>
	<circle class="st5" cx="510.4" cy="320.5" r="1.1"/>
	<circle class="st5" cx="510.4" cy="326.4" r="1.1"/>
	<g class="st13">
		<path d="M484.7,242.5c1.1-2.9,0.8-6.2,1.8-9.1c-0.5,0.7-0.8,1.4-1.1,2.1c-1.2,3.1-0.9,6.6-2,9.7l-0.1,0.2
			C483.9,244.4,484.3,243.5,484.7,242.5z"/>
		<path d="M569.6,316c-5.9,2.7-12.3,5.3-18.8,4.9c-6.5-0.3-13.4-4.5-14.5-11c-0.4-2.2-0.3-4.9-2.2-6.1c-1.2-0.7-2.7-0.5-3.9-1.1
			c-1.8-0.7-2.7-2.8-3.3-4.6c-1.2-3.8-1.9-7.8-1.9-11.9c-0.1-4.8,0.6-10-2.2-13.9c-2.5-3.6-7-5.5-9.9-8.8c-2.7-3.1-5.6-6.8-10-7.4
			c-6-0.8-18.6,7.4-22.1-1.4c-0.6-1.7-0.5-3.5,0.2-5.1c-0.3,0.4-0.5,0.9-0.7,1.3c-1,2-1.6,4.3-0.8,6.4c3.6,8.8,16.1,0.5,22.1,1.4
			c4.4,0.6,7.3,4.3,10,7.4c2.9,3.4,7.4,5.2,9.9,8.9c2.7,3.9,2.1,9.2,2.2,13.9c0.1,4,0.7,8,1.9,11.9c0.6,1.9,1.5,3.9,3.3,4.6
			c1.2,0.5,2.7,0.4,3.9,1.1c1.9,1.2,1.9,3.9,2.2,6.1c1.2,6.4,8,10.6,14.5,11c6.5,0.3,12.8-2.3,18.8-4.9c4.3-1.9,9.1-4.6,10.4-8.9
			C576.6,312.6,572.9,314.5,569.6,316z"/>
	</g>
	
		<linearGradient id="SVGID_3_" gradientUnits="userSpaceOnUse" x1="666.7192" y1="131.9649" x2="666.7192" y2="568.3348" gradientTransform="matrix(1 0 0 -1 -31.16 842.86)">
		<stop  offset="0" style="stop-color:#808080;stop-opacity:0.25"/>
		<stop  offset="0.54" style="stop-color:#808080;stop-opacity:0.12"/>
		<stop  offset="1" style="stop-color:#808080;stop-opacity:0.1"/>
	</linearGradient>
	<path class="st15" d="M700.8,358c-15.7-9-21.7-11.3-21.7-11.3l-0.3-0.2c-1.7-1.3-3.1-3-4-5c0-0.4,0-0.7,0-1.1c0,0,0,0.1,0,0.1
		c0.2-4.8,3.7-9.1,6.9-13l8.3-9.7c0.9-1,1.7-2.1,2.1-3.4c0.2-0.7,0.2-1.4,0.2-2.1c0-0.3,0-0.6,0-0.8c0-2.4-0.1-4.8-0.2-7.2
		c-0.1-2.1-0.6-4.8-2.7-5.2c-1.1-0.2-2.6,0.2-3.1-0.7c-0.2-0.4-0.2-0.8-0.1-1.3c0,0,0,0.1,0,0.1V297c0.4-1.6,0.7-3.3,0.8-5
		c0-0.9-0.1-1.7-0.3-2.5c-1.2-3.5-5.4-4.9-9.1-5.6s-7.9-1.2-10.2-4.1c-0.6-1-1.3-1.9-2-2.8c-1.1-1-2.4-1.6-3.8-1.9
		c-4.6-1.1-9.5-0.7-13.8,1.2c-1.8,0.8-3.6,1.9-5.6,1.8c-2-0.1-3.8-1.5-5.8-1.9c-3.3-0.6-6.4,1.8-8,4.7c-1,1.7-1.5,3.6-1.5,5.5v0.3
		l0,0c0,2.1,0.7,4.1,2.1,5.6c1.4,1.5,3.5,2.5,4.1,4.4c0.2,0.8,0.2,1.6,0.4,2.4c0,0.1,0.1,0.2,0.1,0.3l-0.1,0.1
		c-3.4,4.3-5.2,9.6-5.2,15.1c0.1,10.9,7.2,20.5,17.6,23.8c0,0.2,0,0.5,0,0.7c0,3-0.9,6.1-3.4,8.3l-22.3,8.9c0,0-13.4-1.6-18.3,18
		c-0.8,3.3-1.1,6.6-0.8,10c0.2,3-0.2,8.2-3.7,14.9c-5.5,10.8-4.2,35.5,7,38c10.6,2.3,14.8,1.4,15.2,1.2v0.4
		c-0.2,4.6-1.9,44.7-8,49.5c-1.7,1.3-1.4,2.2,0,2.9c0,0,0,0.3,0,0.7c-0.2,3-1.1,14.1-5.2,20.4c-4.8,7.4-4.3,49.8-4.3,49.8l-3.2,25
		c0,0,2,15.4,0,18.1c-1.8,2.4-4.2,59.5-4.7,71.9h-0.2c-2,0.1-3.8,1.2-4.8,3c-2.6,4.3-11.8,12.2-11.8,12.2c-2,2.8-9.4,5.6-13.3,6.8
		c-0.5,0.2-1,0.4-1.5,0.7c-1.5,0.8-2.6,2-3.4,3.5c-0.5,0.9-0.6,2-0.4,3c1,2.4,21.8,4.2,27,1.7c4.1-1.9,20.5-4.5,27.3-5.5
		c2.5-0.3,4.5-2.3,4.9-4.9c0.1-0.9-0.1-1.7-0.6-2.4l0,0c-1.3-1.6-2-6-2.2-8.9c0.6-0.2,1.1-0.5,1.5-0.9c-0.6-8.9,0.7-17.8,3.7-26.2
		c5-13.2,6.5-37.7,5.3-53.7c0,0,15.3-65.7,27.3-71.8l0,0c0.2,0.2,6,7.7,6.8,30.9c0.7,23.5,9.3,39,9.3,39s-3.8,39.9,0,54.9l-4.9,23.6
		c-0.4-0.3-0.6-0.5-0.6-0.5s0.1,0.7,0.3,1.7l-0.1,0.5l0.2,0c0.6,3,1.4,8.1,1,11.1c-0.2,1.7-0.7,4.1-1,6.4c-0.5,3.6-0.7,7.2,1.2,7.9
		c3.1,1.3,21.5,3,24.7-1.1c1.4-1.7,1.8-4,0.9-6.1c-0.2-0.6-0.5-1.1-0.9-1.5c0,0-4.9-8-3.5-13.6c0.3-1.1,0-2.3-0.6-3.2
		c0.2-2.8,1.3-15.6,4.2-26.4c3.1-11.8,9.7-37.7,4.9-54.6l0,0c-0.2-0.7-0.4-1.3-0.6-2c-2.8-9.3-3.7-19-2.8-28.7
		c-1.8-8.2-1.8-16.8,0-25c3-13.7,5.1-27.2,5.1-27.2s1.7-18.1,0.2-29.3c0-0.2-0.1-0.5-0.1-0.7l0.8-0.2c0,0-4.3-18.9-5.8-30.9
		c-0.4-2.8-0.8-6.4-1.3-10.3c1.4-0.2,2.7-0.6,4.1-1c13.5-4.7,17.8-46.8,17.8-46.8v-13.4C712,387.6,716.6,367,700.8,358z
		 M600.1,683.4c-0.4-0.2-0.7-0.3-0.7-0.3l0,0L600.1,683.4z"/>
	<path class="st16" d="M692.7,601.2c5.9,16.8-1,44.2-4.2,56.4c-3.2,12.2-4.2,26.9-4.2,26.9c-12.5,2-21.5-0.5-21.5-0.5l5.1-25.2
		c-3.7-14.9,0-54.7,0-54.7s-8.3-15.4-9-38.8c-0.7-23.1-6.4-30.5-6.6-30.8l0,0c-11.7,6.1-26.6,71.6-26.6,71.6
		c1.2,15.9-0.3,40.3-5.1,53.5c-3,8.4-4.2,17.3-3.7,26.1c-1.7,1.5-4.1,1.7-6.7,1.3c-7-1.1-15.3-7.1-15.3-7.1s2.7-71.3,4.6-74
		c2-2.7,0-18.1,0-18.1l3.2-24.9c0,0-0.5-42.3,4.2-49.6c4-6.3,4.9-17.5,5.1-20.4c0-0.5,0-0.7,0-0.7l7.1-8.5c0,0,68.4-5.1,73.5,0
		c1.3,1.3,2,4.1,2.5,7.7c1.4,11.1-0.2,29.1-0.2,29.1s-2,13.4-5,27.1c-1.8,8.2-1.8,16.7,0,24.9C689,582.2,689.9,591.9,692.7,601.2z"
		/>
	<path class="st11" d="M688.4,708.3c-3.1,4-21,2.3-24.1,1.1c-1.9-0.7-1.7-4.3-1.2-7.9c0.3-2.3,0.8-4.6,1-6.3
		c0.5-4.4-1.5-13.3-1.5-13.3s4,4.3,5,0c0.4-1.9,1.9-2.8,3.5-3.3c2.1-0.6,4.3-0.5,6.3,0.4c3.2,1.4,8.5,4.3,7.5,8.3
		c-1.3,5.6,3.4,13.6,3.4,13.6c0.4,0.5,0.7,1,0.9,1.5C690.1,704.2,689.8,706.6,688.4,708.3z"/>
	<path class="st5" d="M688.4,708.3c-3.1,4-21,2.3-24.1,1.1c-1.9-0.7-1.7-4.3-1.2-7.9c1.9,0.9,5.2,1.7,10.7,1.2
		c1.3-0.1,2.6-0.2,3.8-0.1c3.9,0.2,7.8,0.1,11.7-0.2C690.1,704.2,689.8,706.6,688.4,708.3z"/>
	<path class="st5" d="M625.7,606.1c1.2,15.9-0.3,40.3-5.1,53.5c-3,8.4-4.2,17.3-3.7,26.1c-1.7,1.5-4.1,1.7-6.7,1.3
		c1.5-10.3,7.8-54.7,11.8-89.7c4.6-39.9,26-67.4,26-67.4l4.3,4.7C640.6,540.6,625.7,606.1,625.7,606.1z"/>
	<path class="st17" d="M681,349.4l-3,14.7l-14.6,24.5l-18-7.7c0,0-24.5-25.6-9.1-29.3c1.8-0.4,3.6-1.2,5.1-2.3c3-2.3,4-5.6,4-8.8
		c-0.1-3.6-1-7.2-2.5-10.5l31.5-9.9c-1.3,4.1-2,8.4-2.2,12.8c-0.2,8.6,3,12.8,5.6,14.9C678.8,348.5,679.9,349,681,349.4z"/>
	<path class="st5" d="M674.5,320.1c-1.3,4.1-2,8.4-2.2,12.8c-0.6,0.7-1.2,1.3-1.8,2c-6.6,6.3-16.2,8.5-24.9,5.7
		c-0.1-3.6-1-7.2-2.5-10.5L674.5,320.1z"/>
	<path class="st17" d="M678.1,316.1c0,13.8-11.1,24.9-24.9,24.9c-13.8,0-24.9-11.1-24.9-24.9c0-13.8,11.1-24.9,24.9-24.9
		c0,0,0,0,0,0c13.7-0.1,24.8,11,24.9,24.7C678.1,315.9,678.1,316,678.1,316.1z"/>
	<path class="st5" d="M681,349.4l-3,14.7l-14.6,24.5l-18-7.7c0,0-24.5-25.6-9.1-29.3c1.8-0.4,3.6-1.2,5.1-2.3
		c-2.8,7.6,8.7,23.5,8.7,23.5c1.3,2,4.4,0.7,4.4,0.7c7.4-1.1,21-22.4,23.2-25.9C678.7,348.5,679.9,349,681,349.4z"/>
	<path class="st5" d="M695.1,491.4c-4.3,1-28.3,6.3-37.4,5c-10-1.5-29.5-2.4-29.5-2.4s-12.4,0.7-16.2-1.1c0-0.5,0-0.7,0-0.7l7.1-8.5
		c0,0,68.4-5.1,73.5,0C693.9,485,694.7,487.8,695.1,491.4z"/>
	<path class="st6" d="M650.2,373.6c0,0-12.9-17.8-8-24.8l-21.8,8.9c0,0-13.1-1.6-17.8,18c-0.8,3.2-1,6.6-0.8,9.9
		c0.2,3-0.2,8.2-3.6,14.9c-5.4,10.7-4.2,35.4,6.8,37.9c11,2.5,14.9,1.2,14.9,1.2s-1.5,44.7-7.8,49.8c-6.3,5.1,16.2,3.9,16.2,3.9
		s19.5,1,29.5,2.4c10,1.5,38.1-5.1,38.1-5.1s-4.2-18.8-5.6-30.8c-1.5-12-4.9-37.4-4.9-37.4l24.9-33.7c0,0,4.4-20.4-11-29.4
		s-21.2-11.3-21.2-11.3s-15.5,25.2-23.5,26.4C654.6,374.3,651.5,375.5,650.2,373.6z"/>
	<path class="st5" d="M621.6,380.6c0,0-0.2,8.1,1.2,11.2c1.5,3.2,6.8,20.8,6.8,20.8h-12.2c0,0,6.6-7.1,6.1-10.5
		C623.1,398.7,621.6,380.6,621.6,380.6z"/>
	<path class="st17" d="M657.7,441.5c0,0-27-6.6-29.5-12.2s-9.4-18.2-9.4-18.2l2.8-3.8l13.1,10.3c0,0,15.6,12.5,23,13.7
		C665.1,432.4,657.7,441.5,657.7,441.5z"/>
	<path class="st18" d="M657.7,441.5c0,0-27-6.6-29.5-12.2s-9.4-18.2-9.4-18.2l2.8-3.8l13.1,10.3c0,0,15.6,12.5,23,13.7
		C665.1,432.4,657.7,441.5,657.7,441.5z"/>
	<path class="st17" d="M681,409.7v14.6h-2.3c-11.6,0-23.1,3-33.2,8.6l-4.4,2.4l-1.2,0.7l-7.6-17.1l7.1-6.3h0.4
		c1.7,0.2,9.2,0.8,12.4-0.3c3-1,6.8-4.3,15.6-2c4.4,1.1,8.1,6,12.4,4.5L681,409.7z"/>
	<path class="st5" d="M704.6,383.1l4.9,5.5v13.3c0,0-4.2,42-17.3,46.6s-36.7-2.7-36.7-2.7s-6.1-16.1-3.2-17.1s25.1-6.9,25.1-6.9
		s-0.3-24.6,4.6-32c0,0-3.2-23,7.8-23.4C700.7,366,704.6,383.1,704.6,383.1z"/>
	<path class="st6" d="M705.4,383.1l4.9,5.5v13.3c0,0-4.2,42-17.3,46.6s-36.7-2.7-36.7-2.7s-6.1-16.1-3.2-17.1s25.1-6.9,25.1-6.9
		s-0.3-24.6,4.6-32c0,0-3.2-23,7.8-23.4C701.5,366,705.4,383.1,705.4,383.1z"/>
	<path class="st5" d="M671.2,326.6c0.2-1.6,0-3.2-0.6-4.8c-0.7-1.5-2.3-2.6-3.9-2.2c-2.1,0.5-3,3.2-5,3.9c-1.7,0.5-3.6-0.7-4.5-2.3
		c-0.8-1.6-0.8-3.5-0.8-5.3c0-2,0-4.1,0-6.1c0-2.2-0.1-4.6-1.4-6.4c-1.7-2.2-5.7-3.1-8.4-3c-1.8,0-3.5,0.7-4.8,1.9
		c-1.4,1.2-3.1,2.1-5,1.8c-1.7-0.2-3-1.4-3.5-3V301c8.3-11,23.9-13.2,34.9-4.9c11,8.3,13.2,23.9,4.9,34.9c-0.8,1.1-1.8,2.2-2.8,3.1
		C670.8,331.6,671.1,329.1,671.2,326.6z"/>
	<path class="st19" d="M636.8,303.4c-1.7-0.3-3-1.4-3.5-3c-0.2-0.8-0.1-1.6-0.4-2.4c-0.6-1.9-2.6-2.9-4-4.4
		c-2.7-2.9-2.6-7.7-0.6-11.2c1.6-2.8,4.6-5.2,7.8-4.7c2,0.3,3.7,1.7,5.7,1.9c2,0.1,3.7-1,5.4-1.8c4.2-1.9,9-2.4,13.5-1.2
		c1.4,0.3,2.7,0.9,3.7,1.9c0.7,0.9,1.4,1.8,2,2.8c2.3,2.9,6.3,3.5,10,4.1c3.6,0.7,7.7,2.1,8.9,5.6c0.8,2.3,0,4.8-0.4,7.2
		c-0.1,0.5-0.1,1,0.1,1.5c0.6,0.9,2,0.5,3.1,0.7c2.1,0.4,2.6,3.1,2.7,5.2c0.1,2.4,0.1,4.8,0.2,7.2c0.1,0.9,0,1.8-0.2,2.7
		c-0.4,1.3-1.2,2.4-2.1,3.4l-8.1,9.7c-3.6,4.3-7.4,9.3-6.7,14.9c-1.7,0.7-3.7-0.7-4.3-2.5c-0.5-1.8-0.1-3.7,0.3-5.5
		c0.7-3.1,1.1-6.3,1.3-9.5c0.2-1.6,0-3.2-0.6-4.8c-0.7-1.5-2.3-2.6-3.9-2.2c-2.1,0.5-3,3.2-5,3.9c-1.7,0.5-3.6-0.7-4.5-2.3
		c-0.8-1.6-0.8-3.5-0.8-5.3V309c0-2.2-0.1-4.6-1.4-6.4c-1.7-2.2-5.7-3.1-8.4-3c-1.8,0-3.5,0.7-4.8,1.9
		C640.4,302.8,638.8,303.7,636.8,303.4z"/>
	<path class="st5" d="M642.5,380l7.6,31.4C650.1,411.5,656.1,411.4,642.5,380z"/>
	<path class="st5" d="M668.6,374.8c0,0-10,16.4-6.1,33.4l1.9,0.1C664.4,408.3,661,400.4,668.6,374.8z"/>
	<path class="st5" d="M674.9,467.6c0,0,12.3-4.1,13.2,5.4C688.1,473,685.8,466.5,674.9,467.6z"/>
	<path class="st5" d="M639.4,413.4c0,0-2.4,17.1,2,23.9c0,0-8.9,3.7-21.5,2.9l-1.5-26.9L639.4,413.4z"/>
	<path class="st5" d="M641.1,435.4l-1.2,0.7l-7.6-17.1l7.1-6.3h0.4l0,0C639.7,413.5,637.7,428.1,641.1,435.4z"/>
	<path class="st6" d="M639.4,412.6c0,0-2.4,17.1,2,23.9c0,0-8.9,3.7-21.5,2.9l-8.5-26.9L639.4,412.6z"/>
	<path class="st11" d="M618.3,697.9c-0.3,2.5-2.2,4.5-4.7,4.8c-6.6,1-22.6,3.5-26.6,5.4c-5.1,2.4-25.4,0.7-26.4-1.7
		c-0.3-1-0.2-2.1,0.3-3c0.7-1.5,1.8-2.7,3.3-3.5c0.5-0.3,1-0.5,1.5-0.7c3.8-1.3,11-4,13-6.8c0,0,9-7.9,11.6-12.1
		c1-1.7,2.7-2.8,4.7-2.9c2.1-0.1,4.5,1,5.5,5.7c0,0,11.7,6.7,14.9,0.8c0,0,0.5,9,2.4,11.5l0,0C618.2,696.1,618.4,697,618.3,697.9z"
		/>
	<path class="st5" d="M618.3,697.9c-0.3,2.5-2.2,4.5-4.7,4.8c-6.6,1-22.6,3.5-26.6,5.4c-5.1,2.4-25.4,0.7-26.4-1.7
		c-0.3-1-0.2-2.1,0.3-3c0.7-1.5,1.8-2.7,3.3-3.5c3.3,2.2,10.6,4.3,26.8,1.8c15.4-2.4,23-4.8,26.7-6.4l0,0
		C618.2,696.1,618.4,697,618.3,697.9z"/>
	<g class="st13">
		<path d="M684.9,298.5v-0.1c0.3-1.8,0.9-3.7,0.7-5.5c-0.2,1.5-0.4,3-0.7,4.5C684.8,297.7,684.8,298.1,684.9,298.5z"/>
		<path d="M670.7,321.4c0.4,0.9,0.6,1.8,0.6,2.8c0.1-1.3-0.1-2.7-0.6-3.9c-0.7-1.5-2.3-2.6-3.9-2.2c-2.1,0.5-3,3.2-5,3.9
			c-1.7,0.5-3.6-0.7-4.5-2.3c-0.8-1.6-0.8-3.5-0.8-5.3c0-2,0-4.1,0-6.1c0-2.2-0.1-4.6-1.4-6.4c-1.7-2.2-5.7-3.1-8.4-3
			c-1.8,0-3.5,0.7-4.8,1.9c-1.4,1.2-3.1,2.1-5,1.8c-1.7-0.3-3-1.4-3.5-3c-0.2-0.8-0.1-1.6-0.4-2.4c-0.6-1.9-2.6-2.9-4-4.4
			c-1.3-1.4-2-3.3-2.1-5.2c-0.2,2.3,0.5,4.5,2.1,6.3c1.4,1.5,3.4,2.5,4,4.4c0.2,0.7,0.2,1.6,0.4,2.4c0.5,1.6,1.9,2.8,3.5,3
			c2,0.3,3.6-0.6,5-1.8c1.3-1.2,3-1.9,4.8-1.9c2.7-0.1,6.7,0.9,8.4,3c1.4,1.7,1.4,4.1,1.4,6.4c0,2,0,4.1,0,6.1c0,1.8,0,3.7,0.8,5.3
			c0.8,1.6,2.7,2.8,4.5,2.3c2-0.7,3-3.4,5-3.9C668.4,318.8,670,319.9,670.7,321.4z"/>
		<path d="M690.7,314.7c-0.4,1.3-1.2,2.4-2.1,3.4l-8.1,9.7c-3.4,4.1-7,8.8-6.7,14c0.2-4.8,3.6-9.1,6.7-12.9l8.1-9.7
			c0.9-1,1.6-2.1,2.1-3.4c0.2-0.9,0.3-1.8,0.2-2.7C690.9,313.6,690.9,314.1,690.7,314.7z"/>
		<path d="M669.7,340.1c-0.1-0.4-0.2-0.9-0.2-1.3c-0.1,0.8,0,1.6,0.2,2.4c0.5,1.8,2.6,3.2,4.3,2.5c0-0.4-0.1-0.7-0.1-1.1
			C672.2,343.3,670.2,341.8,669.7,340.1z"/>
	</g>
	<path class="st5" d="M588.5,682.6c0,0,2.6,4.5,11.8,0.5"/>
	<path class="st5" d="M666.7,683.7c0,0,8,9.4,18,3.1"/>
	<path class="st5" d="M690,572.6c0,0-5.6,3.5-5.8,5.5c-0.2,2,2.9-1.5,2.9-1.5L690,572.6z"/>
	<path class="st5" d="M692.2,599.6c-2,1.6-4.4,2.6-6.9,2.7c-4.2,0.2-3.9,5.7-1.1,4S692.2,599.6,692.2,599.6z"/>
	<path class="st5" d="M693.3,603.1c0,0-2.7,13.3-4.9,10.7"/>
	
		<linearGradient id="SVGID_4_" gradientUnits="userSpaceOnUse" x1="-225.5606" y1="138.4816" x2="-225.5606" y2="575.7185" gradientTransform="matrix(-1 0 0 -1 18.71 842.86)">
		<stop  offset="0" style="stop-color:#808080;stop-opacity:0.25"/>
		<stop  offset="0.54" style="stop-color:#808080;stop-opacity:0.12"/>
		<stop  offset="1" style="stop-color:#808080;stop-opacity:0.1"/>
	</linearGradient>
	<path class="st20" d="M171,702.7c0,0,17,4.7,25.1-1.5c8.2-6.2,11.7-4.2,11.7-4.2s19.5-1.1,21.1-5.7s-7.5-21.3-7.5-21.3
		c-0.6-1.5-1.6-3.4-2-3.4l0.1-7.1l0,0l2.8-29.5c6.5-16.7,0.1-38.3,0.1-38.3l-1.2-5.4c-0.7-3-0.3-6.2,1.1-8.9l11.8-23.8
		c0.6-1.6,1.4-3.1,2.2-4.6c0.7-1.4,1.7-3,3-5c0.4-0.6,0.7-1.2,1.2-1.8c1.4-2.2,3.2-4.8,5.3-7.7c5.2-7.3,8-16.3,9.4-23l0.6,2.1h0h0.1
		l0,0l0.2,0l0,0h0.2h0l0.3,0.1h0.1l3.6,46.3c0.2,18.1,6.9,28.1,6.9,28.1l-0.9,39.9c1.2,9.6-1.5,22.4-2.7,27.5l-2.9,6.5
		c-2.3,1.1-3.9,3.3-4.2,5.9c-0.6,4.8-5.6,15.1-5.6,15.1c-1.9,2.5-6.2,9.1-6.2,9.1s-2,6.4-0.8,8.8c1.2,2.4,11.5,2.2,11.5,2.2
		c11.8,2.6,20.8-3.7,20.2-8.1c-0.6-4.4,1.8-5.5,1.8-5.5c4.7-1.5,4.2-4.7,4.2-4.7c1-6.5-0.2-13.2-3.5-19l-0.7,1.7
		c-0.2-3.4,0.3-6.9,1.4-10.1l-0.4,0.3l-0.1,0.1h0c0.7-6.5,7.6-18.6,7.6-18.6c12.6-22,8-51.9,8-51.9l-1.9-9.3l-0.1-3.5
		c-0.3-8.4,0.4-16.8,1.9-25c0.7-3.7,1.4-8.1,1.9-12.9c1.1-10.3,4.8-20.9,6.4-25.4l0.5-0.1h0.1c0.7-0.1,1.4-0.2,2.1-0.4h0.1
		c0,0,0.4-2.2,0.7-5.9c0.2-2.4,0.4-5.3,0.4-8.8c0.1-10.4-1.5-20.7-4.7-30.5l0.4-0.5c0,0,0.9-1.2,2.5-3.3l0,0
		c3-3.8,7.7-9.7,13.5-16.2c10.4-11.8,7.3-23.8,7.3-23.8s-7.5-27.5-10.8-44c-1.9-9.4-5.5-15.8-8.2-19.6c0.6-2.6,1-5.3,1-7.9
		c0.2-4.9,0.1-10-2.1-14.4s-6.9-7.9-11.8-7.3c-0.7,0.2-1.4,0.2-2.1,0c-0.6-0.3-1.1-0.7-1.4-1.2c-2.9-3.9-3-9.2-2.2-14
		c0.9-4.8,2.7-9.4,3.5-14.2c0.8-4.8,0.4-10.1-2.6-13.9c-3.6-4.5-9.8-5.7-14.5-9.1c-3.3-2.4-5.7-5.7-9.2-7.8
		c-3.5-2.1-6.7-1.3-10.4-0.5c-6.3,1.3-12.3,1.9-18.3,4.6c-6,2.7-11.5,6.7-15.9,11.6c-1.6,1.6-2.8,3.5-3.5,5.6
		c-1.5,4.9,1.4,10.1,0.8,15.2c-0.4,3.6-2.6,6.7-4.2,10s-3,7-1.6,10.4c2.1,5.3,8.9,6.4,13.8,9.2c0.7,0.3,1.2,0.8,1.6,1.4
		c1.2,2.1-1.3,4.3-2.8,6.2c-0.9,1.1-1.5,2.4-1.9,3.8c-4.1,1.7-7.2,5.4-8.1,9.7c-1.7,7.5,0.9,16.9,3.2,23.2
		c-2.5,13.9,0.7,19.4,3.1,21.5c2.4,2.1,3.9,5,4.1,8.1v0.3c0.2,2.5,0.4,5,0.8,7.6l0,0c-0.1-0.6-0.2-1.2-0.2-1.5
		c-1.9,3.6-5.6,12.8-7.7,28.2c-0.4,3.3-1.1,6.6-1.9,9.8c-1.5,5.7-2,11.6-1.6,17.5l0.4,5c-0.4,0-0.7-0.1-1-0.3l2.6,4.8v8.1
		c0,3.6-0.7,7.2-2,10.6c-0.2,0.5-0.4,1-0.6,1.5c-0.7,1.4-1,2.9-0.9,4.4c-5.6,8.6-18.5,56.7-18.5,56.7c-7,15.8,0.6,26,0.6,26
		s3.7,44,4.3,46.2c0.7,2.3,2.2,29.1,2.2,29.1l0,0c0,0.7,0,1.4,0,2.1c-0.4-0.2-0.8-0.3-1.3-0.4c-6.1-0.3-7.8,9.3-7.8,9.3l-12.5,11.9
		c0,0-5.7-1-14.1,5.3C157.2,697,171,702.7,171,702.7z M295.9,448.7l0-0.1l-0.3,0.2l0,0l-0.1,0.1l-0.1,0l0,0l-5.8-20.3
		c-1.5-5.5-1.7-11.2-0.4-16.7l4.5-19.5l0,0v-4.7l14.2,37.7C308.7,430.4,300.2,442.7,295.9,448.7z"/>
	<path class="st21" d="M302.1,510.1c0,0-5.7,13.9-7.2,27.3c-0.5,4.8-1.2,9.2-1.9,12.8c-1.5,8.1-2.1,16.4-1.8,24.7l0.1,3.5l1.9,9.2
		c0,0,4.5,29.5-7.8,51.2c0,0-7.3,13-7.5,19.2l-4.9,1.9l-10-2.8c0,0,4.8-17.3,3.3-29.4l0.9-39.4c0,0-6.5-9.8-6.7-27.7l-3.8-48.9
		L302.1,510.1z"/>
	<path class="st21" d="M256.6,503.1c0,0-1.2,19.1-10.7,32.2c-9.4,13.1-11.4,18.8-11.4,18.8l-11.6,23.5c-1.3,2.7-1.7,5.8-1.1,8.8
		l1.1,5.3c0,0,6.3,21.3-0.1,37.8l-3,31.9h-17.7c0,0-1.5-26.5-2.1-28.7c-0.6-2.2-4.3-45.7-4.3-45.7s-7.4-10.1-0.6-25.7
		c0,0,15.5-58.3,19.6-57.3C218.9,505,256.6,503.1,256.6,503.1z"/>
	<g class="st13">
		<path d="M221.1,591.7l-1.1-5.3c-0.7-3-0.3-6.1,1.1-8.8l11.6-23.5c0,0,2-5.7,11.4-18.8c9.1-12.6,10.5-30.7,10.6-32.1l1.8-0.1
			c0,0-1.2,19.1-10.7,32.2c-9.4,13.1-11.4,18.8-11.4,18.8l-11.6,23.5c-1.3,2.7-1.7,5.8-1.1,8.8l1.1,5.3c0,0,6.3,21.3-0.1,37.8
			l-3,31.9H218l3-31.9C227.4,613,221.1,591.7,221.1,591.7z"/>
	</g>
	<path class="st5" d="M276.1,657.9c0.2-6.2,7.5-19.2,7.5-19.2c12.3-21.8,7.8-51.2,7.8-51.2l-1.9-9.2l-0.1-3.5
		c-0.3-8.3,0.3-16.6,1.8-24.7c0.7-3.6,1.3-8,1.9-12.8c1.4-12.8,6.8-26.2,7.2-27.2l1.8-0.1c0,0-5.7,13.9-7.2,27.3
		c-0.5,4.8-1.2,9.2-1.9,12.8c-1.5,8.1-2.1,16.4-1.8,24.7l0.1,3.5l1.9,9.2c0,0,4.5,29.5-7.8,51.2c0,0-7.3,13-7.5,19.2l-4.9,1.9
		l-1-0.3L276.1,657.9z"/>
	<path class="st22" d="M270.4,657.7c2.7,1.1,5.8,0.7,8.2-1c-1.6,4.8-1.9,9.9-0.7,14.8c2,8.1-18.8-6.5-18.8-6.5l4.5-10.2
		C263.5,654.8,265.2,658,270.4,657.7z"/>
	<path class="st5" d="M271.9,658.1c2.3,0.5,4.7-0.1,6.6-1.5c-1.6,4.8-1.9,9.9-0.7,14.8c2,8.1-18.8-6.5-18.8-6.5l4.5-10.2
		c0,0,1.3,2.5,5.1,2.9C269.7,657.7,270.8,657.9,271.9,658.1z"/>
	<polygon class="st21" points="223,468.9 231.7,468.9 231.7,419.5 225.2,418.3 	"/>
	<polygon class="st18" points="223,468.9 231.7,468.9 231.7,419.5 225.2,418.3 	"/>
	<path class="st23" d="M265.4,661.5c0,0,5.5-0.3,8,4.6l3,2.4l1.5-3.5c3.2,5.7,4.4,12.3,3.4,18.7c0,0,0.4,3.1-4.2,4.6
		c0,0-2.4,1.1-1.8,5.4c0.6,4.3-8.3,10.5-19.8,8c0,0-10.1,0.2-11.3-2.1c-1.2-2.4,0.8-8.6,0.8-8.6s4.2-6.6,6.1-9
		c0,0,4.9-10.2,5.5-14.9C257.1,662.3,262.5,658.9,265.4,661.5z"/>
	<path class="st22" d="M219.9,665.6l0.1-7c0,0-10,2.9-18.2-0.4c0,0,0.7,7-0.4,8c-1.1,1,3.8,10,3.8,10l5.5,5.7l9.4-3.4l2.5-8
		C222.6,670.5,220.6,665.6,219.9,665.6z"/>
	<path class="st5" d="M219.9,665.6l0.1-7c0,0-10,2.9-18.2-0.4c0,0,0.7,7-0.4,8c-1.1,1,3.8,10,3.8,10l5.5,5.7l9.4-3.4l2.5-8
		C222.6,670.5,220.6,665.6,219.9,665.6z"/>
	<path class="st23" d="M200.8,663.1c0,0,5.3,0.6,4.7,7.4c-0.7,6.8,0.3,0,0.3,0s5.7,2.3,7.7,5.5s5.7-2.9,5.9-4.6s2.5-2.5,2.5-2.5
		s8.9,16.5,7.3,21.1s-20.7,5.6-20.7,5.6s-3.5-2-11.5,4.2c-8,6.1-24.7,1.5-24.7,1.5s-13.6-5.7-5.3-11.9c8.3-6.2,13.8-5.3,13.8-5.3
		l12.3-11.8C193.2,672.3,194.8,662.8,200.8,663.1z"/>
	<path class="st24" d="M264.5,272.5c3.4,2.1,5.8,5.4,9,7.7c4.6,3.3,10.7,4.5,14.2,8.9c3,3.8,3.4,9,2.6,13.7c-0.8,4.7-2.6,9.3-3.5,14
		c-0.9,4.7-0.7,10,2.1,13.8c0.3,0.5,0.8,0.9,1.4,1.2c0.7,0.2,1.4,0.2,2.1,0c4.8-0.6,9.4,2.9,11.6,7.2s2.3,9.4,2.1,14.2
		c-0.2,4-0.6,8-2.4,11.6c-3,6.1-9.1,9.8-15.2,12.7c-4,1.9-8,3.5-12.2,4.9c-2.9,1-5.9,1.8-8.8,1.3c-5.1-0.9-8.7-5.5-13.5-7.3
		c-3.9-1.5-8.3-1-12.5-0.6c-3.6,0.3-7.7,0.3-10.1-2.3c-3.2-3.4-1.7-8.8-0.1-13.1c-5.1-0.3-9-4.8-8.7-9.9c0.1-2,0.9-3.8,2.1-5.3
		c1.5-1.9,4-4,2.8-6.1c-0.4-0.6-1-1.1-1.6-1.4c-4.8-2.8-11.5-3.9-13.5-9.1c-1.3-3.3,0-7.1,1.6-10.3s3.7-6.3,4.2-9.8
		c0.6-5-2.2-10.2-0.8-15c0.7-2.1,1.9-4,3.5-5.5c4.4-4.8,9.7-8.7,15.6-11.4c5.9-2.7,11.7-3.3,17.9-4.6
		C257.9,271.2,261,270.4,264.5,272.5z"/>
	<path class="st21" d="M231.7,347.2c0,0-14.2-0.7-16.9,11.4c-2.7,12.1,5.8,29.5,5.8,29.5L231.7,347.2z"/>
	<path class="st18" d="M231.7,347.2c0,0-14.2-0.7-16.9,11.4c-2.7,12.1,5.8,29.5,5.8,29.5L231.7,347.2z"/>
	<path class="st21" d="M222.7,383.3l5.4,4.3l25.1,1.1l15.7-10.8l16-27.4c-9.8-2.5-13.7-9.2-15.2-15.5c-0.9-4.3-1-8.7-0.3-13
		c0,0-25.6-13.2-22.4,7.4c0.4,2.5,0.5,5.1,0.2,7.7c-1.5,12.1-13.2,9.8-13.2,9.8l-4.5,7l-5.2,17.1L222.7,383.3z"/>
	<path class="st5" d="M246.9,329.4c0.4,2.5,0.5,5.1,0.2,7.7c7.3,3.4,15.9,2.6,22.5-2.1c-0.9-4.3-1-8.7-0.3-13
		C269.4,322,243.8,308.8,246.9,329.4z"/>
	<circle class="st21" cx="256.6" cy="315.6" r="22.7"/>
	<path class="st6" d="M240.6,379c0.5,0,1.1,0.1,1.6,0.1c3,0.3,15.4,1,22.4-7.5c7.9-9.4,18.4-21.1,18.9-21.6l0,0l10.7,3.2
		c0,0-8.5-3-14.1,12.8c-2.5,6.8-0.3,14.4,5.5,18.8c2.1,1.5,4.5,2.5,7,3c0,0,0,0,0,0v6.9l0,0l-4.4,19.3c-1.2,5.5-1.1,11.1,0.4,16.5
		l6.7,23.6l0,0c-1,0.7-42.5,28.9-70.2,9.4l0,0c0.1-0.8,3.5-28.6,1.2-42.1c-0.6-3.5-1-7-1.2-10.5c0-0.1,0-0.2,0-0.3
		c-0.2-3.1-1.7-6-4.1-8c-2.5-2.2-5.9-8.2-2.5-23.9c0.8-3.9,2.1-7.7,3.7-11.3l9.3-21l0,0l8.6,0.2 M240.1,346.8
		c-0.7,0.9-10.7,13.3-11.7,21.3c-1.1,7.6-2.4,9.9,12.2,10.9L240.1,346.8z"/>
	<path class="st21" d="M301.4,357c0,0,8.4,7.2,11.7,23.5c3.3,16.3,10.6,43.4,10.6,43.4s3,11.8-7.2,23.5s-16.9,20.8-16.9,20.8
		l-6.7,9.8c-1.1,1.7-2.8,2.9-4.8,3.4c-3,0.8-7.7,1.4-11.8-0.8c-3.1-1.7-4.3-5.4-3-8.7l1.5-3.4c0,0-13.8,8.7-15,3.9s16-9.6,16-9.6
		s14.2-2.4,17.1-9.1c0,0,15.3-19.6,14.1-26.3l-14.7-39.5c0,0-18.4-2.4-12.1-23.1C286.5,344,301.4,357,301.4,357z"/>
	<path class="st16" d="M213.3,505.9c0,0,33.7,6.7,41.6,5.8l0.9,2.8c0,0,12.8,2.9,41.7-1.7c1.9-0.3,3.8-0.6,5.9-1l0.7-0.1
		c0,0,0.4-2.1,0.7-5.8c0.7-8.3,0.9-24.3-4.9-40.7l-4.9-15c0,0-30,18-49.9,16.3c-1.8-0.1-3.5-0.3-5.3-0.3c-4.1-0.2-10.4,0-14.5-3.3
		l-8.6,1.5V489c0,3.6-0.7,7.1-1.9,10.5c-0.2,0.5-0.4,1-0.6,1.5C213.3,502.5,213,504.2,213.3,505.9z"/>
	<path class="st5" d="M255.8,507v7.6c0,0,14.7,3.3,48.2-2.8c0,0,0.4-2.1,0.7-5.8C294.4,507.6,266.1,511.6,255.8,507z"/>
	<path class="st5" d="M213.3,505.9c0,0,33.7,6.7,41.6,5.8l0.9,2.8V507c-3.8,1.6-31.2-5-41.1-7.5c-0.2,0.5-0.4,1-0.6,1.5
		C213.3,502.5,213,504.2,213.3,505.9z"/>
	<path class="st16" d="M294.9,497.4l2.5,15.5c1.9-0.3,3.8-0.6,5.9-1c-0.8-4.5-2.5-14.9-2-16.6l-3.1-2.7L294.9,497.4z"/>
	<path class="st5" d="M295.3,497.1l2.5,15.5c1.9-0.3,3.8-0.6,5.9-1c-0.8-4.5-2.5-14.9-2-16.6l-3.1-2.7L295.3,497.1z"/>
	<g class="st25">
		<path d="M243.2,466.6c-1.8-0.1-3.5-0.3-5.3-0.3c-4-0.1-10,0-14.1-3l1.4-0.3c4.1,3.3,10.4,3.1,14.5,3.3c1.8,0.1,3.5,0.2,5.3,0.3
			c0.6,0.1,1.2,0.1,1.8,0.1C245.6,466.8,244.4,466.7,243.2,466.6z"/>
		<path d="M295.6,512.9c1.9-0.3,3.8-0.6,5.9-1l0.7-0.1c0,0,0.4-2.1,0.7-5.8c0.7-8.3,0.9-24.3-4.9-40.7l-4.6-14.1
			c1-0.5,1.5-0.9,1.5-0.9l4.9,15c5.8,16.4,5.6,32.4,4.9,40.7c-0.3,3.6-0.7,5.8-0.7,5.8l-0.7,0.1c-2,0.4-4,0.7-5.9,1
			c-13.5,2.1-23.5,2.7-30.3,2.6C276.7,515.3,286.2,514.5,295.6,512.9z"/>
		<path d="M253.1,511.8L253.1,511.8l-1,0.1C252.5,511.8,252.8,511.8,253.1,511.8z"/>
	</g>
	<ellipse class="st22" cx="299.1" cy="497.7" rx="1.3" ry="2.6"/>
	<path class="st21" d="M218.1,444.8c2-15.2,5.7-24.3,7.6-27.8c0.1,0.5,0.3,2,0.4,2.5c0.4,2.2,0,5,0.2,7.9l-1.9,34.4l2.5,10.8
		c2.4,8.5-6.5,1.8-6.5,1.8c-1.8,4-5.2,3.6-5.2,3.6l-0.5-6.2c-0.4-5.8,0.1-11.7,1.5-17.3C217,451.2,217.6,448,218.1,444.8z"/>
	<path class="st18" d="M218.1,444.8c2-15.2,5.7-24.3,7.6-27.8c0.1,0.5,0.3,2,0.4,2.5c0.4,2.2,0,5,0.2,7.9l-1.9,34.4l2.5,10.8
		c2.4,8.5-6.5,1.8-6.5,1.8c-1.8,4-5.2,3.6-5.2,3.6l-0.5-6.2c-0.4-5.8,0.1-11.7,1.5-17.3C217,451.2,217.6,448,218.1,444.8z"/>
	<path class="st21" d="M303.3,463.3c-1.6,2.1-2.5,3.3-2.5,3.3l-6.7,9.8c-1.1,1.7-2.8,2.9-4.8,3.4c-3,0.8-7.7,1.4-11.8-0.8
		c-3.1-1.7-4.3-5.4-3-8.7l1.5-3.4c0,0-13.8,8.7-15,3.9c-1.2-4.8,16-9.6,16-9.6s14.2-2.4,17.1-9.1c0,0,1.2-1.6,3-4"/>
	<path class="st16" d="M294.9,479.8c0,0-16.3-1.6-21.4-10.9l-2.4,7.7c0,0,17.1,11.8,21,10.3L294.9,479.8z"/>
	<path class="st5" d="M294.3,479.8c0,0-16.3-1.6-21.4-10.9l-2.4,7.7c0,0,17.1,11.8,21,10.3L294.3,479.8z"/>
	<path class="st16" d="M220.9,475.5c0,0-5.7,2-6.8,0.9l2.6,4.7l4.8-3.7L220.9,475.5z"/>
	<path class="st5" d="M220.9,475.5c0,0-5.7,2-6.8,0.9l2.6,4.7l4.8-3.7L220.9,475.5z"/>
	<polygon class="st5" points="255.8,507 255.8,497.1 253.4,507.2 	"/>
	<path class="st5" d="M278.8,303.7c-1.4,1.9-3.8,2.9-6.1,3.2s-4.7,0-7.1,0c-3.7-0.1-7.7,0.5-10.7,2.7c-1.9,1.4-3.4,3.3-4.9,5.2
		c-4.6,5.6-11,10.9-18.2,10.3c-1.3,0-2.5-0.5-3.4-1.4c-0.6-0.9-0.9-2-0.9-3.1c-0.3-4.6-0.2-9.3,0.4-13.9c0.3-2.8,1-5.6,2.1-8.3
		c1.3-2.6,3-5.1,5-7.2c2.5-2.9,5.4-5.3,8.8-7c3.4-1.8,7.3-2.3,11-1.4c4.3,1.2,7.7,4.6,11.8,6.3C271.5,291.1,284,296.4,278.8,303.7z"
		/>
	<path class="st24" d="M278.8,302.8c-1.4,1.9-3.8,2.9-6.1,3.2c-2.3,0.3-4.7,0-7.1,0c-3.7-0.1-7.7,0.5-10.7,2.7
		c-1.9,1.4-3.4,3.3-4.9,5.2c-4.6,5.6-11,10.9-18.2,10.3c-1.3,0-2.5-0.5-3.4-1.4c-0.6-0.9-0.9-2-0.9-3.1c-0.3-4.6-0.2-9.3,0.4-13.9
		c0.3-2.8,1-5.6,2.1-8.3c1.3-2.6,3-5.1,5-7.2c2.5-2.9,5.4-5.3,8.8-7c3.4-1.8,7.3-2.3,11-1.4c4.3,1.2,7.7,4.6,11.8,6.3
		C271.5,290.2,284,295.4,278.8,302.8z"/>
	<polygon class="st21" points="225.2,463 225.2,465.7 224.6,463.1 	"/>
	<polygon class="st18" points="225.2,463 225.2,465.7 224.6,463.1 	"/>
	<g class="st25">
		<path d="M282.5,363.2c-6.3,20.7,12,23.1,12,23.1l14.7,39.5c1.2,6.7-14.1,26.3-14.1,26.3c-1.1,2.5-3.7,4.4-6.6,5.8
			c1.7-1,3.1-2.5,3.9-4.3c0,0,15.3-19.6,14.1-26.3l-14.7-39.5c0,0-18.3-2.4-12-23.1c2.1-6.9,5.2-10.1,8.3-11.2
			C286,355.3,284,358.3,282.5,363.2z"/>
	</g>
	<g class="st13">
		<path d="M282.8,382c0.9,1.1,1.9,2,3,2.8c2.1,1.5,4.5,2.5,7,3c0,0,0,0,0,0v0.7c-2.3-0.5-4.5-1.4-6.4-2.8
			C285,384.7,283.8,383.5,282.8,382z"/>
		<path d="M225.8,411.6c0,0.1,0,0.2,0,0.3c0.2,3.5,0.7,7,1.3,10.5c2.2,12.8-0.7,38.2-1.1,41.7c-0.2-0.2-0.5-0.3-0.7-0.5l0,0
			c0.1-0.8,3.5-28.6,1.2-42.1c-0.6-3.5-1-7-1.2-10.5c0-0.1,0-0.2,0-0.3c-0.1-2-0.8-4-2-5.7C224.7,407,225.7,409.2,225.8,411.6z"/>
		<path d="M239.5,347.6l-7.3-0.1c0,0,0,0,0,0l-9.3,21c-1.6,3.6-2.9,7.4-3.7,11.3c-2.7,12.7-1,19,1.1,22.2c-2.3-2.7-4.7-9-1.7-23
			c0.8-3.9,2.1-7.7,3.7-11.3l9.3-21l0,0l8.6,0.2 M240.1,346.8c-0.1,0.1-0.3,0.4-0.6,0.8L240.1,346.8z"/>
		<path d="M294.2,353.3l0.1,0L294.2,353.3z"/>
		<path d="M291.6,353.1l-7.3-2.2 M284.3,351c-0.4,0.5-11,12.1-18.9,21.6c-7.1,8.4-19.5,7.8-22.4,7.5c-0.5-0.1-1.1-0.1-1.6-0.1
			c-8.1-0.5-11.3-1.5-12.4-3.5c1.5,1.5,4.9,2.2,11.7,2.6c0.5,0,1.1,0.1,1.6,0.1c3,0.3,15.4,1,22.4-7.5c7.9-9.5,18.4-21.1,18.9-21.6
			l0,0l10.6,3.2c-0.9-0.2-1.7-0.3-2.6-0.1L284.3,351z"/>
	</g>
	<path class="st5" d="M205.4,673.9c0,0-10.2,2.8-12.2-1.6"/>
	<path class="st5" d="M270.5,671.8c0,0-11.9,3.1-14.6-1.7"/>
	
		<linearGradient id="SVGID_5_" gradientUnits="userSpaceOnUse" x1="433.3436" y1="96.2959" x2="433.3436" y2="198.5513" gradientTransform="matrix(1 0 0 -1 -31.16 842.86)">
		<stop  offset="0" style="stop-color:#808080;stop-opacity:0.25"/>
		<stop  offset="0.54" style="stop-color:#808080;stop-opacity:0.12"/>
		<stop  offset="1" style="stop-color:#808080;stop-opacity:0.1"/>
	</linearGradient>
	<path class="st26" d="M441.8,665.1c0.2-1.5,0.4-3,0.7-4.5c1.2-6.4-0.6-12.5-1.5-15.1l0,0c-0.3-0.8-0.5-1.2-0.5-1.2
		c-4.7-1.3-23.4,13.2-30.2,18.6c-2.4,0-4.9,0.1-7.7,0.3c-1.2,0.1-2.4,0.1-3.7,0.1c-1.1,0-2.6,0-4.5,0c-6.3-5.1-25.8-20.4-30.7-19
		c0,0-0.2,0.4-0.5,1.2l0,0c-0.9,2.5-2.7,8.6-1.5,15.1c0.3,1.5,0.5,3,0.7,4.5c0.4,3.3,1.7,9.5,6.7,13.7c1.1,7.7,5,17.9,8.1,24
		c0.2,1.2,0.6,2.3,1,3.4c-1.3,4.9-2.7,11.2-2.3,13.4c0,0-6.6-1.6-7.3,6.3c0,0.1,0,0.2,0,0.2c-2.4,1.1-5.4,3.6-2,8.8
		c0.4,0.6,1,1.1,1.7,1.4c0.6,0.2,1.2,0.2,1.1-0.6l4.1,4.6c0,0,7.5,0.9,7.6-3.5l0.4,0.1c1,0.1,2,0.3,3.1,0.4l0.5,1.7
		c0,0-5.6-0.1-4.1,3.3c0,0,1.4,1.3,1.9,0.8c0,0-0.7,2.3,2.2,2.3c0,0,3.1,1.7,4.4,0.5s3.8-3,4-3.7c0.1-0.2,0.1-2,0.1-4.4h0.5
		c6.3,0.1,12.9-0.1,19-0.4h0.5c0,2.6,0,4.6,0.1,4.8c0.2,0.7,2.8,2.5,4,3.7c1.2,1.2,4.4-0.5,4.4-0.5c2.9,0,2.2-2.3,2.2-2.3
		c0.5,0.5,1.9-0.8,1.9-0.8c1.5-3.5-4.1-3.3-4.1-3.3l0.7-2.2l3.1-0.3l0.5,0c-0.3,4.7,7.6,3.8,7.6,3.8l4.1-4.6
		c-0.1,0.8,0.5,0.8,1.1,0.6c0.7-0.3,1.3-0.8,1.7-1.4c5.1-7.9-4.3-9.6-4.3-9.6c-0.3-0.1-0.6-0.1-0.9-0.1c0-0.1,0-0.3,0-0.4l0,0
		c0.1-1,0.1-2.1,0.1-3.1c-0.3-1.4-2.7-3.7-5.6-4c-1.9-0.2-1.9-9-1.7-15c0.2-1.1,0.3-2.3,0.3-3.4c0-1.9-0.2-3.7-0.7-5.5
		c3.7-6.3,6.7-12.9,7-14.9C440.1,674.6,441.4,668.4,441.8,665.1z"/>
	<path class="st6" d="M434.6,725.3L434.6,725.3c-0.3,4.1-1.1,10.7-1.1,10.7s-3.3,0.4-8.4,0.9l-3.5,0.3c-2.7,0.2-5.6,0.4-8.8,0.6
		c-5.8,0.3-12.2,0.5-18.3,0.4c-3-0.1-5.9-0.2-8.7-0.5c-1.2-0.1-2.4-0.3-3.5-0.4c-6.9-1-11.9-3-12.3-6.5c-0.2-1.5-0.3-3-0.2-4.5
		c0.6-7.8,7-6.2,7-6.2c-0.4-2.2,1.1-8.8,2.4-13.7c0.8-3.1,1.5-5.4,1.5-5.4l44.6-3h0.1c1.2,0,2.2,1,2.2,2.2c0,0,0,0.1,0,0.1
		c-0.3,5.4-0.6,17.6,1.5,17.9c2.8,0.3,5,2.6,5.4,4C434.8,723.3,434.7,724.3,434.6,725.3z"/>
	<path class="st6" d="M396.7,666.6c0,0-16.8,20.3-24.9,14.7c-0.2-0.1-0.4-0.3-0.6-0.4c-5.5-4.1-6.9-10.8-7.3-14.2
		c-0.2-1.5-0.4-2.9-0.7-4.4c-1.1-6.3,0.6-12.3,1.5-14.8l0,0c0.3-0.7,0.5-1.2,0.5-1.2C370.8,644.7,396.7,666.6,396.7,666.6z"/>
	<path class="st6" d="M387.7,668.4c0,0-5.3,3.7-12.8,9.8c-1.2,1-2.4,1.8-3.7,2.6c-5.5-4.1-6.9-10.8-7.3-14.2
		c-0.2-1.5-0.4-2.9-0.7-4.4c-1.1-6.3,0.6-12.3,1.5-14.8l0,0C375.2,648.2,387.7,668.4,387.7,668.4z"/>
	<path class="st27" d="M387.7,668.4c0,0-5.3,3.7-12.8,9.8c-1.2,1-2.4,1.8-3.7,2.6c-5.5-4.1-6.9-10.8-7.3-14.2
		c-0.2-1.5-0.4-2.9-0.7-4.4c-1.1-6.3,0.6-12.3,1.5-14.8l0,0C375.2,648.2,387.7,668.4,387.7,668.4z"/>
	<path class="st5" d="M381.9,666.4c0,0-2.8,2-6.8,5.2c-0.6,0.5-1.3,1-2,1.4c-2.9-2.2-3.7-5.8-3.9-7.6c-0.1-0.8-0.2-1.6-0.3-2.3
		c-0.4-2.7-0.1-5.4,0.8-7.9l0,0C375.2,655.6,381.9,666.4,381.9,666.4z"/>
	<path class="st6" d="M407.6,666.6c0,0,16.8,20.3,24.9,14.7c0.2-0.1,0.4-0.3,0.6-0.4c5.5-4.1,6.9-10.8,7.3-14.2
		c0.2-1.5,0.4-2.9,0.7-4.4c1.1-6.3-0.6-12.3-1.5-14.8l0,0c-0.3-0.7-0.5-1.2-0.5-1.2C433.5,644.7,407.6,666.6,407.6,666.6z"/>
	<path class="st6" d="M416.6,668.4c0,0,5.3,3.7,12.8,9.8c1.2,1,2.4,1.8,3.7,2.6c5.5-4.1,6.9-10.8,7.3-14.2c0.2-1.5,0.4-2.9,0.7-4.4
		c1.1-6.3-0.6-12.3-1.5-14.8l0,0C429.1,648.2,416.6,668.4,416.6,668.4z"/>
	<path class="st27" d="M416.6,668.4c0,0,5.3,3.7,12.8,9.8c1.2,1,2.4,1.8,3.7,2.6c5.5-4.1,6.9-10.8,7.3-14.2c0.2-1.5,0.4-2.9,0.7-4.4
		c1.1-6.3-0.6-12.3-1.5-14.8l0,0C429.1,648.2,416.6,668.4,416.6,668.4z"/>
	<path class="st5" d="M422.5,666.4c0,0,2.8,2,6.8,5.2c0.6,0.5,1.3,1,2,1.4c2.9-2.2,3.7-5.7,3.9-7.5c0.1-0.7,0.2-1.6,0.3-2.3
		c0.4-2.6,0.1-5.3-0.8-7.8l0,0C429.1,655.7,422.5,666.4,422.5,666.4z"/>
	<path class="st5" d="M425.4,698.1c-2.1,3.4-4.4,6.4-6.4,8.2c-6.7,5.9-35.5,3.6-37.4,3.3c-0.4-0.1-1.2-1.2-2.2-3.1
		c0.8-3.1,1.5-5.4,1.5-5.4L425.4,698.1z"/>
	<path class="st6" d="M402.6,664.9c-1.2,0.1-2.3,0.1-3.5,0.1c-6-0.1-26.3,0.2-28.6,8.4c-2.7,9.7,9.2,35.5,11.1,35.8
		s30.7,2.7,37.4-3.3c6.7-5.9,15.4-24.5,15-26.2C434,679.7,442.3,662.1,402.6,664.9z"/>
	<path class="st5" d="M402,680.5c0,0-14.9-2.3-21.8,12.3c-2.8,5.8-2.3,12.7,1.3,18c2.3,3.3,5.7,5.7,10.4,3.7
		C402.4,710.2,402,680.5,402,680.5z"/>
	<path class="st5" d="M401.5,679.6c0,0-14.9-2.3-21.8,12.3c-2.8,5.8-2.3,12.7,1.3,18c2.3,3.3,5.7,5.7,10.4,3.7
		C402,709.3,401.5,679.6,401.5,679.6z"/>
	<path class="st6" d="M401.5,680c0,0-14.9-2.3-21.8,12.3c-2.8,5.8-2.3,12.7,1.3,18c2.3,3.3,5.7,5.7,10.4,3.7
		C402,709.7,401.5,680,401.5,680z"/>
	<path class="st27" d="M401.5,680c0,0-14.9-2.3-21.8,12.3c-2.8,5.8-2.3,12.7,1.3,18c2.3,3.3,5.7,5.7,10.4,3.7
		C402,709.7,401.5,680,401.5,680z"/>
	<path class="st28" d="M385.5,692.8c0,0-2,1.9-1.2,2.3C385,695.6,385.5,692.8,385.5,692.8z"/>
	<path class="st28" d="M387.7,695.2c0,0-1.1,2.4-0.3,2.7c0.8,0.3,1.3-1.8,1.3-1.8L387.7,695.2z"/>
	<path class="st28" d="M382.8,698.9c0,0-1.1,2.9,0,2.9C383.8,701.8,382.8,698.9,382.8,698.9z"/>
	<path class="st29" d="M381.4,706.6c0,0,2.2,5.5,7.8,5.1"/>
	<path class="st29" d="M386.5,708.3c0,0,2.2,2.2,4.7,0.6"/>
	<path class="st5" d="M403.9,680.5c0,0,14.9-2.3,21.8,12.3c2.8,5.8,2.3,12.7-1.3,18c-2.3,3.3-5.7,5.7-10.4,3.7
		C403.4,710.2,403.9,680.5,403.9,680.5z"/>
	<path class="st5" d="M404.3,679.6c0,0,14.9-2.3,21.8,12.3c2.8,5.8,2.3,12.7-1.3,18c-2.3,3.3-5.7,5.7-10.4,3.7
		C403.9,709.3,404.3,679.6,404.3,679.6z"/>
	<path class="st6" d="M404.3,680c0,0,14.9-2.3,21.8,12.3c2.8,5.8,2.3,12.7-1.3,18c-2.3,3.3-5.7,5.7-10.4,3.7
		C403.9,709.7,404.3,680,404.3,680z"/>
	<path class="st27" d="M404.3,680c0,0,14.9-2.3,21.8,12.3c2.8,5.8,2.3,12.7-1.3,18c-2.3,3.3-5.7,5.7-10.4,3.7
		C403.9,709.7,404.3,680,404.3,680z"/>
	<path class="st28" d="M420.3,692.8c0,0,2,1.9,1.2,2.3C420.8,695.6,420.3,692.8,420.3,692.8z"/>
	<path class="st28" d="M418.1,695.2c0,0,1.1,2.4,0.3,2.7c-0.8,0.3-1.3-1.8-1.3-1.8L418.1,695.2z"/>
	<path class="st28" d="M423,698.9c0,0,1.1,2.9,0,2.9S423,698.9,423,698.9z"/>
	<path class="st29" d="M424.4,706.6c0,0-2.2,5.5-7.8,5.1"/>
	<path class="st29" d="M419.3,708.3c0,0-2.2,2.2-4.7,0.6"/>
	<path class="st28" d="M395.8,722.4c0.4-0.1,7.8-3.3,15.4,0H395.8z"/>
	<path class="st5" d="M382.4,737.3c-6.9-1-11.9-3-12.3-6.5c-0.2-1.5-0.3-3-0.2-4.5c0.8-0.4,1.7-0.8,2.6-1c1.3-0.3,2.8-0.1,6.1,0.8
		c3.3,0.9,3,4.8,3.7,9.8C382.5,736.4,382.5,736.9,382.4,737.3z"/>
	<path class="st6" d="M372.1,725.9c0,0-9,1.6-4.1,9.4c0.4,0.6,1,1.1,1.7,1.4c0.6,0.2,1.1,0.2,1.1-0.6l4,4.6c0,0,7.9,0.9,7.2-4.1
		s-0.5-8.9-3.7-9.8C375,725.8,373.4,725.5,372.1,725.9z"/>
	<path class="st29" d="M374.3,731.1c0,0,1.9,4.4,4.6,0.7"/>
	<path class="st29" d="M369.9,732.8c0,0,1,4.1,4.7,1.1"/>
	<path class="st5" d="M434.6,725.3L434.6,725.3c-0.3,4.1-1.1,10.7-1.1,10.7s-3.3,0.4-8.4,0.9c0-0.3,0-0.6,0-0.9
		c0.7-5,0.5-8.9,3.7-9.8C431.9,725.4,433.4,725.1,434.6,725.3z"/>
	<path class="st6" d="M435.4,725.9c0,0,9,1.6,4.1,9.4c-0.4,0.6-1,1.1-1.7,1.4c-0.6,0.2-1.1,0.2-1.1-0.6l-4,4.6c0,0-8,0.9-7.2-4.1
		c0.7-5,0.5-8.9,3.7-9.8C432.6,725.8,434.2,725.5,435.4,725.9z"/>
	<path class="st29" d="M433.3,731.1c0,0-1.9,4.4-4.6,0.7"/>
	<path class="st29" d="M437.7,732.8c0,0-1,4.1-4.7,1.1"/>
	<path class="st5" d="M394.6,738.2c-3-0.1-5.9-0.2-8.7-0.5l-2.7-9.1c-0.2-0.5-0.2-1.1-0.2-1.7c0.1-3.2,2.8-5.7,6-5.6
		c3,0.1,5.5,2.5,5.6,5.5C394.6,730.5,394.6,734.9,394.6,738.2z"/>
	<path class="st6" d="M382.8,728.6l3.2,10.7c0,0-5.4-0.1-3.9,3.3c0,0,1.4,1.3,1.8,0.8c0,0-0.7,2.2,2.1,2.2c0,0,3,1.6,4.2,0.5
		c1.2-1.2,3.6-2.9,3.9-3.6c0.1-0.5,0.1-9.4,0.1-15.6c0-3.2-2.6-5.7-5.8-5.7l0,0c-3.2,0-5.8,2.6-5.8,5.8
		C382.5,727.5,382.6,728.1,382.8,728.6z"/>
	<path class="st29" d="M387.1,742.1c0,0-2.4,2.2-1.1,3.5"/>
	<path class="st29" d="M386,740.7c0,0-2.2,0.7-2.2,2.7"/>
	<path class="st5" d="M424.4,727c0,0.6-0.1,1.1-0.2,1.7l-2.5,8.6c-2.7,0.2-5.6,0.4-8.8,0.6c0-3.2,0-7.5,0.1-10.9
		c0-3.2,2.6-5.8,5.8-5.8C421.9,721.2,424.5,723.8,424.4,727L424.4,727L424.4,727z"/>
	<path class="st6" d="M424.7,728.6l-3.2,10.7c0,0,5.4-0.1,3.9,3.3c0,0-1.4,1.3-1.8,0.8c0,0,0.7,2.2-2.1,2.2c0,0-3,1.6-4.2,0.5
		c-1.2-1.2-3.6-2.9-3.9-3.6c-0.1-0.5-0.1-9.4-0.1-15.6c0-3.2,2.6-5.7,5.8-5.7l0,0c3.2,0,5.8,2.6,5.8,5.8
		C424.9,727.5,424.8,728.1,424.7,728.6z"/>
	<path class="st29" d="M420.4,742.1c0,0,2.4,2.2,1.1,3.5"/>
	<path class="st29" d="M421.4,740.7c0,0,2.2,0.7,2.2,2.7"/>
	<path class="st5" d="M401.5,677.7c0,0-11-0.3-11.3,8.2c-0.3,8.5,17.2,4.9,17.2,4.9s7.4-1,6.1-6.2
		C412.1,679.4,409.5,678.2,401.5,677.7z"/>
	<path class="st5" d="M401.5,676.8c0,0-11-0.3-11.3,8.2c-0.3,8.5,17.2,4.9,17.2,4.9s7.4-1,6.1-6.2S409.5,677.2,401.5,676.8z"/>
	<path class="st28" d="M401.5,677.2c0,0-11-0.3-11.3,8.2c-0.3,8.5,17.2,4.9,17.2,4.9s7.4-1,6.1-6.2
		C412.1,679,409.5,677.7,401.5,677.2z"/>
	<path class="st5" d="M377,720.2c0,0,3.7,1.3,4.5,3.9"/>
	<path class="st5" d="M429.3,718.3c0,0-2.6,1.1-2.5,5.7"/>
	<ellipse transform="matrix(0.867 -0.4983 0.4983 0.867 -318.1199 286.951)" class="st6" cx="378.5" cy="739.5" rx="1.7" ry="2.9"/>
	<ellipse transform="matrix(0.5 -0.866 0.866 0.5 -422.7874 741.5225)" class="st6" cx="430.8" cy="736.9" rx="2.8" ry="1.7"/>
	
		<ellipse transform="matrix(0.867 -0.4983 0.4983 0.867 -318.1199 286.951)" class="st27" cx="378.5" cy="739.5" rx="1.7" ry="2.9"/>
	<ellipse transform="matrix(0.5 -0.866 0.866 0.5 -422.7874 741.5225)" class="st27" cx="430.8" cy="736.9" rx="2.8" ry="1.7"/>
	<ellipse class="st0" cx="151.2" cy="643.1" rx="20" ry="3.4"/>
	<ellipse class="st0" cx="72.4" cy="691" rx="20" ry="3.4"/>
	<ellipse class="st6" cx="51.6" cy="648.2" rx="29.9" ry="5"/>
	<path class="st6" d="M39.2,639.9c-1.4-1.1-2.4-2.6-2.9-4.3c-0.4-1.7,0.4-3.8,2-4.4c1.8-0.7,3.8,0.6,5.3,1.8
		c1.5,1.3,3.2,2.7,5.1,2.5c-2-1.8-2.9-4.6-2.4-7.3c0.1-0.5,0.3-1.1,0.7-1.5c1-1.1,2.9-0.6,4.1,0.2c3.9,2.7,4.9,8,5,12.7
		c0.4-1.7,0.1-3.5,0.1-5.2c0-1.7,0.5-3.7,2-4.6c0.9-0.5,1.9-0.8,3-0.7c1.7-0.1,3.7,0.1,4.9,1.4c1.5,1.6,1.1,4.2-0.2,5.9
		c-1.3,1.7-3.2,2.8-5,4c-1.4,0.9-2.7,2-3.6,3.4c-0.1,0.2-0.2,0.4-0.3,0.6H46C43.5,643.3,41.3,641.8,39.2,639.9z"/>
	<ellipse class="st0" cx="772.9" cy="671.4" rx="20" ry="3.4"/>
	<path class="st30" d="M759.5,655.7c0,0,11.4-0.3,14.9-2.8c3.4-2.5,17.5-5.4,18.4-1.4s17.1,19.5,4.3,19.6c-12.9,0.1-29.9-2-33.4-4.1
		S759.5,655.7,759.5,655.7z"/>
	<path class="st31" d="M797.2,669.7c-12.9,0.1-29.9-2-33.4-4.1c-2.6-1.6-3.7-7.3-4-9.9h-0.4c0,0,0.7,9.2,4.2,11.3
		c3.4,2.1,20.5,4.2,33.4,4.1c3.7,0,5-1.4,4.9-3.3C801.4,669,800,669.7,797.2,669.7z"/>
</g>
</svg>
