<?xml version="1.0" encoding="utf-8"?>
<!-- Generator: Adobe Illustrator 23.0.6, SVG Export Plug-In . SVG Version: 6.00 Build 0)  -->
<svg version="1.1" id="bdb04d07-607e-4453-aab0-0c653d7063a3"
	 xmlns="http://www.w3.org/2000/svg" xmlns:xlink="http://www.w3.org/1999/xlink" x="0px" y="0px" viewBox="0 0 1037.9 772.3"
	 style="enable-background:new 0 0 1037.9 772.3;" xml:space="preserve">
<style type="text/css">
	.st0{fill:#3F3D56;}
	.st1{fill:#55D0BC;}
	.st2{opacity:0.1;enable-background:new    ;}
	.st3{fill:#2F2E41;}
	.st4{fill:#A0616A;}
	.st5{fill:#FFFFFF;}
	.st6{fill:#D0CDE1;}
	.st7{fill:#FBBEBE;}
	.st8{fill:#B3B3B3;}
	.st9{opacity:0.2;enable-background:new    ;}
	.st10{fill:#E6E6E6;}
</style>
<title>real_time_collaboration</title>
<path class="st0" d="M668.3,437.7c-19.6,11.8-54.7,26.5-90.5,11.4l-23.1-9.8l46.4-52c-82.1-90.6-75.4-230.6,15.2-312.8
	S846.9-0.8,929.1,89.8s75.4,230.6-15.2,312.8C846.8,463.3,749.7,477.2,668.3,437.7z M579.5,238.2c-0.2,51.3,21,100.4,58.6,135.4
	l12.8,12l-29.2,32.7c15.2-3,28.4-11.3,35.2-16.1l9.2-6.6l9.9,5.4c27.4,15,58.1,22.9,89.3,22.8c102.5,0,185.8-83.3,185.8-185.8
	S867.7,52.2,765.3,52.2S579.5,135.7,579.5,238.2L579.5,238.2z"/>
<path class="st1" d="M561.4,238.2c0-112.5,91.3-203.8,203.8-203.8s203.8,91.3,203.8,203.8S877.7,442,765.2,442
	c-34.3,0.1-68-8.5-97.9-25.1c-14,10-48.4,30-82.4,15.6l40.9-45.8C584.6,348.2,561.4,294.5,561.4,238.2z"/>
<path class="st2" d="M934.3,238.6c0-106.5-81.6-193.8-185.8-203c5.9-0.5,12-0.8,18-0.8c112.5,0,203.8,91.3,203.8,203.8
	s-91.3,203.8-203.8,203.8c-6.1,0-12.1-0.3-18-0.8C852.6,432.4,934.3,345.1,934.3,238.6z"/>
<path class="st0" d="M295.7,720.8c-122.6,0-222-99.3-222.1-221.9s99.3-222,221.9-222.1s222,99.3,222.1,221.9
	c0,55.3-20.5,108.6-57.8,149.4l46.4,52l-23.1,9.8c-35.8,15.2-70.8,0.4-90.5-11.4C362.4,713.1,329.3,720.8,295.7,720.8z M295.7,313.3
	c-102.5,0-185.8,83.3-185.8,185.8s83.3,185.8,185.8,185.8c31.2,0,61.9-7.9,89.3-22.8l9.9-5.4l9.2,6.6c6.7,4.8,19.9,13,35.2,16.1
	l-29.2-32.7l12.8-12c37.5-35,58.7-84.1,58.6-135.4C481.5,396.6,398.1,313.3,295.7,313.3L295.7,313.3z"/>
<path class="st1" d="M499.4,499c0-112.5-91.3-203.8-203.8-203.8S91.9,386.4,91.9,499s91.2,203.8,203.8,203.8
	c34.3,0.1,68-8.5,97.9-25.1c14,10,48.4,30,82.4,15.6l-40.9-45.9C476.3,609.1,499.5,555.2,499.4,499z"/>
<path class="st2" d="M127.9,498c0-106.5,81.6-193.8,185.8-203c-5.9-0.5-12-0.8-18-0.8c-112.5,0-203.8,91.3-203.8,203.8
	s91.2,203.8,203.8,203.8c6.1,0,12.1-0.3,18-0.8C209.5,691.8,127.9,604.4,127.9,498z"/>
<path class="st3" d="M813,173.5c-13.4-22.5-39.7-23.6-39.7-23.6s-25.7-3.2-42.1,31c-15.3,32-36.5,62.9-3.4,70.3l6-18.7l3.7,20
	c4.7,0.3,9.4,0.4,14.1,0.2c35.5-1.2,69.4,0.3,68.3-12.4C818.4,223.6,825.9,195.2,813,173.5z"/>
<path class="st3" d="M725.9,370.7c-0.4,2.5-1,4.9-1.7,7.4c-0.8,2.4-2.2,4.5-2.8,6.9c-2.5,7.6,1,16,6.3,21.8
	c4.7,5,10.7,8.6,17.4,10.3c4.9,1.1,9.9,1.6,14.9,1.6c13.9,0.5,28.1,0.9,41.2-3.5c4.1-1.5,8.2-3.2,12-5.4c1.2-0.6,2.3-1.4,3.1-2.5
	c0.9-1.5,1.3-3.2,1.1-5c0-5.9-1.2-11.7-1-17.6c0.2-3.2,0.8-6.5,0.5-9.7c-0.9-7.6-6.4-13.8-13.8-15.5c-3.7-0.8-7.6-0.4-11.4,0
	c-9.8,1-19.7,1.4-29.7,1.3c-10.1-0.1-20.1-1.6-30.2-1.8c-2.9,0-2.9,0.9-3.8,3.7C727.1,365.3,726.4,368,725.9,370.7z"/>
<path class="st4" d="M754.6,225.6c-0.5,2.6-1,5.2-2.6,7.3c-1.8,2.4-4.6,3.7-6.5,6.1c-2.8,3.4-3,8.4-3,12.8c0,4.1,0.1,8.5,2.4,12
	c1.7,2.2,3.6,3.9,6,5.3c8.6,5.8,18,11.8,28.4,12c4.3,0.1,8.9-1.1,11.8-4.3c1.2-1.6,2.2-3.2,2.8-5.1c2.7-6.6,4.3-13.5,4.8-20.5
	c0.4-3.3,0.1-6.7-0.9-9.9c-1.3-3.5-3.8-6.4-5.5-9.7c-2-3.9-2.8-8.4-2.1-12.9c0.1-0.3,0.1-0.7-0.1-0.9c-0.3-0.3-0.7-0.5-1.1-0.5
	l-20.6-1.5c-2-0.1-3.8-0.3-5.7-0.7c-1.1-0.2-4-1.8-5.1-1.4C755.5,214.4,755,223.6,754.6,225.6z"/>
<path class="st2" d="M754.6,226.3c-0.5,2.6-1,5.2-2.6,7.3c-1.8,2.4-4.6,3.7-6.5,6.1c-2.8,3.4-3,8.4-3,12.8c0,4.1,0.1,8.5,2.4,12
	c1.7,2.2,3.6,3.9,6,5.3c8.6,5.8,18,11.8,28.4,12c4.3,0.1,8.9-1.1,11.8-4.3c1.2-1.6,2.2-3.2,2.8-5.1c2.7-6.6,4.3-13.5,4.8-20.5
	c0.4-3.3,0.1-6.7-0.9-9.9c-1.3-3.5-3.8-6.4-5.5-9.7c-2-3.9-2.8-8.4-2.1-12.9c0.1-0.3,0.1-0.7-0.1-0.9c-0.3-0.3-0.7-0.5-1.1-0.5
	l-20.6-1.5c-2-0.1-3.8-0.3-5.7-0.7c-1.1-0.2-4-1.8-5.1-1.4C755.5,215,755,224.2,754.6,226.3z"/>
<circle class="st4" cx="774.3" cy="198.1" r="30.3"/>
<path class="st5" d="M758.8,266c1.5,1.8,3.3,3.1,5.3,4.2c2.1,0.9,4.3,1.3,6.7,1.3c5.5,0.2,11.4-0.9,15.2-4.8
	c4.9-5.1,4.7-13.3,8.5-19.2c0.3-0.5,0.7-1,1.3-1.4c0.7-0.4,1.4-0.5,2.1-0.5c4.8,0,9,3.1,12.9,6.1c1.8,1.3,3.3,2.8,4.5,4.6
	c0.8,1.5,1.3,3,1.6,4.7c1.9,9.2,2.5,18.7,3.1,28.1c0.3,5.2,0.7,10.4,0.7,15.6c-0.1,17.2-4,34-8.1,50.7c-0.5,2.2-1.2,4.5-3.1,5.6
	c-0.9,0.4-1.8,0.6-2.8,0.7c-11.4,1.4-22.7,2.7-34.2,2.8c-4.4,0.1-8.9,0-13.4-0.3c-0.8,0-1.6-0.1-2.3-0.4c-1-0.5-1.9-1.2-2.5-2.1
	c-6.2-7.8-6.6-18.6-6.5-28.5c0.1-24.3,1-48.6,2.7-72.9c0.1-2,0.2-4.4-1.3-6C752,258.5,755.2,262.5,758.8,266z"/>
<path class="st5" d="M752.3,231c-1,1.9-8.5,6.5-10,8c-8.2,8.5-23,8.3-30.5,17.5c-2.7,3.2-3.9,7.3-5,11.3c-1.4,5.7-2.2,12,0.2,17.3
	c2.3,5.2,7.1,8.7,10.3,13.4c3.5,5.1,5.2,11.3,6.8,17.3c1.2,4.4,2.3,9,1.9,13.6c-0.5,5.2-3,9.9-4.5,14.9c-1.5,5-1.8,11,1.7,14.9
	c2.6,2.8,6.5,4,10.2,4.7c4.8,0.7,9.7,1.2,14.6,1.3c4.3,0.2,9,0.2,12.4-2.6c2.7-2.2,3.7-5.7,3.9-9.1c0.1-3.4-0.6-6.8-1-10.2
	c-0.5-3.5-0.6-7.1-0.8-10.6c-0.7-15.8-0.8-31.7-0.3-47.5c0.2-3.3,0.1-6.6-0.5-9.9c-0.9-4.2-3.2-8.1-5.1-12c-3.8-7.4-5.6-15.6-5-23.9
	C752.3,230.8,756,224.4,752.3,231z"/>
<path class="st5" d="M794.9,231.6c1.6,1.6,6.9,2.2,8.8,3.1c1.9,0.9,3.8,1.6,5.8,2c7.3,2.1,14.1,5.2,20.4,9.3
	c1.3,0.8,2.5,1.8,3.4,2.9c1,1.7,1.7,3.4,1.9,5.3c1,4.8,2,9.6,1.8,14.5c-0.2,5.2-1.8,10.2-3.3,15.2l-5.8,18.6
	c-4.3,13.9-8.7,27.9-9.9,42.3c-0.7,8.1-0.4,16.1,0.9,24.1c0.2,0.8,0.1,1.7-0.3,2.4c-0.4,0.4-0.9,0.6-1.4,0.7c-2.8,0.4-5.5-1-8.1-2.3
	c-7.8-3.8-16-6.6-24.6-8.1c3.3-4.8,5.9-10.1,7.7-15.7c1-3.5,1.8-7.2,2.3-10.8l2.8-15.6c1.1-5.7,1.9-11.5,2.4-17.3
	c0.2-2.2,0.1-4.3-0.4-6.5c-0.6-2.1-1.5-4-2.5-5.9c-4.4-9.2-6.6-19.8-4.8-30c0.8-4.4,2.3-8.8,1.7-13.4c-0.6-4.3,0-7.6-1.1-11.9
	C787.8,217.5,792,228.7,794.9,231.6z"/>
<path class="st5" d="M711.8,271.1c-2.1,4.2-5.4,7.8-6.6,12.4c-0.5,2.2-0.7,4.3-0.6,6.5c-0.2,3.2,0.1,6.5,1,9.7
	c0.7,2,1.7,3.8,2.5,5.8c1.1,2.8,1.5,5.7,1.4,8.5c-0.2,4-1.6,8-1.7,12.1c-0.2,6.4,2.8,12.4,5.7,18.1c2.8-6.8,10.5-10.1,17.3-7.4
	c0.7,0.3,1.4,0.6,2.1,1c0.7-0.8,1-1.9,0.9-2.8c0.2-7.4,0.4-14.8,0.6-22.2c0.3-11.5,0.6-23.1-2.1-34.2c-1.2-5-3-10-6.5-14
	c-1.8-2.1-7.9-7.5-10.8-5.2c-1.3,1.1-1,3.8-1.2,5.3C713.5,266.8,712.8,269.1,711.8,271.1z"/>
<path class="st5" d="M837.6,258.9c0.8,3,1.2,6.2,1.1,9.3c0,6.4,0,12.8-0.3,19.3c0,3.2-0.4,6.6-1.3,9.7c-0.7,2.1-1.7,4-2.4,6.1
	c-2.1,6.2-0.9,12.9-0.8,19.4c0.1,2.1-0.1,4.2-0.5,6.3c-1.1,4-3.9,7.3-6,10.9c-1.9,3.4-3,7.4-5.3,10.5c-2.3,3.2-6.2,5.8-10,4.8
	c-2.8-0.8-4.9-3.3-6.4-6c-3.1-5.8-4.1-12.5-3-19c1.5-7.9,6.1-14.8,7.8-22.7c2.3-10.7-1.2-21.8-1.1-32.8c0-1.8,0.2-3.4,0.7-5.1
	c0.9-2.6,2.8-4.5,4.5-6.5c2.2-2.6,4.2-5.1,6-8c1.3-1.9,2.9-6.6,5.1-7C830.6,247.3,836.3,255.1,837.6,258.9z"/>
<path class="st3" d="M686.3,365.9c-2.8-0.7-5.5-1-8.4-0.9c-11.5,0.6-20.2,10.4-19.5,21.9c0,0.9,0.2,1.8,0.3,2.6
	c0.7,3.1,1.8,6.2,3.3,9c2.2,4.5,4.8,8.9,8.9,11.8c2.5,1.6,5.1,2.8,7.9,3.7l21.5,8.1c3.1,1.2,6.3,2.4,9.5,3.5
	c16,5.5,32.8,8.8,49.7,9.9c5.2,0.5,10.3,0.2,15.4-0.8c1.3-0.2,2.4-0.8,3.1-1.7c0.4-0.7,0.7-1.5,0.7-2.4l1.3-9.2
	c0.3-1.3,0.3-2.7-0.1-3.9c-0.6-1.6-2.2-2.6-3.5-3.3c-14.1-8.2-30.7-12.6-42.5-23.8c-2.8-2.7-5.1-6.8-8.5-8.5
	c-3.8-2.1-8.4-3.1-12.4-5C704.4,372.8,695.8,368.1,686.3,365.9z"/>
<path class="st2" d="M707.8,378.4c7.6,2.4,39.7,18.9,45.2,24.7c-0.8,0.3-25.7-13.8-26.5-14c-6.9-1.9-13.7-4.2-20.1-7.1
	c-1.3-0.6-8.4-3.4-8.2-5.1C698.6,375.1,706.4,378,707.8,378.4z"/>
<path class="st4" d="M802.6,440.4c0.4,0,0.9-0.1,1.2-0.4c0.3-0.4,0.4-0.9,0.4-1.4V426c-3.6-1.8-7.7-2.3-11.7-2.8l-18.6-2.5
	c0.4,0.1-2.9,8.1-2.4,9c0.9,1.9,7.8,3.5,9.7,4.4C788,437.2,795,440.7,802.6,440.4z"/>
<path class="st4" d="M744.3,425.9c-3.5,0.6-7.5,1.1-9.7,3.8c-2.8,3.4-1.7,8.6-0.3,13c0.4,2.3,2.5,3.8,4.8,3.5h0.1
	c3.2,0.2,6.6,0.4,9.4-1.2c1.3-0.9,2.5-1.8,3.6-2.8c2.1-1.4,4.3-2.5,6.7-3c4.4-1.4,8.9-2.4,13.5-2.8c1.8-0.1,3.6-0.4,5.3-1
	c1.8-0.6,3.1-1.9,3.7-3.6c0.7-2.3-0.7-4.6-2-6.7c-1.5-2.7-3.3-5-5.7-7c-3.4-2.7-5.2-0.6-8.6,1.1
	C758.6,422.6,751.6,424.9,744.3,425.9z"/>
<path class="st3" d="M735.1,429.2l-22.3-6.6c-2.7-0.9-5.5-1.5-8.3-1.6c-2.8-0.1-5.6,1-7.7,3c-1.8,2.1-2.3,4.8-2.7,7.5l-0.9,5.6
	c-0.6,2.8-0.8,5.8-0.5,8.6c0.3,2.9,2,5.6,4.4,7.1c3,1.7,6.9,0.9,10.3,0.2c7-1.4,14-2.2,21.1-2.3c2.7,0,5.5,0,7.9-1.3
	c2.8-1.7,4.5-4.5,4.8-7.8C741.7,436.9,740.1,430.7,735.1,429.2z"/>
<path class="st3" d="M811.4,423.4c2.8-0.5,5.4-2.2,8.3-3.1c3.9-1.4,8.2-1.4,12.3-1.4c1.5-0.1,3,0.2,4.4,0.9c1.9,1.2,2.3,3.6,2.6,5.8
	l1.9,13.1c0.5,2.5,0.6,4.9,0.2,7.4c-0.6,2.5-2.2,4.7-4.6,5.4c-2.9,0.8-5.8-1.1-8.5-2.4c-6.9-3-14.8-2.3-22-4.5
	c-1.4-0.3-2.6-1.2-3.3-2.4c-0.2-0.7-0.3-1.5-0.3-2.3c0.1-4.2-0.8-9.9,0.5-14C803.8,422.4,808.2,423.4,811.4,423.4z"/>
<path class="st3" d="M858.6,360.7c4.4-1.1,9-1.5,13.7-0.9c3.6,0.4,7.4,1.4,10,3.9c3.2,3,4.3,7.9,4.3,12.3c0.1,8.8-2.8,17.6-8.4,24.5
	c-1.4,1.8-2.9,3.3-4.8,4.6c-2,1.2-4,2.3-6.2,2.9l-48.1,19c-12.7,5-25.3,10-38.6,13.3c-1.5,0.7-3.3,0.1-4-1.4c0,0,0,0,0-0.1
	c-4.2-6-7.8-12.5-10.5-19.4c-0.5-0.6-0.4-1.4,0.2-1.9c0.1-0.1,0.3-0.2,0.4-0.2l34.1-19.5c2.5-1.3,4.8-2.9,7-4.8
	c1.5-1.5,2.7-3.1,3.5-4.9c0.7-1.5,0.8-4.9,1.7-6.1c0.9-1.1,3.9-1.2,5.3-1.6c2-0.6,3.9-1.4,5.8-2.2c7.7-3.4,14.4-8.4,21.7-12.4
	C849.7,363.8,854,361.9,858.6,360.7z"/>
<path class="st2" d="M839.3,375.3c-5.9,4.4-13.5,8.4-19.3,13c-2,1.6-35,20.1-35.5,22.6c5.4,0.9,39.9-23.2,44.8-25.6
	c4.9-2.4,9.3-5.8,13.7-9.1c1.1-0.9,5.8-3.4,2.7-4.4C843.9,371.1,840.5,374.5,839.3,375.3z"/>
<path class="st6" d="M799,232.1h-51.4c-4.3,0-7.9,3.5-7.9,7.9l0,0v2.8h-0.6v6.5h0.6v4.5h-0.6v3.8h0.6v47.5c0,4.3,3.5,7.9,7.9,7.9
	l0,0H799c4.3,0,7.9-3.5,7.9-7.9l0,0V240C806.8,235.6,803.3,232.1,799,232.1z"/>
<polygon class="st3" points="807.1,171.3 781.1,157.6 745.1,163.2 737.7,196.1 756.2,195.4 761.4,183.3 761.4,195.2 769.9,194.9 
	774.9,175.6 778,196.1 808.4,195.5 "/>
<path class="st4" d="M718.6,356.5c1.2,2,2.8,3.6,4.9,4.8c2.7,1.2,5.8,1.2,8.4-0.2c2.6-1.4,4.6-3.4,6-6.1c2.8-5,3.4-11,3-16.7
	c-0.4-5.7-1.6-11.4-2.2-17.1c-0.4-4.1-0.4-8.4-0.5-12.5c-0.1-0.9,0.1-1.8,0.5-2.6c0.8-0.8,1.8-1.3,2.8-1.4
	c5.7-1.7,9.5-7.1,12.2-12.4c1.8-3.5,3.4-7.4,3-11.4c-0.4-4-3.2-8-7.2-8.4c-3.2-0.3-6.3,1.8-8.6,4c-5.9,5.8-9.7,13.5-10.8,21.7
	c-0.5,4-0.4,8.2-1.5,12.1c-2.4,8.4-9.6,13.5-13.4,21C711.5,339.7,713.8,349.1,718.6,356.5z"/>
<path class="st4" d="M826.5,324.5c-1.7,3.9-4.9,7-8.8,8.5c-2.5,1-5.1,1.2-7.7,0.5c-2.6-0.7-4.6-2.6-5.6-5c-0.4-1.2-0.6-2.5-0.6-3.8
	c-0.4-5.6-0.2-11.4,1.9-16.7c0.8-2.1,1.9-3.9,2.5-6.1c0.6-2.5,0.9-4.9,0.9-7.4l0.7-15.4c0.1-1.1,0-2.3-0.2-3.3
	c-0.7-2.3-2.8-3.6-4.6-5c-4.6-3.2-9.1-7-11.4-12.1c-0.8-1.6-1.1-3.3-0.8-5c0.6-3,3.7-5,6.8-5.7c8.2-1.8,16.2,3.3,18,11.5
	c0,0.2,0.1,0.4,0.1,0.7c0.3,1.8,0.3,3.5,0.5,5.3c0.4,3.7,1.6,7.3,2.3,11c1.9,9,0.9,18.4,2.7,27.4
	C824.3,311.3,829.9,316.2,826.5,324.5z"/>
<circle class="st1" cx="774" cy="260.2" r="6.5"/>
<circle class="st3" cx="74.2" cy="472.9" r="19.1"/>
<polygon class="st7" points="143.1,529.3 133.5,520 114.2,526 116.1,548.3 155.7,546.4 143.5,529.9 "/>
<circle class="st7" cx="122.1" cy="498.3" r="30.7"/>
<path class="st3" d="M313,568.8c0,0,37.7,64.9,46.8,74.7c4.3,4.8,8.8,9.3,13.7,13.6c0,0-4.2,14-11,13.6c-3.8-0.2-7.6-1.2-11.1-2.8
	c0,0-3-7.8-8.3-11.2c-5.2-3.4-48-45.5-47.1-58.9C297,584.1,313,568.8,313,568.8z"/>
<path class="st3" d="M178.5,661.3c0,0,40.3,31.2,95,1.9l4.7-3.4c0,0-8,17.9-8.7,22.8c-0.9,5.6-21.6,38.6-25,40.2
	c-3.3,1.6-4.1,3-4.1,3l14.3,15.8l5.3-3.9c0,0,20.7-29.3,26.7-34.7c6.1-5.4,34.9-60.6,34.9-60.6s11-20.8-16.5-22.4
	c-27.5-1.6-40.2,5.9-40.2,5.9l-48.8,7.8L178.5,661.3z"/>
<path class="st3" d="M373.8,653.9l20.3,14c0,0,25.9,8.2,10,13.6c-16,5.4-58.2,7.4-59.1-0.1c-1-7.5,1.7-19.3,3.7-18.6
	C350.9,663.5,365.5,667.3,373.8,653.9z"/>
<path class="st3" d="M261.9,732.7l3.7,20.7c0,0,10.7,20.5-2.2,14.1c-12.9-6.4-39.4-30.6-35.5-35.6s12.6-10.5,13.5-8.9
	C242.3,724.8,248.8,735.8,261.9,732.7z"/>
<path class="st5" d="M223,640.4c0,0-27.4,31.9-44,24.2c-16.6-7.8-84.6-97.7-76.8-114.3s10.4-13.1,10.4-13.1l35.1,3.2l-10.1-16.2
	c0,0,4.7-3.4,9.2,1.4c4.5,4.9,22.5,17,28.8,34.2c6.3,17.2,24.8,16.3,24.8,16.3L223,640.4z"/>
<polygon class="st0" points="333.5,574.5 286.1,624.9 243.6,549.8 284,501 "/>
<polygon class="st5" points="330,574 287.1,618.2 248.3,550 283.9,505.2 "/>
<polygon class="st8" points="283.8,622.9 286.1,624.9 284.6,627.7 218.3,647.5 217.7,645.2 220.6,642.2 "/>
<polygon class="st6" points="286.7,624.4 218,645.9 176.1,566.8 243.6,549.8 "/>
<polygon class="st0" points="281.5,613.7 278.6,615.8 245.9,559.1 249.2,557.5 "/>
<polygon class="st0" points="274.8,616.8 245.7,625.5 212.7,567.1 241.5,560.5 "/>
<path class="st7" d="M192.9,573.5l6-1.7c0,0,33.6-3.8,34.1,6.8c0.5,10.6-38.5,5.7-38.5,5.7l-5.2-7.1L192.9,573.5z"/>
<path class="st7" d="M222.3,620.9l8.4-3.4c0,0,25.2-11.3,18.1-18.8c-7.3-7.4-29.6,5.4-29.6,5.4l-4.3,4L222.3,620.9z"/>
<path class="st5" d="M214.8,604.6c0,0,13.7,13.6,10.5,16.8c-3.1,3.1-54,45.2-66.6,31.7c-12.6-13.5-74.1-80.9-50.2-86.6
	c23.9-5.8,30.3,7.8,30.3,7.8l31.5,54L214.8,604.6z"/>
<polygon class="st5" points="174.1,563.3 196.5,570.9 196.1,587.1 172.4,584.5 "/>
<polygon class="st9" points="194.2,613 170,627.1 142.5,584.7 169.2,619.7 "/>
<ellipse transform="matrix(0.9999 -9.999806e-03 9.999806e-03 0.9999 -4.8891 1.1116)" class="st3" cx="108.7" cy="489.5" rx="36.5" ry="36.5"/>
<polygon class="st1" points="306.4,577.7 280.8,540.2 291.6,526.7 318.2,565.3 "/>
<polygon class="st10" points="305.6,592.8 266.6,536.1 268.6,533.7 307.4,590.6 "/>
<polygon class="st10" points="300.6,598.3 261.6,541.6 263.6,539.2 302.4,596.1 "/>
<polygon class="st10" points="296.4,602.4 257.4,545.6 259.2,543.3 298,600.1 "/>
<path class="st3" d="M124.9,465h11.3c11.9,0,21.6,9.6,21.6,21.6l0,0l0,0l0,0h-32.9l0,0L124.9,465L124.9,465z"/>
<path class="st0" d="M280.8,451.3l-2.1-0.2c-0.1,1.1-0.1,2.2-0.2,3.2l-9.2-0.3l9.6,18.1l10.8-17.4l-9.2-0.3
	C280.7,453.4,280.7,452.3,280.8,451.3z"/>
<path class="st0" d="M334.8,303.7l1.7,1.3c2.5-3.2,5-6.4,7.7-9.5l-1.6-1.3C339.9,297.2,337.2,300.5,334.8,303.7z"/>
<path class="st0" d="M350.6,284.8l1.5,1.4c2.8-2.9,5.6-6,8.4-8.8l-1.5-1.5C356.2,278.8,353.4,281.8,350.6,284.8z"/>
<path class="st0" d="M367.9,267.4l1.4,1.5c2.9-2.8,6.1-5.4,9.1-8.1l-1.3-1.6C374.1,261.9,370.9,264.6,367.9,267.4z"/>
<path class="st0" d="M320.7,323.9l1.8,1.1c2.2-3.4,4.4-6.9,6.8-10.2l-1.7-1.2C325.3,317,322.9,320.4,320.7,323.9z"/>
<path class="st0" d="M386.8,251.6l1.3,1.7c3.2-2.5,6.5-4.9,9.8-7.2l-1.2-1.7C393.3,246.7,390,249.1,386.8,251.6z"/>
<path class="st0" d="M308.6,345.3l1.9,1c1.9-3.6,3.8-7.2,5.8-10.7l-1.8-1C312.4,337.9,310.4,341.7,308.6,345.3z"/>
<path class="st0" d="M288.7,403.1l-2-0.5c-1,3.9-2,8-2.8,12l2.1,0.4C286.8,411.1,287.7,407.1,288.7,403.1z"/>
<path class="st0" d="M406.9,237.5l1.1,1.8c3.4-2.2,6.9-4.3,10.4-6.3l-1-1.8C413.9,233.2,410.3,235.4,406.9,237.5z"/>
<path class="st0" d="M283.7,427l-2.1-0.3c-0.7,4-1.3,8.2-1.8,12.2l2.1,0.2C282.4,435.1,283,431,283.7,427z"/>
<path class="st0" d="M298.2,367.6l1.9,0.8c1.6-3.7,3.1-7.6,4.8-11.2l-1.9-0.9C301.5,360,299.8,363.9,298.2,367.6z"/>
<path class="st0" d="M290,390.9l2,0.6c1.2-3.9,2.5-7.8,3.8-11.6l-2-0.7C292.5,383,291.3,386.9,290,390.9z"/>
<path class="st0" d="M546.1,196.5c4-0.1,8.2-0.2,12.2-0.2v-2.1c-4.1,0-8.3,0-12.3,0.2L546.1,196.5z"/>
<path class="st0" d="M428.1,225.2l1,1.9c3.6-1.9,7.3-3.6,10.9-5.4l-0.9-1.9C435.5,221.6,431.8,223.4,428.1,225.2z"/>
<path class="st0" d="M594.8,199.1c4,0.6,8.1,1.3,12.1,2l0.4-2.1c-4-0.8-8.1-1.4-12.2-2L594.8,199.1z"/>
<path class="st0" d="M618.8,203.5c3.9,0.9,8,2,11.8,3l0.6-2c-3.9-1.1-8-2.2-11.9-3L618.8,203.5z"/>
<path class="st0" d="M642.3,210.2c3.8,1.3,7.8,2.7,11.5,4.1l0.7-2c-3.8-1.5-7.8-2.8-11.6-4.1L642.3,210.2z"/>
<path class="st0" d="M570.5,196.7c4,0.2,8.2,0.5,12.2,0.9l0.2-2.1c-4-0.4-8.2-0.7-12.3-0.9L570.5,196.7z"/>
<path class="st0" d="M521.5,196.4l0.3,2.1c4-0.5,8.1-0.9,12.2-1.2l-0.2-2.1C529.7,195.5,525.6,195.9,521.5,196.4z"/>
<path class="st0" d="M473.5,206.7l0.6,2c3.8-1.2,7.9-2.4,11.7-3.3l-0.5-2C481.4,204.3,477.4,205.5,473.5,206.7z"/>
<path class="st0" d="M450.4,214.9l0.8,1.9c3.7-1.6,7.6-3,11.4-4.3l-0.7-2C458,212,454.2,213.4,450.4,214.9z"/>
<path class="st0" d="M497.3,200.5l0.4,2c3.9-0.9,8-1.6,12-2.3l-0.3-2.1C505.3,198.8,501.3,199.6,497.3,200.5z"/>
<path class="st0" d="M684.5,227l-11.6-17l-4,8.4c-1-0.4-2-0.9-2.9-1.3l-0.8,1.9c1,0.4,1.9,0.9,2.8,1.3l-4,8.3L684.5,227z"/>
</svg>
