<?xml version="1.0" encoding="utf-8"?>
<!-- Generator: Adobe Illustrator 23.0.6, SVG Export Plug-In . SVG Version: 6.00 Build 0)  -->
<svg version="1.1" id="b5c524f0-66c4-4225-a3aa-c25cef687e0c"
	 xmlns="http://www.w3.org/2000/svg" xmlns:xlink="http://www.w3.org/1999/xlink" x="0px" y="0px" viewBox="0 0 741.7 741.7"
	 style="enable-background:new 0 0 741.7 741.7;" xml:space="preserve">
<style type="text/css">
	.st0{fill:#E6E6E6;}
	.st1{fill:#3F3D56;}
	.st2{fill:#50BFB0;}
	.st3{fill:#2F2E41;}
	.st4{fill:#CCCCCC;}
</style>
<g>
	<path class="st0" d="M459.8,600.8c-5.1-7.2-12.1-12.4-20.8-14.4c-7.6-1.7-15.4-1.4-23.1-1.4l-97.7,0.8c-8.4,0.1-16.4,7.3-16,16
		c0.4,8.6,7,16.1,16,16c28.6-0.2,57.2-0.4,85.9-0.7c6.7-0.1,13.5-0.2,20.2-0.2c1.5,0,3,0.1,4.5,0.1c0.4,0,0.6,0,0.8,0
		c0,0,0.1,0,0.1,0c0.8,0.2,1.6,0.4,2.4,0.6c-0.3,0,0.5,0.5,0.9,0.7c0.1,0.1,0.2,0.3,0.4,0.6c0.3,0.5,1.1,2.1,1.1,2
		c1.2,3.1,2.2,6.2,3,9.4c1.9,7,2.3,8.5,2.5,15.1c0.3,8.4,7.1,16.4,16,16c8.4-0.4,16.4-7,16-16C471.5,630.4,468.9,613.4,459.8,600.8z
		"/>
	<path class="st0" d="M324,636.9c-1.8-11.1-3.6-22.2-5.5-33.4c-1.9-11.3-5.8-21.6-14.5-29c-2.3-2-4.8-3.8-7.2-5.7
		c-0.9-0.6-1.7-1.3-2.6-2c-0.1,0-0.1-0.1-0.1-0.1c-0.1-0.1-0.2-0.2-0.4-0.3c-3.7-3.1-7.2-6.3-10.6-9.8c-3-3.1-5.8-6.2-8.6-9.5
		c-0.7-0.8-1.4-1.7-2-2.5c-0.1-0.1-0.7-0.9-1.1-1.5c-0.4-0.5-1.1-1.5-1.2-1.6c-0.8-1.1-1.5-2.2-2.3-3.3c-5.1-7.6-9.5-15.7-13.2-24.1
		c-0.4-0.8-0.7-1.7-1.1-2.5c-0.1-0.3-0.2-0.6-0.4-1c-0.7-2-1.5-4.1-2.2-6.1c-1.4-4.4-2.7-8.8-3.7-13.3c-0.5-2.2-1-4.5-1.4-6.7
		c-0.2-1.2-0.4-2.3-0.6-3.5c0-0.2-0.2-1.4-0.3-2.2c-0.1-0.7-0.2-2-0.2-2.2c-0.1-1.2-0.2-2.3-0.3-3.5c-0.2-2.6-0.3-5.3-0.4-7.9
		c-0.1-4.7,0-9.4,0.3-14.1c0.2-2.6,0.4-5.3,0.7-7.9c0-0.2,0-0.3,0-0.4c0-0.1,0-0.3,0.1-0.4c0.2-1.5,0.4-2.9,0.7-4.4
		c1-5.5,2.2-10.9,3.7-16.3c0.7-2.5,1.5-5.1,2.4-7.6c0.4-1.1,0.8-2.2,1.2-3.3c0,0.1,1.2-3,1.2-3.1c4.8-11.3,12.6-21.7,12.6-34.5
		c0-8.7-7.4-17.1-16-16.7c-8.9,0.3-16,7.7-16,16.7c0,0.2,0,0.4,0,0.5c-0.1,0.3-0.1,0.5-0.2,0.7c-0.9,2-2.1,4-3.1,5.9
		c-2.8,5.4-5.2,11-7.5,16.7c-3.7,9.3-6.6,18.8-8.5,28.6c-4.2,21.4-4.6,43.5-1,65c6.2,37.8,26.7,74,55.1,98.3c2.5,2.1,5,4.2,7.5,6.2
		c1.1,0.8,2.1,1.6,3.2,2.4c0.5,0.4,2.6,2,1.7,1.2c2,1.7,2.8,2.5,3.3,3.8c0.1,0.3,0.2,0.7,0.3,1.2c0.4,1.4,0.7,2.8,1,4.2
		c2.5,12.5,4.2,25.1,6.3,37.6c1.4,8.6,12,14.2,19.7,11.6C321.7,654.4,325.5,646.1,324,636.9z"/>
	<path class="st1" d="M461.4,669.2c-14,0-25.4-11.3-25.4-25.3v-18.3c-19.1,2.1-84.5,1.6-103.3-1.4v18.9
		c-0.1,14.1-11.6,25.4-25.6,25.2c-13.9-0.1-25.1-11.3-25.2-25.2v-37.1c-51.7-28.7-83.9-83.2-84-142.4c0-49.8,22.6-96.3,62-127.5
		c25.6-20.4,56.7-32.6,89.3-35.2c4.4-0.3,8.9-0.5,13.2-0.5c15.4,0,84.6,2.4,102,7.4l39.6-39.3c1.2-1.2,3-1.6,4.5-0.9
		c1.6,0.6,2.6,2.2,2.6,3.8v6.3l7.7-7.6c1.2-1.2,3-1.6,4.5-0.9c1.6,0.6,2.6,2.2,2.6,3.8v69.9c66.8,60.2,72.1,163.1,11.9,229.9
		c-14.3,15.9-31.7,28.8-51,38v33.2C486.8,657.9,475.4,669.2,461.4,669.2z M438,623.4v20.5c0.1,12.9,10.7,23.4,23.6,23.2
		c12.8-0.1,23.1-10.5,23.2-23.2v-34.4l0.6-0.3c27.1-12.9,50.2-33,66.5-58.2c43.1-66.4,31.3-154.3-27.7-207l-0.3-0.3V273
		c0-0.9-0.5-1.7-1.3-2c-0.8-0.3-1.8-0.2-2.4,0.5l-11.1,11v-11c0-0.9-0.5-1.7-1.3-2c-0.8-0.3-1.8-0.2-2.4,0.5l-40.5,40.2l-0.6-0.2
		c-16.2-5.1-86.5-7.5-102-7.5c-4.3,0-8.7,0.2-13.1,0.5c-32.2,2.5-62.9,14.6-88.2,34.7c-38.9,30.8-61.2,76.8-61.2,126
		c0.1,58.7,32.1,112.6,83.5,140.9l0.5,0.3v38.3c0.1,12.9,10.7,23.4,23.6,23.2c12.8-0.1,23.1-10.5,23.2-23.2v-21.3l1.2,0.2
		c16.9,3.2,87.8,3.7,105,1.4L438,623.4z"/>
	<path class="st2" d="M325.9,191.6l-110.7,33.3c-7.3,2.2-11.5,10-9.3,17.3c2.2,7.3,9.9,11.5,17.3,9.3l96.9-29.1l2-0.6
		c0.4-10.5,3.2-20.7,8.3-29.9c-0.6-0.3-1.3-0.5-2-0.5C327.5,191.3,326.7,191.4,325.9,191.6z"/>
	<path class="st3" d="M221.2,258.6c-3,0-5.7-1.9-6.6-4.8l-6.9-20.9c-1.2-3.7,0.8-7.6,4.4-8.8c0,0,0,0,0,0l90.1-29.9
		c3.7-1.2,7.6,0.8,8.8,4.4c0,0,0,0,0,0l6.9,20.9c1.2,3.6-0.7,7.5-4.2,8.8c-0.1,0-0.2,0.1-0.3,0.1l-90.1,29.9
		C222.7,258.4,221.9,258.6,221.2,258.6z"/>
	<path class="st1" d="M390,154.5c-37.8,0-68.8,30.1-70,67.8c0,0.7,0,1.4,0,2.1c0,38.7,31.3,70,70,70s70-31.3,70-70
		S428.7,154.5,390,154.5L390,154.5L390,154.5z M390,292.5c-37.5,0-68-30.5-68-68c0-0.9,0-1.9,0.1-2.8c1.5-37.5,33.2-66.7,70.7-65.2
		s66.7,33.2,65.2,70.7C456.5,263.7,426.5,292.5,390,292.5L390,292.5z"/>
	<path class="st0" d="M449,224.5c0,32.6-26.4,59-59,59s-59-26.4-59-59c0-1.9,0.1-3.7,0.3-5.5c3.1-32.4,31.8-56.3,64.3-53.2
		C425.8,168.6,449,194,449,224.5z"/>
	<path class="st2" d="M407.6,228.4c-1.4-1.9-3.3-3.4-5.5-4.3c-2.7-1.1-5.4-2-8.2-2.7v-16.1c4.3,0.7,8.4,2.5,11.7,5.3l3.3-7
		c-1.9-1.7-4-3-6.4-3.9c-2.6-1-5.3-1.7-8.1-2.1v-8.1h-7.5v8.2c-2.9,0.3-5.7,1.3-8.3,2.8c-2.3,1.3-4.2,3.2-5.6,5.5
		c-1.3,2.2-2,4.7-2,7.3c-0.1,2.8,0.7,5.5,2.3,7.8c1.5,2,3.4,3.5,5.7,4.5c2.7,1.2,5.5,2.1,8.4,2.8v15.4c-5.1-0.4-9.9-2.3-13.9-5.5
		l-3.3,7c2.2,1.8,4.7,3.3,7.4,4.2c3,1.1,6.1,1.7,9.2,1.9v8.1h7.5v-8.2c4.2-0.5,8.1-2.3,11.2-5.1c2.7-2.6,4.3-6.3,4.2-10.1
		C409.9,233.3,409.1,230.6,407.6,228.4z M387.4,219.7c-1.8-0.6-3.5-1.5-5-2.7c-1.2-1.1-1.8-2.6-1.8-4.2c-0.1-1.8,0.6-3.5,1.8-4.8
		c1.4-1.4,3.1-2.3,5-2.6V219.7z M398.6,241c-1.3,1.3-2.9,2.2-4.7,2.5v-13.2c1.7,0.5,3.3,1.3,4.7,2.4c1.1,0.9,1.7,2.3,1.6,3.7
		C400.3,238,399.7,239.7,398.6,241L398.6,241z"/>
	<path class="st3" d="M224.4,343.3c-3.2,0-6-2.1-6.8-5.2l-3.8-14.3c-1-3.7,1.2-7.6,5-8.6l118.9-31.4c3.7-1,7.6,1.3,8.6,5l3.2,12.1
		l-0.6,0c-30.5,2.4-59.7,13.4-84.1,31.9l-0.2,0.1L226.2,343C225.6,343.2,225,343.3,224.4,343.3z"/>
	<path class="st1" d="M204.7,413.7c-14-2.1-27.3-7.1-39.1-14.8c-5.9-3.8-11.3-8.2-16.2-13.2c-4.8-4.9-9.4-10.5-11.8-17.1
		c-2.3-6.1-2.2-12.8,0.3-18.8c2.5-5.9,7.2-10.7,13.2-13.1c6-2.4,13.2-2.6,19.1,0c2.8,1.2,5.2,3.2,7,5.6c0.8,1.1,1.4,2.4,1.8,3.8
		c0.3,1.2,0.4,2.5,0.1,3.8c-0.7,2.5-2.4,4.6-4.8,5.7c-2.5,1.3-5.3,2.1-8.2,2.5c-2.9,0.4-7,0.7-9.3-1.6c-0.5-0.5-0.8-1-1.1-1.6
		c-0.2-0.5-0.2-1-0.2-1.5c0,0.2,0.1-0.5,0.1-0.4c0,0.1-0.2,0.4,0,0c0.1-0.1,0.1-0.2,0.2-0.4c-0.1,0.1-0.2,0.3,0.1,0
		c0.2-0.3,0.6-0.5,0.9-0.6c0.1,0,0.3-0.1,0.4-0.1c0.4-0.1-0.4,0,0,0c0.1,0,0.3,0,0.4,0c0.4,0-0.3-0.1,0,0c0.1,0,0.3,0.1,0.4,0.1
		c0.3,0.1-0.2-0.2,0,0c0.2,0.3-0.2-0.3,0,0c0.1,0.1,0.2,0.3,0.4,0.4c0.9,0.9,2.4,0.9,3.3,0c0.9-0.9,0.9-2.4,0-3.3
		c-2.3-2.9-6.9-2.2-9.2,0.3c-3,3.1-1.8,8,1.1,10.7c3.3,3.1,7.9,3.3,12.2,2.8c3.6-0.3,7-1.3,10.3-2.9c3.2-1.6,5.7-4.3,7-7.6
		c1.2-3.6,0.8-7.5-1.1-10.8c-3.7-7-11.5-10.6-19.1-11.2c-7.9-0.6-15.8,2-21.8,7.2c-5.7,5.2-9.3,12.4-9.9,20.1
		c-0.7,8,2.4,15.8,7,22.2c4.7,6.6,10.4,12.4,16.8,17.4c12.5,10,27.2,16.9,42.8,20.2c1.9,0.4,3.7,0.7,5.6,1c1.2,0.3,2.5-0.4,2.9-1.6
		C206.7,415.4,206,414.1,204.7,413.7L204.7,413.7z"/>
	<path class="st4" d="M428.1,311.9c-20.4-0.3-40.8,0.2-61.1,1.6c-6.9,0.5-13,2.9-13,7c0,3.4,6,7.5,13,7c20.3-1.3,40.7-1.8,61.1-1.6
		C444.8,326.2,444.8,312.1,428.1,311.9z"/>
	<path class="st1" d="M397.9,325.2c-2.2,0-54.1-0.1-54.1-7.3c0-7.2,51.9-7.3,54.1-7.3s54.1,0.1,54.1,7.3
		C452,325.1,400.1,325.2,397.9,325.2z M345.8,318c1.4,2.2,20.5,5.3,52.1,5.3s50.7-3.1,52.1-5.3c-1.4-2.2-20.5-5.3-52.1-5.3
		S347.2,315.8,345.8,318L345.8,318z"/>
	<path class="st1" d="M562.5,513.7c11.5-0.3,25.8-0.7,36.8-8.8c6.6-5,10.7-12.8,11.1-21.1c0.2-6.4-2.1-11.9-6.5-15.6
		c-5.8-4.9-14.2-6-23.2-3.3l9.4-68.5l-6.9-0.9l-11,80.6l5.8-2.6c6.7-3.1,15.8-4.6,21.5,0.2c2.8,2.5,4.3,6.3,4,10.1
		c-0.3,6.2-3.4,11.9-8.3,15.7c-8.6,6.3-20,7.1-32.9,7.4L562.5,513.7z"/>
	<rect x="506.1" y="402.2" class="st1" width="37.4" height="7"/>
	<path class="st3" d="M241.4,375.2c-3.4,0-6.4-2.5-6.9-5.9l-2.3-14.6c-0.6-3.8,2-7.4,5.8-8l121.5-19c3.8-0.6,7.4,2,8,5.8l2.3,14.6
		c0.6,3.8-2,7.4-5.8,8l-121.5,19C242.1,375.2,241.7,375.2,241.4,375.2z"/>
	<circle class="st2" cx="191.1" cy="153.3" r="51"/>
	<path class="st3" d="M219.9,166.5c1.6-0.6,3.1-1.5,4.4-2.7c1.7-1.7,2.5-4.1,2.3-6.5c-0.1-1.7-1.1-3.2-2.5-4.2
		c-1.8-1.1-4.3-1.1-6.7,0l-0.3-19.9l-2,0l0.3,23.4l1.5-1c1.8-1.2,4.3-2,6.1-0.9c0.9,0.6,1.5,1.6,1.6,2.7c0.2,1.8-0.4,3.5-1.7,4.8
		c-2.2,2.2-5.4,2.9-9,3.5l0.4,2C216.2,167.6,218.1,167.2,219.9,166.5z"/>
	<rect x="227" y="132.7" transform="matrix(0.9887 -0.1497 0.1497 0.9887 -17.4061 36.3105)" class="st3" width="10.8" height="2"/>
	
		<rect x="193.4" y="137.8" transform="matrix(0.9887 -0.1497 0.1497 0.9887 -18.5472 31.3342)" class="st3" width="10.8" height="2"/>
	<path class="st3" d="M224.8,374.3c-3.8,0-7.1-2.3-8.4-5.9l-35.2-94.2c-8.9-24,3.3-50.8,27.3-59.8l28.6-10.7
		c2.2-0.8,4.7-0.8,6.9,0.2c2.2,1,3.8,2.8,4.7,5l65.1,123c1.8,4.6-0.6,9.8-5.2,11.6c0,0,0,0-0.1,0l-80.6,30.1
		C226.9,374.1,225.8,374.3,224.8,374.3z"/>
	<path class="st0" d="M228.4,207.1l64.6,86.4L249.3,208c-1.5-4.2-6.2-6.4-10.3-4.8c0,0,0,0,0,0L228.4,207.1z"/>
	<path class="st2" d="M330.7,272.7l-115.4-7.4c-7.6-0.5-13.5-7.1-13-14.7s7.1-13.5,14.7-13c0,0,0,0,0,0l115.4,7.4
		c3.6,0.2,6.3,3.3,6.1,6.9c0,0,0,0,0,0l-0.9,14.7C337.4,270.2,334.3,272.9,330.7,272.7L330.7,272.7z"/>
	<path class="st3" d="M299.9,277.5c-0.2,0-0.3,0-0.5,0h0l-94.8-6.1c-3.9-0.2-6.8-3.6-6.5-7.4c0,0,0,0,0,0l1.6-25.2
		c0.2-3.9,3.6-6.8,7.4-6.5c0,0,0,0,0,0l94.8,6.1c3.9,0.3,6.8,3.6,6.5,7.4l-1.6,25.2c-0.2,2.8-2,5.1-4.5,6.1
		C301.5,277.3,300.7,277.5,299.9,277.5z"/>
	<path class="st3" d="M190.5,119.4c6.7-5.8,15.9-0.6,23.6-1.5c7.4-0.9,13.2-7.5,14.7-14.5c1.7-8.2-2.5-16.4-8.8-21.5
		c-6.9-5.6-16-7.2-24.6-6.2c-9.9,1.2-18.9,5.8-27,11.4c-7.8,5.2-15,11.3-21.4,18.2c-5.8,6.4-10.6,13.9-12.2,22.5
		c-1.4,7.8-0.3,16.4,4.3,23c2.4,3.4,5.7,6.1,9.5,7.8c3.9,1.9,8.1,3.3,12,5.5c5.8,3.3,11.4,10.2,9.6,17.3c-0.4,1.6-1.2,3-2.2,4.2
		c-1.3,1.4-3.6-0.5-2.3-1.9c2.3-2.5,2.2-5.9,1-8.9c-1.4-3.4-4-6.2-7.2-8c-4-2.3-8.4-3.7-12.5-5.8c-3.9-1.9-7.3-4.7-9.9-8.2
		c-4.9-6.8-6.4-15.7-5.3-23.9c1.2-8.9,5.8-16.9,11.5-23.7c6.2-7.3,13.9-13.6,21.7-19.2c8.4-6,17.6-11.1,27.9-12.9
		c8.9-1.6,18.5-0.6,26.2,4.2c7.2,4.5,12.8,12.3,13.3,20.9c0.4,8-3.6,15.7-10.4,19.9c-3.4,2.1-7.4,3-11.4,2.6
		c-4.3-0.3-8.5-1.6-12.8-1.2c-1.9,0.1-3.8,0.9-5.3,2.1C190.8,123.1,189,120.7,190.5,119.4L190.5,119.4z"/>
</g>
</svg>
