<?xml version="1.0" encoding="utf-8"?>
<!-- Generator: Adobe Illustrator 23.0.6, SVG Export Plug-In . SVG Version: 6.00 Build 0)  -->
<svg version="1.1" id="Calque_1" xmlns="http://www.w3.org/2000/svg" xmlns:xlink="http://www.w3.org/1999/xlink" x="0px" y="0px"
	 viewBox="0 0 1121.6 1121.6" style="enable-background:new 0 0 1121.6 1121.6;" xml:space="preserve">
<style type="text/css">
	.st0{opacity:0.1;fill:#50BFB0;enable-background:new    ;}
	.st1{fill:#D6D6E3;}
	.st2{fill:#AEBEE1;}
	.st3{fill:#535461;}
	.st4{opacity:0.1;enable-background:new    ;}
	.st5{fill:#E3EDF9;}
	.st6{fill:url(#SVGID_1_);}
	.st7{fill:#F8B9BF;}
	.st8{fill:#D9DFE8;}
	.st9{fill:#50BFB0;}
	.st10{opacity:0.1;}
	.st11{fill:#68739D;}
	.st12{fill:#6394E2;}
	.st13{fill:#B96B6B;}
	.st14{fill:none;stroke:#535461;stroke-width:2;stroke-miterlimit:10;}
	.st15{fill:url(#SVGID_2_);}
	.st16{fill:#FA595F;}
	.st17{fill:#F37291;}
	.st18{fill:#96A2D0;}
</style>
<title>co-working</title>
<g>
	<path class="st0" d="M1050.5,617.8c-41.3,62.1-30.8,148.4-10.1,216.8c7,22.9,14.9,47.1,10.2,72.4c-5.8,30.9-29.2,54.8-53.2,68.1
		c-43.8,24.3-94.6,22.3-132.3-5.2c-32.6-23.8-54.7-64.4-88-87c-55.6-37.7-129.8-17.5-193.9,14.9c-45.3,22.9-95.1,52.1-138.1,33.8
		c-30.2-12.9-49.8-47.6-59.6-85.2c-4.7-18.1-7.8-37.8-17.8-51.8c-6-8.3-14-14-22.3-18.6c-75.7-42.7-175.6-11.1-248.9-59.2
		c-49.4-32.4-78.8-97.5-89.8-166.7S1.2,407.4,8.5,335c5.2-51.4,12.7-106.4,41.4-147.7c30.3-43.6,79.6-62.2,123-56.9
		c43.4,5.2,81.6,31.1,114.8,62.4c41.5,39,79.4,88.5,132.1,102c35.9,9.3,74.6,0.6,112.3-4c63.1-7.5,125.6-3.4,187.7,1.6
		c59.5,4.8,119.3,10.4,175.2,30.8c39.5,14.4,70.3,43.1,107.4,62.2c24.2,12.5,51.1,14.6,73.7,31c27.9,20.1,52.5,56.7,42.8,101.8
		C1109.8,561.3,1072.4,584.8,1050.5,617.8z"/>
	<rect x="881.3" y="386" class="st0" width="40.9" height="61.9"/>
	<rect x="885.3" y="392" class="st0" width="32.9" height="49.9"/>
	<rect x="798.3" y="343" class="st0" width="62.8" height="61.9"/>
	<rect x="804.4" y="349" class="st0" width="50.6" height="49.9"/>
	<rect x="65.1" y="250.9" class="st0" width="192" height="5.1"/>
	<rect x="65.1" y="275.9" class="st0" width="192" height="5.1"/>
	<rect x="388.9" y="582.2" class="st1" width="19.6" height="219.1"/>
	<path class="st2" d="M981.3,605.2V403c0-11.7,9.5-21.2,21.3-21.2l0,0c11.7,0,21.2,9.5,21.2,21.2v244.6c0,11.7-9.5,21.3-21.3,21.3
		l0,0H870.9c-11.7,0-21.3-9.5-21.3-21.3l0,0l0,0c0-11.7,9.5-21.3,21.3-21.3l0,0h89.2C971.8,626.4,981.3,616.9,981.3,605.2z"/>
	<path class="st3" d="M981.3,605.2V403c0-11.7,9.5-21.2,21.3-21.2l0,0c11.7,0,21.2,9.5,21.2,21.2v244.6c0,11.7-9.5,21.3-21.3,21.3
		l0,0H870.9c-11.7,0-21.3-9.5-21.3-21.3l0,0l0,0c0-11.7,9.5-21.3,21.3-21.3l0,0h89.2C971.8,626.4,981.3,616.9,981.3,605.2z"/>
	<path class="st1" d="M849.7,646.5c0.6-11.3,9.9-20.1,21.2-20.1h89.2c11.7,0,21.3-9.5,21.3-21.3l0,0V403c0-11.3,8.9-20.7,20.2-21.2
		v264.7H849.7z"/>
	<path class="st2" d="M193,612V409.9c0-11.7-9.5-21.2-21.2-21.3l0,0c-11.7,0-21.3,9.5-21.3,21.3v244.6c0,11.7,9.5,21.3,21.2,21.3
		c0,0,0,0,0.1,0h131.6c11.7,0,21.3-9.5,21.3-21.3l0,0c0-11.7-9.5-21.3-21.3-21.3h-89.1C202.5,633.3,193,623.8,193,612
		C193,612,193,612,193,612z"/>
	<path class="st3" d="M193,612V409.9c0-11.7-9.5-21.2-21.2-21.3l0,0c-11.7,0-21.3,9.5-21.3,21.3v244.6c0,11.7,9.5,21.3,21.2,21.3
		c0,0,0,0,0.1,0h131.6c11.7,0,21.3-9.5,21.3-21.3l0,0c0-11.7-9.5-21.3-21.3-21.3h-89.1C202.5,633.3,193,623.8,193,612
		C193,612,193,612,193,612z"/>
	<path class="st1" d="M324.6,653.4c-0.6-11.3-9.9-20.1-21.2-20.1h-89.1c-11.7,0-21.3-9.5-21.3-21.2c0,0,0,0,0,0V409.9
		c0-11.3-8.9-20.7-20.2-21.2v264.7H324.6z"/>
	<rect x="776.9" y="582.2" class="st1" width="19.6" height="224.3"/>
	<rect x="388.9" y="582.2" class="st4" width="19.6" height="16.2"/>
	<rect x="776.9" y="582.2" class="st4" width="19.6" height="16.2"/>
	<path class="st4" d="M459,448.7c-0.3,3.5-0.7,7-1.2,10.5H455v-10.5H459z"/>
	<path class="st3" d="M539.3,557.8c0.1,3.5-2.5,6.5-5.7,6.5h-59.9V558h49.8c2.2,0,3.5-2.6,2.4-4.7l-45.2-91.9
		c-0.7-1.3-2-2.2-3.5-2.3H455v-10.5h28.2c1,0,2,0.6,2.5,1.6l51.8,100C538.6,552.6,539.3,555.2,539.3,557.8z"/>
	<path class="st3" d="M429.4,541.1l-0.8,1.4l-7.7-5.1l23.7-182.5h6.1c0,0,0.3,0.8,0.7,2.4C455.5,373.1,475.6,462.5,429.4,541.1z"/>
	<path class="st4" d="M451.4,357.4l-22,183.8l-0.8,1.4l-7.7-5.1l23.7-182.5h6.1C450.8,354.9,451,355.8,451.4,357.4z"/>
	
		<rect x="337.8" y="440.6" transform="matrix(0.1189 -0.9929 0.9929 0.1189 -63.7058 823.9802)" class="st1" width="189.3" height="14.5"/>
	<path class="st5" d="M364.6,557.9c0,0.9-0.8,1.7-1.7,1.7h-2.6c-0.9,0-1.7-0.8-1.7-1.7c0-0.1,0-0.1,0-0.2c0.1-0.9,0.8-1.5,1.7-1.5
		h2.6c0.8,0,1.5,0.5,1.6,1.3C364.6,557.6,364.6,557.7,364.6,557.9z"/>
	<path class="st5" d="M372.3,557.9c0,0.9-0.8,1.7-1.7,1.7H368c-0.9,0-1.7-0.8-1.7-1.7c0-0.2,0-0.3,0.1-0.5c0.1-0.3,0.2-0.5,0.4-0.7
		c0.3-0.3,0.7-0.5,1.2-0.5h2.6c0.7,0,1.3,0.4,1.6,1C372.3,557.4,372.3,557.6,372.3,557.9z"/>
	<path class="st5" d="M379.1,557.9c0,0.9-0.8,1.7-1.7,1.7h-2.6c-0.9,0-1.7-0.8-1.7-1.7c0-0.2,0-0.5,0.1-0.7c0.3-0.6,0.9-1,1.5-1h2.6
		C378.3,556.2,379.1,556.9,379.1,557.9C379.1,557.9,379.1,557.9,379.1,557.9L379.1,557.9z"/>
	<path class="st5" d="M386.8,557.9c0,0.9-0.8,1.7-1.7,1.7h-2.6c-0.9,0-1.7-0.8-1.7-1.7c0-0.4,0.1-0.7,0.3-1l0.2-0.2
		c0.3-0.3,0.7-0.5,1.2-0.5h2.6c0.5,0,0.9,0.2,1.2,0.5C386.6,557,386.8,557.4,386.8,557.9z"/>
	<path class="st4" d="M364.6,557.5c0,0.1,0.1,0.3,0,0.4c0,0.9-0.8,1.7-1.7,1.7h-2.6c-0.9,0-1.7-0.8-1.7-1.7c0-0.1,0-0.1,0-0.2
		L364.6,557.5z"/>
	<path class="st4" d="M372.2,557.2c0.1,0.2,0.1,0.4,0.1,0.7c0,0.9-0.8,1.7-1.7,1.7H368c-0.9,0-1.7-0.8-1.7-1.7c0-0.2,0-0.3,0.1-0.5
		L372.2,557.2z"/>
	<path class="st4" d="M378.9,557c0.2,0.3,0.3,0.6,0.3,0.9c0,0.9-0.8,1.7-1.7,1.7h-2.6c-0.9,0-1.7-0.8-1.7-1.7c0-0.2,0-0.5,0.1-0.7
		L378.9,557z"/>
	<path class="st4" d="M386.8,557.9c0,0.9-0.8,1.7-1.7,1.7h-2.6c-0.9,0-1.7-0.8-1.7-1.7c0-0.4,0.1-0.7,0.3-1l5.2-0.2
		C386.6,557,386.8,557.4,386.8,557.9z"/>
	<path class="st1" d="M402.1,564.7h-49.4v-2.3c0-2.1,1.6-3.8,3.7-3.9l39.7-1.4c3.2-0.1,6,2.4,6.1,5.7c0,0.1,0,0.1,0,0.2L402.1,564.7
		z"/>
	<path class="st3" d="M646.1,557.8c-0.1,3.5,2.5,6.5,5.7,6.5h59.9V558h-49.9c-2.2,0-3.5-2.6-2.4-4.7l45.2-91.9
		c0.7-1.3,2-2.2,3.5-2.3h22.3v-10.5h-28.2c-1,0-2,0.6-2.4,1.6l-51.8,100C646.8,552.6,646.2,555.2,646.1,557.8z"/>
	<path class="st3" d="M756,541.1l0.8,1.4l7.7-5.1l-23.7-182.5h-6.1c0,0-0.3,0.8-0.7,2.4C729.9,373.1,709.8,462.5,756,541.1z"/>
	<path class="st4" d="M734,357.4l22,183.8l0.8,1.4l7.7-5.1l-23.7-182.5h-6.1C734.7,354.9,734.4,355.8,734,357.4z"/>
	
		<rect x="745.8" y="353.2" transform="matrix(0.9929 -0.1189 0.1189 0.9929 -47.9182 92.7313)" class="st1" width="14.5" height="189.3"/>
	<path class="st5" d="M820.8,557.9c0,0.9,0.8,1.7,1.7,1.7h2.6c0.9,0,1.7-0.8,1.7-1.7l0,0c0-0.1,0-0.1,0-0.2
		c-0.1-0.9-0.8-1.5-1.7-1.5h-2.6c-0.8,0-1.5,0.5-1.7,1.3C820.8,557.6,820.8,557.7,820.8,557.9z"/>
	<path class="st5" d="M813.1,557.9c0,0.9,0.8,1.7,1.7,1.7h2.6c0.9,0,1.7-0.8,1.7-1.7l0,0c0-0.2,0-0.3-0.1-0.5
		c-0.1-0.3-0.2-0.5-0.4-0.7c-0.3-0.3-0.7-0.5-1.2-0.5h-2.6c-0.7,0-1.3,0.4-1.6,1C813.2,557.4,813.1,557.6,813.1,557.9z"/>
	<path class="st5" d="M806.3,557.9c0,0.9,0.8,1.7,1.7,1.7h2.6c0.9,0,1.7-0.8,1.7-1.7l0,0c0-0.2,0-0.5-0.2-0.7c-0.3-0.6-0.9-1-1.5-1
		H808C807.1,556.2,806.3,556.9,806.3,557.9C806.3,557.9,806.3,557.9,806.3,557.9L806.3,557.9z"/>
	<path class="st5" d="M798.6,557.9c0,0.9,0.8,1.7,1.7,1.7h2.6c0.9,0,1.7-0.8,1.7-1.7c0-0.4-0.1-0.7-0.3-1l-0.2-0.2
		c-0.3-0.3-0.7-0.5-1.2-0.5h-2.6c-0.5,0-0.9,0.2-1.2,0.5C798.8,557,798.6,557.4,798.6,557.9z"/>
	<path class="st4" d="M820.9,557.5c0,0.1-0.1,0.3,0,0.4c0,0.9,0.8,1.7,1.7,1.7h2.6c0.9,0,1.7-0.8,1.7-1.7l0,0c0-0.1,0-0.1,0-0.2
		L820.9,557.5z"/>
	<path class="st4" d="M813.3,557.2c-0.1,0.2-0.1,0.4-0.1,0.7c0,0.9,0.8,1.7,1.7,1.7h2.6c0.9,0,1.7-0.8,1.7-1.7l0,0
		c0-0.2,0-0.3-0.1-0.5L813.3,557.2z"/>
	<path class="st4" d="M806.6,557c-0.2,0.3-0.3,0.6-0.3,0.9c0,0.9,0.8,1.7,1.7,1.7h2.6c0.9,0,1.7-0.8,1.7-1.7l0,0
		c0-0.2,0-0.5-0.2-0.7L806.6,557z"/>
	<path class="st4" d="M798.6,557.9c0,0.9,0.8,1.7,1.7,1.7h2.6c0.9,0,1.7-0.8,1.7-1.7c0-0.4-0.1-0.7-0.3-1l-5.2-0.2
		C798.8,557,798.6,557.4,798.6,557.9z"/>
	<path class="st1" d="M783.3,564.7h49.5v-2.3c0-2.1-1.6-3.8-3.7-3.9l-39.7-1.4c-3.2-0.1-6,2.4-6.1,5.7c0,0.1,0,0.1,0,0.2
		L783.3,564.7z"/>
	
		<linearGradient id="SVGID_1_" gradientUnits="userSpaceOnUse" x1="936.7128" y1="58.6982" x2="936.7128" y2="573.5082" gradientTransform="matrix(1 9.000000e-02 9.000000e-02 -1 -82.095 797.505)">
		<stop  offset="0" style="stop-color:#808080;stop-opacity:0.25"/>
		<stop  offset="0.54" style="stop-color:#808080;stop-opacity:0.12"/>
		<stop  offset="1" style="stop-color:#808080;stop-opacity:0.1"/>
	</linearGradient>
	<path class="st6" d="M990.3,591.8c23.1-39.1,14.7-118.1,15.6-119.6c0.8-1.3-2.3-38.5-23.5-47.6c-3.8-7.6-7.6-16.1-7.6-16.1
		c-0.4,0.3-0.8,0.7-1.2,0.9c-0.2-0.5-0.3-0.9-0.5-1.4c-0.3-0.8-0.5-1.6-0.8-2.4c0.6,0.2,1.2,0.3,1.8,0.5c1.6,0.4,3.3,0.2,4.8-0.4
		c0.5-0.3,1-0.6,1.4-1.1c1.7-1.1,2.6-3.1,3.4-5l6.2-14.8c2.8-6.7,5.6-13.4,7.1-20.4c2.2-10.6,1.3-21.7-2.5-31.9
		c-1.5-3.9-3.5-7.8-6.9-10.1c-6.9-4.7-16.4-1.4-24.3-4.2c-2.6-0.9-4.9-2.4-7.5-3.3c-5.6-2-11.9-0.9-17.2,1.6s-9.7,6.5-14.4,10
		c-2.3,1.8-6,3.6-8.7,6c-2.6,2.1-4.7,4.6-4.3,7.8c0.4,3.8,4.4,6,8.1,6.9c0.6,0.1,1.2,0.3,1.9,0.4c-14,14.1-13.8,36.9,0.3,50.9
		c4.2,4.2,9.4,7.2,15,8.9c1.9,3.5,3.5,7.2,4.9,10.9c0.2,0.5,0.4,1,0.5,1.5c-6.1,1.7-10.8,3.1-11.8,3.9c-2.9,2.4,3.1,23.2,3.1,23.2
		c-1.5,1.9-3.1,4.1-4.7,6.5c-12,18.2-19.6,38.9-22.2,60.6c-1,7.9-2.3,16-4,23.7l-71.7-14.4l-0.2,1.8l-1.7-0.4l0,0l-5.4-1.3l-0.2,1.2
		l-0.8-0.4c-13.3-6.3-35.8-14.2-51-6c-16,8.6,18.6,20.1,40.8,26.2c-7.4,0.4-14.4,2.1-20,6.3c-16.1,12.1,29.5,18.4,51,20.6l0.9,0.1
		v0.5l7.5,0.7l1.8,0.2l0.2,2.7c0,0,10.7,1.8,25,3.9c-16.3,4.1-36.4,6.9-50.4,8.5c-14.8,1.7-27.4,12.1-31.4,26.5
		c-1.3,4.1-1.4,8.5-0.4,12.7c4.2,14.5-0.9,121.4-2.1,144.4L768,786.6c0,0-41,5-13.7,14.6c2.5,0.8,5,1.5,7.5,2
		c-3.6,2.3-3.3,5.3,7.3,9.1c27.3,9.6,90.9-0.4,90.9-0.4s-1.4-11.3-3.7-20.6l0.7,0.1c0,0-6.6-24.4,3.4-36.7s-1.7-106-1.7-106
		s17.4-7.2,69.5-7.7c42,10.8,62.5-27.8,62.2-47.8C990.3,592.7,990.3,592.2,990.3,591.8z"/>
	<path class="st7" d="M835.1,531.2l-4.5,18c0,0-4-0.9-10-2.4c-20.3-5.3-63.2-17.9-46-27.2c14.8-8,36.6-0.2,49.6,5.9
		c4.7,2.2,8.3,4.2,9.9,5.2C834.7,531,835.1,531.2,835.1,531.2z"/>
	<path class="st4" d="M833.8,536.2l-3.2,13c0,0-4-0.9-10-2.4l3.6-21.3c4.7,2.2,8.3,4.2,9.9,5.2L833.8,536.2z"/>
	<polygon class="st8" points="833.8,550.5 821.4,547.4 825.3,524.6 835.2,527.1 	"/>
	<polygon class="st4" points="833.8,550.5 828.5,549.2 830.5,525.9 835.2,527.1 	"/>
	<path class="st9" d="M953.7,456.2c0,0-23.8-13.8-34.4,25.8s-11.6,57.7-11.6,57.7l-75.3-15.1l-2.4,27.5c0,0,80.5,26,90.7,24.1
		c10.1-1.9,43-57,43-57S993.4,476.5,953.7,456.2z"/>
	<g class="st10">
		<path d="M835.1,531.2l-4.5,18c0,0-4-0.9-10-2.4c-20.3-5.3-63.2-17.9-46-27.2c14.8-8,36.6-0.2,49.6,5.9c4.7,2.2,8.3,4.2,9.9,5.2
			C834.7,531,835.1,531.2,835.1,531.2z"/>
		<path class="st4" d="M833.8,536.2l-3.2,13c0,0-4-0.9-10-2.4l3.6-21.3c4.7,2.2,8.3,4.2,9.9,5.2L833.8,536.2z"/>
		<polygon points="833.8,550.5 821.4,547.4 825.3,524.6 835.2,527.1 		"/>
		<polygon class="st4" points="833.8,550.5 828.5,549.2 830.5,525.9 835.2,527.1 		"/>
		<path d="M953.7,457.2c0,0-23.8-13.8-34.4,25.8s-11.6,57.7-11.6,57.7l-75.3-15.1l-2.4,27.5c0,0,80.5,26,90.7,24.1
			c10.1-1.9,43-57,43-57S993.4,477.5,953.7,457.2z"/>
	</g>
	<path class="st11" d="M802,762.5l-30.8,17.7c0,0-39.8,4.9-13.3,14.2s88.2-0.4,88.2-0.4s-3.4-27.7-8.2-31.6S802,762.5,802,762.5z"/>
	<path class="st12" d="M921.8,563.8c0,0-15.3,8-42.5,14.9c-15.9,4-35.9,6.8-49.7,8.5c-14.4,1.6-26.5,11.7-30.5,25.6
		c-1.3,4-1.4,8.3-0.3,12.4c4.5,15.8-2.2,144.5-2.2,144.5l46.7,4.3c0,0-6.4-23.7,3.3-35.7S845,635.5,845,635.5s16.9-7,67.5-7.5
		c46.8,12,66.1-39.3,58.9-53.6C964.1,560,921.8,563.8,921.8,563.8z"/>
	<g class="st10">
		<path d="M802,762.5l-30.8,17.7c0,0-39.8,4.9-13.3,14.2s88.2-0.4,88.2-0.4s-3.4-27.7-8.2-31.6S802,762.5,802,762.5z"/>
		<path d="M921.8,563.8c0,0-15.3,8-42.5,14.9c-15.9,4-35.9,6.8-49.7,8.5c-14.4,1.6-26.5,11.7-30.5,25.6c-1.3,4-1.4,8.3-0.3,12.4
			c4.5,15.8-2.2,144.5-2.2,144.5l46.7,4.3c0,0-6.4-23.7,3.3-35.7S845,635.5,845,635.5s16.9-7,67.5-7.5c46.8,12,66.1-39.3,58.9-53.6
			C964.1,560,921.8,563.8,921.8,563.8z"/>
	</g>
	<path class="st11" d="M816.4,773.3L785.6,791c0,0-39.8,4.8-13.3,14.2s88.2-0.4,88.2-0.4s-3.4-27.7-8.2-31.6
		S816.4,773.3,816.4,773.3z"/>
	<path class="st12" d="M926.8,638.8c-50.6,0.5-67.5,7.5-67.5,7.5s11.3,91,1.6,102.9s-3.3,35.7-3.3,35.7l-46.7-4.3
		c0,0,0.1-1.5,0.2-4.2c1.1-22.4,6-126.2,2-140.3c-1-4.1-0.9-8.4,0.3-12.4c4-14,16.1-24.1,30.5-25.7c13.8-1.6,33.7-4.4,49.6-8.5
		l0.8-0.2c26.7-6.9,41.7-14.7,41.7-14.7s42.3-3.8,49.5,10.6c1,2.3,1.5,4.8,1.5,7.3C987.5,611.7,967.6,649.2,926.8,638.8z"/>
	<path class="st7" d="M856.4,553.6l-1.7,18.5c0,0-4.1-0.3-10.2-0.9c-20.9-2.2-65.1-8.3-49.5-20c13.5-10.1,36.2-5.7,49.9-1.6
		c5,1.5,8.8,3,10.5,3.6C856,553.4,856.4,553.6,856.4,553.6z"/>
	<path class="st7" d="M980.6,432.6c0,0-6.3,4.9-13.9,10.3c-8.4,1.9-18.1,3.5-25.2,4.5c2.5-8,1-17-1.8-24.9
		c-3.1-8.2-7.3-16-12.5-23.1l42.3-13.2c-3.3,8.4-1.8,18,1,26.3C973,419.7,976.4,426.4,980.6,432.6z"/>
	<path class="st4" d="M855.9,558.8l-1.2,13.3c0,0-4.1-0.3-10.2-0.9l0.4-21.6c5,1.5,8.8,3,10.5,3.6L855.9,558.8z"/>
	<polygon class="st8" points="858,572.9 845.3,571.7 845.7,548.6 855.9,549.6 	"/>
	<path class="st4" d="M980.6,432.6c0,0-6.3,4.9-13.9,10.3c-8.4,1.9-18.1,3.5-25.2,4.5c2.5-8,1-17-1.8-24.9c10.3-3,25.1-6.9,30.8-10
		C973,419.6,976.4,426.4,980.6,432.6z"/>
	<path class="st8" d="M972.1,413c0,0,7.1,16.1,11.5,23.3s-51.8,14-51.8,14s-5.8-20.2-3-22.5S967.4,417.7,972.1,413z"/>
	<path class="st4" d="M987.2,592.4c-2.4,4.2-5.3,8-8.8,11.3c-24.9,23.6-65.6-1-84-14.5c26.7-6.9,41.7-14.7,41.7-14.7
		s42.3-3.8,49.5,10.6C986.7,587.4,987.3,589.9,987.2,592.4z"/>
	<path class="st9" d="M978.6,602c-28.3,26.8-77-8.7-90.1-19.2c-2.1-1.7-3.3-2.8-3.3-2.8c5.2-4.9,9.8-15.2,13.4-27.8
		c3.4-12.1,5.8-24.4,7.3-36.8c2.5-21,9.9-41.2,21.5-58.8c1.5-2.3,3-4.5,4.5-6.3c10.7-13.6,28.6-22.2,28.6-22.2
		c37.8-11.1,42.9,45.1,41.9,46.7S1011.5,570.8,978.6,602z"/>
	<path class="st4" d="M982.3,525.3c0,0-24.3,59.4-34.1,62.8c-5.6,1.9-35.3-1.7-59.7-5.2c-2.1-1.7-3.3-2.8-3.3-2.8
		c5.2-4.9,9.8-15.2,13.4-27.8l31.5,1.5c0,0-1.8-18.1,2.9-58.8s30.2-30.6,30.2-30.6C1005.5,478.6,982.3,525.3,982.3,525.3z"/>
	<polygon class="st4" points="858,572.9 852.5,572.4 851.1,549.1 855.9,549.6 	"/>
	<path class="st9" d="M962.5,461.8c0,0-25.6-10.1-30.2,30.6s-2.9,58.8-2.9,58.8l-76.7-3.7l1.7,27.6c0,0,83.5,13.7,93.2,10.3
		s34.1-62.8,34.1-62.8S1004.8,476,962.5,461.8z"/>
	<path class="st4" d="M964.2,401.6c-1.1-6.1,5.2-6,7.5-11.7l-42.3,13.2c2.9,3.9,5.6,8.1,7.8,12.5c2.2,0.7,4.4,1.1,6.7,1.3
		C954,417.8,957.2,407.9,964.2,401.6z"/>
	
		<ellipse transform="matrix(9.202298e-02 -0.9958 0.9958 9.202298e-02 481.1642 1284.4583)" class="st7" cx="944.9" cy="378.4" rx="35" ry="35"/>
	<path class="st4" d="M910.4,346.8c0.4,3.6,4.3,5.9,7.8,6.7c3.6,0.8,7.4,0.9,10.6,2.8c5,3.1,6.3,9.9,5.7,15.8
		c-0.3,3.3-0.8,7.4,1.9,9.3c0.9,0.5,1.8,0.9,2.8,1c2.8,0.6,5.7,0.7,8.6,0.3c1.7-0.2,3.4-0.6,5-0.1c2.6,0.8,4.2,3.5,4.7,6.2
		s0.2,5.5,0.6,8.1c1.2,6.9,6.5,12.4,13.3,13.7c1.6,0.4,3.2,0.2,4.7-0.4c1.9-1,2.9-3.1,3.7-5.1l6-14.4c2.7-6.5,5.4-13,6.9-19.9
		c2.1-10.3,1.3-21.1-2.4-30.9c-1.4-3.8-3.4-7.5-6.7-9.8c-6.7-4.5-16-1.4-23.6-4c-2.5-0.9-4.8-2.4-7.3-3.2
		c-5.4-1.9-11.5-0.9-16.7,1.5c-5.2,2.4-9.4,6.3-14,9.8C918.1,337.2,909.7,340.5,910.4,346.8z"/>
	<path class="st13" d="M911.3,346c0.4,3.6,4.3,5.9,7.8,6.7c3.6,0.8,7.4,0.9,10.6,2.8c5,3.1,6.3,9.9,5.7,15.8
		c-0.3,3.3-0.8,7.4,1.9,9.3c0.9,0.5,1.8,0.9,2.8,1c2.8,0.6,5.7,0.7,8.6,0.3c1.7-0.2,3.4-0.6,5-0.1c2.6,0.8,4.2,3.5,4.7,6.2
		s0.2,5.5,0.6,8.1c1.2,6.9,6.5,12.4,13.3,13.7c1.6,0.4,3.2,0.2,4.7-0.4c1.9-1,2.9-3.1,3.7-5.1l6-14.4c2.7-6.5,5.4-13,6.9-19.9
		c2.1-10.3,1.3-21.1-2.4-30.9c-1.4-3.8-3.4-7.5-6.7-9.8c-6.7-4.5-16-1.4-23.6-4c-2.5-0.9-4.8-2.4-7.3-3.2
		c-5.4-1.9-11.5-0.9-16.7,1.5c-5.2,2.4-9.4,6.3-14,9.8C919,336.5,910.6,339.7,911.3,346z"/>
	<path class="st4" d="M940.3,484.1c0,0-13.3,51.9-26.6,56.7s-7.4,6.2-7.4,6.2"/>
	<rect x="926.4" y="674.1" class="st1" width="14.5" height="95.4"/>
	<rect x="926.4" y="674.1" class="st4" width="14.5" height="7.1"/>
	<path class="st1" d="M897.4,673.6v2c0,2.6,2.1,4.7,4.7,4.7l0,0h63.2c2.6,0,4.7-2.1,4.7-4.7l0,0v-2c0-2.6-2.1-4.7-4.7-4.7l0,0h-63.2
		C899.5,668.9,897.4,671,897.4,673.6L897.4,673.6z"/>
	<path class="st4" d="M898.5,670.6h70.4c-0.9-1.1-2.2-1.7-3.6-1.7h-63.2C900.7,668.9,899.3,669.6,898.5,670.6z"/>
	<path class="st1" d="M879.6,764.3h108.2c3,0,5.5,2.5,5.5,5.5v0.4c0,3-2.5,5.5-5.5,5.5H879.6c-3,0-5.5-2.5-5.5-5.5v-0.4
		C874.1,766.8,876.5,764.3,879.6,764.3z"/>
	<circle class="st3" cx="986.5" cy="783" r="7.3"/>
	<circle class="st3" cx="880.8" cy="783" r="7.3"/>
	<circle class="st3" cx="933.7" cy="783" r="7.3"/>
	<path class="st1" d="M926.7,557h97c4.7,0,8.5,3.8,8.5,8.5v0.6c0,4.7-3.8,8.5-8.5,8.5h-97c-4.7,0-8.5-3.8-8.5-8.5v-0.6
		C918.2,560.8,922,557,926.7,557z"/>
	<path class="st4" d="M940.9,764.3c0,0-5.7,5.6-14.5,0"/>
	<path class="st4" d="M1032.3,566v1.4c0,4-3.2,7.3-7.3,7.3h-99.5c-4,0-7.3-3.2-7.3-7.3V566H1032.3z"/>
	<rect x="822.9" y="582.2" class="st1" width="19.6" height="249.9"/>
	<rect x="822.9" y="582.2" class="st4" width="19.6" height="16.2"/>
	<rect x="233.4" y="680.9" class="st1" width="14.5" height="95.4"/>
	<rect x="233.4" y="680.9" class="st4" width="14.5" height="7.1"/>
	<path class="st1" d="M277,680.5v2c0,2.6-2.1,4.7-4.7,4.7l0,0h-63.2c-2.6,0-4.7-2.1-4.7-4.7l0,0v-2c0-2.6,2.1-4.7,4.7-4.7h63.2
		C274.9,675.8,277,677.9,277,680.5L277,680.5L277,680.5z"/>
	<path class="st4" d="M275.9,677.5h-70.4c0.9-1.1,2.2-1.7,3.6-1.7h63.2C273.7,675.8,275,676.4,275.9,677.5z"/>
	<path class="st1" d="M186.6,771.1h108.2c3,0,5.5,2.5,5.5,5.5v0.4c0,3-2.5,5.5-5.5,5.5H186.6c-3,0-5.5-2.5-5.5-5.5v-0.4
		C181.1,773.6,183.6,771.1,186.6,771.1z"/>
	<circle class="st3" cx="187.8" cy="789.8" r="7.3"/>
	<circle class="st3" cx="293.6" cy="789.8" r="7.3"/>
	<circle class="st3" cx="240.7" cy="789.8" r="7.3"/>
	<path class="st4" d="M233.4,771.1c0,0,5.7,5.6,14.5,0"/>
	<path class="st14" d="M603.6,484c0,0-16.3-29.6-10.3-55.3c2.6-10.8,1.6-22.1-2.8-32.2c-2.1-4.8-4.7-9.4-7.6-13.7"/>
	<path class="st9" d="M586.4,366.5c0.8,3.9-3.7,16.7-3.7,16.7s-9.5-9.7-10.3-13.6c-1.2-3.8,1-7.8,4.8-9s7.8,1,9,4.8
		C586.2,365.8,586.3,366.1,586.4,366.5L586.4,366.5z"/>
	<path class="st9" d="M602.7,385.4c-1.4,3.7-12.2,12-12.2,12s-2.7-13.3-1.3-17c1.2-3.8,5.3-5.8,9.1-4.6c3.8,1.2,5.8,5.3,4.6,9.1
		C602.9,385.1,602.8,385.2,602.7,385.4L602.7,385.4z"/>
	<path class="st9" d="M610.3,422.2c-3.1,2.5-16.5,4.2-16.5,4.2s4.4-12.8,7.5-15.4c3.1-2.5,7.6-2.1,10.1,0.9
		C613.9,415.1,613.5,419.6,610.3,422.2C610.4,422.2,610.3,422.2,610.3,422.2z"/>
	<path class="st9" d="M609.8,451.4c-2.6,3-15.6,6.9-15.6,6.9s2.2-13.4,4.8-16.4c2.5-3.1,7-3.5,10.1-1s3.5,7,1,10.1
		C609.9,451.2,609.8,451.3,609.8,451.4L609.8,451.4z"/>
	<path class="st9" d="M576,401.4c3.4,2.1,17,2,17,2s-6-12.2-9.4-14.3c-3.3-2.2-7.8-1.3-10,2.1c-2.2,3.3-1.3,7.8,2.1,10
		C575.8,401.2,575.9,401.3,576,401.4L576,401.4z"/>
	<path class="st9" d="M575.8,435.5c3.8,1,16.8-3.1,16.8-3.1s-9.4-9.8-13.2-10.8c-3.9-0.8-7.7,1.7-8.5,5.5
		C570.1,430.8,572.2,434.4,575.8,435.5z"/>
	<path class="st9" d="M580.1,468.7c3.6,1.6,17.1-0.2,17.1-0.2s-7.6-11.3-11.2-12.9c-3.6-1.6-7.9,0-9.5,3.6S576.5,467,580.1,468.7
		L580.1,468.7z"/>
	<path class="st9" d="M586.4,366.5c0.8,3.9-3.7,16.7-3.7,16.7s-9.5-9.7-10.3-13.6c-1.2-3.8,1-7.8,4.8-9s7.8,1,9,4.8
		C586.2,365.8,586.3,366.1,586.4,366.5L586.4,366.5z"/>
	<path class="st9" d="M602.7,385.4c-1.4,3.7-12.2,12-12.2,12s-2.7-13.3-1.3-17c1.2-3.8,5.3-5.8,9.1-4.6c3.8,1.2,5.8,5.3,4.6,9.1
		C602.9,385.1,602.8,385.2,602.7,385.4L602.7,385.4z"/>
	<path class="st9" d="M610.3,422.2c-3.1,2.5-16.5,4.2-16.5,4.2s4.4-12.8,7.5-15.4c3.1-2.5,7.6-2.1,10.1,0.9
		C613.9,415.1,613.5,419.6,610.3,422.2C610.4,422.2,610.3,422.2,610.3,422.2z"/>
	<path class="st9" d="M609.8,451.4c-2.6,3-15.6,6.9-15.6,6.9s2.2-13.4,4.8-16.4c2.5-3.1,7-3.5,10.1-1s3.5,7,1,10.1
		C609.9,451.2,609.8,451.3,609.8,451.4L609.8,451.4z"/>
	<path class="st9" d="M576,401.4c3.4,2.1,17,2,17,2s-6-12.2-9.4-14.3c-3.3-2.2-7.8-1.3-10,2.1c-2.2,3.3-1.3,7.8,2.1,10
		C575.8,401.2,575.9,401.3,576,401.4L576,401.4z"/>
	<path class="st9" d="M575.8,435.5c3.8,1,16.8-3.1,16.8-3.1s-9.4-9.8-13.2-10.8c-3.9-0.8-7.7,1.7-8.5,5.5
		C570.1,430.8,572.2,434.4,575.8,435.5z"/>
	<path class="st9" d="M580.1,468.7c3.6,1.6,17.1-0.2,17.1-0.2s-7.6-11.3-11.2-12.9c-3.6-1.6-7.9,0-9.5,3.6S576.5,467,580.1,468.7
		L580.1,468.7z"/>
	<path class="st9" d="M597,566.1L597,566.1c-9.5,0-17.1-7.7-17.1-17.1c0-0.4,0-0.7,0-1.1l4.8-75.9h24.6l4.8,75.9
		c0.6,9.4-6.6,17.6-16,18.2C597.7,566.1,597.4,566.1,597,566.1z"/>
	<rect x="84.1" y="193" class="st0" width="14" height="58"/>
	<rect x="102.1" y="193" class="st0" width="14" height="58"/>
	<rect x="120.1" y="193" class="st0" width="14" height="58"/>
	<rect x="138.1" y="193" class="st0" width="14" height="58"/>
	<rect x="174.1" y="193" class="st0" width="14" height="58"/>
	<rect x="192.1" y="193" class="st0" width="14" height="58"/>
	<rect x="84.1" y="204" class="st0" width="14" height="3"/>
	<rect x="84.1" y="240" class="st0" width="14" height="3"/>
	<rect x="102.1" y="204" class="st0" width="14" height="3"/>
	<rect x="102.1" y="240" class="st0" width="14" height="3"/>
	<rect x="120.1" y="204" class="st0" width="14" height="3"/>
	<rect x="120.1" y="240" class="st0" width="14" height="3"/>
	<rect x="138.1" y="204" class="st0" width="14" height="3"/>
	<rect x="138.1" y="240" class="st0" width="14" height="3"/>
	<rect x="156.1" y="204" class="st0" width="14" height="3"/>
	<rect x="156.1" y="240" class="st0" width="14" height="3"/>
	<rect x="174.1" y="204" class="st0" width="14" height="3"/>
	<rect x="174.1" y="240" class="st0" width="14" height="3"/>
	<rect x="192.1" y="204" class="st0" width="14" height="3"/>
	<rect x="192.1" y="240" class="st0" width="14" height="3"/>
	<rect x="156.1" y="193" class="st0" width="14" height="58"/>
	<rect x="218.1" y="193" transform="matrix(0.9075 -0.4201 0.4201 0.9075 -72.4169 115.0956)" class="st0" width="14" height="58"/>
	
		<rect x="211.2" y="205.5" transform="matrix(0.9075 -0.4201 0.4201 0.9075 -66.7718 110.8011)" class="st0" width="14" height="3"/>
	
		<rect x="226.3" y="238.2" transform="matrix(0.9075 -0.4201 0.4201 0.9075 -79.0958 120.1729)" class="st0" width="14" height="3"/>
	
		<linearGradient id="SVGID_2_" gradientUnits="userSpaceOnUse" x1="329.988" y1="27.0383" x2="329.988" y2="538.5668" gradientTransform="matrix(1 0 0 -1 -39.7 846.26)">
		<stop  offset="0" style="stop-color:#808080;stop-opacity:0.25"/>
		<stop  offset="0.54" style="stop-color:#808080;stop-opacity:0.12"/>
		<stop  offset="1" style="stop-color:#808080;stop-opacity:0.1"/>
	</linearGradient>
	<path class="st15" d="M389.6,791l-25.4-16.2c-0.1-22.8-0.5-128.8,4.3-143c1.2-4.1,1.3-8.5,0.2-12.6c-3.3-14.4-15.3-25.2-29.9-27.5
		c-13.8-2.2-33.6-5.9-49.5-10.6c14.2-1.5,24.9-2.7,24.9-2.7l0.3-2.6l9.1-0.4v-0.4l0.9,0c21.4-1.3,66.8-5.5,51.3-18.2
		c-5.3-4.3-12.2-6.4-19.5-7.1c22.3-5.1,57-14.9,41.5-24.2c-14.7-8.8-37.3-1.9-50.8,3.7l-0.8,0.3l-0.1-1.2l-5.4,1.1l0,0l-1.7,0.3
		l-0.1-1.8l-75.5,11.7c-0.6-8.6-1.6-17.3-3.1-25.8c1.7-11.3,9.5-27.7,6.8-36.5c-3.2-10.2-16.4-13.6-22-22.8
		c-1.5-2.4-2.9-4.7-4.3-6.6c-3.1-4.2-6.7-8.1-10.6-11.5c0.2-5.9,1.6-11.8,3.9-17.3c1.5-3.7,3.3-7.2,5.3-10.6
		c18.3-4.5,29.8-22.5,26.4-41c4.8,2,10.6,2.3,13.6-1.7l-1.4-0.6c0.1-0.1,0.3-0.3,0.4-0.5c-2.9-1.1-6-2.4-8.3-4.4
		c-0.6-0.6-1.1-1.4-1.5-2.1c-1.4-2.8-1.2-6.2-2.5-9c-0.6-1.3-1.5-2.4-2.6-3.4c-2.3-2.4-5.2-4-8.5-4.8c-3.6-1.1-7.4-1.6-10.9-3
		c-9.6-11.2-25-15.5-39.1-11l-1.3,0.4c1.8-8.8-3.8-17.5-12.7-19.3c-8.6-1.8-17.1,3.6-19.2,12.1c0.3-3.6,1.9-7.1,4.4-9.7
		c-0.3,0.2-0.5,0.4-0.8,0.7c-6.6,6.2-6.9,16.5-0.7,23.1c0,0,0,0,0,0l0.3,0.3c1.2,1.4,2.5,2.6,4.1,3.6c-5.8-2.1-10-7.2-10.8-13.4
		c0,0.3,0,0.7,0,1c0.5,9,8.2,15.9,17.2,15.3c0,0,0.1,0,0.1,0l0.4,0l-0.2,0.3c-9.6,14.1-8.2,32.9,3.3,45.5c0.7,1.5,1.5,2.9,2.6,4.2
		c0.4,0.4,0.8,0.8,1.2,1.2c2.7,2.9,6.5,4.6,10.5,4.8c0.7,0.8,1.4,1.6,2.1,2.3c-0.7,2.8-1.5,5.6-2.6,8.2c-2.1,5.3-4.8,10.5-7.9,15.3
		c-21.6,6.1-23.5,42.8-22.7,44.2c0.9,1.7-3.2,59.3,12.8,128.8c-0.7,19.9,10.9,52.8,52.1,44.1c51.5,2.8,68.4,10.6,68.4,10.6
		s-4.9,89.6,2.1,102.6c4.4,8.2,1.3,20.2-2,28.6c-1.2,2.1-2.2,4.3-2.9,6.6c-1,2.1-1.7,3.4-1.7,3.4h0.7c-2.6,9.2-4.5,20.2-4.5,20.2
		s62.4,12.7,89.9,4.4c10.7-3.2,11.1-6.2,7.6-8.7c2.5-0.4,5.1-0.9,7.5-1.7C430,797.8,389.6,791,389.6,791z"/>
	<path class="st16" d="M253.8,365.8c0,19.9-16.1,36-36,36s-36-16.1-36-36c0-19.9,16.1-36,36-36S253.8,345.9,253.8,365.8z"/>
	<path class="st7" d="M334.9,534.9l3.6,18.2c0,0,4.1-0.7,10.1-2c20.5-4.3,63.9-15.1,47.1-25.1c-14.5-8.6-36.6-1.8-49.8,3.7
		c-4.8,2-8.5,3.9-10.1,4.7C335.2,534.7,334.9,534.9,334.9,534.9z"/>
	<path class="st4" d="M335.9,540.1l2.6,13.1c0,0,4.1-0.7,10.1-2l-2.7-21.5c-4.8,2-8.5,3.9-10.1,4.7L335.9,540.1z"/>
	<polygon class="st8" points="335.3,554.3 347.8,551.8 345,528.9 335,530.9 	"/>
	<polygon class="st4" points="335.3,554.3 340.7,553.2 339.7,529.9 335,530.9 	"/>
	<path class="st9" d="M219.7,454.8c0,0,24.4-12.7,33.3,27.3s9,58.2,9,58.2l75.9-11.7l1.2,27.6c0,0-81.6,22.4-91.6,20.1
		c-10-2.3-40.5-58.8-40.5-58.8S179.1,473.4,219.7,454.8z"/>
	<g class="st10">
		<path d="M334.9,534.9l3.6,18.2c0,0,4.1-0.7,10.1-2c20.5-4.3,63.9-15.1,47.1-25.1c-14.5-8.6-36.6-1.8-49.8,3.7
			c-4.8,2-8.5,3.9-10.1,4.7C335.2,534.7,334.9,534.9,334.9,534.9z"/>
		<path class="st4" d="M335.9,540.1l2.6,13.1c0,0,4.1-0.7,10.1-2l-2.7-21.5c-4.8,2-8.5,3.9-10.1,4.7L335.9,540.1z"/>
		<polygon points="335.3,554.3 347.8,551.8 345,528.9 335,530.9 		"/>
		<polygon class="st4" points="335.3,554.3 340.7,553.2 339.7,529.9 335,530.9 		"/>
		<path d="M221.7,456.8c0,0,24.4-12.7,33.3,27.3s9,58.2,9,58.2l75.9-11.7l1.2,27.6c0,0-81.6,22.4-91.6,20.1
			c-10-2.3-40.5-58.8-40.5-58.8S181.1,475.4,221.7,456.8z"/>
	</g>
	<path class="st17" d="M357.8,767.5l29.9,19c0,0,39.6,6.6,12.7,14.8s-88.1-4.3-88.1-4.3s4.6-27.5,9.6-31.2S357.8,767.5,357.8,767.5z
		"/>
	<path class="st18" d="M246.8,563.7c0,0,14.9,8.7,41.8,16.8c15.7,4.8,35.5,8.4,49.2,10.6c14.4,2.2,25.9,12.9,29.4,27
		c1.1,4.1,1,8.3-0.2,12.4c-5.2,15.6-4.2,144.5-4.2,144.5l-46.8,2.3c0,0,7.4-23.4-1.7-35.8s6.2-102.7,6.2-102.7s-16.6-7.7-67.1-10.4
		c-47.3,10-64.3-42.2-56.5-56.2C204.7,558,246.8,563.7,246.8,563.7z"/>
	<g class="st10">
		<path d="M357.8,767.5l29.9,19c0,0,39.6,6.6,12.7,14.8s-88.1-4.3-88.1-4.3s4.6-27.5,9.6-31.2S357.8,767.5,357.8,767.5z"/>
		<path d="M246.8,563.7c0,0,14.9,8.7,41.8,16.8c15.7,4.8,35.5,8.4,49.2,10.6c14.4,2.2,25.9,12.9,29.4,27c1.1,4.1,1,8.3-0.2,12.4
			c-5.2,15.6-4.2,144.5-4.2,144.5l-46.8,2.3c0,0,7.4-23.4-1.7-35.8s6.2-102.7,6.2-102.7s-16.6-7.7-67.1-10.4
			c-47.3,10-64.3-42.2-56.5-56.2C204.7,558,246.8,563.7,246.8,563.7z"/>
	</g>
	<path class="st17" d="M342.9,777.6l29.9,19c0,0,39.6,6.6,12.7,14.8s-88.1-4.3-88.1-4.3s4.6-27.5,9.6-31.2S342.9,777.6,342.9,777.6z
		"/>
	<path class="st18" d="M238.4,638.4c50.5,2.7,67.1,10.4,67.1,10.4s-4.8,87.8,2,100.6c7.3,13.6-6.5,37.9-6.5,37.9l46.8-2.3
		c0,0,0-1.5,0-4.2c-0.1-22.4-0.5-126.3,4.2-140.2c1.2-4,1.3-8.3,0.2-12.4c-3.4-14.1-15-24.8-29.4-27c-13.7-2.2-33.5-5.9-49.2-10.6
		l-0.8-0.2c-26.4-8-41-16.5-41-16.5s-31.2-2.2-39,11.9c-1,1.8-5.3,5.4-5.5,8.3C186.3,613.3,197.3,647,238.4,638.4z"/>
	<path class="st7" d="M312.6,556.4l0.9,18.6c0,0,4.1-0.1,10.3-0.5c21-1.3,65.5-5.4,50.3-17.8c-13-10.7-35.9-7.3-49.8-3.8
		c-5.1,1.3-9,2.6-10.7,3.2C313,556.3,312.6,556.4,312.6,556.4z"/>
	<path class="st7" d="M193.8,430.1c0,0,6,5.2,13.4,10.9c8.3,2.3,18,4.3,24.9,5.6c-2.1-8.1-0.2-17,2.9-24.8c3.4-8.1,8-15.7,13.6-22.5
		L207,384.2c2.9,8.5,1,18.1-2.2,26.3C202,417.5,198.3,424.1,193.8,430.1z"/>
	<path class="st4" d="M312.9,561.6l0.6,13.3c0,0,4.1-0.1,10.3-0.5l0.6-21.6c-5.1,1.3-9,2.6-10.7,3.2L312.9,561.6z"/>
	<polygon class="st8" points="310.1,575.6 322.9,575 323.5,551.9 313.3,552.4 	"/>
	<path class="st9" d="M188.3,599.4c27,28.1,77.4-5.3,90.9-15.2c2.2-1.6,3.4-2.6,3.4-2.6c-5-5.1-13-9.8-16.1-22.5
		c-2.9-13-4.9-26.2-5.9-39.5c-0.8-10.6,10.1-30.6,6.9-40.7s-16.1-13.3-21.6-22.4c-1.4-2.4-2.9-4.6-4.3-6.5
		c-10.1-14-27.6-23.4-27.6-23.4c-37.3-12.8-40.3,40.6-39.3,42.3S171.5,529.3,188.3,599.4z"/>
	<path class="st4" d="M188.1,522.6c0,0,21.7,60.4,31.3,64.2c5.5,2.2,35.4-0.2,59.9-2.6c2.2-1.6,3.4-2.6,3.4-2.6
		c-5-5.1-9.1-15.6-12.1-28.3l-31.5,0.1c0,0,2.5-18-0.3-58.9s-28.9-31.9-28.9-31.9C167,474.9,188.1,522.6,188.1,522.6z"/>
	<polygon class="st4" points="310.1,575.6 315.6,575.3 318.1,552.2 313.3,552.4 	"/>
	<path class="st9" d="M210.7,460c0,0,26-8.9,28.9,31.9s0.3,58.9,0.3,58.9l76.8-0.3l-3,27.5c0,0-84,10-93.6,6.2
		c-9.6-3.8-31.3-64.2-31.3-64.2S167.7,472.3,210.7,460z"/>
	<path class="st4" d="M211.6,399.8c1.4-6-5-6.2-7-12l41.7,15c-3.1,3.8-5.9,7.9-8.4,12.1c-2.2,0.6-4.5,0.9-6.8,1
		C221,416.4,218.3,406.4,211.6,399.8z"/>
	<circle class="st7" cx="231.9" cy="377.5" r="35"/>
	<path class="st4" d="M213.8,485.9c0,0,11.1,52.4,24.1,57.7s7.1,6.5,7.1,6.5"/>
	<path class="st4" d="M259.4,515.5c0,0-9.2,2.9-20-10.9"/>
	<circle class="st16" cx="189.8" cy="328.8" r="16"/>
	<path class="st16" d="M178.6,337.3c-5.8-6.2-5.8-15.7,0-21.9c-0.3,0.2-0.5,0.4-0.8,0.6c-6.4,6.1-6.8,16.2-0.7,22.6
		c6.1,6.4,16.2,6.8,22.6,0.7l0,0c0.3-0.2,0.5-0.5,0.7-0.7C193.9,344,184.3,343.4,178.6,337.3z"/>
	<path class="st16" d="M187.7,343.3c-8.4,0.5-15.8-5.6-16.8-14c0,0.3,0,0.7,0,1c0.6,8.8,8.2,15.5,17,15c8.8-0.6,15.5-8.2,15-17
		c0-0.3-0.1-0.7-0.1-1C202.7,335.8,196.1,342.8,187.7,343.3z"/>
	<path class="st4" d="M244.8,342.7c3.7,1.8,8,2.4,12,3.5c4,1.2,8.1,3.3,9.8,7.1c1.3,2.8,1.1,6.1,2.5,8.8c1.9,4,6.4,5.8,10.5,7.4
		c-3.5,4.8-11.1,3.5-16.1,0.2s-9.2-8-15-9.3c-5.8-1.2-11.8,1.5-14.8,6.6c-1.6,2.8-2.1,6-2.9,9.1c-2,8.1-6,16.2-13,20.8
		s-17.4,4.6-22.9-1.7c-3.2-3.7-4.3-8.7-5.2-13.5c-0.5-2.2-0.8-4.5-0.8-6.8c0.3-5.7,4.1-10.6,8-14.9c4.6-5,9.4-9.8,14.2-14.6
		c4.2-4.1,9-11.1,15.3-11.6C233.7,333.3,238.8,339.8,244.8,342.7z"/>
	<path class="st16" d="M243.8,341.7c3.7,1.8,8,2.4,12,3.5c4,1.2,8.1,3.3,9.8,7.1c1.3,2.8,1.1,6.1,2.5,8.8c1.9,4,6.4,5.8,10.5,7.4
		c-3.5,4.8-11.1,3.5-16.1,0.2s-9.2-8-15-9.3c-5.8-1.2-11.8,1.5-14.8,6.6c-1.6,2.8-2.1,6-2.9,9.1c-2,8.1-6,16.2-13,20.8
		s-17.4,4.6-22.9-1.7c-3.2-3.7-4.3-8.7-5.2-13.5c-0.5-2.2-0.8-4.5-0.8-6.8c0.3-5.7,4.1-10.6,8-14.9c4.6-5,9.4-9.8,14.2-14.6
		c4.2-4.1,9-11.1,15.3-11.6C232.7,332.3,237.8,338.8,243.8,341.7z"/>
	<path class="st1" d="M150.6,563.8h97c4.7,0,8.5,3.8,8.5,8.5v0.6c0,4.7-3.8,8.5-8.5,8.5h-97c-4.7,0-8.5-3.8-8.5-8.5v-0.6
		C142.1,567.6,145.9,563.8,150.6,563.8z"/>
	<path class="st4" d="M142.1,572.8v1.4c0,4,3.2,7.3,7.3,7.3h99.5c4,0,7.3-3.2,7.3-7.3v-1.4H142.1z"/>
	<rect x="342.9" y="582.2" class="st1" width="19.6" height="249.8"/>
	<rect x="342.9" y="582.2" class="st4" width="19.6" height="16.2"/>
	<rect x="333.5" y="564.3" class="st1" width="518.4" height="32.4"/>
</g>
</svg>
