<?xml version="1.0" encoding="utf-8"?>
<!-- Generator: Adobe Illustrator 23.0.6, SVG Export Plug-In . SVG Version: 6.00 Build 0)  -->
<svg version="1.1" id="e37c00f5-ff96-45aa-87ea-1a24b78ba7bd"
	 xmlns="http://www.w3.org/2000/svg" xmlns:xlink="http://www.w3.org/1999/xlink" x="0px" y="0px" viewBox="0 0 1155.9 609"
	 style="enable-background:new 0 0 1155.9 609;" xml:space="preserve">
<style type="text/css">
	.st0{opacity:0.2;}
	.st1{fill:#3F3D56;}
	.st2{opacity:0.8;fill:none;stroke:#50BFB0;stroke-width:2.2246;stroke-miterlimit:10;enable-background:new    ;}
	.st3{fill:#50BFB0;}
	.st4{fill:#FFFFFF;}
</style>
<title>connected world</title>
<g class="st0">
	<path class="st1" d="M268.8,64c-0.4-3.3-1.3-6.5-2.5-9.6c-0.3-1.2-1.1-2.2-2.2-2.7c-0.7-0.2-1.5-0.2-2.2,0l-11.2,1.7
		c-0.9,0-1.8,0.4-2.6,1c-1.5,1.5,0,4-0.1,6.1c-0.1,2.4-2.2,4.3-4.5,5c-2.3,0.5-4.8,0.4-7.1-0.1L220.7,63c4.6-1.5,8.7-4.2,11.9-7.9
		c2.1-2.4,3.2-7,0.2-8.2c-0.9-0.2-1.8-0.3-2.7-0.2c-7.1,0.1-12.7-5.9-19.4-8.4c-8.7-3.1-18.5-0.2-24.1,7.2l8.4,0.4
		c0.8,0,1.6,0.2,2.2,0.6c1.8,1.5-0.4,4.4-0.2,6.8c0.3,3.1,4.4,3.7,7.5,4s7,2.8,5.5,5.5c-15.4,5.3-31.1-10.4-47.2-8.4
		c-4.1,0.5-8,2.1-12,3.1c-24.4,6.2-49.7-10.3-74.6-6.8c-5.5,0.9-11,2.4-16.3,4.3c-3.4,1.1-6.9,2.3-9.4,4.9c-2.5,2.6-3.4,7-1.1,9.7
		c-6.4,0.4-12.9-0.2-19.1-2c3.4,1.9,5.5,5.5,5.5,9.5C25.8,78.7,16,81.7,6.7,86c1.7,2.9,3.7,5.6,6,8L0,102.2c4.3,1.1,6.5,6.9,4,10.6
		c4.5-2,7.2-7.1,12-8.2c3.1-0.7,6.3,0.6,9.3,1.8c3,1.2,6.2,2.4,9.3,1.5s5.3-4.9,3.4-7.4c13.1-3.8,26.7-5.9,40.3-6.3
		c1.1-0.1,2.1,0.1,3.1,0.6c1.8,1.2,1.3,3.9,1.2,6.1s1.6,5,3.5,4c-2.3,2-0.3,5.7,1.9,7.8c2.2,2.1,4.8,4.9,3.5,7.6
		c-0.3,0.7-0.9,1.3-1.3,2c-1,2.1,0.6,4.5,2.4,5.9c1.9,1.4,4.1,2.4,5.4,4.3c1.3,1.9,0.7,5.3-1.6,5.6l-6.5-8.3
		c-2.2,2.3-3.8,5.2-4.4,8.4c6.9,5.7,8,17.2,2.2,24c-3,3.5-7.2,5.6-10.9,8.3s-7.1,6.6-7.1,11.2c0,7.9-0.6,15.3,2.3,22.6
		c5.5,13.5,11.8,26.7,18.9,39.4c1.9,3.3,4.3,7,8.1,7.6c-4.8-11.7-9.1-23.5-12.9-35.5c2.5,0,5.4,0.2,6.8,2.2c1.2,1.7,1,3.9,1.3,6
		c0.5,2,1.3,3.8,2.4,5.6l22.9,40.7c1.9,3.4,4.1,7,7.7,8.4c2.3,0.9,5,0.7,7.1,2c1.7,1,2.8,2.7,4.5,3.7c4.8,2.6,11.5-2.4,16,0.7
		c1.3,0.9,2.1,2.3,3.3,3.3c4.2,3.6,11,1.2,15.8,3.9c3.1,1.7,4.7,5.2,6.3,8.3c4.1,7.9,10.8,15.6,19.7,16.2c2.8,0.2,5.6-0.3,8.3,0.3
		s5.4,3,5,5.7c-0.7,4.7,1.6,9.9,1,14.6c-1.1,8.6-13.4,12.4-14.4,21.1c-0.2,1.9,0.1,3.8-0.3,5.7c-0.6,2.3-2.3,4.1-2.9,6.4
		c-1.1,4.3,1.9,8.5,5.3,11.4c3.4,2.9,7.4,5.4,9.2,9.4c1.9,4.3,1,9.2,1.6,13.9c1.4,10.1,10.1,17.6,19.1,22.5c2.7,1.5,5.7,2.9,7.5,5.5
		c2.3,3.3,2.1,7.7,2.9,11.7c1.9,9.8,10.1,17.8,10.3,27.8c0.2,7.1-3.8,13.5-6.1,20.2c-4.5,12.9-3.1,27.2,3.8,39c1.8,3,3.9,5.8,5.1,9
		c2.2,5.7,1.5,12.3,3.5,18.1c2.7,7.7,10.1,14,9.4,22.1c3.4,7,10.8,10.4,18.3,12.5l13.4,3.7c2.6,0.7,5.3,1.4,7.9,0.9s5.1-2.7,5-5.4
		c-6.6-1.5-13.4-3.1-18.8-7.1s-9.1-11.1-7.1-17.6c1-3,3-6.4,1.1-8.9c-1.1-1.4-3.1-1.8-4.4-3.1c-1.9-2-1.3-5.4,0.1-7.8s3.4-4.6,4-7.3
		c0.6-3.1-0.8-6.3-3.6-7.9c2.5-0.9,4.7-2.4,6.6-4.3c1.7-2,2.6-5.1,1.2-7.3c4.1,0.5,8.9,0.8,11.6-2.3c2.1-2.5,2-6.2,1.1-9.4
		c-0.8-3.2-2.3-6.3-2.3-9.5c9.4,0.4,18.8,0.1,28.2-1c-1.4-4.6-4.4-8.4-8.6-10.7c4.2-0.7,8.1-5.8,9.4-9.9s1-8.5,0.2-12.8
		c-0.3-1.1-0.4-2.2-0.1-3.3c0.5-1.5,2-2.4,3.4-3.2l21-12.1c1.3-0.6,2.4-1.5,3.4-2.5c2.2-2.6,1.9-6.5,0.7-9.7s-2.9-6.2-3.4-9.6
		c-1.3-10.1,9.5-17.3,13.1-26.8c1.4-3.7,1.7-7.8,2-11.8c0.3-4.3,0.3-9.2-3-12c-3.1-2.6-8.1-2.1-11.4-4.5c-3-2.3-4.1-6.6-7.4-8.4
		c-3-1.7-6.8-0.6-10.1-1.4c-5.9-1.4-9.6-8.1-15.5-8.8c-3.4-0.4-7.2,1.3-10-0.7c-2.4-1.7-2.5-5.2-3-8.2c-1.7-9.4-9-16.8-18.4-18.5
		c-3.5-0.6-7.3-0.3-10.2-2.3c-3-1.9-4.4-5.6-6.7-8.3c-3.8-4.3-9.8-5.9-15.4-7.2l-22.8-5.4c-4-1-9.3-1.5-11.4,2.1
		c-0.6,1.4-1.1,2.8-1.4,4.3c-1.7,5.5-6.7,9.2-12.4,9.3c-1.9-3.3-5-5.7-8.6-6.7c-2.3-0.6-4.8-0.7-7-1.7c-4.9-2.4-6.9-8.3-4.5-13.1
		c0.1-0.2,0.2-0.3,0.3-0.5c2.7-4.8,1.8-10.8-2.1-14.7c-3.9-3.5-9.5-4.3-14.7-4c-1.4-3,0.9-6.3,3.4-8.5s5.4-4.3,6-7.5
		c0.8-5.1-5.6-8.9-10.5-7.4s-8.1,6.3-10.1,11c-1.2,2.7-2.2,5.5-4.1,7.8c-1.9,2.3-4.9,3.9-7.8,3.2c-4-1-5.6-5.8-6.5-9.9
		c-1.2-5.5-2.4-11-2.2-16.6s2.1-11.3,6.3-15.1c6.7-6.2,17-5.6,26.1-4.6c-2.1-2.4-1.6-6.5,0.7-8.8c2.5-2.2,5.8-3,9-2.2
		c2.7,0.6,5.2,2,7,4.2c2.6,3.1,3.3,7.4,5.3,11s6.3,6.6,9.9,4.7c3.1-1.7,3.6-6,2.8-9.4s-2.4-6.8-2.1-10.3c0.5-6.7,7.5-10.7,13.6-13.5
		s13.1-6.5,14.1-13.1c0-1.3,0.3-2.6,0.7-3.8c0.7-1.1,1.6-2,2.7-2.6c17.8-11.8,36-23.7,56.4-30.2c1.1-0.3,1.2,0,2.3-0.2
		c1.5-0.9,0.5-3.3-0.9-4.3s-3.4-1.7-3.8-3.4c-0.3-1.3,0.5-2.5,0.7-3.8c0.5-3.1-3.3-6-6.2-4.8c-1.6-2.2,1.6-4.7,4.2-5.4
		c7.9-2.2,16-3.5,24.1-3.9c0.9-0.1,1.9,0,2.7,0.5c1.4,0.9,1.2,3.1,0.2,4.5s-2.5,2.2-3.7,3.3c-2.7,2.6-3.7,6.5-2.6,10.1
		c4.3,2.2,8.9,4.4,13.6,3.6c4.7-0.8,8.9-6.1,6.7-10.3c-2.1-3.9-8.3-4.8-9.3-9.1c-1.2-5.1,5.9-9.5,4.3-14.5c-0.7-2.2-2.9-3.4-4.5-5
		c-4-3.9-5.2-9.9-3-15.1c-5.5,1-11.1-0.8-15-4.7c-3.6-3.6-6.5-9.4-11.6-9.2c-4.7,0.1-8.7,5.6-13.1,3.9c-1.1-0.4-2.2-1.2-3.3-0.8
		c-0.7,0.5-1.1,1.2-1.2,2c-1.1,5.3,0.8,11.4-2.1,16c-3.2,5-10.5,5.7-14.3,10.2c-2.1,2.5-2.9,5.8-4.8,8.3c-1.9,2.6-6,4.2-8.3,2
		c2.3-4.8,1-10.5-3.1-13.8c-2.1-1.4-4.4-2.5-6.8-3.3c-2.7-1.1-5.2-2.6-7.6-4.3c-1.2-0.7-2.2-1.8-2.8-3c-0.5-1.6-0.4-3.2,0.2-4.7
		c2.4-6.8,8.3-11.7,15.4-12.8c3.1-0.4,6.6-0.3,8.6-2.6c1.1-1.2,1.6-3.1,3.2-3.6c1-0.2,2-0.1,2.9,0.4l11.4,4c1.3,0.6,2.7,0.8,4.1,0.7
		c1.4-0.2,2.5-1.5,2.4-2.9c-0.4-1.9-3.3-2.8-3-4.7c0.1-0.6,0.5-1.2,1-1.6c8.3-8.9,20.2-13.5,32.3-12.8c1.4,2.4-0.8,5.2-2.7,7.2
		c-1.9,2-3.4,5.6-1.1,7.2c0.9,0.5,2,0.7,3,0.7c2.8,0.4,5.5,1.2,8.1,2.4c3.9,1.7,7.8,3.6,11.6,5.6c-0.3-2.5-0.7-5.1,0.3-7.5
		c0.9-2.3,3.6-4.2,6-3.3c2.3,0.9,3.4,3.9,5.8,4.1c3.2,0.4,4.5-4.4,3.1-7.3s-4-5.4-4.2-8.6c-0.1-2.2,0.7-4.9-1.1-6.2
		c-0.6-0.4-1.3-0.6-2.1-0.7l-43.5-8c-2.6-0.5-6.3-0.1-6.4,2.5c-0.1,1.5,1.2,2.9,0.7,4.3c-0.6,1.4-2.6,1.3-4.1,1.8
		c-2.3,0.8-3.4,3.5-3.2,5.9c0.4,2.4,1.3,4.7,2.7,6.7C275.9,65.4,271.6,65.1,268.8,64z"/>
	<path class="st1" d="M234.1,27.1c-5.6-1.9-11.8,0-15.5,4.6c-0.7,0.9-1.3,2.2-0.7,3.3c0.9,1.5,3,0.9,4.7,0.4c2.4-0.8,5-0.9,7.4-0.2
		c1.5,0.5,2.9,1.4,4.4,1.9c1.5,0.6,3.2,0.4,4.5-0.7c1-1.1,1.1-2.7,1.1-4.2c0.1-1-0.2-2-0.9-2.8c-0.6-0.4-1.3-0.6-2-0.6
		c-1.6-0.3-3-1.1-4-2.4"/>
	<path class="st1" d="M249.8,22.7c-2-0.1-3.7,1.4-3.8,3.4c0,0.6,0.1,1.1,0.3,1.7c1.9,0.5,3.9,0.6,5.8,0.4c2-0.3,3.6-1.8,4-3.7
		c-2.3,0.4-4.6,0-6.6-1.3"/>
	<path class="st1" d="M302.3,15.4c-5.1,1.1-10.1,2.8-14.8,5c4.6,1.8,7.5,6.3,7.1,11.2c-0.2,0.9-0.2,1.9,0.1,2.8
		c0.5,1.3,2.1,1.8,3.5,2.2c2.5,0.8,5.1,1.1,7.7,1s5-1.6,6.4-3.9c0.4-1.1,0.8-2.1,1.3-3.1c3.3-5.1,13.2,1.1,16.8-3.8
		c1.3-1.7,1.1-4.3,2.8-5.7c0.8-0.6,1.8-1,2.9-1.1c7.2-1.4,14.4-2.5,21.7-3.1c3.5-0.3,8-1.5,8-5c-13-2.6-26.5-0.7-38.4,5.2
		c-4.3,2.1-9.9,6.7-14.1,3.8c-1.5-1.1-1.5-3.9-3.6-5.1C307.5,14.4,304.7,14.9,302.3,15.4z"/>
	<path class="st1" d="M344.9,23.4l6.1,1.2c-4.4-0.2-8.1,3.2-8.3,7.6c0,0.3,0,0.7,0,1c5.7,1.9,12,0.1,18,0.3c6,0.3,13,4.6,12,10.5
		c-0.3,1.8-1.4,3.6-0.8,5.3c0.4,1.2,1.5,2.1,2.1,3.2c1.3,2.3,0.3,5.3-1.3,7.4c-1.6,2.1-3.8,3.8-5.2,6.1c-3.5,5.6-1.5,12.9,0.6,19.2
		c0.6,2.4,1.7,4.6,3.3,6.5c3.1,3.3,8.1,3.6,12.6,3.6c3.3,0,7-0.1,9.1-2.7c2.7-3.3,0.8-8.5,2.6-12.4c1.6-3.5,5.7-5,9.5-6.1
		c6.8-2,13.8-3.6,20.3-6.6c8-3.7,15.5-9.4,24.4-9.9c2.5-0.1,5,0.2,7.4-0.5s4.7-2.7,4.5-5.2c-0.2-2.1-1.9-3.7-3.3-5.3s-2.5-4-1.2-5.7
		l23.1-4.3c-1.6-4.5-2.9-10.4,0.9-13.3c1.4-1,3.2-1.5,4.3-2.7c2-2.2,1-5.9-1.3-7.7s-5.4-2.3-8.3-2.5c-10.1-0.8-20.3-0.3-30.5,0.3
		c-19.9,1.1-39.7,2.2-59.6,3.3c-4,0.2-8.6-0.1-12.3,1.2c-3.1,1.2-5.3,3.3-8.9,4C358.1,20.6,350.9,19.7,344.9,23.4z"/>
	<path class="st1" d="M454.5,71.7c-0.6-0.1-1.3,0-1.8,0.4c-0.3,0.4-0.5,0.9-0.6,1.4c-0.4,2.3,0.1,4.6,1.3,6.5c1.3,1.9,3.5,3,5.8,2.8
		c2.8-0.4,4.8-2.7,7.3-3.8c3.9-1.8,20.5-4.5,9-10.7c-3.9-2.1-6.5-0.3-9.6,1.2C462.4,71.2,458.5,72,454.5,71.7z"/>
	<path class="st1" d="M554.9,19.9c-1.3,0.5-2.5,1.5-3.2,2.8s-0.2,2.9,1,3.7c0.5,0.2,1,0.3,1.6,0.2l5.4,0.2c2.3,0.1,5.2,0.6,5.8,2.8
		c0.5,1.7-0.6,3.8,0.7,5c0.5,0.4,1.2,0.7,1.9,0.7c1.8,0.5,3.7,0.5,5.5,0.2c4-1.1,1.9-3.5,3.1-5.6c1.9-3.3,1.6-1.3,4.9-3.2
		c2.5-1.4,5.7-3.9,3.6-7.5C581.7,12.9,560.2,17.2,554.9,19.9z"/>
	<path class="st1" d="M662.3,16.8l-3.2,0.4c-7.1,1-14.3,1.9-21.2,4.1c3,1.2,6.1,1.9,9.3,2.3c1.7,0.1,3.5,0.3,5.2,0.7
		c3,0.9,6.1,3.2,9,2c1.8-0.7,2.4-2.6,3.9-3.6c1-0.7,5-1.8,5.4-2.5C674.3,14.5,665,16.4,662.3,16.8z"/>
	<path class="st1" d="M676.2,31.1c-4.2,2.4-8.1,5.2-11.7,8.5c-1.5,1.4-3,3.1-2.9,5.2c0.2,2.7,3.1,4.3,5.6,5.3l10.1,4.3
		c1.2-1.7,0.1-4.1-1.2-5.8s-2.8-3.7-2.2-5.7c0.6-2.3,3.5-3.1,5.9-3.5c3.9-0.7,14.4-0.6,13.1-6.9C691.4,25.2,680,28.9,676.2,31.1z"/>
	<path class="st1" d="M674.1,448.4c-1,2.8-1.1,6.1,0.6,8.5c1.9,2.7,5.6,3.7,8.8,3.1c3.2-0.9,6.1-2.7,8.2-5.3
		c1.9-2.2,3.5-4.6,4.7-7.2c1.7-4.1,2.8-8.4,3.5-12.8l3.1-16.5c0.7-3.7,0.7-15-6.1-11.3c-1.8,1-6.1,8.9-8.1,11.2
		c-3.5,4.1-4,8-5.8,12.9C680.9,437.1,676.2,442.2,674.1,448.4z"/>
	<path class="st1" d="M1031.4,532.6c-2.2-0.9-4.4-1.9-6.4-3.1c-2.1,5.7-3.2,11.7-3.3,17.8l15.1-8.6c2.3-1.3,4.9-3.1,4.8-5.7
		c0-0.7-0.3-1.3-0.8-1.6c-0.3-0.1-0.7-0.2-1.1-0.1c-2.2,0.2-4.3,1.3-6.4,2.1s-4.6,1.2-6.5,0"/>
	<path class="st1" d="M1111.3,537.7c-1.7,0.5-3.3,1-4.9,1.7c-3.5,1.8-5.8,5.1-9,7.5c-3,2.2-6.6,3.5-10.1,4.6c-1,0.9-0.6,2.8,0.6,3.6
		c1.2,0.7,2.6,1,4,0.9c3.7,0.1,7.5,0.1,10.8-1.7c1.8-1.2,3.5-2.5,5.1-4c3.8-3.1,8.3-5.2,12.8-7.2c1.6-0.6,3.1-1.5,4.4-2.7
		c2.8-2.8,3-7-1-8C1120.6,531.7,1114.4,536.7,1111.3,537.7z"/>
	<path class="st1" d="M1146.6,514.7c0.4-3.9-1.1-7.7-3.9-10.4c0,3.8-0.2,7.9-2.3,11c-1.5,2.2-3.9,3.8-5.6,5.9s-2.4,5.5-0.5,7.4
		c1.3,1,2.8,1.5,4.4,1.5c3.9,0.5,8.4,0.7,11.2-2.1c1.5-1.5,2.2-3.8,4-5c0.7-0.3,1.3-0.7,1.8-1.3c0.8-1.2-0.4-2.8-1.8-3.2
		c-1.3-0.4-2.8-0.2-4.2-0.6c-1.4-0.4-2.6-1.9-1.9-3.2"/>
	<path class="st1" d="M1083.8,374.9c-2.1,0.5-4.2,0.6-6.3,0.4c-3.5-0.6-6.2-3.3-9-5.4c-6.7-5.1-14.8-7.9-23.2-8.1
		c-7.6-0.1-15.3,1.9-22.8,0.5c0.5,2.7,2.8,4.8,5.3,6s5.2,1.8,7.7,3c4,1.9,7.2,5.2,8.9,9.3c0.8,1.9,1.3,3.9,2.5,5.6
		c2.5,3.4,7.2,4.1,11.4,3.8c5.4-0.4,11.1-1.9,16.2,0.1c3.9,1.5,6.6,4.9,9.9,7.6c3.2,2.6,7.8,4.6,11.5,2.7
		c-7.9-2.6-13.2-10-13.1-18.3c3.6,0.3,14.1,0.2,13.6-6C1095.9,370.8,1086.9,374.3,1083.8,374.9z"/>
	<path class="st1" d="M1036.2,417.5c0.6-3.5,4.2-6.7,3.1-10.1c-0.8-2.4-3.5-3.5-6-3.6s-4.9,0.7-7.4,0.8c-1.6-0.1-3.2-0.1-4.9,0.1
		c-4.9,0.8-8,6-12.6,7.8c-2.8,1.1-6,0.9-9,1.7c-6.7,1.8-10.9,8.1-15.6,13.2c-7.6,8.2-17.4,13.9-28.2,16.5c-3.8,0.9-7.9,1.4-10.9,3.9
		c-4,3.3-5,8.9-5.9,14c-2.5,14.1-6.2,27.9-11.2,41.2l15.9,2c3,0.4,6.1,0.8,9.1-0.1c2.1-0.8,4.1-1.9,6-3.2c7.1-4.4,15-7.2,23.2-8.4
		c4.2-0.6,8.5-0.7,12.4,0.9c3.9,1.5,7.2,5,7.6,9.2c3.4-1.1,7.2-0.2,9.7,2.4c2.5,2.5,4.1,5.8,4.7,9.3c0.4,2.2,0.8,4.8,2.9,5.7
		c1.6,0.7,3.5-0.1,5.3-0.2c6.1-0.5,11.2,6.6,17.2,5.4c6.4-1.3,8-10.9,14.3-12.9c3.6-1.1,8.7,0.2,10.4-3.1c1.5-3-1.5-6.4-1.2-9.7
		c0.4-4.1,5.2-5.8,8.9-7.5c12.8-6,18.8-23.2,12.6-35.9c-3.7-7.5-10.9-13.4-12.2-21.7c-1-6.3,1.5-13.8-2.6-18.8
		c-2.1-2.5-5.5-3.9-6.8-7c-0.8-1.9-0.5-4.1-0.9-6.1s-2.2-4.1-4.2-3.6c-5.8,1.5-7.6,19.4-10.7,23.7
		C1044.4,430,1034.7,425.6,1036.2,417.5z"/>
	<path class="st1" d="M929.3,381.6c-2-0.6-4.1-1.1-6-0.3c-1.9,0.8-3,3.6-1.5,5c11.9-0.5,23.9-0.9,35.6,0.7c13.6,1.9,27,6.5,40.7,5.1
		c-7.8-2.3-15.7-4.1-23.7-5.5L961,384c-3.6-0.8-7.2-1.3-10.8-1.7C942.6,381.7,936.8,383.7,929.3,381.6z"/>
	<path class="st1" d="M941.2,340.2c-1-0.1-2.2-0.2-2.7,0.7c-0.5,0.8,0.1,1.9-0.2,2.8c-0.4,1.2-2,1.6-3.3,1.4s-2.7-0.6-3.8,0
		c-1.2,0.8-1.7,2.3-1.2,3.7c0.5,1.3,1.2,2.5,2.2,3.5c1.7,2.1,3.6,4,5.7,5.7c4.1,3,9.6,4.5,12.2,8.8c0.4,0.8,0.9,1.6,1.6,2.2
		c1.2,0.8,2.8,0.2,4.2-0.4l4.7-2.1c0.8-0.3,1.6-0.8,2.2-1.5c1.1-1.4,0.4-3.5-0.5-5.1s-2-3.2-1.8-5c0.3-3.2,4.4-4.4,6.1-7.1
		c1.7-2.7,0.6-6.3,0.8-9.5c0.2-3.8,2.6-8.7-1.2-11.5c-3.2-2.4-6.3-0.2-8.7,2.5C952.6,334.9,950.3,341,941.2,340.2z"/>
	<path class="st1" d="M969.6,283.9c1.6,3,4.9,4.9,6.6,7.8c1.9,3.2,1.7,7.4,3.7,10.5c2.1,3.2,6.3,4.9,7.5,8.5c1.3,4-1.6,8.8,0.7,12.3
		c1.7,2.3,5,2.7,7.2,1c0.1-0.1,0.2-0.2,0.3-0.3c2-2.2,1.9-5.6-0.2-7.7c-1.4-1.3-3.3-1.8-4.5-3.3c-0.6-0.8-1-1.8-1.2-2.8
		c-0.6-2.9-0.5-6,0.3-8.9c0.3-0.7,0.4-1.5,0.2-2.3c-0.5-1.5-2.5-1.6-4-2.3c-3.2-1.6-3.2-6.2-2.6-9.7c-0.4,2.4-8.8-1.7-9.7-3
		c-1.8-2.7-0.8-7.8-1.1-10.8C969.1,274.8,967.6,280.2,969.6,283.9z"/>
	<path class="st1" d="M884.5,330.8c-1.6-1.7-3.9-3.6-6-2.5c-1.6,0.8-2,3-1.4,4.7c0.8,1.6,1.9,3,3.4,4.1c4.4,3.6,9,6.8,12.8,11
		c6.8,7.5,10.4,17.5,17.8,24.4c1.5,1.6,3.5,2.7,5.6,3c2.2,0.2,4.6-1.2,4.8-3.3c0.2-1.8-1-3.4-2.2-4.7c-2.9-3.1-6-6-8.7-9.3
		c-1.3-1.3-2-2.9-2.2-4.7c0-1.8,1.6-3.6,3.3-3.2c-2.1-0.5-3.6-4-6.6-4.6c-2.5-0.5-3.2,1-6.2-0.3
		C893.1,343.1,888.6,335.4,884.5,330.8z"/>
	<path class="st1" d="M1019.9,161.1c-1.7-0.5-3.3-1.1-4.9-1.7c-4.3-1.3-9.9,1.9-9.4,6.3c0.4,2.9,3.1,4.9,4.6,7.5
		c2.2,3.8,1.6,8.6,0.5,12.8c-0.3,1.3-0.8,2.6-1.6,3.7c-1.1,1.2-2.4,2.1-3.8,2.8c-5.8,3.2-10.9,7.6-15,12.7c-0.4,0.5-0.8,1.1-0.9,1.7
		c-0.2,1.5,1.3,2.6,2.1,3.8c1.9,2.8,0.5,6.5,0.7,9.8c-0.1,1,0.4,1.9,1.2,2.4c1.1,0.6,2.5-0.4,3.1-1.5c2-3.7,0.5-9.7,4.3-11.5
		c0.7-0.3,1.6-0.5,2.1-1.1c0.8-1,0-2.5,0.4-3.7c0.6-1.8,3.1-1.9,5-1.8c3.3,0.1,6.6-0.3,9.7-1.3c1.2-0.3,2.3-0.9,3.2-1.9
		c1.1-1.4,1-3.5,0.8-5.3c-1.1-9.1-4-17.9-8.5-25.9c3.4,0.4,7,0.8,10-1c1.6-1,3.6-3.9,2.8-5.9
		C1025.1,158.9,1022.8,161.6,1019.9,161.1z"/>
	<path class="st1" d="M587.4,211c0.4,2.2,0.8,4.4,0.1,6.5s-2.9,3.8-5.1,3.2c-1.6-0.5-2.6-2.1-3.7-3.4c-6.5-7-21-2.9-25-11.6
		c-1.6-3.5-0.5-7.7-1.6-11.5c-1.4-4.4-5.7-7.3-10.3-7c-2.1,0.3-4.1,0.9-5.9,1.8c-12.6,5.1-25.9,8.4-39.4,9.8
		c-2.6,0.2-5.1,0.6-7.6,1.4c-5.5,2-9.3,7.2-12,12.4s-4.7,10.9-8.3,15.6c-3.8,4.9-9.1,8.3-14.1,12c-1.9,1.2-3.5,2.9-4.7,4.9
		c-1.1,2.2-1,4.8-0.9,7.2l1,29.9c0.1,3.8,0.3,7.8,2,11.3c2.1,4.3,6.4,7.1,9.3,10.9c3,3.9,4.6,8.7,4.4,13.6c-0.1,2-0.3,4.3,1.3,5.6
		c0.9,0.6,2,0.9,3.1,0.9l40.4,3.3c7.1,0.6,15,1.5,19.6,7c2.2,2.6,3.9,6.2,7.3,6.5c1.4,0.1,2.8-0.5,4.3-0.6c3.6-0.3,6.8,2.5,8.8,5.5
		c3,4.6,4.4,10.1,3.9,15.7c-0.3,3.5-1.4,6.8-1.6,10.3c-0.9,13.2,10.3,24.7,10.5,37.9c0.1,7.8-3.6,15.1-7.2,21.9
		c5.8,8.8,1.1,20.5,3.4,30.8c2.2,9.8,10.3,17.4,12.4,27.2c0.9,4.5,1,10,4.9,12.3c1.7,0.8,3.7,1.2,5.6,1.1
		c11.6,0.1,23.1-2.5,33.6-7.6c4.9-2.4,10-6.1,10.8-11.4c0.7-4.4-1.5-9.2,0.7-13c2.6-4.5,9.4-4.1,13.3-7.5c6.3-5.6,1.4-16.2,4-24.2
		c2.3-7.2,10.2-11,14.1-17.5c1.5-2.8,2.7-5.8,3.3-8.9c1.8-7.5,2.9-15.1,3.3-22.7c0.1-4.7,0.4-9.3,1-13.9
		c4.2-26.3,30.2-43.9,38.7-69.2c0.8-2.4,1.2-5.6-1-7c-1.3-0.6-2.7-0.8-4.1-0.4l-18.6,2.3c-2.3,0.3-4.8,0.6-6.9-0.4
		c-2.1-1-3.6-3.6-2.5-5.7c3.2-5.7-3.3-13-6.2-18.8c-7.8-15.8-17.1-30.8-27.7-44.9c-0.7-0.7-1.1-1.6-1.2-2.6l5.3,0.2
		c-1.8-6.4-4.7-13.4-10.9-15.7c-3.5-1.3-7.4-0.9-11.1-0.7C609.5,214.3,598,212.6,587.4,211z"/>
	<path class="st1" d="M620.2,66.8c2.8,3,5.9,6.1,10,6.6c7.2,0.9,12.3-6.5,15.6-12.9c0.3,3.4,3.2,6,6.6,5.8c1.8-0.3,3.5-1,5-1.9
		c14.2-7.8,30.1-11.9,46.2-12c-0.3-2.5,1.3-4.9,3.8-5.5c3.3-0.7,6.2,2.2,7.8,5.1s2.6,6.4,5.1,8.6s7.4,2.1,8.4-1.1
		c1-3.1-2.2-5.7-4.9-7.5s-5.5-5.2-3.7-7.8c13.6-3,27.3-6,41.2-6.6c2.4,0.1,4.7-0.3,6.9-1.2c2.1-1,3.8-3.4,3.2-5.7
		c-6.2,1.5-12.7-1-16.4-6.2c19.3-1.6,39.8-2.9,56.9,6.1c2.1,4.4-8.4,8.1-5.6,12c0.9,1.3,2.7,1.4,4.2,1.4c11.9,0.2,23.8,0.4,35.6-1.4
		c4.3-0.7,8.6-1.6,12.9-1c7.2,0.9,13.3,5.7,20.4,7.2c2.9,0.6,6.1,0.7,8.5-1s3.5-5.5,1.5-7.7c6.6-6.5,17.7-4.9,26.5-1.8
		c8.8,3.1,17.1,8.2,26.4,8.8c6.7,0.5,13.4-1.3,20-0.2c4.1,0.7,8,2.6,12,3.7c7.6,2.1,15.7,1.7,23.7,1.8c20.2,0.3,40.3,4.3,59.1,11.7
		c2.4,0.8,4.7,2.1,6.6,3.9c1.8,1.9,2.6,4.8,1.5,7.1l-19.4-2.8c1.8,3.6,6.6,4.2,10.4,5.5c3.8,1.2,7.8,5.5,5.5,8.8
		c-4.2-1.3-7.9,2.8-10.1,6.7s-4.7,8.4-9,8.7c-3.9,0.2-8.6-3.1-11.2-0.1c3.5,4.4,6.5,9.3,9,14.4c2.5,5.2,4.3,11.9,0.9,16.6
		c-0.5,0.8-1.3,1.5-2.3,1.8c-2.8,0.7-4.6-2.7-6.6-4.8c-2.5-2.6-6.3-3.3-9.7-4.6s-7-3.6-7.3-7.2c-0.2-2.2,1-4.3,1.9-6.4
		c1.5-3.5,2.1-7.3,1.9-11.1c-0.2-3-1-6.2-3.2-8.3c-2.2-2.1-6-2.8-8.3-0.9c-1.1,0.9-2,2.4-3.4,2.4c-2.5,0.1-4.4-4.3-6.5-2.8
		c0.2,1.6-0.1,3.2-0.9,4.6c-6,5.2-15.3,3-23.1,4.9c-3.7,1.1-7.2,2.6-10.5,4.6c-1.2,0.5-2.3,1.4-3,2.5c-1,1.9,0.1,4.3,1.8,5.6
		c1.8,1.1,3.9,1.8,6,2c9.5,1.8,19.1,4.6,26.6,10.7s12.4,16.1,10,25.5L986,133.5c0.7,7.5,1.1,15,1.2,22.6c0.1,1.5-0.1,3-0.6,4.3
		c-1.3,2.9-4.9,3.9-8.1,4.6c-3.4,0.7-5.7,4-5.1,7.4c0,0.2,0.1,0.5,0.2,0.7c1.1,3.7,3.9,6.5,6.5,9.4c2.6,2.8,5.1,6.1,5.4,9.9
		c0.3,3.8-2.5,8.1-6.4,7.9c-2.9-0.2-5-2.8-6.3-5.4c-1.2-2.6-2-5.6-3.8-7.8c-5.6-6.8-18.3-3.9-23.3-11.1c-2.6,3-3.5,7.1-2.4,10.8
		c2.3-1.5,5.6-0.1,7.3,2c1.8,2.1,2.6,4.9,4,7.3c1.9,3.2,4.8,6.1,5.1,9.8c-0.1,1.4,0,2.8,0.1,4.2c0.5,2.3,2.4,3.9,3.7,5.8
		c3.1,4.4,2.9,10.4,0.9,15.4s-5.5,9.1-9.1,13.2c-6.2,7-12.4,14-19.7,19.9c-2.1,1.7-4.3,3.3-5.6,5.6c-1.3,2.3-1.4,5.6,0.6,7.4
		c-1.4,0.1-4,0.8-5.4,0.8c-0.5-5.7-0.6-11.5-0.3-17.2c-5.6-2.7-11.7,4.5-11,10.7s5.2,11.2,8.4,16.6c2.3,3.9,4.1,8.5,3.3,13
		s-4.8,8.7-9.3,8.3c-7.2-0.6-10.3-11-17.4-12.2c-0.6-0.1-1.3-0.1-1.9,0.2c-1.1,0.6-1.2,2-1.3,3.2c-0.3,5.9-0.5,12.1,1.8,17.6
		c3.4,8,12.2,14.8,10.3,23.3c-9.9-4.6-15.1-15.7-17.4-26.4s-2.7-21.9-6.9-32c-3.2,4.1-9.9,0.7-12.8-3.6c-2.8-4.1-4.5-8.8-7.1-12.9
		c-2.7-4.1-6.8-7.8-11.7-8c-5.1-0.2-9.6,3.3-13.5,6.6c-3.2,2.7-6.5,5.6-8.4,9.4c-2.7,5.5-2,12-2.2,18.2c-0.1,6.7-1.6,13.7-6.1,18.6
		s-12.9,6.6-17.9,2.2c-2.6-2.3-3.9-5.7-5-9c-5.4-15.9-10-32-13.6-48.4c-0.8,3.7-4.1,8.6-7.3,6.4c-0.7-0.6-1.3-1.3-1.7-2.2
		c-5.8-9.9-16.7-15.9-27.6-19.4s-22.5-5.2-33.3-9.1c-6.1-2.2-11.9-5.1-17.3-8.6c-2.8,4.1-3.1,9.5-0.8,13.9c2.4,4.3,7.8,6.7,12.5,5.2
		c2.4-0.8,4.4-2.4,6.8-3.3c2.4-0.8,5.6-0.4,6.6,1.9c1,2.2-0.5,4.9,0.2,7.2c1.1,3.5,6.4,3.8,8.3,6.9c1.4,2.4,0.2,5.5-1.7,7.4
		s-4.6,3-7,4.3c-7.8,4.3-13.3,11.7-20.1,17.4c-6.8,5.7-16.3,9.9-24.4,6.2c1.9-9.8-9.7-16.9-11.8-26.6c-0.7-3.2-0.3-6.6-1.3-9.7
		c-1.5-4.5-5.5-7.6-8.7-11c-8-8.5-12.3-19.8-11.9-31.5c0.2-4,0.9-8.1,0-12s-4.2-7.7-8.2-7.5c-9.2,0.4-20.7,1.1-25.5-6.7
		c-1.7-2.8-2.5-6.9,0-9c1.8-1.5,4.3-1.4,6.6-1.1l20.7,2c4.8,0.5,10.1,0.9,14.2-1.7c4.1-2.5,5.9-9.2,2.1-12.2
		c-2.8-2.2-7.8-2.1-8.6-5.5c-0.7-2.9,2.5-6.1,0.8-8.5c-1.2-1.7-4-1.2-5.7,0c-1.7,1.3-2.9,3.2-4.8,4.2c-3.3,1.7-7.2,0.1-10.8-1
		c-3.5-1.1-8.3-1.2-10,2.1c-1.9,3.7,1.7,8.5-0.2,12.2c-2.5,4.9-11.1,2.1-14.6,6.3c-4.1,4.8,2.8,12,1.4,18.1
		c-3.6,1.8-7.8,1.5-11.1-0.6c-3.3-2.2-5.1-6.1-4.7-10.1c0.3-2.8,1.8-5.6,0.8-8.2c-0.8-2.1-2.9-3.4-4.9-4.5L562,157
		c-1.9,3.5,0.5,7.7,3.4,10.3s6.6,4.6,8.6,8c2.5,4.9,0.8,11-3.9,13.8c-0.6,0.4-1.3,0.5-2,0.3c-0.6-0.4-1.1-1-1.3-1.7
		c-3.5-9.1-8.9-18-17.4-22.7s-20.7-3.8-26.3,4.2c-1.3,1.9-2.2,4.1-3.4,6.1c-6.1,10.6-19.3,15.7-31.5,15.3c-1.2,0.1-2.4-0.2-3.4-0.8
		c-2-1.4-1.9-4.3-1.6-6.7l1.3-10.1c0.3-2,0.6-4.3,2.2-5.6c2.3-1.8,5.6-0.7,8.4-0.7c4.5-0.2,8.4-3.2,9.7-7.5c1.2-4.3-0.1-8.9-3.4-12
		c-1.3-1.2-3.1-2.8-2.4-4.5c0.6-0.9,1.5-1.6,2.6-1.8c5.2-1.5,10.7-1.9,15.8-3.7s10.1-5.4,11.3-10.7c0.4-1.6,0.5-3.6,2-4.4
		c0.7-0.3,1.5-0.5,2.3-0.5c5.7-0.8,9.9-5.9,9.6-11.7c2.5-1.7,5.9-0.5,8.3,1.4c2.4,1.8,4.5,4.2,7.3,5c5.4,1.5,10.6-3.3,16.1-3.3
		c2.3,0,4.8,0.8,7,0s3.6-3,5.3-4.7c1.7-1.6,4.7-2.6,6.3-0.9l-1.3-10c5.5,1.4,11.3,0.3,16-2.9l-17.4-5.9c-0.6-0.2-1.2-0.5-1.6-0.9
		c-1.3-1.4,0-3.5,1-5c2.5-3.7,2.9-9.8-1.2-11.7c-2.8-1.3-5.9,0.3-8.6,1.7L567.2,80c-0.4,2.4,2.6,3.8,4.4,5.4c3,2.7,3.3,7.3,0.6,10.4
		c-1.4,1.5-3.3,2.4-5.4,2.5c1.7,2.2,2.3,5.1,1.6,7.8l-8.6,0.6c-1,0.2-2,0-2.8-0.5c-0.9-0.8-0.8-2.2-1-3.4c-0.5-2.9-3.4-5-6.3-5.5
		c-2.9-0.5-5.9,0.1-8.8,0.8c-1.2,0.4-2.6,0.4-3.8-0.1c-0.7-0.4-1.2-1.1-1.5-1.9c-1.3-3.1-0.1-6.7,1.9-9.3c2-2.6,4.8-4.5,7.3-6.7
		c6-5.2,10.3-12,12.6-19.6c4.7-2,9.6-4.7,14.3-6.6c7.3-3.7,15.4-5.3,23.5-4.6l16,0.3c4.7,0.1,9.6,0.2,13.9,2
		c4.4,1.8,8.2,5.7,8.5,10.4c0.2,1.1-0.2,2.2-1,2.9c-0.6,0.3-1.3,0.5-2,0.5C626.5,65.5,624.6,66.6,620.2,66.8z"/>
	<path class="st1" d="M493,116.8c1.3-1.2,1.8-3,1.3-4.7c-3.1-1.2-6.6-0.5-9,1.7c-0.9,1-1.8,2-2.4,3.2c-2.1,3.4-4,7.5-2.7,11.3
		c0.2,0.8,0.7,1.6,1.5,2c0.5,0.2,1.1,0.3,1.7,0.3c2.3,0,4.6-0.1,6.9-0.4c1.4-0.2,3-0.6,3.6-1.9c0.7-1.7-1-3.7-0.5-5.5
		c0.3-0.8,0.8-1.5,1.5-2.1c0.6-0.6,1-1.5,0.9-2.3c-0.2-0.8-1.5-1.3-2-0.6"/>
	<path class="st1" d="M505,101.2c-2.1-0.5-4.2-0.6-6.3-0.4c-0.5,0-0.9,0.1-1.3,0.3c-0.4,0.3-0.7,0.7-0.8,1.2
		c-0.9,2.9,0.6,6.1,3.4,7.3c0.8,0.2,1.5,0.5,2.1,0.9c1.8,1.4,0.6,4.2,1,6.4c0.4,2.5,2.8,4.6,2.3,7.1c-0.3,2-2.4,3.5-2.1,5.5
		c0.4,2,2.9,2.7,5,2.8c1.2,0.2,2.4,0.1,3.6-0.4c1.1-0.8,1.9-1.9,2.2-3.2c0.8-2.5,1.2-5.2,1-7.8c0-1.2-0.3-2.4-0.9-3.5
		c-0.6-0.8-1.3-1.6-2.1-2.4C508.3,110.3,512.5,103.4,505,101.2z"/>
</g>
<path class="st2" d="M1026.7,462.8c0,0-303.9-174.4-434.7-141.4c0,0-277.3,29.8-309.4,95.5c0,0-88.1-275.4-120.3-284.6"/>
<path class="st2" d="M282.6,416.9c51-135.9,510-286.4,510-286.4C727.4,147,592,321.4,592,321.4S305.6,113,162.4,132.3
	c0,0,630.7,20.7,864.4,330.5"/>
<circle class="st3" cx="162.4" cy="132.3" r="13.3"/>
<circle class="st3" cx="282.6" cy="416.9" r="13.3"/>
<circle class="st3" cx="792.6" cy="130.4" r="13.3"/>
<ellipse transform="matrix(0.1602 -0.9871 0.9871 0.1602 405.417 1402.1105)" class="st3" cx="1026.7" cy="462.8" rx="13.3" ry="13.3"/>
<circle class="st3" cx="592" cy="321.4" r="13.3"/>
<g>
	<path class="st4" d="M489.6,290.4c2.9-6,5.8-11.9,9.6-17.2c7.6-10.8,18.1-17,31.2-17.8c10.5-0.7,17.3,6.2,18.3,16.8
		c0.7,8.1-0.9,15.9-1.7,23.8c-1.1,10.6-2.6,21.3-3.1,32c-0.1,1.1-0.3,2.2-0.3,3.3c-0.5,5.4,2.6,8.7,8.1,8.3
		c5.2-0.3,9.7-2.6,13.5-6.1c0.9-0.8,1-1.7,0.7-2.8c-3.6-17.5-3-35.3-2.7-53.1c0.1-8.3,0-16.6,0.4-24.9c0.3-7,0.2-13.9,0.5-20.9
		c0.1-1.9-0.5-2.4-2.2-2.4c-1.9,0-3.8-0.3-5.7-0.5c-5.6-0.4-8.7-4.2-8-9.7c0.2-1.4,0.6-2.7,1.2-3.9c1.6-3.2,2-3.4,5.6-3
		c2.1,0.2,4.3,0.2,6.5,0.4c3.8,0.4,4.2,0.2,4.4-3.6c0.3-3.9,1-7.8,1.4-11.7c0.5-4.7,2.8-7.3,7.5-8.3c4.8-1,9.5-2.4,14.4-2.2
		c8.4,0.3,13.5,5.3,13.8,13.8c0.1,3.4-0.3,6.7-1.1,10c-0.4,1.6,0.1,2.2,1.8,2c11.9-0.9,23.7-2.4,35.2-5.6c15-4.2,29-10.4,41.5-19.9
		c4-3.1,7.5-6.7,10.7-10.6c2.5-3.1,3.7-3.1,6.1,0c8.5,11.3,7.3,29.7-2.5,40.4c-7.5,8.2-17,11.9-27.6,13.6c-18.6,3-37.3,2.9-56,2.1
		c-4.2-0.2-8.5-0.3-12.7-0.6c-1.9-0.1-2.7,0.6-3.1,2.4c-2,9-3.3,18.1-4.2,27.2c-1.2,12.4-1.8,24.9-1.5,37.4
		c0.2,9.1,0.8,18.2,2.6,27.2c1.6,8.2,5.4,10.3,14.1,9.2c4.6-0.6,8.6-2.9,12.2-5.8c1.2-0.9,0.9-1.8,0.6-3
		c-3.8-13.4-3.4-26.9,1.6-39.8c6.3-16.4,17.8-27.4,35.1-32c1.7-0.5,3.5-0.5,5.2-0.3c2.5,0.2,3.7,1.8,3.2,4.3
		c-0.3,1.8-1.2,3.3-2.2,4.8c-8,12.1-12,25.3-12.1,39.8c0,7.6,0.5,15,3,22.2c0.5,1.4,1.1,2.7,1.7,4c5.7,12.1,16,10.1,23,4
		c5-4.4,7.4-10.4,9-16.7c3-12.2,3.2-24.5,0.2-36.8c-0.8-3.2-2.1-6.2-4.2-8.8c-3.3-4.1-7.9-3.7-10.3,0.9c-3.4,6.8-2.8,19.7,6.2,24.8
		c5.4,3.1,4.9,8.1,0.4,12.1c-6.1,5.4-12.7,4-16.3-3.3c-3-6-3.6-12.4-3-19c0.6-6.9,2.3-13.5,5.6-19.7c3.4-6.3,8.1-8.7,15.1-7.4
		c9.9,1.8,16.8,7.9,22,16.1c6.1,9.7,7.3,20.3,5.3,31.4c-3,16.1-10.4,29.5-23.8,39.1c-17.3,12.5-43.7,9.9-57.2-6.1
		c-1.7-2.1-2.7-1.5-4.3-0.1c-5.9,5.1-12.4,9.3-19.8,11.9c-5.5,1.9-11.1,2.5-16.8,1.7c-6.7-1-11.7-4.5-15-10.4
		c-1-1.9-1.8-2.1-3.6-0.7c-9.5,7.6-20.7,11.2-32.7,11.7c-12.8,0.5-19.2-4.5-20.9-20.4c-1.1-10.1,0.8-19.9,1.7-29.8
		c0.5-5.3,0.9-10.7,0.1-16c-0.2-1.4-0.6-2.8-1.1-4.2c-1.4-3.9-4-4.8-7.5-2.3c-3.6,2.6-6,6.2-7.8,10.1c-5,10.6-6.8,21.9-8,33.4
		c-0.8,7.2,0.9,14,2.4,20.8c0.6,2.8,0.2,4.1-2.3,5.6c-5.8,3.7-16.4,3.5-21.9-0.7c-1-0.8-1.8-0.9-3-0.4c-11.1,5.3-22.1,4.7-33.1-0.5
		c-4.1-1.9-7.1-5.1-9.8-8.7c-0.8-1-1.4-2.1-2.3-3.4c-2.4,3.4-4.8,6.6-8,9.1c-9.7,7.7-20.5,10.1-32.4,6.4
		c-11.7-3.7-17.5-14.4-14.8-26.5c2.3-10.5,9.3-17.3,18.4-22c8.8-4.6,18.2-6.9,27.8-8.6c2.3-0.4,3.5-1,3.5-3.7
		c0.2-6.8,0.9-13.5,0.3-20.3c-0.4-5.2-2.7-8-7.8-8.9c-4.1-0.7-8.1-0.3-11.8,1.9c-1.4,0.8-2.6,1.9-3.3,3.4c-1.5,3.2-0.5,5.5,2.8,6.5
		c0.1,0,0.2,0,0.2,0.1c5.3,1.6,5.9,2.4,5.5,7.8c-0.5,6.4-5.4,12.4-11.6,14.2c-6.2,1.8-14.1-0.6-17.6-5.4c-3.1-4.2-3.2-9-1.7-13.7
		c2.8-8.5,8-15.2,16.2-18.9c14.3-6.5,29.2-8.2,44.5-4.1c5.2,1.4,9.8,4,13,8.5c3,4.1,3.4,8.9,3.6,13.7c0.5,9.9-0.9,19.8-0.9,29.7
		c0,6.1-0.3,12.2,1,18.2c1.2,5.3,3,10.3,7.7,13.7c1.5,1.1,3.1,1.7,4.9,1.6c3.4-0.2,4.5-1.4,4.1-4.8c-2-18.5-2.3-37-1.8-55.6
		c0.2-9.4,1-18.8,3.2-28.1c1.6-6.8,2.3-7.5,9.3-8.6c3.3-0.5,6.6-1,10-0.5c5.6,0.8,8.8,4.1,9.6,9.7c0.7,5.2-0.2,10.2-1.5,15.2
		c-1.7,7-3.3,14-4.2,21.2C489.6,289.7,489.6,290.1,489.6,290.4z M415.5,310.9c0-1.6-0.1-3.2,0-4.8c0.1-1.6-0.5-2-2-1.3
		c-4.2,1.8-8.2,3.9-11.9,6.7c-7.6,5.9-10.4,13.7-8.5,23.1c1.3,6.7,6.5,8.7,12.1,4.8c3.1-2.2,5.3-5.1,6.8-8.5
		C414.8,324.4,415.5,317.7,415.5,310.9z"/>
	<path class="st4" d="M337.4,329.9c1.5-5.1,3.1-10.2,4.6-15.3c7.6-25,13.8-50.5,22.2-75.3c5.2-15.3,11-30.2,19.4-44
		c2.6-4.3,5.4-8.5,9.1-12c1.6-1.5,3.4-2.7,5.4-3.5c3.3-1.2,5.8,0.5,6,4c0.2,3-0.5,5.8-2.1,8.2c-10.4,15.1-16.1,32.1-21.5,49.3
		c-7.4,23.9-14.4,48-21.6,71.9c-3.6,11.9-7.4,23.8-10.8,35.8c-1.1,3.8-3.1,5.5-7,5.8c-5.6,0.5-11.1,1.3-16.6-0.6
		c-10-3.4-16.6-10.5-21.4-19.6c-5.8-10.9-8.5-22.7-10.4-34.8c-2-13.5-2.8-27.2-3-40.9c0-1.9,0.2-3.8,0.3-6.2
		c-1.9,3.4-2.8,6.8-3.6,10.1c-4.2,16.8-8.2,33.6-12.4,50.3c-3.1,12.4-6.4,24.8-10.5,36.9c-1,2.9-2.8,4.2-5.6,4.8
		c-14,3-27-2.3-35.6-14.7c-7.1-10.2-10.4-21.9-12.7-33.9c-2.5-13.1-3.3-26.4-4-39.8c-0.8-16-2.3-31.9-7.7-47.2
		c-2.8-8-6.9-15.2-14.3-19.8c-5-3.1-10.5-4-16.3-3.7c-6.2,0.3-12.2,1.7-17.7,4.7c-8.8,4.7-14.9,12-18.6,21.2
		c-5.8,14.3-6.2,28.7-0.1,43c5.1,11.8,13.9,18.9,27,19.4c6.7,0.2,13.4-0.9,19-5.4c6.7-5.4,5.6-17.7-1.7-21.7
		c-2.1-1.1-4.4-1.6-6.5-0.5c-6.8,3.5-12.8-0.5-15.6-4.8c-3.4-5.4-2.7-12.1,2.1-16.9c5.8-5.8,12.9-6.4,20.3-3.7
		c12.6,4.6,17.9,12.8,19.2,26.1c0.6,6.8-0.1,13.4-3,19.7c-4.7,10.3-12.9,16.2-23.7,18.8c-15.7,3.8-29.3,0.5-40.3-11.9
		c-5.5-6.2-9-13.6-11.1-21.6c-4.2-16.2-3.4-32.1,3.7-47.3c8.6-18.3,23.2-28.4,43.3-30.5c12.5-1.3,24.8,0.1,36.5,4.6
		c16.4,6.3,27.7,18,35,33.8c5.5,11.9,8.1,24.6,9,37.6c1.3,17.7,2.3,35.4,5.3,52.9c0.8,4.8,1.7,9.6,3.3,14.2c0.3,0.8,0.4,1.7,1.5,2.4
		c1.1-4.3,2.1-8.6,3.1-12.8c5.6-24,11.2-48,16.8-72c3.6-15.2,7.1-30.4,12.1-45.2c1.6-4.9,3.7-9.5,5.8-14.2c0.7-1.5,1.8-2,3.2-2.1
		c10.5-0.3,20.1,1.8,27.4,10c3.8,4.3,5.3,9.6,5.9,15.2c1,9.8,0.5,19.6,0.2,29.5c-0.3,9.4-0.4,18.9,0.2,28.3
		c0.7,10.9,1.7,21.8,3,32.7C333.3,309.8,335.1,319.8,337.4,329.9z"/>
	<path class="st4" d="M800.5,294.2c3.4-6.5,6.5-13.2,10.4-19.4c4.3-6.8,8.9-13.4,15.5-18.2c5.1-3.7,10.8-5.7,17.1-4.8
		c6.9,1,11.1,5.3,13,11.9c2.1,7.1,1.2,14.2-1,21c-2.8,8.5-7.3,16-14.9,21.2c-4.8,3.3-10,5.8-16.1,4.7c-6-1.1-9.2-6-7.3-11.9
		c1.4-4.6,4.4-7.9,8.4-10.4c2.3-1.5,2.5-2.5,1-4.9c-1.4-2.2-3.2-2.7-5.3-1.4c-1.8,1.2-3.3,2.8-4.6,4.5
		c-8.1,10.8-12.5,23.1-14.9,36.3c-1.5,8.2-1.3,16.4,1.3,24.4c0.6,1.9,0,3.2-1.6,4.3c-5.5,4-16.5,4-22.1,0.1c-1.8-1.3-2.4-3.1-3-5
		c-0.9-3.2-0.8-3.2-3.7-1.2c-7.8,5.3-16.1,8.9-25.9,9c-10.3,0-17-5-21.1-14.1c-2.8-6.2-3.9-12.8-4.6-19.5c-2-19.5-1-39-0.8-58.5
		c0.1-9.9-0.2-19.8,0.8-29.7c0.2-2.2-0.6-3.2-2.9-3.1c-2.1,0-4.3-0.2-6.4-0.6c-4.8-0.7-7.5-4.6-6.6-9.4c0.2-1.2,0.5-2.4,0.9-3.5
		c1.5-3.7,2.1-4,6.1-3.5c2.6,0.3,5.3,0.3,7.9,0.6c1.7,0.2,2.4-0.5,2.5-2.3c0.5-5.4,1-10.8,2.3-16.1c0.6-2.3,1.7-3.8,4.1-4.4
		c6.5-1.9,13.1-3.9,20-2.6c6.5,1.2,10.4,5.7,10.6,12.4c0.1,3.7,0.1,7.4-0.8,11c-0.4,1.5-0.1,2.2,1.7,2.1c15.8-1.3,31.3-3.5,46.2-9.2
		c14.1-5.4,27.6-12.1,38.1-23.4c1.5-1.6,2.9-3.2,4.3-4.8c1.4-1.5,2.7-1.5,4,0.1c3.6,4.1,5.5,9,6.3,14.3c2.6,18.3-8.6,33.1-25.4,38.4
		c-8.7,2.8-17.8,3.6-26.9,4.3c-10.1,0.8-20.3,0.7-30.5,0.5c-6.5-0.1-13.1-0.5-19.6-0.9c-4.1-0.2-4.2-0.3-5.1,3.8
		c-2.2,9.9-3.3,19.9-4.3,29.9c-0.9,8.8-1.2,17.7-1.1,26.6c0,11.4,0.3,22.8,2.7,34.1c1.8,8.4,6.1,10,13.8,9.1c3.5-0.4,6.7-2,9.8-3.8
		c1.4-0.9,1.8-2,1.7-3.6c-0.8-12.2-1.2-24.4-0.8-36.7c0.4-12.7,1.6-25.4,5.1-37.7c2.9-10.3,2.8-9.1,12-10.2c4.5-0.5,8.8,0,12.7,2.3
		c5.2,3,6.7,7.9,6.4,13.5c-0.2,3-1,6-2,8.9c-2.8,7.9-5.2,15.8-7.1,23.9C800.8,292.9,800.7,293.5,800.5,294.2z"/>
	<path class="st4" d="M942.5,275.8c2.1-2.5,4.2-5.1,6.4-7.6c5.2-5.9,11.2-10.6,19.2-11.9c14.6-2.4,25.7,4.9,29.7,19
		c2.3,8.1,2.3,16.3,1.8,24.5c-0.1,2.4,0.6,2.4,2.5,2c3.8-0.8,7.6-2,11.6-2c3.2,0,5.1,1.2,5.7,3.4c0.6,2.3-0.5,4.6-3.2,6.1
		c-2.1,1.3-4.5,1.5-6.9,2.1c-3,0.8-6,1.6-9.1,2.2c-1.9,0.4-2.9,1.4-3.5,3.4c-5.8,18.9-17.8,32.3-36.7,38.9c-3.9,1.4-8,2-12.3,1.3
		c-8.4-1.3-11.9-7.3-11.2-15.6c0.7-8.4,6-14.1,12.2-19c4.4-3.5,9.4-6.1,14.5-8.5c1.2-0.6,2.1-1.3,2.3-2.8c1.4-11,2.4-21.9,1-33
		c-0.2-1.3-0.6-2.7-1.1-3.9c-1.2-3.1-3.3-3.6-5.7-1.4c-4,3.5-7.4,7.5-10.4,11.9c-9.9,14.5-15.9,30.5-18,47.8
		c-1.7,14.3-1.7,28.7-0.4,43.1c0.8,8.8,2.1,17.5,3.9,26.1c0.5,2.4-0.3,4.1-2.4,5.5c-5.5,3.4-14.5,3.2-19.9-0.4
		c-1.4-0.9-1.9-2.3-2.3-3.8c-1.3-6-1.8-12-2.2-18.1c-1.1-18.8-1.9-37.5-1.5-56.3c0.3-12.6,1.1-25.2,2.2-37.8c1-11.7,2.1-23.4,4-35
		c0.1-0.6,0.2-1.1,0.3-1.7c1.7-8,1-8.1,10-9.7c10.3-1.8,20,2.5,21.3,15.3c0.3,3.1-0.1,6.1-0.7,9.1c-0.4,2.2-1,4.5-1.5,6.7
		C942.3,275.7,942.4,275.7,942.5,275.8z M960.9,328.5c-4.2,2.2-8.4,4.4-11,8.6c-1,1.6-0.8,3.2,0.8,4.4s2.7,0.1,3.7-0.9
		C957.9,337.3,959.4,333,960.9,328.5z"/>
	<path class="st4" d="M883.1,252.4c8.7-0.6,12.9,4.8,13.4,13.5c0.2,3.9-0.3,7.8-1.2,11.7c-2.8,12.7-4.1,25.6-3.9,38.6
		c0.1,9.3,1.2,18.6,2,28c0.9,9.3,0.3,8-6.8,9.4c-10.5,2.1-17.3-1.9-20.9-12.1c-2.5-7-3.2-14.3-3.8-21.7c-0.9-12.4-1.2-24.7-1-37.1
		c0.1-6.6,0.6-13.2,1.8-19.8c0.7-3.8,2.5-6.3,6.5-7.4C873.8,254,878.3,252.2,883.1,252.4z"/>
	<path class="st4" d="M881.2,245.3c-4.8-0.1-10.4-2.1-14.9-6.9c-3-3.2-3.4-7-1.3-10.8c2.2-4,5.7-6.6,9.6-8.8
		c4.1-2.3,8.2-4.7,12.9-5.7c2.7-0.6,5.3-0.2,7.6,1.3c6.2,4,11.9,16.2,4,24.7C895.6,242.8,889.1,245.3,881.2,245.3z"/>
</g>
<g>
	<path class="st4" d="M407.6,424.2v-51.4h21.6c2.3,0,4.5,0.5,6.4,1.4c2,1,3.6,2.2,5,3.8c1.4,1.6,2.5,3.4,3.3,5.4s1.2,4,1.2,6.1
		c0,2.2-0.4,4.3-1.1,6.3s-1.8,3.8-3.1,5.4c-1.4,1.6-3,2.8-4.9,3.8c-1.9,0.9-4,1.4-6.3,1.4h-13.9v17.9L407.6,424.2L407.6,424.2z
		 M415.8,399.1h13.4c1.2,0,2.2-0.2,3.1-0.7s1.7-1.2,2.4-2c0.7-0.9,1.2-1.9,1.6-3c0.4-1.2,0.6-2.4,0.6-3.8s-0.2-2.8-0.7-3.9
		c-0.4-1.2-1-2.2-1.8-3s-1.7-1.5-2.6-2c-1-0.5-2-0.7-3.1-0.7h-13v19.1H415.8z"/>
	<path class="st4" d="M473,393.2c-3.1,0.1-5.8,0.8-8.2,2.1c-2.4,1.3-4.1,3.2-5.1,5.7v23.2h-8v-37.9h7.4v8.5c1.3-2.6,3-4.7,5.1-6.3
		c2.1-1.6,4.4-2.4,6.8-2.6c0.5,0,0.9,0,1.2,0c0.3,0,0.6,0,0.8,0.1L473,393.2L473,393.2z"/>
	<path class="st4" d="M494,424.9c-3,0-5.7-0.5-8.1-1.6s-4.4-2.5-6.1-4.3s-3-3.9-3.9-6.3s-1.4-4.9-1.4-7.5s0.5-5.1,1.4-7.5
		s2.2-4.5,3.9-6.3c1.7-1.8,3.8-3.2,6.2-4.3c2.4-1.1,5.1-1.6,8-1.6s5.6,0.5,8,1.6s4.4,2.5,6.2,4.3c1.7,1.8,3,3.9,3.9,6.3
		s1.4,4.9,1.4,7.5s-0.5,5.1-1.4,7.5c-0.9,2.4-2.2,4.5-3.9,6.3c-1.7,1.8-3.8,3.2-6.2,4.3C499.6,424.4,496.9,424.9,494,424.9z
		 M482.7,405.4c0,1.8,0.3,3.5,0.9,5.1c0.6,1.5,1.4,2.9,2.4,4s2.2,2,3.6,2.7s2.9,1,4.5,1s3.1-0.3,4.5-1s2.6-1.6,3.6-2.7
		c1-1.2,1.8-2.5,2.4-4.1c0.6-1.5,0.9-3.2,0.9-5.1c0-1.8-0.3-3.5-0.9-5c-0.6-1.6-1.4-2.9-2.4-4.1s-2.2-2.1-3.6-2.7
		c-1.4-0.7-2.9-1-4.5-1c-1.5,0-3,0.3-4.4,1s-2.6,1.6-3.6,2.8c-1,1.2-1.8,2.5-2.4,4.1C483,401.9,482.7,403.6,482.7,405.4z"/>
	<path class="st4" d="M574.7,417v7.2h-35.3v-51.4H574v7.2h-26.5v14.6h23v6.7h-23V417H574.7z"/>
	<path class="st4" d="M595.8,424.9c-2.6,0-4.9-0.5-7.1-1.6c-2.2-1-4.1-2.4-5.6-4.2c-1.6-1.8-2.8-3.9-3.7-6.3s-1.3-5-1.3-7.7
		s0.4-5.2,1.3-7.5c0.8-2.3,2-4.4,3.5-6.2c1.5-1.8,3.3-3.2,5.4-4.2c2.1-1,4.3-1.6,6.8-1.6c3,0,5.7,0.7,8,2.2s4.1,3.3,5.4,5.6v-22.2h8
		v43.4c0,0.9,0.2,1.6,0.5,2s0.9,0.6,1.7,0.7v6.8c-0.8,0.1-1.5,0.2-2,0.3c-0.5,0-0.9,0.1-1.3,0.1c-1.6,0-2.9-0.4-3.9-1.2
		c-1-0.8-1.6-1.9-1.7-3.2l-0.1-2.8c-1.4,2.4-3.3,4.2-5.7,5.6C601.4,424.2,598.7,424.9,595.8,424.9z M597.7,418.1
		c1.2,0,2.3-0.2,3.5-0.6s2.2-0.9,3.2-1.6s1.8-1.5,2.5-2.4s1.2-1.9,1.5-3v-9.9c-0.4-1.2-1.1-2.3-1.8-3.3c-0.8-1-1.7-1.9-2.7-2.6
		s-2.1-1.3-3.2-1.7c-1.1-0.4-2.3-0.6-3.4-0.6c-1.6,0-3.1,0.4-4.4,1.1c-1.3,0.7-2.5,1.7-3.4,2.9c-1,1.2-1.7,2.6-2.3,4.1
		s-0.8,3.1-0.8,4.8c0,1.7,0.3,3.4,0.9,4.9c0.6,1.5,1.4,2.9,2.5,4.1s2.3,2.1,3.7,2.8C594.6,417.8,596.1,418.1,597.7,418.1z"/>
	<path class="st4" d="M626.5,380.1v-8.8h8v8.8H626.5z M626.5,424.2v-37.9h8v37.9H626.5z"/>
	<path class="st4" d="M665.1,422.2c-1,0.5-2.4,1-4.2,1.6s-3.7,0.9-5.7,0.9c-1.3,0-2.4-0.2-3.5-0.5s-2.1-0.8-2.9-1.5
		c-0.8-0.7-1.5-1.6-2-2.6c-0.5-1.1-0.7-2.4-0.7-3.9v-23.7h-5v-6.2h5v-12.5h8v12.5h8.3v6.2h-8.3v21.1c0.1,1.4,0.5,2.3,1.3,2.9
		c0.7,0.6,1.7,0.9,2.8,0.9s2.2-0.2,3.2-0.6s1.8-0.7,2.2-0.9L665.1,422.2z"/>
	<path class="st4" d="M670.6,380.1v-8.8h8v8.8H670.6z M670.6,424.2v-37.9h8v37.9H670.6z"/>
	<path class="st4" d="M705.1,424.9c-3,0-5.7-0.5-8.1-1.6c-2.4-1.1-4.4-2.5-6.1-4.3c-1.7-1.8-3-3.9-3.9-6.3s-1.4-4.9-1.4-7.5
		s0.5-5.1,1.4-7.5s2.2-4.5,3.9-6.3s3.8-3.2,6.2-4.3c2.4-1.1,5.1-1.6,8-1.6s5.6,0.5,8,1.6s4.4,2.5,6.2,4.3c1.7,1.8,3,3.9,3.9,6.3
		s1.4,4.9,1.4,7.5s-0.5,5.1-1.4,7.5s-2.2,4.5-3.9,6.3s-3.8,3.2-6.2,4.3C710.7,424.4,708,424.9,705.1,424.9z M693.8,405.4
		c0,1.8,0.3,3.5,0.9,5.1c0.6,1.5,1.4,2.9,2.4,4s2.2,2,3.6,2.7c1.4,0.7,2.9,1,4.5,1s3.1-0.3,4.5-1s2.6-1.6,3.6-2.7
		c1-1.2,1.8-2.5,2.4-4.1c0.6-1.5,0.9-3.2,0.9-5.1c0-1.8-0.3-3.5-0.9-5c-0.6-1.6-1.4-2.9-2.4-4.1s-2.2-2.1-3.6-2.7
		c-1.4-0.7-2.9-1-4.5-1c-1.5,0-3,0.3-4.4,1s-2.6,1.6-3.6,2.8c-1,1.2-1.8,2.5-2.4,4.1C694.1,401.9,693.8,403.6,693.8,405.4z"/>
	<path class="st4" d="M765.6,424.2h-8V403c0-3.6-0.6-6.2-1.7-7.8c-1.1-1.6-2.8-2.4-5-2.4c-1.2,0-2.3,0.2-3.5,0.7
		c-1.2,0.4-2.2,1.1-3.3,1.8s-1.9,1.7-2.7,2.8c-0.8,1.1-1.4,2.3-1.8,3.6v22.5h-8v-37.9h7.2v7.6c1.4-2.6,3.5-4.6,6.3-6
		c2.8-1.5,5.8-2.2,9.1-2.2c2.3,0,4.1,0.4,5.6,1.2c1.4,0.8,2.6,1.9,3.4,3.4c0.8,1.4,1.4,3.1,1.8,4.9c0.3,1.9,0.5,3.8,0.5,5.9v23.1
		H765.6z"/>
</g>
</svg>
