<svg xmlns="http://www.w3.org/2000/svg" xmlns:xlink="http://www.w3.org/1999/xlink" viewBox="0 0 743.51 626.94"><defs><style>.cls-1{fill:#1da363;}.cls-2{fill:#037f52;}.cls-3{fill:#ddd1b4;}.cls-4{fill:#d8be93;}.cls-5{fill:#0addd7;}.cls-6{fill:url(#Dégradé_sans_nom_24);}.cls-7{fill:url(#Dégradé_sans_nom_24-2);}.cls-8{fill:url(#Dégradé_sans_nom_24-3);}.cls-9{fill:url(#Dégradé_sans_nom_24-4);}.cls-10{fill:#bc9f77;}.cls-11{fill:#09d1c7;}</style><linearGradient id="Dégradé_sans_nom_24" x1="536.32" y1="261.29" x2="551.49" y2="204.68" gradientUnits="userSpaceOnUse"><stop offset="0" stop-color="#a78853"/><stop offset="0.48" stop-color="#9c8156"/></linearGradient><linearGradient id="Dégradé_sans_nom_24-2" x1="417.24" y1="336.44" x2="432.41" y2="279.83" xlink:href="#Dégradé_sans_nom_24"/><linearGradient id="Dégradé_sans_nom_24-3" x1="301.24" y1="404" x2="316.41" y2="347.39" xlink:href="#Dégradé_sans_nom_24"/><linearGradient id="Dégradé_sans_nom_24-4" x1="178.72" y1="460.08" x2="194.95" y2="399.51" xlink:href="#Dégradé_sans_nom_24"/></defs><title>aqueductFichier 1</title><g id="Calque_2" data-name="Calque 2"><g id="Calque_2-2" data-name="Calque 2"><path class="cls-1" d="M14.19,472c-19-11.13-18.91-29.21.16-40.18L642,70.74c19.07-11,50.2-10.85,69.18.28l18,10.54c19,11.13,19.14,29.59.35,41L710.84,134c-18.79,11.45-18.32,29.37,1,39.82l16.62,9c19.35,10.45,19.51,27.84.34,38.64l-17.3,9.74c-19.17,10.8-21.8,27.51-5.85,37.13s13.39,26.47-5.68,37.43l-17.64,10.14c-19.08,11-21.63,27.36-5.68,36.43s13.42,25.51-5.63,36.53L275.3,617.76c-19,11-47.67,12.61-63.62,3.53s-42.05-9.07-58,0-44.59,7.5-63.64-3.51l-46.72-27c-19-11-19.11-29.11-.13-40.24l18-10.54c19-11.13,19-29.33,0-40.46Z" transform="translate(0 -0.25)"/><path class="cls-2" d="M326.31,487.79l53.84-31H327.68v-36h115l55.58-32H412.68v-36h148.1l13.9-8-72-128L38.29,486.15l22.88,13.41c19,11.13,19,29.33,0,40.46l-18,10.54a40.48,40.48,0,0,0-4.74,3.23H211.68l59.05-34H212.68v-32Z" transform="translate(0 -0.25)"/><path class="cls-3" d="M183.18,302.79v.5l-7-4,.86-.49,6.11,3.51Z" transform="translate(0 -0.25)"/><path class="cls-3" d="M589.18.29v.5L125,268.87l6.36,3.66-.8.46-6.42-3.7v-.5L589.11.25Z" transform="translate(0 -0.25)"/><path class="cls-4" d="M648.18,34.29v67.5c-16.35,1.54-32.32,21.85-29.22,48.3a30,30,0,0,1,.22,3.41V319l-58,33.5V197.21a29,29,0,0,0-1-7.57,28.12,28.12,0,0,0-14.55-18.07,24.92,24.92,0,0,0-13.45-2.78c-16.35,1.54-32.32,21.85-29.22,48.3a30,30,0,0,1,.22,3.41V385.85l-59,34.15V264.21a28.53,28.53,0,0,0-15.55-25.64,24.92,24.92,0,0,0-13.45-2.78c-16.35,1.54-32.32,21.85-29.22,48.3a30,30,0,0,1,.22,3.41v166l-58,33.5V332.21a29,29,0,0,0-1-7.57,28.12,28.12,0,0,0-14.55-18.07,24.92,24.92,0,0,0-13.45-2.78c-16.35,1.54-32.32,21.85-29.22,48.3a30,30,0,0,1,.22,3.41V520.29l-29,17-29,16.75V398.71a29,29,0,0,0-1-7.57,28,28,0,0,0-19.37-20,22.88,22.88,0,0,0-8.63-.89v-67.5L221,281l19.36-11.18,95.21-55L358.2,201.7h0l95.12-54.94,20.83-12,95.17-55,78.78-45.5Z" transform="translate(0 -0.25)"/><path class="cls-3" d="M648.11,34.25l-78.78,45.5-95.17,55-20.83,12L358.21,201.7h0l-22.66,13.09-95.21,55L221,281l-37.79,21.83v-.5l-6.11-3.51L589.18,59,635,32.33l4.83-2.81.4.22Z" transform="translate(0 -0.25)"/><path class="cls-5" d="M639.78,29.52,635,32.33,589.18,59,177.07,298.78l-.86.49,0,0v7l-45.58-26V273l.8-.46L589.18,6.2l4.72-2.75.28.16Z" transform="translate(0 -0.25)"/><path class="cls-3" d="M593.9,3.45,589.18,6.2,131.4,272.53,125,268.87,589.18.79h0Z" transform="translate(0 -0.25)"/><path class="cls-6" d="M561.18,197.21V352.28l-.72.42-57.28-33.08V220.5a30,30,0,0,0-.22-3.41c-3.1-26.45,12.87-46.76,29.22-48.3a24.92,24.92,0,0,1,13.45,2.78,28.12,28.12,0,0,1,14.55,18.07A29,29,0,0,1,561.18,197.21Z" transform="translate(0 -0.25)"/><path class="cls-7" d="M444.18,264.21V420l-.38.22-57.62-33.49V287.5a30,30,0,0,0-.22-3.41c-3.1-26.45,12.87-46.76,29.22-48.3a24.92,24.92,0,0,1,13.45,2.78A28.53,28.53,0,0,1,444.18,264.21Z" transform="translate(0 -0.25)"/><path class="cls-8" d="M328.18,487v.11l-.34.19L270.18,454V355.5a30,30,0,0,0-.22-3.41c-3.1-26.45,12.87-46.76,29.22-48.3a24.92,24.92,0,0,1,13.45,2.78,28.12,28.12,0,0,1,14.55,18.07,29,29,0,0,1,1,7.57Z" transform="translate(0 -0.25)"/><path class="cls-9" d="M212.18,398.71V554l-59-34V364.71a29.21,29.21,0,0,0-3.71-14.27l33.71,18.85v1a22.88,22.88,0,0,1,8.63.89,28,28,0,0,1,19.37,20A29,29,0,0,1,212.18,398.71Z" transform="translate(0 -0.25)"/><path class="cls-10" d="M183.18,303.29v66l-33.71-18.85h0l-25.29-14.14v-67l6.42,3.7v7.3l45.58,26v-7l0,0Z" transform="translate(0 -0.25)"/><path class="cls-11" d="M130.68,272.79v174a8.89,8.89,0,0,0,4.52,7.75l10,5.65a8.91,8.91,0,0,1,4.52,7.75v18.73a8.92,8.92,0,0,0,4.37,7.67l9.17,5.44a8.92,8.92,0,0,0,13.46-7.67V298.79Z" transform="translate(0 -0.25)"/><path class="cls-11" d="M143.58,467.16l-2.63-1.4a1.46,1.46,0,0,0-2.16,1.29v9.29a1.46,1.46,0,0,0,.78,1.29l2.63,1.4a1.46,1.46,0,0,0,2.16-1.29v-9.29A1.46,1.46,0,0,0,143.58,467.16Z" transform="translate(0 -0.25)"/><path class="cls-11" d="M135.79,476.06l-2.63-1.4A1.47,1.47,0,0,0,131,476v9.29a1.48,1.48,0,0,0,.78,1.3l2.63,1.4a1.47,1.47,0,0,0,2.16-1.3v-9.28A1.47,1.47,0,0,0,135.79,476.06Z" transform="translate(0 -0.25)"/><path class="cls-11" d="M164.77,505.34,162.18,504a1.45,1.45,0,0,0-2.13,1.28v9.14a1.45,1.45,0,0,0,.77,1.28l2.59,1.38a1.44,1.44,0,0,0,2.12-1.28v-9.14A1.44,1.44,0,0,0,164.77,505.34Z" transform="translate(0 -0.25)"/></g></g></svg>