<svg xmlns="http://www.w3.org/2000/svg" viewBox="0 0 135 240"><defs><style>.cls-1{fill:#bc8e28;}.cls-2{fill:#fff;}</style></defs><title>Banner YellowFichier 9</title><g id="Calque_2" data-name="Calque 2"><g id="_2.3.2" data-name="2.3.2"><polygon class="cls-1" points="135 0 0 0 0 174.78 0 174.78 0 174.78 0 175 0.22 175 67.5 240 134.78 175 135 175 135 0"/><polygon class="cls-2" points="68.72 54.24 68.72 54.45 76.03 47.14 78.17 45 59.49 45 61.03 46.54 68.72 54.24"/><polygon class="cls-2" points="96.62 45 94.25 47.37 94.21 47.33 68.72 72.82 68.33 72.44 68.33 72.23 68.3 72.27 63.85 67.82 63.9 67.82 41.08 45 17.68 45 17.68 99.72 42.57 124.61 42.57 131.35 42.57 161.67 42.57 172.55 55.02 185 55.56 185 55.56 148.95 55.62 148.95 55.62 114.04 30.88 89.31 30.88 54.29 62.33 85.74 62.33 99.2 68.69 105.56 75.01 99.23 75.01 84.29 104.92 54.38 104.92 89.4 80.28 114.04 80.28 178.74 80.24 178.71 80.24 185 80.87 185 93.3 172.55 93.3 161.67 93.3 131.35 93.3 124.61 118.01 99.85 118.01 92.49 118.01 45 96.62 45"/><polygon class="cls-2" points="104.96 132.09 104.96 155.93 104.92 155.9 104.92 162.19 105.55 162.19 117.97 149.74 117.97 138.86 117.97 119.06 104.96 132.09"/><polygon class="cls-2" points="30.81 131.92 17.8 118.91 17.8 138.86 17.8 149.74 30.22 162.19 30.85 162.19 30.85 155.9 30.81 155.93 30.81 131.92"/></g></g></svg>