<svg xmlns="http://www.w3.org/2000/svg" viewBox="0 0 1780.87 1052.72"><defs><style>.cls-1{fill:#38ba6d;}.cls-2{fill:#329360;}.cls-3{fill:#ccc3be;}.cls-4{fill:#e0d5ce;}.cls-5{fill:#d3cac5;}.cls-6{fill:#b5aeaa;}.cls-7{fill:#fff5f0;}.cls-8{fill:#4f4d4c;}.cls-8,.cls-9{opacity:0.35;}.cls-9{fill:#0c0c0c;}</style></defs><title>mayanpyramidFichier 1</title><g id="Calque_2" data-name="Calque 2"><g id="Calque_2-2" data-name="Calque 2"><path class="cls-1" d="M1761.45,419.63,1564.57,305.29l-11.13-6a14.6,14.6,0,0,1-.93-25.11l17.4-11.19a14.59,14.59,0,0,0,.32-24.35,599.88,599.88,0,0,0-53-31.7c-32.48-17.44-65.22-34-71.42-37.06a15.65,15.65,0,0,0-2.17-.88,23.66,23.66,0,0,1-4.53-2.05L1235.44,48.43,1196.65,26a81,81,0,0,0-81-.07L896,152.47a24.39,24.39,0,0,1-24.4,0L667,34.05A96,96,0,0,0,571,34L476.07,88.68,77.77,318.5,46.69,336.16c-26.19,14.88-25.18,53,1.77,66.45h0c26.86,13.43,28,51.35,1.93,66.33L19.55,486.68c-26.07,15-26.07,52.63,0,67.62L222.19,670.81c26,15,26.09,52.51.11,67.57L194,754.75c-25.93,15-25.93,52.47,0,67.5l67.07,38.86a39,39,0,0,0,39.28-.11l47.79-28a39,39,0,0,1,39.27-.11l374.14,216.56a24.39,24.39,0,0,0,24.4,0L1102.84,867a39,39,0,0,1,39.62.4l76.48,46.15a39,39,0,0,0,39.83.28l292.59-171a24.41,24.41,0,0,0-.19-42.25l-21.46-12.29c-26.12-15-26.17-52.62-.08-67.65l231.7-133.44C1787.33,472.19,1787.39,434.7,1761.45,419.63Z"/><path class="cls-2" d="M278.81,202.5l-201,116L46.69,336.16c-26.19,14.88-25.18,53,1.77,66.45h0c26.86,13.43,28,51.35,1.93,66.33L19.55,486.68c-26.07,15-26.07,52.63,0,67.62L222.19,670.81c26,15,26.09,52.51.11,67.57L194,754.75c-25.93,15-25.93,52.47,0,67.5l67.07,38.86a39,39,0,0,0,39.28-.11l47.79-28a39,39,0,0,1,39.27-.11l11.43,6.62h461.9v-637Z"/><polygon class="cls-3" points="222.27 470 251.27 420 861.27 772 1471.27 420 1529.27 453 861.27 839 222.27 470"/><polygon class="cls-4" points="251.27 420 861.27 67 1471.27 420 861.27 772 251.27 420"/><polygon class="cls-3" points="309.27 420 338.27 369 861.27 671 1384.27 369 1413.27 420 861.27 738 309.27 420"/><polygon class="cls-4" points="338.27 369 861.27 67 1384.27 369 861.27 671 338.27 369"/><polygon class="cls-3" points="396.27 369 425.27 319 861.27 570 1297.27 319 1326.27 369 861.27 638 396.27 369"/><polygon class="cls-4" points="425.27 319 861.27 67 1297.27 319 861.27 570 425.27 319"/><polygon class="cls-3" points="513.27 269 484.27 319 861.27 537 1239.27 319 1210.27 269 861.27 470 513.27 269"/><polygon class="cls-4" points="513.27 269 862.27 470 1210.27 269 862.27 67 513.27 269"/><polygon class="cls-3" points="861.27 403 571.27 235 571.27 269 861.27 437 1152.27 269 1152.27 235 861.27 403"/><polygon class="cls-4" points="688.27 101 862.27 0 1035.27 101 861.27 202 688.27 101"/><polygon class="cls-3" points="861.27 202 688.27 101 688.27 235.5 689.13 235.5 861.27 336 1034.41 235.5 1035.27 235.5 1035.27 101 861.27 202"/><path class="cls-5" d="M774,352.47l-116-67.07L571.84,435.53,454.27,637l117,68q54-95.79,108.85-191Q726.76,433,774,352.47Z"/><polygon class="cls-5" points="948.27 352 1151.27 705 1268.27 638 1064.27 285 948.27 352"/><path class="cls-6" d="M590.13,671.92l-19.32,33.29.51-.28-.05.07,2.11-1.23,26.89-15,20.65-55.59,29.35-16.41,15-58.73,28-17.27,15.28-58.52L738,465.73,752.21,407l21.56-20.51.5-34.5S635.08,593.13,590.13,671.92Z"/><path class="cls-6" d="M1131.51,671.92l19.23,33.29-.51-.28,0,.07-2.11-1.23-26.75-15-20.55-55.59-29.21-16.41q-7.46-29.37-14.92-58.73l-27.86-17.27-15.21-58.52-29.32-16.48L970.23,407,948.77,386.5q-.24-17.25-.5-34.5S1086.78,593.13,1131.51,671.92Z"/><g id="Calque_3" data-name="Calque 3"><line class="cls-7" x1="657.77" y1="285.5" x2="773.77" y2="351.5"/><line class="cls-7" x1="653.34" y1="293.15" x2="769.36" y2="359.2"/><line class="cls-7" x1="648.9" y1="300.8" x2="764.95" y2="366.89"/><line class="cls-7" x1="644.47" y1="308.46" x2="760.53" y2="374.59"/><line class="cls-7" x1="640.03" y1="316.11" x2="756.12" y2="382.28"/><line class="cls-7" x1="635.6" y1="323.76" x2="751.71" y2="389.98"/><line class="cls-7" x1="631.16" y1="331.41" x2="747.29" y2="397.67"/><line class="cls-7" x1="626.73" y1="339.07" x2="742.88" y2="405.37"/><line class="cls-7" x1="622.29" y1="346.72" x2="738.47" y2="413.07"/><line class="cls-7" x1="617.86" y1="354.37" x2="734.06" y2="420.76"/><line class="cls-7" x1="613.43" y1="362.02" x2="729.64" y2="428.46"/><line class="cls-7" x1="608.99" y1="369.67" x2="725.23" y2="436.15"/><line class="cls-7" x1="604.56" y1="377.33" x2="720.82" y2="443.85"/><line class="cls-7" x1="600.12" y1="384.98" x2="716.4" y2="451.54"/><line class="cls-7" x1="595.69" y1="392.63" x2="711.99" y2="459.24"/><line class="cls-7" x1="591.25" y1="400.28" x2="707.58" y2="466.93"/><line class="cls-7" x1="586.82" y1="407.93" x2="703.16" y2="474.63"/><line class="cls-7" x1="582.38" y1="415.59" x2="698.75" y2="482.33"/><line class="cls-7" x1="577.95" y1="423.24" x2="694.34" y2="490.02"/><line class="cls-7" x1="573.51" y1="430.89" x2="689.93" y2="497.72"/><line class="cls-7" x1="569.08" y1="438.54" x2="685.51" y2="505.41"/><line class="cls-7" x1="564.64" y1="446.2" x2="681.1" y2="513.11"/><line class="cls-7" x1="560.21" y1="453.85" x2="676.69" y2="520.8"/><line class="cls-7" x1="555.77" y1="461.5" x2="672.27" y2="528.5"/><line class="cls-7" x1="551.34" y1="469.15" x2="667.86" y2="536.2"/><line class="cls-7" x1="546.9" y1="476.8" x2="663.45" y2="543.89"/><line class="cls-7" x1="542.47" y1="484.46" x2="659.03" y2="551.59"/><line class="cls-7" x1="538.03" y1="492.11" x2="654.62" y2="559.28"/><line class="cls-7" x1="533.6" y1="499.76" x2="650.21" y2="566.98"/><line class="cls-7" x1="529.16" y1="507.41" x2="645.79" y2="574.67"/><line class="cls-7" x1="524.73" y1="515.07" x2="641.38" y2="582.37"/><line class="cls-7" x1="520.29" y1="522.72" x2="636.97" y2="590.07"/><line class="cls-7" x1="515.86" y1="530.37" x2="632.56" y2="597.76"/><line class="cls-7" x1="511.43" y1="538.02" x2="628.14" y2="605.46"/><line class="cls-7" x1="506.99" y1="545.67" x2="623.73" y2="613.15"/><line class="cls-7" x1="502.56" y1="553.33" x2="619.32" y2="620.85"/><line class="cls-7" x1="498.12" y1="560.98" x2="614.9" y2="628.54"/><line class="cls-7" x1="493.69" y1="568.63" x2="610.49" y2="636.24"/><line class="cls-7" x1="489.25" y1="576.28" x2="606.08" y2="643.93"/><line class="cls-7" x1="484.82" y1="583.93" x2="601.66" y2="651.63"/><line class="cls-7" x1="480.38" y1="591.59" x2="597.25" y2="659.33"/><line class="cls-7" x1="475.95" y1="599.24" x2="592.84" y2="667.02"/><line class="cls-7" x1="471.51" y1="606.89" x2="588.43" y2="674.72"/><line class="cls-7" x1="467.08" y1="614.54" x2="584.01" y2="682.41"/><line class="cls-7" x1="462.64" y1="622.2" x2="579.6" y2="690.11"/><line class="cls-7" x1="458.21" y1="629.85" x2="575.19" y2="697.8"/><line class="cls-7" x1="453.77" y1="637.5" x2="570.77" y2="705.5"/></g><line class="cls-7" x1="1064.77" y1="285.5" x2="948.77" y2="351.5"/><line class="cls-7" x1="1069.21" y1="293.15" x2="953.19" y2="359.2"/><line class="cls-7" x1="1073.64" y1="300.8" x2="957.6" y2="366.89"/><line class="cls-7" x1="1078.08" y1="308.46" x2="962.01" y2="374.59"/><line class="cls-7" x1="1082.51" y1="316.11" x2="966.43" y2="382.28"/><line class="cls-7" x1="1086.95" y1="323.76" x2="970.84" y2="389.98"/><line class="cls-7" x1="1091.38" y1="331.41" x2="975.25" y2="397.67"/><line class="cls-7" x1="1095.82" y1="339.07" x2="979.66" y2="405.37"/><line class="cls-7" x1="1100.25" y1="346.72" x2="984.08" y2="413.07"/><line class="cls-7" x1="1104.69" y1="354.37" x2="988.49" y2="420.76"/><line class="cls-7" x1="1109.12" y1="362.02" x2="992.9" y2="428.46"/><line class="cls-7" x1="1113.56" y1="369.67" x2="997.32" y2="436.15"/><line class="cls-7" x1="1117.99" y1="377.33" x2="1001.73" y2="443.85"/><line class="cls-7" x1="1122.43" y1="384.98" x2="1006.14" y2="451.54"/><line class="cls-7" x1="1126.86" y1="392.63" x2="1010.56" y2="459.24"/><line class="cls-7" x1="1131.29" y1="400.28" x2="1014.97" y2="466.93"/><line class="cls-7" x1="1135.73" y1="407.93" x2="1019.38" y2="474.63"/><line class="cls-7" x1="1140.16" y1="415.59" x2="1023.79" y2="482.33"/><line class="cls-7" x1="1144.6" y1="423.24" x2="1028.21" y2="490.02"/><line class="cls-7" x1="1149.03" y1="430.89" x2="1032.62" y2="497.72"/><line class="cls-7" x1="1153.47" y1="438.54" x2="1037.03" y2="505.41"/><line class="cls-7" x1="1157.9" y1="446.2" x2="1041.45" y2="513.11"/><line class="cls-7" x1="1162.34" y1="453.85" x2="1045.86" y2="520.8"/><line class="cls-7" x1="1166.77" y1="461.5" x2="1050.27" y2="528.5"/><line class="cls-7" x1="1171.21" y1="469.15" x2="1054.69" y2="536.2"/><line class="cls-7" x1="1175.64" y1="476.8" x2="1059.1" y2="543.89"/><line class="cls-7" x1="1180.08" y1="484.46" x2="1063.51" y2="551.59"/><line class="cls-7" x1="1184.51" y1="492.11" x2="1067.93" y2="559.28"/><line class="cls-7" x1="1188.95" y1="499.76" x2="1072.34" y2="566.98"/><line class="cls-7" x1="1193.38" y1="507.41" x2="1076.75" y2="574.67"/><line class="cls-7" x1="1197.82" y1="515.07" x2="1081.16" y2="582.37"/><line class="cls-7" x1="1202.25" y1="522.72" x2="1085.58" y2="590.07"/><line class="cls-7" x1="1206.69" y1="530.37" x2="1089.99" y2="597.76"/><line class="cls-7" x1="1211.12" y1="538.02" x2="1094.4" y2="605.46"/><line class="cls-7" x1="1215.56" y1="545.67" x2="1098.82" y2="613.15"/><line class="cls-7" x1="1219.99" y1="553.33" x2="1103.23" y2="620.85"/><line class="cls-7" x1="1224.43" y1="560.98" x2="1107.64" y2="628.54"/><line class="cls-7" x1="1228.86" y1="568.63" x2="1112.06" y2="636.24"/><line class="cls-7" x1="1233.29" y1="576.28" x2="1116.47" y2="643.93"/><line class="cls-7" x1="1237.73" y1="583.93" x2="1120.88" y2="651.63"/><line class="cls-7" x1="1242.16" y1="591.59" x2="1125.29" y2="659.33"/><line class="cls-7" x1="1246.6" y1="599.24" x2="1129.71" y2="667.02"/><line class="cls-7" x1="1251.03" y1="606.89" x2="1134.12" y2="674.72"/><line class="cls-7" x1="1255.47" y1="614.54" x2="1138.53" y2="682.41"/><line class="cls-7" x1="1259.9" y1="622.2" x2="1142.95" y2="690.11"/><line class="cls-7" x1="1264.34" y1="629.85" x2="1147.36" y2="697.8"/><line class="cls-7" x1="1268.77" y1="637.5" x2="1151.77" y2="705.5"/><path class="cls-8" d="M860.77,201.5l-173-101v66l-436,253-30,50L468.69,612.3q-7.45,12.6-14.92,25.2l117,68,29-17,261,150v-67l-58-33.26,58-.74v-67l-58-32.5,58-.5v-68L804,537l56.82-.5,1-67-59-32.5,58-.5v-34l-87-51,87-16"/></g><g id="Calque_4" data-name="Calque 4"><polygon class="cls-8" points="722.77 256.08 722.77 155.79 809.77 205.5 809.77 305.85 722.77 256.08"/><path class="cls-9" d="M737.77,247.5l-.09-83.19,72.09,41.19v84Z"/></g></g></svg>